<?xml version="1.0" encoding="UTF-8" standalone="no"?>
<!DOCTYPE svg PUBLIC "-//W3C//DTD SVG 1.1//EN"
 "http://www.w3.org/Graphics/SVG/1.1/DTD/svg11.dtd">
<!-- Generated by graphviz version 2.43.0 (0)
 -->
<!-- Title: include/kernel/Acceptor.hpp Pages: 1 -->
<svg width="606pt" height="192pt"
 viewBox="0.00 0.00 605.50 192.00" xmlns="http://www.w3.org/2000/svg" xmlns:xlink="http://www.w3.org/1999/xlink">
<g id="graph0" class="graph" transform="scale(1 1) rotate(0) translate(4 188)">
<title>include/kernel/Acceptor.hpp</title>
<!-- Node1 -->
<g id="Node000001" class="node">
<title>Node1</title>
<g id="a_Node000001"><a xlink:title=" ">
<polygon fill="#999999" stroke="#666666" points="439.5,-184 288.5,-184 288.5,-165 439.5,-165 439.5,-184"/>
<text text-anchor="middle" x="364" y="-172" font-family="Helvetica,sans-Serif" font-size="10.00">include/kernel/Acceptor.hpp</text>
</a>
</g>
</g>
<!-- Node2 -->
<g id="Node000002" class="node">
<title>Node2</title>
<g id="a_Node000002"><a xlink:href="IHandler_8hpp.html" target="_top" xlink:title=" ">
<polygon fill="white" stroke="#666666" points="78,-19 0,-19 0,0 78,0 78,-19"/>
<text text-anchor="middle" x="39" y="-7" font-family="Helvetica,sans-Serif" font-size="10.00">IHandler.hpp</text>
</a>
</g>
</g>
<!-- Node1&#45;&gt;Node2 -->
<g id="edge1_Node000001_Node000002" class="edge">
<title>Node1&#45;&gt;Node2</title>
<g id="a_edge1_Node000001_Node000002"><a xlink:title=" ">
<path fill="none" stroke="#63b8ff" d="M288.12,-165.23C250.95,-158.96 206.47,-148 170,-129 119.91,-102.9 74.09,-53.02 52.32,-27.08"/>
<polygon fill="#63b8ff" stroke="#63b8ff" points="54.95,-24.77 45.89,-19.28 49.54,-29.22 54.95,-24.77"/>
</a>
</g>
</g>
<!-- Node3 -->
<g id="Node000003" class="node">
<title>Node3</title>
<g id="a_Node000003"><a xlink:href="Reactor_8hpp.html" target="_top" xlink:title=" ">
<polygon fill="white" stroke="#666666" points="279,-74 205,-74 205,-55 279,-55 279,-74"/>
<text text-anchor="middle" x="242" y="-62" font-family="Helvetica,sans-Serif" font-size="10.00">Reactor.hpp</text>
</a>
</g>
</g>
<!-- Node1&#45;&gt;Node3 -->
<g id="edge2_Node000001_Node000003" class="edge">
<title>Node1&#45;&gt;Node3</title>
<g id="a_edge2_Node000001_Node000003"><a xlink:title=" ">
<path fill="none" stroke="#63b8ff" d="M288.68,-164.98C243.42,-158.13 191.96,-146.69 178,-129 163.02,-110.02 189.43,-90.82 212.73,-78.58"/>
<polygon fill="#63b8ff" stroke="#63b8ff" points="214.35,-81.68 221.74,-74.09 211.23,-75.42 214.35,-81.68"/>
</a>
</g>
</g>
<!-- Node5 -->
<g id="Node000005" class="node">
<title>Node5</title>
<g id="a_Node000005"><a xlink:title=" ">
<polygon fill="#e0e0e0" stroke="#999999" points="549,-19 489,-19 489,0 549,0 549,-19"/>
<text text-anchor="middle" x="519" y="-7" font-family="Helvetica,sans-Serif" font-size="10.00">iostream</text>
</a>
</g>
</g>
<!-- Node1&#45;&gt;Node5 -->
<g id="edge18_Node000001_Node000005" class="edge">
<title>Node1&#45;&gt;Node5</title>
<g id="a_edge18_Node000001_Node000005"><a xlink:title=" ">
<path fill="none" stroke="#63b8ff" d="M360.87,-164.97C353.74,-143.87 338.75,-88.52 364,-55 371.07,-45.61 435.56,-29.39 479.09,-19.34"/>
<polygon fill="#63b8ff" stroke="#63b8ff" points="479.88,-22.76 488.85,-17.11 478.32,-15.93 479.88,-22.76"/>
</a>
</g>
</g>
<!-- Node10 -->
<g id="Node000010" class="node">
<title>Node10</title>
<g id="a_Node000010"><a xlink:href="ConnectionHandler_8hpp.html" target="_top" xlink:title=" ">
<polygon fill="white" stroke="#666666" points="317,-129 187,-129 187,-110 317,-110 317,-129"/>
<text text-anchor="middle" x="252" y="-117" font-family="Helvetica,sans-Serif" font-size="10.00">ConnectionHandler.hpp</text>
</a>
</g>
</g>
<!-- Node1&#45;&gt;Node10 -->
<g id="edge10_Node000001_Node000010" class="edge">
<title>Node1&#45;&gt;Node10</title>
<g id="a_edge10_Node000001_Node000010"><a xlink:title=" ">
<path fill="none" stroke="#63b8ff" d="M346.01,-164.98C328.07,-156.5 300.28,-143.35 279.57,-133.54"/>
<polygon fill="#63b8ff" stroke="#63b8ff" points="280.86,-130.28 270.32,-129.17 277.86,-136.61 280.86,-130.28"/>
</a>
</g>
</g>
<!-- Node11 -->
<g id="Node000011" class="node">
<title>Node11</title>
<g id="a_Node000011"><a xlink:title=" ">
<polygon fill="#e0e0e0" stroke="#999999" points="424.5,-74 373.5,-74 373.5,-55 424.5,-55 424.5,-74"/>
<text text-anchor="middle" x="399" y="-62" font-family="Helvetica,sans-Serif" font-size="10.00">errno.h</text>
</a>
</g>
</g>
<!-- Node1&#45;&gt;Node11 -->
<g id="edge17_Node000001_Node000011" class="edge">
<title>Node1&#45;&gt;Node11</title>
<g id="a_edge17_Node000001_Node000011"><a xlink:title=" ">
<path fill="none" stroke="#63b8ff" d="M366.86,-164.66C372.56,-147.09 385.41,-107.45 393.02,-83.95"/>
<polygon fill="#63b8ff" stroke="#63b8ff" points="396.44,-84.75 396.19,-74.16 389.78,-82.59 396.44,-84.75"/>
</a>
</g>
</g>
<!-- Node12 -->
<g id="Node000012" class="node">
<title>Node12</title>
<g id="a_Node000012"><a xlink:title=" ">
<polygon fill="#e0e0e0" stroke="#999999" points="495.5,-74 442.5,-74 442.5,-55 495.5,-55 495.5,-74"/>
<text text-anchor="middle" x="469" y="-62" font-family="Helvetica,sans-Serif" font-size="10.00">string.h</text>
</a>
</g>
</g>
<!-- Node1&#45;&gt;Node12 -->
<g id="edge20_Node000001_Node000012" class="edge">
<title>Node1&#45;&gt;Node12</title>
<g id="a_edge20_Node000001_Node000012"><a xlink:title=" ">
<path fill="none" stroke="#63b8ff" d="M372.59,-164.66C390.29,-146.46 431.04,-104.55 453.48,-81.47"/>
<polygon fill="#63b8ff" stroke="#63b8ff" points="456.12,-83.77 460.58,-74.16 451.1,-78.89 456.12,-83.77"/>
</a>
</g>
</g>
<!-- Node13 -->
<g id="Node000013" class="node">
<title>Node13</title>
<g id="a_Node000013"><a xlink:title=" ">
<polygon fill="#e0e0e0" stroke="#999999" points="502.5,-129 449.5,-129 449.5,-110 502.5,-110 502.5,-129"/>
<text text-anchor="middle" x="476" y="-117" font-family="Helvetica,sans-Serif" font-size="10.00">netdb.h</text>
</a>
</g>
</g>
<!-- Node1&#45;&gt;Node13 -->
<g id="edge19_Node000001_Node000013" class="edge">
<title>Node1&#45;&gt;Node13</title>
<g id="a_edge19_Node000001_Node000013"><a xlink:title=" ">
<path fill="none" stroke="#63b8ff" d="M381.99,-164.98C399.93,-156.5 427.72,-143.35 448.43,-133.54"/>
<polygon fill="#63b8ff" stroke="#63b8ff" points="450.14,-136.61 457.68,-129.17 447.14,-130.28 450.14,-136.61"/>
</a>
</g>
</g>
<!-- Node14 -->
<g id="Node000014" class="node">
<title>Node14</title>
<g id="a_Node000014"><a xlink:title=" ">
<polygon fill="#e0e0e0" stroke="#999999" points="597.5,-129 520.5,-129 520.5,-110 597.5,-110 597.5,-129"/>
<text text-anchor="middle" x="559" y="-117" font-family="Helvetica,sans-Serif" font-size="10.00">sys/socket.h</text>
</a>
</g>
</g>
<!-- Node1&#45;&gt;Node14 -->
<g id="edge21_Node000001_Node000014" class="edge">
<title>Node1&#45;&gt;Node14</title>
<g id="a_edge21_Node000001_Node000014"><a xlink:title=" ">
<path fill="none" stroke="#63b8ff" d="M395.33,-164.98C428.49,-155.97 481,-141.7 517.56,-131.76"/>
<polygon fill="#63b8ff" stroke="#63b8ff" points="518.69,-135.08 527.42,-129.08 516.86,-128.33 518.69,-135.08"/>
</a>
</g>
</g>
<!-- Node3&#45;&gt;Node2 -->
<g id="edge3_Node000003_Node000002" class="edge">
<title>Node3&#45;&gt;Node2</title>
<g id="a_edge3_Node000003_Node000002"><a xlink:title=" ">
<path fill="none" stroke="#63b8ff" d="M209.38,-54.98C174.71,-45.93 119.74,-31.58 81.65,-21.64"/>
<polygon fill="#63b8ff" stroke="#63b8ff" points="82.43,-18.22 71.87,-19.08 80.66,-24.99 82.43,-18.22"/>
</a>
</g>
</g>
<!-- Node4 -->
<g id="Node000004" class="node">
<title>Node4</title>
<g id="a_Node000004"><a xlink:href="defines_8hpp.html" target="_top" xlink:title=" ">
<polygon fill="white" stroke="#666666" points="169.5,-19 96.5,-19 96.5,0 169.5,0 169.5,-19"/>
<text text-anchor="middle" x="133" y="-7" font-family="Helvetica,sans-Serif" font-size="10.00">defines.hpp</text>
</a>
</g>
</g>
<!-- Node3&#45;&gt;Node4 -->
<g id="edge4_Node000003_Node000004" class="edge">
<title>Node3&#45;&gt;Node4</title>
<g id="a_edge4_Node000003_Node000004"><a xlink:title=" ">
<path fill="none" stroke="#63b8ff" d="M224.49,-54.98C207.03,-46.5 179.99,-33.35 159.83,-23.54"/>
<polygon fill="#63b8ff" stroke="#63b8ff" points="161.36,-20.4 150.83,-19.17 158.29,-26.69 161.36,-20.4"/>
</a>
</g>
</g>
<!-- Node3&#45;&gt;Node5 -->
<g id="edge5_Node000003_Node000005" class="edge">
<title>Node3&#45;&gt;Node5</title>
<g id="a_edge5_Node000003_Node000005"><a xlink:title=" ">
<path fill="none" stroke="#63b8ff" d="M279.17,-56.9C324.14,-48.85 402.38,-34.58 478.97,-19.16"/>
<polygon fill="#63b8ff" stroke="#63b8ff" points="479.68,-22.59 488.79,-17.18 478.29,-15.73 479.68,-22.59"/>
</a>
</g>
</g>
<!-- Node6 -->
<g id="Node000006" class="node">
<title>Node6</title>
<g id="a_Node000006"><a xlink:title=" ">
<polygon fill="#e0e0e0" stroke="#999999" points="226,-19 188,-19 188,0 226,0 226,-19"/>
<text text-anchor="middle" x="207" y="-7" font-family="Helvetica,sans-Serif" font-size="10.00">map</text>
</a>
</g>
</g>
<!-- Node3&#45;&gt;Node6 -->
<g id="edge6_Node000003_Node000006" class="edge">
<title>Node3&#45;&gt;Node6</title>
<g id="a_edge6_Node000003_Node000006"><a xlink:title=" ">
<path fill="none" stroke="#63b8ff" d="M236.22,-54.75C231.38,-47.42 224.32,-36.73 218.36,-27.7"/>
<polygon fill="#63b8ff" stroke="#63b8ff" points="221.1,-25.5 212.67,-19.09 215.26,-29.36 221.1,-25.5"/>
</a>
</g>
</g>
<!-- Node7 -->
<g id="Node000007" class="node">
<title>Node7</title>
<g id="a_Node000007"><a xlink:title=" ">
<polygon fill="#e0e0e0" stroke="#999999" points="309.5,-19 244.5,-19 244.5,0 309.5,0 309.5,-19"/>
<text text-anchor="middle" x="277" y="-7" font-family="Helvetica,sans-Serif" font-size="10.00">stdexcept</text>
</a>
</g>
</g>
<!-- Node3&#45;&gt;Node7 -->
<g id="edge7_Node000003_Node000007" class="edge">
<title>Node3&#45;&gt;Node7</title>
<g id="a_edge7_Node000003_Node000007"><a xlink:title=" ">
<path fill="none" stroke="#63b8ff" d="M247.78,-54.75C252.62,-47.42 259.68,-36.73 265.64,-27.7"/>
<polygon fill="#63b8ff" stroke="#63b8ff" points="268.74,-29.36 271.33,-19.09 262.9,-25.5 268.74,-29.36"/>
</a>
</g>
</g>
<!-- Node8 -->
<g id="Node000008" class="node">
<title>Node8</title>
<g id="a_Node000008"><a xlink:title=" ">
<polygon fill="#e0e0e0" stroke="#999999" points="396.5,-19 327.5,-19 327.5,0 396.5,0 396.5,-19"/>
<text text-anchor="middle" x="362" y="-7" font-family="Helvetica,sans-Serif" font-size="10.00">sys/epoll.h</text>
</a>
</g>
</g>
<!-- Node3&#45;&gt;Node8 -->
<g id="edge8_Node000003_Node000008" class="edge">
<title>Node3&#45;&gt;Node8</title>
<g id="a_edge8_Node000003_Node000008"><a xlink:title=" ">
<path fill="none" stroke="#63b8ff" d="M261.28,-54.98C280.67,-46.42 310.81,-33.11 333.07,-23.28"/>
<polygon fill="#63b8ff" stroke="#63b8ff" points="334.64,-26.41 342.37,-19.17 331.81,-20.01 334.64,-26.41"/>
</a>
</g>
</g>
<!-- Node9 -->
<g id="Node000009" class="node">
<title>Node9</title>
<g id="a_Node000009"><a xlink:title=" ">
<polygon fill="#e0e0e0" stroke="#999999" points="471,-19 415,-19 415,0 471,0 471,-19"/>
<text text-anchor="middle" x="443" y="-7" font-family="Helvetica,sans-Serif" font-size="10.00">unistd.h</text>
</a>
</g>
</g>
<!-- Node3&#45;&gt;Node9 -->
<g id="edge9_Node000003_Node000009" class="edge">
<title>Node3&#45;&gt;Node9</title>
<g id="a_edge9_Node000003_Node000009"><a xlink:title=" ">
<path fill="none" stroke="#63b8ff" d="M274.29,-54.98C309.8,-45.62 366.8,-30.59 404.57,-20.63"/>
<polygon fill="#63b8ff" stroke="#63b8ff" points="405.91,-23.9 414.68,-17.97 404.12,-17.13 405.91,-23.9"/>
</a>
</g>
</g>
<!-- Node10&#45;&gt;Node2 -->
<g id="edge11_Node000010_Node000002" class="edge">
<title>Node10&#45;&gt;Node2</title>
<g id="a_edge11_Node000010_Node000002"><a xlink:title=" ">
<path fill="none" stroke="#63b8ff" d="M234.93,-109.84C197.68,-90.96 108.93,-45.96 64.81,-23.59"/>
<polygon fill="#63b8ff" stroke="#63b8ff" points="66.36,-20.45 55.86,-19.05 63.19,-26.69 66.36,-20.45"/>
</a>
</g>
</g>
<!-- Node10&#45;&gt;Node3 -->
<g id="edge12_Node000010_Node000003" class="edge">
<title>Node10&#45;&gt;Node3</title>
<g id="a_edge12_Node000010_Node000003"><a xlink:title=" ">
<path fill="none" stroke="#63b8ff" d="M250.35,-109.75C249.04,-102.8 247.16,-92.85 245.52,-84.13"/>
<polygon fill="#63b8ff" stroke="#63b8ff" points="248.91,-83.27 243.62,-74.09 242.04,-84.56 248.91,-83.27"/>
</a>
</g>
</g>
<!-- Node10&#45;&gt;Node4 -->
<g id="edge13_Node000010_Node000004" class="edge">
<title>Node10&#45;&gt;Node4</title>
<g id="a_edge13_Node000010_Node000004"><a xlink:title=" ">
<path fill="none" stroke="#63b8ff" d="M240.09,-109.68C228.52,-100.97 210.62,-87.09 196,-74 178.76,-58.56 160.23,-39.57 147.77,-26.4"/>
<polygon fill="#63b8ff" stroke="#63b8ff" points="150.25,-23.93 140.86,-19.04 145.15,-28.72 150.25,-23.93"/>
</a>
</g>
</g>
<!-- Node10&#45;&gt;Node5 -->
<g id="edge15_Node000010_Node000005" class="edge">
<title>Node10&#45;&gt;Node5</title>
<g id="a_edge15_Node000010_Node000005"><a xlink:title=" ">
<path fill="none" stroke="#63b8ff" d="M260.33,-109.63C273.83,-95.8 301.91,-69.22 331,-55 337.71,-51.72 426,-31.48 479.17,-19.46"/>
<polygon fill="#63b8ff" stroke="#63b8ff" points="479.99,-22.86 488.98,-17.24 478.45,-16.03 479.99,-22.86"/>
</a>
</g>
</g>
<!-- Node10&#45;&gt;Node11 -->
<g id="edge14_Node000010_Node000011" class="edge">
<title>Node10&#45;&gt;Node11</title>
<g id="a_edge14_Node000010_Node000011"><a xlink:title=" ">
<path fill="none" stroke="#63b8ff" d="M275.62,-109.98C299.9,-101.23 337.95,-87.51 365.37,-77.62"/>
<polygon fill="#63b8ff" stroke="#63b8ff" points="366.73,-80.85 374.95,-74.17 364.36,-74.27 366.73,-80.85"/>
</a>
</g>
</g>
<!-- Node10&#45;&gt;Node12 -->
<g id="edge16_Node000010_Node000012" class="edge">
<title>Node10&#45;&gt;Node12</title>
<g id="a_edge16_Node000010_Node000012"><a xlink:title=" ">
<path fill="none" stroke="#63b8ff" d="M286.86,-109.98C326.85,-100.22 392.09,-84.29 432.67,-74.37"/>
<polygon fill="#63b8ff" stroke="#63b8ff" points="433.54,-77.76 442.43,-71.99 431.88,-70.96 433.54,-77.76"/>
</a>
</g>
</g>
</g>
</svg>
