<?xml version="1.0" encoding="UTF-8" standalone="no"?>
<!DOCTYPE svg PUBLIC "-//W3C//DTD SVG 1.1//EN"
 "http://www.w3.org/Graphics/SVG/1.1/DTD/svg11.dtd">
<!-- Generated by graphviz version 2.43.0 (0)
 -->
<!-- Title: source/kernel/Acceptor.cpp Pages: 1 -->
<svg width="1261pt" height="247pt"
 viewBox="0.00 0.00 1261.00 247.00" xmlns="http://www.w3.org/2000/svg" xmlns:xlink="http://www.w3.org/1999/xlink">
<g id="graph0" class="graph" transform="scale(1 1) rotate(0) translate(4 243)">
<title>source/kernel/Acceptor.cpp</title>
<!-- Node1 -->
<g id="Node000001" class="node">
<title>Node1</title>
<g id="a_Node000001"><a xlink:title=" ">
<polygon fill="#999999" stroke="#666666" points="720.5,-239 573.5,-239 573.5,-220 720.5,-220 720.5,-239"/>
<text text-anchor="middle" x="647" y="-227" font-family="Helvetica,sans-Serif" font-size="10.00">source/kernel/Acceptor.cpp</text>
</a>
</g>
</g>
<!-- Node2 -->
<g id="Node000002" class="node">
<title>Node2</title>
<g id="a_Node000002"><a xlink:href="Acceptor_8hpp.html" target="_top" xlink:title=" ">
<polygon fill="white" stroke="#666666" points="968,-184 888,-184 888,-165 968,-165 968,-184"/>
<text text-anchor="middle" x="928" y="-172" font-family="Helvetica,sans-Serif" font-size="10.00">Acceptor.hpp</text>
</a>
</g>
</g>
<!-- Node1&#45;&gt;Node2 -->
<g id="edge1_Node000001_Node000002" class="edge">
<title>Node1&#45;&gt;Node2</title>
<g id="a_edge1_Node000001_Node000002"><a xlink:title=" ">
<path fill="none" stroke="#63b8ff" d="M692.15,-219.98C742.91,-210.41 825.11,-194.91 877.84,-184.96"/>
<polygon fill="#63b8ff" stroke="#63b8ff" points="878.79,-188.34 887.97,-183.05 877.49,-181.46 878.79,-188.34"/>
</a>
</g>
</g>
<!-- Node5 -->
<g id="Node000005" class="node">
<title>Node5</title>
<g id="a_Node000005"><a xlink:href="defines_8hpp.html" target="_top" xlink:title=" ">
<polygon fill="white" stroke="#666666" points="706.5,-19 633.5,-19 633.5,0 706.5,0 706.5,-19"/>
<text text-anchor="middle" x="670" y="-7" font-family="Helvetica,sans-Serif" font-size="10.00">defines.hpp</text>
</a>
</g>
</g>
<!-- Node1&#45;&gt;Node5 -->
<g id="edge24_Node000001_Node000005" class="edge">
<title>Node1&#45;&gt;Node5</title>
<g id="a_edge24_Node000001_Node000005"><a xlink:title=" ">
<path fill="none" stroke="#63b8ff" d="M646.17,-219.71C643.97,-194.01 639.02,-116.94 652,-55 653.92,-45.82 657.63,-36.12 661.19,-28.12"/>
<polygon fill="#63b8ff" stroke="#63b8ff" points="664.35,-29.61 665.46,-19.07 658.02,-26.62 664.35,-29.61"/>
</a>
</g>
</g>
<!-- Node6 -->
<g id="Node000006" class="node">
<title>Node6</title>
<g id="a_Node000006"><a xlink:title=" ">
<polygon fill="#e0e0e0" stroke="#999999" points="785,-19 725,-19 725,0 785,0 785,-19"/>
<text text-anchor="middle" x="755" y="-7" font-family="Helvetica,sans-Serif" font-size="10.00">iostream</text>
</a>
</g>
</g>
<!-- Node1&#45;&gt;Node6 -->
<g id="edge43_Node000001_Node000006" class="edge">
<title>Node1&#45;&gt;Node6</title>
<g id="a_edge43_Node000001_Node000006"><a xlink:title=" ">
<path fill="none" stroke="#63b8ff" d="M649.05,-219.64C655.47,-193.12 676.88,-112.61 713,-55 719.67,-44.36 729.14,-34.06 737.39,-26.05"/>
<polygon fill="#63b8ff" stroke="#63b8ff" points="739.88,-28.52 744.81,-19.14 735.11,-23.4 739.88,-28.52"/>
</a>
</g>
</g>
<!-- Node11 -->
<g id="Node000011" class="node">
<title>Node11</title>
<g id="a_Node000011"><a xlink:href="ConnectionHandler_8hpp.html" target="_top" xlink:title=" ">
<polygon fill="white" stroke="#666666" points="862,-129 732,-129 732,-110 862,-110 862,-129"/>
<text text-anchor="middle" x="797" y="-117" font-family="Helvetica,sans-Serif" font-size="10.00">ConnectionHandler.hpp</text>
</a>
</g>
</g>
<!-- Node1&#45;&gt;Node11 -->
<g id="edge23_Node000001_Node000011" class="edge">
<title>Node1&#45;&gt;Node11</title>
<g id="a_edge23_Node000001_Node000011"><a xlink:title=" ">
<path fill="none" stroke="#63b8ff" d="M659.02,-219.84C684.69,-201.36 745.11,-157.86 776.8,-135.05"/>
<polygon fill="#63b8ff" stroke="#63b8ff" points="778.85,-137.88 784.92,-129.2 774.76,-132.2 778.85,-137.88"/>
</a>
</g>
</g>
<!-- Node16 -->
<g id="Node000016" class="node">
<title>Node16</title>
<g id="a_Node000016"><a xlink:href="Logger_8hpp.html" target="_top" xlink:title=" ">
<polygon fill="white" stroke="#666666" points="355,-74 261,-74 261,-55 355,-55 355,-74"/>
<text text-anchor="middle" x="308" y="-62" font-family="Helvetica,sans-Serif" font-size="10.00">utils/Logger.hpp</text>
</a>
</g>
</g>
<!-- Node1&#45;&gt;Node16 -->
<g id="edge25_Node000001_Node000016" class="edge">
<title>Node1&#45;&gt;Node16</title>
<g id="a_edge25_Node000001_Node000016"><a xlink:title=" ">
<path fill="none" stroke="#63b8ff" d="M629.25,-219.97C573.55,-193.18 401.93,-110.66 335.06,-78.51"/>
<polygon fill="#63b8ff" stroke="#63b8ff" points="336.51,-75.33 325.98,-74.15 333.48,-81.63 336.51,-75.33"/>
</a>
</g>
</g>
<!-- Node20 -->
<g id="Node000020" class="node">
<title>Node20</title>
<g id="a_Node000020"><a xlink:href="utils_8hpp.html" target="_top" xlink:title=" ">
<polygon fill="white" stroke="#666666" points="581.5,-74 498.5,-74 498.5,-55 581.5,-55 581.5,-74"/>
<text text-anchor="middle" x="540" y="-62" font-family="Helvetica,sans-Serif" font-size="10.00">utils/utils.hpp</text>
</a>
</g>
</g>
<!-- Node1&#45;&gt;Node20 -->
<g id="edge31_Node000001_Node000020" class="edge">
<title>Node1&#45;&gt;Node20</title>
<g id="a_edge31_Node000001_Node000020"><a xlink:title=" ">
<path fill="none" stroke="#63b8ff" d="M640.21,-219.78C633.39,-210.92 622.67,-196.72 614,-184 590.1,-148.92 564.29,-106.43 550.36,-83.05"/>
<polygon fill="#63b8ff" stroke="#63b8ff" points="553.27,-81.09 545.15,-74.28 547.25,-84.66 553.27,-81.09"/>
</a>
</g>
</g>
<!-- Node3 -->
<g id="Node000003" class="node">
<title>Node3</title>
<g id="a_Node000003"><a xlink:href="IHandler_8hpp.html" target="_top" xlink:title=" ">
<polygon fill="white" stroke="#666666" points="1253,-19 1175,-19 1175,0 1253,0 1253,-19"/>
<text text-anchor="middle" x="1214" y="-7" font-family="Helvetica,sans-Serif" font-size="10.00">IHandler.hpp</text>
</a>
</g>
</g>
<!-- Node2&#45;&gt;Node3 -->
<g id="edge2_Node000002_Node000003" class="edge">
<title>Node2&#45;&gt;Node3</title>
<g id="a_edge2_Node000002_Node000003"><a xlink:title=" ">
<path fill="none" stroke="#63b8ff" d="M968.42,-169.67C1024.84,-163.62 1123.51,-150.32 1152,-129 1185.51,-103.92 1202.57,-55.41 1209.73,-28.9"/>
<polygon fill="#63b8ff" stroke="#63b8ff" points="1213.17,-29.57 1212.21,-19.02 1206.38,-27.86 1213.17,-29.57"/>
</a>
</g>
</g>
<!-- Node4 -->
<g id="Node000004" class="node">
<title>Node4</title>
<g id="a_Node000004"><a xlink:href="Reactor_8hpp.html" target="_top" xlink:title=" ">
<polygon fill="white" stroke="#666666" points="1030,-74 956,-74 956,-55 1030,-55 1030,-74"/>
<text text-anchor="middle" x="993" y="-62" font-family="Helvetica,sans-Serif" font-size="10.00">Reactor.hpp</text>
</a>
</g>
</g>
<!-- Node2&#45;&gt;Node4 -->
<g id="edge3_Node000002_Node000004" class="edge">
<title>Node2&#45;&gt;Node4</title>
<g id="a_edge3_Node000002_Node000004"><a xlink:title=" ">
<path fill="none" stroke="#63b8ff" d="M933.32,-164.66C944.04,-146.85 968.4,-106.37 982.46,-83.01"/>
<polygon fill="#63b8ff" stroke="#63b8ff" points="985.63,-84.53 987.79,-74.16 979.63,-80.92 985.63,-84.53"/>
</a>
</g>
</g>
<!-- Node2&#45;&gt;Node6 -->
<g id="edge19_Node000002_Node000006" class="edge">
<title>Node2&#45;&gt;Node6</title>
<g id="a_edge19_Node000002_Node000006"><a xlink:title=" ">
<path fill="none" stroke="#63b8ff" d="M887.72,-170.61C833.99,-165.83 743.29,-154.16 723,-129 698.82,-99.01 724.75,-52.27 742.08,-27.41"/>
<polygon fill="#63b8ff" stroke="#63b8ff" points="744.92,-29.45 747.96,-19.3 739.25,-25.34 744.92,-29.45"/>
</a>
</g>
</g>
<!-- Node2&#45;&gt;Node11 -->
<g id="edge11_Node000002_Node000011" class="edge">
<title>Node2&#45;&gt;Node11</title>
<g id="a_edge11_Node000002_Node000011"><a xlink:title=" ">
<path fill="none" stroke="#63b8ff" d="M906.95,-164.98C885.59,-156.34 852.3,-142.87 827.94,-133.02"/>
<polygon fill="#63b8ff" stroke="#63b8ff" points="829.01,-129.68 818.43,-129.17 826.39,-136.17 829.01,-129.68"/>
</a>
</g>
</g>
<!-- Node12 -->
<g id="Node000012" class="node">
<title>Node12</title>
<g id="a_Node000012"><a xlink:title=" ">
<polygon fill="#e0e0e0" stroke="#999999" points="854.5,-19 803.5,-19 803.5,0 854.5,0 854.5,-19"/>
<text text-anchor="middle" x="829" y="-7" font-family="Helvetica,sans-Serif" font-size="10.00">errno.h</text>
</a>
</g>
</g>
<!-- Node2&#45;&gt;Node12 -->
<g id="edge18_Node000002_Node000012" class="edge">
<title>Node2&#45;&gt;Node12</title>
<g id="a_edge18_Node000002_Node000012"><a xlink:title=" ">
<path fill="none" stroke="#63b8ff" d="M929.01,-164.82C931,-143.86 933.27,-89.64 909,-55 898.28,-39.69 880.53,-29.06 864.46,-22.03"/>
<polygon fill="#63b8ff" stroke="#63b8ff" points="865.34,-18.62 854.76,-18.12 862.72,-25.11 865.34,-18.62"/>
</a>
</g>
</g>
<!-- Node13 -->
<g id="Node000013" class="node">
<title>Node13</title>
<g id="a_Node000013"><a xlink:title=" ">
<polygon fill="#e0e0e0" stroke="#999999" points="899.5,-74 846.5,-74 846.5,-55 899.5,-55 899.5,-74"/>
<text text-anchor="middle" x="873" y="-62" font-family="Helvetica,sans-Serif" font-size="10.00">string.h</text>
</a>
</g>
</g>
<!-- Node2&#45;&gt;Node13 -->
<g id="edge21_Node000002_Node000013" class="edge">
<title>Node2&#45;&gt;Node13</title>
<g id="a_edge21_Node000002_Node000013"><a xlink:title=" ">
<path fill="none" stroke="#63b8ff" d="M923.5,-164.66C914.47,-146.93 894,-106.73 882.07,-83.32"/>
<polygon fill="#63b8ff" stroke="#63b8ff" points="885.07,-81.48 877.41,-74.16 878.83,-84.66 885.07,-81.48"/>
</a>
</g>
</g>
<!-- Node14 -->
<g id="Node000014" class="node">
<title>Node14</title>
<g id="a_Node000014"><a xlink:title=" ">
<polygon fill="#e0e0e0" stroke="#999999" points="1047.5,-129 994.5,-129 994.5,-110 1047.5,-110 1047.5,-129"/>
<text text-anchor="middle" x="1021" y="-117" font-family="Helvetica,sans-Serif" font-size="10.00">netdb.h</text>
</a>
</g>
</g>
<!-- Node2&#45;&gt;Node14 -->
<g id="edge20_Node000002_Node000014" class="edge">
<title>Node2&#45;&gt;Node14</title>
<g id="a_edge20_Node000002_Node000014"><a xlink:title=" ">
<path fill="none" stroke="#63b8ff" d="M942.94,-164.98C957.5,-156.69 979.87,-143.94 996.93,-134.22"/>
<polygon fill="#63b8ff" stroke="#63b8ff" points="998.83,-137.16 1005.79,-129.17 995.36,-131.08 998.83,-137.16"/>
</a>
</g>
</g>
<!-- Node15 -->
<g id="Node000015" class="node">
<title>Node15</title>
<g id="a_Node000015"><a xlink:title=" ">
<polygon fill="#e0e0e0" stroke="#999999" points="1142.5,-129 1065.5,-129 1065.5,-110 1142.5,-110 1142.5,-129"/>
<text text-anchor="middle" x="1104" y="-117" font-family="Helvetica,sans-Serif" font-size="10.00">sys/socket.h</text>
</a>
</g>
</g>
<!-- Node2&#45;&gt;Node15 -->
<g id="edge22_Node000002_Node000015" class="edge">
<title>Node2&#45;&gt;Node15</title>
<g id="a_edge22_Node000002_Node000015"><a xlink:title=" ">
<path fill="none" stroke="#63b8ff" d="M956.28,-164.98C985.95,-156.05 1032.79,-141.94 1065.75,-132.02"/>
<polygon fill="#63b8ff" stroke="#63b8ff" points="1066.93,-135.32 1075.5,-129.08 1064.92,-128.61 1066.93,-135.32"/>
</a>
</g>
</g>
<!-- Node4&#45;&gt;Node3 -->
<g id="edge4_Node000004_Node000003" class="edge">
<title>Node4&#45;&gt;Node3</title>
<g id="a_edge4_Node000004_Node000003"><a xlink:title=" ">
<path fill="none" stroke="#63b8ff" d="M1028.51,-54.98C1066.49,-45.87 1126.87,-31.4 1168.36,-21.45"/>
<polygon fill="#63b8ff" stroke="#63b8ff" points="1169.31,-24.82 1178.21,-19.08 1167.67,-18.01 1169.31,-24.82"/>
</a>
</g>
</g>
<!-- Node4&#45;&gt;Node5 -->
<g id="edge5_Node000004_Node000005" class="edge">
<title>Node4&#45;&gt;Node5</title>
<g id="a_edge5_Node000004_Node000005"><a xlink:title=" ">
<path fill="none" stroke="#63b8ff" d="M955.77,-57.8C904.42,-49.88 808.71,-34.9 716.69,-19.08"/>
<polygon fill="#63b8ff" stroke="#63b8ff" points="717.09,-15.6 706.64,-17.35 715.9,-22.5 717.09,-15.6"/>
</a>
</g>
</g>
<!-- Node4&#45;&gt;Node6 -->
<g id="edge6_Node000004_Node000006" class="edge">
<title>Node4&#45;&gt;Node6</title>
<g id="a_edge6_Node000004_Node000006"><a xlink:title=" ">
<path fill="none" stroke="#63b8ff" d="M955.81,-55.22C912.15,-45.5 840,-29.43 795.11,-19.43"/>
<polygon fill="#63b8ff" stroke="#63b8ff" points="795.66,-15.97 785.14,-17.21 794.14,-22.8 795.66,-15.97"/>
</a>
</g>
</g>
<!-- Node7 -->
<g id="Node000007" class="node">
<title>Node7</title>
<g id="a_Node000007"><a xlink:title=" ">
<polygon fill="#e0e0e0" stroke="#999999" points="1073,-19 1035,-19 1035,0 1073,0 1073,-19"/>
<text text-anchor="middle" x="1054" y="-7" font-family="Helvetica,sans-Serif" font-size="10.00">map</text>
</a>
</g>
</g>
<!-- Node4&#45;&gt;Node7 -->
<g id="edge7_Node000004_Node000007" class="edge">
<title>Node4&#45;&gt;Node7</title>
<g id="a_edge7_Node000004_Node000007"><a xlink:title=" ">
<path fill="none" stroke="#63b8ff" d="M1002.8,-54.98C1011.82,-47.15 1025.41,-35.34 1036.32,-25.86"/>
<polygon fill="#63b8ff" stroke="#63b8ff" points="1038.77,-28.37 1044.02,-19.17 1034.18,-23.09 1038.77,-28.37"/>
</a>
</g>
</g>
<!-- Node8 -->
<g id="Node000008" class="node">
<title>Node8</title>
<g id="a_Node000008"><a xlink:title=" ">
<polygon fill="#e0e0e0" stroke="#999999" points="1156.5,-19 1091.5,-19 1091.5,0 1156.5,0 1156.5,-19"/>
<text text-anchor="middle" x="1124" y="-7" font-family="Helvetica,sans-Serif" font-size="10.00">stdexcept</text>
</a>
</g>
</g>
<!-- Node4&#45;&gt;Node8 -->
<g id="edge8_Node000004_Node000008" class="edge">
<title>Node4&#45;&gt;Node8</title>
<g id="a_edge8_Node000004_Node000008"><a xlink:title=" ">
<path fill="none" stroke="#63b8ff" d="M1014.05,-54.98C1035.41,-46.34 1068.7,-32.87 1093.06,-23.02"/>
<polygon fill="#63b8ff" stroke="#63b8ff" points="1094.61,-26.17 1102.57,-19.17 1091.99,-19.68 1094.61,-26.17"/>
</a>
</g>
</g>
<!-- Node9 -->
<g id="Node000009" class="node">
<title>Node9</title>
<g id="a_Node000009"><a xlink:title=" ">
<polygon fill="#e0e0e0" stroke="#999999" points="1016.5,-19 947.5,-19 947.5,0 1016.5,0 1016.5,-19"/>
<text text-anchor="middle" x="982" y="-7" font-family="Helvetica,sans-Serif" font-size="10.00">sys/epoll.h</text>
</a>
</g>
</g>
<!-- Node4&#45;&gt;Node9 -->
<g id="edge9_Node000004_Node000009" class="edge">
<title>Node4&#45;&gt;Node9</title>
<g id="a_edge9_Node000004_Node000009"><a xlink:title=" ">
<path fill="none" stroke="#63b8ff" d="M991.18,-54.75C989.74,-47.8 987.68,-37.85 985.87,-29.13"/>
<polygon fill="#63b8ff" stroke="#63b8ff" points="989.24,-28.17 983.78,-19.09 982.39,-29.59 989.24,-28.17"/>
</a>
</g>
</g>
<!-- Node10 -->
<g id="Node000010" class="node">
<title>Node10</title>
<g id="a_Node000010"><a xlink:title=" ">
<polygon fill="#e0e0e0" stroke="#999999" points="929,-19 873,-19 873,0 929,0 929,-19"/>
<text text-anchor="middle" x="901" y="-7" font-family="Helvetica,sans-Serif" font-size="10.00">unistd.h</text>
</a>
</g>
</g>
<!-- Node4&#45;&gt;Node10 -->
<g id="edge10_Node000004_Node000010" class="edge">
<title>Node4&#45;&gt;Node10</title>
<g id="a_edge10_Node000004_Node000010"><a xlink:title=" ">
<path fill="none" stroke="#63b8ff" d="M978.22,-54.98C963.82,-46.69 941.69,-33.94 924.81,-24.22"/>
<polygon fill="#63b8ff" stroke="#63b8ff" points="926.46,-21.13 916.05,-19.17 922.97,-27.19 926.46,-21.13"/>
</a>
</g>
</g>
<!-- Node11&#45;&gt;Node3 -->
<g id="edge12_Node000011_Node000003" class="edge">
<title>Node11&#45;&gt;Node3</title>
<g id="a_edge12_Node000011_Node000003"><a xlink:title=" ">
<path fill="none" stroke="#63b8ff" d="M859.05,-110C908.32,-102.55 978.7,-90.36 1039,-74 1091.24,-59.83 1150.02,-37.02 1184.43,-22.94"/>
<polygon fill="#63b8ff" stroke="#63b8ff" points="1185.97,-26.1 1193.88,-19.05 1183.3,-19.63 1185.97,-26.1"/>
</a>
</g>
</g>
<!-- Node11&#45;&gt;Node4 -->
<g id="edge13_Node000011_Node000004" class="edge">
<title>Node11&#45;&gt;Node4</title>
<g id="a_edge13_Node000011_Node000004"><a xlink:title=" ">
<path fill="none" stroke="#63b8ff" d="M828.49,-109.98C861.82,-100.97 914.6,-86.7 951.35,-76.76"/>
<polygon fill="#63b8ff" stroke="#63b8ff" points="952.52,-80.07 961.26,-74.08 950.7,-73.31 952.52,-80.07"/>
</a>
</g>
</g>
<!-- Node11&#45;&gt;Node5 -->
<g id="edge14_Node000011_Node000005" class="edge">
<title>Node11&#45;&gt;Node5</title>
<g id="a_edge14_Node000011_Node000005"><a xlink:title=" ">
<path fill="none" stroke="#63b8ff" d="M786.61,-109.66C765.01,-91.3 715.05,-48.81 688.07,-25.87"/>
<polygon fill="#63b8ff" stroke="#63b8ff" points="690.07,-22.97 680.18,-19.16 685.53,-28.3 690.07,-22.97"/>
</a>
</g>
</g>
<!-- Node11&#45;&gt;Node6 -->
<g id="edge16_Node000011_Node000006" class="edge">
<title>Node11&#45;&gt;Node6</title>
<g id="a_edge16_Node000011_Node000006"><a xlink:title=" ">
<path fill="none" stroke="#63b8ff" d="M793.56,-109.66C786.7,-92.01 771.17,-52.09 762.05,-28.64"/>
<polygon fill="#63b8ff" stroke="#63b8ff" points="765.25,-27.21 758.37,-19.16 758.73,-29.75 765.25,-27.21"/>
</a>
</g>
</g>
<!-- Node11&#45;&gt;Node12 -->
<g id="edge15_Node000011_Node000012" class="edge">
<title>Node11&#45;&gt;Node12</title>
<g id="a_edge15_Node000011_Node000012"><a xlink:title=" ">
<path fill="none" stroke="#63b8ff" d="M799.62,-109.66C804.82,-92.09 816.57,-52.45 823.53,-28.95"/>
<polygon fill="#63b8ff" stroke="#63b8ff" points="826.95,-29.74 826.43,-19.16 820.24,-27.75 826.95,-29.74"/>
</a>
</g>
</g>
<!-- Node11&#45;&gt;Node13 -->
<g id="edge17_Node000011_Node000013" class="edge">
<title>Node11&#45;&gt;Node13</title>
<g id="a_edge17_Node000011_Node000013"><a xlink:title=" ">
<path fill="none" stroke="#63b8ff" d="M809.21,-109.98C820.78,-101.92 838.38,-89.65 852.16,-80.03"/>
<polygon fill="#63b8ff" stroke="#63b8ff" points="854.37,-82.76 860.57,-74.17 850.36,-77.02 854.37,-82.76"/>
</a>
</g>
</g>
<!-- Node16&#45;&gt;Node5 -->
<g id="edge26_Node000016_Node000005" class="edge">
<title>Node16&#45;&gt;Node5</title>
<g id="a_edge26_Node000016_Node000005"><a xlink:title=" ">
<path fill="none" stroke="#63b8ff" d="M355.21,-57.49C415.07,-49.74 521.7,-35.44 623.24,-19.06"/>
<polygon fill="#63b8ff" stroke="#63b8ff" points="624.06,-22.47 633.37,-17.42 622.93,-15.56 624.06,-22.47"/>
</a>
</g>
</g>
<!-- Node16&#45;&gt;Node6 -->
<g id="edge29_Node000016_Node000006" class="edge">
<title>Node16&#45;&gt;Node6</title>
<g id="a_edge29_Node000016_Node000006"><a xlink:title=" ">
<path fill="none" stroke="#63b8ff" d="M355.03,-60C429.32,-54.12 578.56,-40.85 714.64,-19.06"/>
<polygon fill="#63b8ff" stroke="#63b8ff" points="715.52,-22.46 724.83,-17.41 714.4,-15.55 715.52,-22.46"/>
</a>
</g>
</g>
<!-- Node17 -->
<g id="Node000017" class="node">
<title>Node17</title>
<g id="a_Node000017"><a xlink:title=" ">
<polygon fill="#e0e0e0" stroke="#999999" points="118,-19 74,-19 74,0 118,0 118,-19"/>
<text text-anchor="middle" x="96" y="-7" font-family="Helvetica,sans-Serif" font-size="10.00">ctime</text>
</a>
</g>
</g>
<!-- Node16&#45;&gt;Node17 -->
<g id="edge27_Node000016_Node000017" class="edge">
<title>Node16&#45;&gt;Node17</title>
<g id="a_edge27_Node000016_Node000017"><a xlink:title=" ">
<path fill="none" stroke="#63b8ff" d="M272.21,-55C237.72,-46.74 183.81,-33.66 128.34,-19.3"/>
<polygon fill="#63b8ff" stroke="#63b8ff" points="128.89,-15.83 118.33,-16.7 127.13,-22.6 128.89,-15.83"/>
</a>
</g>
</g>
<!-- Node18 -->
<g id="Node000018" class="node">
<title>Node18</title>
<g id="a_Node000018"><a xlink:title=" ">
<polygon fill="#e0e0e0" stroke="#999999" points="191.5,-19 136.5,-19 136.5,0 191.5,0 191.5,-19"/>
<text text-anchor="middle" x="164" y="-7" font-family="Helvetica,sans-Serif" font-size="10.00">fstream</text>
</a>
</g>
</g>
<!-- Node16&#45;&gt;Node18 -->
<g id="edge28_Node000016_Node000018" class="edge">
<title>Node16&#45;&gt;Node18</title>
<g id="a_edge28_Node000016_Node000018"><a xlink:title=" ">
<path fill="none" stroke="#63b8ff" d="M284.86,-54.98C261.18,-46.27 224.13,-32.63 197.29,-22.75"/>
<polygon fill="#63b8ff" stroke="#63b8ff" points="198.15,-19.34 187.56,-19.17 195.73,-25.91 198.15,-19.34"/>
</a>
</g>
</g>
<!-- Node19 -->
<g id="Node000019" class="node">
<title>Node19</title>
<g id="a_Node000019"><a xlink:title=" ">
<polygon fill="#e0e0e0" stroke="#999999" points="56,-19 0,-19 0,0 56,0 56,-19"/>
<text text-anchor="middle" x="28" y="-7" font-family="Helvetica,sans-Serif" font-size="10.00">iomanip</text>
</a>
</g>
</g>
<!-- Node16&#45;&gt;Node19 -->
<g id="edge30_Node000016_Node000019" class="edge">
<title>Node16&#45;&gt;Node19</title>
<g id="a_edge30_Node000016_Node000019"><a xlink:title=" ">
<path fill="none" stroke="#63b8ff" d="M260.84,-55.51C213.9,-47.41 139.57,-34.19 66.14,-19.16"/>
<polygon fill="#63b8ff" stroke="#63b8ff" points="66.75,-15.72 56.25,-17.13 65.34,-22.57 66.75,-15.72"/>
</a>
</g>
</g>
<!-- Node20&#45;&gt;Node5 -->
<g id="edge32_Node000020_Node000005" class="edge">
<title>Node20&#45;&gt;Node5</title>
<g id="a_edge32_Node000020_Node000005"><a xlink:title=" ">
<path fill="none" stroke="#63b8ff" d="M560.89,-54.98C582.08,-46.34 615.13,-32.87 639.3,-23.02"/>
<polygon fill="#63b8ff" stroke="#63b8ff" points="640.79,-26.19 648.73,-19.17 638.15,-19.7 640.79,-26.19"/>
</a>
</g>
</g>
<!-- Node20&#45;&gt;Node6 -->
<g id="edge39_Node000020_Node000006" class="edge">
<title>Node20&#45;&gt;Node6</title>
<g id="a_edge39_Node000020_Node000006"><a xlink:title=" ">
<path fill="none" stroke="#63b8ff" d="M574.54,-54.98C612.84,-45.54 674.54,-30.34 714.93,-20.38"/>
<polygon fill="#63b8ff" stroke="#63b8ff" points="715.84,-23.76 724.71,-17.97 714.17,-16.96 715.84,-23.76"/>
</a>
</g>
</g>
<!-- Node20&#45;&gt;Node10 -->
<g id="edge41_Node000020_Node000010" class="edge">
<title>Node20&#45;&gt;Node10</title>
<g id="a_edge41_Node000020_Node000010"><a xlink:title=" ">
<path fill="none" stroke="#63b8ff" d="M581.62,-58.99C641.6,-52.22 756,-38.34 862.79,-19.08"/>
<polygon fill="#63b8ff" stroke="#63b8ff" points="863.56,-22.5 872.77,-17.26 862.31,-15.61 863.56,-22.5"/>
</a>
</g>
</g>
<!-- Node20&#45;&gt;Node12 -->
<g id="edge36_Node000020_Node000012" class="edge">
<title>Node20&#45;&gt;Node12</title>
<g id="a_edge36_Node000020_Node000012"><a xlink:title=" ">
<path fill="none" stroke="#63b8ff" d="M581.51,-57.07C629.97,-49.39 712.72,-35.68 793.58,-18.97"/>
<polygon fill="#63b8ff" stroke="#63b8ff" points="794.35,-22.38 803.43,-16.91 792.93,-15.53 794.35,-22.38"/>
</a>
</g>
</g>
<!-- Node20&#45;&gt;Node18 -->
<g id="edge38_Node000020_Node000018" class="edge">
<title>Node20&#45;&gt;Node18</title>
<g id="a_edge38_Node000020_Node000018"><a xlink:title=" ">
<path fill="none" stroke="#63b8ff" d="M498.31,-59.32C435.97,-52.79 314.59,-38.98 201.67,-18.96"/>
<polygon fill="#63b8ff" stroke="#63b8ff" points="202.28,-15.51 191.82,-17.19 201.05,-22.4 202.28,-15.51"/>
</a>
</g>
</g>
<!-- Node21 -->
<g id="Node000021" class="node">
<title>Node21</title>
<g id="a_Node000021"><a xlink:title=" ">
<polygon fill="#e0e0e0" stroke="#999999" points="274,-19 210,-19 210,0 274,0 274,-19"/>
<text text-anchor="middle" x="242" y="-7" font-family="Helvetica,sans-Serif" font-size="10.00">algorithm</text>
</a>
</g>
</g>
<!-- Node20&#45;&gt;Node21 -->
<g id="edge33_Node000020_Node000021" class="edge">
<title>Node20&#45;&gt;Node21</title>
<g id="a_edge33_Node000020_Node000021"><a xlink:title=" ">
<path fill="none" stroke="#63b8ff" d="M498.08,-56.68C449.13,-48.61 365.48,-34.54 284.12,-19.16"/>
<polygon fill="#63b8ff" stroke="#63b8ff" points="284.69,-15.71 274.21,-17.28 283.38,-22.59 284.69,-15.71"/>
</a>
</g>
</g>
<!-- Node22 -->
<g id="Node000022" class="node">
<title>Node22</title>
<g id="a_Node000022"><a xlink:title=" ">
<polygon fill="#e0e0e0" stroke="#999999" points="341.5,-19 292.5,-19 292.5,0 341.5,0 341.5,-19"/>
<text text-anchor="middle" x="317" y="-7" font-family="Helvetica,sans-Serif" font-size="10.00">cctype</text>
</a>
</g>
</g>
<!-- Node20&#45;&gt;Node22 -->
<g id="edge34_Node000020_Node000022" class="edge">
<title>Node20&#45;&gt;Node22</title>
<g id="a_edge34_Node000020_Node000022"><a xlink:title=" ">
<path fill="none" stroke="#63b8ff" d="M503.02,-54.95C466.91,-46.57 410.13,-33.29 351.34,-19.06"/>
<polygon fill="#63b8ff" stroke="#63b8ff" points="352.05,-15.63 341.5,-16.67 350.4,-22.43 352.05,-15.63"/>
</a>
</g>
</g>
<!-- Node23 -->
<g id="Node000023" class="node">
<title>Node23</title>
<g id="a_Node000023"><a xlink:title=" ">
<polygon fill="#e0e0e0" stroke="#999999" points="410,-19 360,-19 360,0 410,0 410,-19"/>
<text text-anchor="middle" x="385" y="-7" font-family="Helvetica,sans-Serif" font-size="10.00">cstring</text>
</a>
</g>
</g>
<!-- Node20&#45;&gt;Node23 -->
<g id="edge35_Node000020_Node000023" class="edge">
<title>Node20&#45;&gt;Node23</title>
<g id="a_edge35_Node000020_Node000023"><a xlink:title=" ">
<path fill="none" stroke="#63b8ff" d="M515.1,-54.98C489.3,-46.16 448.78,-32.31 419.82,-22.41"/>
<polygon fill="#63b8ff" stroke="#63b8ff" points="420.69,-19.01 410.1,-19.08 418.43,-25.63 420.69,-19.01"/>
</a>
</g>
</g>
<!-- Node24 -->
<g id="Node000024" class="node">
<title>Node24</title>
<g id="a_Node000024"><a xlink:title=" ">
<polygon fill="#e0e0e0" stroke="#999999" points="475.5,-19 428.5,-19 428.5,0 475.5,0 475.5,-19"/>
<text text-anchor="middle" x="452" y="-7" font-family="Helvetica,sans-Serif" font-size="10.00">fcntl.h</text>
</a>
</g>
</g>
<!-- Node20&#45;&gt;Node24 -->
<g id="edge37_Node000020_Node000024" class="edge">
<title>Node20&#45;&gt;Node24</title>
<g id="a_edge37_Node000020_Node000024"><a xlink:title=" ">
<path fill="none" stroke="#63b8ff" d="M525.86,-54.98C512.21,-46.77 491.31,-34.18 475.22,-24.49"/>
<polygon fill="#63b8ff" stroke="#63b8ff" points="476.77,-21.33 466.4,-19.17 473.16,-27.33 476.77,-21.33"/>
</a>
</g>
</g>
<!-- Node25 -->
<g id="Node000025" class="node">
<title>Node25</title>
<g id="a_Node000025"><a xlink:title=" ">
<polygon fill="#e0e0e0" stroke="#999999" points="550,-19 494,-19 494,0 550,0 550,-19"/>
<text text-anchor="middle" x="522" y="-7" font-family="Helvetica,sans-Serif" font-size="10.00">sstream</text>
</a>
</g>
</g>
<!-- Node20&#45;&gt;Node25 -->
<g id="edge40_Node000020_Node000025" class="edge">
<title>Node20&#45;&gt;Node25</title>
<g id="a_edge40_Node000020_Node000025"><a xlink:title=" ">
<path fill="none" stroke="#63b8ff" d="M537.03,-54.75C534.64,-47.72 531.21,-37.62 528.23,-28.84"/>
<polygon fill="#63b8ff" stroke="#63b8ff" points="531.45,-27.43 524.92,-19.09 524.82,-29.68 531.45,-27.43"/>
</a>
</g>
</g>
<!-- Node26 -->
<g id="Node000026" class="node">
<title>Node26</title>
<g id="a_Node000026"><a xlink:title=" ">
<polygon fill="#e0e0e0" stroke="#999999" points="615.5,-19 568.5,-19 568.5,0 615.5,0 615.5,-19"/>
<text text-anchor="middle" x="592" y="-7" font-family="Helvetica,sans-Serif" font-size="10.00">vector</text>
</a>
</g>
</g>
<!-- Node20&#45;&gt;Node26 -->
<g id="edge42_Node000020_Node000026" class="edge">
<title>Node20&#45;&gt;Node26</title>
<g id="a_edge42_Node000020_Node000026"><a xlink:title=" ">
<path fill="none" stroke="#63b8ff" d="M548.59,-54.75C556.16,-47.03 567.38,-35.6 576.51,-26.28"/>
<polygon fill="#63b8ff" stroke="#63b8ff" points="579.07,-28.68 583.57,-19.09 574.07,-23.78 579.07,-28.68"/>
</a>
</g>
</g>
</g>
</svg>
