<?xml version="1.0" encoding="UTF-8" standalone="no"?>
<!DOCTYPE svg PUBLIC "-//W3C//DTD SVG 1.1//EN"
 "http://www.w3.org/Graphics/SVG/1.1/DTD/svg11.dtd">
<!-- Generated by graphviz version 2.43.0 (0)
 -->
<!-- Title: include/config/AConfigParser.hpp Pages: 1 -->
<svg width="837pt" height="192pt"
 viewBox="0.00 0.00 836.50 192.00" xmlns="http://www.w3.org/2000/svg" xmlns:xlink="http://www.w3.org/1999/xlink">
<g id="graph0" class="graph" transform="scale(1 1) rotate(0) translate(4 188)">
<title>include/config/AConfigParser.hpp</title>
<!-- Node1 -->
<g id="Node000001" class="node">
<title>Node1</title>
<g id="a_Node000001"><a xlink:title=" ">
<polygon fill="#999999" stroke="#666666" points="775,-184 600,-184 600,-165 775,-165 775,-184"/>
<text text-anchor="middle" x="687.5" y="-172" font-family="Helvetica,sans-Serif" font-size="10.00">include/config/AConfigParser.hpp</text>
</a>
</g>
</g>
<!-- Node2 -->
<g id="Node000002" class="node">
<title>Node2</title>
<g id="a_Node000002"><a xlink:href="config__utils_8hpp.html" target="_top" xlink:title=" ">
<polygon fill="white" stroke="#666666" points="607,-129 490,-129 490,-110 607,-110 607,-129"/>
<text text-anchor="middle" x="548.5" y="-117" font-family="Helvetica,sans-Serif" font-size="10.00">utils/config_utils.hpp</text>
</a>
</g>
</g>
<!-- Node1&#45;&gt;Node2 -->
<g id="edge1_Node000001_Node000002" class="edge">
<title>Node1&#45;&gt;Node2</title>
<g id="a_edge1_Node000001_Node000002"><a xlink:title=" ">
<path fill="none" stroke="#63b8ff" d="M665.17,-164.98C642.3,-156.27 606.54,-142.63 580.64,-132.75"/>
<polygon fill="#63b8ff" stroke="#63b8ff" points="581.83,-129.46 571.24,-129.17 579.34,-136 581.83,-129.46"/>
</a>
</g>
</g>
<!-- Node3 -->
<g id="Node000003" class="node">
<title>Node3</title>
<g id="a_Node000003"><a xlink:href="defines_8hpp.html" target="_top" xlink:title=" ">
<polygon fill="white" stroke="#666666" points="73,-19 0,-19 0,0 73,0 73,-19"/>
<text text-anchor="middle" x="36.5" y="-7" font-family="Helvetica,sans-Serif" font-size="10.00">defines.hpp</text>
</a>
</g>
</g>
<!-- Node1&#45;&gt;Node3 -->
<g id="edge17_Node000001_Node000003" class="edge">
<title>Node1&#45;&gt;Node3</title>
<g id="a_edge17_Node000001_Node000003"><a xlink:title=" ">
<path fill="none" stroke="#63b8ff" d="M645.78,-164.93C603.92,-156.24 537.62,-142.21 480.5,-129 381.47,-106.09 356.71,-100.2 258.5,-74 193.82,-56.74 119.06,-34.98 74.89,-21.93"/>
<polygon fill="#63b8ff" stroke="#63b8ff" points="75.73,-18.53 65.15,-19.05 73.74,-25.24 75.73,-18.53"/>
</a>
</g>
</g>
<!-- Node10 -->
<g id="Node000010" class="node">
<title>Node10</title>
<g id="a_Node000010"><a xlink:title=" ">
<polygon fill="#e0e0e0" stroke="#999999" points="713,-19 658,-19 658,0 713,0 713,-19"/>
<text text-anchor="middle" x="685.5" y="-7" font-family="Helvetica,sans-Serif" font-size="10.00">fstream</text>
</a>
</g>
</g>
<!-- Node1&#45;&gt;Node10 -->
<g id="edge18_Node000001_Node000010" class="edge">
<title>Node1&#45;&gt;Node10</title>
<g id="a_edge18_Node000001_Node000010"><a xlink:title=" ">
<path fill="none" stroke="#63b8ff" d="M687.39,-164.74C687.08,-139.31 686.17,-65.08 685.74,-29.69"/>
<polygon fill="#63b8ff" stroke="#63b8ff" points="689.23,-29.26 685.61,-19.31 682.23,-29.35 689.23,-29.26"/>
</a>
</g>
</g>
<!-- Node11 -->
<g id="Node000011" class="node">
<title>Node11</title>
<g id="a_Node000011"><a xlink:title=" ">
<polygon fill="#e0e0e0" stroke="#999999" points="791.5,-19 731.5,-19 731.5,0 791.5,0 791.5,-19"/>
<text text-anchor="middle" x="761.5" y="-7" font-family="Helvetica,sans-Serif" font-size="10.00">iostream</text>
</a>
</g>
</g>
<!-- Node1&#45;&gt;Node11 -->
<g id="edge19_Node000001_Node000011" class="edge">
<title>Node1&#45;&gt;Node11</title>
<g id="a_edge19_Node000001_Node000011"><a xlink:title=" ">
<path fill="none" stroke="#63b8ff" d="M691.48,-164.74C703.12,-139.09 737.31,-63.78 753.2,-28.78"/>
<polygon fill="#63b8ff" stroke="#63b8ff" points="756.55,-29.86 757.5,-19.31 750.18,-26.97 756.55,-29.86"/>
</a>
</g>
</g>
<!-- Node16 -->
<g id="Node000016" class="node">
<title>Node16</title>
<g id="a_Node000016"><a xlink:title=" ">
<polygon fill="#e0e0e0" stroke="#999999" points="766.5,-129 734.5,-129 734.5,-110 766.5,-110 766.5,-129"/>
<text text-anchor="middle" x="750.5" y="-117" font-family="Helvetica,sans-Serif" font-size="10.00">set</text>
</a>
</g>
</g>
<!-- Node1&#45;&gt;Node16 -->
<g id="edge20_Node000001_Node000016" class="edge">
<title>Node1&#45;&gt;Node16</title>
<g id="a_edge20_Node000001_Node000016"><a xlink:title=" ">
<path fill="none" stroke="#63b8ff" d="M697.62,-164.98C706.94,-157.15 720.97,-145.34 732.24,-135.86"/>
<polygon fill="#63b8ff" stroke="#63b8ff" points="734.79,-138.29 740.19,-129.17 730.29,-132.93 734.79,-138.29"/>
</a>
</g>
</g>
<!-- Node17 -->
<g id="Node000017" class="node">
<title>Node17</title>
<g id="a_Node000017"><a xlink:title=" ">
<polygon fill="#e0e0e0" stroke="#999999" points="828.5,-129 784.5,-129 784.5,-110 828.5,-110 828.5,-129"/>
<text text-anchor="middle" x="806.5" y="-117" font-family="Helvetica,sans-Serif" font-size="10.00">string</text>
</a>
</g>
</g>
<!-- Node1&#45;&gt;Node17 -->
<g id="edge21_Node000001_Node000017" class="edge">
<title>Node1&#45;&gt;Node17</title>
<g id="a_edge21_Node000001_Node000017"><a xlink:title=" ">
<path fill="none" stroke="#63b8ff" d="M706.62,-164.98C725.85,-156.42 755.73,-143.11 777.81,-133.28"/>
<polygon fill="#63b8ff" stroke="#63b8ff" points="779.32,-136.44 787.03,-129.17 776.47,-130.04 779.32,-136.44"/>
</a>
</g>
</g>
<!-- Node2&#45;&gt;Node3 -->
<g id="edge2_Node000002_Node000003" class="edge">
<title>Node2&#45;&gt;Node3</title>
<g id="a_edge2_Node000002_Node000003"><a xlink:title=" ">
<path fill="none" stroke="#63b8ff" d="M507.9,-109.94C414.12,-90.15 182.92,-41.38 83.35,-20.38"/>
<polygon fill="#63b8ff" stroke="#63b8ff" points="83.79,-16.9 73.29,-18.26 82.35,-23.75 83.79,-16.9"/>
</a>
</g>
</g>
<!-- Node4 -->
<g id="Node000004" class="node">
<title>Node4</title>
<g id="a_Node000004"><a xlink:href="utils_8hpp.html" target="_top" xlink:title=" ">
<polygon fill="white" stroke="#666666" points="446,-74 387,-74 387,-55 446,-55 446,-74"/>
<text text-anchor="middle" x="416.5" y="-62" font-family="Helvetica,sans-Serif" font-size="10.00">utils.hpp</text>
</a>
</g>
</g>
<!-- Node2&#45;&gt;Node4 -->
<g id="edge3_Node000002_Node000004" class="edge">
<title>Node2&#45;&gt;Node4</title>
<g id="a_edge3_Node000002_Node000004"><a xlink:title=" ">
<path fill="none" stroke="#63b8ff" d="M527.29,-109.98C505.77,-101.34 472.22,-87.87 447.67,-78.02"/>
<polygon fill="#63b8ff" stroke="#63b8ff" points="448.68,-74.65 438.09,-74.17 446.07,-81.14 448.68,-74.65"/>
</a>
</g>
</g>
<!-- Node2&#45;&gt;Node10 -->
<g id="edge15_Node000002_Node000010" class="edge">
<title>Node2&#45;&gt;Node10</title>
<g id="a_edge15_Node000002_Node000010"><a xlink:title=" ">
<path fill="none" stroke="#63b8ff" d="M559.71,-109.66C583.11,-91.22 637.37,-48.45 666.38,-25.57"/>
<polygon fill="#63b8ff" stroke="#63b8ff" points="668.83,-28.1 674.52,-19.16 664.5,-22.6 668.83,-28.1"/>
</a>
</g>
</g>
<!-- Node15 -->
<g id="Node000015" class="node">
<title>Node15</title>
<g id="a_Node000015"><a xlink:title=" ">
<polygon fill="#e0e0e0" stroke="#999999" points="567.5,-74 529.5,-74 529.5,-55 567.5,-55 567.5,-74"/>
<text text-anchor="middle" x="548.5" y="-62" font-family="Helvetica,sans-Serif" font-size="10.00">map</text>
</a>
</g>
</g>
<!-- Node2&#45;&gt;Node15 -->
<g id="edge16_Node000002_Node000015" class="edge">
<title>Node2&#45;&gt;Node15</title>
<g id="a_edge16_Node000002_Node000015"><a xlink:title=" ">
<path fill="none" stroke="#63b8ff" d="M548.5,-109.75C548.5,-102.8 548.5,-92.85 548.5,-84.13"/>
<polygon fill="#63b8ff" stroke="#63b8ff" points="552,-84.09 548.5,-74.09 545,-84.09 552,-84.09"/>
</a>
</g>
</g>
<!-- Node4&#45;&gt;Node3 -->
<g id="edge4_Node000004_Node000003" class="edge">
<title>Node4&#45;&gt;Node3</title>
<g id="a_edge4_Node000004_Node000003"><a xlink:title=" ">
<path fill="none" stroke="#63b8ff" d="M386.84,-60.11C329.92,-53.49 201.17,-37.94 83.23,-19.21"/>
<polygon fill="#63b8ff" stroke="#63b8ff" points="83.74,-15.75 73.31,-17.62 82.63,-22.66 83.74,-15.75"/>
</a>
</g>
</g>
<!-- Node5 -->
<g id="Node000005" class="node">
<title>Node5</title>
<g id="a_Node000005"><a xlink:title=" ">
<polygon fill="#e0e0e0" stroke="#999999" points="220.5,-19 156.5,-19 156.5,0 220.5,0 220.5,-19"/>
<text text-anchor="middle" x="188.5" y="-7" font-family="Helvetica,sans-Serif" font-size="10.00">algorithm</text>
</a>
</g>
</g>
<!-- Node4&#45;&gt;Node5 -->
<g id="edge5_Node000004_Node000005" class="edge">
<title>Node4&#45;&gt;Node5</title>
<g id="a_edge5_Node000004_Node000005"><a xlink:title=" ">
<path fill="none" stroke="#63b8ff" d="M386.69,-56.57C346.74,-47.28 275.62,-30.75 230.33,-20.22"/>
<polygon fill="#63b8ff" stroke="#63b8ff" points="231.05,-16.8 220.52,-17.94 229.47,-23.62 231.05,-16.8"/>
</a>
</g>
</g>
<!-- Node6 -->
<g id="Node000006" class="node">
<title>Node6</title>
<g id="a_Node000006"><a xlink:title=" ">
<polygon fill="#e0e0e0" stroke="#999999" points="288,-19 239,-19 239,0 288,0 288,-19"/>
<text text-anchor="middle" x="263.5" y="-7" font-family="Helvetica,sans-Serif" font-size="10.00">cctype</text>
</a>
</g>
</g>
<!-- Node4&#45;&gt;Node6 -->
<g id="edge6_Node000004_Node000006" class="edge">
<title>Node4&#45;&gt;Node6</title>
<g id="a_edge6_Node000004_Node000006"><a xlink:title=" ">
<path fill="none" stroke="#63b8ff" d="M391.92,-54.98C366.38,-46.14 326.22,-32.23 297.61,-22.32"/>
<polygon fill="#63b8ff" stroke="#63b8ff" points="298.62,-18.96 288.02,-18.99 296.32,-25.57 298.62,-18.96"/>
</a>
</g>
</g>
<!-- Node7 -->
<g id="Node000007" class="node">
<title>Node7</title>
<g id="a_Node000007"><a xlink:title=" ">
<polygon fill="#e0e0e0" stroke="#999999" points="356.5,-19 306.5,-19 306.5,0 356.5,0 356.5,-19"/>
<text text-anchor="middle" x="331.5" y="-7" font-family="Helvetica,sans-Serif" font-size="10.00">cstring</text>
</a>
</g>
</g>
<!-- Node4&#45;&gt;Node7 -->
<g id="edge7_Node000004_Node000007" class="edge">
<title>Node4&#45;&gt;Node7</title>
<g id="a_edge7_Node000004_Node000007"><a xlink:title=" ">
<path fill="none" stroke="#63b8ff" d="M402.84,-54.98C389.66,-46.77 369.47,-34.18 353.93,-24.49"/>
<polygon fill="#63b8ff" stroke="#63b8ff" points="355.74,-21.49 345.41,-19.17 352.04,-27.43 355.74,-21.49"/>
</a>
</g>
</g>
<!-- Node8 -->
<g id="Node000008" class="node">
<title>Node8</title>
<g id="a_Node000008"><a xlink:title=" ">
<polygon fill="#e0e0e0" stroke="#999999" points="426,-19 375,-19 375,0 426,0 426,-19"/>
<text text-anchor="middle" x="400.5" y="-7" font-family="Helvetica,sans-Serif" font-size="10.00">errno.h</text>
</a>
</g>
</g>
<!-- Node4&#45;&gt;Node8 -->
<g id="edge8_Node000004_Node000008" class="edge">
<title>Node4&#45;&gt;Node8</title>
<g id="a_edge8_Node000004_Node000008"><a xlink:title=" ">
<path fill="none" stroke="#63b8ff" d="M413.86,-54.75C411.74,-47.72 408.69,-37.62 406.04,-28.84"/>
<polygon fill="#63b8ff" stroke="#63b8ff" points="409.33,-27.65 403.09,-19.09 402.63,-29.67 409.33,-27.65"/>
</a>
</g>
</g>
<!-- Node9 -->
<g id="Node000009" class="node">
<title>Node9</title>
<g id="a_Node000009"><a xlink:title=" ">
<polygon fill="#e0e0e0" stroke="#999999" points="491,-19 444,-19 444,0 491,0 491,-19"/>
<text text-anchor="middle" x="467.5" y="-7" font-family="Helvetica,sans-Serif" font-size="10.00">fcntl.h</text>
</a>
</g>
</g>
<!-- Node4&#45;&gt;Node9 -->
<g id="edge9_Node000004_Node000009" class="edge">
<title>Node4&#45;&gt;Node9</title>
<g id="a_edge9_Node000004_Node000009"><a xlink:title=" ">
<path fill="none" stroke="#63b8ff" d="M424.92,-54.75C432.27,-47.11 443.13,-35.82 452.04,-26.56"/>
<polygon fill="#63b8ff" stroke="#63b8ff" points="454.82,-28.72 459.24,-19.09 449.78,-23.87 454.82,-28.72"/>
</a>
</g>
</g>
<!-- Node4&#45;&gt;Node10 -->
<g id="edge10_Node000004_Node000010" class="edge">
<title>Node4&#45;&gt;Node10</title>
<g id="a_edge10_Node000004_Node000010"><a xlink:title=" ">
<path fill="none" stroke="#63b8ff" d="M446.23,-58.15C488.63,-50.45 569.11,-35.55 647.59,-19.13"/>
<polygon fill="#63b8ff" stroke="#63b8ff" points="648.58,-22.5 657.64,-17.01 647.14,-15.65 648.58,-22.5"/>
</a>
</g>
</g>
<!-- Node4&#45;&gt;Node11 -->
<g id="edge11_Node000004_Node000011" class="edge">
<title>Node4&#45;&gt;Node11</title>
<g id="a_edge11_Node000004_Node000011"><a xlink:title=" ">
<path fill="none" stroke="#63b8ff" d="M446.05,-59.83C500.63,-52.92 620.89,-37.01 721.5,-19 721.6,-18.98 721.7,-18.96 721.8,-18.95"/>
<polygon fill="#63b8ff" stroke="#63b8ff" points="722.23,-22.43 731.4,-17.11 720.92,-15.55 722.23,-22.43"/>
</a>
</g>
</g>
<!-- Node12 -->
<g id="Node000012" class="node">
<title>Node12</title>
<g id="a_Node000012"><a xlink:title=" ">
<polygon fill="#e0e0e0" stroke="#999999" points="565.5,-19 509.5,-19 509.5,0 565.5,0 565.5,-19"/>
<text text-anchor="middle" x="537.5" y="-7" font-family="Helvetica,sans-Serif" font-size="10.00">sstream</text>
</a>
</g>
</g>
<!-- Node4&#45;&gt;Node12 -->
<g id="edge12_Node000004_Node000012" class="edge">
<title>Node4&#45;&gt;Node12</title>
<g id="a_edge12_Node000004_Node000012"><a xlink:title=" ">
<path fill="none" stroke="#63b8ff" d="M435.94,-54.98C455.49,-46.42 485.88,-33.11 508.32,-23.28"/>
<polygon fill="#63b8ff" stroke="#63b8ff" points="509.95,-26.39 517.71,-19.17 507.14,-19.98 509.95,-26.39"/>
</a>
</g>
</g>
<!-- Node13 -->
<g id="Node000013" class="node">
<title>Node13</title>
<g id="a_Node000013"><a xlink:title=" ">
<polygon fill="#e0e0e0" stroke="#999999" points="639.5,-19 583.5,-19 583.5,0 639.5,0 639.5,-19"/>
<text text-anchor="middle" x="611.5" y="-7" font-family="Helvetica,sans-Serif" font-size="10.00">unistd.h</text>
</a>
</g>
</g>
<!-- Node4&#45;&gt;Node13 -->
<g id="edge13_Node000004_Node000013" class="edge">
<title>Node4&#45;&gt;Node13</title>
<g id="a_edge13_Node000004_Node000013"><a xlink:title=" ">
<path fill="none" stroke="#63b8ff" d="M446.12,-55.45C480.1,-46.21 535.94,-31.04 573.21,-20.91"/>
<polygon fill="#63b8ff" stroke="#63b8ff" points="574.46,-24.19 583.19,-18.19 572.62,-17.44 574.46,-24.19"/>
</a>
</g>
</g>
<!-- Node14 -->
<g id="Node000014" class="node">
<title>Node14</title>
<g id="a_Node000014"><a xlink:title=" ">
<polygon fill="#e0e0e0" stroke="#999999" points="138,-19 91,-19 91,0 138,0 138,-19"/>
<text text-anchor="middle" x="114.5" y="-7" font-family="Helvetica,sans-Serif" font-size="10.00">vector</text>
</a>
</g>
</g>
<!-- Node4&#45;&gt;Node14 -->
<g id="edge14_Node000004_Node000014" class="edge">
<title>Node4&#45;&gt;Node14</title>
<g id="a_edge14_Node000004_Node000014"><a xlink:title=" ">
<path fill="none" stroke="#63b8ff" d="M386.89,-59.47C338.87,-52.75 240.88,-38.27 148.07,-18.95"/>
<polygon fill="#63b8ff" stroke="#63b8ff" points="148.74,-15.51 138.23,-16.88 147.3,-22.36 148.74,-15.51"/>
</a>
</g>
</g>
</g>
</svg>
