<?xml version="1.0" encoding="UTF-8" standalone="no"?>
<!DOCTYPE svg PUBLIC "-//W3C//DTD SVG 1.1//EN"
 "http://www.w3.org/Graphics/SVG/1.1/DTD/svg11.dtd">
<!-- Generated by graphviz version 2.43.0 (0)
 -->
<!-- Title: source/config/AConfigParser.cpp Pages: 1 -->
<svg width="800pt" height="247pt"
 viewBox="0.00 0.00 799.50 247.00" xmlns="http://www.w3.org/2000/svg" xmlns:xlink="http://www.w3.org/1999/xlink">
<g id="graph0" class="graph" transform="scale(1 1) rotate(0) translate(4 243)">
<title>source/config/AConfigParser.cpp</title>
<!-- Node1 -->
<g id="Node000001" class="node">
<title>Node1</title>
<g id="a_Node000001"><a xlink:title=" ">
<polygon fill="#999999" stroke="#666666" points="627.5,-239 456.5,-239 456.5,-220 627.5,-220 627.5,-239"/>
<text text-anchor="middle" x="542" y="-227" font-family="Helvetica,sans-Serif" font-size="10.00">source/config/AConfigParser.cpp</text>
</a>
</g>
</g>
<!-- Node2 -->
<g id="Node000002" class="node">
<title>Node2</title>
<g id="a_Node000002"><a xlink:href="AConfigParser_8hpp.html" target="_top" xlink:title=" ">
<polygon fill="white" stroke="#666666" points="594,-184 490,-184 490,-165 594,-165 594,-184"/>
<text text-anchor="middle" x="542" y="-172" font-family="Helvetica,sans-Serif" font-size="10.00">AConfigParser.hpp</text>
</a>
</g>
</g>
<!-- Node1&#45;&gt;Node2 -->
<g id="edge1_Node000001_Node000002" class="edge">
<title>Node1&#45;&gt;Node2</title>
<g id="a_edge1_Node000001_Node000002"><a xlink:title=" ">
<path fill="none" stroke="#63b8ff" d="M542,-219.75C542,-212.8 542,-202.85 542,-194.13"/>
<polygon fill="#63b8ff" stroke="#63b8ff" points="545.5,-194.09 542,-184.09 538.5,-194.09 545.5,-194.09"/>
</a>
</g>
</g>
<!-- Node4 -->
<g id="Node000004" class="node">
<title>Node4</title>
<g id="a_Node000004"><a xlink:href="defines_8hpp.html" target="_top" xlink:title=" ">
<polygon fill="white" stroke="#666666" points="791.5,-19 718.5,-19 718.5,0 791.5,0 791.5,-19"/>
<text text-anchor="middle" x="755" y="-7" font-family="Helvetica,sans-Serif" font-size="10.00">defines.hpp</text>
</a>
</g>
</g>
<!-- Node1&#45;&gt;Node4 -->
<g id="edge23_Node000001_Node000004" class="edge">
<title>Node1&#45;&gt;Node4</title>
<g id="a_edge23_Node000001_Node000004"><a xlink:title=" ">
<path fill="none" stroke="#63b8ff" d="M560.64,-219.97C592.27,-204.87 657.34,-171.04 702,-129 723.82,-108.46 728.87,-101.4 741,-74 747.36,-59.63 750.95,-42.11 752.89,-29.12"/>
<polygon fill="#63b8ff" stroke="#63b8ff" points="756.38,-29.42 754.21,-19.05 749.44,-28.52 756.38,-29.42"/>
</a>
</g>
</g>
<!-- Node5 -->
<g id="Node000005" class="node">
<title>Node5</title>
<g id="a_Node000005"><a xlink:href="utils_8hpp.html" target="_top" xlink:title=" ">
<polygon fill="white" stroke="#666666" points="480.5,-74 421.5,-74 421.5,-55 480.5,-55 480.5,-74"/>
<text text-anchor="middle" x="451" y="-62" font-family="Helvetica,sans-Serif" font-size="10.00">utils.hpp</text>
</a>
</g>
</g>
<!-- Node1&#45;&gt;Node5 -->
<g id="edge24_Node000001_Node000005" class="edge">
<title>Node1&#45;&gt;Node5</title>
<g id="a_edge24_Node000001_Node000005"><a xlink:title=" ">
<path fill="none" stroke="#63b8ff" d="M521.07,-219.93C490.38,-206.06 434.39,-175.47 412,-129 403.74,-111.85 417.85,-93.44 431.36,-80.88"/>
<polygon fill="#63b8ff" stroke="#63b8ff" points="433.79,-83.41 439.06,-74.22 429.21,-78.11 433.79,-83.41"/>
</a>
</g>
</g>
<!-- Node3 -->
<g id="Node000003" class="node">
<title>Node3</title>
<g id="a_Node000003"><a xlink:href="config__utils_8hpp.html" target="_top" xlink:title=" ">
<polygon fill="white" stroke="#666666" points="650.5,-129 533.5,-129 533.5,-110 650.5,-110 650.5,-129"/>
<text text-anchor="middle" x="592" y="-117" font-family="Helvetica,sans-Serif" font-size="10.00">utils/config_utils.hpp</text>
</a>
</g>
</g>
<!-- Node2&#45;&gt;Node3 -->
<g id="edge2_Node000002_Node000003" class="edge">
<title>Node2&#45;&gt;Node3</title>
<g id="a_edge2_Node000002_Node000003"><a xlink:title=" ">
<path fill="none" stroke="#63b8ff" d="M550.26,-164.75C557.46,-157.11 568.11,-145.82 576.85,-136.56"/>
<polygon fill="#63b8ff" stroke="#63b8ff" points="579.58,-138.76 583.9,-129.09 574.49,-133.96 579.58,-138.76"/>
</a>
</g>
</g>
<!-- Node2&#45;&gt;Node4 -->
<g id="edge18_Node000002_Node000004" class="edge">
<title>Node2&#45;&gt;Node4</title>
<g id="a_edge18_Node000002_Node000004"><a xlink:title=" ">
<path fill="none" stroke="#63b8ff" d="M594.13,-165.32C621.54,-158.98 654.45,-147.95 679,-129 713.86,-102.1 737.3,-54.36 748.12,-28.45"/>
<polygon fill="#63b8ff" stroke="#63b8ff" points="751.4,-29.67 751.88,-19.09 744.9,-27.07 751.4,-29.67"/>
</a>
</g>
</g>
<!-- Node11 -->
<g id="Node000011" class="node">
<title>Node11</title>
<g id="a_Node000011"><a xlink:title=" ">
<polygon fill="#e0e0e0" stroke="#999999" points="700.5,-19 645.5,-19 645.5,0 700.5,0 700.5,-19"/>
<text text-anchor="middle" x="673" y="-7" font-family="Helvetica,sans-Serif" font-size="10.00">fstream</text>
</a>
</g>
</g>
<!-- Node2&#45;&gt;Node11 -->
<g id="edge19_Node000002_Node000011" class="edge">
<title>Node2&#45;&gt;Node11</title>
<g id="a_edge19_Node000002_Node000011"><a xlink:title=" ">
<path fill="none" stroke="#63b8ff" d="M594.1,-166.44C617.86,-160.46 644.17,-149.41 660,-129 682.44,-100.07 680.07,-54.54 676.47,-29.16"/>
<polygon fill="#63b8ff" stroke="#63b8ff" points="679.88,-28.35 674.81,-19.05 672.98,-29.49 679.88,-28.35"/>
</a>
</g>
</g>
<!-- Node12 -->
<g id="Node000012" class="node">
<title>Node12</title>
<g id="a_Node000012"><a xlink:title=" ">
<polygon fill="#e0e0e0" stroke="#999999" points="60,-19 0,-19 0,0 60,0 60,-19"/>
<text text-anchor="middle" x="30" y="-7" font-family="Helvetica,sans-Serif" font-size="10.00">iostream</text>
</a>
</g>
</g>
<!-- Node2&#45;&gt;Node12 -->
<g id="edge20_Node000002_Node000012" class="edge">
<title>Node2&#45;&gt;Node12</title>
<g id="a_edge20_Node000002_Node000012"><a xlink:title=" ">
<path fill="none" stroke="#63b8ff" d="M515.19,-164.97C429.84,-137.79 164.3,-53.26 66.58,-22.15"/>
<polygon fill="#63b8ff" stroke="#63b8ff" points="67.44,-18.75 56.85,-19.05 65.32,-25.42 67.44,-18.75"/>
</a>
</g>
</g>
<!-- Node17 -->
<g id="Node000017" class="node">
<title>Node17</title>
<g id="a_Node000017"><a xlink:title=" ">
<polygon fill="#e0e0e0" stroke="#999999" points="453,-129 421,-129 421,-110 453,-110 453,-129"/>
<text text-anchor="middle" x="437" y="-117" font-family="Helvetica,sans-Serif" font-size="10.00">set</text>
</a>
</g>
</g>
<!-- Node2&#45;&gt;Node17 -->
<g id="edge21_Node000002_Node000017" class="edge">
<title>Node2&#45;&gt;Node17</title>
<g id="a_edge21_Node000002_Node000017"><a xlink:title=" ">
<path fill="none" stroke="#63b8ff" d="M525.13,-164.98C508.09,-156.38 481.57,-143 462.07,-133.16"/>
<polygon fill="#63b8ff" stroke="#63b8ff" points="463.64,-130.03 453.14,-128.65 460.49,-136.28 463.64,-130.03"/>
</a>
</g>
</g>
<!-- Node18 -->
<g id="Node000018" class="node">
<title>Node18</title>
<g id="a_Node000018"><a xlink:title=" ">
<polygon fill="#e0e0e0" stroke="#999999" points="515,-129 471,-129 471,-110 515,-110 515,-129"/>
<text text-anchor="middle" x="493" y="-117" font-family="Helvetica,sans-Serif" font-size="10.00">string</text>
</a>
</g>
</g>
<!-- Node2&#45;&gt;Node18 -->
<g id="edge22_Node000002_Node000018" class="edge">
<title>Node2&#45;&gt;Node18</title>
<g id="a_edge22_Node000002_Node000018"><a xlink:title=" ">
<path fill="none" stroke="#63b8ff" d="M533.91,-164.75C526.84,-157.11 516.41,-145.82 507.85,-136.56"/>
<polygon fill="#63b8ff" stroke="#63b8ff" points="510.3,-134.06 500.94,-129.09 505.16,-138.81 510.3,-134.06"/>
</a>
</g>
</g>
<!-- Node3&#45;&gt;Node4 -->
<g id="edge3_Node000003_Node000004" class="edge">
<title>Node3&#45;&gt;Node4</title>
<g id="a_edge3_Node000003_Node000004"><a xlink:title=" ">
<path fill="none" stroke="#63b8ff" d="M605.06,-109.84C633.08,-91.28 699.18,-47.49 733.49,-24.75"/>
<polygon fill="#63b8ff" stroke="#63b8ff" points="735.47,-27.64 741.87,-19.2 731.6,-21.8 735.47,-27.64"/>
</a>
</g>
</g>
<!-- Node3&#45;&gt;Node5 -->
<g id="edge4_Node000003_Node000005" class="edge">
<title>Node3&#45;&gt;Node5</title>
<g id="a_edge4_Node000003_Node000005"><a xlink:title=" ">
<path fill="none" stroke="#63b8ff" d="M569.35,-109.98C546.15,-101.27 509.88,-87.63 483.6,-77.75"/>
<polygon fill="#63b8ff" stroke="#63b8ff" points="484.66,-74.41 474.07,-74.17 482.2,-80.97 484.66,-74.41"/>
</a>
</g>
</g>
<!-- Node3&#45;&gt;Node11 -->
<g id="edge16_Node000003_Node000011" class="edge">
<title>Node3&#45;&gt;Node11</title>
<g id="a_edge16_Node000003_Node000011"><a xlink:title=" ">
<path fill="none" stroke="#63b8ff" d="M583.34,-109.75C571.79,-96.98 554.1,-72.84 566,-55 574.18,-42.74 608.04,-29.94 635.51,-21.23"/>
<polygon fill="#63b8ff" stroke="#63b8ff" points="636.76,-24.51 645.28,-18.22 634.7,-17.82 636.76,-24.51"/>
</a>
</g>
</g>
<!-- Node16 -->
<g id="Node000016" class="node">
<title>Node16</title>
<g id="a_Node000016"><a xlink:title=" ">
<polygon fill="#e0e0e0" stroke="#999999" points="613,-74 575,-74 575,-55 613,-55 613,-74"/>
<text text-anchor="middle" x="594" y="-62" font-family="Helvetica,sans-Serif" font-size="10.00">map</text>
</a>
</g>
</g>
<!-- Node3&#45;&gt;Node16 -->
<g id="edge17_Node000003_Node000016" class="edge">
<title>Node3&#45;&gt;Node16</title>
<g id="a_edge17_Node000003_Node000016"><a xlink:title=" ">
<path fill="none" stroke="#63b8ff" d="M592.33,-109.75C592.59,-102.8 592.97,-92.85 593.3,-84.13"/>
<polygon fill="#63b8ff" stroke="#63b8ff" points="596.8,-84.21 593.68,-74.09 589.8,-83.95 596.8,-84.21"/>
</a>
</g>
</g>
<!-- Node5&#45;&gt;Node4 -->
<g id="edge5_Node000005_Node000004" class="edge">
<title>Node5&#45;&gt;Node4</title>
<g id="a_edge5_Node000005_Node000004"><a xlink:title=" ">
<path fill="none" stroke="#63b8ff" d="M480.55,-58.59C526.93,-50.84 619.9,-35.17 708.26,-19.29"/>
<polygon fill="#63b8ff" stroke="#63b8ff" points="708.95,-22.72 718.17,-17.51 707.71,-15.84 708.95,-22.72"/>
</a>
</g>
</g>
<!-- Node6 -->
<g id="Node000006" class="node">
<title>Node6</title>
<g id="a_Node000006"><a xlink:title=" ">
<polygon fill="#e0e0e0" stroke="#999999" points="491,-19 427,-19 427,0 491,0 491,-19"/>
<text text-anchor="middle" x="459" y="-7" font-family="Helvetica,sans-Serif" font-size="10.00">algorithm</text>
</a>
</g>
</g>
<!-- Node5&#45;&gt;Node6 -->
<g id="edge6_Node000005_Node000006" class="edge">
<title>Node5&#45;&gt;Node6</title>
<g id="a_edge6_Node000005_Node000006"><a xlink:title=" ">
<path fill="none" stroke="#63b8ff" d="M452.32,-54.75C453.37,-47.8 454.87,-37.85 456.19,-29.13"/>
<polygon fill="#63b8ff" stroke="#63b8ff" points="459.67,-29.5 457.7,-19.09 452.75,-28.45 459.67,-29.5"/>
</a>
</g>
</g>
<!-- Node7 -->
<g id="Node000007" class="node">
<title>Node7</title>
<g id="a_Node000007"><a xlink:title=" ">
<polygon fill="#e0e0e0" stroke="#999999" points="558.5,-19 509.5,-19 509.5,0 558.5,0 558.5,-19"/>
<text text-anchor="middle" x="534" y="-7" font-family="Helvetica,sans-Serif" font-size="10.00">cctype</text>
</a>
</g>
</g>
<!-- Node5&#45;&gt;Node7 -->
<g id="edge7_Node000005_Node000007" class="edge">
<title>Node5&#45;&gt;Node7</title>
<g id="a_edge7_Node000005_Node000007"><a xlink:title=" ">
<path fill="none" stroke="#63b8ff" d="M464.34,-54.98C477.09,-46.84 496.55,-34.41 511.67,-24.76"/>
<polygon fill="#63b8ff" stroke="#63b8ff" points="513.88,-27.5 520.42,-19.17 510.11,-21.6 513.88,-27.5"/>
</a>
</g>
</g>
<!-- Node8 -->
<g id="Node000008" class="node">
<title>Node8</title>
<g id="a_Node000008"><a xlink:title=" ">
<polygon fill="#e0e0e0" stroke="#999999" points="627,-19 577,-19 577,0 627,0 627,-19"/>
<text text-anchor="middle" x="602" y="-7" font-family="Helvetica,sans-Serif" font-size="10.00">cstring</text>
</a>
</g>
</g>
<!-- Node5&#45;&gt;Node8 -->
<g id="edge8_Node000005_Node000008" class="edge">
<title>Node5&#45;&gt;Node8</title>
<g id="a_edge8_Node000005_Node000008"><a xlink:title=" ">
<path fill="none" stroke="#63b8ff" d="M475.26,-54.98C500.32,-46.19 539.63,-32.39 567.83,-22.49"/>
<polygon fill="#63b8ff" stroke="#63b8ff" points="569.02,-25.78 577.3,-19.17 566.7,-19.18 569.02,-25.78"/>
</a>
</g>
</g>
<!-- Node9 -->
<g id="Node000009" class="node">
<title>Node9</title>
<g id="a_Node000009"><a xlink:title=" ">
<polygon fill="#e0e0e0" stroke="#999999" points="129.5,-19 78.5,-19 78.5,0 129.5,0 129.5,-19"/>
<text text-anchor="middle" x="104" y="-7" font-family="Helvetica,sans-Serif" font-size="10.00">errno.h</text>
</a>
</g>
</g>
<!-- Node5&#45;&gt;Node9 -->
<g id="edge9_Node000005_Node000009" class="edge">
<title>Node5&#45;&gt;Node9</title>
<g id="a_edge9_Node000005_Node000009"><a xlink:title=" ">
<path fill="none" stroke="#63b8ff" d="M421.22,-57.51C416.47,-56.62 411.61,-55.75 407,-55 291.1,-36.07 258.19,-41.36 139.4,-19.08"/>
<polygon fill="#63b8ff" stroke="#63b8ff" points="140.03,-15.64 129.55,-17.21 138.72,-22.52 140.03,-15.64"/>
</a>
</g>
</g>
<!-- Node10 -->
<g id="Node000010" class="node">
<title>Node10</title>
<g id="a_Node000010"><a xlink:title=" ">
<polygon fill="#e0e0e0" stroke="#999999" points="194.5,-19 147.5,-19 147.5,0 194.5,0 194.5,-19"/>
<text text-anchor="middle" x="171" y="-7" font-family="Helvetica,sans-Serif" font-size="10.00">fcntl.h</text>
</a>
</g>
</g>
<!-- Node5&#45;&gt;Node10 -->
<g id="edge10_Node000005_Node000010" class="edge">
<title>Node5&#45;&gt;Node10</title>
<g id="a_edge10_Node000005_Node000010"><a xlink:title=" ">
<path fill="none" stroke="#63b8ff" d="M421.19,-57.68C416.45,-56.77 411.59,-55.85 407,-55 319.98,-38.88 295.22,-38.45 204.61,-18.99"/>
<polygon fill="#63b8ff" stroke="#63b8ff" points="205.26,-15.54 194.74,-16.85 203.77,-22.39 205.26,-15.54"/>
</a>
</g>
</g>
<!-- Node5&#45;&gt;Node11 -->
<g id="edge11_Node000005_Node000011" class="edge">
<title>Node5&#45;&gt;Node11</title>
<g id="a_edge11_Node000005_Node000011"><a xlink:title=" ">
<path fill="none" stroke="#63b8ff" d="M480.94,-56.35C520.93,-46.8 591.79,-29.89 635.36,-19.49"/>
<polygon fill="#63b8ff" stroke="#63b8ff" points="636.36,-22.84 645.28,-17.12 634.74,-16.04 636.36,-22.84"/>
</a>
</g>
</g>
<!-- Node5&#45;&gt;Node12 -->
<g id="edge12_Node000005_Node000012" class="edge">
<title>Node5&#45;&gt;Node12</title>
<g id="a_edge12_Node000005_Node000012"><a xlink:title=" ">
<path fill="none" stroke="#63b8ff" d="M421.24,-57.4C416.49,-56.52 411.62,-55.69 407,-55 260.8,-33.13 219.88,-42.69 70.19,-19.02"/>
<polygon fill="#63b8ff" stroke="#63b8ff" points="70.6,-15.54 60.17,-17.41 69.49,-22.45 70.6,-15.54"/>
</a>
</g>
</g>
<!-- Node13 -->
<g id="Node000013" class="node">
<title>Node13</title>
<g id="a_Node000013"><a xlink:title=" ">
<polygon fill="#e0e0e0" stroke="#999999" points="269,-19 213,-19 213,0 269,0 269,-19"/>
<text text-anchor="middle" x="241" y="-7" font-family="Helvetica,sans-Serif" font-size="10.00">sstream</text>
</a>
</g>
</g>
<!-- Node5&#45;&gt;Node13 -->
<g id="edge13_Node000005_Node000013" class="edge">
<title>Node5&#45;&gt;Node13</title>
<g id="a_edge13_Node000005_Node000013"><a xlink:title=" ">
<path fill="none" stroke="#63b8ff" d="M421.36,-56.02C384.04,-46.6 319.9,-30.41 279.01,-20.09"/>
<polygon fill="#63b8ff" stroke="#63b8ff" points="279.7,-16.66 269.15,-17.6 277.99,-23.45 279.7,-16.66"/>
</a>
</g>
</g>
<!-- Node14 -->
<g id="Node000014" class="node">
<title>Node14</title>
<g id="a_Node000014"><a xlink:title=" ">
<polygon fill="#e0e0e0" stroke="#999999" points="343,-19 287,-19 287,0 343,0 343,-19"/>
<text text-anchor="middle" x="315" y="-7" font-family="Helvetica,sans-Serif" font-size="10.00">unistd.h</text>
</a>
</g>
</g>
<!-- Node5&#45;&gt;Node14 -->
<g id="edge14_Node000005_Node000014" class="edge">
<title>Node5&#45;&gt;Node14</title>
<g id="a_edge14_Node000005_Node000014"><a xlink:title=" ">
<path fill="none" stroke="#63b8ff" d="M429.15,-54.98C406.88,-46.3 372.1,-32.75 346.78,-22.88"/>
<polygon fill="#63b8ff" stroke="#63b8ff" points="347.84,-19.54 337.25,-19.17 345.29,-26.06 347.84,-19.54"/>
</a>
</g>
</g>
<!-- Node15 -->
<g id="Node000015" class="node">
<title>Node15</title>
<g id="a_Node000015"><a xlink:title=" ">
<polygon fill="#e0e0e0" stroke="#999999" points="408.5,-19 361.5,-19 361.5,0 408.5,0 408.5,-19"/>
<text text-anchor="middle" x="385" y="-7" font-family="Helvetica,sans-Serif" font-size="10.00">vector</text>
</a>
</g>
</g>
<!-- Node5&#45;&gt;Node15 -->
<g id="edge15_Node000005_Node000015" class="edge">
<title>Node5&#45;&gt;Node15</title>
<g id="a_edge15_Node000005_Node000015"><a xlink:title=" ">
<path fill="none" stroke="#63b8ff" d="M440.4,-54.98C430.54,-47.07 415.65,-35.11 403.78,-25.58"/>
<polygon fill="#63b8ff" stroke="#63b8ff" points="405.79,-22.7 395.8,-19.17 401.4,-28.16 405.79,-22.7"/>
</a>
</g>
</g>
</g>
</svg>
