<?xml version="1.0" encoding="UTF-8" standalone="no"?>
<!DOCTYPE svg PUBLIC "-//W3C//DTD SVG 1.1//EN"
 "http://www.w3.org/Graphics/SVG/1.1/DTD/svg11.dtd">
<!-- Generated by graphviz version 2.43.0 (0)
 -->
<!-- Title: include/config/AConfigParser.hpp Pages: 1 -->
<svg width="748pt" height="335pt"
 viewBox="0.00 0.00 748.18 335.00" xmlns="http://www.w3.org/2000/svg" xmlns:xlink="http://www.w3.org/1999/xlink">
<g id="graph0" class="graph" transform="scale(1 1) rotate(0) translate(4 331)">
<title>include/config/AConfigParser.hpp</title>
<!-- Node1 -->
<g id="Node000001" class="node">
<title>Node1</title>
<g id="a_Node000001"><a xlink:title=" ">
<polygon fill="#999999" stroke="#666666" points="452.18,-327 277.18,-327 277.18,-308 452.18,-308 452.18,-327"/>
<text text-anchor="middle" x="364.68" y="-315" font-family="Helvetica,sans-Serif" font-size="10.00">include/config/AConfigParser.hpp</text>
</a>
</g>
</g>
<!-- Node2 -->
<g id="Node000002" class="node">
<title>Node2</title>
<g id="a_Node000002"><a xlink:href="ConfigGlobalBlock_8hpp.html" target="_top" xlink:title=" ">
<polygon fill="white" stroke="#666666" points="162.18,-272 13.18,-272 13.18,-242 162.18,-242 162.18,-272"/>
<text text-anchor="start" x="21.18" y="-260" font-family="Helvetica,sans-Serif" font-size="10.00">include/config/ConfigGlobal</text>
<text text-anchor="middle" x="87.68" y="-249" font-family="Helvetica,sans-Serif" font-size="10.00">Block.hpp</text>
</a>
</g>
</g>
<!-- Node1&#45;&gt;Node2 -->
<g id="edge1_Node000001_Node000002" class="edge">
<title>Node1&#45;&gt;Node2</title>
<g id="a_edge1_Node000001_Node000002"><a xlink:title=" ">
<path fill="none" stroke="#63b8ff" d="M314.58,-305.92C269.63,-296.43 203.34,-282.43 154,-272.01"/>
<polygon fill="#63b8ff" stroke="#63b8ff" points="313.89,-309.35 324.4,-307.99 315.34,-302.5 313.89,-309.35"/>
</a>
</g>
</g>
<!-- Node9 -->
<g id="Node000009" class="node">
<title>Node9</title>
<g id="a_Node000009"><a xlink:href="ConfigHttpBlock_8hpp.html" target="_top" xlink:title=" ">
<polygon fill="white" stroke="#666666" points="336.18,-272 197.18,-272 197.18,-242 336.18,-242 336.18,-272"/>
<text text-anchor="start" x="205.18" y="-260" font-family="Helvetica,sans-Serif" font-size="10.00">include/config/ConfigHttp</text>
<text text-anchor="middle" x="266.68" y="-249" font-family="Helvetica,sans-Serif" font-size="10.00">Block.hpp</text>
</a>
</g>
</g>
<!-- Node1&#45;&gt;Node9 -->
<g id="edge9_Node000001_Node000009" class="edge">
<title>Node1&#45;&gt;Node9</title>
<g id="a_edge9_Node000001_Node000009"><a xlink:title=" ">
<path fill="none" stroke="#63b8ff" d="M341.32,-302.55C325.91,-293.36 305.79,-281.35 290.32,-272.11"/>
<polygon fill="#63b8ff" stroke="#63b8ff" points="339.84,-305.75 350.22,-307.87 343.42,-299.74 339.84,-305.75"/>
</a>
</g>
</g>
<!-- Node11 -->
<g id="Node000011" class="node">
<title>Node11</title>
<g id="a_Node000011"><a xlink:href="ConfigLocationBlock_8hpp.html" target="_top" xlink:title=" ">
<polygon fill="white" stroke="#666666" points="551.18,-272 392.18,-272 392.18,-242 551.18,-242 551.18,-272"/>
<text text-anchor="start" x="400.18" y="-260" font-family="Helvetica,sans-Serif" font-size="10.00">include/config/ConfigLocation</text>
<text text-anchor="middle" x="471.68" y="-249" font-family="Helvetica,sans-Serif" font-size="10.00">Block.hpp</text>
</a>
</g>
</g>
<!-- Node1&#45;&gt;Node11 -->
<g id="edge12_Node000001_Node000011" class="edge">
<title>Node1&#45;&gt;Node11</title>
<g id="a_edge12_Node000001_Node000011"><a xlink:title=" ">
<path fill="none" stroke="#63b8ff" d="M389.71,-302.81C406.59,-293.58 428.82,-281.43 445.86,-272.11"/>
<polygon fill="#63b8ff" stroke="#63b8ff" points="387.56,-300 380.47,-307.87 390.92,-306.14 387.56,-300"/>
</a>
</g>
</g>
<!-- Node12 -->
<g id="Node000012" class="node">
<title>Node12</title>
<g id="a_Node000012"><a xlink:href="ConfigServerBlock_8hpp.html" target="_top" xlink:title=" ">
<polygon fill="white" stroke="#666666" points="520.18,-206 371.18,-206 371.18,-176 520.18,-176 520.18,-206"/>
<text text-anchor="start" x="379.18" y="-194" font-family="Helvetica,sans-Serif" font-size="10.00">include/config/ConfigServer</text>
<text text-anchor="middle" x="445.68" y="-183" font-family="Helvetica,sans-Serif" font-size="10.00">Block.hpp</text>
</a>
</g>
</g>
<!-- Node1&#45;&gt;Node12 -->
<g id="edge18_Node000001_Node000012" class="edge">
<title>Node1&#45;&gt;Node12</title>
<g id="a_edge18_Node000001_Node000012"><a xlink:title=" ">
<path fill="none" stroke="#63b8ff" d="M366.14,-297.83C368.11,-281.92 372.76,-258.99 383.68,-242 393.17,-227.22 408.5,-214.8 421.54,-206.04"/>
<polygon fill="#63b8ff" stroke="#63b8ff" points="362.63,-297.69 365.12,-307.99 369.6,-298.39 362.63,-297.69"/>
</a>
</g>
</g>
<!-- Node15 -->
<g id="Node000015" class="node">
<title>Node15</title>
<g id="a_Node000015"><a xlink:href="AConfigParser_8cpp.html" target="_top" xlink:title=" ">
<polygon fill="white" stroke="#666666" points="740.18,-266.5 569.18,-266.5 569.18,-247.5 740.18,-247.5 740.18,-266.5"/>
<text text-anchor="middle" x="654.68" y="-254.5" font-family="Helvetica,sans-Serif" font-size="10.00">source/config/AConfigParser.cpp</text>
</a>
</g>
</g>
<!-- Node1&#45;&gt;Node15 -->
<g id="edge19_Node000001_Node000015" class="edge">
<title>Node1&#45;&gt;Node15</title>
<g id="a_edge19_Node000001_Node000015"><a xlink:title=" ">
<path fill="none" stroke="#63b8ff" d="M416.91,-305.96C472.89,-294.67 560.67,-276.96 612.46,-266.52"/>
<polygon fill="#63b8ff" stroke="#63b8ff" points="415.96,-302.59 406.85,-307.99 417.34,-309.45 415.96,-302.59"/>
</a>
</g>
</g>
<!-- Node3 -->
<g id="Node000003" class="node">
<title>Node3</title>
<g id="a_Node000003"><a xlink:href="Config_8hpp.html" target="_top" xlink:title=" ">
<polygon fill="white" stroke="#666666" points="258.18,-134.5 119.18,-134.5 119.18,-115.5 258.18,-115.5 258.18,-134.5"/>
<text text-anchor="middle" x="188.68" y="-122.5" font-family="Helvetica,sans-Serif" font-size="10.00">include/config/Config.hpp</text>
</a>
</g>
</g>
<!-- Node2&#45;&gt;Node3 -->
<g id="edge2_Node000002_Node000003" class="edge">
<title>Node2&#45;&gt;Node3</title>
<g id="a_edge2_Node000002_Node000003"><a xlink:title=" ">
<path fill="none" stroke="#63b8ff" d="M38.65,-236.95C25.61,-229.37 13.11,-219.23 5.68,-206 -0.85,-194.37 -2.41,-186.6 5.68,-176 20.67,-156.37 80.92,-142.57 128.24,-134.52"/>
<polygon fill="#63b8ff" stroke="#63b8ff" points="37.24,-240.16 47.71,-241.79 40.54,-233.99 37.24,-240.16"/>
</a>
</g>
</g>
<!-- Node8 -->
<g id="Node000008" class="node">
<title>Node8</title>
<g id="a_Node000008"><a xlink:href="ConfigGlobalBlock_8cpp.html" target="_top" xlink:title=" ">
<polygon fill="white" stroke="#666666" points="160.68,-206 14.68,-206 14.68,-176 160.68,-176 160.68,-206"/>
<text text-anchor="start" x="22.68" y="-194" font-family="Helvetica,sans-Serif" font-size="10.00">source/config/ConfigGlobal</text>
<text text-anchor="middle" x="87.68" y="-183" font-family="Helvetica,sans-Serif" font-size="10.00">Block.cpp</text>
</a>
</g>
</g>
<!-- Node2&#45;&gt;Node8 -->
<g id="edge8_Node000002_Node000008" class="edge">
<title>Node2&#45;&gt;Node8</title>
<g id="a_edge8_Node000002_Node000008"><a xlink:title=" ">
<path fill="none" stroke="#63b8ff" d="M87.68,-231.54C87.68,-222.96 87.68,-213.61 87.68,-206.16"/>
<polygon fill="#63b8ff" stroke="#63b8ff" points="84.18,-231.8 87.68,-241.8 91.18,-231.8 84.18,-231.8"/>
</a>
</g>
</g>
<!-- Node4 -->
<g id="Node000004" class="node">
<title>Node4</title>
<g id="a_Node000004"><a xlink:href="Kernel_8hpp.html" target="_top" xlink:title=" ">
<polygon fill="white" stroke="#666666" points="258.68,-74 118.68,-74 118.68,-55 258.68,-55 258.68,-74"/>
<text text-anchor="middle" x="188.68" y="-62" font-family="Helvetica,sans-Serif" font-size="10.00">include/kernel/Kernel.hpp</text>
</a>
</g>
</g>
<!-- Node3&#45;&gt;Node4 -->
<g id="edge3_Node000003_Node000004" class="edge">
<title>Node3&#45;&gt;Node4</title>
<g id="a_edge3_Node000003_Node000004"><a xlink:title=" ">
<path fill="none" stroke="#63b8ff" d="M188.68,-105.16C188.68,-94.74 188.68,-82.3 188.68,-74.17"/>
<polygon fill="#63b8ff" stroke="#63b8ff" points="185.18,-105.37 188.68,-115.37 192.18,-105.37 185.18,-105.37"/>
</a>
</g>
</g>
<!-- Node6 -->
<g id="Node000006" class="node">
<title>Node6</title>
<g id="a_Node000006"><a xlink:href="main_8cpp.html" target="_top" xlink:title=" ">
<polygon fill="white" stroke="#666666" points="188.18,-19 91.18,-19 91.18,0 188.18,0 188.18,-19"/>
<text text-anchor="middle" x="139.68" y="-7" font-family="Helvetica,sans-Serif" font-size="10.00">source/main.cpp</text>
</a>
</g>
</g>
<!-- Node3&#45;&gt;Node6 -->
<g id="edge7_Node000003_Node000006" class="edge">
<title>Node3&#45;&gt;Node6</title>
<g id="a_edge7_Node000003_Node000006"><a xlink:title=" ">
<path fill="none" stroke="#63b8ff" d="M153.59,-111.18C137.13,-103.19 119.1,-91.12 109.68,-74 99.21,-54.99 117.8,-31.71 130.1,-19.3"/>
<polygon fill="#63b8ff" stroke="#63b8ff" points="152.46,-114.51 163.02,-115.42 155.33,-108.13 152.46,-114.51"/>
</a>
</g>
</g>
<!-- Node7 -->
<g id="Node000007" class="node">
<title>Node7</title>
<g id="a_Node000007"><a xlink:href="Config_8cpp.html" target="_top" xlink:title=" ">
<polygon fill="white" stroke="#666666" points="412.18,-74 277.18,-74 277.18,-55 412.18,-55 412.18,-74"/>
<text text-anchor="middle" x="344.68" y="-62" font-family="Helvetica,sans-Serif" font-size="10.00">source/config/Config.cpp</text>
</a>
</g>
</g>
<!-- Node3&#45;&gt;Node7 -->
<g id="edge6_Node000003_Node000007" class="edge">
<title>Node3&#45;&gt;Node7</title>
<g id="a_edge6_Node000003_Node000007"><a xlink:title=" ">
<path fill="none" stroke="#63b8ff" d="M221,-111.88C251.16,-100.57 295.38,-83.99 321.97,-74.02"/>
<polygon fill="#63b8ff" stroke="#63b8ff" points="219.5,-108.71 211.36,-115.49 221.95,-115.26 219.5,-108.71"/>
</a>
</g>
</g>
<!-- Node5 -->
<g id="Node000005" class="node">
<title>Node5</title>
<g id="a_Node000005"><a xlink:href="Kernel_8cpp.html" target="_top" xlink:title=" ">
<polygon fill="white" stroke="#666666" points="425.68,-19 289.68,-19 289.68,0 425.68,0 425.68,-19"/>
<text text-anchor="middle" x="357.68" y="-7" font-family="Helvetica,sans-Serif" font-size="10.00">source/kernel/Kernel.cpp</text>
</a>
</g>
</g>
<!-- Node4&#45;&gt;Node5 -->
<g id="edge4_Node000004_Node000005" class="edge">
<title>Node4&#45;&gt;Node5</title>
<g id="a_edge4_Node000004_Node000005"><a xlink:title=" ">
<path fill="none" stroke="#63b8ff" d="M225.58,-51.93C257.14,-42.03 301.86,-28.01 330.31,-19.08"/>
<polygon fill="#63b8ff" stroke="#63b8ff" points="224.32,-48.65 215.83,-54.98 226.42,-55.33 224.32,-48.65"/>
</a>
</g>
</g>
<!-- Node4&#45;&gt;Node6 -->
<g id="edge5_Node000004_Node000006" class="edge">
<title>Node4&#45;&gt;Node6</title>
<g id="a_edge5_Node000004_Node000006"><a xlink:title=" ">
<path fill="none" stroke="#63b8ff" d="M173.64,-47.24C165.06,-37.95 154.63,-26.68 147.62,-19.09"/>
<polygon fill="#63b8ff" stroke="#63b8ff" points="171.23,-49.78 180.59,-54.75 176.37,-45.03 171.23,-49.78"/>
</a>
</g>
</g>
<!-- Node9&#45;&gt;Node3 -->
<g id="edge10_Node000009_Node000003" class="edge">
<title>Node9&#45;&gt;Node3</title>
<g id="a_edge10_Node000009_Node000003"><a xlink:title=" ">
<path fill="none" stroke="#63b8ff" d="M235.78,-235.92C225.45,-227.78 214.77,-217.56 207.68,-206 193.49,-182.88 189.9,-150.01 188.99,-134.6"/>
<polygon fill="#63b8ff" stroke="#63b8ff" points="233.81,-238.81 243.92,-241.99 238,-233.2 233.81,-238.81"/>
</a>
</g>
</g>
<!-- Node10 -->
<g id="Node000010" class="node">
<title>Node10</title>
<g id="a_Node000010"><a xlink:href="ConfigHttpBlock_8cpp.html" target="_top" xlink:title=" ">
<polygon fill="white" stroke="#666666" points="352.68,-206 216.68,-206 216.68,-176 352.68,-176 352.68,-206"/>
<text text-anchor="start" x="224.68" y="-194" font-family="Helvetica,sans-Serif" font-size="10.00">source/config/ConfigHttp</text>
<text text-anchor="middle" x="284.68" y="-183" font-family="Helvetica,sans-Serif" font-size="10.00">Block.cpp</text>
</a>
</g>
</g>
<!-- Node9&#45;&gt;Node10 -->
<g id="edge11_Node000009_Node000010" class="edge">
<title>Node9&#45;&gt;Node10</title>
<g id="a_edge11_Node000009_Node000010"><a xlink:title=" ">
<path fill="none" stroke="#63b8ff" d="M273.4,-232.11C275.85,-223.38 278.55,-213.78 280.69,-206.16"/>
<polygon fill="#63b8ff" stroke="#63b8ff" points="270.01,-231.22 270.67,-241.8 276.75,-233.12 270.01,-231.22"/>
</a>
</g>
</g>
<!-- Node11&#45;&gt;Node12 -->
<g id="edge13_Node000011_Node000012" class="edge">
<title>Node11&#45;&gt;Node12</title>
<g id="a_edge13_Node000011_Node000012"><a xlink:title=" ">
<path fill="none" stroke="#63b8ff" d="M462.09,-232.39C458.51,-223.59 454.56,-213.86 451.43,-206.16"/>
<polygon fill="#63b8ff" stroke="#63b8ff" points="458.9,-233.85 465.91,-241.8 465.39,-231.21 458.9,-233.85"/>
</a>
</g>
</g>
<!-- Node14 -->
<g id="Node000014" class="node">
<title>Node14</title>
<g id="a_Node000014"><a xlink:href="ConfigLocationBlock_8cpp.html" target="_top" xlink:title=" ">
<polygon fill="white" stroke="#666666" points="694.68,-206 538.68,-206 538.68,-176 694.68,-176 694.68,-206"/>
<text text-anchor="start" x="546.68" y="-194" font-family="Helvetica,sans-Serif" font-size="10.00">source/config/ConfigLocation</text>
<text text-anchor="middle" x="616.68" y="-183" font-family="Helvetica,sans-Serif" font-size="10.00">Block.cpp</text>
</a>
</g>
</g>
<!-- Node11&#45;&gt;Node14 -->
<g id="edge17_Node000011_Node000014" class="edge">
<title>Node11&#45;&gt;Node14</title>
<g id="a_edge17_Node000011_Node000014"><a xlink:title=" ">
<path fill="none" stroke="#63b8ff" d="M512.95,-237.78C535.81,-227.69 563.79,-215.34 584.93,-206.01"/>
<polygon fill="#63b8ff" stroke="#63b8ff" points="511.23,-234.71 503.5,-241.95 514.06,-241.12 511.23,-234.71"/>
</a>
</g>
</g>
<!-- Node12&#45;&gt;Node3 -->
<g id="edge14_Node000012_Node000003" class="edge">
<title>Node12&#45;&gt;Node3</title>
<g id="a_edge14_Node000012_Node000003"><a xlink:title=" ">
<path fill="none" stroke="#63b8ff" d="M379.5,-173.52C329.43,-161.05 262.71,-144.44 222.88,-134.52"/>
<polygon fill="#63b8ff" stroke="#63b8ff" points="378.73,-176.93 389.28,-175.95 380.42,-170.14 378.73,-176.93"/>
</a>
</g>
</g>
<!-- Node12&#45;&gt;Node5 -->
<g id="edge16_Node000012_Node000005" class="edge">
<title>Node12&#45;&gt;Node5</title>
<g id="a_edge16_Node000012_Node000005"><a xlink:title=" ">
<path fill="none" stroke="#63b8ff" d="M446.76,-165.37C446.87,-136.64 443.32,-88.8 421.68,-55 411.1,-38.48 391.97,-26.39 377.37,-19.02"/>
<polygon fill="#63b8ff" stroke="#63b8ff" points="443.26,-165.65 446.56,-175.72 450.26,-165.78 443.26,-165.65"/>
</a>
</g>
</g>
<!-- Node13 -->
<g id="Node000013" class="node">
<title>Node13</title>
<g id="a_Node000013"><a xlink:href="ConfigServerBlock_8cpp.html" target="_top" xlink:title=" ">
<polygon fill="white" stroke="#666666" points="614.68,-140 468.68,-140 468.68,-110 614.68,-110 614.68,-140"/>
<text text-anchor="start" x="476.68" y="-128" font-family="Helvetica,sans-Serif" font-size="10.00">source/config/ConfigServer</text>
<text text-anchor="middle" x="541.68" y="-117" font-family="Helvetica,sans-Serif" font-size="10.00">Block.cpp</text>
</a>
</g>
</g>
<!-- Node12&#45;&gt;Node13 -->
<g id="edge15_Node000012_Node000013" class="edge">
<title>Node12&#45;&gt;Node13</title>
<g id="a_edge15_Node000012_Node000013"><a xlink:title=" ">
<path fill="none" stroke="#63b8ff" d="M475.64,-170.03C490.16,-160.34 507.27,-148.94 520.43,-140.16"/>
<polygon fill="#63b8ff" stroke="#63b8ff" points="473.36,-167.34 466.98,-175.8 477.24,-173.16 473.36,-167.34"/>
</a>
</g>
</g>
</g>
</svg>
