<?xml version="1.0" encoding="UTF-8" standalone="no"?>
<!DOCTYPE svg PUBLIC "-//W3C//DTD SVG 1.1//EN"
 "http://www.w3.org/Graphics/SVG/1.1/DTD/svg11.dtd">
<!-- Generated by graphviz version 2.43.0 (0)
 -->
<!-- Title: webconfig::AConfigParser Pages: 1 -->
<svg width="250pt" height="333pt"
 viewBox="0.00 0.00 249.50 333.00" xmlns="http://www.w3.org/2000/svg" xmlns:xlink="http://www.w3.org/1999/xlink">
<g id="graph0" class="graph" transform="scale(1 1) rotate(0) translate(4 329)">
<title>webconfig::AConfigParser</title>
<!-- Node1 -->
<g id="Node000001" class="node">
<title>Node1</title>
<g id="a_Node000001"><a xlink:title="The AConfigParser class is an abstract base class for parsing configuration files.">
<polygon fill="#999999" stroke="transparent" points="176.5,-229 32.5,-229 32.5,0 176.5,0 176.5,-229"/>
<text text-anchor="start" x="42.5" y="-216.5" font-family="Helvetica,sans-Serif" font-size="10.00">webconfig::AConfigParser</text>
<text text-anchor="start" x="102.5" y="-201.5" font-family="Helvetica,sans-Serif" font-size="10.00"> </text>
<text text-anchor="start" x="36.5" y="-186.5" font-family="Helvetica,sans-Serif" font-size="10.00">+</text>
<text text-anchor="start" x="49.5" y="-186.5" font-family="Helvetica,sans-Serif" font-size="10.00">AConfigParser()</text>
<text text-anchor="start" x="36.5" y="-171.5" font-family="Helvetica,sans-Serif" font-size="10.00">+</text>
<text text-anchor="start" x="49.5" y="-171.5" font-family="Helvetica,sans-Serif" font-size="10.00">AConfigParser()</text>
<text text-anchor="start" x="36.5" y="-156.5" font-family="Helvetica,sans-Serif" font-size="10.00">+</text>
<text text-anchor="start" x="49.5" y="-156.5" font-family="Helvetica,sans-Serif" font-size="10.00">AConfigParser()</text>
<text text-anchor="start" x="36.5" y="-141.5" font-family="Helvetica,sans-Serif" font-size="10.00">+</text>
<text text-anchor="start" x="49.5" y="-141.5" font-family="Helvetica,sans-Serif" font-size="10.00">operator=()</text>
<text text-anchor="start" x="36.5" y="-126.5" font-family="Helvetica,sans-Serif" font-size="10.00">+</text>
<text text-anchor="start" x="49.5" y="-126.5" font-family="Helvetica,sans-Serif" font-size="10.00">~AConfigParser()</text>
<text text-anchor="start" x="36.5" y="-111.5" font-family="Helvetica,sans-Serif" font-size="10.00">+</text>
<text text-anchor="start" x="49.5" y="-111.5" font-family="Helvetica,sans-Serif" font-size="10.00">parse()</text>
<text text-anchor="start" x="36.5" y="-96.5" font-family="Helvetica,sans-Serif" font-size="10.00">+</text>
<text text-anchor="start" x="49.5" y="-96.5" font-family="Helvetica,sans-Serif" font-size="10.00">print_config()</text>
<text text-anchor="start" x="36.5" y="-81.5" font-family="Helvetica,sans-Serif" font-size="10.00">#</text>
<text text-anchor="start" x="49.5" y="-81.5" font-family="Helvetica,sans-Serif" font-size="10.00">_need_to_skip()</text>
<text text-anchor="start" x="36.5" y="-66.5" font-family="Helvetica,sans-Serif" font-size="10.00">#</text>
<text text-anchor="start" x="49.5" y="-66.5" font-family="Helvetica,sans-Serif" font-size="10.00">_is_valid_sentence()</text>
<text text-anchor="start" x="36.5" y="-51.5" font-family="Helvetica,sans-Serif" font-size="10.00">#</text>
<text text-anchor="start" x="49.5" y="-51.5" font-family="Helvetica,sans-Serif" font-size="10.00">_is_scope_symbol()</text>
<text text-anchor="start" x="36.5" y="-36.5" font-family="Helvetica,sans-Serif" font-size="10.00">#</text>
<text text-anchor="start" x="49.5" y="-36.5" font-family="Helvetica,sans-Serif" font-size="10.00">_get_directive_name()</text>
<text text-anchor="start" x="36.5" y="-21.5" font-family="Helvetica,sans-Serif" font-size="10.00">#</text>
<text text-anchor="start" x="49.5" y="-21.5" font-family="Helvetica,sans-Serif" font-size="10.00">_is_valid_directive()</text>
<text text-anchor="start" x="36.5" y="-6.5" font-family="Helvetica,sans-Serif" font-size="10.00">#</text>
<text text-anchor="start" x="49.5" y="-6.5" font-family="Helvetica,sans-Serif" font-size="10.00">_parse_config_directive()</text>
<polygon fill="#666666" stroke="#666666" points="32.5,-211.5 32.5,-211.5 176.5,-211.5 176.5,-211.5 32.5,-211.5"/>
<polygon fill="#666666" stroke="#666666" points="32.5,-196.5 32.5,-196.5 176.5,-196.5 176.5,-196.5 32.5,-196.5"/>
<polygon fill="none" stroke="#666666" points="32.5,0 32.5,-229 176.5,-229 176.5,0 32.5,0"/>
</a>
</g>
</g>
<!-- Node2 -->
<g id="Node000002" class="node">
<title>Node2</title>
<g id="a_Node000002"><a xlink:title=" ">
<polygon fill="white" stroke="transparent" points="95,-325 0,-325 0,-276 95,-276 95,-325"/>
<text text-anchor="start" x="5.5" y="-312.5" font-family="Helvetica,sans-Serif" font-size="10.00">ConfigBlockLevel</text>
<text text-anchor="start" x="46" y="-297.5" font-family="Helvetica,sans-Serif" font-size="10.00"> </text>
<text text-anchor="start" x="46" y="-282.5" font-family="Helvetica,sans-Serif" font-size="10.00"> </text>
<polygon fill="#666666" stroke="#666666" points="0.5,-307.5 0.5,-307.5 95.5,-307.5 95.5,-307.5 0.5,-307.5"/>
<polygon fill="#666666" stroke="#666666" points="0.5,-292.5 0.5,-292.5 95.5,-292.5 95.5,-292.5 0.5,-292.5"/>
<polygon fill="none" stroke="#666666" points="0,-276 0,-325 95,-325 95,-276 0,-276"/>
</a>
</g>
</g>
<!-- Node2&#45;&gt;Node1 -->
<g id="edge1_Node000001_Node000002" class="edge">
<title>Node2&#45;&gt;Node1</title>
<g id="a_edge1_Node000001_Node000002"><a xlink:title=" ">
<path fill="none" stroke="#63b8ff" d="M54.84,-275.82C57.84,-266.14 61.55,-254.14 65.59,-241.1"/>
<polygon fill="none" stroke="#63b8ff" points="65.67,-240.86 63.62,-233.95 69.22,-229.4 71.26,-236.31 65.67,-240.86"/>
</a>
</g>
<text text-anchor="middle" x="100" y="-250" font-family="Helvetica,sans-Serif" font-size="10.00" fill="grey"> #_block_level</text>
</g>
<!-- Node3 -->
<g id="Node000003" class="node">
<title>Node3</title>
<g id="a_Node000003"><a xlink:title=" ">
<polygon fill="white" stroke="transparent" points="210,-325 113,-325 113,-276 210,-276 210,-325"/>
<text text-anchor="start" x="118.5" y="-312.5" font-family="Helvetica,sans-Serif" font-size="10.00">set&lt; std::string &gt;</text>
<text text-anchor="start" x="160" y="-297.5" font-family="Helvetica,sans-Serif" font-size="10.00"> </text>
<text text-anchor="start" x="160" y="-282.5" font-family="Helvetica,sans-Serif" font-size="10.00"> </text>
<polygon fill="#666666" stroke="#666666" points="113.5,-307.5 113.5,-307.5 210.5,-307.5 210.5,-307.5 113.5,-307.5"/>
<polygon fill="#666666" stroke="#666666" points="113.5,-292.5 113.5,-292.5 210.5,-292.5 210.5,-292.5 113.5,-292.5"/>
<polygon fill="none" stroke="#666666" points="113,-276 113,-325 210,-325 210,-276 113,-276"/>
</a>
</g>
</g>
<!-- Node3&#45;&gt;Node1 -->
<g id="edge2_Node000001_Node000003" class="edge">
<title>Node3&#45;&gt;Node1</title>
<g id="a_edge2_Node000001_Node000003"><a xlink:title=" ">
<path fill="none" stroke="#63b8ff" d="M154.16,-275.82C151.16,-266.14 147.45,-254.14 143.41,-241.1"/>
<polygon fill="none" stroke="#63b8ff" points="143.33,-240.86 137.74,-236.31 139.78,-229.4 145.38,-233.95 143.33,-240.86"/>
</a>
</g>
<text text-anchor="middle" x="194.5" y="-250" font-family="Helvetica,sans-Serif" font-size="10.00" fill="grey"> #_valid_directives</text>
</g>
</g>
</svg>
