<?xml version="1.0" encoding="UTF-8" standalone="no"?>
<!DOCTYPE svg PUBLIC "-//W3C//DTD SVG 1.1//EN"
 "http://www.w3.org/Graphics/SVG/1.1/DTD/svg11.dtd">
<!-- Generated by graphviz version 2.43.0 (0)
 -->
<!-- Title: webkernel::IHandler Pages: 1 -->
<svg width="304pt" height="247pt"
 viewBox="0.00 0.00 304.00 247.00" xmlns="http://www.w3.org/2000/svg" xmlns:xlink="http://www.w3.org/1999/xlink">
<g id="graph0" class="graph" transform="scale(1 1) rotate(0) translate(4 243)">
<title>webkernel::IHandler</title>
<!-- Node1 -->
<g id="Node000001" class="node">
<title>Node1</title>
<g id="a_Node000001"><a xlink:title="The IHandler class is an interface class for handling events.">
<polygon fill="#999999" stroke="transparent" points="191,-239 83,-239 83,-175 191,-175 191,-239"/>
<text text-anchor="start" x="88" y="-227" font-family="Helvetica,sans-Serif" font-size="10.00">webkernel::IHandler</text>
<text text-anchor="start" x="135" y="-212" font-family="Helvetica,sans-Serif" font-size="10.00"> </text>
<text text-anchor="start" x="90" y="-197" font-family="Helvetica,sans-Serif" font-size="10.00">+</text>
<text text-anchor="start" x="106" y="-197" font-family="Helvetica,sans-Serif" font-size="10.00">~IHandler()</text>
<text text-anchor="start" x="90" y="-182" font-family="Helvetica,sans-Serif" font-size="10.00">+</text>
<text text-anchor="start" x="106" y="-182" font-family="Helvetica,sans-Serif" font-size="10.00">handle_event()</text>
<polygon fill="#666666" stroke="#666666" points="83,-222 83,-222 191,-222 191,-222 83,-222"/>
<polygon fill="#666666" stroke="#666666" points="83,-207 83,-207 191,-207 191,-207 83,-207"/>
<polygon fill="none" stroke="#666666" points="83,-175 83,-239 191,-239 191,-175 83,-175"/>
</a>
</g>
</g>
<!-- Node2 -->
<g id="Node000002" class="node">
<title>Node2</title>
<g id="a_Node000002"><a xlink:href="classwebkernel_1_1Acceptor.html" target="_top" xlink:title="The Acceptor class is a concrete class for accepting connections.">
<polygon fill="white" stroke="transparent" points="118,-139 0,-139 0,0 118,0 118,-139"/>
<text text-anchor="start" x="9" y="-126.5" font-family="Helvetica,sans-Serif" font-size="10.00">webkernel::Acceptor</text>
<text text-anchor="start" x="57" y="-111.5" font-family="Helvetica,sans-Serif" font-size="10.00"> </text>
<text text-anchor="start" x="4" y="-96.5" font-family="Helvetica,sans-Serif" font-size="10.00">+</text>
<text text-anchor="start" x="17" y="-96.5" font-family="Helvetica,sans-Serif" font-size="10.00">Acceptor()</text>
<text text-anchor="start" x="4" y="-81.5" font-family="Helvetica,sans-Serif" font-size="10.00">+</text>
<text text-anchor="start" x="17" y="-81.5" font-family="Helvetica,sans-Serif" font-size="10.00">Acceptor()</text>
<text text-anchor="start" x="4" y="-66.5" font-family="Helvetica,sans-Serif" font-size="10.00">+</text>
<text text-anchor="start" x="17" y="-66.5" font-family="Helvetica,sans-Serif" font-size="10.00">Acceptor()</text>
<text text-anchor="start" x="4" y="-51.5" font-family="Helvetica,sans-Serif" font-size="10.00">+</text>
<text text-anchor="start" x="17" y="-51.5" font-family="Helvetica,sans-Serif" font-size="10.00">operator=()</text>
<text text-anchor="start" x="4" y="-36.5" font-family="Helvetica,sans-Serif" font-size="10.00">+</text>
<text text-anchor="start" x="17" y="-36.5" font-family="Helvetica,sans-Serif" font-size="10.00">~Acceptor()</text>
<text text-anchor="start" x="4" y="-21.5" font-family="Helvetica,sans-Serif" font-size="10.00">+</text>
<text text-anchor="start" x="17" y="-21.5" font-family="Helvetica,sans-Serif" font-size="10.00">create_connection()</text>
<text text-anchor="start" x="4" y="-6.5" font-family="Helvetica,sans-Serif" font-size="10.00">+</text>
<text text-anchor="start" x="17" y="-6.5" font-family="Helvetica,sans-Serif" font-size="10.00">handle_event()</text>
<polygon fill="#666666" stroke="#666666" points="0,-121.5 0,-121.5 118,-121.5 118,-121.5 0,-121.5"/>
<polygon fill="#666666" stroke="#666666" points="0,-106.5 0,-106.5 118,-106.5 118,-106.5 0,-106.5"/>
<polygon fill="none" stroke="#666666" points="0,0 0,-139 118,-139 118,0 0,0"/>
</a>
</g>
</g>
<!-- Node1&#45;&gt;Node2 -->
<g id="edge1_Node000001_Node000002" class="edge">
<title>Node1&#45;&gt;Node2</title>
<g id="a_edge1_Node000001_Node000002"><a xlink:title=" ">
<path fill="none" stroke="#63b8ff" d="M114,-166.05C109.13,-157.59 103.86,-148.44 98.58,-139.26"/>
<polygon fill="none" stroke="#63b8ff" points="111.08,-167.99 119.11,-174.91 117.15,-164.5 111.08,-167.99"/>
</a>
</g>
</g>
<!-- Node3 -->
<g id="Node000003" class="node">
<title>Node3</title>
<g id="a_Node000003"><a xlink:href="classwebkernel_1_1ConnectionHandler.html" target="_top" xlink:title="The ConnectionHandler class is a concrete class for handling connections.">
<polygon fill="white" stroke="transparent" points="296,-131.5 136,-131.5 136,-7.5 296,-7.5 296,-131.5"/>
<text text-anchor="start" x="141" y="-119.5" font-family="Helvetica,sans-Serif" font-size="10.00">webkernel::ConnectionHandler</text>
<text text-anchor="start" x="214" y="-104.5" font-family="Helvetica,sans-Serif" font-size="10.00"> </text>
<text text-anchor="start" x="147.5" y="-89.5" font-family="Helvetica,sans-Serif" font-size="10.00">+</text>
<text text-anchor="start" x="168" y="-89.5" font-family="Helvetica,sans-Serif" font-size="10.00">ConnectionHandler()</text>
<text text-anchor="start" x="147.5" y="-74.5" font-family="Helvetica,sans-Serif" font-size="10.00">+</text>
<text text-anchor="start" x="168" y="-74.5" font-family="Helvetica,sans-Serif" font-size="10.00">ConnectionHandler()</text>
<text text-anchor="start" x="147.5" y="-59.5" font-family="Helvetica,sans-Serif" font-size="10.00">+</text>
<text text-anchor="start" x="168" y="-59.5" font-family="Helvetica,sans-Serif" font-size="10.00">ConnectionHandler()</text>
<text text-anchor="start" x="147.5" y="-44.5" font-family="Helvetica,sans-Serif" font-size="10.00">+</text>
<text text-anchor="start" x="168" y="-44.5" font-family="Helvetica,sans-Serif" font-size="10.00">operator=()</text>
<text text-anchor="start" x="147.5" y="-29.5" font-family="Helvetica,sans-Serif" font-size="10.00">+</text>
<text text-anchor="start" x="168" y="-29.5" font-family="Helvetica,sans-Serif" font-size="10.00">~ConnectionHandler()</text>
<text text-anchor="start" x="147.5" y="-14.5" font-family="Helvetica,sans-Serif" font-size="10.00">+</text>
<text text-anchor="start" x="168" y="-14.5" font-family="Helvetica,sans-Serif" font-size="10.00">handle_event()</text>
<polygon fill="#666666" stroke="#666666" points="136,-114.5 136,-114.5 296,-114.5 296,-114.5 136,-114.5"/>
<polygon fill="#666666" stroke="#666666" points="136,-99.5 136,-99.5 296,-99.5 296,-99.5 136,-99.5"/>
<polygon fill="none" stroke="#666666" points="136,-7.5 136,-131.5 296,-131.5 296,-7.5 136,-7.5"/>
</a>
</g>
</g>
<!-- Node1&#45;&gt;Node3 -->
<g id="edge2_Node000001_Node000003" class="edge">
<title>Node1&#45;&gt;Node3</title>
<g id="a_edge2_Node000001_Node000003"><a xlink:title=" ">
<path fill="none" stroke="#63b8ff" d="M160.25,-166.12C166.56,-155.29 173.55,-143.32 180.37,-131.61"/>
<polygon fill="none" stroke="#63b8ff" points="157.14,-164.51 155.12,-174.91 163.18,-168.04 157.14,-164.51"/>
</a>
</g>
</g>
</g>
</svg>
