<?xml version="1.0" encoding="UTF-8" standalone="no"?>
<!DOCTYPE svg PUBLIC "-//W3C//DTD SVG 1.1//EN"
 "http://www.w3.org/Graphics/SVG/1.1/DTD/svg11.dtd">
<!-- Generated by graphviz version 2.43.0 (0)
 -->
<!-- Title: webshell::AHedaerAnalyzer Pages: 1 -->
<svg width="689pt" height="190pt"
 viewBox="0.00 0.00 689.00 190.00" xmlns="http://www.w3.org/2000/svg" xmlns:xlink="http://www.w3.org/1999/xlink">
<g id="graph0" class="graph" transform="scale(1 1) rotate(0) translate(4 186)">
<title>webshell::AHedaerAnalyzer</title>
<!-- Node1 -->
<g id="Node000001" class="node">
<title>Node1</title>
<g id="a_Node000001"><a xlink:title="Abstract class for analyzing HTTP headers and extracting information.">
<polygon fill="#999999" stroke="transparent" points="389.5,-64 244.5,-64 244.5,0 389.5,0 389.5,-64"/>
<text text-anchor="start" x="250" y="-52" font-family="Helvetica,sans-Serif" font-size="10.00">webshell::AHedaerAnalyzer</text>
<text text-anchor="start" x="315.5" y="-37" font-family="Helvetica,sans-Serif" font-size="10.00"> </text>
<text text-anchor="start" x="254.5" y="-22" font-family="Helvetica,sans-Serif" font-size="10.00">+</text>
<text text-anchor="start" x="273" y="-22" font-family="Helvetica,sans-Serif" font-size="10.00">~AHedaerAnalyzer()</text>
<text text-anchor="start" x="254.5" y="-7" font-family="Helvetica,sans-Serif" font-size="10.00">+</text>
<text text-anchor="start" x="273" y="-7" font-family="Helvetica,sans-Serif" font-size="10.00">analyze()</text>
<polygon fill="#666666" stroke="#666666" points="245,-47 245,-47 390,-47 390,-47 245,-47"/>
<polygon fill="#666666" stroke="#666666" points="245,-32 245,-32 390,-32 390,-32 245,-32"/>
<polygon fill="none" stroke="#666666" points="244.5,0 244.5,-64 389.5,-64 389.5,0 244.5,0"/>
</a>
</g>
</g>
<!-- Node2 -->
<g id="Node000002" class="node">
<title>Node2</title>
<g id="a_Node000002"><a xlink:title=" ">
<polygon fill="white" stroke="transparent" points="68,-182 0,-182 0,-133 68,-133 68,-182"/>
<text text-anchor="start" x="5" y="-169.5" font-family="Helvetica,sans-Serif" font-size="10.00">HttpVersion</text>
<text text-anchor="start" x="32" y="-154.5" font-family="Helvetica,sans-Serif" font-size="10.00"> </text>
<text text-anchor="start" x="32" y="-139.5" font-family="Helvetica,sans-Serif" font-size="10.00"> </text>
<polygon fill="#666666" stroke="#666666" points="0,-164.5 0,-164.5 68,-164.5 68,-164.5 0,-164.5"/>
<polygon fill="#666666" stroke="#666666" points="0,-149.5 0,-149.5 68,-149.5 68,-149.5 0,-149.5"/>
<polygon fill="none" stroke="#666666" points="0,-133 0,-182 68,-182 68,-133 0,-133"/>
</a>
</g>
</g>
<!-- Node2&#45;&gt;Node1 -->
<g id="edge1_Node000001_Node000002" class="edge">
<title>Node2&#45;&gt;Node1</title>
<g id="a_edge1_Node000001_Node000002"><a xlink:title=" ">
<path fill="none" stroke="#63b8ff" d="M42.4,-132.7C49.55,-115.95 61.48,-94.38 79,-82 103.48,-64.7 174.15,-51.5 232.17,-43.19"/>
<polygon fill="none" stroke="#63b8ff" points="232.45,-43.15 237.84,-38.36 244.34,-41.49 238.95,-46.28 232.45,-43.15"/>
</a>
</g>
<text text-anchor="middle" x="105.5" y="-96" font-family="Helvetica,sans-Serif" font-size="10.00" fill="grey"> #_version</text>
</g>
<!-- Node3 -->
<g id="Node000003" class="node">
<title>Node3</title>
<g id="a_Node000003"><a xlink:title=" ">
<polygon fill="white" stroke="transparent" points="173.5,-182 86.5,-182 86.5,-133 173.5,-133 173.5,-182"/>
<text text-anchor="start" x="92" y="-169.5" font-family="Helvetica,sans-Serif" font-size="10.00">RequestMethod</text>
<text text-anchor="start" x="128.5" y="-154.5" font-family="Helvetica,sans-Serif" font-size="10.00"> </text>
<text text-anchor="start" x="128.5" y="-139.5" font-family="Helvetica,sans-Serif" font-size="10.00"> </text>
<polygon fill="#666666" stroke="#666666" points="87,-164.5 87,-164.5 174,-164.5 174,-164.5 87,-164.5"/>
<polygon fill="#666666" stroke="#666666" points="87,-149.5 87,-149.5 174,-149.5 174,-149.5 87,-149.5"/>
<polygon fill="none" stroke="#666666" points="86.5,-133 86.5,-182 173.5,-182 173.5,-133 86.5,-133"/>
</a>
</g>
</g>
<!-- Node3&#45;&gt;Node1 -->
<g id="edge2_Node000001_Node000003" class="edge">
<title>Node3&#45;&gt;Node1</title>
<g id="a_edge2_Node000001_Node000003"><a xlink:title=" ">
<path fill="none" stroke="#63b8ff" d="M132.3,-132.67C135.1,-116.34 141.29,-95.3 155,-82 175.85,-61.77 204.76,-49.85 232.39,-42.85"/>
<polygon fill="none" stroke="#63b8ff" points="232.44,-42.84 237.39,-37.59 244.13,-40.14 239.19,-45.39 232.44,-42.84"/>
</a>
</g>
<text text-anchor="middle" x="182.5" y="-96" font-family="Helvetica,sans-Serif" font-size="10.00" fill="grey"> #_method</text>
</g>
<!-- Node4 -->
<g id="Node000004" class="node">
<title>Node4</title>
<g id="a_Node000004"><a xlink:title=" ">
<polygon fill="white" stroke="transparent" points="230,-182 192,-182 192,-133 230,-133 230,-182"/>
<text text-anchor="start" x="197" y="-169.5" font-family="Helvetica,sans-Serif" font-size="10.00">string</text>
<text text-anchor="start" x="209" y="-154.5" font-family="Helvetica,sans-Serif" font-size="10.00"> </text>
<text text-anchor="start" x="209" y="-139.5" font-family="Helvetica,sans-Serif" font-size="10.00"> </text>
<polygon fill="#666666" stroke="#666666" points="192,-164.5 192,-164.5 230,-164.5 230,-164.5 192,-164.5"/>
<polygon fill="#666666" stroke="#666666" points="192,-149.5 192,-149.5 230,-149.5 230,-149.5 192,-149.5"/>
<polygon fill="none" stroke="#666666" points="192,-133 192,-182 230,-182 230,-133 192,-133"/>
</a>
</g>
</g>
<!-- Node4&#45;&gt;Node1 -->
<g id="edge3_Node000001_Node000004" class="edge">
<title>Node4&#45;&gt;Node1</title>
<g id="a_edge3_Node000001_Node000004"><a xlink:title=" ">
<path fill="none" stroke="#63b8ff" d="M211.48,-132.92C212.9,-117.13 216.98,-96.62 228,-82 230.71,-78.41 233.76,-75.05 237.06,-71.9"/>
<polygon fill="none" stroke="#63b8ff" points="237.14,-71.83 239.14,-64.91 246.31,-64.09 244.31,-71.02 237.14,-71.83"/>
</a>
</g>
<text text-anchor="middle" x="270.5" y="-107" font-family="Helvetica,sans-Serif" font-size="10.00" fill="grey"> #_cache_control</text>
<text text-anchor="middle" x="270.5" y="-96" font-family="Helvetica,sans-Serif" font-size="10.00" fill="grey">#_cookie</text>
<text text-anchor="middle" x="270.5" y="-85" font-family="Helvetica,sans-Serif" font-size="10.00" fill="grey">#_host</text>
</g>
<!-- Node5 -->
<g id="Node000005" class="node">
<title>Node5</title>
<g id="a_Node000005"><a xlink:title=" ">
<polygon fill="white" stroke="transparent" points="336.5,-182 297.5,-182 297.5,-133 336.5,-133 336.5,-182"/>
<text text-anchor="start" x="303" y="-169.5" font-family="Helvetica,sans-Serif" font-size="10.00">size_t</text>
<text text-anchor="start" x="315.5" y="-154.5" font-family="Helvetica,sans-Serif" font-size="10.00"> </text>
<text text-anchor="start" x="315.5" y="-139.5" font-family="Helvetica,sans-Serif" font-size="10.00"> </text>
<polygon fill="#666666" stroke="#666666" points="298,-164.5 298,-164.5 337,-164.5 337,-164.5 298,-164.5"/>
<polygon fill="#666666" stroke="#666666" points="298,-149.5 298,-149.5 337,-149.5 337,-149.5 298,-149.5"/>
<polygon fill="none" stroke="#666666" points="297.5,-133 297.5,-182 336.5,-182 336.5,-133 297.5,-133"/>
</a>
</g>
</g>
<!-- Node5&#45;&gt;Node1 -->
<g id="edge4_Node000001_Node000005" class="edge">
<title>Node5&#45;&gt;Node1</title>
<g id="a_edge4_Node000001_Node000005"><a xlink:title=" ">
<path fill="none" stroke="#63b8ff" d="M317,-132.98C317,-117.02 317,-95.44 317,-76.42"/>
<polygon fill="none" stroke="#63b8ff" points="317,-76.37 313,-70.37 317,-64.37 321,-70.37 317,-76.37"/>
</a>
</g>
<text text-anchor="middle" x="362" y="-96" font-family="Helvetica,sans-Serif" font-size="10.00" fill="grey"> #_content_length</text>
</g>
<!-- Node6 -->
<g id="Node000006" class="node">
<title>Node6</title>
<g id="a_Node000006"><a xlink:title=" ">
<polygon fill="white" stroke="transparent" points="465.5,-182 394.5,-182 394.5,-133 465.5,-133 465.5,-182"/>
<text text-anchor="start" x="400" y="-169.5" font-family="Helvetica,sans-Serif" font-size="10.00">ContentType</text>
<text text-anchor="start" x="428.5" y="-154.5" font-family="Helvetica,sans-Serif" font-size="10.00"> </text>
<text text-anchor="start" x="428.5" y="-139.5" font-family="Helvetica,sans-Serif" font-size="10.00"> </text>
<polygon fill="#666666" stroke="#666666" points="395,-164.5 395,-164.5 466,-164.5 466,-164.5 395,-164.5"/>
<polygon fill="#666666" stroke="#666666" points="395,-149.5 395,-149.5 466,-149.5 466,-149.5 395,-149.5"/>
<polygon fill="none" stroke="#666666" points="394.5,-133 394.5,-182 465.5,-182 465.5,-133 394.5,-133"/>
</a>
</g>
</g>
<!-- Node6&#45;&gt;Node1 -->
<g id="edge5_Node000001_Node000006" class="edge">
<title>Node6&#45;&gt;Node1</title>
<g id="a_edge5_Node000001_Node000006"><a xlink:title=" ">
<path fill="none" stroke="#63b8ff" d="M427.76,-132.82C425.21,-116.97 419.73,-96.45 408,-82 405.12,-78.45 401.9,-75.12 398.46,-72"/>
<polygon fill="none" stroke="#63b8ff" points="398.18,-71.78 391,-71.12 388.85,-64.24 396.03,-64.9 398.18,-71.78"/>
</a>
</g>
<text text-anchor="middle" x="463.5" y="-96" font-family="Helvetica,sans-Serif" font-size="10.00" fill="grey"> #_content_type</text>
</g>
<!-- Node7 -->
<g id="Node000007" class="node">
<title>Node7</title>
<g id="a_Node000007"><a xlink:title=" ">
<polygon fill="white" stroke="transparent" points="578,-182 490,-182 490,-133 578,-133 578,-182"/>
<text text-anchor="start" x="495" y="-169.5" font-family="Helvetica,sans-Serif" font-size="10.00">ConnectionType</text>
<text text-anchor="start" x="532" y="-154.5" font-family="Helvetica,sans-Serif" font-size="10.00"> </text>
<text text-anchor="start" x="532" y="-139.5" font-family="Helvetica,sans-Serif" font-size="10.00"> </text>
<polygon fill="#666666" stroke="#666666" points="490,-164.5 490,-164.5 578,-164.5 578,-164.5 490,-164.5"/>
<polygon fill="#666666" stroke="#666666" points="490,-149.5 490,-149.5 578,-149.5 578,-149.5 490,-149.5"/>
<polygon fill="none" stroke="#666666" points="490,-133 490,-182 578,-182 578,-133 490,-133"/>
</a>
</g>
</g>
<!-- Node7&#45;&gt;Node1 -->
<g id="edge6_Node000001_Node000007" class="edge">
<title>Node7&#45;&gt;Node1</title>
<g id="a_edge6_Node000001_Node000007"><a xlink:title=" ">
<path fill="none" stroke="#63b8ff" d="M531.58,-132.82C528.67,-116.34 522.22,-95.07 508,-82 479.35,-55.68 438.49,-43.07 401.91,-37.19"/>
<polygon fill="none" stroke="#63b8ff" points="401.58,-37.14 395.07,-40.25 389.7,-35.44 396.2,-32.33 401.58,-37.14"/>
</a>
</g>
<text text-anchor="middle" x="562" y="-96" font-family="Helvetica,sans-Serif" font-size="10.00" fill="grey"> #_connection</text>
</g>
<!-- Node8 -->
<g id="Node000008" class="node">
<title>Node8</title>
<g id="a_Node000008"><a xlink:title=" ">
<polygon fill="white" stroke="transparent" points="654.5,-182 599.5,-182 599.5,-133 654.5,-133 654.5,-182"/>
<text text-anchor="start" x="605" y="-169.5" font-family="Helvetica,sans-Serif" font-size="10.00">Encoding</text>
<text text-anchor="start" x="625.5" y="-154.5" font-family="Helvetica,sans-Serif" font-size="10.00"> </text>
<text text-anchor="start" x="625.5" y="-139.5" font-family="Helvetica,sans-Serif" font-size="10.00"> </text>
<polygon fill="#666666" stroke="#666666" points="600,-164.5 600,-164.5 655,-164.5 655,-164.5 600,-164.5"/>
<polygon fill="#666666" stroke="#666666" points="600,-149.5 600,-149.5 655,-149.5 655,-149.5 600,-149.5"/>
<polygon fill="none" stroke="#666666" points="599.5,-133 599.5,-182 654.5,-182 654.5,-133 599.5,-133"/>
</a>
</g>
</g>
<!-- Node8&#45;&gt;Node1 -->
<g id="edge7_Node000001_Node000008" class="edge">
<title>Node8&#45;&gt;Node1</title>
<g id="a_edge7_Node000001_Node000008"><a xlink:title=" ">
<path fill="none" stroke="#63b8ff" d="M624.95,-132.82C622.22,-116.12 615.84,-94.58 601,-82 571.55,-57.04 474.4,-44.37 401.88,-38.24"/>
<polygon fill="none" stroke="#63b8ff" points="401.52,-38.21 395.21,-41.71 389.55,-37.24 395.86,-33.74 401.52,-38.21"/>
</a>
</g>
<text text-anchor="middle" x="650.5" y="-96" font-family="Helvetica,sans-Serif" font-size="10.00" fill="grey"> #_encoding</text>
</g>
</g>
</svg>
