<?xml version="1.0" encoding="UTF-8" standalone="no"?>
<!DOCTYPE svg PUBLIC "-//W3C//DTD SVG 1.1//EN"
 "http://www.w3.org/Graphics/SVG/1.1/DTD/svg11.dtd">
<!-- Generated by graphviz version 2.43.0 (0)
 -->
<!-- Title: webshell::ARequestParser Pages: 1 -->
<svg width="175pt" height="235pt"
 viewBox="0.00 0.00 174.50 235.00" xmlns="http://www.w3.org/2000/svg" xmlns:xlink="http://www.w3.org/1999/xlink">
<g id="graph0" class="graph" transform="scale(1 1) rotate(0) translate(4 231)">
<title>webshell::ARequestParser</title>
<!-- Node1 -->
<g id="Node000001" class="node">
<title>Node1</title>
<g id="a_Node000001"><a xlink:title="Abstract class for parsing HTTP requests.">
<polygon fill="#999999" stroke="transparent" points="137,-109 0,-109 0,0 137,0 137,-109"/>
<text text-anchor="start" x="5.5" y="-96.5" font-family="Helvetica,sans-Serif" font-size="10.00">webshell::ARequestParser</text>
<text text-anchor="start" x="67" y="-81.5" font-family="Helvetica,sans-Serif" font-size="10.00"> </text>
<text text-anchor="start" x="10" y="-66.5" font-family="Helvetica,sans-Serif" font-size="10.00">+</text>
<text text-anchor="start" x="28.5" y="-66.5" font-family="Helvetica,sans-Serif" font-size="10.00">~ARequestParser()</text>
<text text-anchor="start" x="10" y="-51.5" font-family="Helvetica,sans-Serif" font-size="10.00">+</text>
<text text-anchor="start" x="28.5" y="-51.5" font-family="Helvetica,sans-Serif" font-size="10.00">parse()</text>
<text text-anchor="start" x="10" y="-36.5" font-family="Helvetica,sans-Serif" font-size="10.00">+</text>
<text text-anchor="start" x="28.5" y="-36.5" font-family="Helvetica,sans-Serif" font-size="10.00">request_line()</text>
<text text-anchor="start" x="10" y="-21.5" font-family="Helvetica,sans-Serif" font-size="10.00">+</text>
<text text-anchor="start" x="28.5" y="-21.5" font-family="Helvetica,sans-Serif" font-size="10.00">header()</text>
<text text-anchor="start" x="10" y="-6.5" font-family="Helvetica,sans-Serif" font-size="10.00">+</text>
<text text-anchor="start" x="28.5" y="-6.5" font-family="Helvetica,sans-Serif" font-size="10.00">body()</text>
<polygon fill="#666666" stroke="#666666" points="0.5,-91.5 0.5,-91.5 137.5,-91.5 137.5,-91.5 0.5,-91.5"/>
<polygon fill="#666666" stroke="#666666" points="0.5,-76.5 0.5,-76.5 137.5,-76.5 137.5,-76.5 0.5,-76.5"/>
<polygon fill="none" stroke="#666666" points="0,0 0,-109 137,-109 137,0 0,0"/>
</a>
</g>
</g>
<!-- Node2 -->
<g id="Node000002" class="node">
<title>Node2</title>
<g id="a_Node000002"><a xlink:title=" ">
<polygon fill="white" stroke="transparent" points="66.5,-227 0.5,-227 0.5,-178 66.5,-178 66.5,-227"/>
<text text-anchor="start" x="5.5" y="-214.5" font-family="Helvetica,sans-Serif" font-size="10.00">ParserState</text>
<text text-anchor="start" x="31.5" y="-199.5" font-family="Helvetica,sans-Serif" font-size="10.00"> </text>
<text text-anchor="start" x="31.5" y="-184.5" font-family="Helvetica,sans-Serif" font-size="10.00"> </text>
<polygon fill="#666666" stroke="#666666" points="0.5,-209.5 0.5,-209.5 66.5,-209.5 66.5,-209.5 0.5,-209.5"/>
<polygon fill="#666666" stroke="#666666" points="0.5,-194.5 0.5,-194.5 66.5,-194.5 66.5,-194.5 0.5,-194.5"/>
<polygon fill="none" stroke="#666666" points="0.5,-178 0.5,-227 66.5,-227 66.5,-178 0.5,-178"/>
</a>
</g>
</g>
<!-- Node2&#45;&gt;Node1 -->
<g id="edge1_Node000001_Node000002" class="edge">
<title>Node2&#45;&gt;Node1</title>
<g id="a_edge1_Node000001_Node000002"><a xlink:title=" ">
<path fill="none" stroke="#63b8ff" d="M33.58,-177.73C34.08,-162.95 35.55,-143.67 39.5,-127 39.98,-124.98 40.5,-122.95 41.07,-120.91"/>
<polygon fill="none" stroke="#63b8ff" points="41.15,-120.66 39.11,-113.74 44.71,-109.2 46.75,-116.11 41.15,-120.66"/>
</a>
</g>
<text text-anchor="middle" x="60.5" y="-141" font-family="Helvetica,sans-Serif" font-size="10.00" fill="grey"> #_state</text>
</g>
<!-- Node3 -->
<g id="Node000003" class="node">
<title>Node3</title>
<g id="a_Node000003"><a xlink:title=" ">
<polygon fill="white" stroke="transparent" points="122.5,-227 84.5,-227 84.5,-178 122.5,-178 122.5,-227"/>
<text text-anchor="start" x="89.5" y="-214.5" font-family="Helvetica,sans-Serif" font-size="10.00">string</text>
<text text-anchor="start" x="101.5" y="-199.5" font-family="Helvetica,sans-Serif" font-size="10.00"> </text>
<text text-anchor="start" x="101.5" y="-184.5" font-family="Helvetica,sans-Serif" font-size="10.00"> </text>
<polygon fill="#666666" stroke="#666666" points="84.5,-209.5 84.5,-209.5 122.5,-209.5 122.5,-209.5 84.5,-209.5"/>
<polygon fill="#666666" stroke="#666666" points="84.5,-194.5 84.5,-194.5 122.5,-194.5 122.5,-194.5 84.5,-194.5"/>
<polygon fill="none" stroke="#666666" points="84.5,-178 84.5,-227 122.5,-227 122.5,-178 84.5,-178"/>
</a>
</g>
</g>
<!-- Node3&#45;&gt;Node1 -->
<g id="edge2_Node000001_Node000003" class="edge">
<title>Node3&#45;&gt;Node1</title>
<g id="a_edge2_Node000001_Node000003"><a xlink:title=" ">
<path fill="none" stroke="#63b8ff" d="M97.8,-177.72C94.09,-162.25 89.06,-141.26 84.21,-121.05"/>
<polygon fill="none" stroke="#63b8ff" points="84.19,-120.95 78.9,-116.05 81.39,-109.28 86.68,-114.18 84.19,-120.95"/>
</a>
</g>
<text text-anchor="middle" x="129.5" y="-152" font-family="Helvetica,sans-Serif" font-size="10.00" fill="grey"> #_body</text>
<text text-anchor="middle" x="129.5" y="-141" font-family="Helvetica,sans-Serif" font-size="10.00" fill="grey">#_header</text>
<text text-anchor="middle" x="129.5" y="-130" font-family="Helvetica,sans-Serif" font-size="10.00" fill="grey">#_request_line</text>
</g>
</g>
</svg>
