<?xml version="1.0" encoding="UTF-8" standalone="no"?>
<!DOCTYPE svg PUBLIC "-//W3C//DTD SVG 1.1//EN"
 "http://www.w3.org/Graphics/SVG/1.1/DTD/svg11.dtd">
<!-- Generated by graphviz version 2.43.0 (0)
 -->
<!-- Title: webconfig::ConfigLocationBlock Pages: 1 -->
<svg width="250pt" height="505pt"
 viewBox="0.00 0.00 249.50 505.00" xmlns="http://www.w3.org/2000/svg" xmlns:xlink="http://www.w3.org/1999/xlink">
<g id="graph0" class="graph" transform="scale(1 1) rotate(0) translate(4 501)">
<title>webconfig::ConfigLocationBlock</title>
<!-- Node1 -->
<g id="Node000001" class="node">
<title>Node1</title>
<g id="a_Node000001"><a xlink:title="The ConfigLocationBlock class is a concrete class for parsing the location block of the configuration...">
<polygon fill="#999999" stroke="transparent" points="173.5,-135 35.5,-135 35.5,0 173.5,0 173.5,-135"/>
<text text-anchor="start" x="40.5" y="-122.5" font-family="Helvetica,sans-Serif" font-size="10.00">webconfig::ConfigLocation</text>
<text text-anchor="start" x="90.5" y="-111.5" font-family="Helvetica,sans-Serif" font-size="10.00">Block</text>
<text text-anchor="start" x="102.5" y="-96.5" font-family="Helvetica,sans-Serif" font-size="10.00"> </text>
<text text-anchor="start" x="40" y="-81.5" font-family="Helvetica,sans-Serif" font-size="10.00">+</text>
<text text-anchor="start" x="53.5" y="-81.5" font-family="Helvetica,sans-Serif" font-size="10.00">ConfigLocationBlock()</text>
<text text-anchor="start" x="40" y="-66.5" font-family="Helvetica,sans-Serif" font-size="10.00">+</text>
<text text-anchor="start" x="53.5" y="-66.5" font-family="Helvetica,sans-Serif" font-size="10.00">ConfigLocationBlock()</text>
<text text-anchor="start" x="40" y="-51.5" font-family="Helvetica,sans-Serif" font-size="10.00">+</text>
<text text-anchor="start" x="53.5" y="-51.5" font-family="Helvetica,sans-Serif" font-size="10.00">operator=()</text>
<text text-anchor="start" x="40" y="-36.5" font-family="Helvetica,sans-Serif" font-size="10.00">+</text>
<text text-anchor="start" x="53.5" y="-36.5" font-family="Helvetica,sans-Serif" font-size="10.00">~ConfigLocationBlock()</text>
<text text-anchor="start" x="40" y="-21.5" font-family="Helvetica,sans-Serif" font-size="10.00">+</text>
<text text-anchor="start" x="53.5" y="-21.5" font-family="Helvetica,sans-Serif" font-size="10.00">parse()</text>
<text text-anchor="start" x="40" y="-6.5" font-family="Helvetica,sans-Serif" font-size="10.00">+</text>
<text text-anchor="start" x="53.5" y="-6.5" font-family="Helvetica,sans-Serif" font-size="10.00">print_config()</text>
<polygon fill="#666666" stroke="#666666" points="35.5,-106.5 35.5,-106.5 173.5,-106.5 173.5,-106.5 35.5,-106.5"/>
<polygon fill="#666666" stroke="#666666" points="35.5,-91.5 35.5,-91.5 173.5,-91.5 173.5,-91.5 35.5,-91.5"/>
<polygon fill="none" stroke="#666666" points="35.5,0 35.5,-135 173.5,-135 173.5,0 35.5,0"/>
</a>
</g>
</g>
<!-- Node2 -->
<g id="Node000002" class="node">
<title>Node2</title>
<g id="a_Node000002"><a xlink:href="classwebconfig_1_1AConfigParser.html" target="_top" xlink:title="The AConfigParser class is an abstract base class for parsing configuration files.">
<polygon fill="white" stroke="transparent" points="176.5,-401 32.5,-401 32.5,-172 176.5,-172 176.5,-401"/>
<text text-anchor="start" x="42.5" y="-388.5" font-family="Helvetica,sans-Serif" font-size="10.00">webconfig::AConfigParser</text>
<text text-anchor="start" x="102.5" y="-373.5" font-family="Helvetica,sans-Serif" font-size="10.00"> </text>
<text text-anchor="start" x="36.5" y="-358.5" font-family="Helvetica,sans-Serif" font-size="10.00">+</text>
<text text-anchor="start" x="49.5" y="-358.5" font-family="Helvetica,sans-Serif" font-size="10.00">AConfigParser()</text>
<text text-anchor="start" x="36.5" y="-343.5" font-family="Helvetica,sans-Serif" font-size="10.00">+</text>
<text text-anchor="start" x="49.5" y="-343.5" font-family="Helvetica,sans-Serif" font-size="10.00">AConfigParser()</text>
<text text-anchor="start" x="36.5" y="-328.5" font-family="Helvetica,sans-Serif" font-size="10.00">+</text>
<text text-anchor="start" x="49.5" y="-328.5" font-family="Helvetica,sans-Serif" font-size="10.00">AConfigParser()</text>
<text text-anchor="start" x="36.5" y="-313.5" font-family="Helvetica,sans-Serif" font-size="10.00">+</text>
<text text-anchor="start" x="49.5" y="-313.5" font-family="Helvetica,sans-Serif" font-size="10.00">operator=()</text>
<text text-anchor="start" x="36.5" y="-298.5" font-family="Helvetica,sans-Serif" font-size="10.00">+</text>
<text text-anchor="start" x="49.5" y="-298.5" font-family="Helvetica,sans-Serif" font-size="10.00">~AConfigParser()</text>
<text text-anchor="start" x="36.5" y="-283.5" font-family="Helvetica,sans-Serif" font-size="10.00">+</text>
<text text-anchor="start" x="49.5" y="-283.5" font-family="Helvetica,sans-Serif" font-size="10.00">parse()</text>
<text text-anchor="start" x="36.5" y="-268.5" font-family="Helvetica,sans-Serif" font-size="10.00">+</text>
<text text-anchor="start" x="49.5" y="-268.5" font-family="Helvetica,sans-Serif" font-size="10.00">print_config()</text>
<text text-anchor="start" x="36.5" y="-253.5" font-family="Helvetica,sans-Serif" font-size="10.00">#</text>
<text text-anchor="start" x="49.5" y="-253.5" font-family="Helvetica,sans-Serif" font-size="10.00">_need_to_skip()</text>
<text text-anchor="start" x="36.5" y="-238.5" font-family="Helvetica,sans-Serif" font-size="10.00">#</text>
<text text-anchor="start" x="49.5" y="-238.5" font-family="Helvetica,sans-Serif" font-size="10.00">_is_valid_sentence()</text>
<text text-anchor="start" x="36.5" y="-223.5" font-family="Helvetica,sans-Serif" font-size="10.00">#</text>
<text text-anchor="start" x="49.5" y="-223.5" font-family="Helvetica,sans-Serif" font-size="10.00">_is_scope_symbol()</text>
<text text-anchor="start" x="36.5" y="-208.5" font-family="Helvetica,sans-Serif" font-size="10.00">#</text>
<text text-anchor="start" x="49.5" y="-208.5" font-family="Helvetica,sans-Serif" font-size="10.00">_get_directive_name()</text>
<text text-anchor="start" x="36.5" y="-193.5" font-family="Helvetica,sans-Serif" font-size="10.00">#</text>
<text text-anchor="start" x="49.5" y="-193.5" font-family="Helvetica,sans-Serif" font-size="10.00">_is_valid_directive()</text>
<text text-anchor="start" x="36.5" y="-178.5" font-family="Helvetica,sans-Serif" font-size="10.00">#</text>
<text text-anchor="start" x="49.5" y="-178.5" font-family="Helvetica,sans-Serif" font-size="10.00">_parse_config_directive()</text>
<polygon fill="#666666" stroke="#666666" points="32.5,-383.5 32.5,-383.5 176.5,-383.5 176.5,-383.5 32.5,-383.5"/>
<polygon fill="#666666" stroke="#666666" points="32.5,-368.5 32.5,-368.5 176.5,-368.5 176.5,-368.5 32.5,-368.5"/>
<polygon fill="none" stroke="#666666" points="32.5,-172 32.5,-401 176.5,-401 176.5,-172 32.5,-172"/>
</a>
</g>
</g>
<!-- Node2&#45;&gt;Node1 -->
<g id="edge1_Node000001_Node000002" class="edge">
<title>Node2&#45;&gt;Node1</title>
<g id="a_edge1_Node000001_Node000002"><a xlink:title=" ">
<path fill="none" stroke="#63b8ff" d="M104.5,-161.9C104.5,-152.71 104.5,-143.66 104.5,-135.04"/>
<polygon fill="none" stroke="#63b8ff" points="101,-161.92 104.5,-171.92 108,-161.92 101,-161.92"/>
</a>
</g>
</g>
<!-- Node3 -->
<g id="Node000003" class="node">
<title>Node3</title>
<g id="a_Node000003"><a xlink:title=" ">
<polygon fill="white" stroke="transparent" points="95,-497 0,-497 0,-448 95,-448 95,-497"/>
<text text-anchor="start" x="5.5" y="-484.5" font-family="Helvetica,sans-Serif" font-size="10.00">ConfigBlockLevel</text>
<text text-anchor="start" x="46" y="-469.5" font-family="Helvetica,sans-Serif" font-size="10.00"> </text>
<text text-anchor="start" x="46" y="-454.5" font-family="Helvetica,sans-Serif" font-size="10.00"> </text>
<polygon fill="#666666" stroke="#666666" points="0.5,-479.5 0.5,-479.5 95.5,-479.5 95.5,-479.5 0.5,-479.5"/>
<polygon fill="#666666" stroke="#666666" points="0.5,-464.5 0.5,-464.5 95.5,-464.5 95.5,-464.5 0.5,-464.5"/>
<polygon fill="none" stroke="#666666" points="0,-448 0,-497 95,-497 95,-448 0,-448"/>
</a>
</g>
</g>
<!-- Node3&#45;&gt;Node2 -->
<g id="edge2_Node000002_Node000003" class="edge">
<title>Node3&#45;&gt;Node2</title>
<g id="a_edge2_Node000002_Node000003"><a xlink:title=" ">
<path fill="none" stroke="#63b8ff" d="M54.84,-447.82C57.84,-438.14 61.55,-426.14 65.59,-413.1"/>
<polygon fill="none" stroke="#63b8ff" points="65.67,-412.86 63.62,-405.95 69.22,-401.4 71.26,-408.31 65.67,-412.86"/>
</a>
</g>
<text text-anchor="middle" x="100" y="-422" font-family="Helvetica,sans-Serif" font-size="10.00" fill="grey"> #_block_level</text>
</g>
<!-- Node4 -->
<g id="Node000004" class="node">
<title>Node4</title>
<g id="a_Node000004"><a xlink:title=" ">
<polygon fill="white" stroke="transparent" points="210,-497 113,-497 113,-448 210,-448 210,-497"/>
<text text-anchor="start" x="118.5" y="-484.5" font-family="Helvetica,sans-Serif" font-size="10.00">set&lt; std::string &gt;</text>
<text text-anchor="start" x="160" y="-469.5" font-family="Helvetica,sans-Serif" font-size="10.00"> </text>
<text text-anchor="start" x="160" y="-454.5" font-family="Helvetica,sans-Serif" font-size="10.00"> </text>
<polygon fill="#666666" stroke="#666666" points="113.5,-479.5 113.5,-479.5 210.5,-479.5 210.5,-479.5 113.5,-479.5"/>
<polygon fill="#666666" stroke="#666666" points="113.5,-464.5 113.5,-464.5 210.5,-464.5 210.5,-464.5 113.5,-464.5"/>
<polygon fill="none" stroke="#666666" points="113,-448 113,-497 210,-497 210,-448 113,-448"/>
</a>
</g>
</g>
<!-- Node4&#45;&gt;Node2 -->
<g id="edge3_Node000002_Node000004" class="edge">
<title>Node4&#45;&gt;Node2</title>
<g id="a_edge3_Node000002_Node000004"><a xlink:title=" ">
<path fill="none" stroke="#63b8ff" d="M154.16,-447.82C151.16,-438.14 147.45,-426.14 143.41,-413.1"/>
<polygon fill="none" stroke="#63b8ff" points="143.33,-412.86 137.74,-408.31 139.78,-401.4 145.38,-405.95 143.33,-412.86"/>
</a>
</g>
<text text-anchor="middle" x="194.5" y="-422" font-family="Helvetica,sans-Serif" font-size="10.00" fill="grey"> #_valid_directives</text>
</g>
</g>
</svg>
