<?xml version="1.0" encoding="UTF-8" standalone="no"?>
<!DOCTYPE svg PUBLIC "-//W3C//DTD SVG 1.1//EN"
 "http://www.w3.org/Graphics/SVG/1.1/DTD/svg11.dtd">
<!-- Generated by graphviz version 2.43.0 (0)
 -->
<!-- Title: webconfig::ConfigHttpBlock Pages: 1 -->
<svg width="250pt" height="494pt"
 viewBox="0.00 0.00 249.50 494.00" xmlns="http://www.w3.org/2000/svg" xmlns:xlink="http://www.w3.org/1999/xlink">
<g id="graph0" class="graph" transform="scale(1 1) rotate(0) translate(4 490)">
<title>webconfig::ConfigHttpBlock</title>
<!-- Node1 -->
<g id="Node000001" class="node">
<title>Node1</title>
<g id="a_Node000001"><a xlink:title="The ConfigHttpBlock class is a concrete class for parsing the http block of the configuration file.">
<polygon fill="#999999" stroke="transparent" points="177,-124 32,-124 32,0 177,0 177,-124"/>
<text text-anchor="start" x="37.5" y="-112" font-family="Helvetica,sans-Serif" font-size="10.00">webconfig::ConfigHttpBlock</text>
<text text-anchor="start" x="103" y="-97" font-family="Helvetica,sans-Serif" font-size="10.00"> </text>
<text text-anchor="start" x="43.5" y="-82" font-family="Helvetica,sans-Serif" font-size="10.00">+</text>
<text text-anchor="start" x="63.5" y="-82" font-family="Helvetica,sans-Serif" font-size="10.00">ConfigHttpBlock()</text>
<text text-anchor="start" x="43.5" y="-67" font-family="Helvetica,sans-Serif" font-size="10.00">+</text>
<text text-anchor="start" x="63.5" y="-67" font-family="Helvetica,sans-Serif" font-size="10.00">ConfigHttpBlock()</text>
<text text-anchor="start" x="43.5" y="-52" font-family="Helvetica,sans-Serif" font-size="10.00">+</text>
<text text-anchor="start" x="63.5" y="-52" font-family="Helvetica,sans-Serif" font-size="10.00">operator=()</text>
<text text-anchor="start" x="43.5" y="-37" font-family="Helvetica,sans-Serif" font-size="10.00">+</text>
<text text-anchor="start" x="63.5" y="-37" font-family="Helvetica,sans-Serif" font-size="10.00">~ConfigHttpBlock()</text>
<text text-anchor="start" x="43.5" y="-22" font-family="Helvetica,sans-Serif" font-size="10.00">+</text>
<text text-anchor="start" x="63.5" y="-22" font-family="Helvetica,sans-Serif" font-size="10.00">parse()</text>
<text text-anchor="start" x="43.5" y="-7" font-family="Helvetica,sans-Serif" font-size="10.00">+</text>
<text text-anchor="start" x="63.5" y="-7" font-family="Helvetica,sans-Serif" font-size="10.00">print_config()</text>
<polygon fill="#666666" stroke="#666666" points="32.5,-107 32.5,-107 177.5,-107 177.5,-107 32.5,-107"/>
<polygon fill="#666666" stroke="#666666" points="32.5,-92 32.5,-92 177.5,-92 177.5,-92 32.5,-92"/>
<polygon fill="none" stroke="#666666" points="32,0 32,-124 177,-124 177,0 32,0"/>
</a>
</g>
</g>
<!-- Node2 -->
<g id="Node000002" class="node">
<title>Node2</title>
<g id="a_Node000002"><a xlink:href="classwebconfig_1_1AConfigParser.html" target="_top" xlink:title="The AConfigParser class is an abstract base class for parsing configuration files.">
<polygon fill="white" stroke="transparent" points="176.5,-390 32.5,-390 32.5,-161 176.5,-161 176.5,-390"/>
<text text-anchor="start" x="42.5" y="-377.5" font-family="Helvetica,sans-Serif" font-size="10.00">webconfig::AConfigParser</text>
<text text-anchor="start" x="102.5" y="-362.5" font-family="Helvetica,sans-Serif" font-size="10.00"> </text>
<text text-anchor="start" x="36.5" y="-347.5" font-family="Helvetica,sans-Serif" font-size="10.00">+</text>
<text text-anchor="start" x="49.5" y="-347.5" font-family="Helvetica,sans-Serif" font-size="10.00">AConfigParser()</text>
<text text-anchor="start" x="36.5" y="-332.5" font-family="Helvetica,sans-Serif" font-size="10.00">+</text>
<text text-anchor="start" x="49.5" y="-332.5" font-family="Helvetica,sans-Serif" font-size="10.00">AConfigParser()</text>
<text text-anchor="start" x="36.5" y="-317.5" font-family="Helvetica,sans-Serif" font-size="10.00">+</text>
<text text-anchor="start" x="49.5" y="-317.5" font-family="Helvetica,sans-Serif" font-size="10.00">AConfigParser()</text>
<text text-anchor="start" x="36.5" y="-302.5" font-family="Helvetica,sans-Serif" font-size="10.00">+</text>
<text text-anchor="start" x="49.5" y="-302.5" font-family="Helvetica,sans-Serif" font-size="10.00">operator=()</text>
<text text-anchor="start" x="36.5" y="-287.5" font-family="Helvetica,sans-Serif" font-size="10.00">+</text>
<text text-anchor="start" x="49.5" y="-287.5" font-family="Helvetica,sans-Serif" font-size="10.00">~AConfigParser()</text>
<text text-anchor="start" x="36.5" y="-272.5" font-family="Helvetica,sans-Serif" font-size="10.00">+</text>
<text text-anchor="start" x="49.5" y="-272.5" font-family="Helvetica,sans-Serif" font-size="10.00">parse()</text>
<text text-anchor="start" x="36.5" y="-257.5" font-family="Helvetica,sans-Serif" font-size="10.00">+</text>
<text text-anchor="start" x="49.5" y="-257.5" font-family="Helvetica,sans-Serif" font-size="10.00">print_config()</text>
<text text-anchor="start" x="36.5" y="-242.5" font-family="Helvetica,sans-Serif" font-size="10.00">#</text>
<text text-anchor="start" x="49.5" y="-242.5" font-family="Helvetica,sans-Serif" font-size="10.00">_need_to_skip()</text>
<text text-anchor="start" x="36.5" y="-227.5" font-family="Helvetica,sans-Serif" font-size="10.00">#</text>
<text text-anchor="start" x="49.5" y="-227.5" font-family="Helvetica,sans-Serif" font-size="10.00">_is_valid_sentence()</text>
<text text-anchor="start" x="36.5" y="-212.5" font-family="Helvetica,sans-Serif" font-size="10.00">#</text>
<text text-anchor="start" x="49.5" y="-212.5" font-family="Helvetica,sans-Serif" font-size="10.00">_is_scope_symbol()</text>
<text text-anchor="start" x="36.5" y="-197.5" font-family="Helvetica,sans-Serif" font-size="10.00">#</text>
<text text-anchor="start" x="49.5" y="-197.5" font-family="Helvetica,sans-Serif" font-size="10.00">_get_directive_name()</text>
<text text-anchor="start" x="36.5" y="-182.5" font-family="Helvetica,sans-Serif" font-size="10.00">#</text>
<text text-anchor="start" x="49.5" y="-182.5" font-family="Helvetica,sans-Serif" font-size="10.00">_is_valid_directive()</text>
<text text-anchor="start" x="36.5" y="-167.5" font-family="Helvetica,sans-Serif" font-size="10.00">#</text>
<text text-anchor="start" x="49.5" y="-167.5" font-family="Helvetica,sans-Serif" font-size="10.00">_parse_config_directive()</text>
<polygon fill="#666666" stroke="#666666" points="32.5,-372.5 32.5,-372.5 176.5,-372.5 176.5,-372.5 32.5,-372.5"/>
<polygon fill="#666666" stroke="#666666" points="32.5,-357.5 32.5,-357.5 176.5,-357.5 176.5,-357.5 32.5,-357.5"/>
<polygon fill="none" stroke="#666666" points="32.5,-161 32.5,-390 176.5,-390 176.5,-161 32.5,-161"/>
</a>
</g>
</g>
<!-- Node2&#45;&gt;Node1 -->
<g id="edge1_Node000001_Node000002" class="edge">
<title>Node2&#45;&gt;Node1</title>
<g id="a_edge1_Node000001_Node000002"><a xlink:title=" ">
<path fill="none" stroke="#63b8ff" d="M104.5,-150.7C104.5,-141.53 104.5,-132.55 104.5,-124.05"/>
<polygon fill="none" stroke="#63b8ff" points="101,-150.7 104.5,-160.7 108,-150.7 101,-150.7"/>
</a>
</g>
</g>
<!-- Node3 -->
<g id="Node000003" class="node">
<title>Node3</title>
<g id="a_Node000003"><a xlink:title=" ">
<polygon fill="white" stroke="transparent" points="95,-486 0,-486 0,-437 95,-437 95,-486"/>
<text text-anchor="start" x="5.5" y="-473.5" font-family="Helvetica,sans-Serif" font-size="10.00">ConfigBlockLevel</text>
<text text-anchor="start" x="46" y="-458.5" font-family="Helvetica,sans-Serif" font-size="10.00"> </text>
<text text-anchor="start" x="46" y="-443.5" font-family="Helvetica,sans-Serif" font-size="10.00"> </text>
<polygon fill="#666666" stroke="#666666" points="0.5,-468.5 0.5,-468.5 95.5,-468.5 95.5,-468.5 0.5,-468.5"/>
<polygon fill="#666666" stroke="#666666" points="0.5,-453.5 0.5,-453.5 95.5,-453.5 95.5,-453.5 0.5,-453.5"/>
<polygon fill="none" stroke="#666666" points="0,-437 0,-486 95,-486 95,-437 0,-437"/>
</a>
</g>
</g>
<!-- Node3&#45;&gt;Node2 -->
<g id="edge2_Node000002_Node000003" class="edge">
<title>Node3&#45;&gt;Node2</title>
<g id="a_edge2_Node000002_Node000003"><a xlink:title=" ">
<path fill="none" stroke="#63b8ff" d="M54.84,-436.82C57.84,-427.14 61.55,-415.14 65.59,-402.1"/>
<polygon fill="none" stroke="#63b8ff" points="65.67,-401.86 63.62,-394.95 69.22,-390.4 71.26,-397.31 65.67,-401.86"/>
</a>
</g>
<text text-anchor="middle" x="100" y="-411" font-family="Helvetica,sans-Serif" font-size="10.00" fill="grey"> #_block_level</text>
</g>
<!-- Node4 -->
<g id="Node000004" class="node">
<title>Node4</title>
<g id="a_Node000004"><a xlink:title=" ">
<polygon fill="white" stroke="transparent" points="210,-486 113,-486 113,-437 210,-437 210,-486"/>
<text text-anchor="start" x="118.5" y="-473.5" font-family="Helvetica,sans-Serif" font-size="10.00">set&lt; std::string &gt;</text>
<text text-anchor="start" x="160" y="-458.5" font-family="Helvetica,sans-Serif" font-size="10.00"> </text>
<text text-anchor="start" x="160" y="-443.5" font-family="Helvetica,sans-Serif" font-size="10.00"> </text>
<polygon fill="#666666" stroke="#666666" points="113.5,-468.5 113.5,-468.5 210.5,-468.5 210.5,-468.5 113.5,-468.5"/>
<polygon fill="#666666" stroke="#666666" points="113.5,-453.5 113.5,-453.5 210.5,-453.5 210.5,-453.5 113.5,-453.5"/>
<polygon fill="none" stroke="#666666" points="113,-437 113,-486 210,-486 210,-437 113,-437"/>
</a>
</g>
</g>
<!-- Node4&#45;&gt;Node2 -->
<g id="edge3_Node000002_Node000004" class="edge">
<title>Node4&#45;&gt;Node2</title>
<g id="a_edge3_Node000002_Node000004"><a xlink:title=" ">
<path fill="none" stroke="#63b8ff" d="M154.16,-436.82C151.16,-427.14 147.45,-415.14 143.41,-402.1"/>
<polygon fill="none" stroke="#63b8ff" points="143.33,-401.86 137.74,-397.31 139.78,-390.4 145.38,-394.95 143.33,-401.86"/>
</a>
</g>
<text text-anchor="middle" x="194.5" y="-411" font-family="Helvetica,sans-Serif" font-size="10.00" fill="grey"> #_valid_directives</text>
</g>
</g>
</svg>
