<?xml version="1.0" encoding="UTF-8" standalone="no"?>
<!DOCTYPE svg PUBLIC "-//W3C//DTD SVG 1.1//EN"
 "http://www.w3.org/Graphics/SVG/1.1/DTD/svg11.dtd">
<!-- Generated by graphviz version 2.43.0 (0)
 -->
<!-- Title: webkernel::ConnectionHandler Pages: 1 -->
<svg width="168pt" height="232pt"
 viewBox="0.00 0.00 168.00 232.00" xmlns="http://www.w3.org/2000/svg" xmlns:xlink="http://www.w3.org/1999/xlink">
<g id="graph0" class="graph" transform="scale(1 1) rotate(0) translate(4 228)">
<title>webkernel::ConnectionHandler</title>
<!-- Node1 -->
<g id="Node000001" class="node">
<title>Node1</title>
<g id="a_Node000001"><a xlink:title="The ConnectionHandler class is a concrete class for handling connections.">
<polygon fill="#999999" stroke="transparent" points="160,-124 0,-124 0,0 160,0 160,-124"/>
<text text-anchor="start" x="5" y="-112" font-family="Helvetica,sans-Serif" font-size="10.00">webkernel::ConnectionHandler</text>
<text text-anchor="start" x="78" y="-97" font-family="Helvetica,sans-Serif" font-size="10.00"> </text>
<text text-anchor="start" x="11.5" y="-82" font-family="Helvetica,sans-Serif" font-size="10.00">+</text>
<text text-anchor="start" x="32" y="-82" font-family="Helvetica,sans-Serif" font-size="10.00">ConnectionHandler()</text>
<text text-anchor="start" x="11.5" y="-67" font-family="Helvetica,sans-Serif" font-size="10.00">+</text>
<text text-anchor="start" x="32" y="-67" font-family="Helvetica,sans-Serif" font-size="10.00">ConnectionHandler()</text>
<text text-anchor="start" x="11.5" y="-52" font-family="Helvetica,sans-Serif" font-size="10.00">+</text>
<text text-anchor="start" x="32" y="-52" font-family="Helvetica,sans-Serif" font-size="10.00">ConnectionHandler()</text>
<text text-anchor="start" x="11.5" y="-37" font-family="Helvetica,sans-Serif" font-size="10.00">+</text>
<text text-anchor="start" x="32" y="-37" font-family="Helvetica,sans-Serif" font-size="10.00">operator=()</text>
<text text-anchor="start" x="11.5" y="-22" font-family="Helvetica,sans-Serif" font-size="10.00">+</text>
<text text-anchor="start" x="32" y="-22" font-family="Helvetica,sans-Serif" font-size="10.00">~ConnectionHandler()</text>
<text text-anchor="start" x="11.5" y="-7" font-family="Helvetica,sans-Serif" font-size="10.00">+</text>
<text text-anchor="start" x="32" y="-7" font-family="Helvetica,sans-Serif" font-size="10.00">handle_event()</text>
<polygon fill="#666666" stroke="#666666" points="0,-107 0,-107 160,-107 160,-107 0,-107"/>
<polygon fill="#666666" stroke="#666666" points="0,-92 0,-92 160,-92 160,-92 0,-92"/>
<polygon fill="none" stroke="#666666" points="0,0 0,-124 160,-124 160,0 0,0"/>
</a>
</g>
</g>
<!-- Node2 -->
<g id="Node000002" class="node">
<title>Node2</title>
<g id="a_Node000002"><a xlink:href="classwebkernel_1_1IHandler.html" target="_top" xlink:title="The IHandler class is an interface class for handling events.">
<polygon fill="white" stroke="transparent" points="134,-224 26,-224 26,-160 134,-160 134,-224"/>
<text text-anchor="start" x="31" y="-212" font-family="Helvetica,sans-Serif" font-size="10.00">webkernel::IHandler</text>
<text text-anchor="start" x="78" y="-197" font-family="Helvetica,sans-Serif" font-size="10.00"> </text>
<text text-anchor="start" x="33" y="-182" font-family="Helvetica,sans-Serif" font-size="10.00">+</text>
<text text-anchor="start" x="49" y="-182" font-family="Helvetica,sans-Serif" font-size="10.00">~IHandler()</text>
<text text-anchor="start" x="33" y="-167" font-family="Helvetica,sans-Serif" font-size="10.00">+</text>
<text text-anchor="start" x="49" y="-167" font-family="Helvetica,sans-Serif" font-size="10.00">handle_event()</text>
<polygon fill="#666666" stroke="#666666" points="26,-207 26,-207 134,-207 134,-207 26,-207"/>
<polygon fill="#666666" stroke="#666666" points="26,-192 26,-192 134,-192 134,-192 26,-192"/>
<polygon fill="none" stroke="#666666" points="26,-160 26,-224 134,-224 134,-160 26,-160"/>
</a>
</g>
</g>
<!-- Node2&#45;&gt;Node1 -->
<g id="edge1_Node000001_Node000002" class="edge">
<title>Node2&#45;&gt;Node1</title>
<g id="a_edge1_Node000001_Node000002"><a xlink:title=" ">
<path fill="none" stroke="#63b8ff" d="M80,-149.66C80,-141.47 80,-132.71 80,-124.02"/>
<polygon fill="none" stroke="#63b8ff" points="76.5,-149.69 80,-159.69 83.5,-149.69 76.5,-149.69"/>
</a>
</g>
</g>
</g>
</svg>
