<?xml version="1.0" encoding="UTF-8" standalone="no"?>
<!DOCTYPE svg PUBLIC "-//W3C//DTD SVG 1.1//EN"
 "http://www.w3.org/Graphics/SVG/1.1/DTD/svg11.dtd">
<!-- Generated by graphviz version 2.43.0 (0)
 -->
<!-- Title: webconfig::AConfigParser Pages: 1 -->
<svg width="656pt" height="487pt"
 viewBox="0.00 0.00 656.00 487.00" xmlns="http://www.w3.org/2000/svg" xmlns:xlink="http://www.w3.org/1999/xlink">
<g id="graph0" class="graph" transform="scale(1 1) rotate(0) translate(4 483)">
<title>webconfig::AConfigParser</title>
<!-- Node1 -->
<g id="Node000001" class="node">
<title>Node1</title>
<g id="a_Node000001"><a xlink:title="The AConfigParser class is an abstract base class for parsing configuration files.">
<polygon fill="#999999" stroke="transparent" points="397.5,-479 253.5,-479 253.5,-235 397.5,-235 397.5,-479"/>
<text text-anchor="start" x="263.5" y="-467" font-family="Helvetica,sans-Serif" font-size="10.00">webconfig::AConfigParser</text>
<text text-anchor="start" x="257.5" y="-452" font-family="Helvetica,sans-Serif" font-size="10.00">#</text>
<text text-anchor="start" x="270.5" y="-452" font-family="Helvetica,sans-Serif" font-size="10.00">_block_level</text>
<text text-anchor="start" x="257.5" y="-437" font-family="Helvetica,sans-Serif" font-size="10.00">#</text>
<text text-anchor="start" x="270.5" y="-437" font-family="Helvetica,sans-Serif" font-size="10.00">_valid_directives</text>
<text text-anchor="start" x="257.5" y="-422" font-family="Helvetica,sans-Serif" font-size="10.00">+</text>
<text text-anchor="start" x="270.5" y="-422" font-family="Helvetica,sans-Serif" font-size="10.00">AConfigParser()</text>
<text text-anchor="start" x="257.5" y="-407" font-family="Helvetica,sans-Serif" font-size="10.00">+</text>
<text text-anchor="start" x="270.5" y="-407" font-family="Helvetica,sans-Serif" font-size="10.00">AConfigParser()</text>
<text text-anchor="start" x="257.5" y="-392" font-family="Helvetica,sans-Serif" font-size="10.00">+</text>
<text text-anchor="start" x="270.5" y="-392" font-family="Helvetica,sans-Serif" font-size="10.00">AConfigParser()</text>
<text text-anchor="start" x="257.5" y="-377" font-family="Helvetica,sans-Serif" font-size="10.00">+</text>
<text text-anchor="start" x="270.5" y="-377" font-family="Helvetica,sans-Serif" font-size="10.00">operator=()</text>
<text text-anchor="start" x="257.5" y="-362" font-family="Helvetica,sans-Serif" font-size="10.00">+</text>
<text text-anchor="start" x="270.5" y="-362" font-family="Helvetica,sans-Serif" font-size="10.00">~AConfigParser()</text>
<text text-anchor="start" x="257.5" y="-347" font-family="Helvetica,sans-Serif" font-size="10.00">+</text>
<text text-anchor="start" x="270.5" y="-347" font-family="Helvetica,sans-Serif" font-size="10.00">parse()</text>
<text text-anchor="start" x="257.5" y="-332" font-family="Helvetica,sans-Serif" font-size="10.00">+</text>
<text text-anchor="start" x="270.5" y="-332" font-family="Helvetica,sans-Serif" font-size="10.00">print_config()</text>
<text text-anchor="start" x="257.5" y="-317" font-family="Helvetica,sans-Serif" font-size="10.00">#</text>
<text text-anchor="start" x="270.5" y="-317" font-family="Helvetica,sans-Serif" font-size="10.00">_need_to_skip()</text>
<text text-anchor="start" x="257.5" y="-302" font-family="Helvetica,sans-Serif" font-size="10.00">#</text>
<text text-anchor="start" x="270.5" y="-302" font-family="Helvetica,sans-Serif" font-size="10.00">_is_valid_sentence()</text>
<text text-anchor="start" x="257.5" y="-287" font-family="Helvetica,sans-Serif" font-size="10.00">#</text>
<text text-anchor="start" x="270.5" y="-287" font-family="Helvetica,sans-Serif" font-size="10.00">_is_scope_symbol()</text>
<text text-anchor="start" x="257.5" y="-272" font-family="Helvetica,sans-Serif" font-size="10.00">#</text>
<text text-anchor="start" x="270.5" y="-272" font-family="Helvetica,sans-Serif" font-size="10.00">_get_directive_name()</text>
<text text-anchor="start" x="257.5" y="-257" font-family="Helvetica,sans-Serif" font-size="10.00">#</text>
<text text-anchor="start" x="270.5" y="-257" font-family="Helvetica,sans-Serif" font-size="10.00">_is_valid_directive()</text>
<text text-anchor="start" x="257.5" y="-242" font-family="Helvetica,sans-Serif" font-size="10.00">#</text>
<text text-anchor="start" x="270.5" y="-242" font-family="Helvetica,sans-Serif" font-size="10.00">_parse_config_directive()</text>
<polygon fill="#666666" stroke="#666666" points="253.5,-462 253.5,-462 397.5,-462 397.5,-462 253.5,-462"/>
<polygon fill="#666666" stroke="#666666" points="253.5,-432 253.5,-432 268.5,-432 268.5,-432 253.5,-432"/>
<polygon fill="#666666" stroke="#666666" points="268.5,-432 268.5,-432 397.5,-432 397.5,-432 268.5,-432"/>
<polygon fill="none" stroke="#666666" points="253.5,-235 253.5,-479 397.5,-479 397.5,-235 253.5,-235"/>
</a>
</g>
</g>
<!-- Node2 -->
<g id="Node000002" class="node">
<title>Node2</title>
<g id="a_Node000002"><a xlink:href="classwebconfig_1_1ConfigGlobalBlock.html" target="_top" xlink:title="The ConfigGlobalBlock class is a concrete class for parsing the global block of the configuration fil...">
<polygon fill="white" stroke="transparent" points="155,-176.5 0,-176.5 0,-22.5 155,-22.5 155,-176.5"/>
<text text-anchor="start" x="5.5" y="-164.5" font-family="Helvetica,sans-Serif" font-size="10.00">webconfig::ConfigGlobalBlock</text>
<text text-anchor="start" x="76" y="-149.5" font-family="Helvetica,sans-Serif" font-size="10.00"> </text>
<text text-anchor="start" x="11.5" y="-134.5" font-family="Helvetica,sans-Serif" font-size="10.00">+</text>
<text text-anchor="start" x="31.5" y="-134.5" font-family="Helvetica,sans-Serif" font-size="10.00">ConfigGlobalBlock()</text>
<text text-anchor="start" x="11.5" y="-119.5" font-family="Helvetica,sans-Serif" font-size="10.00">+</text>
<text text-anchor="start" x="31.5" y="-119.5" font-family="Helvetica,sans-Serif" font-size="10.00">ConfigGlobalBlock()</text>
<text text-anchor="start" x="11.5" y="-104.5" font-family="Helvetica,sans-Serif" font-size="10.00">+</text>
<text text-anchor="start" x="31.5" y="-104.5" font-family="Helvetica,sans-Serif" font-size="10.00">operator=()</text>
<text text-anchor="start" x="11.5" y="-89.5" font-family="Helvetica,sans-Serif" font-size="10.00">+</text>
<text text-anchor="start" x="31.5" y="-89.5" font-family="Helvetica,sans-Serif" font-size="10.00">~ConfigGlobalBlock()</text>
<text text-anchor="start" x="11.5" y="-74.5" font-family="Helvetica,sans-Serif" font-size="10.00">+</text>
<text text-anchor="start" x="31.5" y="-74.5" font-family="Helvetica,sans-Serif" font-size="10.00">print_config()</text>
<text text-anchor="start" x="11.5" y="-59.5" font-family="Helvetica,sans-Serif" font-size="10.00">+</text>
<text text-anchor="start" x="31.5" y="-59.5" font-family="Helvetica,sans-Serif" font-size="10.00">parse()</text>
<text text-anchor="start" x="11.5" y="-44.5" font-family="Helvetica,sans-Serif" font-size="10.00">+</text>
<text text-anchor="start" x="31.5" y="-44.5" font-family="Helvetica,sans-Serif" font-size="10.00">worker_processes()</text>
<text text-anchor="start" x="11.5" y="-29.5" font-family="Helvetica,sans-Serif" font-size="10.00">+</text>
<text text-anchor="start" x="31.5" y="-29.5" font-family="Helvetica,sans-Serif" font-size="10.00">worker_connections()</text>
<polygon fill="#666666" stroke="#666666" points="0.5,-159.5 0.5,-159.5 155.5,-159.5 155.5,-159.5 0.5,-159.5"/>
<polygon fill="#666666" stroke="#666666" points="0.5,-144.5 0.5,-144.5 155.5,-144.5 155.5,-144.5 0.5,-144.5"/>
<polygon fill="none" stroke="#666666" points="0,-22.5 0,-176.5 155,-176.5 155,-22.5 0,-22.5"/>
</a>
</g>
</g>
<!-- Node1&#45;&gt;Node2 -->
<g id="edge1_Node000001_Node000002" class="edge">
<title>Node1&#45;&gt;Node2</title>
<g id="a_edge1_Node000001_Node000002"><a xlink:title=" ">
<path fill="none" stroke="#63b8ff" d="M245.83,-281.34C219.18,-255.7 189.63,-226.52 163.5,-199 156.7,-191.84 149.73,-184.27 142.84,-176.63"/>
<polygon fill="none" stroke="#63b8ff" points="243.62,-284.07 253.26,-288.47 248.47,-279.02 243.62,-284.07"/>
</a>
</g>
</g>
<!-- Node3 -->
<g id="Node000003" class="node">
<title>Node3</title>
<g id="a_Node000003"><a xlink:href="classwebconfig_1_1ConfigHttpBlock.html" target="_top" xlink:title="The ConfigHttpBlock class is a concrete class for parsing the http block of the configuration file.">
<polygon fill="white" stroke="transparent" points="318,-161.5 173,-161.5 173,-37.5 318,-37.5 318,-161.5"/>
<text text-anchor="start" x="178.5" y="-149.5" font-family="Helvetica,sans-Serif" font-size="10.00">webconfig::ConfigHttpBlock</text>
<text text-anchor="start" x="244" y="-134.5" font-family="Helvetica,sans-Serif" font-size="10.00"> </text>
<text text-anchor="start" x="184.5" y="-119.5" font-family="Helvetica,sans-Serif" font-size="10.00">+</text>
<text text-anchor="start" x="204.5" y="-119.5" font-family="Helvetica,sans-Serif" font-size="10.00">ConfigHttpBlock()</text>
<text text-anchor="start" x="184.5" y="-104.5" font-family="Helvetica,sans-Serif" font-size="10.00">+</text>
<text text-anchor="start" x="204.5" y="-104.5" font-family="Helvetica,sans-Serif" font-size="10.00">ConfigHttpBlock()</text>
<text text-anchor="start" x="184.5" y="-89.5" font-family="Helvetica,sans-Serif" font-size="10.00">+</text>
<text text-anchor="start" x="204.5" y="-89.5" font-family="Helvetica,sans-Serif" font-size="10.00">operator=()</text>
<text text-anchor="start" x="184.5" y="-74.5" font-family="Helvetica,sans-Serif" font-size="10.00">+</text>
<text text-anchor="start" x="204.5" y="-74.5" font-family="Helvetica,sans-Serif" font-size="10.00">~ConfigHttpBlock()</text>
<text text-anchor="start" x="184.5" y="-59.5" font-family="Helvetica,sans-Serif" font-size="10.00">+</text>
<text text-anchor="start" x="204.5" y="-59.5" font-family="Helvetica,sans-Serif" font-size="10.00">parse()</text>
<text text-anchor="start" x="184.5" y="-44.5" font-family="Helvetica,sans-Serif" font-size="10.00">+</text>
<text text-anchor="start" x="204.5" y="-44.5" font-family="Helvetica,sans-Serif" font-size="10.00">print_config()</text>
<polygon fill="#666666" stroke="#666666" points="173.5,-144.5 173.5,-144.5 318.5,-144.5 318.5,-144.5 173.5,-144.5"/>
<polygon fill="#666666" stroke="#666666" points="173.5,-129.5 173.5,-129.5 318.5,-129.5 318.5,-129.5 173.5,-129.5"/>
<polygon fill="none" stroke="#666666" points="173,-37.5 173,-161.5 318,-161.5 318,-37.5 173,-37.5"/>
</a>
</g>
</g>
<!-- Node1&#45;&gt;Node3 -->
<g id="edge2_Node000001_Node000003" class="edge">
<title>Node1&#45;&gt;Node3</title>
<g id="a_edge2_Node000001_Node000003"><a xlink:title=" ">
<path fill="none" stroke="#63b8ff" d="M284.53,-225.15C277.59,-202.99 270.69,-180.96 264.67,-161.72"/>
<polygon fill="none" stroke="#63b8ff" points="281.28,-226.49 287.61,-234.98 287.96,-224.4 281.28,-226.49"/>
</a>
</g>
</g>
<!-- Node4 -->
<g id="Node000004" class="node">
<title>Node4</title>
<g id="a_Node000004"><a xlink:href="classwebconfig_1_1ConfigLocationBlock.html" target="_top" xlink:title="The ConfigLocationBlock class is a concrete class for parsing the location block of the configuration...">
<polygon fill="white" stroke="transparent" points="474.5,-167 336.5,-167 336.5,-32 474.5,-32 474.5,-167"/>
<text text-anchor="start" x="341.5" y="-154.5" font-family="Helvetica,sans-Serif" font-size="10.00">webconfig::ConfigLocation</text>
<text text-anchor="start" x="391.5" y="-143.5" font-family="Helvetica,sans-Serif" font-size="10.00">Block</text>
<text text-anchor="start" x="403.5" y="-128.5" font-family="Helvetica,sans-Serif" font-size="10.00"> </text>
<text text-anchor="start" x="341" y="-113.5" font-family="Helvetica,sans-Serif" font-size="10.00">+</text>
<text text-anchor="start" x="354.5" y="-113.5" font-family="Helvetica,sans-Serif" font-size="10.00">ConfigLocationBlock()</text>
<text text-anchor="start" x="341" y="-98.5" font-family="Helvetica,sans-Serif" font-size="10.00">+</text>
<text text-anchor="start" x="354.5" y="-98.5" font-family="Helvetica,sans-Serif" font-size="10.00">ConfigLocationBlock()</text>
<text text-anchor="start" x="341" y="-83.5" font-family="Helvetica,sans-Serif" font-size="10.00">+</text>
<text text-anchor="start" x="354.5" y="-83.5" font-family="Helvetica,sans-Serif" font-size="10.00">operator=()</text>
<text text-anchor="start" x="341" y="-68.5" font-family="Helvetica,sans-Serif" font-size="10.00">+</text>
<text text-anchor="start" x="354.5" y="-68.5" font-family="Helvetica,sans-Serif" font-size="10.00">~ConfigLocationBlock()</text>
<text text-anchor="start" x="341" y="-53.5" font-family="Helvetica,sans-Serif" font-size="10.00">+</text>
<text text-anchor="start" x="354.5" y="-53.5" font-family="Helvetica,sans-Serif" font-size="10.00">parse()</text>
<text text-anchor="start" x="341" y="-38.5" font-family="Helvetica,sans-Serif" font-size="10.00">+</text>
<text text-anchor="start" x="354.5" y="-38.5" font-family="Helvetica,sans-Serif" font-size="10.00">print_config()</text>
<polygon fill="#666666" stroke="#666666" points="336.5,-138.5 336.5,-138.5 474.5,-138.5 474.5,-138.5 336.5,-138.5"/>
<polygon fill="#666666" stroke="#666666" points="336.5,-123.5 336.5,-123.5 474.5,-123.5 474.5,-123.5 336.5,-123.5"/>
<polygon fill="none" stroke="#666666" points="336.5,-32 336.5,-167 474.5,-167 474.5,-32 336.5,-32"/>
</a>
</g>
</g>
<!-- Node1&#45;&gt;Node4 -->
<g id="edge3_Node000001_Node000004" class="edge">
<title>Node1&#45;&gt;Node4</title>
<g id="a_edge3_Node000001_Node000004"><a xlink:title=" ">
<path fill="none" stroke="#63b8ff" d="M366.39,-225.4C372.71,-205.23 379,-185.15 384.62,-167.17"/>
<polygon fill="none" stroke="#63b8ff" points="363.04,-224.4 363.39,-234.98 369.72,-226.49 363.04,-224.4"/>
</a>
</g>
</g>
<!-- Node5 -->
<g id="Node000005" class="node">
<title>Node5</title>
<g id="a_Node000005"><a xlink:href="classwebconfig_1_1ConfigServerBlock.html" target="_top" xlink:title="The ConfigServerBlock class is a concrete class for parsing the server block of the configuration fil...">
<polygon fill="white" stroke="transparent" points="648,-199 493,-199 493,0 648,0 648,-199"/>
<text text-anchor="start" x="498.5" y="-186.5" font-family="Helvetica,sans-Serif" font-size="10.00">webconfig::ConfigServerBlock</text>
<text text-anchor="start" x="569" y="-171.5" font-family="Helvetica,sans-Serif" font-size="10.00"> </text>
<text text-anchor="start" x="504.5" y="-156.5" font-family="Helvetica,sans-Serif" font-size="10.00">+</text>
<text text-anchor="start" x="524.5" y="-156.5" font-family="Helvetica,sans-Serif" font-size="10.00">ConfigServerBlock()</text>
<text text-anchor="start" x="504.5" y="-141.5" font-family="Helvetica,sans-Serif" font-size="10.00">+</text>
<text text-anchor="start" x="524.5" y="-141.5" font-family="Helvetica,sans-Serif" font-size="10.00">~ConfigServerBlock()</text>
<text text-anchor="start" x="504.5" y="-126.5" font-family="Helvetica,sans-Serif" font-size="10.00">+</text>
<text text-anchor="start" x="524.5" y="-126.5" font-family="Helvetica,sans-Serif" font-size="10.00">ConfigServerBlock()</text>
<text text-anchor="start" x="504.5" y="-111.5" font-family="Helvetica,sans-Serif" font-size="10.00">+</text>
<text text-anchor="start" x="524.5" y="-111.5" font-family="Helvetica,sans-Serif" font-size="10.00">operator=()</text>
<text text-anchor="start" x="504.5" y="-96.5" font-family="Helvetica,sans-Serif" font-size="10.00">+</text>
<text text-anchor="start" x="524.5" y="-96.5" font-family="Helvetica,sans-Serif" font-size="10.00">server_name()</text>
<text text-anchor="start" x="504.5" y="-81.5" font-family="Helvetica,sans-Serif" font-size="10.00">+</text>
<text text-anchor="start" x="524.5" y="-81.5" font-family="Helvetica,sans-Serif" font-size="10.00">listen()</text>
<text text-anchor="start" x="504.5" y="-66.5" font-family="Helvetica,sans-Serif" font-size="10.00">+</text>
<text text-anchor="start" x="524.5" y="-66.5" font-family="Helvetica,sans-Serif" font-size="10.00">error_log()</text>
<text text-anchor="start" x="504.5" y="-51.5" font-family="Helvetica,sans-Serif" font-size="10.00">+</text>
<text text-anchor="start" x="524.5" y="-51.5" font-family="Helvetica,sans-Serif" font-size="10.00">keepalive_timeout()</text>
<text text-anchor="start" x="504.5" y="-36.5" font-family="Helvetica,sans-Serif" font-size="10.00">+</text>
<text text-anchor="start" x="524.5" y="-36.5" font-family="Helvetica,sans-Serif" font-size="10.00">location_block_list()</text>
<text text-anchor="start" x="504.5" y="-21.5" font-family="Helvetica,sans-Serif" font-size="10.00">+</text>
<text text-anchor="start" x="524.5" y="-21.5" font-family="Helvetica,sans-Serif" font-size="10.00">parse()</text>
<text text-anchor="start" x="504.5" y="-6.5" font-family="Helvetica,sans-Serif" font-size="10.00">+</text>
<text text-anchor="start" x="524.5" y="-6.5" font-family="Helvetica,sans-Serif" font-size="10.00">print_config()</text>
<polygon fill="#666666" stroke="#666666" points="493.5,-181.5 493.5,-181.5 648.5,-181.5 648.5,-181.5 493.5,-181.5"/>
<polygon fill="#666666" stroke="#666666" points="493.5,-166.5 493.5,-166.5 648.5,-166.5 648.5,-166.5 493.5,-166.5"/>
<polygon fill="none" stroke="#666666" points="493,0 493,-199 648,-199 648,0 493,0"/>
</a>
</g>
</g>
<!-- Node1&#45;&gt;Node5 -->
<g id="edge4_Node000001_Node000005" class="edge">
<title>Node1&#45;&gt;Node5</title>
<g id="a_edge4_Node000001_Node000005"><a xlink:title=" ">
<path fill="none" stroke="#63b8ff" d="M405.11,-278.89C430.52,-253.76 458.51,-225.5 483.5,-199 486.63,-195.68 489.8,-192.28 492.99,-188.83"/>
<polygon fill="none" stroke="#63b8ff" points="402.33,-276.72 397.67,-286.24 407.25,-281.7 402.33,-276.72"/>
</a>
</g>
</g>
</g>
</svg>
