<?xml version="1.0" encoding="UTF-8" standalone="no"?>
<!DOCTYPE svg PUBLIC "-//W3C//DTD SVG 1.1//EN"
 "http://www.w3.org/Graphics/SVG/1.1/DTD/svg11.dtd">
<!-- Generated by graphviz version 2.43.0 (0)
 -->
<!-- Title: webkernel::Acceptor Pages: 1 -->
<svg width="126pt" height="247pt"
 viewBox="0.00 0.00 126.00 247.00" xmlns="http://www.w3.org/2000/svg" xmlns:xlink="http://www.w3.org/1999/xlink">
<g id="graph0" class="graph" transform="scale(1 1) rotate(0) translate(4 243)">
<title>webkernel::Acceptor</title>
<!-- Node1 -->
<g id="Node000001" class="node">
<title>Node1</title>
<g id="a_Node000001"><a xlink:title="The Acceptor class is a concrete class for accepting connections.">
<polygon fill="#999999" stroke="transparent" points="118,-139 0,-139 0,0 118,0 118,-139"/>
<text text-anchor="start" x="9" y="-126.5" font-family="Helvetica,sans-Serif" font-size="10.00">webkernel::Acceptor</text>
<text text-anchor="start" x="57" y="-111.5" font-family="Helvetica,sans-Serif" font-size="10.00"> </text>
<text text-anchor="start" x="4" y="-96.5" font-family="Helvetica,sans-Serif" font-size="10.00">+</text>
<text text-anchor="start" x="17" y="-96.5" font-family="Helvetica,sans-Serif" font-size="10.00">Acceptor()</text>
<text text-anchor="start" x="4" y="-81.5" font-family="Helvetica,sans-Serif" font-size="10.00">+</text>
<text text-anchor="start" x="17" y="-81.5" font-family="Helvetica,sans-Serif" font-size="10.00">Acceptor()</text>
<text text-anchor="start" x="4" y="-66.5" font-family="Helvetica,sans-Serif" font-size="10.00">+</text>
<text text-anchor="start" x="17" y="-66.5" font-family="Helvetica,sans-Serif" font-size="10.00">Acceptor()</text>
<text text-anchor="start" x="4" y="-51.5" font-family="Helvetica,sans-Serif" font-size="10.00">+</text>
<text text-anchor="start" x="17" y="-51.5" font-family="Helvetica,sans-Serif" font-size="10.00">operator=()</text>
<text text-anchor="start" x="4" y="-36.5" font-family="Helvetica,sans-Serif" font-size="10.00">+</text>
<text text-anchor="start" x="17" y="-36.5" font-family="Helvetica,sans-Serif" font-size="10.00">~Acceptor()</text>
<text text-anchor="start" x="4" y="-21.5" font-family="Helvetica,sans-Serif" font-size="10.00">+</text>
<text text-anchor="start" x="17" y="-21.5" font-family="Helvetica,sans-Serif" font-size="10.00">create_connection()</text>
<text text-anchor="start" x="4" y="-6.5" font-family="Helvetica,sans-Serif" font-size="10.00">+</text>
<text text-anchor="start" x="17" y="-6.5" font-family="Helvetica,sans-Serif" font-size="10.00">handle_event()</text>
<polygon fill="#666666" stroke="#666666" points="0,-121.5 0,-121.5 118,-121.5 118,-121.5 0,-121.5"/>
<polygon fill="#666666" stroke="#666666" points="0,-106.5 0,-106.5 118,-106.5 118,-106.5 0,-106.5"/>
<polygon fill="none" stroke="#666666" points="0,0 0,-139 118,-139 118,0 0,0"/>
</a>
</g>
</g>
<!-- Node2 -->
<g id="Node000002" class="node">
<title>Node2</title>
<g id="a_Node000002"><a xlink:href="classwebkernel_1_1IHandler.html" target="_top" xlink:title="The IHandler class is an interface class for handling events.">
<polygon fill="white" stroke="transparent" points="113,-239 5,-239 5,-175 113,-175 113,-239"/>
<text text-anchor="start" x="10" y="-227" font-family="Helvetica,sans-Serif" font-size="10.00">webkernel::IHandler</text>
<text text-anchor="start" x="57" y="-212" font-family="Helvetica,sans-Serif" font-size="10.00"> </text>
<text text-anchor="start" x="12" y="-197" font-family="Helvetica,sans-Serif" font-size="10.00">+</text>
<text text-anchor="start" x="28" y="-197" font-family="Helvetica,sans-Serif" font-size="10.00">~IHandler()</text>
<text text-anchor="start" x="12" y="-182" font-family="Helvetica,sans-Serif" font-size="10.00">+</text>
<text text-anchor="start" x="28" y="-182" font-family="Helvetica,sans-Serif" font-size="10.00">handle_event()</text>
<polygon fill="#666666" stroke="#666666" points="5,-222 5,-222 113,-222 113,-222 5,-222"/>
<polygon fill="#666666" stroke="#666666" points="5,-207 5,-207 113,-207 113,-207 5,-207"/>
<polygon fill="none" stroke="#666666" points="5,-175 5,-239 113,-239 113,-175 5,-175"/>
</a>
</g>
</g>
<!-- Node2&#45;&gt;Node1 -->
<g id="edge1_Node000001_Node000002" class="edge">
<title>Node2&#45;&gt;Node1</title>
<g id="a_edge1_Node000001_Node000002"><a xlink:title=" ">
<path fill="none" stroke="#63b8ff" d="M59,-164.69C59,-156.62 59,-147.95 59,-139.26"/>
<polygon fill="none" stroke="#63b8ff" points="55.5,-164.91 59,-174.91 62.5,-164.91 55.5,-164.91"/>
</a>
</g>
</g>
</g>
</svg>
