<?xml version="1.0" encoding="UTF-8" standalone="no"?>
<!DOCTYPE svg PUBLIC "-//W3C//DTD SVG 1.1//EN"
 "http://www.w3.org/Graphics/SVG/1.1/DTD/svg11.dtd">
<!-- Generated by graphviz version 2.43.0 (0)
 -->
<!-- Title: webconfig::ConfigGlobalBlock Pages: 1 -->
<svg width="250pt" height="524pt"
 viewBox="0.00 0.00 249.50 524.00" xmlns="http://www.w3.org/2000/svg" xmlns:xlink="http://www.w3.org/1999/xlink">
<g id="graph0" class="graph" transform="scale(1 1) rotate(0) translate(4 520)">
<title>webconfig::ConfigGlobalBlock</title>
<!-- Node1 -->
<g id="Node000001" class="node">
<title>Node1</title>
<g id="a_Node000001"><a xlink:title="The ConfigGlobalBlock class is a concrete class for parsing the global block of the configuration fil...">
<polygon fill="#999999" stroke="transparent" points="182,-154 27,-154 27,0 182,0 182,-154"/>
<text text-anchor="start" x="32.5" y="-142" font-family="Helvetica,sans-Serif" font-size="10.00">webconfig::ConfigGlobalBlock</text>
<text text-anchor="start" x="103" y="-127" font-family="Helvetica,sans-Serif" font-size="10.00"> </text>
<text text-anchor="start" x="38.5" y="-112" font-family="Helvetica,sans-Serif" font-size="10.00">+</text>
<text text-anchor="start" x="58.5" y="-112" font-family="Helvetica,sans-Serif" font-size="10.00">ConfigGlobalBlock()</text>
<text text-anchor="start" x="38.5" y="-97" font-family="Helvetica,sans-Serif" font-size="10.00">+</text>
<text text-anchor="start" x="58.5" y="-97" font-family="Helvetica,sans-Serif" font-size="10.00">ConfigGlobalBlock()</text>
<text text-anchor="start" x="38.5" y="-82" font-family="Helvetica,sans-Serif" font-size="10.00">+</text>
<text text-anchor="start" x="58.5" y="-82" font-family="Helvetica,sans-Serif" font-size="10.00">operator=()</text>
<text text-anchor="start" x="38.5" y="-67" font-family="Helvetica,sans-Serif" font-size="10.00">+</text>
<text text-anchor="start" x="58.5" y="-67" font-family="Helvetica,sans-Serif" font-size="10.00">~ConfigGlobalBlock()</text>
<text text-anchor="start" x="38.5" y="-52" font-family="Helvetica,sans-Serif" font-size="10.00">+</text>
<text text-anchor="start" x="58.5" y="-52" font-family="Helvetica,sans-Serif" font-size="10.00">print_config()</text>
<text text-anchor="start" x="38.5" y="-37" font-family="Helvetica,sans-Serif" font-size="10.00">+</text>
<text text-anchor="start" x="58.5" y="-37" font-family="Helvetica,sans-Serif" font-size="10.00">parse()</text>
<text text-anchor="start" x="38.5" y="-22" font-family="Helvetica,sans-Serif" font-size="10.00">+</text>
<text text-anchor="start" x="58.5" y="-22" font-family="Helvetica,sans-Serif" font-size="10.00">worker_processes()</text>
<text text-anchor="start" x="38.5" y="-7" font-family="Helvetica,sans-Serif" font-size="10.00">+</text>
<text text-anchor="start" x="58.5" y="-7" font-family="Helvetica,sans-Serif" font-size="10.00">worker_connections()</text>
<polygon fill="#666666" stroke="#666666" points="27.5,-137 27.5,-137 182.5,-137 182.5,-137 27.5,-137"/>
<polygon fill="#666666" stroke="#666666" points="27.5,-122 27.5,-122 182.5,-122 182.5,-122 27.5,-122"/>
<polygon fill="none" stroke="#666666" points="27,0 27,-154 182,-154 182,0 27,0"/>
</a>
</g>
</g>
<!-- Node2 -->
<g id="Node000002" class="node">
<title>Node2</title>
<g id="a_Node000002"><a xlink:href="classwebconfig_1_1AConfigParser.html" target="_top" xlink:title="The AConfigParser class is an abstract base class for parsing configuration files.">
<polygon fill="white" stroke="transparent" points="176.5,-420 32.5,-420 32.5,-191 176.5,-191 176.5,-420"/>
<text text-anchor="start" x="42.5" y="-407.5" font-family="Helvetica,sans-Serif" font-size="10.00">webconfig::AConfigParser</text>
<text text-anchor="start" x="102.5" y="-392.5" font-family="Helvetica,sans-Serif" font-size="10.00"> </text>
<text text-anchor="start" x="36.5" y="-377.5" font-family="Helvetica,sans-Serif" font-size="10.00">+</text>
<text text-anchor="start" x="49.5" y="-377.5" font-family="Helvetica,sans-Serif" font-size="10.00">AConfigParser()</text>
<text text-anchor="start" x="36.5" y="-362.5" font-family="Helvetica,sans-Serif" font-size="10.00">+</text>
<text text-anchor="start" x="49.5" y="-362.5" font-family="Helvetica,sans-Serif" font-size="10.00">AConfigParser()</text>
<text text-anchor="start" x="36.5" y="-347.5" font-family="Helvetica,sans-Serif" font-size="10.00">+</text>
<text text-anchor="start" x="49.5" y="-347.5" font-family="Helvetica,sans-Serif" font-size="10.00">AConfigParser()</text>
<text text-anchor="start" x="36.5" y="-332.5" font-family="Helvetica,sans-Serif" font-size="10.00">+</text>
<text text-anchor="start" x="49.5" y="-332.5" font-family="Helvetica,sans-Serif" font-size="10.00">operator=()</text>
<text text-anchor="start" x="36.5" y="-317.5" font-family="Helvetica,sans-Serif" font-size="10.00">+</text>
<text text-anchor="start" x="49.5" y="-317.5" font-family="Helvetica,sans-Serif" font-size="10.00">~AConfigParser()</text>
<text text-anchor="start" x="36.5" y="-302.5" font-family="Helvetica,sans-Serif" font-size="10.00">+</text>
<text text-anchor="start" x="49.5" y="-302.5" font-family="Helvetica,sans-Serif" font-size="10.00">parse()</text>
<text text-anchor="start" x="36.5" y="-287.5" font-family="Helvetica,sans-Serif" font-size="10.00">+</text>
<text text-anchor="start" x="49.5" y="-287.5" font-family="Helvetica,sans-Serif" font-size="10.00">print_config()</text>
<text text-anchor="start" x="36.5" y="-272.5" font-family="Helvetica,sans-Serif" font-size="10.00">#</text>
<text text-anchor="start" x="49.5" y="-272.5" font-family="Helvetica,sans-Serif" font-size="10.00">_need_to_skip()</text>
<text text-anchor="start" x="36.5" y="-257.5" font-family="Helvetica,sans-Serif" font-size="10.00">#</text>
<text text-anchor="start" x="49.5" y="-257.5" font-family="Helvetica,sans-Serif" font-size="10.00">_is_valid_sentence()</text>
<text text-anchor="start" x="36.5" y="-242.5" font-family="Helvetica,sans-Serif" font-size="10.00">#</text>
<text text-anchor="start" x="49.5" y="-242.5" font-family="Helvetica,sans-Serif" font-size="10.00">_is_scope_symbol()</text>
<text text-anchor="start" x="36.5" y="-227.5" font-family="Helvetica,sans-Serif" font-size="10.00">#</text>
<text text-anchor="start" x="49.5" y="-227.5" font-family="Helvetica,sans-Serif" font-size="10.00">_get_directive_name()</text>
<text text-anchor="start" x="36.5" y="-212.5" font-family="Helvetica,sans-Serif" font-size="10.00">#</text>
<text text-anchor="start" x="49.5" y="-212.5" font-family="Helvetica,sans-Serif" font-size="10.00">_is_valid_directive()</text>
<text text-anchor="start" x="36.5" y="-197.5" font-family="Helvetica,sans-Serif" font-size="10.00">#</text>
<text text-anchor="start" x="49.5" y="-197.5" font-family="Helvetica,sans-Serif" font-size="10.00">_parse_config_directive()</text>
<polygon fill="#666666" stroke="#666666" points="32.5,-402.5 32.5,-402.5 176.5,-402.5 176.5,-402.5 32.5,-402.5"/>
<polygon fill="#666666" stroke="#666666" points="32.5,-387.5 32.5,-387.5 176.5,-387.5 176.5,-387.5 32.5,-387.5"/>
<polygon fill="none" stroke="#666666" points="32.5,-191 32.5,-420 176.5,-420 176.5,-191 32.5,-191"/>
</a>
</g>
</g>
<!-- Node2&#45;&gt;Node1 -->
<g id="edge1_Node000001_Node000002" class="edge">
<title>Node2&#45;&gt;Node1</title>
<g id="a_edge1_Node000001_Node000002"><a xlink:title=" ">
<path fill="none" stroke="#63b8ff" d="M104.5,-180.7C104.5,-171.67 104.5,-162.74 104.5,-154.12"/>
<polygon fill="none" stroke="#63b8ff" points="101,-180.92 104.5,-190.92 108,-180.92 101,-180.92"/>
</a>
</g>
</g>
<!-- Node3 -->
<g id="Node000003" class="node">
<title>Node3</title>
<g id="a_Node000003"><a xlink:title=" ">
<polygon fill="white" stroke="transparent" points="95,-516 0,-516 0,-467 95,-467 95,-516"/>
<text text-anchor="start" x="5.5" y="-503.5" font-family="Helvetica,sans-Serif" font-size="10.00">ConfigBlockLevel</text>
<text text-anchor="start" x="46" y="-488.5" font-family="Helvetica,sans-Serif" font-size="10.00"> </text>
<text text-anchor="start" x="46" y="-473.5" font-family="Helvetica,sans-Serif" font-size="10.00"> </text>
<polygon fill="#666666" stroke="#666666" points="0.5,-498.5 0.5,-498.5 95.5,-498.5 95.5,-498.5 0.5,-498.5"/>
<polygon fill="#666666" stroke="#666666" points="0.5,-483.5 0.5,-483.5 95.5,-483.5 95.5,-483.5 0.5,-483.5"/>
<polygon fill="none" stroke="#666666" points="0,-467 0,-516 95,-516 95,-467 0,-467"/>
</a>
</g>
</g>
<!-- Node3&#45;&gt;Node2 -->
<g id="edge2_Node000002_Node000003" class="edge">
<title>Node3&#45;&gt;Node2</title>
<g id="a_edge2_Node000002_Node000003"><a xlink:title=" ">
<path fill="none" stroke="#63b8ff" d="M54.84,-466.82C57.84,-457.14 61.55,-445.14 65.59,-432.1"/>
<polygon fill="none" stroke="#63b8ff" points="65.67,-431.86 63.62,-424.95 69.22,-420.4 71.26,-427.31 65.67,-431.86"/>
</a>
</g>
<text text-anchor="middle" x="100" y="-441" font-family="Helvetica,sans-Serif" font-size="10.00" fill="grey"> #_block_level</text>
</g>
<!-- Node4 -->
<g id="Node000004" class="node">
<title>Node4</title>
<g id="a_Node000004"><a xlink:title=" ">
<polygon fill="white" stroke="transparent" points="210,-516 113,-516 113,-467 210,-467 210,-516"/>
<text text-anchor="start" x="118.5" y="-503.5" font-family="Helvetica,sans-Serif" font-size="10.00">set&lt; std::string &gt;</text>
<text text-anchor="start" x="160" y="-488.5" font-family="Helvetica,sans-Serif" font-size="10.00"> </text>
<text text-anchor="start" x="160" y="-473.5" font-family="Helvetica,sans-Serif" font-size="10.00"> </text>
<polygon fill="#666666" stroke="#666666" points="113.5,-498.5 113.5,-498.5 210.5,-498.5 210.5,-498.5 113.5,-498.5"/>
<polygon fill="#666666" stroke="#666666" points="113.5,-483.5 113.5,-483.5 210.5,-483.5 210.5,-483.5 113.5,-483.5"/>
<polygon fill="none" stroke="#666666" points="113,-467 113,-516 210,-516 210,-467 113,-467"/>
</a>
</g>
</g>
<!-- Node4&#45;&gt;Node2 -->
<g id="edge3_Node000002_Node000004" class="edge">
<title>Node4&#45;&gt;Node2</title>
<g id="a_edge3_Node000002_Node000004"><a xlink:title=" ">
<path fill="none" stroke="#63b8ff" d="M154.16,-466.82C151.16,-457.14 147.45,-445.14 143.41,-432.1"/>
<polygon fill="none" stroke="#63b8ff" points="143.33,-431.86 137.74,-427.31 139.78,-420.4 145.38,-424.95 143.33,-431.86"/>
</a>
</g>
<text text-anchor="middle" x="194.5" y="-441" font-family="Helvetica,sans-Serif" font-size="10.00" fill="grey"> #_valid_directives</text>
</g>
</g>
</svg>
