<?xml version="1.0" encoding="UTF-8" standalone="no"?>
<!DOCTYPE svg PUBLIC "-//W3C//DTD SVG 1.1//EN"
 "http://www.w3.org/Graphics/SVG/1.1/DTD/svg11.dtd">
<!-- Generated by graphviz version 2.43.0 (0)
 -->
<!-- Title: webconfig::ConfigServerBlock Pages: 1 -->
<svg width="250pt" height="569pt"
 viewBox="0.00 0.00 249.50 569.00" xmlns="http://www.w3.org/2000/svg" xmlns:xlink="http://www.w3.org/1999/xlink">
<g id="graph0" class="graph" transform="scale(1 1) rotate(0) translate(4 565)">
<title>webconfig::ConfigServerBlock</title>
<!-- Node1 -->
<g id="Node000001" class="node">
<title>Node1</title>
<g id="a_Node000001"><a xlink:title="The ConfigServerBlock class is a concrete class for parsing the server block of the configuration fil...">
<polygon fill="#999999" stroke="transparent" points="182,-199 27,-199 27,0 182,0 182,-199"/>
<text text-anchor="start" x="32.5" y="-186.5" font-family="Helvetica,sans-Serif" font-size="10.00">webconfig::ConfigServerBlock</text>
<text text-anchor="start" x="103" y="-171.5" font-family="Helvetica,sans-Serif" font-size="10.00"> </text>
<text text-anchor="start" x="38.5" y="-156.5" font-family="Helvetica,sans-Serif" font-size="10.00">+</text>
<text text-anchor="start" x="58.5" y="-156.5" font-family="Helvetica,sans-Serif" font-size="10.00">ConfigServerBlock()</text>
<text text-anchor="start" x="38.5" y="-141.5" font-family="Helvetica,sans-Serif" font-size="10.00">+</text>
<text text-anchor="start" x="58.5" y="-141.5" font-family="Helvetica,sans-Serif" font-size="10.00">~ConfigServerBlock()</text>
<text text-anchor="start" x="38.5" y="-126.5" font-family="Helvetica,sans-Serif" font-size="10.00">+</text>
<text text-anchor="start" x="58.5" y="-126.5" font-family="Helvetica,sans-Serif" font-size="10.00">ConfigServerBlock()</text>
<text text-anchor="start" x="38.5" y="-111.5" font-family="Helvetica,sans-Serif" font-size="10.00">+</text>
<text text-anchor="start" x="58.5" y="-111.5" font-family="Helvetica,sans-Serif" font-size="10.00">operator=()</text>
<text text-anchor="start" x="38.5" y="-96.5" font-family="Helvetica,sans-Serif" font-size="10.00">+</text>
<text text-anchor="start" x="58.5" y="-96.5" font-family="Helvetica,sans-Serif" font-size="10.00">server_name()</text>
<text text-anchor="start" x="38.5" y="-81.5" font-family="Helvetica,sans-Serif" font-size="10.00">+</text>
<text text-anchor="start" x="58.5" y="-81.5" font-family="Helvetica,sans-Serif" font-size="10.00">listen()</text>
<text text-anchor="start" x="38.5" y="-66.5" font-family="Helvetica,sans-Serif" font-size="10.00">+</text>
<text text-anchor="start" x="58.5" y="-66.5" font-family="Helvetica,sans-Serif" font-size="10.00">error_log()</text>
<text text-anchor="start" x="38.5" y="-51.5" font-family="Helvetica,sans-Serif" font-size="10.00">+</text>
<text text-anchor="start" x="58.5" y="-51.5" font-family="Helvetica,sans-Serif" font-size="10.00">keepalive_timeout()</text>
<text text-anchor="start" x="38.5" y="-36.5" font-family="Helvetica,sans-Serif" font-size="10.00">+</text>
<text text-anchor="start" x="58.5" y="-36.5" font-family="Helvetica,sans-Serif" font-size="10.00">location_block_list()</text>
<text text-anchor="start" x="38.5" y="-21.5" font-family="Helvetica,sans-Serif" font-size="10.00">+</text>
<text text-anchor="start" x="58.5" y="-21.5" font-family="Helvetica,sans-Serif" font-size="10.00">parse()</text>
<text text-anchor="start" x="38.5" y="-6.5" font-family="Helvetica,sans-Serif" font-size="10.00">+</text>
<text text-anchor="start" x="58.5" y="-6.5" font-family="Helvetica,sans-Serif" font-size="10.00">print_config()</text>
<polygon fill="#666666" stroke="#666666" points="27.5,-181.5 27.5,-181.5 182.5,-181.5 182.5,-181.5 27.5,-181.5"/>
<polygon fill="#666666" stroke="#666666" points="27.5,-166.5 27.5,-166.5 182.5,-166.5 182.5,-166.5 27.5,-166.5"/>
<polygon fill="none" stroke="#666666" points="27,0 27,-199 182,-199 182,0 27,0"/>
</a>
</g>
</g>
<!-- Node2 -->
<g id="Node000002" class="node">
<title>Node2</title>
<g id="a_Node000002"><a xlink:href="classwebconfig_1_1AConfigParser.html" target="_top" xlink:title="The AConfigParser class is an abstract base class for parsing configuration files.">
<polygon fill="white" stroke="transparent" points="176.5,-465 32.5,-465 32.5,-236 176.5,-236 176.5,-465"/>
<text text-anchor="start" x="42.5" y="-452.5" font-family="Helvetica,sans-Serif" font-size="10.00">webconfig::AConfigParser</text>
<text text-anchor="start" x="102.5" y="-437.5" font-family="Helvetica,sans-Serif" font-size="10.00"> </text>
<text text-anchor="start" x="36.5" y="-422.5" font-family="Helvetica,sans-Serif" font-size="10.00">+</text>
<text text-anchor="start" x="49.5" y="-422.5" font-family="Helvetica,sans-Serif" font-size="10.00">AConfigParser()</text>
<text text-anchor="start" x="36.5" y="-407.5" font-family="Helvetica,sans-Serif" font-size="10.00">+</text>
<text text-anchor="start" x="49.5" y="-407.5" font-family="Helvetica,sans-Serif" font-size="10.00">AConfigParser()</text>
<text text-anchor="start" x="36.5" y="-392.5" font-family="Helvetica,sans-Serif" font-size="10.00">+</text>
<text text-anchor="start" x="49.5" y="-392.5" font-family="Helvetica,sans-Serif" font-size="10.00">AConfigParser()</text>
<text text-anchor="start" x="36.5" y="-377.5" font-family="Helvetica,sans-Serif" font-size="10.00">+</text>
<text text-anchor="start" x="49.5" y="-377.5" font-family="Helvetica,sans-Serif" font-size="10.00">operator=()</text>
<text text-anchor="start" x="36.5" y="-362.5" font-family="Helvetica,sans-Serif" font-size="10.00">+</text>
<text text-anchor="start" x="49.5" y="-362.5" font-family="Helvetica,sans-Serif" font-size="10.00">~AConfigParser()</text>
<text text-anchor="start" x="36.5" y="-347.5" font-family="Helvetica,sans-Serif" font-size="10.00">+</text>
<text text-anchor="start" x="49.5" y="-347.5" font-family="Helvetica,sans-Serif" font-size="10.00">parse()</text>
<text text-anchor="start" x="36.5" y="-332.5" font-family="Helvetica,sans-Serif" font-size="10.00">+</text>
<text text-anchor="start" x="49.5" y="-332.5" font-family="Helvetica,sans-Serif" font-size="10.00">print_config()</text>
<text text-anchor="start" x="36.5" y="-317.5" font-family="Helvetica,sans-Serif" font-size="10.00">#</text>
<text text-anchor="start" x="49.5" y="-317.5" font-family="Helvetica,sans-Serif" font-size="10.00">_need_to_skip()</text>
<text text-anchor="start" x="36.5" y="-302.5" font-family="Helvetica,sans-Serif" font-size="10.00">#</text>
<text text-anchor="start" x="49.5" y="-302.5" font-family="Helvetica,sans-Serif" font-size="10.00">_is_valid_sentence()</text>
<text text-anchor="start" x="36.5" y="-287.5" font-family="Helvetica,sans-Serif" font-size="10.00">#</text>
<text text-anchor="start" x="49.5" y="-287.5" font-family="Helvetica,sans-Serif" font-size="10.00">_is_scope_symbol()</text>
<text text-anchor="start" x="36.5" y="-272.5" font-family="Helvetica,sans-Serif" font-size="10.00">#</text>
<text text-anchor="start" x="49.5" y="-272.5" font-family="Helvetica,sans-Serif" font-size="10.00">_get_directive_name()</text>
<text text-anchor="start" x="36.5" y="-257.5" font-family="Helvetica,sans-Serif" font-size="10.00">#</text>
<text text-anchor="start" x="49.5" y="-257.5" font-family="Helvetica,sans-Serif" font-size="10.00">_is_valid_directive()</text>
<text text-anchor="start" x="36.5" y="-242.5" font-family="Helvetica,sans-Serif" font-size="10.00">#</text>
<text text-anchor="start" x="49.5" y="-242.5" font-family="Helvetica,sans-Serif" font-size="10.00">_parse_config_directive()</text>
<polygon fill="#666666" stroke="#666666" points="32.5,-447.5 32.5,-447.5 176.5,-447.5 176.5,-447.5 32.5,-447.5"/>
<polygon fill="#666666" stroke="#666666" points="32.5,-432.5 32.5,-432.5 176.5,-432.5 176.5,-432.5 32.5,-432.5"/>
<polygon fill="none" stroke="#666666" points="32.5,-236 32.5,-465 176.5,-465 176.5,-236 32.5,-236"/>
</a>
</g>
</g>
<!-- Node2&#45;&gt;Node1 -->
<g id="edge1_Node000001_Node000002" class="edge">
<title>Node2&#45;&gt;Node1</title>
<g id="a_edge1_Node000001_Node000002"><a xlink:title=" ">
<path fill="none" stroke="#63b8ff" d="M104.5,-225.81C104.5,-216.83 104.5,-207.85 104.5,-199.05"/>
<polygon fill="none" stroke="#63b8ff" points="101,-225.93 104.5,-235.93 108,-225.93 101,-225.93"/>
</a>
</g>
</g>
<!-- Node3 -->
<g id="Node000003" class="node">
<title>Node3</title>
<g id="a_Node000003"><a xlink:title=" ">
<polygon fill="white" stroke="transparent" points="95,-561 0,-561 0,-512 95,-512 95,-561"/>
<text text-anchor="start" x="5.5" y="-548.5" font-family="Helvetica,sans-Serif" font-size="10.00">ConfigBlockLevel</text>
<text text-anchor="start" x="46" y="-533.5" font-family="Helvetica,sans-Serif" font-size="10.00"> </text>
<text text-anchor="start" x="46" y="-518.5" font-family="Helvetica,sans-Serif" font-size="10.00"> </text>
<polygon fill="#666666" stroke="#666666" points="0.5,-543.5 0.5,-543.5 95.5,-543.5 95.5,-543.5 0.5,-543.5"/>
<polygon fill="#666666" stroke="#666666" points="0.5,-528.5 0.5,-528.5 95.5,-528.5 95.5,-528.5 0.5,-528.5"/>
<polygon fill="none" stroke="#666666" points="0,-512 0,-561 95,-561 95,-512 0,-512"/>
</a>
</g>
</g>
<!-- Node3&#45;&gt;Node2 -->
<g id="edge2_Node000002_Node000003" class="edge">
<title>Node3&#45;&gt;Node2</title>
<g id="a_edge2_Node000002_Node000003"><a xlink:title=" ">
<path fill="none" stroke="#63b8ff" d="M54.84,-511.82C57.84,-502.14 61.55,-490.14 65.59,-477.1"/>
<polygon fill="none" stroke="#63b8ff" points="65.67,-476.86 63.62,-469.95 69.22,-465.4 71.26,-472.31 65.67,-476.86"/>
</a>
</g>
<text text-anchor="middle" x="100" y="-486" font-family="Helvetica,sans-Serif" font-size="10.00" fill="grey"> #_block_level</text>
</g>
<!-- Node4 -->
<g id="Node000004" class="node">
<title>Node4</title>
<g id="a_Node000004"><a xlink:title=" ">
<polygon fill="white" stroke="transparent" points="210,-561 113,-561 113,-512 210,-512 210,-561"/>
<text text-anchor="start" x="118.5" y="-548.5" font-family="Helvetica,sans-Serif" font-size="10.00">set&lt; std::string &gt;</text>
<text text-anchor="start" x="160" y="-533.5" font-family="Helvetica,sans-Serif" font-size="10.00"> </text>
<text text-anchor="start" x="160" y="-518.5" font-family="Helvetica,sans-Serif" font-size="10.00"> </text>
<polygon fill="#666666" stroke="#666666" points="113.5,-543.5 113.5,-543.5 210.5,-543.5 210.5,-543.5 113.5,-543.5"/>
<polygon fill="#666666" stroke="#666666" points="113.5,-528.5 113.5,-528.5 210.5,-528.5 210.5,-528.5 113.5,-528.5"/>
<polygon fill="none" stroke="#666666" points="113,-512 113,-561 210,-561 210,-512 113,-512"/>
</a>
</g>
</g>
<!-- Node4&#45;&gt;Node2 -->
<g id="edge3_Node000002_Node000004" class="edge">
<title>Node4&#45;&gt;Node2</title>
<g id="a_edge3_Node000002_Node000004"><a xlink:title=" ">
<path fill="none" stroke="#63b8ff" d="M154.16,-511.82C151.16,-502.14 147.45,-490.14 143.41,-477.1"/>
<polygon fill="none" stroke="#63b8ff" points="143.33,-476.86 137.74,-472.31 139.78,-465.4 145.38,-469.95 143.33,-476.86"/>
</a>
</g>
<text text-anchor="middle" x="194.5" y="-486" font-family="Helvetica,sans-Serif" font-size="10.00" fill="grey"> #_valid_directives</text>
</g>
</g>
</svg>
