<?xml version="1.0" encoding="UTF-8" standalone="no"?>
<!DOCTYPE svg PUBLIC "-//W3C//DTD SVG 1.1//EN"
 "http://www.w3.org/Graphics/SVG/1.1/DTD/svg11.dtd">
<!-- Generated by graphviz version 2.43.0 (0)
 -->
<!-- Title: webconfig::ConfigHttpBlock Pages: 1 -->
<svg width="153pt" height="412pt"
 viewBox="0.00 0.00 153.00 412.00" xmlns="http://www.w3.org/2000/svg" xmlns:xlink="http://www.w3.org/1999/xlink">
<g id="graph0" class="graph" transform="scale(1 1) rotate(0) translate(4 408)">
<title>webconfig::ConfigHttpBlock</title>
<!-- Node1 -->
<g id="Node000001" class="node">
<title>Node1</title>
<g id="a_Node000001"><a xlink:title="The ConfigHttpBlock class is a concrete class for parsing the http block of the configuration file.">
<polygon fill="#999999" stroke="transparent" points="145,-124 0,-124 0,0 145,0 145,-124"/>
<text text-anchor="start" x="5.5" y="-112" font-family="Helvetica,sans-Serif" font-size="10.00">webconfig::ConfigHttpBlock</text>
<text text-anchor="start" x="71" y="-97" font-family="Helvetica,sans-Serif" font-size="10.00"> </text>
<text text-anchor="start" x="11.5" y="-82" font-family="Helvetica,sans-Serif" font-size="10.00">+</text>
<text text-anchor="start" x="31.5" y="-82" font-family="Helvetica,sans-Serif" font-size="10.00">ConfigHttpBlock()</text>
<text text-anchor="start" x="11.5" y="-67" font-family="Helvetica,sans-Serif" font-size="10.00">+</text>
<text text-anchor="start" x="31.5" y="-67" font-family="Helvetica,sans-Serif" font-size="10.00">ConfigHttpBlock()</text>
<text text-anchor="start" x="11.5" y="-52" font-family="Helvetica,sans-Serif" font-size="10.00">+</text>
<text text-anchor="start" x="31.5" y="-52" font-family="Helvetica,sans-Serif" font-size="10.00">operator=()</text>
<text text-anchor="start" x="11.5" y="-37" font-family="Helvetica,sans-Serif" font-size="10.00">+</text>
<text text-anchor="start" x="31.5" y="-37" font-family="Helvetica,sans-Serif" font-size="10.00">~ConfigHttpBlock()</text>
<text text-anchor="start" x="11.5" y="-22" font-family="Helvetica,sans-Serif" font-size="10.00">+</text>
<text text-anchor="start" x="31.5" y="-22" font-family="Helvetica,sans-Serif" font-size="10.00">parse()</text>
<text text-anchor="start" x="11.5" y="-7" font-family="Helvetica,sans-Serif" font-size="10.00">+</text>
<text text-anchor="start" x="31.5" y="-7" font-family="Helvetica,sans-Serif" font-size="10.00">print_config()</text>
<polygon fill="#666666" stroke="#666666" points="0.5,-107 0.5,-107 145.5,-107 145.5,-107 0.5,-107"/>
<polygon fill="#666666" stroke="#666666" points="0.5,-92 0.5,-92 145.5,-92 145.5,-92 0.5,-92"/>
<polygon fill="none" stroke="#666666" points="0,0 0,-124 145,-124 145,0 0,0"/>
</a>
</g>
</g>
<!-- Node2 -->
<g id="Node000002" class="node">
<title>Node2</title>
<g id="a_Node000002"><a xlink:href="classwebconfig_1_1AConfigParser.html" target="_top" xlink:title="The AConfigParser class is an abstract base class for parsing configuration files.">
<polygon fill="white" stroke="transparent" points="144.5,-404 0.5,-404 0.5,-160 144.5,-160 144.5,-404"/>
<text text-anchor="start" x="10.5" y="-392" font-family="Helvetica,sans-Serif" font-size="10.00">webconfig::AConfigParser</text>
<text text-anchor="start" x="4.5" y="-377" font-family="Helvetica,sans-Serif" font-size="10.00">#</text>
<text text-anchor="start" x="17.5" y="-377" font-family="Helvetica,sans-Serif" font-size="10.00">_block_level</text>
<text text-anchor="start" x="4.5" y="-362" font-family="Helvetica,sans-Serif" font-size="10.00">#</text>
<text text-anchor="start" x="17.5" y="-362" font-family="Helvetica,sans-Serif" font-size="10.00">_valid_directives</text>
<text text-anchor="start" x="4.5" y="-347" font-family="Helvetica,sans-Serif" font-size="10.00">+</text>
<text text-anchor="start" x="17.5" y="-347" font-family="Helvetica,sans-Serif" font-size="10.00">AConfigParser()</text>
<text text-anchor="start" x="4.5" y="-332" font-family="Helvetica,sans-Serif" font-size="10.00">+</text>
<text text-anchor="start" x="17.5" y="-332" font-family="Helvetica,sans-Serif" font-size="10.00">AConfigParser()</text>
<text text-anchor="start" x="4.5" y="-317" font-family="Helvetica,sans-Serif" font-size="10.00">+</text>
<text text-anchor="start" x="17.5" y="-317" font-family="Helvetica,sans-Serif" font-size="10.00">AConfigParser()</text>
<text text-anchor="start" x="4.5" y="-302" font-family="Helvetica,sans-Serif" font-size="10.00">+</text>
<text text-anchor="start" x="17.5" y="-302" font-family="Helvetica,sans-Serif" font-size="10.00">operator=()</text>
<text text-anchor="start" x="4.5" y="-287" font-family="Helvetica,sans-Serif" font-size="10.00">+</text>
<text text-anchor="start" x="17.5" y="-287" font-family="Helvetica,sans-Serif" font-size="10.00">~AConfigParser()</text>
<text text-anchor="start" x="4.5" y="-272" font-family="Helvetica,sans-Serif" font-size="10.00">+</text>
<text text-anchor="start" x="17.5" y="-272" font-family="Helvetica,sans-Serif" font-size="10.00">parse()</text>
<text text-anchor="start" x="4.5" y="-257" font-family="Helvetica,sans-Serif" font-size="10.00">+</text>
<text text-anchor="start" x="17.5" y="-257" font-family="Helvetica,sans-Serif" font-size="10.00">print_config()</text>
<text text-anchor="start" x="4.5" y="-242" font-family="Helvetica,sans-Serif" font-size="10.00">#</text>
<text text-anchor="start" x="17.5" y="-242" font-family="Helvetica,sans-Serif" font-size="10.00">_need_to_skip()</text>
<text text-anchor="start" x="4.5" y="-227" font-family="Helvetica,sans-Serif" font-size="10.00">#</text>
<text text-anchor="start" x="17.5" y="-227" font-family="Helvetica,sans-Serif" font-size="10.00">_is_valid_sentence()</text>
<text text-anchor="start" x="4.5" y="-212" font-family="Helvetica,sans-Serif" font-size="10.00">#</text>
<text text-anchor="start" x="17.5" y="-212" font-family="Helvetica,sans-Serif" font-size="10.00">_is_scope_symbol()</text>
<text text-anchor="start" x="4.5" y="-197" font-family="Helvetica,sans-Serif" font-size="10.00">#</text>
<text text-anchor="start" x="17.5" y="-197" font-family="Helvetica,sans-Serif" font-size="10.00">_get_directive_name()</text>
<text text-anchor="start" x="4.5" y="-182" font-family="Helvetica,sans-Serif" font-size="10.00">#</text>
<text text-anchor="start" x="17.5" y="-182" font-family="Helvetica,sans-Serif" font-size="10.00">_is_valid_directive()</text>
<text text-anchor="start" x="4.5" y="-167" font-family="Helvetica,sans-Serif" font-size="10.00">#</text>
<text text-anchor="start" x="17.5" y="-167" font-family="Helvetica,sans-Serif" font-size="10.00">_parse_config_directive()</text>
<polygon fill="#666666" stroke="#666666" points="0.5,-387 0.5,-387 144.5,-387 144.5,-387 0.5,-387"/>
<polygon fill="#666666" stroke="#666666" points="0.5,-357 0.5,-357 15.5,-357 15.5,-357 0.5,-357"/>
<polygon fill="#666666" stroke="#666666" points="15.5,-357 15.5,-357 144.5,-357 144.5,-357 15.5,-357"/>
<polygon fill="none" stroke="#666666" points="0.5,-160 0.5,-404 144.5,-404 144.5,-160 0.5,-160"/>
</a>
</g>
</g>
<!-- Node2&#45;&gt;Node1 -->
<g id="edge1_Node000001_Node000002" class="edge">
<title>Node2&#45;&gt;Node1</title>
<g id="a_edge1_Node000001_Node000002"><a xlink:title=" ">
<path fill="none" stroke="#63b8ff" d="M72.5,-149.82C72.5,-140.96 72.5,-132.32 72.5,-124.12"/>
<polygon fill="none" stroke="#63b8ff" points="69,-149.89 72.5,-159.89 76,-149.89 69,-149.89"/>
</a>
</g>
</g>
</g>
</svg>
