<?xml version="1.0" encoding="UTF-8" standalone="no"?>
<!DOCTYPE svg PUBLIC "-//W3C//DTD SVG 1.1//EN"
 "http://www.w3.org/Graphics/SVG/1.1/DTD/svg11.dtd">
<!-- Generated by graphviz version 2.43.0 (0)
 -->
<!-- Title: source/config/Config.cpp Pages: 1 -->
<svg width="985pt" height="412pt"
 viewBox="0.00 0.00 985.00 412.00" xmlns="http://www.w3.org/2000/svg" xmlns:xlink="http://www.w3.org/1999/xlink">
<g id="graph0" class="graph" transform="scale(1 1) rotate(0) translate(4 408)">
<title>source/config/Config.cpp</title>
<!-- Node1 -->
<g id="Node000001" class="node">
<title>Node1</title>
<g id="a_Node000001"><a xlink:title=" ">
<polygon fill="#999999" stroke="#666666" points="742.5,-404 607.5,-404 607.5,-385 742.5,-385 742.5,-404"/>
<text text-anchor="middle" x="675" y="-392" font-family="Helvetica,sans-Serif" font-size="10.00">source/config/Config.cpp</text>
</a>
</g>
</g>
<!-- Node2 -->
<g id="Node000002" class="node">
<title>Node2</title>
<g id="a_Node000002"><a xlink:href="Config_8hpp.html" target="_top" xlink:title=" ">
<polygon fill="white" stroke="#666666" points="511,-349 443,-349 443,-330 511,-330 511,-349"/>
<text text-anchor="middle" x="477" y="-337" font-family="Helvetica,sans-Serif" font-size="10.00">Config.hpp</text>
</a>
</g>
</g>
<!-- Node1&#45;&gt;Node2 -->
<g id="edge1_Node000001_Node000002" class="edge">
<title>Node1&#45;&gt;Node2</title>
<g id="a_edge1_Node000001_Node000002"><a xlink:title=" ">
<path fill="none" stroke="#63b8ff" d="M643.19,-384.98C609.51,-375.97 556.2,-361.7 519.08,-351.76"/>
<polygon fill="#63b8ff" stroke="#63b8ff" points="519.63,-348.29 509.06,-349.08 517.82,-355.05 519.63,-348.29"/>
</a>
</g>
</g>
<!-- Node6 -->
<g id="Node000006" class="node">
<title>Node6</title>
<g id="a_Node000006"><a xlink:href="defines_8hpp.html" target="_top" xlink:title=" ">
<polygon fill="white" stroke="#666666" points="188.5,-19 115.5,-19 115.5,0 188.5,0 188.5,-19"/>
<text text-anchor="middle" x="152" y="-7" font-family="Helvetica,sans-Serif" font-size="10.00">defines.hpp</text>
</a>
</g>
</g>
<!-- Node1&#45;&gt;Node6 -->
<g id="edge46_Node000001_Node000006" class="edge">
<title>Node1&#45;&gt;Node6</title>
<g id="a_edge46_Node000001_Node000006"><a xlink:title=" ">
<path fill="none" stroke="#63b8ff" d="M607.43,-389.07C443.49,-377.41 38,-342.78 38,-285.5 38,-285.5 38,-285.5 38,-173.5 38,-108.83 99,-51.55 131.76,-25.46"/>
<polygon fill="#63b8ff" stroke="#63b8ff" points="134.04,-28.12 139.8,-19.22 129.75,-22.58 134.04,-28.12"/>
</a>
</g>
</g>
<!-- Node14 -->
<g id="Node000014" class="node">
<title>Node14</title>
<g id="a_Node000014"><a xlink:title=" ">
<polygon fill="#e0e0e0" stroke="#999999" points="841,-19 781,-19 781,0 841,0 841,-19"/>
<text text-anchor="middle" x="811" y="-7" font-family="Helvetica,sans-Serif" font-size="10.00">iostream</text>
</a>
</g>
</g>
<!-- Node1&#45;&gt;Node14 -->
<g id="edge53_Node000001_Node000014" class="edge">
<title>Node1&#45;&gt;Node14</title>
<g id="a_edge53_Node000001_Node000014"><a xlink:title=" ">
<path fill="none" stroke="#63b8ff" d="M693.77,-384.85C723.97,-369.49 780,-334.4 780,-285.5 780,-285.5 780,-285.5 780,-118.5 780,-85.79 793.3,-49.6 802.48,-28.52"/>
<polygon fill="#63b8ff" stroke="#63b8ff" points="805.75,-29.77 806.69,-19.22 799.37,-26.88 805.75,-29.77"/>
</a>
</g>
</g>
<!-- Node24 -->
<g id="Node000024" class="node">
<title>Node24</title>
<g id="a_Node000024"><a xlink:href="Logger_8hpp.html" target="_top" xlink:title=" ">
<polygon fill="white" stroke="#666666" points="902,-74 808,-74 808,-55 902,-55 902,-74"/>
<text text-anchor="middle" x="855" y="-62" font-family="Helvetica,sans-Serif" font-size="10.00">utils/Logger.hpp</text>
</a>
</g>
</g>
<!-- Node1&#45;&gt;Node24 -->
<g id="edge47_Node000001_Node000024" class="edge">
<title>Node1&#45;&gt;Node24</title>
<g id="a_edge47_Node000001_Node000024"><a xlink:title=" ">
<path fill="none" stroke="#63b8ff" d="M715.63,-384.95C763.32,-372.24 836,-343.39 836,-285.5 836,-285.5 836,-285.5 836,-173.5 836,-141.56 844.16,-105.1 849.78,-83.77"/>
<polygon fill="#63b8ff" stroke="#63b8ff" points="853.17,-84.66 852.44,-74.09 846.42,-82.81 853.17,-84.66"/>
</a>
</g>
</g>
<!-- Node3 -->
<g id="Node000003" class="node">
<title>Node3</title>
<g id="a_Node000003"><a xlink:href="ConfigGlobalBlock_8hpp.html" target="_top" xlink:title=" ">
<polygon fill="white" stroke="#666666" points="635.5,-239 508.5,-239 508.5,-220 635.5,-220 635.5,-239"/>
<text text-anchor="middle" x="572" y="-227" font-family="Helvetica,sans-Serif" font-size="10.00">ConfigGlobalBlock.hpp</text>
</a>
</g>
</g>
<!-- Node2&#45;&gt;Node3 -->
<g id="edge2_Node000002_Node000003" class="edge">
<title>Node2&#45;&gt;Node3</title>
<g id="a_edge2_Node000002_Node000003"><a xlink:title=" ">
<path fill="none" stroke="#63b8ff" d="M484.77,-329.66C500.72,-311.54 537.33,-269.91 557.69,-246.77"/>
<polygon fill="#63b8ff" stroke="#63b8ff" points="560.41,-248.98 564.38,-239.16 555.15,-244.36 560.41,-248.98"/>
</a>
</g>
</g>
<!-- Node2&#45;&gt;Node6 -->
<g id="edge42_Node000002_Node000006" class="edge">
<title>Node2&#45;&gt;Node6</title>
<g id="a_edge42_Node000002_Node000006"><a xlink:title=" ">
<path fill="none" stroke="#63b8ff" d="M442.97,-334.01C363.44,-322.73 169.37,-290.38 133,-239 128.12,-232.11 132.06,-228.39 133,-220 140.38,-153.88 158.62,-140.12 166,-74 166.94,-65.61 167.28,-63.35 166,-55 164.65,-46.19 161.87,-36.74 159.15,-28.82"/>
<polygon fill="#63b8ff" stroke="#63b8ff" points="162.34,-27.35 155.6,-19.18 155.77,-29.77 162.34,-27.35"/>
</a>
</g>
</g>
<!-- Node2&#45;&gt;Node14 -->
<g id="edge43_Node000002_Node000014" class="edge">
<title>Node2&#45;&gt;Node14</title>
<g id="a_edge43_Node000002_Node000014"><a xlink:title=" ">
<path fill="none" stroke="#63b8ff" d="M511.1,-332.06C582.67,-317.58 742,-279.81 742,-230.5 742,-230.5 742,-230.5 742,-118.5 742,-88.33 749.56,-80.3 766,-55 773.06,-44.14 783.16,-33.84 792.01,-25.89"/>
<polygon fill="#63b8ff" stroke="#63b8ff" points="794.36,-28.48 799.65,-19.31 789.79,-23.18 794.36,-28.48"/>
</a>
</g>
</g>
<!-- Node17 -->
<g id="Node000017" class="node">
<title>Node17</title>
<g id="a_Node000017"><a xlink:title=" ">
<polygon fill="#e0e0e0" stroke="#999999" points="97.5,-19 50.5,-19 50.5,0 97.5,0 97.5,-19"/>
<text text-anchor="middle" x="74" y="-7" font-family="Helvetica,sans-Serif" font-size="10.00">vector</text>
</a>
</g>
</g>
<!-- Node2&#45;&gt;Node17 -->
<g id="edge45_Node000002_Node000017" class="edge">
<title>Node2&#45;&gt;Node17</title>
<g id="a_edge45_Node000002_Node000017"><a xlink:title=" ">
<path fill="none" stroke="#63b8ff" d="M442.7,-338.07C333.32,-335.78 0,-321.35 0,-230.5 0,-230.5 0,-230.5 0,-118.5 0,-79.8 32.73,-44.81 54.65,-25.71"/>
<polygon fill="#63b8ff" stroke="#63b8ff" points="57.02,-28.3 62.44,-19.19 52.52,-22.93 57.02,-28.3"/>
</a>
</g>
</g>
<!-- Node20 -->
<g id="Node000020" class="node">
<title>Node20</title>
<g id="a_Node000020"><a xlink:title=" ">
<polygon fill="#e0e0e0" stroke="#999999" points="640,-129 596,-129 596,-110 640,-110 640,-129"/>
<text text-anchor="middle" x="618" y="-117" font-family="Helvetica,sans-Serif" font-size="10.00">string</text>
</a>
</g>
</g>
<!-- Node2&#45;&gt;Node20 -->
<g id="edge44_Node000002_Node000020" class="edge">
<title>Node2&#45;&gt;Node20</title>
<g id="a_edge44_Node000002_Node000020"><a xlink:title=" ">
<path fill="none" stroke="#63b8ff" d="M509.18,-329.91C549.03,-317.36 615.15,-289.76 644,-239 662.47,-206.49 642.82,-162.08 629.04,-137.91"/>
<polygon fill="#63b8ff" stroke="#63b8ff" points="631.93,-135.93 623.79,-129.16 625.93,-139.53 631.93,-135.93"/>
</a>
</g>
</g>
<!-- Node21 -->
<g id="Node000021" class="node">
<title>Node21</title>
<g id="a_Node000021"><a xlink:href="ConfigHttpBlock_8hpp.html" target="_top" xlink:title=" ">
<polygon fill="white" stroke="#666666" points="258,-239 142,-239 142,-220 258,-220 258,-239"/>
<text text-anchor="middle" x="200" y="-227" font-family="Helvetica,sans-Serif" font-size="10.00">ConfigHttpBlock.hpp</text>
</a>
</g>
</g>
<!-- Node2&#45;&gt;Node21 -->
<g id="edge27_Node000002_Node000021" class="edge">
<title>Node2&#45;&gt;Node21</title>
<g id="a_edge27_Node000002_Node000021"><a xlink:title=" ">
<path fill="none" stroke="#63b8ff" d="M445.03,-329.95C415.76,-321.79 371.42,-308.61 334,-294 295.13,-278.83 251.76,-257.41 225.17,-243.74"/>
<polygon fill="#63b8ff" stroke="#63b8ff" points="226.67,-240.57 216.18,-239.08 223.45,-246.79 226.67,-240.57"/>
</a>
</g>
</g>
<!-- Node22 -->
<g id="Node000022" class="node">
<title>Node22</title>
<g id="a_Node000022"><a xlink:href="ConfigServerBlock_8hpp.html" target="_top" xlink:title=" ">
<polygon fill="white" stroke="#666666" points="470.5,-294 343.5,-294 343.5,-275 470.5,-275 470.5,-294"/>
<text text-anchor="middle" x="407" y="-282" font-family="Helvetica,sans-Serif" font-size="10.00">ConfigServerBlock.hpp</text>
</a>
</g>
</g>
<!-- Node2&#45;&gt;Node22 -->
<g id="edge32_Node000002_Node000022" class="edge">
<title>Node2&#45;&gt;Node22</title>
<g id="a_edge32_Node000002_Node000022"><a xlink:title=" ">
<path fill="none" stroke="#63b8ff" d="M465.75,-329.98C455.2,-322 439.2,-309.88 426.56,-300.31"/>
<polygon fill="#63b8ff" stroke="#63b8ff" points="428.54,-297.42 418.45,-294.17 424.31,-303 428.54,-297.42"/>
</a>
</g>
</g>
<!-- Node4 -->
<g id="Node000004" class="node">
<title>Node4</title>
<g id="a_Node000004"><a xlink:href="AConfigParser_8hpp.html" target="_top" xlink:title=" ">
<polygon fill="white" stroke="#666666" points="530,-184 426,-184 426,-165 530,-165 530,-184"/>
<text text-anchor="middle" x="478" y="-172" font-family="Helvetica,sans-Serif" font-size="10.00">AConfigParser.hpp</text>
</a>
</g>
</g>
<!-- Node3&#45;&gt;Node4 -->
<g id="edge3_Node000003_Node000004" class="edge">
<title>Node3&#45;&gt;Node4</title>
<g id="a_edge3_Node000003_Node000004"><a xlink:title=" ">
<path fill="none" stroke="#63b8ff" d="M556.9,-219.98C542.18,-211.69 519.58,-198.94 502.33,-189.22"/>
<polygon fill="#63b8ff" stroke="#63b8ff" points="503.81,-186.03 493.38,-184.17 500.37,-192.13 503.81,-186.03"/>
</a>
</g>
</g>
<!-- Node19 -->
<g id="Node000019" class="node">
<title>Node19</title>
<g id="a_Node000019"><a xlink:title=" ">
<polygon fill="#e0e0e0" stroke="#999999" points="290,-129 258,-129 258,-110 290,-110 290,-129"/>
<text text-anchor="middle" x="274" y="-117" font-family="Helvetica,sans-Serif" font-size="10.00">set</text>
</a>
</g>
</g>
<!-- Node3&#45;&gt;Node19 -->
<g id="edge25_Node000003_Node000019" class="edge">
<title>Node3&#45;&gt;Node19</title>
<g id="a_edge25_Node000003_Node000019"><a xlink:title=" ">
<path fill="none" stroke="#63b8ff" d="M537.09,-219.95C505.38,-211.84 457.52,-198.73 417,-184 374.98,-168.72 327.88,-146.84 299.6,-133.16"/>
<polygon fill="#63b8ff" stroke="#63b8ff" points="300.95,-129.92 290.42,-128.69 297.88,-136.22 300.95,-129.92"/>
</a>
</g>
</g>
<!-- Node3&#45;&gt;Node20 -->
<g id="edge26_Node000003_Node000020" class="edge">
<title>Node3&#45;&gt;Node20</title>
<g id="a_edge26_Node000003_Node000020"><a xlink:title=" ">
<path fill="none" stroke="#63b8ff" d="M575.76,-219.66C583.28,-202.01 600.29,-162.09 610.28,-138.64"/>
<polygon fill="#63b8ff" stroke="#63b8ff" points="613.61,-139.73 614.31,-129.16 607.17,-136.99 613.61,-139.73"/>
</a>
</g>
</g>
<!-- Node5 -->
<g id="Node000005" class="node">
<title>Node5</title>
<g id="a_Node000005"><a xlink:href="config__utils_8hpp.html" target="_top" xlink:title=" ">
<polygon fill="white" stroke="#666666" points="501.5,-129 384.5,-129 384.5,-110 501.5,-110 501.5,-129"/>
<text text-anchor="middle" x="443" y="-117" font-family="Helvetica,sans-Serif" font-size="10.00">utils/config_utils.hpp</text>
</a>
</g>
</g>
<!-- Node4&#45;&gt;Node5 -->
<g id="edge4_Node000004_Node000005" class="edge">
<title>Node4&#45;&gt;Node5</title>
<g id="a_edge4_Node000004_Node000005"><a xlink:title=" ">
<path fill="none" stroke="#63b8ff" d="M472.22,-164.75C467.38,-157.42 460.32,-146.73 454.36,-137.7"/>
<polygon fill="#63b8ff" stroke="#63b8ff" points="457.1,-135.5 448.67,-129.09 451.26,-139.36 457.1,-135.5"/>
</a>
</g>
</g>
<!-- Node4&#45;&gt;Node6 -->
<g id="edge20_Node000004_Node000006" class="edge">
<title>Node4&#45;&gt;Node6</title>
<g id="a_edge20_Node000004_Node000006"><a xlink:title=" ">
<path fill="none" stroke="#63b8ff" d="M444.38,-164.93C422.64,-158.05 394.81,-146.59 375,-129 346.56,-103.74 362.43,-77.82 332,-55 321.28,-46.96 248.34,-30.55 198.66,-20.06"/>
<polygon fill="#63b8ff" stroke="#63b8ff" points="199.26,-16.61 188.76,-17.98 197.82,-23.46 199.26,-16.61"/>
</a>
</g>
</g>
<!-- Node13 -->
<g id="Node000013" class="node">
<title>Node13</title>
<g id="a_Node000013"><a xlink:title=" ">
<polygon fill="#e0e0e0" stroke="#999999" points="762.5,-19 707.5,-19 707.5,0 762.5,0 762.5,-19"/>
<text text-anchor="middle" x="735" y="-7" font-family="Helvetica,sans-Serif" font-size="10.00">fstream</text>
</a>
</g>
</g>
<!-- Node4&#45;&gt;Node13 -->
<g id="edge21_Node000004_Node000013" class="edge">
<title>Node4&#45;&gt;Node13</title>
<g id="a_edge21_Node000004_Node000013"><a xlink:title=" ">
<path fill="none" stroke="#63b8ff" d="M487.36,-164.65C501.25,-151.76 528.45,-127.46 554,-110 605.69,-74.69 671.06,-41.26 707.41,-23.57"/>
<polygon fill="#63b8ff" stroke="#63b8ff" points="709.37,-26.51 716.86,-19.01 706.33,-20.21 709.37,-26.51"/>
</a>
</g>
</g>
<!-- Node4&#45;&gt;Node14 -->
<g id="edge22_Node000004_Node000014" class="edge">
<title>Node4&#45;&gt;Node14</title>
<g id="a_edge22_Node000004_Node000014"><a xlink:title=" ">
<path fill="none" stroke="#63b8ff" d="M492.81,-164.82C521.49,-148 582.25,-112.43 587,-110 654.48,-75.49 736.5,-40.83 780.16,-22.94"/>
<polygon fill="#63b8ff" stroke="#63b8ff" points="781.7,-26.09 789.64,-19.07 779.06,-19.61 781.7,-26.09"/>
</a>
</g>
</g>
<!-- Node4&#45;&gt;Node19 -->
<g id="edge23_Node000004_Node000019" class="edge">
<title>Node4&#45;&gt;Node19</title>
<g id="a_edge23_Node000004_Node000019"><a xlink:title=" ">
<path fill="none" stroke="#63b8ff" d="M445.22,-164.98C404.83,-154.49 337.03,-136.87 300.02,-127.26"/>
<polygon fill="#63b8ff" stroke="#63b8ff" points="300.58,-123.79 290.02,-124.66 298.82,-130.56 300.58,-123.79"/>
</a>
</g>
</g>
<!-- Node4&#45;&gt;Node20 -->
<g id="edge24_Node000004_Node000020" class="edge">
<title>Node4&#45;&gt;Node20</title>
<g id="a_edge24_Node000004_Node000020"><a xlink:title=" ">
<path fill="none" stroke="#63b8ff" d="M500.49,-164.98C523.66,-156.21 559.97,-142.47 586.1,-132.58"/>
<polygon fill="#63b8ff" stroke="#63b8ff" points="587.45,-135.81 595.56,-128.99 584.97,-129.26 587.45,-135.81"/>
</a>
</g>
</g>
<!-- Node5&#45;&gt;Node6 -->
<g id="edge5_Node000005_Node000006" class="edge">
<title>Node5&#45;&gt;Node6</title>
<g id="a_edge5_Node000005_Node000006"><a xlink:title=" ">
<path fill="none" stroke="#63b8ff" d="M435.89,-109.96C423.86,-96.09 398.01,-68.83 370,-55 362.31,-51.2 260.36,-31.25 198.64,-19.39"/>
<polygon fill="#63b8ff" stroke="#63b8ff" points="199.21,-15.94 188.73,-17.49 197.89,-22.81 199.21,-15.94"/>
</a>
</g>
</g>
<!-- Node7 -->
<g id="Node000007" class="node">
<title>Node7</title>
<g id="a_Node000007"><a xlink:href="utils_8hpp.html" target="_top" xlink:title=" ">
<polygon fill="white" stroke="#666666" points="481.5,-74 422.5,-74 422.5,-55 481.5,-55 481.5,-74"/>
<text text-anchor="middle" x="452" y="-62" font-family="Helvetica,sans-Serif" font-size="10.00">utils.hpp</text>
</a>
</g>
</g>
<!-- Node5&#45;&gt;Node7 -->
<g id="edge6_Node000005_Node000007" class="edge">
<title>Node5&#45;&gt;Node7</title>
<g id="a_edge6_Node000005_Node000007"><a xlink:title=" ">
<path fill="none" stroke="#63b8ff" d="M444.49,-109.75C445.67,-102.8 447.36,-92.85 448.84,-84.13"/>
<polygon fill="#63b8ff" stroke="#63b8ff" points="452.32,-84.53 450.54,-74.09 445.42,-83.36 452.32,-84.53"/>
</a>
</g>
</g>
<!-- Node5&#45;&gt;Node13 -->
<g id="edge18_Node000005_Node000013" class="edge">
<title>Node5&#45;&gt;Node13</title>
<g id="a_edge18_Node000005_Node000013"><a xlink:title=" ">
<path fill="none" stroke="#63b8ff" d="M463.36,-109.87C484.35,-100.96 518,-86.61 547,-74 566.16,-65.67 570.42,-62.3 590,-55 625.98,-41.59 668.01,-29.02 697.53,-20.68"/>
<polygon fill="#63b8ff" stroke="#63b8ff" points="698.73,-23.98 707.42,-17.91 696.84,-17.24 698.73,-23.98"/>
</a>
</g>
</g>
<!-- Node18 -->
<g id="Node000018" class="node">
<title>Node18</title>
<g id="a_Node000018"><a xlink:title=" ">
<polygon fill="#e0e0e0" stroke="#999999" points="538,-74 500,-74 500,-55 538,-55 538,-74"/>
<text text-anchor="middle" x="519" y="-62" font-family="Helvetica,sans-Serif" font-size="10.00">map</text>
</a>
</g>
</g>
<!-- Node5&#45;&gt;Node18 -->
<g id="edge19_Node000005_Node000018" class="edge">
<title>Node5&#45;&gt;Node18</title>
<g id="a_edge19_Node000005_Node000018"><a xlink:title=" ">
<path fill="none" stroke="#63b8ff" d="M455.21,-109.98C466.78,-101.92 484.38,-89.65 498.16,-80.03"/>
<polygon fill="#63b8ff" stroke="#63b8ff" points="500.37,-82.76 506.57,-74.17 496.36,-77.02 500.37,-82.76"/>
</a>
</g>
</g>
<!-- Node7&#45;&gt;Node6 -->
<g id="edge7_Node000007_Node000006" class="edge">
<title>Node7&#45;&gt;Node6</title>
<g id="a_edge7_Node000007_Node000006"><a xlink:title=" ">
<path fill="none" stroke="#63b8ff" d="M422.19,-57.65C417.45,-56.75 412.59,-55.84 408,-55 317.51,-38.54 292.29,-35.99 198.72,-19.28"/>
<polygon fill="#63b8ff" stroke="#63b8ff" points="199.29,-15.83 188.83,-17.51 198.05,-22.72 199.29,-15.83"/>
</a>
</g>
</g>
<!-- Node8 -->
<g id="Node000008" class="node">
<title>Node8</title>
<g id="a_Node000008"><a xlink:title=" ">
<polygon fill="#e0e0e0" stroke="#999999" points="488,-19 424,-19 424,0 488,0 488,-19"/>
<text text-anchor="middle" x="456" y="-7" font-family="Helvetica,sans-Serif" font-size="10.00">algorithm</text>
</a>
</g>
</g>
<!-- Node7&#45;&gt;Node8 -->
<g id="edge8_Node000007_Node000008" class="edge">
<title>Node7&#45;&gt;Node8</title>
<g id="a_edge8_Node000007_Node000008"><a xlink:title=" ">
<path fill="none" stroke="#63b8ff" d="M452.66,-54.75C453.18,-47.8 453.94,-37.85 454.59,-29.13"/>
<polygon fill="#63b8ff" stroke="#63b8ff" points="458.09,-29.32 455.35,-19.09 451.11,-28.8 458.09,-29.32"/>
</a>
</g>
</g>
<!-- Node9 -->
<g id="Node000009" class="node">
<title>Node9</title>
<g id="a_Node000009"><a xlink:title=" ">
<polygon fill="#e0e0e0" stroke="#999999" points="555.5,-19 506.5,-19 506.5,0 555.5,0 555.5,-19"/>
<text text-anchor="middle" x="531" y="-7" font-family="Helvetica,sans-Serif" font-size="10.00">cctype</text>
</a>
</g>
</g>
<!-- Node7&#45;&gt;Node9 -->
<g id="edge9_Node000007_Node000009" class="edge">
<title>Node7&#45;&gt;Node9</title>
<g id="a_edge9_Node000007_Node000009"><a xlink:title=" ">
<path fill="none" stroke="#63b8ff" d="M464.69,-54.98C476.83,-46.84 495.36,-34.41 509.75,-24.76"/>
<polygon fill="#63b8ff" stroke="#63b8ff" points="511.72,-27.65 518.08,-19.17 507.82,-21.84 511.72,-27.65"/>
</a>
</g>
</g>
<!-- Node10 -->
<g id="Node000010" class="node">
<title>Node10</title>
<g id="a_Node000010"><a xlink:title=" ">
<polygon fill="#e0e0e0" stroke="#999999" points="624,-19 574,-19 574,0 624,0 624,-19"/>
<text text-anchor="middle" x="599" y="-7" font-family="Helvetica,sans-Serif" font-size="10.00">cstring</text>
</a>
</g>
</g>
<!-- Node7&#45;&gt;Node10 -->
<g id="edge10_Node000007_Node000010" class="edge">
<title>Node7&#45;&gt;Node10</title>
<g id="a_edge10_Node000007_Node000010"><a xlink:title=" ">
<path fill="none" stroke="#63b8ff" d="M475.62,-54.98C499.9,-46.23 537.95,-32.51 565.37,-22.62"/>
<polygon fill="#63b8ff" stroke="#63b8ff" points="566.73,-25.85 574.95,-19.17 564.36,-19.27 566.73,-25.85"/>
</a>
</g>
</g>
<!-- Node11 -->
<g id="Node000011" class="node">
<title>Node11</title>
<g id="a_Node000011"><a xlink:title=" ">
<polygon fill="#e0e0e0" stroke="#999999" points="257.5,-19 206.5,-19 206.5,0 257.5,0 257.5,-19"/>
<text text-anchor="middle" x="232" y="-7" font-family="Helvetica,sans-Serif" font-size="10.00">errno.h</text>
</a>
</g>
</g>
<!-- Node7&#45;&gt;Node11 -->
<g id="edge11_Node000007_Node000011" class="edge">
<title>Node7&#45;&gt;Node11</title>
<g id="a_edge11_Node000007_Node000011"><a xlink:title=" ">
<path fill="none" stroke="#63b8ff" d="M422.2,-56.35C387.49,-48.02 328.16,-33.77 267.38,-19.09"/>
<polygon fill="#63b8ff" stroke="#63b8ff" points="268.16,-15.67 257.61,-16.73 266.51,-22.48 268.16,-15.67"/>
</a>
</g>
</g>
<!-- Node12 -->
<g id="Node000012" class="node">
<title>Node12</title>
<g id="a_Node000012"><a xlink:title=" ">
<polygon fill="#e0e0e0" stroke="#999999" points="689.5,-19 642.5,-19 642.5,0 689.5,0 689.5,-19"/>
<text text-anchor="middle" x="666" y="-7" font-family="Helvetica,sans-Serif" font-size="10.00">fcntl.h</text>
</a>
</g>
</g>
<!-- Node7&#45;&gt;Node12 -->
<g id="edge12_Node000007_Node000012" class="edge">
<title>Node7&#45;&gt;Node12</title>
<g id="a_edge12_Node000007_Node000012"><a xlink:title=" ">
<path fill="none" stroke="#63b8ff" d="M481.81,-56.28C515.81,-48.02 573.33,-33.97 632.35,-19.14"/>
<polygon fill="#63b8ff" stroke="#63b8ff" points="633.37,-22.49 642.21,-16.66 631.66,-15.71 633.37,-22.49"/>
</a>
</g>
</g>
<!-- Node7&#45;&gt;Node13 -->
<g id="edge13_Node000007_Node000013" class="edge">
<title>Node7&#45;&gt;Node13</title>
<g id="a_edge13_Node000007_Node000013"><a xlink:title=" ">
<path fill="none" stroke="#63b8ff" d="M481.78,-56.87C484.89,-56.22 488.01,-55.59 491,-55 579.51,-37.67 604.75,-37.45 697.09,-19.09"/>
<polygon fill="#63b8ff" stroke="#63b8ff" points="698.04,-22.47 707.15,-17.07 696.66,-15.6 698.04,-22.47"/>
</a>
</g>
</g>
<!-- Node7&#45;&gt;Node14 -->
<g id="edge14_Node000007_Node000014" class="edge">
<title>Node7&#45;&gt;Node14</title>
<g id="a_edge14_Node000007_Node000014"><a xlink:title=" ">
<path fill="none" stroke="#63b8ff" d="M481.76,-56.74C484.87,-56.11 488,-55.52 491,-55 614.63,-33.62 647.31,-40.06 771,-19 771.1,-18.98 771.2,-18.97 771.3,-18.95"/>
<polygon fill="#63b8ff" stroke="#63b8ff" points="771.71,-22.43 780.91,-17.17 770.44,-15.55 771.71,-22.43"/>
</a>
</g>
</g>
<!-- Node15 -->
<g id="Node000015" class="node">
<title>Node15</title>
<g id="a_Node000015"><a xlink:title=" ">
<polygon fill="#e0e0e0" stroke="#999999" points="332,-19 276,-19 276,0 332,0 332,-19"/>
<text text-anchor="middle" x="304" y="-7" font-family="Helvetica,sans-Serif" font-size="10.00">sstream</text>
</a>
</g>
</g>
<!-- Node7&#45;&gt;Node15 -->
<g id="edge15_Node000007_Node000015" class="edge">
<title>Node7&#45;&gt;Node15</title>
<g id="a_edge15_Node000007_Node000015"><a xlink:title=" ">
<path fill="none" stroke="#63b8ff" d="M428.22,-54.98C403.77,-46.23 365.47,-32.51 337.85,-22.62"/>
<polygon fill="#63b8ff" stroke="#63b8ff" points="338.81,-19.25 328.21,-19.17 336.45,-25.84 338.81,-19.25"/>
</a>
</g>
</g>
<!-- Node16 -->
<g id="Node000016" class="node">
<title>Node16</title>
<g id="a_Node000016"><a xlink:title=" ">
<polygon fill="#e0e0e0" stroke="#999999" points="406,-19 350,-19 350,0 406,0 406,-19"/>
<text text-anchor="middle" x="378" y="-7" font-family="Helvetica,sans-Serif" font-size="10.00">unistd.h</text>
</a>
</g>
</g>
<!-- Node7&#45;&gt;Node16 -->
<g id="edge16_Node000007_Node000016" class="edge">
<title>Node7&#45;&gt;Node16</title>
<g id="a_edge16_Node000007_Node000016"><a xlink:title=" ">
<path fill="none" stroke="#63b8ff" d="M440.11,-54.98C428.85,-46.92 411.71,-34.65 398.29,-25.03"/>
<polygon fill="#63b8ff" stroke="#63b8ff" points="400.27,-22.15 390.11,-19.17 396.2,-27.84 400.27,-22.15"/>
</a>
</g>
</g>
<!-- Node7&#45;&gt;Node17 -->
<g id="edge17_Node000007_Node000017" class="edge">
<title>Node7&#45;&gt;Node17</title>
<g id="a_edge17_Node000007_Node000017"><a xlink:title=" ">
<path fill="none" stroke="#63b8ff" d="M422.17,-61C363.57,-55.8 229.22,-42.47 107.54,-19.09"/>
<polygon fill="#63b8ff" stroke="#63b8ff" points="108.17,-15.64 97.68,-17.16 106.83,-22.51 108.17,-15.64"/>
</a>
</g>
</g>
<!-- Node21&#45;&gt;Node4 -->
<g id="edge28_Node000021_Node000004" class="edge">
<title>Node21&#45;&gt;Node4</title>
<g id="a_edge28_Node000021_Node000004"><a xlink:title=" ">
<path fill="none" stroke="#63b8ff" d="M244.67,-219.98C293.16,-210.74 370.65,-195.97 422.89,-186.01"/>
<polygon fill="#63b8ff" stroke="#63b8ff" points="423.82,-189.39 432.98,-184.08 422.51,-182.52 423.82,-189.39"/>
</a>
</g>
</g>
<!-- Node21&#45;&gt;Node6 -->
<g id="edge29_Node000021_Node000006" class="edge">
<title>Node21&#45;&gt;Node6</title>
<g id="a_edge29_Node000021_Node000006"><a xlink:title=" ">
<path fill="none" stroke="#63b8ff" d="M202.79,-219.65C210.63,-193.17 230.59,-112.75 204,-55 198.25,-42.52 187.09,-32.24 176.58,-24.71"/>
<polygon fill="#63b8ff" stroke="#63b8ff" points="178.3,-21.65 168.03,-19.05 174.43,-27.49 178.3,-21.65"/>
</a>
</g>
</g>
<!-- Node21&#45;&gt;Node17 -->
<g id="edge31_Node000021_Node000017" class="edge">
<title>Node21&#45;&gt;Node17</title>
<g id="a_edge31_Node000021_Node000017"><a xlink:title=" ">
<path fill="none" stroke="#63b8ff" d="M193.53,-219.8C176.66,-196.83 130.48,-132.33 100,-74 92.33,-59.32 85.32,-41.85 80.52,-28.95"/>
<polygon fill="#63b8ff" stroke="#63b8ff" points="83.74,-27.57 77.04,-19.36 77.16,-29.95 83.74,-27.57"/>
</a>
</g>
</g>
<!-- Node21&#45;&gt;Node19 -->
<g id="edge30_Node000021_Node000019" class="edge">
<title>Node21&#45;&gt;Node19</title>
<g id="a_edge30_Node000021_Node000019"><a xlink:title=" ">
<path fill="none" stroke="#63b8ff" d="M206.06,-219.66C218.31,-201.77 246.25,-161 262.22,-137.69"/>
<polygon fill="#63b8ff" stroke="#63b8ff" points="265.3,-139.39 268.07,-129.16 259.53,-135.43 265.3,-139.39"/>
</a>
</g>
</g>
<!-- Node22&#45;&gt;Node4 -->
<g id="edge33_Node000022_Node000004" class="edge">
<title>Node22&#45;&gt;Node4</title>
<g id="a_edge33_Node000022_Node000004"><a xlink:title=" ">
<path fill="none" stroke="#63b8ff" d="M421.7,-274.71C433.7,-266.81 450.21,-254.13 460,-239 468.75,-225.47 473.32,-207.64 475.66,-194.32"/>
<polygon fill="#63b8ff" stroke="#63b8ff" points="479.13,-194.8 477.15,-184.39 472.21,-193.76 479.13,-194.8"/>
</a>
</g>
</g>
<!-- Node22&#45;&gt;Node12 -->
<g id="edge39_Node000022_Node000012" class="edge">
<title>Node22&#45;&gt;Node12</title>
<g id="a_edge39_Node000022_Node000012"><a xlink:title=" ">
<path fill="none" stroke="#63b8ff" d="M470.72,-279.99C532.84,-275.13 621.19,-263.95 644,-239 698.17,-179.74 680.71,-72.24 670.81,-29.12"/>
<polygon fill="#63b8ff" stroke="#63b8ff" points="674.21,-28.29 668.44,-19.4 667.4,-29.95 674.21,-28.29"/>
</a>
</g>
</g>
<!-- Node22&#45;&gt;Node17 -->
<g id="edge41_Node000022_Node000017" class="edge">
<title>Node22&#45;&gt;Node17</title>
<g id="a_edge41_Node000022_Node000017"><a xlink:title=" ">
<path fill="none" stroke="#63b8ff" d="M343.43,-280.98C272.34,-276.85 163.18,-266.16 133,-239 71.5,-183.65 70.31,-73.43 72.55,-29.35"/>
<polygon fill="#63b8ff" stroke="#63b8ff" points="76.06,-29.41 73.2,-19.21 69.07,-28.97 76.06,-29.41"/>
</a>
</g>
</g>
<!-- Node22&#45;&gt;Node19 -->
<g id="edge40_Node000022_Node000019" class="edge">
<title>Node22&#45;&gt;Node19</title>
<g id="a_edge40_Node000022_Node000019"><a xlink:title=" ">
<path fill="none" stroke="#63b8ff" d="M366.79,-274.96C345.58,-268.48 320.76,-257.43 305,-239 280.55,-210.41 275.09,-164.75 274.05,-139.26"/>
<polygon fill="#63b8ff" stroke="#63b8ff" points="277.54,-139.02 273.83,-129.1 270.54,-139.17 277.54,-139.02"/>
</a>
</g>
</g>
<!-- Node23 -->
<g id="Node000023" class="node">
<title>Node23</title>
<g id="a_Node000023"><a xlink:href="ConfigLocationBlock_8hpp.html" target="_top" xlink:title=" ">
<polygon fill="white" stroke="#666666" points="451.5,-239 314.5,-239 314.5,-220 451.5,-220 451.5,-239"/>
<text text-anchor="middle" x="383" y="-227" font-family="Helvetica,sans-Serif" font-size="10.00">ConfigLocationBlock.hpp</text>
</a>
</g>
</g>
<!-- Node22&#45;&gt;Node23 -->
<g id="edge34_Node000022_Node000023" class="edge">
<title>Node22&#45;&gt;Node23</title>
<g id="a_edge34_Node000022_Node000023"><a xlink:title=" ">
<path fill="none" stroke="#63b8ff" d="M403.04,-274.75C399.79,-267.57 395.08,-257.18 391.05,-248.27"/>
<polygon fill="#63b8ff" stroke="#63b8ff" points="394.2,-246.75 386.89,-239.09 387.83,-249.64 394.2,-246.75"/>
</a>
</g>
</g>
<!-- Node23&#45;&gt;Node4 -->
<g id="edge35_Node000023_Node000004" class="edge">
<title>Node23&#45;&gt;Node4</title>
<g id="a_edge35_Node000023_Node000004"><a xlink:title=" ">
<path fill="none" stroke="#63b8ff" d="M398.26,-219.98C413.13,-211.69 435.98,-198.94 453.42,-189.22"/>
<polygon fill="#63b8ff" stroke="#63b8ff" points="455.43,-192.1 462.46,-184.17 452.02,-185.99 455.43,-192.1"/>
</a>
</g>
</g>
<!-- Node23&#45;&gt;Node6 -->
<g id="edge36_Node000023_Node000006" class="edge">
<title>Node23&#45;&gt;Node6</title>
<g id="a_edge36_Node000023_Node000006"><a xlink:title=" ">
<path fill="none" stroke="#63b8ff" d="M378.16,-219.72C366.47,-199 334.95,-146.08 299,-110 269.32,-80.21 256.87,-78.51 222,-55 206.48,-44.53 188.67,-33.22 174.9,-24.62"/>
<polygon fill="#63b8ff" stroke="#63b8ff" points="176.43,-21.45 166.09,-19.15 172.73,-27.4 176.43,-21.45"/>
</a>
</g>
</g>
<!-- Node23&#45;&gt;Node17 -->
<g id="edge38_Node000023_Node000017" class="edge">
<title>Node23&#45;&gt;Node17</title>
<g id="a_edge38_Node000023_Node000017"><a xlink:title=" ">
<path fill="none" stroke="#63b8ff" d="M370.89,-219.95C323.98,-186.86 153.93,-66.89 94.6,-25.03"/>
<polygon fill="#63b8ff" stroke="#63b8ff" points="96.55,-22.13 86.37,-19.22 92.52,-27.85 96.55,-22.13"/>
</a>
</g>
</g>
<!-- Node23&#45;&gt;Node20 -->
<g id="edge37_Node000023_Node000020" class="edge">
<title>Node23&#45;&gt;Node20</title>
<g id="a_edge37_Node000023_Node000020"><a xlink:title=" ">
<path fill="none" stroke="#63b8ff" d="M431.27,-219.94C463.08,-213.06 504.98,-201.6 539,-184 563.26,-171.45 587.15,-150.77 602.2,-136.43"/>
<polygon fill="#63b8ff" stroke="#63b8ff" points="604.88,-138.7 609.59,-129.21 599.99,-133.69 604.88,-138.7"/>
</a>
</g>
</g>
<!-- Node24&#45;&gt;Node6 -->
<g id="edge48_Node000024_Node000006" class="edge">
<title>Node24&#45;&gt;Node6</title>
<g id="a_edge48_Node000024_Node000006"><a xlink:title=" ">
<path fill="none" stroke="#63b8ff" d="M807.74,-62.24C700.89,-58.96 432.46,-48.41 198.83,-19.09"/>
<polygon fill="#63b8ff" stroke="#63b8ff" points="199.14,-15.6 188.78,-17.82 198.26,-22.55 199.14,-15.6"/>
</a>
</g>
</g>
<!-- Node24&#45;&gt;Node13 -->
<g id="edge50_Node000024_Node000013" class="edge">
<title>Node24&#45;&gt;Node13</title>
<g id="a_edge50_Node000024_Node000013"><a xlink:title=" ">
<path fill="none" stroke="#63b8ff" d="M835.72,-54.98C816.33,-46.42 786.19,-33.11 763.93,-23.28"/>
<polygon fill="#63b8ff" stroke="#63b8ff" points="765.19,-20.01 754.63,-19.17 762.36,-26.41 765.19,-20.01"/>
</a>
</g>
</g>
<!-- Node24&#45;&gt;Node14 -->
<g id="edge51_Node000024_Node000014" class="edge">
<title>Node24&#45;&gt;Node14</title>
<g id="a_edge51_Node000024_Node000014"><a xlink:title=" ">
<path fill="none" stroke="#63b8ff" d="M847.73,-54.75C841.46,-47.18 832.21,-36.05 824.57,-26.84"/>
<polygon fill="#63b8ff" stroke="#63b8ff" points="827.21,-24.55 818.13,-19.09 821.83,-29.02 827.21,-24.55"/>
</a>
</g>
</g>
<!-- Node25 -->
<g id="Node000025" class="node">
<title>Node25</title>
<g id="a_Node000025"><a xlink:title=" ">
<polygon fill="#e0e0e0" stroke="#999999" points="903,-19 859,-19 859,0 903,0 903,-19"/>
<text text-anchor="middle" x="881" y="-7" font-family="Helvetica,sans-Serif" font-size="10.00">ctime</text>
</a>
</g>
</g>
<!-- Node24&#45;&gt;Node25 -->
<g id="edge49_Node000024_Node000025" class="edge">
<title>Node24&#45;&gt;Node25</title>
<g id="a_edge49_Node000024_Node000025"><a xlink:title=" ">
<path fill="none" stroke="#63b8ff" d="M859.29,-54.75C862.81,-47.57 867.91,-37.18 872.28,-28.27"/>
<polygon fill="#63b8ff" stroke="#63b8ff" points="875.52,-29.61 876.79,-19.09 869.24,-26.53 875.52,-29.61"/>
</a>
</g>
</g>
<!-- Node26 -->
<g id="Node000026" class="node">
<title>Node26</title>
<g id="a_Node000026"><a xlink:title=" ">
<polygon fill="#e0e0e0" stroke="#999999" points="977,-19 921,-19 921,0 977,0 977,-19"/>
<text text-anchor="middle" x="949" y="-7" font-family="Helvetica,sans-Serif" font-size="10.00">iomanip</text>
</a>
</g>
</g>
<!-- Node24&#45;&gt;Node26 -->
<g id="edge52_Node000024_Node000026" class="edge">
<title>Node24&#45;&gt;Node26</title>
<g id="a_edge52_Node000024_Node000026"><a xlink:title=" ">
<path fill="none" stroke="#63b8ff" d="M870.1,-54.98C884.82,-46.69 907.42,-33.94 924.67,-24.22"/>
<polygon fill="#63b8ff" stroke="#63b8ff" points="926.63,-27.13 933.62,-19.17 923.19,-21.03 926.63,-27.13"/>
</a>
</g>
</g>
</g>
</svg>
