<?xml version="1.0" encoding="UTF-8" standalone="no"?>
<!DOCTYPE svg PUBLIC "-//W3C//DTD SVG 1.1//EN"
 "http://www.w3.org/Graphics/SVG/1.1/DTD/svg11.dtd">
<!-- Generated by graphviz version 2.43.0 (0)
 -->
<!-- Title: source/config/ConfigGlobalBlock.cpp Pages: 1 -->
<svg width="936pt" height="313pt"
 viewBox="0.00 0.00 935.50 313.00" xmlns="http://www.w3.org/2000/svg" xmlns:xlink="http://www.w3.org/1999/xlink">
<g id="graph0" class="graph" transform="scale(1 1) rotate(0) translate(4 309)">
<title>source/config/ConfigGlobalBlock.cpp</title>
<!-- Node1 -->
<g id="Node000001" class="node">
<title>Node1</title>
<g id="a_Node000001"><a xlink:title=" ">
<polygon fill="#999999" stroke="#666666" points="797.5,-305 651.5,-305 651.5,-275 797.5,-275 797.5,-305"/>
<text text-anchor="start" x="659.5" y="-293" font-family="Helvetica,sans-Serif" font-size="10.00">source/config/ConfigGlobal</text>
<text text-anchor="middle" x="724.5" y="-282" font-family="Helvetica,sans-Serif" font-size="10.00">Block.cpp</text>
</a>
</g>
</g>
<!-- Node2 -->
<g id="Node000002" class="node">
<title>Node2</title>
<g id="a_Node000002"><a xlink:href="ConfigGlobalBlock_8hpp.html" target="_top" xlink:title=" ">
<polygon fill="white" stroke="#666666" points="742,-239 615,-239 615,-220 742,-220 742,-239"/>
<text text-anchor="middle" x="678.5" y="-227" font-family="Helvetica,sans-Serif" font-size="10.00">ConfigGlobalBlock.hpp</text>
</a>
</g>
</g>
<!-- Node1&#45;&gt;Node2 -->
<g id="edge1_Node000001_Node000002" class="edge">
<title>Node1&#45;&gt;Node2</title>
<g id="a_edge1_Node000001_Node000002"><a xlink:title=" ">
<path fill="none" stroke="#63b8ff" d="M713.36,-274.84C706.82,-266.52 698.52,-255.96 691.66,-247.23"/>
<polygon fill="#63b8ff" stroke="#63b8ff" points="694.33,-244.96 685.39,-239.27 688.82,-249.29 694.33,-244.96"/>
</a>
</g>
</g>
<!-- Node20 -->
<g id="Node000020" class="node">
<title>Node20</title>
<g id="a_Node000020"><a xlink:href="Logger_8hpp.html" target="_top" xlink:title=" ">
<polygon fill="white" stroke="#666666" points="828.5,-74 734.5,-74 734.5,-55 828.5,-55 828.5,-74"/>
<text text-anchor="middle" x="781.5" y="-62" font-family="Helvetica,sans-Serif" font-size="10.00">utils/Logger.hpp</text>
</a>
</g>
</g>
<!-- Node1&#45;&gt;Node20 -->
<g id="edge26_Node000001_Node000020" class="edge">
<title>Node1&#45;&gt;Node20</title>
<g id="a_edge26_Node000001_Node000020"><a xlink:title=" ">
<path fill="none" stroke="#63b8ff" d="M733.84,-274.7C739.77,-265 747.11,-251.68 751.5,-239 770.29,-184.71 777.66,-116.64 780.25,-84.27"/>
<polygon fill="#63b8ff" stroke="#63b8ff" points="783.76,-84.28 781,-74.05 776.78,-83.76 783.76,-84.28"/>
</a>
</g>
</g>
<!-- Node3 -->
<g id="Node000003" class="node">
<title>Node3</title>
<g id="a_Node000003"><a xlink:href="AConfigParser_8hpp.html" target="_top" xlink:title=" ">
<polygon fill="white" stroke="#666666" points="713.5,-184 609.5,-184 609.5,-165 713.5,-165 713.5,-184"/>
<text text-anchor="middle" x="661.5" y="-172" font-family="Helvetica,sans-Serif" font-size="10.00">AConfigParser.hpp</text>
</a>
</g>
</g>
<!-- Node2&#45;&gt;Node3 -->
<g id="edge2_Node000002_Node000003" class="edge">
<title>Node2&#45;&gt;Node3</title>
<g id="a_edge2_Node000002_Node000003"><a xlink:title=" ">
<path fill="none" stroke="#63b8ff" d="M675.69,-219.75C673.44,-212.72 670.2,-202.62 667.38,-193.84"/>
<polygon fill="#63b8ff" stroke="#63b8ff" points="670.64,-192.54 664.25,-184.09 663.98,-194.68 670.64,-192.54"/>
</a>
</g>
</g>
<!-- Node18 -->
<g id="Node000018" class="node">
<title>Node18</title>
<g id="a_Node000018"><a xlink:title=" ">
<polygon fill="#e0e0e0" stroke="#999999" points="759.5,-129 727.5,-129 727.5,-110 759.5,-110 759.5,-129"/>
<text text-anchor="middle" x="743.5" y="-117" font-family="Helvetica,sans-Serif" font-size="10.00">set</text>
</a>
</g>
</g>
<!-- Node2&#45;&gt;Node18 -->
<g id="edge24_Node000002_Node000018" class="edge">
<title>Node2&#45;&gt;Node18</title>
<g id="a_edge24_Node000002_Node000018"><a xlink:title=" ">
<path fill="none" stroke="#63b8ff" d="M689.73,-219.73C699.61,-211.47 713.76,-198.27 722.5,-184 731.03,-170.08 736.52,-152.29 739.75,-139.08"/>
<polygon fill="#63b8ff" stroke="#63b8ff" points="743.18,-139.78 741.93,-129.25 736.34,-138.26 743.18,-139.78"/>
</a>
</g>
</g>
<!-- Node19 -->
<g id="Node000019" class="node">
<title>Node19</title>
<g id="a_Node000019"><a xlink:title=" ">
<polygon fill="#e0e0e0" stroke="#999999" points="459.5,-129 415.5,-129 415.5,-110 459.5,-110 459.5,-129"/>
<text text-anchor="middle" x="437.5" y="-117" font-family="Helvetica,sans-Serif" font-size="10.00">string</text>
</a>
</g>
</g>
<!-- Node2&#45;&gt;Node19 -->
<g id="edge25_Node000002_Node000019" class="edge">
<title>Node2&#45;&gt;Node19</title>
<g id="a_edge25_Node000002_Node000019"><a xlink:title=" ">
<path fill="none" stroke="#63b8ff" d="M659.19,-219.84C616.78,-200.84 515.35,-155.39 465.77,-133.17"/>
<polygon fill="#63b8ff" stroke="#63b8ff" points="467.13,-129.94 456.57,-129.05 464.27,-136.33 467.13,-129.94"/>
</a>
</g>
</g>
<!-- Node4 -->
<g id="Node000004" class="node">
<title>Node4</title>
<g id="a_Node000004"><a xlink:href="config__utils_8hpp.html" target="_top" xlink:title=" ">
<polygon fill="white" stroke="#666666" points="595,-129 478,-129 478,-110 595,-110 595,-129"/>
<text text-anchor="middle" x="536.5" y="-117" font-family="Helvetica,sans-Serif" font-size="10.00">utils/config_utils.hpp</text>
</a>
</g>
</g>
<!-- Node3&#45;&gt;Node4 -->
<g id="edge3_Node000003_Node000004" class="edge">
<title>Node3&#45;&gt;Node4</title>
<g id="a_edge3_Node000003_Node000004"><a xlink:title=" ">
<path fill="none" stroke="#63b8ff" d="M641.42,-164.98C621.13,-156.38 589.54,-142.99 566.33,-133.15"/>
<polygon fill="#63b8ff" stroke="#63b8ff" points="567.52,-129.85 556.95,-129.17 564.79,-136.3 567.52,-129.85"/>
</a>
</g>
</g>
<!-- Node5 -->
<g id="Node000005" class="node">
<title>Node5</title>
<g id="a_Node000005"><a xlink:href="defines_8hpp.html" target="_top" xlink:title=" ">
<polygon fill="white" stroke="#666666" points="713,-19 640,-19 640,0 713,0 713,-19"/>
<text text-anchor="middle" x="676.5" y="-7" font-family="Helvetica,sans-Serif" font-size="10.00">defines.hpp</text>
</a>
</g>
</g>
<!-- Node3&#45;&gt;Node5 -->
<g id="edge19_Node000003_Node000005" class="edge">
<title>Node3&#45;&gt;Node5</title>
<g id="a_edge19_Node000003_Node000005"><a xlink:title=" ">
<path fill="none" stroke="#63b8ff" d="M662.31,-164.74C664.65,-139.31 671.48,-65.08 674.73,-29.69"/>
<polygon fill="#63b8ff" stroke="#63b8ff" points="678.26,-29.59 675.69,-19.31 671.29,-28.94 678.26,-29.59"/>
</a>
</g>
</g>
<!-- Node12 -->
<g id="Node000012" class="node">
<title>Node12</title>
<g id="a_Node000012"><a xlink:title=" ">
<polygon fill="#e0e0e0" stroke="#999999" points="622,-19 567,-19 567,0 622,0 622,-19"/>
<text text-anchor="middle" x="594.5" y="-7" font-family="Helvetica,sans-Serif" font-size="10.00">fstream</text>
</a>
</g>
</g>
<!-- Node3&#45;&gt;Node12 -->
<g id="edge20_Node000003_Node000012" class="edge">
<title>Node3&#45;&gt;Node12</title>
<g id="a_edge20_Node000003_Node000012"><a xlink:title=" ">
<path fill="none" stroke="#63b8ff" d="M657.9,-164.74C647.36,-139.09 616.4,-63.78 602.01,-28.78"/>
<polygon fill="#63b8ff" stroke="#63b8ff" points="605.16,-27.23 598.12,-19.31 598.68,-29.89 605.16,-27.23"/>
</a>
</g>
</g>
<!-- Node13 -->
<g id="Node000013" class="node">
<title>Node13</title>
<g id="a_Node000013"><a xlink:title=" ">
<polygon fill="#e0e0e0" stroke="#999999" points="791.5,-19 731.5,-19 731.5,0 791.5,0 791.5,-19"/>
<text text-anchor="middle" x="761.5" y="-7" font-family="Helvetica,sans-Serif" font-size="10.00">iostream</text>
</a>
</g>
</g>
<!-- Node3&#45;&gt;Node13 -->
<g id="edge21_Node000003_Node000013" class="edge">
<title>Node3&#45;&gt;Node13</title>
<g id="a_edge21_Node000003_Node000013"><a xlink:title=" ">
<path fill="none" stroke="#63b8ff" d="M665.48,-164.86C674.85,-144.86 699.44,-94.11 725.5,-55 731.96,-45.3 740.06,-35.15 746.93,-27"/>
<polygon fill="#63b8ff" stroke="#63b8ff" points="749.67,-29.19 753.54,-19.33 744.36,-24.62 749.67,-29.19"/>
</a>
</g>
</g>
<!-- Node3&#45;&gt;Node18 -->
<g id="edge22_Node000003_Node000018" class="edge">
<title>Node3&#45;&gt;Node18</title>
<g id="a_edge22_Node000003_Node000018"><a xlink:title=" ">
<path fill="none" stroke="#63b8ff" d="M674.67,-164.98C687.27,-156.84 706.5,-144.41 721.44,-134.76"/>
<polygon fill="#63b8ff" stroke="#63b8ff" points="723.59,-137.54 730.09,-129.17 719.79,-131.66 723.59,-137.54"/>
</a>
</g>
</g>
<!-- Node3&#45;&gt;Node19 -->
<g id="edge23_Node000003_Node000019" class="edge">
<title>Node3&#45;&gt;Node19</title>
<g id="a_edge23_Node000003_Node000019"><a xlink:title=" ">
<path fill="none" stroke="#63b8ff" d="M622.2,-164.94C585.19,-156.76 527.95,-143.83 469.58,-129.2"/>
<polygon fill="#63b8ff" stroke="#63b8ff" points="470.37,-125.79 459.82,-126.74 468.66,-132.58 470.37,-125.79"/>
</a>
</g>
</g>
<!-- Node4&#45;&gt;Node5 -->
<g id="edge4_Node000004_Node000005" class="edge">
<title>Node4&#45;&gt;Node5</title>
<g id="a_edge4_Node000004_Node000005"><a xlink:title=" ">
<path fill="none" stroke="#63b8ff" d="M547.96,-109.66C571.97,-91.14 627.79,-48.08 657.35,-25.28"/>
<polygon fill="#63b8ff" stroke="#63b8ff" points="659.5,-28.04 665.28,-19.16 655.22,-22.5 659.5,-28.04"/>
</a>
</g>
</g>
<!-- Node6 -->
<g id="Node000006" class="node">
<title>Node6</title>
<g id="a_Node000006"><a xlink:href="utils_8hpp.html" target="_top" xlink:title=" ">
<polygon fill="white" stroke="#666666" points="472,-74 413,-74 413,-55 472,-55 472,-74"/>
<text text-anchor="middle" x="442.5" y="-62" font-family="Helvetica,sans-Serif" font-size="10.00">utils.hpp</text>
</a>
</g>
</g>
<!-- Node4&#45;&gt;Node6 -->
<g id="edge5_Node000004_Node000006" class="edge">
<title>Node4&#45;&gt;Node6</title>
<g id="a_edge5_Node000004_Node000006"><a xlink:title=" ">
<path fill="none" stroke="#63b8ff" d="M521.4,-109.98C506.68,-101.69 484.08,-88.94 466.83,-79.22"/>
<polygon fill="#63b8ff" stroke="#63b8ff" points="468.31,-76.03 457.88,-74.17 464.87,-82.13 468.31,-76.03"/>
</a>
</g>
</g>
<!-- Node4&#45;&gt;Node12 -->
<g id="edge17_Node000004_Node000012" class="edge">
<title>Node4&#45;&gt;Node12</title>
<g id="a_edge17_Node000004_Node000012"><a xlink:title=" ">
<path fill="none" stroke="#63b8ff" d="M540.68,-109.78C546.64,-97.47 558.01,-74.31 568.5,-55 573.41,-45.96 579.16,-36.06 584,-27.9"/>
<polygon fill="#63b8ff" stroke="#63b8ff" points="587.03,-29.65 589.16,-19.27 581.02,-26.06 587.03,-29.65"/>
</a>
</g>
</g>
<!-- Node17 -->
<g id="Node000017" class="node">
<title>Node17</title>
<g id="a_Node000017"><a xlink:title=" ">
<polygon fill="#e0e0e0" stroke="#999999" points="394.5,-74 356.5,-74 356.5,-55 394.5,-55 394.5,-74"/>
<text text-anchor="middle" x="375.5" y="-62" font-family="Helvetica,sans-Serif" font-size="10.00">map</text>
</a>
</g>
</g>
<!-- Node4&#45;&gt;Node17 -->
<g id="edge18_Node000004_Node000017" class="edge">
<title>Node4&#45;&gt;Node17</title>
<g id="a_edge18_Node000004_Node000017"><a xlink:title=" ">
<path fill="none" stroke="#63b8ff" d="M510.63,-109.98C481.56,-100.42 434.5,-84.92 404.29,-74.98"/>
<polygon fill="#63b8ff" stroke="#63b8ff" points="405.33,-71.63 394.74,-71.83 403.14,-78.28 405.33,-71.63"/>
</a>
</g>
</g>
<!-- Node6&#45;&gt;Node5 -->
<g id="edge6_Node000006_Node000005" class="edge">
<title>Node6&#45;&gt;Node5</title>
<g id="a_edge6_Node000006_Node000005"><a xlink:title=" ">
<path fill="none" stroke="#63b8ff" d="M472.14,-56.79C511.89,-47.78 582.92,-31.7 629.88,-21.06"/>
<polygon fill="#63b8ff" stroke="#63b8ff" points="630.82,-24.43 639.8,-18.81 629.28,-17.61 630.82,-24.43"/>
</a>
</g>
</g>
<!-- Node7 -->
<g id="Node000007" class="node">
<title>Node7</title>
<g id="a_Node000007"><a xlink:title=" ">
<polygon fill="#e0e0e0" stroke="#999999" points="548.5,-19 484.5,-19 484.5,0 548.5,0 548.5,-19"/>
<text text-anchor="middle" x="516.5" y="-7" font-family="Helvetica,sans-Serif" font-size="10.00">algorithm</text>
</a>
</g>
</g>
<!-- Node6&#45;&gt;Node7 -->
<g id="edge7_Node000006_Node000007" class="edge">
<title>Node6&#45;&gt;Node7</title>
<g id="a_edge7_Node000006_Node000007"><a xlink:title=" ">
<path fill="none" stroke="#63b8ff" d="M454.39,-54.98C465.65,-46.92 482.79,-34.65 496.21,-25.03"/>
<polygon fill="#63b8ff" stroke="#63b8ff" points="498.3,-27.84 504.39,-19.17 494.23,-22.15 498.3,-27.84"/>
</a>
</g>
</g>
<!-- Node8 -->
<g id="Node000008" class="node">
<title>Node8</title>
<g id="a_Node000008"><a xlink:title=" ">
<polygon fill="#e0e0e0" stroke="#999999" points="49,-19 0,-19 0,0 49,0 49,-19"/>
<text text-anchor="middle" x="24.5" y="-7" font-family="Helvetica,sans-Serif" font-size="10.00">cctype</text>
</a>
</g>
</g>
<!-- Node6&#45;&gt;Node8 -->
<g id="edge8_Node000006_Node000008" class="edge">
<title>Node6&#45;&gt;Node8</title>
<g id="a_edge8_Node000006_Node000008"><a xlink:title=" ">
<path fill="none" stroke="#63b8ff" d="M412.75,-56.66C409.64,-56.05 406.51,-55.48 403.5,-55 254.56,-31.07 212.14,-45.13 59.51,-18.91"/>
<polygon fill="#63b8ff" stroke="#63b8ff" points="59.75,-15.4 49.3,-17.13 58.54,-22.3 59.75,-15.4"/>
</a>
</g>
</g>
<!-- Node9 -->
<g id="Node000009" class="node">
<title>Node9</title>
<g id="a_Node000009"><a xlink:title=" ">
<polygon fill="#e0e0e0" stroke="#999999" points="117.5,-19 67.5,-19 67.5,0 117.5,0 117.5,-19"/>
<text text-anchor="middle" x="92.5" y="-7" font-family="Helvetica,sans-Serif" font-size="10.00">cstring</text>
</a>
</g>
</g>
<!-- Node6&#45;&gt;Node9 -->
<g id="edge9_Node000006_Node000009" class="edge">
<title>Node6&#45;&gt;Node9</title>
<g id="a_edge9_Node000006_Node000009"><a xlink:title=" ">
<path fill="none" stroke="#63b8ff" d="M412.74,-56.74C409.63,-56.12 406.5,-55.52 403.5,-55 284.41,-34.32 250.27,-41.67 127.82,-19.05"/>
<polygon fill="#63b8ff" stroke="#63b8ff" points="128.15,-15.55 117.68,-17.14 126.86,-22.43 128.15,-15.55"/>
</a>
</g>
</g>
<!-- Node10 -->
<g id="Node000010" class="node">
<title>Node10</title>
<g id="a_Node000010"><a xlink:title=" ">
<polygon fill="#e0e0e0" stroke="#999999" points="187,-19 136,-19 136,0 187,0 187,-19"/>
<text text-anchor="middle" x="161.5" y="-7" font-family="Helvetica,sans-Serif" font-size="10.00">errno.h</text>
</a>
</g>
</g>
<!-- Node6&#45;&gt;Node10 -->
<g id="edge10_Node000006_Node000010" class="edge">
<title>Node6&#45;&gt;Node10</title>
<g id="a_edge10_Node000006_Node000010"><a xlink:title=" ">
<path fill="none" stroke="#63b8ff" d="M412.72,-56.87C409.61,-56.22 406.49,-55.58 403.5,-55 314.57,-37.62 289.02,-38.32 197.09,-19.21"/>
<polygon fill="#63b8ff" stroke="#63b8ff" points="197.58,-15.74 187.07,-17.11 196.14,-22.59 197.58,-15.74"/>
</a>
</g>
</g>
<!-- Node11 -->
<g id="Node000011" class="node">
<title>Node11</title>
<g id="a_Node000011"><a xlink:title=" ">
<polygon fill="#e0e0e0" stroke="#999999" points="252,-19 205,-19 205,0 252,0 252,-19"/>
<text text-anchor="middle" x="228.5" y="-7" font-family="Helvetica,sans-Serif" font-size="10.00">fcntl.h</text>
</a>
</g>
</g>
<!-- Node6&#45;&gt;Node11 -->
<g id="edge11_Node000006_Node000011" class="edge">
<title>Node6&#45;&gt;Node11</title>
<g id="a_edge11_Node000006_Node000011"><a xlink:title=" ">
<path fill="none" stroke="#63b8ff" d="M412.69,-56.28C378.69,-48.02 321.17,-33.97 262.15,-19.14"/>
<polygon fill="#63b8ff" stroke="#63b8ff" points="262.84,-15.71 252.29,-16.66 261.13,-22.49 262.84,-15.71"/>
</a>
</g>
</g>
<!-- Node6&#45;&gt;Node12 -->
<g id="edge12_Node000006_Node000012" class="edge">
<title>Node6&#45;&gt;Node12</title>
<g id="a_edge12_Node000006_Node000012"><a xlink:title=" ">
<path fill="none" stroke="#63b8ff" d="M466.92,-54.98C492.22,-46.16 531.95,-32.31 560.36,-22.41"/>
<polygon fill="#63b8ff" stroke="#63b8ff" points="561.6,-25.68 569.89,-19.08 559.29,-19.07 561.6,-25.68"/>
</a>
</g>
</g>
<!-- Node6&#45;&gt;Node13 -->
<g id="edge13_Node000006_Node000013" class="edge">
<title>Node6&#45;&gt;Node13</title>
<g id="a_edge13_Node000006_Node000013"><a xlink:title=" ">
<path fill="none" stroke="#63b8ff" d="M472.02,-59.37C521.48,-52.34 624.43,-37.17 721.34,-19.13"/>
<polygon fill="#63b8ff" stroke="#63b8ff" points="722.12,-22.54 731.3,-17.26 720.83,-15.66 722.12,-22.54"/>
</a>
</g>
</g>
<!-- Node14 -->
<g id="Node000014" class="node">
<title>Node14</title>
<g id="a_Node000014"><a xlink:title=" ">
<polygon fill="#e0e0e0" stroke="#999999" points="326.5,-19 270.5,-19 270.5,0 326.5,0 326.5,-19"/>
<text text-anchor="middle" x="298.5" y="-7" font-family="Helvetica,sans-Serif" font-size="10.00">sstream</text>
</a>
</g>
</g>
<!-- Node6&#45;&gt;Node14 -->
<g id="edge14_Node000006_Node000014" class="edge">
<title>Node6&#45;&gt;Node14</title>
<g id="a_edge14_Node000006_Node000014"><a xlink:title=" ">
<path fill="none" stroke="#63b8ff" d="M419.36,-54.98C395.68,-46.27 358.63,-32.63 331.79,-22.75"/>
<polygon fill="#63b8ff" stroke="#63b8ff" points="332.65,-19.34 322.06,-19.17 330.23,-25.91 332.65,-19.34"/>
</a>
</g>
</g>
<!-- Node15 -->
<g id="Node000015" class="node">
<title>Node15</title>
<g id="a_Node000015"><a xlink:title=" ">
<polygon fill="#e0e0e0" stroke="#999999" points="400.5,-19 344.5,-19 344.5,0 400.5,0 400.5,-19"/>
<text text-anchor="middle" x="372.5" y="-7" font-family="Helvetica,sans-Serif" font-size="10.00">unistd.h</text>
</a>
</g>
</g>
<!-- Node6&#45;&gt;Node15 -->
<g id="edge15_Node000006_Node000015" class="edge">
<title>Node6&#45;&gt;Node15</title>
<g id="a_edge15_Node000006_Node000015"><a xlink:title=" ">
<path fill="none" stroke="#63b8ff" d="M431.25,-54.98C420.7,-47 404.7,-34.88 392.06,-25.31"/>
<polygon fill="#63b8ff" stroke="#63b8ff" points="394.04,-22.42 383.95,-19.17 389.81,-28 394.04,-22.42"/>
</a>
</g>
</g>
<!-- Node16 -->
<g id="Node000016" class="node">
<title>Node16</title>
<g id="a_Node000016"><a xlink:title=" ">
<polygon fill="#e0e0e0" stroke="#999999" points="466,-19 419,-19 419,0 466,0 466,-19"/>
<text text-anchor="middle" x="442.5" y="-7" font-family="Helvetica,sans-Serif" font-size="10.00">vector</text>
</a>
</g>
</g>
<!-- Node6&#45;&gt;Node16 -->
<g id="edge16_Node000006_Node000016" class="edge">
<title>Node6&#45;&gt;Node16</title>
<g id="a_edge16_Node000006_Node000016"><a xlink:title=" ">
<path fill="none" stroke="#63b8ff" d="M442.5,-54.75C442.5,-47.8 442.5,-37.85 442.5,-29.13"/>
<polygon fill="#63b8ff" stroke="#63b8ff" points="446,-29.09 442.5,-19.09 439,-29.09 446,-29.09"/>
</a>
</g>
</g>
<!-- Node20&#45;&gt;Node5 -->
<g id="edge27_Node000020_Node000005" class="edge">
<title>Node20&#45;&gt;Node5</title>
<g id="a_edge27_Node000020_Node000005"><a xlink:title=" ">
<path fill="none" stroke="#63b8ff" d="M764.63,-54.98C747.89,-46.54 722,-33.47 702.61,-23.68"/>
<polygon fill="#63b8ff" stroke="#63b8ff" points="704.18,-20.55 693.68,-19.17 701.03,-26.8 704.18,-20.55"/>
</a>
</g>
</g>
<!-- Node20&#45;&gt;Node12 -->
<g id="edge29_Node000020_Node000012" class="edge">
<title>Node20&#45;&gt;Node12</title>
<g id="a_edge29_Node000020_Node000012"><a xlink:title=" ">
<path fill="none" stroke="#63b8ff" d="M751.46,-54.98C718.94,-45.77 667.05,-31.06 631.91,-21.1"/>
<polygon fill="#63b8ff" stroke="#63b8ff" points="632.61,-17.66 622.03,-18.3 630.7,-24.4 632.61,-17.66"/>
</a>
</g>
</g>
<!-- Node20&#45;&gt;Node13 -->
<g id="edge30_Node000020_Node000013" class="edge">
<title>Node20&#45;&gt;Node13</title>
<g id="a_edge30_Node000020_Node000013"><a xlink:title=" ">
<path fill="none" stroke="#63b8ff" d="M778.2,-54.75C775.52,-47.65 771.65,-37.4 768.31,-28.56"/>
<polygon fill="#63b8ff" stroke="#63b8ff" points="771.55,-27.21 764.74,-19.09 765,-29.68 771.55,-27.21"/>
</a>
</g>
</g>
<!-- Node21 -->
<g id="Node000021" class="node">
<title>Node21</title>
<g id="a_Node000021"><a xlink:title=" ">
<polygon fill="#e0e0e0" stroke="#999999" points="853.5,-19 809.5,-19 809.5,0 853.5,0 853.5,-19"/>
<text text-anchor="middle" x="831.5" y="-7" font-family="Helvetica,sans-Serif" font-size="10.00">ctime</text>
</a>
</g>
</g>
<!-- Node20&#45;&gt;Node21 -->
<g id="edge28_Node000020_Node000021" class="edge">
<title>Node20&#45;&gt;Node21</title>
<g id="a_edge28_Node000020_Node000021"><a xlink:title=" ">
<path fill="none" stroke="#63b8ff" d="M789.76,-54.75C796.96,-47.11 807.61,-35.82 816.35,-26.56"/>
<polygon fill="#63b8ff" stroke="#63b8ff" points="819.08,-28.76 823.4,-19.09 813.99,-23.96 819.08,-28.76"/>
</a>
</g>
</g>
<!-- Node22 -->
<g id="Node000022" class="node">
<title>Node22</title>
<g id="a_Node000022"><a xlink:title=" ">
<polygon fill="#e0e0e0" stroke="#999999" points="927.5,-19 871.5,-19 871.5,0 927.5,0 927.5,-19"/>
<text text-anchor="middle" x="899.5" y="-7" font-family="Helvetica,sans-Serif" font-size="10.00">iomanip</text>
</a>
</g>
</g>
<!-- Node20&#45;&gt;Node22 -->
<g id="edge31_Node000020_Node000022" class="edge">
<title>Node20&#45;&gt;Node22</title>
<g id="a_edge31_Node000020_Node000022"><a xlink:title=" ">
<path fill="none" stroke="#63b8ff" d="M800.46,-54.98C819.53,-46.42 849.16,-33.11 871.05,-23.28"/>
<polygon fill="#63b8ff" stroke="#63b8ff" points="872.51,-26.46 880.2,-19.17 869.64,-20.07 872.51,-26.46"/>
</a>
</g>
</g>
</g>
</svg>
