<?xml version="1.0" encoding="UTF-8" standalone="no"?>
<!DOCTYPE svg PUBLIC "-//W3C//DTD SVG 1.1//EN"
 "http://www.w3.org/Graphics/SVG/1.1/DTD/svg11.dtd">
<!-- Generated by graphviz version 2.43.0 (0)
 -->
<!-- Title: source/config/ConfigLocationBlock.cpp Pages: 1 -->
<svg width="935pt" height="313pt"
 viewBox="0.00 0.00 934.50 313.00" xmlns="http://www.w3.org/2000/svg" xmlns:xlink="http://www.w3.org/1999/xlink">
<g id="graph0" class="graph" transform="scale(1 1) rotate(0) translate(4 309)">
<title>source/config/ConfigLocationBlock.cpp</title>
<!-- Node1 -->
<g id="Node000001" class="node">
<title>Node1</title>
<g id="a_Node000001"><a xlink:title=" ">
<polygon fill="#999999" stroke="#666666" points="596,-305 440,-305 440,-275 596,-275 596,-305"/>
<text text-anchor="start" x="448" y="-293" font-family="Helvetica,sans-Serif" font-size="10.00">source/config/ConfigLocation</text>
<text text-anchor="middle" x="518" y="-282" font-family="Helvetica,sans-Serif" font-size="10.00">Block.cpp</text>
</a>
</g>
</g>
<!-- Node2 -->
<g id="Node000002" class="node">
<title>Node2</title>
<g id="a_Node000002"><a xlink:href="ConfigLocationBlock_8hpp.html" target="_top" xlink:title=" ">
<polygon fill="white" stroke="#666666" points="723.5,-239 586.5,-239 586.5,-220 723.5,-220 723.5,-239"/>
<text text-anchor="middle" x="655" y="-227" font-family="Helvetica,sans-Serif" font-size="10.00">ConfigLocationBlock.hpp</text>
</a>
</g>
</g>
<!-- Node1&#45;&gt;Node2 -->
<g id="edge1_Node000001_Node000002" class="edge">
<title>Node1&#45;&gt;Node2</title>
<g id="a_edge1_Node000001_Node000002"><a xlink:title=" ">
<path fill="none" stroke="#63b8ff" d="M550.81,-274.99C573.47,-265.31 603.35,-252.56 625.3,-243.18"/>
<polygon fill="#63b8ff" stroke="#63b8ff" points="626.95,-246.29 634.77,-239.14 624.2,-239.85 626.95,-246.29"/>
</a>
</g>
</g>
<!-- Node5 -->
<g id="Node000005" class="node">
<title>Node5</title>
<g id="a_Node000005"><a xlink:href="defines_8hpp.html" target="_top" xlink:title=" ">
<polygon fill="white" stroke="#666666" points="861.5,-19 788.5,-19 788.5,0 861.5,0 861.5,-19"/>
<text text-anchor="middle" x="825" y="-7" font-family="Helvetica,sans-Serif" font-size="10.00">defines.hpp</text>
</a>
</g>
</g>
<!-- Node1&#45;&gt;Node5 -->
<g id="edge27_Node000001_Node000005" class="edge">
<title>Node1&#45;&gt;Node5</title>
<g id="a_edge27_Node000001_Node000005"><a xlink:title=" ">
<path fill="none" stroke="#63b8ff" d="M596.25,-283.07C639.21,-276.92 691.94,-264.41 733,-239 807.12,-193.14 827.43,-160.39 839,-74 840.12,-65.63 840.28,-63.35 839,-55 837.65,-46.19 834.87,-36.74 832.15,-28.82"/>
<polygon fill="#63b8ff" stroke="#63b8ff" points="835.34,-27.35 828.6,-19.18 828.77,-29.77 835.34,-27.35"/>
</a>
</g>
</g>
<!-- Node6 -->
<g id="Node000006" class="node">
<title>Node6</title>
<g id="a_Node000006"><a xlink:href="utils_8hpp.html" target="_top" xlink:title=" ">
<polygon fill="white" stroke="#666666" points="576.5,-74 517.5,-74 517.5,-55 576.5,-55 576.5,-74"/>
<text text-anchor="middle" x="547" y="-62" font-family="Helvetica,sans-Serif" font-size="10.00">utils.hpp</text>
</a>
</g>
</g>
<!-- Node1&#45;&gt;Node6 -->
<g id="edge34_Node000001_Node000006" class="edge">
<title>Node1&#45;&gt;Node6</title>
<g id="a_edge34_Node000001_Node000006"><a xlink:title=" ">
<path fill="none" stroke="#63b8ff" d="M503.16,-274.65C472.35,-243.06 407.24,-165.92 444,-110 458.07,-88.59 484.88,-77.43 507.61,-71.64"/>
<polygon fill="#63b8ff" stroke="#63b8ff" points="508.42,-75.05 517.39,-69.41 506.86,-68.23 508.42,-75.05"/>
</a>
</g>
</g>
<!-- Node20 -->
<g id="Node000020" class="node">
<title>Node20</title>
<g id="a_Node000020"><a xlink:href="Logger_8hpp.html" target="_top" xlink:title=" ">
<polygon fill="white" stroke="#666666" points="323,-74 229,-74 229,-55 323,-55 323,-74"/>
<text text-anchor="middle" x="276" y="-62" font-family="Helvetica,sans-Serif" font-size="10.00">utils/Logger.hpp</text>
</a>
</g>
</g>
<!-- Node1&#45;&gt;Node20 -->
<g id="edge28_Node000001_Node000020" class="edge">
<title>Node1&#45;&gt;Node20</title>
<g id="a_edge28_Node000001_Node000020"><a xlink:title=" ">
<path fill="none" stroke="#63b8ff" d="M499.75,-274.97C487.21,-265.17 470.31,-251.62 456,-239 392.95,-183.39 322.27,-112.61 291.59,-81.45"/>
<polygon fill="#63b8ff" stroke="#63b8ff" points="293.87,-78.77 284.36,-74.08 288.87,-83.67 293.87,-78.77"/>
</a>
</g>
</g>
<!-- Node3 -->
<g id="Node000003" class="node">
<title>Node3</title>
<g id="a_Node000003"><a xlink:href="AConfigParser_8hpp.html" target="_top" xlink:title=" ">
<polygon fill="white" stroke="#666666" points="707,-184 603,-184 603,-165 707,-165 707,-184"/>
<text text-anchor="middle" x="655" y="-172" font-family="Helvetica,sans-Serif" font-size="10.00">AConfigParser.hpp</text>
</a>
</g>
</g>
<!-- Node2&#45;&gt;Node3 -->
<g id="edge2_Node000002_Node000003" class="edge">
<title>Node2&#45;&gt;Node3</title>
<g id="a_edge2_Node000002_Node000003"><a xlink:title=" ">
<path fill="none" stroke="#63b8ff" d="M655,-219.75C655,-212.8 655,-202.85 655,-194.13"/>
<polygon fill="#63b8ff" stroke="#63b8ff" points="658.5,-194.09 655,-184.09 651.5,-194.09 658.5,-194.09"/>
</a>
</g>
</g>
<!-- Node2&#45;&gt;Node5 -->
<g id="edge24_Node000002_Node000005" class="edge">
<title>Node2&#45;&gt;Node5</title>
<g id="a_edge24_Node000002_Node000005"><a xlink:title=" ">
<path fill="none" stroke="#63b8ff" d="M678.92,-219.95C713.14,-206.38 775.34,-176.47 806,-129 825.81,-98.33 827.4,-54.12 826.44,-29.28"/>
<polygon fill="#63b8ff" stroke="#63b8ff" points="829.92,-28.85 825.85,-19.07 822.93,-29.25 829.92,-28.85"/>
</a>
</g>
</g>
<!-- Node16 -->
<g id="Node000016" class="node">
<title>Node16</title>
<g id="a_Node000016"><a xlink:title=" ">
<polygon fill="#e0e0e0" stroke="#999999" points="926.5,-19 879.5,-19 879.5,0 926.5,0 926.5,-19"/>
<text text-anchor="middle" x="903" y="-7" font-family="Helvetica,sans-Serif" font-size="10.00">vector</text>
</a>
</g>
</g>
<!-- Node2&#45;&gt;Node16 -->
<g id="edge26_Node000002_Node000016" class="edge">
<title>Node2&#45;&gt;Node16</title>
<g id="a_edge26_Node000002_Node000016"><a xlink:title=" ">
<path fill="none" stroke="#63b8ff" d="M691.57,-219.95C716.55,-212.95 749.58,-201.35 775,-184 835.21,-142.89 877.9,-63.9 894.87,-28.47"/>
<polygon fill="#63b8ff" stroke="#63b8ff" points="898.08,-29.87 899.14,-19.33 891.74,-26.91 898.08,-29.87"/>
</a>
</g>
</g>
<!-- Node19 -->
<g id="Node000019" class="node">
<title>Node19</title>
<g id="a_Node000019"><a xlink:title=" ">
<polygon fill="#e0e0e0" stroke="#999999" points="497,-129 453,-129 453,-110 497,-110 497,-129"/>
<text text-anchor="middle" x="475" y="-117" font-family="Helvetica,sans-Serif" font-size="10.00">string</text>
</a>
</g>
</g>
<!-- Node2&#45;&gt;Node19 -->
<g id="edge25_Node000002_Node000019" class="edge">
<title>Node2&#45;&gt;Node19</title>
<g id="a_edge25_Node000002_Node000019"><a xlink:title=" ">
<path fill="none" stroke="#63b8ff" d="M640.57,-219.84C609.5,-201.2 536.02,-157.11 498.27,-134.46"/>
<polygon fill="#63b8ff" stroke="#63b8ff" points="499.87,-131.34 489.49,-129.2 496.27,-137.34 499.87,-131.34"/>
</a>
</g>
</g>
<!-- Node4 -->
<g id="Node000004" class="node">
<title>Node4</title>
<g id="a_Node000004"><a xlink:href="config__utils_8hpp.html" target="_top" xlink:title=" ">
<polygon fill="white" stroke="#666666" points="670.5,-129 553.5,-129 553.5,-110 670.5,-110 670.5,-129"/>
<text text-anchor="middle" x="612" y="-117" font-family="Helvetica,sans-Serif" font-size="10.00">utils/config_utils.hpp</text>
</a>
</g>
</g>
<!-- Node3&#45;&gt;Node4 -->
<g id="edge3_Node000003_Node000004" class="edge">
<title>Node3&#45;&gt;Node4</title>
<g id="a_edge3_Node000003_Node000004"><a xlink:title=" ">
<path fill="none" stroke="#63b8ff" d="M647.9,-164.75C641.83,-157.26 632.91,-146.28 625.49,-137.13"/>
<polygon fill="#63b8ff" stroke="#63b8ff" points="627.99,-134.65 618.97,-129.09 622.55,-139.06 627.99,-134.65"/>
</a>
</g>
</g>
<!-- Node3&#45;&gt;Node5 -->
<g id="edge19_Node000003_Node000005" class="edge">
<title>Node3&#45;&gt;Node5</title>
<g id="a_edge19_Node000003_Node000005"><a xlink:title=" ">
<path fill="none" stroke="#63b8ff" d="M664.14,-164.74C691.47,-138.53 772.84,-60.51 808.24,-26.57"/>
<polygon fill="#63b8ff" stroke="#63b8ff" points="811.02,-28.75 815.81,-19.31 806.17,-23.7 811.02,-28.75"/>
</a>
</g>
</g>
<!-- Node12 -->
<g id="Node000012" class="node">
<title>Node12</title>
<g id="a_Node000012"><a xlink:title=" ">
<polygon fill="#e0e0e0" stroke="#999999" points="770.5,-19 715.5,-19 715.5,0 770.5,0 770.5,-19"/>
<text text-anchor="middle" x="743" y="-7" font-family="Helvetica,sans-Serif" font-size="10.00">fstream</text>
</a>
</g>
</g>
<!-- Node3&#45;&gt;Node12 -->
<g id="edge20_Node000003_Node000012" class="edge">
<title>Node3&#45;&gt;Node12</title>
<g id="a_edge20_Node000003_Node000012"><a xlink:title=" ">
<path fill="none" stroke="#63b8ff" d="M660.04,-164.67C665.13,-155.71 673.2,-141.44 680,-129 699.47,-93.38 721.62,-51.36 733.78,-28.15"/>
<polygon fill="#63b8ff" stroke="#63b8ff" points="736.95,-29.64 738.48,-19.16 730.75,-26.4 736.95,-29.64"/>
</a>
</g>
</g>
<!-- Node13 -->
<g id="Node000013" class="node">
<title>Node13</title>
<g id="a_Node000013"><a xlink:title=" ">
<polygon fill="#e0e0e0" stroke="#999999" points="196,-19 136,-19 136,0 196,0 196,-19"/>
<text text-anchor="middle" x="166" y="-7" font-family="Helvetica,sans-Serif" font-size="10.00">iostream</text>
</a>
</g>
</g>
<!-- Node3&#45;&gt;Node13 -->
<g id="edge21_Node000003_Node000013" class="edge">
<title>Node3&#45;&gt;Node13</title>
<g id="a_edge21_Node000003_Node000013"><a xlink:title=" ">
<path fill="none" stroke="#63b8ff" d="M632.48,-164.91C610.11,-156.26 574.92,-142.32 545,-129 527.39,-121.16 523.91,-117.15 506,-110 430.67,-79.94 409.86,-77.73 332,-55 289.17,-42.5 239.74,-29.42 206.03,-20.7"/>
<polygon fill="#63b8ff" stroke="#63b8ff" points="206.66,-17.25 196.1,-18.14 204.91,-24.03 206.66,-17.25"/>
</a>
</g>
</g>
<!-- Node18 -->
<g id="Node000018" class="node">
<title>Node18</title>
<g id="a_Node000018"><a xlink:title=" ">
<polygon fill="#e0e0e0" stroke="#999999" points="797,-129 765,-129 765,-110 797,-110 797,-129"/>
<text text-anchor="middle" x="781" y="-117" font-family="Helvetica,sans-Serif" font-size="10.00">set</text>
</a>
</g>
</g>
<!-- Node3&#45;&gt;Node18 -->
<g id="edge22_Node000003_Node000018" class="edge">
<title>Node3&#45;&gt;Node18</title>
<g id="a_edge22_Node000003_Node000018"><a xlink:title=" ">
<path fill="none" stroke="#63b8ff" d="M675.24,-164.98C697.04,-155.82 731.75,-141.22 755.42,-131.26"/>
<polygon fill="#63b8ff" stroke="#63b8ff" points="756.95,-134.41 764.81,-127.31 754.24,-127.96 756.95,-134.41"/>
</a>
</g>
</g>
<!-- Node3&#45;&gt;Node19 -->
<g id="edge23_Node000003_Node000019" class="edge">
<title>Node3&#45;&gt;Node19</title>
<g id="a_edge23_Node000003_Node000019"><a xlink:title=" ">
<path fill="none" stroke="#63b8ff" d="M626.08,-164.98C593.48,-155.39 540.63,-139.82 506.86,-129.88"/>
<polygon fill="#63b8ff" stroke="#63b8ff" points="507.62,-126.46 497.04,-126.99 505.64,-133.17 507.62,-126.46"/>
</a>
</g>
</g>
<!-- Node4&#45;&gt;Node5 -->
<g id="edge4_Node000004_Node000005" class="edge">
<title>Node4&#45;&gt;Node5</title>
<g id="a_edge4_Node000004_Node000005"><a xlink:title=" ">
<path fill="none" stroke="#63b8ff" d="M629.07,-109.84C666.32,-90.96 755.07,-45.96 799.19,-23.59"/>
<polygon fill="#63b8ff" stroke="#63b8ff" points="800.81,-26.69 808.14,-19.05 797.64,-20.45 800.81,-26.69"/>
</a>
</g>
</g>
<!-- Node4&#45;&gt;Node6 -->
<g id="edge5_Node000004_Node000006" class="edge">
<title>Node4&#45;&gt;Node6</title>
<g id="a_edge5_Node000004_Node000006"><a xlink:title=" ">
<path fill="none" stroke="#63b8ff" d="M601.56,-109.98C591.85,-102.07 577.18,-90.11 565.5,-80.58"/>
<polygon fill="#63b8ff" stroke="#63b8ff" points="567.6,-77.78 557.63,-74.17 563.17,-83.2 567.6,-77.78"/>
</a>
</g>
</g>
<!-- Node4&#45;&gt;Node12 -->
<g id="edge17_Node000004_Node000012" class="edge">
<title>Node4&#45;&gt;Node12</title>
<g id="a_edge17_Node000004_Node000012"><a xlink:title=" ">
<path fill="none" stroke="#63b8ff" d="M611.13,-109.57C610.33,-96.12 610.85,-70.62 624,-55 634.79,-42.19 674.64,-28.92 705.28,-20.24"/>
<polygon fill="#63b8ff" stroke="#63b8ff" points="706.56,-23.52 715.27,-17.49 704.7,-16.78 706.56,-23.52"/>
</a>
</g>
</g>
<!-- Node17 -->
<g id="Node000017" class="node">
<title>Node17</title>
<g id="a_Node000017"><a xlink:title=" ">
<polygon fill="#e0e0e0" stroke="#999999" points="671,-74 633,-74 633,-55 671,-55 671,-74"/>
<text text-anchor="middle" x="652" y="-62" font-family="Helvetica,sans-Serif" font-size="10.00">map</text>
</a>
</g>
</g>
<!-- Node4&#45;&gt;Node17 -->
<g id="edge18_Node000004_Node000017" class="edge">
<title>Node4&#45;&gt;Node17</title>
<g id="a_edge18_Node000004_Node000017"><a xlink:title=" ">
<path fill="none" stroke="#63b8ff" d="M618.61,-109.75C624.26,-102.26 632.54,-91.28 639.45,-82.13"/>
<polygon fill="#63b8ff" stroke="#63b8ff" points="642.29,-84.18 645.52,-74.09 636.7,-79.96 642.29,-84.18"/>
</a>
</g>
</g>
<!-- Node6&#45;&gt;Node5 -->
<g id="edge6_Node000006_Node000005" class="edge">
<title>Node6&#45;&gt;Node5</title>
<g id="a_edge6_Node000006_Node000005"><a xlink:title=" ">
<path fill="none" stroke="#63b8ff" d="M576.75,-57.83C625.11,-48.61 721.14,-30.3 778.55,-19.35"/>
<polygon fill="#63b8ff" stroke="#63b8ff" points="779.29,-22.78 788.46,-17.47 777.98,-15.9 779.29,-22.78"/>
</a>
</g>
</g>
<!-- Node7 -->
<g id="Node000007" class="node">
<title>Node7</title>
<g id="a_Node000007"><a xlink:title=" ">
<polygon fill="#e0e0e0" stroke="#999999" points="492,-19 428,-19 428,0 492,0 492,-19"/>
<text text-anchor="middle" x="460" y="-7" font-family="Helvetica,sans-Serif" font-size="10.00">algorithm</text>
</a>
</g>
</g>
<!-- Node6&#45;&gt;Node7 -->
<g id="edge7_Node000006_Node000007" class="edge">
<title>Node6&#45;&gt;Node7</title>
<g id="a_edge7_Node000006_Node000007"><a xlink:title=" ">
<path fill="none" stroke="#63b8ff" d="M533.02,-54.98C519.53,-46.77 498.87,-34.18 482.96,-24.49"/>
<polygon fill="#63b8ff" stroke="#63b8ff" points="484.59,-21.38 474.23,-19.17 480.95,-27.36 484.59,-21.38"/>
</a>
</g>
</g>
<!-- Node8 -->
<g id="Node000008" class="node">
<title>Node8</title>
<g id="a_Node000008"><a xlink:title=" ">
<polygon fill="#e0e0e0" stroke="#999999" points="559.5,-19 510.5,-19 510.5,0 559.5,0 559.5,-19"/>
<text text-anchor="middle" x="535" y="-7" font-family="Helvetica,sans-Serif" font-size="10.00">cctype</text>
</a>
</g>
</g>
<!-- Node6&#45;&gt;Node8 -->
<g id="edge8_Node000006_Node000008" class="edge">
<title>Node6&#45;&gt;Node8</title>
<g id="a_edge8_Node000006_Node000008"><a xlink:title=" ">
<path fill="none" stroke="#63b8ff" d="M545.02,-54.75C543.43,-47.72 541.14,-37.62 539.15,-28.84"/>
<polygon fill="#63b8ff" stroke="#63b8ff" points="542.57,-28.07 536.94,-19.09 535.74,-29.62 542.57,-28.07"/>
</a>
</g>
</g>
<!-- Node9 -->
<g id="Node000009" class="node">
<title>Node9</title>
<g id="a_Node000009"><a xlink:title=" ">
<polygon fill="#e0e0e0" stroke="#999999" points="628,-19 578,-19 578,0 628,0 628,-19"/>
<text text-anchor="middle" x="603" y="-7" font-family="Helvetica,sans-Serif" font-size="10.00">cstring</text>
</a>
</g>
</g>
<!-- Node6&#45;&gt;Node9 -->
<g id="edge9_Node000006_Node000009" class="edge">
<title>Node6&#45;&gt;Node9</title>
<g id="a_edge9_Node000006_Node000009"><a xlink:title=" ">
<path fill="none" stroke="#63b8ff" d="M556,-54.98C564.19,-47.23 576.51,-35.58 586.47,-26.14"/>
<polygon fill="#63b8ff" stroke="#63b8ff" points="588.98,-28.59 593.84,-19.17 584.17,-23.5 588.98,-28.59"/>
</a>
</g>
</g>
<!-- Node10 -->
<g id="Node000010" class="node">
<title>Node10</title>
<g id="a_Node000010"><a xlink:title=" ">
<polygon fill="#e0e0e0" stroke="#999999" points="697.5,-19 646.5,-19 646.5,0 697.5,0 697.5,-19"/>
<text text-anchor="middle" x="672" y="-7" font-family="Helvetica,sans-Serif" font-size="10.00">errno.h</text>
</a>
</g>
</g>
<!-- Node6&#45;&gt;Node10 -->
<g id="edge10_Node000006_Node000010" class="edge">
<title>Node6&#45;&gt;Node10</title>
<g id="a_edge10_Node000006_Node000010"><a xlink:title=" ">
<path fill="none" stroke="#63b8ff" d="M567.08,-54.98C587.37,-46.38 618.96,-32.99 642.17,-23.15"/>
<polygon fill="#63b8ff" stroke="#63b8ff" points="643.71,-26.3 651.55,-19.17 640.98,-19.85 643.71,-26.3"/>
</a>
</g>
</g>
<!-- Node11 -->
<g id="Node000011" class="node">
<title>Node11</title>
<g id="a_Node000011"><a xlink:title=" ">
<polygon fill="#e0e0e0" stroke="#999999" points="261.5,-19 214.5,-19 214.5,0 261.5,0 261.5,-19"/>
<text text-anchor="middle" x="238" y="-7" font-family="Helvetica,sans-Serif" font-size="10.00">fcntl.h</text>
</a>
</g>
</g>
<!-- Node6&#45;&gt;Node11 -->
<g id="edge11_Node000006_Node000011" class="edge">
<title>Node6&#45;&gt;Node11</title>
<g id="a_edge11_Node000006_Node000011"><a xlink:title=" ">
<path fill="none" stroke="#63b8ff" d="M517.21,-57.59C512.46,-56.69 507.6,-55.8 503,-55 403.31,-37.64 374.91,-39.88 271.62,-18.94"/>
<polygon fill="#63b8ff" stroke="#63b8ff" points="272.23,-15.49 261.73,-16.91 270.82,-22.35 272.23,-15.49"/>
</a>
</g>
</g>
<!-- Node6&#45;&gt;Node12 -->
<g id="edge12_Node000006_Node000012" class="edge">
<title>Node6&#45;&gt;Node12</title>
<g id="a_edge12_Node000006_Node000012"><a xlink:title=" ">
<path fill="none" stroke="#63b8ff" d="M576.77,-55.45C611.22,-46.13 668.02,-30.77 705.47,-20.65"/>
<polygon fill="#63b8ff" stroke="#63b8ff" points="706.75,-23.93 715.49,-17.94 704.92,-17.17 706.75,-23.93"/>
</a>
</g>
</g>
<!-- Node6&#45;&gt;Node13 -->
<g id="edge13_Node000006_Node000013" class="edge">
<title>Node6&#45;&gt;Node13</title>
<g id="a_edge13_Node000006_Node000013"><a xlink:title=" ">
<path fill="none" stroke="#63b8ff" d="M517.23,-57.45C512.48,-56.57 507.61,-55.72 503,-55 374.42,-34.84 338.29,-40.91 206.27,-19.07"/>
<polygon fill="#63b8ff" stroke="#63b8ff" points="206.62,-15.57 196.18,-17.37 205.46,-22.48 206.62,-15.57"/>
</a>
</g>
</g>
<!-- Node14 -->
<g id="Node000014" class="node">
<title>Node14</title>
<g id="a_Node000014"><a xlink:title=" ">
<polygon fill="#e0e0e0" stroke="#999999" points="336,-19 280,-19 280,0 336,0 336,-19"/>
<text text-anchor="middle" x="308" y="-7" font-family="Helvetica,sans-Serif" font-size="10.00">sstream</text>
</a>
</g>
</g>
<!-- Node6&#45;&gt;Node14 -->
<g id="edge14_Node000006_Node000014" class="edge">
<title>Node6&#45;&gt;Node14</title>
<g id="a_edge14_Node000006_Node000014"><a xlink:title=" ">
<path fill="none" stroke="#63b8ff" d="M517.2,-57.02C479.63,-48.84 412.78,-34.21 346.11,-19.23"/>
<polygon fill="#63b8ff" stroke="#63b8ff" points="346.8,-15.8 336.28,-17.02 345.26,-22.63 346.8,-15.8"/>
</a>
</g>
</g>
<!-- Node15 -->
<g id="Node000015" class="node">
<title>Node15</title>
<g id="a_Node000015"><a xlink:title=" ">
<polygon fill="#e0e0e0" stroke="#999999" points="410,-19 354,-19 354,0 410,0 410,-19"/>
<text text-anchor="middle" x="382" y="-7" font-family="Helvetica,sans-Serif" font-size="10.00">unistd.h</text>
</a>
</g>
</g>
<!-- Node6&#45;&gt;Node15 -->
<g id="edge15_Node000006_Node000015" class="edge">
<title>Node6&#45;&gt;Node15</title>
<g id="a_edge15_Node000006_Node000015"><a xlink:title=" ">
<path fill="none" stroke="#63b8ff" d="M520.49,-54.98C492.79,-46.09 449.14,-32.07 418.26,-22.15"/>
<polygon fill="#63b8ff" stroke="#63b8ff" points="419.31,-18.81 408.72,-19.08 417.17,-25.47 419.31,-18.81"/>
</a>
</g>
</g>
<!-- Node6&#45;&gt;Node16 -->
<g id="edge16_Node000006_Node000016" class="edge">
<title>Node6&#45;&gt;Node16</title>
<g id="a_edge16_Node000006_Node000016"><a xlink:title=" ">
<path fill="none" stroke="#63b8ff" d="M576.66,-59.9C642.19,-51.88 798.49,-32.32 869.13,-19.12"/>
<polygon fill="#63b8ff" stroke="#63b8ff" points="870.16,-22.49 879.31,-17.14 868.83,-15.61 870.16,-22.49"/>
</a>
</g>
</g>
<!-- Node20&#45;&gt;Node5 -->
<g id="edge29_Node000020_Node000005" class="edge">
<title>Node20&#45;&gt;Node5</title>
<g id="a_edge29_Node000020_Node000005"><a xlink:title=" ">
<path fill="none" stroke="#63b8ff" d="M323.08,-60.9C410.75,-55.72 605.13,-42.64 778.16,-19.14"/>
<polygon fill="#63b8ff" stroke="#63b8ff" points="778.78,-22.58 788.21,-17.75 777.83,-15.65 778.78,-22.58"/>
</a>
</g>
</g>
<!-- Node20&#45;&gt;Node12 -->
<g id="edge31_Node000020_Node000012" class="edge">
<title>Node20&#45;&gt;Node12</title>
<g id="a_edge31_Node000020_Node000012"><a xlink:title=" ">
<path fill="none" stroke="#63b8ff" d="M323.14,-60.63C400.91,-55.46 561.08,-42.98 705.25,-19.11"/>
<polygon fill="#63b8ff" stroke="#63b8ff" points="705.88,-22.55 715.16,-17.45 704.72,-15.65 705.88,-22.55"/>
</a>
</g>
</g>
<!-- Node20&#45;&gt;Node13 -->
<g id="edge32_Node000020_Node000013" class="edge">
<title>Node20&#45;&gt;Node13</title>
<g id="a_edge32_Node000020_Node000013"><a xlink:title=" ">
<path fill="none" stroke="#63b8ff" d="M258.33,-54.98C240.71,-46.5 213.42,-33.35 193.07,-23.54"/>
<polygon fill="#63b8ff" stroke="#63b8ff" points="194.52,-20.36 183.99,-19.17 191.48,-26.66 194.52,-20.36"/>
</a>
</g>
</g>
<!-- Node21 -->
<g id="Node000021" class="node">
<title>Node21</title>
<g id="a_Node000021"><a xlink:title=" ">
<polygon fill="#e0e0e0" stroke="#999999" points="118,-19 74,-19 74,0 118,0 118,-19"/>
<text text-anchor="middle" x="96" y="-7" font-family="Helvetica,sans-Serif" font-size="10.00">ctime</text>
</a>
</g>
</g>
<!-- Node20&#45;&gt;Node21 -->
<g id="edge30_Node000020_Node000021" class="edge">
<title>Node20&#45;&gt;Node21</title>
<g id="a_edge30_Node000020_Node000021"><a xlink:title=" ">
<path fill="none" stroke="#63b8ff" d="M247.08,-54.98C214.48,-45.39 161.63,-29.82 127.86,-19.88"/>
<polygon fill="#63b8ff" stroke="#63b8ff" points="128.62,-16.46 118.04,-16.99 126.64,-23.17 128.62,-16.46"/>
</a>
</g>
</g>
<!-- Node22 -->
<g id="Node000022" class="node">
<title>Node22</title>
<g id="a_Node000022"><a xlink:title=" ">
<polygon fill="#e0e0e0" stroke="#999999" points="56,-19 0,-19 0,0 56,0 56,-19"/>
<text text-anchor="middle" x="28" y="-7" font-family="Helvetica,sans-Serif" font-size="10.00">iomanip</text>
</a>
</g>
</g>
<!-- Node20&#45;&gt;Node22 -->
<g id="edge33_Node000020_Node000022" class="edge">
<title>Node20&#45;&gt;Node22</title>
<g id="a_edge33_Node000020_Node000022"><a xlink:title=" ">
<path fill="none" stroke="#63b8ff" d="M234.32,-54.94C193.8,-46.57 130.26,-33.3 66.15,-19.22"/>
<polygon fill="#63b8ff" stroke="#63b8ff" points="66.79,-15.78 56.27,-17.05 65.28,-22.62 66.79,-15.78"/>
</a>
</g>
</g>
</g>
</svg>
