<?xml version="1.0" encoding="UTF-8" standalone="no"?>
<!DOCTYPE svg PUBLIC "-//W3C//DTD SVG 1.1//EN"
 "http://www.w3.org/Graphics/SVG/1.1/DTD/svg11.dtd">
<!-- Generated by graphviz version 2.43.0 (0)
 -->
<!-- Title: include/config/ConfigLocationBlock.hpp Pages: 1 -->
<svg width="798pt" height="258pt"
 viewBox="0.00 0.00 798.00 258.00" xmlns="http://www.w3.org/2000/svg" xmlns:xlink="http://www.w3.org/1999/xlink">
<g id="graph0" class="graph" transform="scale(1 1) rotate(0) translate(4 254)">
<title>include/config/ConfigLocationBlock.hpp</title>
<!-- Node1 -->
<g id="Node000001" class="node">
<title>Node1</title>
<g id="a_Node000001"><a xlink:title=" ">
<polygon fill="#999999" stroke="#666666" points="517,-250 358,-250 358,-220 517,-220 517,-250"/>
<text text-anchor="start" x="366" y="-238" font-family="Helvetica,sans-Serif" font-size="10.00">include/config/ConfigLocation</text>
<text text-anchor="middle" x="437.5" y="-227" font-family="Helvetica,sans-Serif" font-size="10.00">Block.hpp</text>
</a>
</g>
</g>
<!-- Node2 -->
<g id="Node000002" class="node">
<title>Node2</title>
<g id="a_Node000002"><a xlink:href="AConfigParser_8hpp.html" target="_top" xlink:title=" ">
<polygon fill="white" stroke="#666666" points="403.5,-184 299.5,-184 299.5,-165 403.5,-165 403.5,-184"/>
<text text-anchor="middle" x="351.5" y="-172" font-family="Helvetica,sans-Serif" font-size="10.00">AConfigParser.hpp</text>
</a>
</g>
</g>
<!-- Node1&#45;&gt;Node2 -->
<g id="edge1_Node000001_Node000002" class="edge">
<title>Node1&#45;&gt;Node2</title>
<g id="a_edge1_Node000001_Node000002"><a xlink:title=" ">
<path fill="none" stroke="#63b8ff" d="M416.68,-219.84C403.35,-210.77 386.11,-199.04 372.71,-189.92"/>
<polygon fill="#63b8ff" stroke="#63b8ff" points="374.37,-186.83 364.13,-184.09 370.43,-192.61 374.37,-186.83"/>
</a>
</g>
</g>
<!-- Node4 -->
<g id="Node000004" class="node">
<title>Node4</title>
<g id="a_Node000004"><a xlink:href="defines_8hpp.html" target="_top" xlink:title=" ">
<polygon fill="white" stroke="#666666" points="73,-19 0,-19 0,0 73,0 73,-19"/>
<text text-anchor="middle" x="36.5" y="-7" font-family="Helvetica,sans-Serif" font-size="10.00">defines.hpp</text>
</a>
</g>
</g>
<!-- Node1&#45;&gt;Node4 -->
<g id="edge23_Node000001_Node000004" class="edge">
<title>Node1&#45;&gt;Node4</title>
<g id="a_edge23_Node000001_Node000004"><a xlink:title=" ">
<path fill="none" stroke="#63b8ff" d="M357.73,-225.04C285.54,-213.41 179.62,-187.19 106.5,-129 72.96,-102.31 52.06,-54.84 42.55,-28.82"/>
<polygon fill="#63b8ff" stroke="#63b8ff" points="45.76,-27.4 39.16,-19.1 39.15,-29.7 45.76,-27.4"/>
</a>
</g>
</g>
<!-- Node15 -->
<g id="Node000015" class="node">
<title>Node15</title>
<g id="a_Node000015"><a xlink:title=" ">
<polygon fill="#e0e0e0" stroke="#999999" points="790,-19 743,-19 743,0 790,0 790,-19"/>
<text text-anchor="middle" x="766.5" y="-7" font-family="Helvetica,sans-Serif" font-size="10.00">vector</text>
</a>
</g>
</g>
<!-- Node1&#45;&gt;Node15 -->
<g id="edge25_Node000001_Node000015" class="edge">
<title>Node1&#45;&gt;Node15</title>
<g id="a_edge25_Node000001_Node000015"><a xlink:title=" ">
<path fill="none" stroke="#63b8ff" d="M458.33,-219.85C517.46,-179.68 685.9,-65.26 745.38,-24.85"/>
<polygon fill="#63b8ff" stroke="#63b8ff" points="747.65,-27.53 753.96,-19.02 743.72,-21.74 747.65,-27.53"/>
</a>
</g>
</g>
<!-- Node18 -->
<g id="Node000018" class="node">
<title>Node18</title>
<g id="a_Node000018"><a xlink:title=" ">
<polygon fill="#e0e0e0" stroke="#999999" points="533.5,-129 489.5,-129 489.5,-110 533.5,-110 533.5,-129"/>
<text text-anchor="middle" x="511.5" y="-117" font-family="Helvetica,sans-Serif" font-size="10.00">string</text>
</a>
</g>
</g>
<!-- Node1&#45;&gt;Node18 -->
<g id="edge24_Node000001_Node000018" class="edge">
<title>Node1&#45;&gt;Node18</title>
<g id="a_edge24_Node000001_Node000018"><a xlink:title=" ">
<path fill="none" stroke="#63b8ff" d="M446.87,-219.63C460.48,-198.75 485.69,-160.09 500.27,-137.72"/>
<polygon fill="#63b8ff" stroke="#63b8ff" points="503.28,-139.52 505.81,-129.23 497.42,-135.69 503.28,-139.52"/>
</a>
</g>
</g>
<!-- Node3 -->
<g id="Node000003" class="node">
<title>Node3</title>
<g id="a_Node000003"><a xlink:href="config__utils_8hpp.html" target="_top" xlink:title=" ">
<polygon fill="white" stroke="#666666" points="410,-129 293,-129 293,-110 410,-110 410,-129"/>
<text text-anchor="middle" x="351.5" y="-117" font-family="Helvetica,sans-Serif" font-size="10.00">utils/config_utils.hpp</text>
</a>
</g>
</g>
<!-- Node2&#45;&gt;Node3 -->
<g id="edge2_Node000002_Node000003" class="edge">
<title>Node2&#45;&gt;Node3</title>
<g id="a_edge2_Node000002_Node000003"><a xlink:title=" ">
<path fill="none" stroke="#63b8ff" d="M351.5,-164.75C351.5,-157.8 351.5,-147.85 351.5,-139.13"/>
<polygon fill="#63b8ff" stroke="#63b8ff" points="355,-139.09 351.5,-129.09 348,-139.09 355,-139.09"/>
</a>
</g>
</g>
<!-- Node2&#45;&gt;Node4 -->
<g id="edge18_Node000002_Node000004" class="edge">
<title>Node2&#45;&gt;Node4</title>
<g id="a_edge18_Node000002_Node000004"><a xlink:title=" ">
<path fill="none" stroke="#63b8ff" d="M332.21,-164.98C312.7,-156.27 281.77,-142.18 255.5,-129 183.42,-92.84 100.1,-46.45 60.2,-23.95"/>
<polygon fill="#63b8ff" stroke="#63b8ff" points="61.89,-20.89 51.46,-19.01 58.45,-26.98 61.89,-20.89"/>
</a>
</g>
</g>
<!-- Node11 -->
<g id="Node000011" class="node">
<title>Node11</title>
<g id="a_Node000011"><a xlink:title=" ">
<polygon fill="#e0e0e0" stroke="#999999" points="725,-19 670,-19 670,0 725,0 725,-19"/>
<text text-anchor="middle" x="697.5" y="-7" font-family="Helvetica,sans-Serif" font-size="10.00">fstream</text>
</a>
</g>
</g>
<!-- Node2&#45;&gt;Node11 -->
<g id="edge19_Node000002_Node000011" class="edge">
<title>Node2&#45;&gt;Node11</title>
<g id="a_edge19_Node000002_Node000011"><a xlink:title=" ">
<path fill="none" stroke="#63b8ff" d="M368.54,-164.93C393.15,-152.58 440.14,-129.18 480.5,-110 547.73,-78.05 627.43,-41.95 669.02,-23.26"/>
<polygon fill="#63b8ff" stroke="#63b8ff" points="670.57,-26.4 678.26,-19.11 667.7,-20.01 670.57,-26.4"/>
</a>
</g>
</g>
<!-- Node12 -->
<g id="Node000012" class="node">
<title>Node12</title>
<g id="a_Node000012"><a xlink:title=" ">
<polygon fill="#e0e0e0" stroke="#999999" points="151.5,-19 91.5,-19 91.5,0 151.5,0 151.5,-19"/>
<text text-anchor="middle" x="121.5" y="-7" font-family="Helvetica,sans-Serif" font-size="10.00">iostream</text>
</a>
</g>
</g>
<!-- Node2&#45;&gt;Node12 -->
<g id="edge20_Node000002_Node000012" class="edge">
<title>Node2&#45;&gt;Node12</title>
<g id="a_edge20_Node000002_Node000012"><a xlink:title=" ">
<path fill="none" stroke="#63b8ff" d="M337.72,-164.98C323.81,-156.26 301.83,-142.17 283.5,-129 240.32,-97.97 232.68,-86.03 189.5,-55 174.61,-44.3 157.3,-32.99 143.88,-24.45"/>
<polygon fill="#63b8ff" stroke="#63b8ff" points="145.61,-21.4 135.28,-19.02 141.87,-27.32 145.61,-21.4"/>
</a>
</g>
</g>
<!-- Node17 -->
<g id="Node000017" class="node">
<title>Node17</title>
<g id="a_Node000017"><a xlink:title=" ">
<polygon fill="#e0e0e0" stroke="#999999" points="147.5,-129 115.5,-129 115.5,-110 147.5,-110 147.5,-129"/>
<text text-anchor="middle" x="131.5" y="-117" font-family="Helvetica,sans-Serif" font-size="10.00">set</text>
</a>
</g>
</g>
<!-- Node2&#45;&gt;Node17 -->
<g id="edge21_Node000002_Node000017" class="edge">
<title>Node2&#45;&gt;Node17</title>
<g id="a_edge21_Node000002_Node000017"><a xlink:title=" ">
<path fill="none" stroke="#63b8ff" d="M312.8,-164.98C274.31,-156.39 213.65,-142.49 161.5,-129 160.23,-128.67 158.94,-128.33 157.63,-127.98"/>
<polygon fill="#63b8ff" stroke="#63b8ff" points="158.23,-124.51 147.66,-125.22 156.36,-131.26 158.23,-124.51"/>
</a>
</g>
</g>
<!-- Node2&#45;&gt;Node18 -->
<g id="edge22_Node000002_Node000018" class="edge">
<title>Node2&#45;&gt;Node18</title>
<g id="a_edge22_Node000002_Node000018"><a xlink:title=" ">
<path fill="none" stroke="#63b8ff" d="M377.21,-164.98C405.14,-155.73 449.8,-140.94 479.87,-130.98"/>
<polygon fill="#63b8ff" stroke="#63b8ff" points="481.07,-134.27 489.46,-127.8 478.87,-127.62 481.07,-134.27"/>
</a>
</g>
</g>
<!-- Node3&#45;&gt;Node4 -->
<g id="edge3_Node000003_Node000004" class="edge">
<title>Node3&#45;&gt;Node4</title>
<g id="a_edge3_Node000003_Node000004"><a xlink:title=" ">
<path fill="none" stroke="#63b8ff" d="M331.51,-109.99C301.14,-97.21 241.4,-72.68 189.5,-55 152.56,-42.42 109.88,-30.19 79,-21.75"/>
<polygon fill="#63b8ff" stroke="#63b8ff" points="79.57,-18.28 69,-19.03 77.74,-25.03 79.57,-18.28"/>
</a>
</g>
</g>
<!-- Node5 -->
<g id="Node000005" class="node">
<title>Node5</title>
<g id="a_Node000005"><a xlink:href="utils_8hpp.html" target="_top" xlink:title=" ">
<polygon fill="white" stroke="#666666" points="395,-74 336,-74 336,-55 395,-55 395,-74"/>
<text text-anchor="middle" x="365.5" y="-62" font-family="Helvetica,sans-Serif" font-size="10.00">utils.hpp</text>
</a>
</g>
</g>
<!-- Node3&#45;&gt;Node5 -->
<g id="edge4_Node000003_Node000005" class="edge">
<title>Node3&#45;&gt;Node5</title>
<g id="a_edge4_Node000003_Node000005"><a xlink:title=" ">
<path fill="none" stroke="#63b8ff" d="M353.81,-109.75C355.67,-102.72 358.34,-92.62 360.65,-83.84"/>
<polygon fill="#63b8ff" stroke="#63b8ff" points="364.06,-84.65 363.23,-74.09 357.29,-82.86 364.06,-84.65"/>
</a>
</g>
</g>
<!-- Node3&#45;&gt;Node11 -->
<g id="edge16_Node000003_Node000011" class="edge">
<title>Node3&#45;&gt;Node11</title>
<g id="a_edge16_Node000003_Node000011"><a xlink:title=" ">
<path fill="none" stroke="#63b8ff" d="M361.35,-109.91C377.91,-95.98 412.92,-68.63 447.5,-55 534.25,-20.8 564.92,-36.92 659.64,-19.22"/>
<polygon fill="#63b8ff" stroke="#63b8ff" points="660.49,-22.62 669.63,-17.27 659.15,-15.75 660.49,-22.62"/>
</a>
</g>
</g>
<!-- Node16 -->
<g id="Node000016" class="node">
<title>Node16</title>
<g id="a_Node000016"><a xlink:title=" ">
<polygon fill="#e0e0e0" stroke="#999999" points="317.5,-74 279.5,-74 279.5,-55 317.5,-55 317.5,-74"/>
<text text-anchor="middle" x="298.5" y="-62" font-family="Helvetica,sans-Serif" font-size="10.00">map</text>
</a>
</g>
</g>
<!-- Node3&#45;&gt;Node16 -->
<g id="edge17_Node000003_Node000016" class="edge">
<title>Node3&#45;&gt;Node16</title>
<g id="a_edge17_Node000003_Node000016"><a xlink:title=" ">
<path fill="none" stroke="#63b8ff" d="M342.75,-109.75C335.03,-102.03 323.6,-90.6 314.28,-81.28"/>
<polygon fill="#63b8ff" stroke="#63b8ff" points="316.64,-78.69 307.09,-74.09 311.69,-83.64 316.64,-78.69"/>
</a>
</g>
</g>
<!-- Node5&#45;&gt;Node4 -->
<g id="edge5_Node000005_Node000004" class="edge">
<title>Node5&#45;&gt;Node4</title>
<g id="a_edge5_Node000005_Node000004"><a xlink:title=" ">
<path fill="none" stroke="#63b8ff" d="M335.73,-56.79C332.62,-56.16 329.5,-55.55 326.5,-55 221.82,-35.89 192.35,-36.88 83.24,-19.06"/>
<polygon fill="#63b8ff" stroke="#63b8ff" points="83.57,-15.57 73.14,-17.39 82.43,-22.47 83.57,-15.57"/>
</a>
</g>
</g>
<!-- Node6 -->
<g id="Node000006" class="node">
<title>Node6</title>
<g id="a_Node000006"><a xlink:title=" ">
<polygon fill="#e0e0e0" stroke="#999999" points="584.5,-19 520.5,-19 520.5,0 584.5,0 584.5,-19"/>
<text text-anchor="middle" x="552.5" y="-7" font-family="Helvetica,sans-Serif" font-size="10.00">algorithm</text>
</a>
</g>
</g>
<!-- Node5&#45;&gt;Node6 -->
<g id="edge6_Node000005_Node000006" class="edge">
<title>Node5&#45;&gt;Node6</title>
<g id="a_edge6_Node000005_Node000006"><a xlink:title=" ">
<path fill="none" stroke="#63b8ff" d="M395.13,-55.1C426.81,-46.12 477.24,-31.83 512.44,-21.85"/>
<polygon fill="#63b8ff" stroke="#63b8ff" points="513.72,-25.13 522.39,-19.03 511.81,-18.39 513.72,-25.13"/>
</a>
</g>
</g>
<!-- Node7 -->
<g id="Node000007" class="node">
<title>Node7</title>
<g id="a_Node000007"><a xlink:title=" ">
<polygon fill="#e0e0e0" stroke="#999999" points="652,-19 603,-19 603,0 652,0 652,-19"/>
<text text-anchor="middle" x="627.5" y="-7" font-family="Helvetica,sans-Serif" font-size="10.00">cctype</text>
</a>
</g>
</g>
<!-- Node5&#45;&gt;Node7 -->
<g id="edge7_Node000005_Node000007" class="edge">
<title>Node5&#45;&gt;Node7</title>
<g id="a_edge7_Node000005_Node000007"><a xlink:title=" ">
<path fill="none" stroke="#63b8ff" d="M395.16,-57.75C448.16,-47.48 556.41,-26.47 592.75,-18.98"/>
<polygon fill="#63b8ff" stroke="#63b8ff" points="593.6,-22.37 602.65,-16.87 592.14,-15.53 593.6,-22.37"/>
</a>
</g>
</g>
<!-- Node8 -->
<g id="Node000008" class="node">
<title>Node8</title>
<g id="a_Node000008"><a xlink:title=" ">
<polygon fill="#e0e0e0" stroke="#999999" points="219.5,-19 169.5,-19 169.5,0 219.5,0 219.5,-19"/>
<text text-anchor="middle" x="194.5" y="-7" font-family="Helvetica,sans-Serif" font-size="10.00">cstring</text>
</a>
</g>
</g>
<!-- Node5&#45;&gt;Node8 -->
<g id="edge8_Node000005_Node000008" class="edge">
<title>Node5&#45;&gt;Node8</title>
<g id="a_edge8_Node000005_Node000008"><a xlink:title=" ">
<path fill="none" stroke="#63b8ff" d="M338.03,-54.98C308.55,-45.85 261.65,-31.31 229.54,-21.36"/>
<polygon fill="#63b8ff" stroke="#63b8ff" points="230.26,-17.92 219.68,-18.3 228.19,-24.61 230.26,-17.92"/>
</a>
</g>
</g>
<!-- Node9 -->
<g id="Node000009" class="node">
<title>Node9</title>
<g id="a_Node000009"><a xlink:title=" ">
<polygon fill="#e0e0e0" stroke="#999999" points="289,-19 238,-19 238,0 289,0 289,-19"/>
<text text-anchor="middle" x="263.5" y="-7" font-family="Helvetica,sans-Serif" font-size="10.00">errno.h</text>
</a>
</g>
</g>
<!-- Node5&#45;&gt;Node9 -->
<g id="edge9_Node000005_Node000009" class="edge">
<title>Node5&#45;&gt;Node9</title>
<g id="a_edge9_Node000005_Node000009"><a xlink:title=" ">
<path fill="none" stroke="#63b8ff" d="M349.11,-54.98C332.93,-46.57 307.93,-33.59 289.12,-23.81"/>
<polygon fill="#63b8ff" stroke="#63b8ff" points="290.67,-20.68 280.19,-19.17 287.45,-26.89 290.67,-20.68"/>
</a>
</g>
</g>
<!-- Node10 -->
<g id="Node000010" class="node">
<title>Node10</title>
<g id="a_Node000010"><a xlink:title=" ">
<polygon fill="#e0e0e0" stroke="#999999" points="354,-19 307,-19 307,0 354,0 354,-19"/>
<text text-anchor="middle" x="330.5" y="-7" font-family="Helvetica,sans-Serif" font-size="10.00">fcntl.h</text>
</a>
</g>
</g>
<!-- Node5&#45;&gt;Node10 -->
<g id="edge10_Node000005_Node000010" class="edge">
<title>Node5&#45;&gt;Node10</title>
<g id="a_edge10_Node000005_Node000010"><a xlink:title=" ">
<path fill="none" stroke="#63b8ff" d="M359.72,-54.75C354.88,-47.42 347.82,-36.73 341.86,-27.7"/>
<polygon fill="#63b8ff" stroke="#63b8ff" points="344.6,-25.5 336.17,-19.09 338.76,-29.36 344.6,-25.5"/>
</a>
</g>
</g>
<!-- Node5&#45;&gt;Node11 -->
<g id="edge11_Node000005_Node000011" class="edge">
<title>Node5&#45;&gt;Node11</title>
<g id="a_edge11_Node000005_Node000011"><a xlink:title=" ">
<path fill="none" stroke="#63b8ff" d="M395.29,-57.54C400.03,-56.65 404.9,-55.77 409.5,-55 517.92,-36.8 548.61,-39.83 659.72,-19.2"/>
<polygon fill="#63b8ff" stroke="#63b8ff" points="660.46,-22.62 669.64,-17.34 659.17,-15.74 660.46,-22.62"/>
</a>
</g>
</g>
<!-- Node5&#45;&gt;Node12 -->
<g id="edge12_Node000005_Node000012" class="edge">
<title>Node5&#45;&gt;Node12</title>
<g id="a_edge12_Node000005_Node000012"><a xlink:title=" ">
<path fill="none" stroke="#63b8ff" d="M335.69,-57C332.59,-56.32 329.48,-55.65 326.5,-55 255.76,-39.62 235.88,-35.38 161.57,-19.23"/>
<polygon fill="#63b8ff" stroke="#63b8ff" points="162.25,-15.8 151.73,-17.09 160.76,-22.64 162.25,-15.8"/>
</a>
</g>
</g>
<!-- Node13 -->
<g id="Node000013" class="node">
<title>Node13</title>
<g id="a_Node000013"><a xlink:title=" ">
<polygon fill="#e0e0e0" stroke="#999999" points="428.5,-19 372.5,-19 372.5,0 428.5,0 428.5,-19"/>
<text text-anchor="middle" x="400.5" y="-7" font-family="Helvetica,sans-Serif" font-size="10.00">sstream</text>
</a>
</g>
</g>
<!-- Node5&#45;&gt;Node13 -->
<g id="edge13_Node000005_Node000013" class="edge">
<title>Node5&#45;&gt;Node13</title>
<g id="a_edge13_Node000005_Node000013"><a xlink:title=" ">
<path fill="none" stroke="#63b8ff" d="M371.28,-54.75C376.12,-47.42 383.18,-36.73 389.14,-27.7"/>
<polygon fill="#63b8ff" stroke="#63b8ff" points="392.24,-29.36 394.83,-19.09 386.4,-25.5 392.24,-29.36"/>
</a>
</g>
</g>
<!-- Node14 -->
<g id="Node000014" class="node">
<title>Node14</title>
<g id="a_Node000014"><a xlink:title=" ">
<polygon fill="#e0e0e0" stroke="#999999" points="502.5,-19 446.5,-19 446.5,0 502.5,0 502.5,-19"/>
<text text-anchor="middle" x="474.5" y="-7" font-family="Helvetica,sans-Serif" font-size="10.00">unistd.h</text>
</a>
</g>
</g>
<!-- Node5&#45;&gt;Node14 -->
<g id="edge14_Node000005_Node000014" class="edge">
<title>Node5&#45;&gt;Node14</title>
<g id="a_edge14_Node000005_Node000014"><a xlink:title=" ">
<path fill="none" stroke="#63b8ff" d="M383.01,-54.98C400.47,-46.5 427.51,-33.35 447.67,-23.54"/>
<polygon fill="#63b8ff" stroke="#63b8ff" points="449.21,-26.69 456.67,-19.17 446.14,-20.4 449.21,-26.69"/>
</a>
</g>
</g>
<!-- Node5&#45;&gt;Node15 -->
<g id="edge15_Node000005_Node000015" class="edge">
<title>Node5&#45;&gt;Node15</title>
<g id="a_edge15_Node000005_Node000015"><a xlink:title=" ">
<path fill="none" stroke="#63b8ff" d="M395.37,-61.32C456.84,-56.53 602.04,-43.66 732.64,-19.13"/>
<polygon fill="#63b8ff" stroke="#63b8ff" points="733.65,-22.5 742.82,-17.18 732.34,-15.62 733.65,-22.5"/>
</a>
</g>
</g>
</g>
</svg>
