<?xml version="1.0" encoding="UTF-8" standalone="no"?>
<!DOCTYPE svg PUBLIC "-//W3C//DTD SVG 1.1//EN"
 "http://www.w3.org/Graphics/SVG/1.1/DTD/svg11.dtd">
<!-- Generated by graphviz version 2.43.0 (0)
 -->
<!-- Title: source/config/ConfigServerBlock.cpp Pages: 1 -->
<svg width="936pt" height="368pt"
 viewBox="0.00 0.00 935.50 368.00" xmlns="http://www.w3.org/2000/svg" xmlns:xlink="http://www.w3.org/1999/xlink">
<g id="graph0" class="graph" transform="scale(1 1) rotate(0) translate(4 364)">
<title>source/config/ConfigServerBlock.cpp</title>
<!-- Node1 -->
<g id="Node000001" class="node">
<title>Node1</title>
<g id="a_Node000001"><a xlink:title=" ">
<polygon fill="#999999" stroke="#666666" points="417.5,-360 271.5,-360 271.5,-330 417.5,-330 417.5,-360"/>
<text text-anchor="start" x="279.5" y="-348" font-family="Helvetica,sans-Serif" font-size="10.00">source/config/ConfigServer</text>
<text text-anchor="middle" x="344.5" y="-337" font-family="Helvetica,sans-Serif" font-size="10.00">Block.cpp</text>
</a>
</g>
</g>
<!-- Node2 -->
<g id="Node000002" class="node">
<title>Node2</title>
<g id="a_Node000002"><a xlink:href="ConfigServerBlock_8hpp.html" target="_top" xlink:title=" ">
<polygon fill="white" stroke="#666666" points="408,-294 281,-294 281,-275 408,-275 408,-294"/>
<text text-anchor="middle" x="344.5" y="-282" font-family="Helvetica,sans-Serif" font-size="10.00">ConfigServerBlock.hpp</text>
</a>
</g>
</g>
<!-- Node1&#45;&gt;Node2 -->
<g id="edge1_Node000001_Node000002" class="edge">
<title>Node1&#45;&gt;Node2</title>
<g id="a_edge1_Node000001_Node000002"><a xlink:title=" ">
<path fill="none" stroke="#63b8ff" d="M344.5,-329.84C344.5,-322.21 344.5,-312.7 344.5,-304.45"/>
<polygon fill="#63b8ff" stroke="#63b8ff" points="348,-304.27 344.5,-294.27 341,-304.27 348,-304.27"/>
</a>
</g>
</g>
<!-- Node5 -->
<g id="Node000005" class="node">
<title>Node5</title>
<g id="a_Node000005"><a xlink:href="defines_8hpp.html" target="_top" xlink:title=" ">
<polygon fill="white" stroke="#666666" points="138,-19 65,-19 65,0 138,0 138,-19"/>
<text text-anchor="middle" x="101.5" y="-7" font-family="Helvetica,sans-Serif" font-size="10.00">defines.hpp</text>
</a>
</g>
</g>
<!-- Node1&#45;&gt;Node5 -->
<g id="edge32_Node000001_Node000005" class="edge">
<title>Node1&#45;&gt;Node5</title>
<g id="a_edge32_Node000001_Node000005"><a xlink:title=" ">
<path fill="none" stroke="#63b8ff" d="M281.14,-329.95C254.94,-322.15 225.2,-310.59 201.5,-294 175.63,-275.89 173.07,-265.89 156.5,-239 115.63,-172.7 104.49,-151.57 97.5,-74 96.15,-59.01 97.37,-41.98 98.81,-29.34"/>
<polygon fill="#63b8ff" stroke="#63b8ff" points="102.31,-29.5 100.12,-19.14 95.37,-28.61 102.31,-29.5"/>
</a>
</g>
</g>
<!-- Node6 -->
<g id="Node000006" class="node">
<title>Node6</title>
<g id="a_Node000006"><a xlink:href="utils_8hpp.html" target="_top" xlink:title=" ">
<polygon fill="white" stroke="#666666" points="458,-74 399,-74 399,-55 458,-55 458,-74"/>
<text text-anchor="middle" x="428.5" y="-62" font-family="Helvetica,sans-Serif" font-size="10.00">utils.hpp</text>
</a>
</g>
</g>
<!-- Node1&#45;&gt;Node6 -->
<g id="edge33_Node000001_Node000006" class="edge">
<title>Node1&#45;&gt;Node6</title>
<g id="a_edge33_Node000001_Node000006"><a xlink:title=" ">
<path fill="none" stroke="#63b8ff" d="M396.01,-329.95C441.45,-314.06 500.5,-283.25 500.5,-230.5 500.5,-230.5 500.5,-230.5 500.5,-173.5 500.5,-144.04 497.68,-134.62 481.5,-110 473.66,-98.08 461.69,-87.64 451.11,-79.88"/>
<polygon fill="#63b8ff" stroke="#63b8ff" points="452.88,-76.84 442.67,-74.01 448.88,-82.59 452.88,-76.84"/>
</a>
</g>
</g>
<!-- Node19 -->
<g id="Node000019" class="node">
<title>Node19</title>
<g id="a_Node000019"><a xlink:title=" ">
<polygon fill="#e0e0e0" stroke="#999999" points="172.5,-129 128.5,-129 128.5,-110 172.5,-110 172.5,-129"/>
<text text-anchor="middle" x="150.5" y="-117" font-family="Helvetica,sans-Serif" font-size="10.00">string</text>
</a>
</g>
</g>
<!-- Node1&#45;&gt;Node19 -->
<g id="edge40_Node000001_Node000019" class="edge">
<title>Node1&#45;&gt;Node19</title>
<g id="a_edge40_Node000001_Node000019"><a xlink:title=" ">
<path fill="none" stroke="#63b8ff" d="M300.6,-329.86C259.8,-314.31 200.76,-285.22 169.5,-239 149.04,-208.75 147.69,-164.39 148.87,-139.41"/>
<polygon fill="#63b8ff" stroke="#63b8ff" points="152.38,-139.34 149.56,-129.13 145.4,-138.87 152.38,-139.34"/>
</a>
</g>
</g>
<!-- Node21 -->
<g id="Node000021" class="node">
<title>Node21</title>
<g id="a_Node000021"><a xlink:href="Logger_8hpp.html" target="_top" xlink:title=" ">
<polygon fill="white" stroke="#666666" points="770.5,-74 676.5,-74 676.5,-55 770.5,-55 770.5,-74"/>
<text text-anchor="middle" x="723.5" y="-62" font-family="Helvetica,sans-Serif" font-size="10.00">utils/Logger.hpp</text>
</a>
</g>
</g>
<!-- Node1&#45;&gt;Node21 -->
<g id="edge34_Node000001_Node000021" class="edge">
<title>Node1&#45;&gt;Node21</title>
<g id="a_edge34_Node000001_Node000021"><a xlink:title=" ">
<path fill="none" stroke="#63b8ff" d="M417.87,-334.69C518.36,-319.86 686.5,-286.65 686.5,-230.5 686.5,-230.5 686.5,-230.5 686.5,-173.5 686.5,-140.12 702.52,-103.91 713.48,-83.04"/>
<polygon fill="#63b8ff" stroke="#63b8ff" points="716.63,-84.57 718.36,-74.12 710.49,-81.21 716.63,-84.57"/>
</a>
</g>
</g>
<!-- Node3 -->
<g id="Node000003" class="node">
<title>Node3</title>
<g id="a_Node000003"><a xlink:href="AConfigParser_8hpp.html" target="_top" xlink:title=" ">
<polygon fill="white" stroke="#666666" points="364.5,-184 260.5,-184 260.5,-165 364.5,-165 364.5,-184"/>
<text text-anchor="middle" x="312.5" y="-172" font-family="Helvetica,sans-Serif" font-size="10.00">AConfigParser.hpp</text>
</a>
</g>
</g>
<!-- Node2&#45;&gt;Node3 -->
<g id="edge2_Node000002_Node000003" class="edge">
<title>Node2&#45;&gt;Node3</title>
<g id="a_edge2_Node000002_Node000003"><a xlink:title=" ">
<path fill="none" stroke="#63b8ff" d="M341.88,-274.66C336.68,-257.09 324.93,-217.45 317.97,-193.95"/>
<polygon fill="#63b8ff" stroke="#63b8ff" points="321.26,-192.75 315.07,-184.16 314.55,-194.74 321.26,-192.75"/>
</a>
</g>
</g>
<!-- Node11 -->
<g id="Node000011" class="node">
<title>Node11</title>
<g id="a_Node000011"><a xlink:title=" ">
<polygon fill="#e0e0e0" stroke="#999999" points="713,-19 666,-19 666,0 713,0 713,-19"/>
<text text-anchor="middle" x="689.5" y="-7" font-family="Helvetica,sans-Serif" font-size="10.00">fcntl.h</text>
</a>
</g>
</g>
<!-- Node2&#45;&gt;Node11 -->
<g id="edge29_Node000002_Node000011" class="edge">
<title>Node2&#45;&gt;Node11</title>
<g id="a_edge29_Node000002_Node000011"><a xlink:title=" ">
<path fill="none" stroke="#63b8ff" d="M389.49,-274.95C465.58,-259.2 611.5,-222.82 611.5,-175.5 611.5,-175.5 611.5,-175.5 611.5,-118.5 611.5,-78.95 646.3,-44.05 669.41,-25.23"/>
<polygon fill="#63b8ff" stroke="#63b8ff" points="671.6,-27.97 677.31,-19.05 667.28,-22.46 671.6,-27.97"/>
</a>
</g>
</g>
<!-- Node16 -->
<g id="Node000016" class="node">
<title>Node16</title>
<g id="a_Node000016"><a xlink:title=" ">
<polygon fill="#e0e0e0" stroke="#999999" points="47,-19 0,-19 0,0 47,0 47,-19"/>
<text text-anchor="middle" x="23.5" y="-7" font-family="Helvetica,sans-Serif" font-size="10.00">vector</text>
</a>
</g>
</g>
<!-- Node2&#45;&gt;Node16 -->
<g id="edge31_Node000002_Node000016" class="edge">
<title>Node2&#45;&gt;Node16</title>
<g id="a_edge31_Node000002_Node000016"><a xlink:title=" ">
<path fill="none" stroke="#63b8ff" d="M280.77,-277.07C245.79,-271.24 202.88,-260.13 169.5,-239 91.54,-189.65 82.46,-157.64 43.5,-74 36.78,-59.58 31.5,-42.3 28.06,-29.41"/>
<polygon fill="#63b8ff" stroke="#63b8ff" points="31.37,-28.23 25.52,-19.4 24.59,-29.95 31.37,-28.23"/>
</a>
</g>
</g>
<!-- Node18 -->
<g id="Node000018" class="node">
<title>Node18</title>
<g id="a_Node000018"><a xlink:title=" ">
<polygon fill="#e0e0e0" stroke="#999999" points="472.5,-129 440.5,-129 440.5,-110 472.5,-110 472.5,-129"/>
<text text-anchor="middle" x="456.5" y="-117" font-family="Helvetica,sans-Serif" font-size="10.00">set</text>
</a>
</g>
</g>
<!-- Node2&#45;&gt;Node18 -->
<g id="edge30_Node000002_Node000018" class="edge">
<title>Node2&#45;&gt;Node18</title>
<g id="a_edge30_Node000002_Node000018"><a xlink:title=" ">
<path fill="none" stroke="#63b8ff" d="M350.52,-274.74C368.3,-248.87 420.78,-172.48 444.56,-137.88"/>
<polygon fill="#63b8ff" stroke="#63b8ff" points="447.67,-139.53 450.45,-129.31 441.9,-135.57 447.67,-139.53"/>
</a>
</g>
</g>
<!-- Node20 -->
<g id="Node000020" class="node">
<title>Node20</title>
<g id="a_Node000020"><a xlink:href="ConfigLocationBlock_8hpp.html" target="_top" xlink:title=" ">
<polygon fill="white" stroke="#666666" points="316,-239 179,-239 179,-220 316,-220 316,-239"/>
<text text-anchor="middle" x="247.5" y="-227" font-family="Helvetica,sans-Serif" font-size="10.00">ConfigLocationBlock.hpp</text>
</a>
</g>
</g>
<!-- Node2&#45;&gt;Node20 -->
<g id="edge24_Node000002_Node000020" class="edge">
<title>Node2&#45;&gt;Node20</title>
<g id="a_edge24_Node000002_Node000020"><a xlink:title=" ">
<path fill="none" stroke="#63b8ff" d="M328.92,-274.98C313.73,-266.69 290.4,-253.94 272.6,-244.22"/>
<polygon fill="#63b8ff" stroke="#63b8ff" points="273.82,-240.89 263.37,-239.17 270.47,-247.04 273.82,-240.89"/>
</a>
</g>
</g>
<!-- Node4 -->
<g id="Node000004" class="node">
<title>Node4</title>
<g id="a_Node000004"><a xlink:href="config__utils_8hpp.html" target="_top" xlink:title=" ">
<polygon fill="white" stroke="#666666" points="346,-129 229,-129 229,-110 346,-110 346,-129"/>
<text text-anchor="middle" x="287.5" y="-117" font-family="Helvetica,sans-Serif" font-size="10.00">utils/config_utils.hpp</text>
</a>
</g>
</g>
<!-- Node3&#45;&gt;Node4 -->
<g id="edge3_Node000003_Node000004" class="edge">
<title>Node3&#45;&gt;Node4</title>
<g id="a_edge3_Node000003_Node000004"><a xlink:title=" ">
<path fill="none" stroke="#63b8ff" d="M308.37,-164.75C304.99,-157.57 300.08,-147.18 295.88,-138.27"/>
<polygon fill="#63b8ff" stroke="#63b8ff" points="298.98,-136.64 291.55,-129.09 292.65,-139.63 298.98,-136.64"/>
</a>
</g>
</g>
<!-- Node3&#45;&gt;Node5 -->
<g id="edge19_Node000003_Node000005" class="edge">
<title>Node3&#45;&gt;Node5</title>
<g id="a_edge19_Node000003_Node000005"><a xlink:title=" ">
<path fill="none" stroke="#63b8ff" d="M289.13,-164.92C269.56,-157.14 241.4,-144.53 219.5,-129 176.68,-98.63 135.49,-52.05 114.98,-27.31"/>
<polygon fill="#63b8ff" stroke="#63b8ff" points="117.43,-24.78 108.4,-19.25 112.01,-29.21 117.43,-24.78"/>
</a>
</g>
</g>
<!-- Node12 -->
<g id="Node000012" class="node">
<title>Node12</title>
<g id="a_Node000012"><a xlink:title=" ">
<polygon fill="#e0e0e0" stroke="#999999" points="211,-19 156,-19 156,0 211,0 211,-19"/>
<text text-anchor="middle" x="183.5" y="-7" font-family="Helvetica,sans-Serif" font-size="10.00">fstream</text>
</a>
</g>
</g>
<!-- Node3&#45;&gt;Node12 -->
<g id="edge20_Node000003_Node000012" class="edge">
<title>Node3&#45;&gt;Node12</title>
<g id="a_edge20_Node000003_Node000012"><a xlink:title=" ">
<path fill="none" stroke="#63b8ff" d="M324.71,-164.86C334.85,-156.88 348.54,-144.01 354.5,-129 367.27,-96.87 356.34,-77.97 330.5,-55 322.16,-47.59 261.93,-30.86 221.2,-20.15"/>
<polygon fill="#63b8ff" stroke="#63b8ff" points="221.86,-16.71 211.3,-17.57 220.1,-23.48 221.86,-16.71"/>
</a>
</g>
</g>
<!-- Node13 -->
<g id="Node000013" class="node">
<title>Node13</title>
<g id="a_Node000013"><a xlink:title=" ">
<polygon fill="#e0e0e0" stroke="#999999" points="791.5,-19 731.5,-19 731.5,0 791.5,0 791.5,-19"/>
<text text-anchor="middle" x="761.5" y="-7" font-family="Helvetica,sans-Serif" font-size="10.00">iostream</text>
</a>
</g>
</g>
<!-- Node3&#45;&gt;Node13 -->
<g id="edge21_Node000003_Node000013" class="edge">
<title>Node3&#45;&gt;Node13</title>
<g id="a_edge21_Node000003_Node000013"><a xlink:title=" ">
<path fill="none" stroke="#63b8ff" d="M326.35,-164.94C348.1,-151.77 391.89,-126.35 431.5,-110 532.88,-68.15 658.26,-35.22 721.3,-19.89"/>
<polygon fill="#63b8ff" stroke="#63b8ff" points="722.33,-23.24 731.23,-17.5 720.69,-16.44 722.33,-23.24"/>
</a>
</g>
</g>
<!-- Node3&#45;&gt;Node18 -->
<g id="edge22_Node000003_Node000018" class="edge">
<title>Node3&#45;&gt;Node18</title>
<g id="a_edge22_Node000003_Node000018"><a xlink:title=" ">
<path fill="none" stroke="#63b8ff" d="M335.64,-164.98C361.58,-155.44 403.55,-139.99 430.58,-130.04"/>
<polygon fill="#63b8ff" stroke="#63b8ff" points="431.96,-133.26 440.14,-126.52 429.55,-126.69 431.96,-133.26"/>
</a>
</g>
</g>
<!-- Node3&#45;&gt;Node19 -->
<g id="edge23_Node000003_Node000019" class="edge">
<title>Node3&#45;&gt;Node19</title>
<g id="a_edge23_Node000003_Node000019"><a xlink:title=" ">
<path fill="none" stroke="#63b8ff" d="M286.47,-164.98C258.19,-155.73 212.97,-140.94 182.52,-130.98"/>
<polygon fill="#63b8ff" stroke="#63b8ff" points="183.41,-127.58 172.81,-127.8 181.23,-134.24 183.41,-127.58"/>
</a>
</g>
</g>
<!-- Node4&#45;&gt;Node5 -->
<g id="edge4_Node000004_Node000005" class="edge">
<title>Node4&#45;&gt;Node5</title>
<g id="a_edge4_Node000004_Node000005"><a xlink:title=" ">
<path fill="none" stroke="#63b8ff" d="M279.28,-109.63C266.51,-96.27 240.63,-70.86 214.5,-55 191.42,-40.99 163.16,-29.86 140.67,-22.24"/>
<polygon fill="#63b8ff" stroke="#63b8ff" points="141.7,-18.89 131.1,-19.09 139.5,-25.54 141.7,-18.89"/>
</a>
</g>
</g>
<!-- Node4&#45;&gt;Node6 -->
<g id="edge5_Node000004_Node000006" class="edge">
<title>Node4&#45;&gt;Node6</title>
<g id="a_edge5_Node000004_Node000006"><a xlink:title=" ">
<path fill="none" stroke="#63b8ff" d="M310.15,-109.98C333.35,-101.27 369.62,-87.63 395.9,-77.75"/>
<polygon fill="#63b8ff" stroke="#63b8ff" points="397.3,-80.97 405.43,-74.17 394.84,-74.41 397.3,-80.97"/>
</a>
</g>
</g>
<!-- Node4&#45;&gt;Node12 -->
<g id="edge17_Node000004_Node000012" class="edge">
<title>Node4&#45;&gt;Node12</title>
<g id="a_edge17_Node000004_Node000012"><a xlink:title=" ">
<path fill="none" stroke="#63b8ff" d="M296.31,-109.65C308.05,-96.75 325.97,-72.45 313.5,-55 307.89,-47.15 257.45,-31.45 221.08,-20.95"/>
<polygon fill="#63b8ff" stroke="#63b8ff" points="221.82,-17.53 211.25,-18.14 219.9,-24.26 221.82,-17.53"/>
</a>
</g>
</g>
<!-- Node17 -->
<g id="Node000017" class="node">
<title>Node17</title>
<g id="a_Node000017"><a xlink:title=" ">
<polygon fill="#e0e0e0" stroke="#999999" points="304.5,-74 266.5,-74 266.5,-55 304.5,-55 304.5,-74"/>
<text text-anchor="middle" x="285.5" y="-62" font-family="Helvetica,sans-Serif" font-size="10.00">map</text>
</a>
</g>
</g>
<!-- Node4&#45;&gt;Node17 -->
<g id="edge18_Node000004_Node000017" class="edge">
<title>Node4&#45;&gt;Node17</title>
<g id="a_edge18_Node000004_Node000017"><a xlink:title=" ">
<path fill="none" stroke="#63b8ff" d="M287.17,-109.75C286.91,-102.8 286.53,-92.85 286.2,-84.13"/>
<polygon fill="#63b8ff" stroke="#63b8ff" points="289.7,-83.95 285.82,-74.09 282.7,-84.21 289.7,-83.95"/>
</a>
</g>
</g>
<!-- Node6&#45;&gt;Node5 -->
<g id="edge6_Node000006_Node000005" class="edge">
<title>Node6&#45;&gt;Node5</title>
<g id="a_edge6_Node000006_Node000005"><a xlink:title=" ">
<path fill="none" stroke="#63b8ff" d="M398.81,-59.12C349.07,-51.71 245.49,-36 148.31,-19.28"/>
<polygon fill="#63b8ff" stroke="#63b8ff" points="148.77,-15.8 138.32,-17.55 147.58,-22.7 148.77,-15.8"/>
</a>
</g>
</g>
<!-- Node7 -->
<g id="Node000007" class="node">
<title>Node7</title>
<g id="a_Node000007"><a xlink:title=" ">
<polygon fill="#e0e0e0" stroke="#999999" points="367.5,-19 303.5,-19 303.5,0 367.5,0 367.5,-19"/>
<text text-anchor="middle" x="335.5" y="-7" font-family="Helvetica,sans-Serif" font-size="10.00">algorithm</text>
</a>
</g>
</g>
<!-- Node6&#45;&gt;Node7 -->
<g id="edge7_Node000006_Node000007" class="edge">
<title>Node6&#45;&gt;Node7</title>
<g id="a_edge7_Node000006_Node000007"><a xlink:title=" ">
<path fill="none" stroke="#63b8ff" d="M413.56,-54.98C399,-46.69 376.63,-33.94 359.57,-24.22"/>
<polygon fill="#63b8ff" stroke="#63b8ff" points="361.14,-21.08 350.71,-19.17 357.67,-27.16 361.14,-21.08"/>
</a>
</g>
</g>
<!-- Node8 -->
<g id="Node000008" class="node">
<title>Node8</title>
<g id="a_Node000008"><a xlink:title=" ">
<polygon fill="#e0e0e0" stroke="#999999" points="435,-19 386,-19 386,0 435,0 435,-19"/>
<text text-anchor="middle" x="410.5" y="-7" font-family="Helvetica,sans-Serif" font-size="10.00">cctype</text>
</a>
</g>
</g>
<!-- Node6&#45;&gt;Node8 -->
<g id="edge8_Node000006_Node000008" class="edge">
<title>Node6&#45;&gt;Node8</title>
<g id="a_edge8_Node000006_Node000008"><a xlink:title=" ">
<path fill="none" stroke="#63b8ff" d="M425.53,-54.75C423.14,-47.72 419.71,-37.62 416.73,-28.84"/>
<polygon fill="#63b8ff" stroke="#63b8ff" points="419.95,-27.43 413.42,-19.09 413.32,-29.68 419.95,-27.43"/>
</a>
</g>
</g>
<!-- Node9 -->
<g id="Node000009" class="node">
<title>Node9</title>
<g id="a_Node000009"><a xlink:title=" ">
<polygon fill="#e0e0e0" stroke="#999999" points="503.5,-19 453.5,-19 453.5,0 503.5,0 503.5,-19"/>
<text text-anchor="middle" x="478.5" y="-7" font-family="Helvetica,sans-Serif" font-size="10.00">cstring</text>
</a>
</g>
</g>
<!-- Node6&#45;&gt;Node9 -->
<g id="edge9_Node000006_Node000009" class="edge">
<title>Node6&#45;&gt;Node9</title>
<g id="a_edge9_Node000006_Node000009"><a xlink:title=" ">
<path fill="none" stroke="#63b8ff" d="M436.76,-54.75C443.96,-47.11 454.61,-35.82 463.35,-26.56"/>
<polygon fill="#63b8ff" stroke="#63b8ff" points="466.08,-28.76 470.4,-19.09 460.99,-23.96 466.08,-28.76"/>
</a>
</g>
</g>
<!-- Node10 -->
<g id="Node000010" class="node">
<title>Node10</title>
<g id="a_Node000010"><a xlink:title=" ">
<polygon fill="#e0e0e0" stroke="#999999" points="573,-19 522,-19 522,0 573,0 573,-19"/>
<text text-anchor="middle" x="547.5" y="-7" font-family="Helvetica,sans-Serif" font-size="10.00">errno.h</text>
</a>
</g>
</g>
<!-- Node6&#45;&gt;Node10 -->
<g id="edge10_Node000006_Node000010" class="edge">
<title>Node6&#45;&gt;Node10</title>
<g id="a_edge10_Node000006_Node000010"><a xlink:title=" ">
<path fill="none" stroke="#63b8ff" d="M447.62,-54.98C466.85,-46.42 496.73,-33.11 518.81,-23.28"/>
<polygon fill="#63b8ff" stroke="#63b8ff" points="520.32,-26.44 528.03,-19.17 517.47,-20.04 520.32,-26.44"/>
</a>
</g>
</g>
<!-- Node6&#45;&gt;Node11 -->
<g id="edge11_Node000006_Node000011" class="edge">
<title>Node6&#45;&gt;Node11</title>
<g id="a_edge11_Node000006_Node000011"><a xlink:title=" ">
<path fill="none" stroke="#63b8ff" d="M458.16,-57.76C511.17,-47.49 619.42,-26.5 655.82,-18.93"/>
<polygon fill="#63b8ff" stroke="#63b8ff" points="656.71,-22.32 665.75,-16.8 655.24,-15.48 656.71,-22.32"/>
</a>
</g>
</g>
<!-- Node6&#45;&gt;Node12 -->
<g id="edge12_Node000006_Node000012" class="edge">
<title>Node6&#45;&gt;Node12</title>
<g id="a_edge12_Node000006_Node000012"><a xlink:title=" ">
<path fill="none" stroke="#63b8ff" d="M398.85,-57.3C360.28,-49.21 290.58,-34.48 221.16,-19.12"/>
<polygon fill="#63b8ff" stroke="#63b8ff" points="221.89,-15.7 211.37,-16.95 220.38,-22.53 221.89,-15.7"/>
</a>
</g>
</g>
<!-- Node6&#45;&gt;Node13 -->
<g id="edge13_Node000006_Node000013" class="edge">
<title>Node6&#45;&gt;Node13</title>
<g id="a_edge13_Node000006_Node000013"><a xlink:title=" ">
<path fill="none" stroke="#63b8ff" d="M458.29,-57.55C463.03,-56.65 467.9,-55.78 472.5,-55 580.06,-36.88 610.33,-38.83 721.39,-19.09"/>
<polygon fill="#63b8ff" stroke="#63b8ff" points="722.09,-22.52 731.31,-17.3 720.85,-15.63 722.09,-22.52"/>
</a>
</g>
</g>
<!-- Node14 -->
<g id="Node000014" class="node">
<title>Node14</title>
<g id="a_Node000014"><a xlink:title=" ">
<polygon fill="#e0e0e0" stroke="#999999" points="647.5,-19 591.5,-19 591.5,0 647.5,0 647.5,-19"/>
<text text-anchor="middle" x="619.5" y="-7" font-family="Helvetica,sans-Serif" font-size="10.00">sstream</text>
</a>
</g>
</g>
<!-- Node6&#45;&gt;Node14 -->
<g id="edge14_Node000006_Node000014" class="edge">
<title>Node6&#45;&gt;Node14</title>
<g id="a_edge14_Node000006_Node000014"><a xlink:title=" ">
<path fill="none" stroke="#63b8ff" d="M458.34,-55.22C491.62,-45.98 545.52,-31.03 581.71,-20.99"/>
<polygon fill="#63b8ff" stroke="#63b8ff" points="582.72,-24.34 591.42,-18.29 580.85,-17.59 582.72,-24.34"/>
</a>
</g>
</g>
<!-- Node15 -->
<g id="Node000015" class="node">
<title>Node15</title>
<g id="a_Node000015"><a xlink:title=" ">
<polygon fill="#e0e0e0" stroke="#999999" points="285.5,-19 229.5,-19 229.5,0 285.5,0 285.5,-19"/>
<text text-anchor="middle" x="257.5" y="-7" font-family="Helvetica,sans-Serif" font-size="10.00">unistd.h</text>
</a>
</g>
</g>
<!-- Node6&#45;&gt;Node15 -->
<g id="edge15_Node000006_Node000015" class="edge">
<title>Node6&#45;&gt;Node15</title>
<g id="a_edge15_Node000006_Node000015"><a xlink:title=" ">
<path fill="none" stroke="#63b8ff" d="M401.03,-54.98C372.32,-46.09 327.08,-32.07 295.08,-22.15"/>
<polygon fill="#63b8ff" stroke="#63b8ff" points="295.78,-18.7 285.19,-19.08 293.7,-25.39 295.78,-18.7"/>
</a>
</g>
</g>
<!-- Node6&#45;&gt;Node16 -->
<g id="edge16_Node000006_Node000016" class="edge">
<title>Node6&#45;&gt;Node16</title>
<g id="a_edge16_Node000006_Node000016"><a xlink:title=" ">
<path fill="none" stroke="#63b8ff" d="M398.79,-61.39C336.87,-56.67 189.44,-43.87 57.09,-19.07"/>
<polygon fill="#63b8ff" stroke="#63b8ff" points="57.66,-15.62 47.18,-17.19 56.35,-22.49 57.66,-15.62"/>
</a>
</g>
</g>
<!-- Node20&#45;&gt;Node3 -->
<g id="edge25_Node000020_Node000003" class="edge">
<title>Node20&#45;&gt;Node3</title>
<g id="a_edge25_Node000020_Node000003"><a xlink:title=" ">
<path fill="none" stroke="#63b8ff" d="M257.94,-219.98C267.65,-212.07 282.32,-200.11 294,-190.58"/>
<polygon fill="#63b8ff" stroke="#63b8ff" points="296.33,-193.2 301.87,-184.17 291.9,-187.78 296.33,-193.2"/>
</a>
</g>
</g>
<!-- Node20&#45;&gt;Node5 -->
<g id="edge26_Node000020_Node000005" class="edge">
<title>Node20&#45;&gt;Node5</title>
<g id="a_edge26_Node000020_Node000005"><a xlink:title=" ">
<path fill="none" stroke="#63b8ff" d="M229.01,-219.93C200.3,-205.57 145.58,-173.74 119.5,-129 101.22,-97.65 99.5,-54.03 100.25,-29.39"/>
<polygon fill="#63b8ff" stroke="#63b8ff" points="103.75,-29.4 100.74,-19.25 96.76,-29.07 103.75,-29.4"/>
</a>
</g>
</g>
<!-- Node20&#45;&gt;Node16 -->
<g id="edge28_Node000020_Node000016" class="edge">
<title>Node20&#45;&gt;Node16</title>
<g id="a_edge28_Node000020_Node000016"><a xlink:title=" ">
<path fill="none" stroke="#63b8ff" d="M217.34,-219.97C195.94,-212.85 167.43,-201.08 146.5,-184 91.28,-138.94 49.4,-63.19 32.14,-28.65"/>
<polygon fill="#63b8ff" stroke="#63b8ff" points="35.12,-26.78 27.59,-19.33 28.84,-29.85 35.12,-26.78"/>
</a>
</g>
</g>
<!-- Node20&#45;&gt;Node19 -->
<g id="edge27_Node000020_Node000019" class="edge">
<title>Node20&#45;&gt;Node19</title>
<g id="a_edge27_Node000020_Node000019"><a xlink:title=" ">
<path fill="none" stroke="#63b8ff" d="M239.56,-219.66C223.28,-201.54 185.9,-159.91 165.11,-136.77"/>
<polygon fill="#63b8ff" stroke="#63b8ff" points="167.56,-134.26 158.28,-129.16 162.35,-138.94 167.56,-134.26"/>
</a>
</g>
</g>
<!-- Node21&#45;&gt;Node5 -->
<g id="edge35_Node000021_Node000005" class="edge">
<title>Node21&#45;&gt;Node5</title>
<g id="a_edge35_Node000021_Node000005"><a xlink:title=" ">
<path fill="none" stroke="#63b8ff" d="M676.2,-61.61C579.07,-57.35 349.98,-45.36 148.47,-19.13"/>
<polygon fill="#63b8ff" stroke="#63b8ff" points="148.66,-15.62 138.28,-17.79 147.74,-22.56 148.66,-15.62"/>
</a>
</g>
</g>
<!-- Node21&#45;&gt;Node12 -->
<g id="edge37_Node000021_Node000012" class="edge">
<title>Node21&#45;&gt;Node12</title>
<g id="a_edge37_Node000021_Node000012"><a xlink:title=" ">
<path fill="none" stroke="#63b8ff" d="M676.43,-61.5C588.78,-57.3 394.55,-45.81 221.36,-18.9"/>
<polygon fill="#63b8ff" stroke="#63b8ff" points="221.72,-15.42 211.3,-17.32 220.63,-22.33 221.72,-15.42"/>
</a>
</g>
</g>
<!-- Node21&#45;&gt;Node13 -->
<g id="edge38_Node000021_Node000013" class="edge">
<title>Node21&#45;&gt;Node13</title>
<g id="a_edge38_Node000021_Node000013"><a xlink:title=" ">
<path fill="none" stroke="#63b8ff" d="M729.77,-54.75C735.09,-47.34 742.86,-36.5 749.38,-27.41"/>
<polygon fill="#63b8ff" stroke="#63b8ff" points="752.36,-29.26 755.34,-19.09 746.67,-25.18 752.36,-29.26"/>
</a>
</g>
</g>
<!-- Node22 -->
<g id="Node000022" class="node">
<title>Node22</title>
<g id="a_Node000022"><a xlink:title=" ">
<polygon fill="#e0e0e0" stroke="#999999" points="927.5,-19 883.5,-19 883.5,0 927.5,0 927.5,-19"/>
<text text-anchor="middle" x="905.5" y="-7" font-family="Helvetica,sans-Serif" font-size="10.00">ctime</text>
</a>
</g>
</g>
<!-- Node21&#45;&gt;Node22 -->
<g id="edge36_Node000021_Node000022" class="edge">
<title>Node21&#45;&gt;Node22</title>
<g id="a_edge36_Node000021_Node000022"><a xlink:title=" ">
<path fill="none" stroke="#63b8ff" d="M752.74,-54.98C785.8,-45.36 839.44,-29.74 873.57,-19.8"/>
<polygon fill="#63b8ff" stroke="#63b8ff" points="874.86,-23.07 883.49,-16.91 872.91,-16.35 874.86,-23.07"/>
</a>
</g>
</g>
<!-- Node23 -->
<g id="Node000023" class="node">
<title>Node23</title>
<g id="a_Node000023"><a xlink:title=" ">
<polygon fill="#e0e0e0" stroke="#999999" points="865.5,-19 809.5,-19 809.5,0 865.5,0 865.5,-19"/>
<text text-anchor="middle" x="837.5" y="-7" font-family="Helvetica,sans-Serif" font-size="10.00">iomanip</text>
</a>
</g>
</g>
<!-- Node21&#45;&gt;Node23 -->
<g id="edge39_Node000021_Node000023" class="edge">
<title>Node21&#45;&gt;Node23</title>
<g id="a_edge39_Node000021_Node000023"><a xlink:title=" ">
<path fill="none" stroke="#63b8ff" d="M741.82,-54.98C760.16,-46.46 788.61,-33.23 809.73,-23.41"/>
<polygon fill="#63b8ff" stroke="#63b8ff" points="811.26,-26.56 818.85,-19.17 808.31,-20.21 811.26,-26.56"/>
</a>
</g>
</g>
</g>
</svg>
