<?xml version="1.0" encoding="UTF-8" standalone="no"?>
<!DOCTYPE svg PUBLIC "-//W3C//DTD SVG 1.1//EN"
 "http://www.w3.org/Graphics/SVG/1.1/DTD/svg11.dtd">
<!-- Generated by graphviz version 2.43.0 (0)
 -->
<!-- Title: include/config/ConfigServerBlock.hpp Pages: 1 -->
<svg width="877pt" height="313pt"
 viewBox="0.00 0.00 876.97 313.00" xmlns="http://www.w3.org/2000/svg" xmlns:xlink="http://www.w3.org/1999/xlink">
<g id="graph0" class="graph" transform="scale(1 1) rotate(0) translate(4 309)">
<title>include/config/ConfigServerBlock.hpp</title>
<!-- Node1 -->
<g id="Node000001" class="node">
<title>Node1</title>
<g id="a_Node000001"><a xlink:title=" ">
<polygon fill="#999999" stroke="#666666" points="692,-305 543,-305 543,-275 692,-275 692,-305"/>
<text text-anchor="start" x="551" y="-293" font-family="Helvetica,sans-Serif" font-size="10.00">include/config/ConfigServer</text>
<text text-anchor="middle" x="617.5" y="-282" font-family="Helvetica,sans-Serif" font-size="10.00">Block.hpp</text>
</a>
</g>
</g>
<!-- Node2 -->
<g id="Node000002" class="node">
<title>Node2</title>
<g id="a_Node000002"><a xlink:href="AConfigParser_8hpp.html" target="_top" xlink:title=" ">
<polygon fill="white" stroke="#666666" points="748.5,-184 644.5,-184 644.5,-165 748.5,-165 748.5,-184"/>
<text text-anchor="middle" x="696.5" y="-172" font-family="Helvetica,sans-Serif" font-size="10.00">AConfigParser.hpp</text>
</a>
</g>
</g>
<!-- Node1&#45;&gt;Node2 -->
<g id="edge1_Node000001_Node000002" class="edge">
<title>Node1&#45;&gt;Node2</title>
<g id="a_edge1_Node000001_Node000002"><a xlink:title=" ">
<path fill="none" stroke="#63b8ff" d="M618.67,-274.91C620.48,-260.11 625.05,-236.71 636.5,-220 645.14,-207.38 658.56,-196.95 670.51,-189.36"/>
<polygon fill="#63b8ff" stroke="#63b8ff" points="672.48,-192.26 679.27,-184.12 668.89,-186.25 672.48,-192.26"/>
</a>
</g>
</g>
<!-- Node10 -->
<g id="Node000010" class="node">
<title>Node10</title>
<g id="a_Node000010"><a xlink:title=" ">
<polygon fill="#e0e0e0" stroke="#999999" points="47,-19 0,-19 0,0 47,0 47,-19"/>
<text text-anchor="middle" x="23.5" y="-7" font-family="Helvetica,sans-Serif" font-size="10.00">fcntl.h</text>
</a>
</g>
</g>
<!-- Node1&#45;&gt;Node10 -->
<g id="edge28_Node000001_Node000010" class="edge">
<title>Node1&#45;&gt;Node10</title>
<g id="a_edge28_Node000001_Node000010"><a xlink:title=" ">
<path fill="none" stroke="#63b8ff" d="M542.85,-288.11C398.79,-284.37 96.5,-265.76 96.5,-175.5 96.5,-175.5 96.5,-175.5 96.5,-118.5 96.5,-79.97 64.21,-44.92 42.58,-25.77"/>
<polygon fill="#63b8ff" stroke="#63b8ff" points="44.79,-23.05 34.91,-19.23 40.25,-28.38 44.79,-23.05"/>
</a>
</g>
</g>
<!-- Node15 -->
<g id="Node000015" class="node">
<title>Node15</title>
<g id="a_Node000015"><a xlink:title=" ">
<polygon fill="#e0e0e0" stroke="#999999" points="627,-19 580,-19 580,0 627,0 627,-19"/>
<text text-anchor="middle" x="603.5" y="-7" font-family="Helvetica,sans-Serif" font-size="10.00">vector</text>
</a>
</g>
</g>
<!-- Node1&#45;&gt;Node15 -->
<g id="edge30_Node000001_Node000015" class="edge">
<title>Node1&#45;&gt;Node15</title>
<g id="a_edge30_Node000001_Node000015"><a xlink:title=" ">
<path fill="none" stroke="#63b8ff" d="M577.36,-274.86C537.57,-257.98 482.5,-225.56 482.5,-175.5 482.5,-175.5 482.5,-175.5 482.5,-118.5 482.5,-71.14 534.73,-39.4 570.56,-23.19"/>
<polygon fill="#63b8ff" stroke="#63b8ff" points="572.38,-26.21 580.17,-19.03 569.6,-19.79 572.38,-26.21"/>
</a>
</g>
</g>
<!-- Node17 -->
<g id="Node000017" class="node">
<title>Node17</title>
<g id="a_Node000017"><a xlink:title=" ">
<polygon fill="#e0e0e0" stroke="#999999" points="854.5,-129 822.5,-129 822.5,-110 854.5,-110 854.5,-129"/>
<text text-anchor="middle" x="838.5" y="-117" font-family="Helvetica,sans-Serif" font-size="10.00">set</text>
</a>
</g>
</g>
<!-- Node1&#45;&gt;Node17 -->
<g id="edge29_Node000001_Node000017" class="edge">
<title>Node1&#45;&gt;Node17</title>
<g id="a_edge29_Node000001_Node000017"><a xlink:title=" ">
<path fill="none" stroke="#63b8ff" d="M692.03,-282.55C725.9,-276.16 764.37,-263.6 791.5,-239 820.78,-212.45 832.08,-165.28 836.24,-139.18"/>
<polygon fill="#63b8ff" stroke="#63b8ff" points="839.73,-139.5 837.65,-129.11 832.79,-138.52 839.73,-139.5"/>
</a>
</g>
</g>
<!-- Node19 -->
<g id="Node000019" class="node">
<title>Node19</title>
<g id="a_Node000019"><a xlink:href="ConfigLocationBlock_8hpp.html" target="_top" xlink:title=" ">
<polygon fill="white" stroke="#666666" points="783,-239 646,-239 646,-220 783,-220 783,-239"/>
<text text-anchor="middle" x="714.5" y="-227" font-family="Helvetica,sans-Serif" font-size="10.00">ConfigLocationBlock.hpp</text>
</a>
</g>
</g>
<!-- Node1&#45;&gt;Node19 -->
<g id="edge23_Node000001_Node000019" class="edge">
<title>Node1&#45;&gt;Node19</title>
<g id="a_edge23_Node000001_Node000019"><a xlink:title=" ">
<path fill="none" stroke="#63b8ff" d="M640.98,-274.84C656.3,-265.6 676.21,-253.59 691.45,-244.4"/>
<polygon fill="#63b8ff" stroke="#63b8ff" points="693.49,-247.26 700.25,-239.09 689.88,-241.26 693.49,-247.26"/>
</a>
</g>
</g>
<!-- Node3 -->
<g id="Node000003" class="node">
<title>Node3</title>
<g id="a_Node000003"><a xlink:href="config__utils_8hpp.html" target="_top" xlink:title=" ">
<polygon fill="white" stroke="#666666" points="666,-129 549,-129 549,-110 666,-110 666,-129"/>
<text text-anchor="middle" x="607.5" y="-117" font-family="Helvetica,sans-Serif" font-size="10.00">utils/config_utils.hpp</text>
</a>
</g>
</g>
<!-- Node2&#45;&gt;Node3 -->
<g id="edge2_Node000002_Node000003" class="edge">
<title>Node2&#45;&gt;Node3</title>
<g id="a_edge2_Node000002_Node000003"><a xlink:title=" ">
<path fill="none" stroke="#63b8ff" d="M682.2,-164.98C668.4,-156.77 647.26,-144.18 630.99,-134.49"/>
<polygon fill="#63b8ff" stroke="#63b8ff" points="632.44,-131.28 622.06,-129.17 628.86,-137.29 632.44,-131.28"/>
</a>
</g>
</g>
<!-- Node4 -->
<g id="Node000004" class="node">
<title>Node4</title>
<g id="a_Node000004"><a xlink:href="defines_8hpp.html" target="_top" xlink:title=" ">
<polygon fill="white" stroke="#666666" points="791,-19 718,-19 718,0 791,0 791,-19"/>
<text text-anchor="middle" x="754.5" y="-7" font-family="Helvetica,sans-Serif" font-size="10.00">defines.hpp</text>
</a>
</g>
</g>
<!-- Node2&#45;&gt;Node4 -->
<g id="edge18_Node000002_Node000004" class="edge">
<title>Node2&#45;&gt;Node4</title>
<g id="a_edge18_Node000002_Node000004"><a xlink:title=" ">
<path fill="none" stroke="#63b8ff" d="M699.62,-164.74C708.74,-139.09 735.54,-63.78 748,-28.78"/>
<polygon fill="#63b8ff" stroke="#63b8ff" points="751.31,-29.9 751.37,-19.31 744.72,-27.55 751.31,-29.9"/>
</a>
</g>
</g>
<!-- Node11 -->
<g id="Node000011" class="node">
<title>Node11</title>
<g id="a_Node000011"><a xlink:title=" ">
<polygon fill="#e0e0e0" stroke="#999999" points="700,-19 645,-19 645,0 700,0 700,-19"/>
<text text-anchor="middle" x="672.5" y="-7" font-family="Helvetica,sans-Serif" font-size="10.00">fstream</text>
</a>
</g>
</g>
<!-- Node2&#45;&gt;Node11 -->
<g id="edge19_Node000002_Node000011" class="edge">
<title>Node2&#45;&gt;Node11</title>
<g id="a_edge19_Node000002_Node000011"><a xlink:title=" ">
<path fill="none" stroke="#63b8ff" d="M695.21,-164.74C691.45,-139.2 680.44,-64.43 675.26,-29.23"/>
<polygon fill="#63b8ff" stroke="#63b8ff" points="678.72,-28.69 673.8,-19.31 671.79,-29.71 678.72,-28.69"/>
</a>
</g>
</g>
<!-- Node12 -->
<g id="Node000012" class="node">
<title>Node12</title>
<g id="a_Node000012"><a xlink:title=" ">
<polygon fill="#e0e0e0" stroke="#999999" points="125.5,-19 65.5,-19 65.5,0 125.5,0 125.5,-19"/>
<text text-anchor="middle" x="95.5" y="-7" font-family="Helvetica,sans-Serif" font-size="10.00">iostream</text>
</a>
</g>
</g>
<!-- Node2&#45;&gt;Node12 -->
<g id="edge20_Node000002_Node000012" class="edge">
<title>Node2&#45;&gt;Node12</title>
<g id="a_edge20_Node000002_Node000012"><a xlink:title=" ">
<path fill="none" stroke="#63b8ff" d="M665.03,-164.97C563.97,-137.56 247.7,-51.78 135.48,-21.34"/>
<polygon fill="#63b8ff" stroke="#63b8ff" points="136.15,-17.9 125.58,-18.66 134.32,-24.65 136.15,-17.9"/>
</a>
</g>
</g>
<!-- Node2&#45;&gt;Node17 -->
<g id="edge21_Node000002_Node000017" class="edge">
<title>Node2&#45;&gt;Node17</title>
<g id="a_edge21_Node000002_Node000017"><a xlink:title=" ">
<path fill="none" stroke="#63b8ff" d="M719.31,-164.98C744.9,-155.44 786.28,-139.99 812.94,-130.04"/>
<polygon fill="#63b8ff" stroke="#63b8ff" points="814.22,-133.3 822.37,-126.52 811.77,-126.74 814.22,-133.3"/>
</a>
</g>
</g>
<!-- Node18 -->
<g id="Node000018" class="node">
<title>Node18</title>
<g id="a_Node000018"><a xlink:title=" ">
<polygon fill="#e0e0e0" stroke="#999999" points="804.5,-129 760.5,-129 760.5,-110 804.5,-110 804.5,-129"/>
<text text-anchor="middle" x="782.5" y="-117" font-family="Helvetica,sans-Serif" font-size="10.00">string</text>
</a>
</g>
</g>
<!-- Node2&#45;&gt;Node18 -->
<g id="edge22_Node000002_Node000018" class="edge">
<title>Node2&#45;&gt;Node18</title>
<g id="a_edge22_Node000002_Node000018"><a xlink:title=" ">
<path fill="none" stroke="#63b8ff" d="M710.32,-164.98C723.65,-156.77 744.08,-144.18 759.81,-134.49"/>
<polygon fill="#63b8ff" stroke="#63b8ff" points="761.75,-137.4 768.43,-129.17 758.08,-131.44 761.75,-137.4"/>
</a>
</g>
</g>
<!-- Node3&#45;&gt;Node4 -->
<g id="edge3_Node000003_Node000004" class="edge">
<title>Node3&#45;&gt;Node4</title>
<g id="a_edge3_Node000003_Node000004"><a xlink:title=" ">
<path fill="none" stroke="#63b8ff" d="M619.28,-109.84C644.33,-91.44 703.14,-48.23 734.3,-25.34"/>
<polygon fill="#63b8ff" stroke="#63b8ff" points="736.68,-27.94 742.66,-19.2 732.53,-22.3 736.68,-27.94"/>
</a>
</g>
</g>
<!-- Node5 -->
<g id="Node000005" class="node">
<title>Node5</title>
<g id="a_Node000005"><a xlink:href="utils_8hpp.html" target="_top" xlink:title=" ">
<polygon fill="white" stroke="#666666" points="427,-74 368,-74 368,-55 427,-55 427,-74"/>
<text text-anchor="middle" x="397.5" y="-62" font-family="Helvetica,sans-Serif" font-size="10.00">utils.hpp</text>
</a>
</g>
</g>
<!-- Node3&#45;&gt;Node5 -->
<g id="edge4_Node000003_Node000005" class="edge">
<title>Node3&#45;&gt;Node5</title>
<g id="a_edge4_Node000003_Node000005"><a xlink:title=" ">
<path fill="none" stroke="#63b8ff" d="M573.76,-109.98C536.43,-100.56 476.35,-85.4 436.89,-75.44"/>
<polygon fill="#63b8ff" stroke="#63b8ff" points="437.64,-72.02 427.08,-72.97 435.92,-78.81 437.64,-72.02"/>
</a>
</g>
</g>
<!-- Node3&#45;&gt;Node11 -->
<g id="edge16_Node000003_Node000011" class="edge">
<title>Node3&#45;&gt;Node11</title>
<g id="a_edge16_Node000003_Node000011"><a xlink:title=" ">
<path fill="none" stroke="#63b8ff" d="M612.01,-109.73C618.46,-97.35 630.82,-74.12 642.5,-55 648.15,-45.76 654.85,-35.73 660.49,-27.54"/>
<polygon fill="#63b8ff" stroke="#63b8ff" points="663.45,-29.42 666.29,-19.21 657.7,-25.42 663.45,-29.42"/>
</a>
</g>
</g>
<!-- Node16 -->
<g id="Node000016" class="node">
<title>Node16</title>
<g id="a_Node000016"><a xlink:title=" ">
<polygon fill="#e0e0e0" stroke="#999999" points="590.5,-74 552.5,-74 552.5,-55 590.5,-55 590.5,-74"/>
<text text-anchor="middle" x="571.5" y="-62" font-family="Helvetica,sans-Serif" font-size="10.00">map</text>
</a>
</g>
</g>
<!-- Node3&#45;&gt;Node16 -->
<g id="edge17_Node000003_Node000016" class="edge">
<title>Node3&#45;&gt;Node16</title>
<g id="a_edge17_Node000003_Node000016"><a xlink:title=" ">
<path fill="none" stroke="#63b8ff" d="M601.56,-109.75C596.52,-102.34 589.16,-91.5 582.99,-82.41"/>
<polygon fill="#63b8ff" stroke="#63b8ff" points="585.85,-80.39 577.33,-74.09 580.06,-84.33 585.85,-80.39"/>
</a>
</g>
</g>
<!-- Node5&#45;&gt;Node4 -->
<g id="edge5_Node000005_Node000004" class="edge">
<title>Node5&#45;&gt;Node4</title>
<g id="a_edge5_Node000005_Node000004"><a xlink:title=" ">
<path fill="none" stroke="#63b8ff" d="M427.15,-59.67C480.91,-52.62 598.28,-36.85 707.96,-19.03"/>
<polygon fill="#63b8ff" stroke="#63b8ff" points="708.56,-22.48 717.87,-17.41 707.43,-15.57 708.56,-22.48"/>
</a>
</g>
</g>
<!-- Node6 -->
<g id="Node000006" class="node">
<title>Node6</title>
<g id="a_Node000006"><a xlink:title=" ">
<polygon fill="#e0e0e0" stroke="#999999" points="425.5,-19 361.5,-19 361.5,0 425.5,0 425.5,-19"/>
<text text-anchor="middle" x="393.5" y="-7" font-family="Helvetica,sans-Serif" font-size="10.00">algorithm</text>
</a>
</g>
</g>
<!-- Node5&#45;&gt;Node6 -->
<g id="edge6_Node000005_Node000006" class="edge">
<title>Node5&#45;&gt;Node6</title>
<g id="a_edge6_Node000005_Node000006"><a xlink:title=" ">
<path fill="none" stroke="#63b8ff" d="M396.84,-54.75C396.32,-47.8 395.56,-37.85 394.91,-29.13"/>
<polygon fill="#63b8ff" stroke="#63b8ff" points="398.39,-28.8 394.15,-19.09 391.41,-29.32 398.39,-28.8"/>
</a>
</g>
</g>
<!-- Node7 -->
<g id="Node000007" class="node">
<title>Node7</title>
<g id="a_Node000007"><a xlink:title=" ">
<polygon fill="#e0e0e0" stroke="#999999" points="493,-19 444,-19 444,0 493,0 493,-19"/>
<text text-anchor="middle" x="468.5" y="-7" font-family="Helvetica,sans-Serif" font-size="10.00">cctype</text>
</a>
</g>
</g>
<!-- Node5&#45;&gt;Node7 -->
<g id="edge7_Node000005_Node000007" class="edge">
<title>Node5&#45;&gt;Node7</title>
<g id="a_edge7_Node000005_Node000007"><a xlink:title=" ">
<path fill="none" stroke="#63b8ff" d="M408.91,-54.98C419.61,-47 435.84,-34.88 448.66,-25.31"/>
<polygon fill="#63b8ff" stroke="#63b8ff" points="450.97,-27.96 456.89,-19.17 446.78,-22.35 450.97,-27.96"/>
</a>
</g>
</g>
<!-- Node8 -->
<g id="Node000008" class="node">
<title>Node8</title>
<g id="a_Node000008"><a xlink:title=" ">
<polygon fill="#e0e0e0" stroke="#999999" points="561.5,-19 511.5,-19 511.5,0 561.5,0 561.5,-19"/>
<text text-anchor="middle" x="536.5" y="-7" font-family="Helvetica,sans-Serif" font-size="10.00">cstring</text>
</a>
</g>
</g>
<!-- Node5&#45;&gt;Node8 -->
<g id="edge8_Node000005_Node000008" class="edge">
<title>Node5&#45;&gt;Node8</title>
<g id="a_edge8_Node000005_Node000008"><a xlink:title=" ">
<path fill="none" stroke="#63b8ff" d="M419.83,-54.98C442.7,-46.27 478.46,-32.63 504.36,-22.75"/>
<polygon fill="#63b8ff" stroke="#63b8ff" points="505.66,-26 513.76,-19.17 503.17,-19.46 505.66,-26"/>
</a>
</g>
</g>
<!-- Node9 -->
<g id="Node000009" class="node">
<title>Node9</title>
<g id="a_Node000009"><a xlink:title=" ">
<polygon fill="#e0e0e0" stroke="#999999" points="195,-19 144,-19 144,0 195,0 195,-19"/>
<text text-anchor="middle" x="169.5" y="-7" font-family="Helvetica,sans-Serif" font-size="10.00">errno.h</text>
</a>
</g>
</g>
<!-- Node5&#45;&gt;Node9 -->
<g id="edge9_Node000005_Node000009" class="edge">
<title>Node5&#45;&gt;Node9</title>
<g id="a_edge9_Node000005_Node000009"><a xlink:title=" ">
<path fill="none" stroke="#63b8ff" d="M367.72,-56.75C331.64,-48.54 268.75,-34.16 204.94,-19.08"/>
<polygon fill="#63b8ff" stroke="#63b8ff" points="205.64,-15.65 195.11,-16.75 204.03,-22.46 205.64,-15.65"/>
</a>
</g>
</g>
<!-- Node5&#45;&gt;Node10 -->
<g id="edge10_Node000005_Node000010" class="edge">
<title>Node5&#45;&gt;Node10</title>
<g id="a_edge10_Node000005_Node000010"><a xlink:title=" ">
<path fill="none" stroke="#63b8ff" d="M367.66,-60.84C309.75,-55.43 177.98,-41.81 57.36,-18.93"/>
<polygon fill="#63b8ff" stroke="#63b8ff" points="57.7,-15.43 47.21,-16.98 56.37,-22.3 57.7,-15.43"/>
</a>
</g>
</g>
<!-- Node5&#45;&gt;Node11 -->
<g id="edge11_Node000005_Node000011" class="edge">
<title>Node5&#45;&gt;Node11</title>
<g id="a_edge11_Node000005_Node000011"><a xlink:title=" ">
<path fill="none" stroke="#63b8ff" d="M427.26,-58.34C470.63,-50.73 553.97,-35.78 634.8,-19.07"/>
<polygon fill="#63b8ff" stroke="#63b8ff" points="635.57,-22.49 644.65,-17.03 634.14,-15.64 635.57,-22.49"/>
</a>
</g>
</g>
<!-- Node5&#45;&gt;Node12 -->
<g id="edge12_Node000005_Node000012" class="edge">
<title>Node5&#45;&gt;Node12</title>
<g id="a_edge12_Node000005_Node000012"><a xlink:title=" ">
<path fill="none" stroke="#63b8ff" d="M367.84,-58.95C320.76,-51.62 225.82,-36.43 135.55,-19.13"/>
<polygon fill="#63b8ff" stroke="#63b8ff" points="136.19,-15.69 125.7,-17.23 134.86,-22.56 136.19,-15.69"/>
</a>
</g>
</g>
<!-- Node13 -->
<g id="Node000013" class="node">
<title>Node13</title>
<g id="a_Node000013"><a xlink:title=" ">
<polygon fill="#e0e0e0" stroke="#999999" points="269.5,-19 213.5,-19 213.5,0 269.5,0 269.5,-19"/>
<text text-anchor="middle" x="241.5" y="-7" font-family="Helvetica,sans-Serif" font-size="10.00">sstream</text>
</a>
</g>
</g>
<!-- Node5&#45;&gt;Node13 -->
<g id="edge13_Node000005_Node000013" class="edge">
<title>Node5&#45;&gt;Node13</title>
<g id="a_edge13_Node000005_Node000013"><a xlink:title=" ">
<path fill="none" stroke="#63b8ff" d="M372.44,-54.98C346.47,-46.16 305.69,-32.31 276.54,-22.41"/>
<polygon fill="#63b8ff" stroke="#63b8ff" points="277.35,-18.99 266.76,-19.08 275.1,-25.61 277.35,-18.99"/>
</a>
</g>
</g>
<!-- Node14 -->
<g id="Node000014" class="node">
<title>Node14</title>
<g id="a_Node000014"><a xlink:title=" ">
<polygon fill="#e0e0e0" stroke="#999999" points="343.5,-19 287.5,-19 287.5,0 343.5,0 343.5,-19"/>
<text text-anchor="middle" x="315.5" y="-7" font-family="Helvetica,sans-Serif" font-size="10.00">unistd.h</text>
</a>
</g>
</g>
<!-- Node5&#45;&gt;Node14 -->
<g id="edge14_Node000005_Node000014" class="edge">
<title>Node5&#45;&gt;Node14</title>
<g id="a_edge14_Node000005_Node000014"><a xlink:title=" ">
<path fill="none" stroke="#63b8ff" d="M384.33,-54.98C371.73,-46.84 352.5,-34.41 337.56,-24.76"/>
<polygon fill="#63b8ff" stroke="#63b8ff" points="339.21,-21.66 328.91,-19.17 335.41,-27.54 339.21,-21.66"/>
</a>
</g>
</g>
<!-- Node5&#45;&gt;Node15 -->
<g id="edge15_Node000005_Node000015" class="edge">
<title>Node5&#45;&gt;Node15</title>
<g id="a_edge15_Node000005_Node000015"><a xlink:title=" ">
<path fill="none" stroke="#63b8ff" d="M427.19,-55.86C459.77,-47.49 513.86,-33.58 569.96,-19.14"/>
<polygon fill="#63b8ff" stroke="#63b8ff" points="570.9,-22.51 579.71,-16.63 569.15,-15.73 570.9,-22.51"/>
</a>
</g>
</g>
<!-- Node19&#45;&gt;Node2 -->
<g id="edge24_Node000019_Node000002" class="edge">
<title>Node19&#45;&gt;Node2</title>
<g id="a_edge24_Node000019_Node000002"><a xlink:title=" ">
<path fill="none" stroke="#63b8ff" d="M711.53,-219.75C709.14,-212.72 705.71,-202.62 702.73,-193.84"/>
<polygon fill="#63b8ff" stroke="#63b8ff" points="705.95,-192.43 699.42,-184.09 699.32,-194.68 705.95,-192.43"/>
</a>
</g>
</g>
<!-- Node19&#45;&gt;Node4 -->
<g id="edge25_Node000019_Node000004" class="edge">
<title>Node19&#45;&gt;Node4</title>
<g id="a_edge25_Node000019_Node000004"><a xlink:title=" ">
<path fill="none" stroke="#63b8ff" d="M740.59,-219.9C775.9,-206.69 837.47,-177.69 863.5,-129 887.42,-84.27 822.67,-43.42 782.93,-23.41"/>
<polygon fill="#63b8ff" stroke="#63b8ff" points="784.44,-20.25 773.91,-19.01 781.37,-26.55 784.44,-20.25"/>
</a>
</g>
</g>
<!-- Node19&#45;&gt;Node15 -->
<g id="edge27_Node000019_Node000015" class="edge">
<title>Node19&#45;&gt;Node15</title>
<g id="a_edge27_Node000019_Node000015"><a xlink:title=" ">
<path fill="none" stroke="#63b8ff" d="M679.34,-219.98C637.48,-207.73 569.47,-180.71 539.5,-129 532.33,-116.64 528.65,-82.02 543.5,-55 550.72,-41.87 563.64,-31.52 575.65,-24.13"/>
<polygon fill="#63b8ff" stroke="#63b8ff" points="577.6,-27.05 584.55,-19.05 574.13,-20.97 577.6,-27.05"/>
</a>
</g>
</g>
<!-- Node19&#45;&gt;Node18 -->
<g id="edge26_Node000019_Node000018" class="edge">
<title>Node19&#45;&gt;Node18</title>
<g id="a_edge26_Node000019_Node000018"><a xlink:title=" ">
<path fill="none" stroke="#63b8ff" d="M724.91,-219.89C734.45,-211.54 748.43,-198.09 757.5,-184 766.51,-169.99 773.17,-152.21 777.34,-139.03"/>
<polygon fill="#63b8ff" stroke="#63b8ff" points="780.76,-139.81 780.25,-129.22 774.05,-137.81 780.76,-139.81"/>
</a>
</g>
</g>
</g>
</svg>
