<?xml version="1.0" encoding="UTF-8" standalone="no"?>
<!DOCTYPE svg PUBLIC "-//W3C//DTD SVG 1.1//EN"
 "http://www.w3.org/Graphics/SVG/1.1/DTD/svg11.dtd">
<!-- Generated by graphviz version 2.43.0 (0)
 -->
<!-- Title: include/config/Config.hpp Pages: 1 -->
<svg width="801pt" height="357pt"
 viewBox="0.00 0.00 800.50 357.00" xmlns="http://www.w3.org/2000/svg" xmlns:xlink="http://www.w3.org/1999/xlink">
<g id="graph0" class="graph" transform="scale(1 1) rotate(0) translate(4 353)">
<title>include/config/Config.hpp</title>
<!-- Node1 -->
<g id="Node000001" class="node">
<title>Node1</title>
<g id="a_Node000001"><a xlink:title=" ">
<polygon fill="#999999" stroke="#666666" points="560,-349 421,-349 421,-330 560,-330 560,-349"/>
<text text-anchor="middle" x="490.5" y="-337" font-family="Helvetica,sans-Serif" font-size="10.00">include/config/Config.hpp</text>
</a>
</g>
</g>
<!-- Node2 -->
<g id="Node000002" class="node">
<title>Node2</title>
<g id="a_Node000002"><a xlink:href="ConfigGlobalBlock_8hpp.html" target="_top" xlink:title=" ">
<polygon fill="white" stroke="#666666" points="554,-239 427,-239 427,-220 554,-220 554,-239"/>
<text text-anchor="middle" x="490.5" y="-227" font-family="Helvetica,sans-Serif" font-size="10.00">ConfigGlobalBlock.hpp</text>
</a>
</g>
</g>
<!-- Node1&#45;&gt;Node2 -->
<g id="edge1_Node000001_Node000002" class="edge">
<title>Node1&#45;&gt;Node2</title>
<g id="a_edge1_Node000001_Node000002"><a xlink:title=" ">
<path fill="none" stroke="#63b8ff" d="M490.5,-329.66C490.5,-312.17 490.5,-272.8 490.5,-249.27"/>
<polygon fill="#63b8ff" stroke="#63b8ff" points="494,-249.16 490.5,-239.16 487,-249.16 494,-249.16"/>
</a>
</g>
</g>
<!-- Node5 -->
<g id="Node000005" class="node">
<title>Node5</title>
<g id="a_Node000005"><a xlink:href="defines_8hpp.html" target="_top" xlink:title=" ">
<polygon fill="white" stroke="#666666" points="712,-19 639,-19 639,0 712,0 712,-19"/>
<text text-anchor="middle" x="675.5" y="-7" font-family="Helvetica,sans-Serif" font-size="10.00">defines.hpp</text>
</a>
</g>
</g>
<!-- Node1&#45;&gt;Node5 -->
<g id="edge41_Node000001_Node000005" class="edge">
<title>Node1&#45;&gt;Node5</title>
<g id="a_edge41_Node000001_Node000005"><a xlink:title=" ">
<path fill="none" stroke="#63b8ff" d="M560.21,-338.61C638.42,-334.63 754.5,-314.56 754.5,-230.5 754.5,-230.5 754.5,-230.5 754.5,-118.5 754.5,-78.78 719.25,-43.93 695.84,-25.17"/>
<polygon fill="#63b8ff" stroke="#63b8ff" points="697.9,-22.34 687.84,-19.01 693.63,-27.89 697.9,-22.34"/>
</a>
</g>
</g>
<!-- Node13 -->
<g id="Node000013" class="node">
<title>Node13</title>
<g id="a_Node000013"><a xlink:title=" ">
<polygon fill="#e0e0e0" stroke="#999999" points="790.5,-19 730.5,-19 730.5,0 790.5,0 790.5,-19"/>
<text text-anchor="middle" x="760.5" y="-7" font-family="Helvetica,sans-Serif" font-size="10.00">iostream</text>
</a>
</g>
</g>
<!-- Node1&#45;&gt;Node13 -->
<g id="edge42_Node000001_Node000013" class="edge">
<title>Node1&#45;&gt;Node13</title>
<g id="a_edge42_Node000001_Node000013"><a xlink:title=" ">
<path fill="none" stroke="#63b8ff" d="M560.12,-332.45C625.29,-325.72 717.05,-313.21 747.5,-294 776.75,-275.54 792.5,-265.09 792.5,-230.5 792.5,-230.5 792.5,-230.5 792.5,-118.5 792.5,-85.71 778.77,-49.54 769.3,-28.49"/>
<polygon fill="#63b8ff" stroke="#63b8ff" points="772.36,-26.77 764.95,-19.2 766.02,-29.74 772.36,-26.77"/>
</a>
</g>
</g>
<!-- Node16 -->
<g id="Node000016" class="node">
<title>Node16</title>
<g id="a_Node000016"><a xlink:title=" ">
<polygon fill="#e0e0e0" stroke="#999999" points="47,-19 0,-19 0,0 47,0 47,-19"/>
<text text-anchor="middle" x="23.5" y="-7" font-family="Helvetica,sans-Serif" font-size="10.00">vector</text>
</a>
</g>
</g>
<!-- Node1&#45;&gt;Node16 -->
<g id="edge44_Node000001_Node000016" class="edge">
<title>Node1&#45;&gt;Node16</title>
<g id="a_edge44_Node000001_Node000016"><a xlink:title=" ">
<path fill="none" stroke="#63b8ff" d="M420.84,-336.74C290.65,-331.54 23.5,-311.06 23.5,-230.5 23.5,-230.5 23.5,-230.5 23.5,-118.5 23.5,-87.19 23.5,-50.77 23.5,-29.23"/>
<polygon fill="#63b8ff" stroke="#63b8ff" points="27,-29.18 23.5,-19.18 20,-29.18 27,-29.18"/>
</a>
</g>
</g>
<!-- Node19 -->
<g id="Node000019" class="node">
<title>Node19</title>
<g id="a_Node000019"><a xlink:title=" ">
<polygon fill="#e0e0e0" stroke="#999999" points="274.5,-129 230.5,-129 230.5,-110 274.5,-110 274.5,-129"/>
<text text-anchor="middle" x="252.5" y="-117" font-family="Helvetica,sans-Serif" font-size="10.00">string</text>
</a>
</g>
</g>
<!-- Node1&#45;&gt;Node19 -->
<g id="edge43_Node000001_Node000019" class="edge">
<title>Node1&#45;&gt;Node19</title>
<g id="a_edge43_Node000001_Node000019"><a xlink:title=" ">
<path fill="none" stroke="#63b8ff" d="M420.77,-334.24C377.36,-329.17 321.59,-318.1 277.5,-294 247.44,-277.57 236.46,-270.71 223.5,-239 209.4,-204.52 228.36,-161.49 241.61,-137.93"/>
<polygon fill="#63b8ff" stroke="#63b8ff" points="244.75,-139.49 246.83,-129.1 238.73,-135.93 244.75,-139.49"/>
</a>
</g>
</g>
<!-- Node20 -->
<g id="Node000020" class="node">
<title>Node20</title>
<g id="a_Node000020"><a xlink:href="ConfigHttpBlock_8hpp.html" target="_top" xlink:title=" ">
<polygon fill="white" stroke="#666666" points="688.5,-239 572.5,-239 572.5,-220 688.5,-220 688.5,-239"/>
<text text-anchor="middle" x="630.5" y="-227" font-family="Helvetica,sans-Serif" font-size="10.00">ConfigHttpBlock.hpp</text>
</a>
</g>
</g>
<!-- Node1&#45;&gt;Node20 -->
<g id="edge26_Node000001_Node000020" class="edge">
<title>Node1&#45;&gt;Node20</title>
<g id="a_edge26_Node000001_Node000020"><a xlink:title=" ">
<path fill="none" stroke="#63b8ff" d="M501.96,-329.66C525.97,-311.14 581.79,-268.08 611.35,-245.28"/>
<polygon fill="#63b8ff" stroke="#63b8ff" points="613.5,-248.04 619.28,-239.16 609.22,-242.5 613.5,-248.04"/>
</a>
</g>
</g>
<!-- Node21 -->
<g id="Node000021" class="node">
<title>Node21</title>
<g id="a_Node000021"><a xlink:href="ConfigServerBlock_8hpp.html" target="_top" xlink:title=" ">
<polygon fill="white" stroke="#666666" points="414,-294 287,-294 287,-275 414,-275 414,-294"/>
<text text-anchor="middle" x="350.5" y="-282" font-family="Helvetica,sans-Serif" font-size="10.00">ConfigServerBlock.hpp</text>
</a>
</g>
</g>
<!-- Node1&#45;&gt;Node21 -->
<g id="edge31_Node000001_Node000021" class="edge">
<title>Node1&#45;&gt;Node21</title>
<g id="a_edge31_Node000001_Node000021"><a xlink:title=" ">
<path fill="none" stroke="#63b8ff" d="M468.01,-329.98C444.98,-321.27 408.96,-307.63 382.87,-297.75"/>
<polygon fill="#63b8ff" stroke="#63b8ff" points="383.99,-294.44 373.4,-294.17 381.52,-300.98 383.99,-294.44"/>
</a>
</g>
</g>
<!-- Node3 -->
<g id="Node000003" class="node">
<title>Node3</title>
<g id="a_Node000003"><a xlink:href="AConfigParser_8hpp.html" target="_top" xlink:title=" ">
<polygon fill="white" stroke="#666666" points="570.5,-184 466.5,-184 466.5,-165 570.5,-165 570.5,-184"/>
<text text-anchor="middle" x="518.5" y="-172" font-family="Helvetica,sans-Serif" font-size="10.00">AConfigParser.hpp</text>
</a>
</g>
</g>
<!-- Node2&#45;&gt;Node3 -->
<g id="edge2_Node000002_Node000003" class="edge">
<title>Node2&#45;&gt;Node3</title>
<g id="a_edge2_Node000002_Node000003"><a xlink:title=" ">
<path fill="none" stroke="#63b8ff" d="M495.12,-219.75C498.96,-212.49 504.52,-201.95 509.26,-192.98"/>
<polygon fill="#63b8ff" stroke="#63b8ff" points="512.39,-194.57 513.96,-184.09 506.2,-191.3 512.39,-194.57"/>
</a>
</g>
</g>
<!-- Node18 -->
<g id="Node000018" class="node">
<title>Node18</title>
<g id="a_Node000018"><a xlink:title=" ">
<polygon fill="#e0e0e0" stroke="#999999" points="652.5,-129 620.5,-129 620.5,-110 652.5,-110 652.5,-129"/>
<text text-anchor="middle" x="636.5" y="-117" font-family="Helvetica,sans-Serif" font-size="10.00">set</text>
</a>
</g>
</g>
<!-- Node2&#45;&gt;Node18 -->
<g id="edge24_Node000002_Node000018" class="edge">
<title>Node2&#45;&gt;Node18</title>
<g id="a_edge24_Node000002_Node000018"><a xlink:title=" ">
<path fill="none" stroke="#63b8ff" d="M513.42,-219.86C532.24,-212.12 559.03,-199.61 579.5,-184 597.09,-170.59 613.55,-151.22 624.21,-137.41"/>
<polygon fill="#63b8ff" stroke="#63b8ff" points="627.13,-139.35 630.34,-129.25 621.54,-135.15 627.13,-139.35"/>
</a>
</g>
</g>
<!-- Node2&#45;&gt;Node19 -->
<g id="edge25_Node000002_Node000019" class="edge">
<title>Node2&#45;&gt;Node19</title>
<g id="a_edge25_Node000002_Node000019"><a xlink:title=" ">
<path fill="none" stroke="#63b8ff" d="M426.64,-221.23C391.45,-215.13 348.03,-204.04 313.5,-184 293.35,-172.31 275.58,-152.04 264.49,-137.54"/>
<polygon fill="#63b8ff" stroke="#63b8ff" points="267.24,-135.37 258.49,-129.39 261.6,-139.52 267.24,-135.37"/>
</a>
</g>
</g>
<!-- Node4 -->
<g id="Node000004" class="node">
<title>Node4</title>
<g id="a_Node000004"><a xlink:href="config__utils_8hpp.html" target="_top" xlink:title=" ">
<polygon fill="white" stroke="#666666" points="450,-129 333,-129 333,-110 450,-110 450,-129"/>
<text text-anchor="middle" x="391.5" y="-117" font-family="Helvetica,sans-Serif" font-size="10.00">utils/config_utils.hpp</text>
</a>
</g>
</g>
<!-- Node3&#45;&gt;Node4 -->
<g id="edge3_Node000003_Node000004" class="edge">
<title>Node3&#45;&gt;Node4</title>
<g id="a_edge3_Node000003_Node000004"><a xlink:title=" ">
<path fill="none" stroke="#63b8ff" d="M498.1,-164.98C477.48,-156.38 445.39,-142.99 421.81,-133.15"/>
<polygon fill="#63b8ff" stroke="#63b8ff" points="422.85,-129.79 412.28,-129.17 420.16,-136.25 422.85,-129.79"/>
</a>
</g>
</g>
<!-- Node3&#45;&gt;Node5 -->
<g id="edge19_Node000003_Node000005" class="edge">
<title>Node3&#45;&gt;Node5</title>
<g id="a_edge19_Node000003_Node000005"><a xlink:title=" ">
<path fill="none" stroke="#63b8ff" d="M526.61,-164.83C538.1,-152.57 559.81,-129.48 578.5,-110 606.98,-80.32 640.56,-46.04 659.8,-26.45"/>
<polygon fill="#63b8ff" stroke="#63b8ff" points="662.37,-28.82 666.89,-19.24 657.38,-23.92 662.37,-28.82"/>
</a>
</g>
</g>
<!-- Node12 -->
<g id="Node000012" class="node">
<title>Node12</title>
<g id="a_Node000012"><a xlink:title=" ">
<polygon fill="#e0e0e0" stroke="#999999" points="621,-19 566,-19 566,0 621,0 621,-19"/>
<text text-anchor="middle" x="593.5" y="-7" font-family="Helvetica,sans-Serif" font-size="10.00">fstream</text>
</a>
</g>
</g>
<!-- Node3&#45;&gt;Node12 -->
<g id="edge20_Node000003_Node000012" class="edge">
<title>Node3&#45;&gt;Node12</title>
<g id="a_edge20_Node000003_Node000012"><a xlink:title=" ">
<path fill="none" stroke="#63b8ff" d="M521.07,-164.71C524.8,-152.3 532.19,-129.03 540.5,-110 553.49,-80.23 571.91,-47.24 583.26,-27.72"/>
<polygon fill="#63b8ff" stroke="#63b8ff" points="586.3,-29.45 588.35,-19.06 580.27,-25.91 586.3,-29.45"/>
</a>
</g>
</g>
<!-- Node3&#45;&gt;Node13 -->
<g id="edge21_Node000003_Node000013" class="edge">
<title>Node3&#45;&gt;Node13</title>
<g id="a_edge21_Node000003_Node000013"><a xlink:title=" ">
<path fill="none" stroke="#63b8ff" d="M531.11,-164.83C548.96,-152.57 582.66,-129.47 611.5,-110 656.63,-79.53 709.71,-44.2 738.77,-24.91"/>
<polygon fill="#63b8ff" stroke="#63b8ff" points="740.92,-27.69 747.31,-19.24 737.05,-21.85 740.92,-27.69"/>
</a>
</g>
</g>
<!-- Node3&#45;&gt;Node18 -->
<g id="edge22_Node000003_Node000018" class="edge">
<title>Node3&#45;&gt;Node18</title>
<g id="a_edge22_Node000003_Node000018"><a xlink:title=" ">
<path fill="none" stroke="#63b8ff" d="M537.46,-164.98C557.43,-156.01 589.01,-141.83 611.12,-131.9"/>
<polygon fill="#63b8ff" stroke="#63b8ff" points="612.56,-135.09 620.25,-127.8 609.69,-128.7 612.56,-135.09"/>
</a>
</g>
</g>
<!-- Node3&#45;&gt;Node19 -->
<g id="edge23_Node000003_Node000019" class="edge">
<title>Node3&#45;&gt;Node19</title>
<g id="a_edge23_Node000003_Node000019"><a xlink:title=" ">
<path fill="none" stroke="#63b8ff" d="M475.76,-164.98C422.4,-154.35 332.34,-136.41 284.54,-126.88"/>
<polygon fill="#63b8ff" stroke="#63b8ff" points="285.22,-123.45 274.73,-124.93 283.86,-130.32 285.22,-123.45"/>
</a>
</g>
</g>
<!-- Node4&#45;&gt;Node5 -->
<g id="edge4_Node000004_Node000005" class="edge">
<title>Node4&#45;&gt;Node5</title>
<g id="a_edge4_Node000004_Node000005"><a xlink:title=" ">
<path fill="none" stroke="#63b8ff" d="M414.26,-109.84C464.65,-90.68 585.75,-44.63 643.64,-22.62"/>
<polygon fill="#63b8ff" stroke="#63b8ff" points="644.92,-25.87 653.02,-19.05 642.43,-19.33 644.92,-25.87"/>
</a>
</g>
</g>
<!-- Node6 -->
<g id="Node000006" class="node">
<title>Node6</title>
<g id="a_Node000006"><a xlink:href="utils_8hpp.html" target="_top" xlink:title=" ">
<polygon fill="white" stroke="#666666" points="393,-74 334,-74 334,-55 393,-55 393,-74"/>
<text text-anchor="middle" x="363.5" y="-62" font-family="Helvetica,sans-Serif" font-size="10.00">utils.hpp</text>
</a>
</g>
</g>
<!-- Node4&#45;&gt;Node6 -->
<g id="edge5_Node000004_Node000006" class="edge">
<title>Node4&#45;&gt;Node6</title>
<g id="a_edge5_Node000004_Node000006"><a xlink:title=" ">
<path fill="none" stroke="#63b8ff" d="M386.88,-109.75C383.04,-102.49 377.48,-91.95 372.74,-82.98"/>
<polygon fill="#63b8ff" stroke="#63b8ff" points="375.8,-81.3 368.04,-74.09 369.61,-84.57 375.8,-81.3"/>
</a>
</g>
</g>
<!-- Node4&#45;&gt;Node12 -->
<g id="edge17_Node000004_Node000012" class="edge">
<title>Node4&#45;&gt;Node12</title>
<g id="a_edge17_Node000004_Node000012"><a xlink:title=" ">
<path fill="none" stroke="#63b8ff" d="M395.92,-109.68C403.28,-95.92 419.33,-69.43 440.5,-55 450.16,-48.41 513.79,-31.12 555.89,-20.13"/>
<polygon fill="#63b8ff" stroke="#63b8ff" points="557.02,-23.45 565.82,-17.55 555.26,-16.68 557.02,-23.45"/>
</a>
</g>
</g>
<!-- Node17 -->
<g id="Node000017" class="node">
<title>Node17</title>
<g id="a_Node000017"><a xlink:title=" ">
<polygon fill="#e0e0e0" stroke="#999999" points="487.5,-74 449.5,-74 449.5,-55 487.5,-55 487.5,-74"/>
<text text-anchor="middle" x="468.5" y="-62" font-family="Helvetica,sans-Serif" font-size="10.00">map</text>
</a>
</g>
</g>
<!-- Node4&#45;&gt;Node17 -->
<g id="edge18_Node000004_Node000017" class="edge">
<title>Node4&#45;&gt;Node17</title>
<g id="a_edge18_Node000004_Node000017"><a xlink:title=" ">
<path fill="none" stroke="#63b8ff" d="M403.87,-109.98C415.59,-101.92 433.42,-89.65 447.39,-80.03"/>
<polygon fill="#63b8ff" stroke="#63b8ff" points="449.65,-82.72 455.9,-74.17 445.68,-76.96 449.65,-82.72"/>
</a>
</g>
</g>
<!-- Node6&#45;&gt;Node5 -->
<g id="edge6_Node000006_Node000005" class="edge">
<title>Node6&#45;&gt;Node5</title>
<g id="a_edge6_Node000006_Node000005"><a xlink:title=" ">
<path fill="none" stroke="#63b8ff" d="M393.05,-58.72C440.45,-51.03 536.65,-35.26 628.8,-19.1"/>
<polygon fill="#63b8ff" stroke="#63b8ff" points="629.61,-22.51 638.85,-17.33 628.4,-15.61 629.61,-22.51"/>
</a>
</g>
</g>
<!-- Node7 -->
<g id="Node000007" class="node">
<title>Node7</title>
<g id="a_Node000007"><a xlink:title=" ">
<polygon fill="#e0e0e0" stroke="#999999" points="547.5,-19 483.5,-19 483.5,0 547.5,0 547.5,-19"/>
<text text-anchor="middle" x="515.5" y="-7" font-family="Helvetica,sans-Serif" font-size="10.00">algorithm</text>
</a>
</g>
</g>
<!-- Node6&#45;&gt;Node7 -->
<g id="edge7_Node000006_Node000007" class="edge">
<title>Node6&#45;&gt;Node7</title>
<g id="a_edge7_Node000006_Node000007"><a xlink:title=" ">
<path fill="none" stroke="#63b8ff" d="M387.92,-54.98C413.22,-46.16 452.95,-32.31 481.36,-22.41"/>
<polygon fill="#63b8ff" stroke="#63b8ff" points="482.6,-25.68 490.89,-19.08 480.29,-19.07 482.6,-25.68"/>
</a>
</g>
</g>
<!-- Node8 -->
<g id="Node000008" class="node">
<title>Node8</title>
<g id="a_Node000008"><a xlink:title=" ">
<polygon fill="#e0e0e0" stroke="#999999" points="179,-19 130,-19 130,0 179,0 179,-19"/>
<text text-anchor="middle" x="154.5" y="-7" font-family="Helvetica,sans-Serif" font-size="10.00">cctype</text>
</a>
</g>
</g>
<!-- Node6&#45;&gt;Node8 -->
<g id="edge8_Node000006_Node000008" class="edge">
<title>Node6&#45;&gt;Node8</title>
<g id="a_edge8_Node000006_Node000008"><a xlink:title=" ">
<path fill="none" stroke="#63b8ff" d="M334,-56.02C295.83,-46.34 229.43,-29.5 188.98,-19.24"/>
<polygon fill="#63b8ff" stroke="#63b8ff" points="189.84,-15.85 179.28,-16.78 188.12,-22.64 189.84,-15.85"/>
</a>
</g>
</g>
<!-- Node9 -->
<g id="Node000009" class="node">
<title>Node9</title>
<g id="a_Node000009"><a xlink:title=" ">
<polygon fill="#e0e0e0" stroke="#999999" points="247.5,-19 197.5,-19 197.5,0 247.5,0 247.5,-19"/>
<text text-anchor="middle" x="222.5" y="-7" font-family="Helvetica,sans-Serif" font-size="10.00">cstring</text>
</a>
</g>
</g>
<!-- Node6&#45;&gt;Node9 -->
<g id="edge9_Node000006_Node000009" class="edge">
<title>Node6&#45;&gt;Node9</title>
<g id="a_edge9_Node000006_Node000009"><a xlink:title=" ">
<path fill="none" stroke="#63b8ff" d="M340.85,-54.98C317.65,-46.27 281.38,-32.63 255.1,-22.75"/>
<polygon fill="#63b8ff" stroke="#63b8ff" points="256.16,-19.41 245.57,-19.17 253.7,-25.97 256.16,-19.41"/>
</a>
</g>
</g>
<!-- Node10 -->
<g id="Node000010" class="node">
<title>Node10</title>
<g id="a_Node000010"><a xlink:title=" ">
<polygon fill="#e0e0e0" stroke="#999999" points="317,-19 266,-19 266,0 317,0 317,-19"/>
<text text-anchor="middle" x="291.5" y="-7" font-family="Helvetica,sans-Serif" font-size="10.00">errno.h</text>
</a>
</g>
</g>
<!-- Node6&#45;&gt;Node10 -->
<g id="edge10_Node000006_Node000010" class="edge">
<title>Node6&#45;&gt;Node10</title>
<g id="a_edge10_Node000006_Node000010"><a xlink:title=" ">
<path fill="none" stroke="#63b8ff" d="M351.93,-54.98C341.08,-47 324.62,-34.88 311.62,-25.31"/>
<polygon fill="#63b8ff" stroke="#63b8ff" points="313.41,-22.28 303.28,-19.17 309.26,-27.92 313.41,-22.28"/>
</a>
</g>
</g>
<!-- Node11 -->
<g id="Node000011" class="node">
<title>Node11</title>
<g id="a_Node000011"><a xlink:title=" ">
<polygon fill="#e0e0e0" stroke="#999999" points="112,-19 65,-19 65,0 112,0 112,-19"/>
<text text-anchor="middle" x="88.5" y="-7" font-family="Helvetica,sans-Serif" font-size="10.00">fcntl.h</text>
</a>
</g>
</g>
<!-- Node6&#45;&gt;Node11 -->
<g id="edge11_Node000006_Node000011" class="edge">
<title>Node6&#45;&gt;Node11</title>
<g id="a_edge11_Node000006_Node000011"><a xlink:title=" ">
<path fill="none" stroke="#63b8ff" d="M333.97,-57.89C328.82,-56.92 323.5,-55.93 318.5,-55 233.65,-39.27 209.47,-38.53 122.03,-19.21"/>
<polygon fill="#63b8ff" stroke="#63b8ff" points="122.74,-15.78 112.21,-17.02 121.21,-22.62 122.74,-15.78"/>
</a>
</g>
</g>
<!-- Node6&#45;&gt;Node12 -->
<g id="edge12_Node000006_Node000012" class="edge">
<title>Node6&#45;&gt;Node12</title>
<g id="a_edge12_Node000006_Node000012"><a xlink:title=" ">
<path fill="none" stroke="#63b8ff" d="M393.1,-56.68C434.72,-47.09 510.53,-29.62 556.04,-19.13"/>
<polygon fill="#63b8ff" stroke="#63b8ff" points="556.85,-22.54 565.81,-16.88 555.28,-15.72 556.85,-22.54"/>
</a>
</g>
</g>
<!-- Node6&#45;&gt;Node13 -->
<g id="edge13_Node000006_Node000013" class="edge">
<title>Node6&#45;&gt;Node13</title>
<g id="a_edge13_Node000006_Node000013"><a xlink:title=" ">
<path fill="none" stroke="#63b8ff" d="M393.2,-60.16C464.01,-52.15 642.09,-31.66 720.39,-19.02"/>
<polygon fill="#63b8ff" stroke="#63b8ff" points="721.03,-22.46 730.32,-17.36 719.88,-15.55 721.03,-22.46"/>
</a>
</g>
</g>
<!-- Node14 -->
<g id="Node000014" class="node">
<title>Node14</title>
<g id="a_Node000014"><a xlink:title=" ">
<polygon fill="#e0e0e0" stroke="#999999" points="391.5,-19 335.5,-19 335.5,0 391.5,0 391.5,-19"/>
<text text-anchor="middle" x="363.5" y="-7" font-family="Helvetica,sans-Serif" font-size="10.00">sstream</text>
</a>
</g>
</g>
<!-- Node6&#45;&gt;Node14 -->
<g id="edge14_Node000006_Node000014" class="edge">
<title>Node6&#45;&gt;Node14</title>
<g id="a_edge14_Node000006_Node000014"><a xlink:title=" ">
<path fill="none" stroke="#63b8ff" d="M363.5,-54.75C363.5,-47.8 363.5,-37.85 363.5,-29.13"/>
<polygon fill="#63b8ff" stroke="#63b8ff" points="367,-29.09 363.5,-19.09 360,-29.09 367,-29.09"/>
</a>
</g>
</g>
<!-- Node15 -->
<g id="Node000015" class="node">
<title>Node15</title>
<g id="a_Node000015"><a xlink:title=" ">
<polygon fill="#e0e0e0" stroke="#999999" points="465.5,-19 409.5,-19 409.5,0 465.5,0 465.5,-19"/>
<text text-anchor="middle" x="437.5" y="-7" font-family="Helvetica,sans-Serif" font-size="10.00">unistd.h</text>
</a>
</g>
</g>
<!-- Node6&#45;&gt;Node15 -->
<g id="edge15_Node000006_Node000015" class="edge">
<title>Node6&#45;&gt;Node15</title>
<g id="a_edge15_Node000006_Node000015"><a xlink:title=" ">
<path fill="none" stroke="#63b8ff" d="M375.39,-54.98C386.65,-46.92 403.79,-34.65 417.21,-25.03"/>
<polygon fill="#63b8ff" stroke="#63b8ff" points="419.3,-27.84 425.39,-19.17 415.23,-22.15 419.3,-27.84"/>
</a>
</g>
</g>
<!-- Node6&#45;&gt;Node16 -->
<g id="edge16_Node000006_Node000016" class="edge">
<title>Node6&#45;&gt;Node16</title>
<g id="a_edge16_Node000006_Node000016"><a xlink:title=" ">
<path fill="none" stroke="#63b8ff" d="M333.52,-57.62C328.51,-56.7 323.37,-55.79 318.5,-55 205.24,-36.56 172.93,-41.87 57.15,-19.13"/>
<polygon fill="#63b8ff" stroke="#63b8ff" points="57.68,-15.66 47.19,-17.14 56.31,-22.53 57.68,-15.66"/>
</a>
</g>
</g>
<!-- Node20&#45;&gt;Node3 -->
<g id="edge27_Node000020_Node000003" class="edge">
<title>Node20&#45;&gt;Node3</title>
<g id="a_edge27_Node000020_Node000003"><a xlink:title=" ">
<path fill="none" stroke="#63b8ff" d="M612.51,-219.98C594.57,-211.5 566.78,-198.35 546.07,-188.54"/>
<polygon fill="#63b8ff" stroke="#63b8ff" points="547.36,-185.28 536.82,-184.17 544.36,-191.61 547.36,-185.28"/>
</a>
</g>
</g>
<!-- Node20&#45;&gt;Node5 -->
<g id="edge28_Node000020_Node000005" class="edge">
<title>Node20&#45;&gt;Node5</title>
<g id="a_edge28_Node000020_Node000005"><a xlink:title=" ">
<path fill="none" stroke="#63b8ff" d="M634.19,-219.74C637.86,-210.84 643.5,-196.61 647.5,-184 655.12,-159.96 656.9,-153.8 661.5,-129 667.96,-94.15 672.04,-52.95 674.03,-29.46"/>
<polygon fill="#63b8ff" stroke="#63b8ff" points="677.55,-29.43 674.87,-19.18 670.57,-28.87 677.55,-29.43"/>
</a>
</g>
</g>
<!-- Node20&#45;&gt;Node16 -->
<g id="edge30_Node000020_Node000016" class="edge">
<title>Node20&#45;&gt;Node16</title>
<g id="a_edge30_Node000020_Node000016"><a xlink:title=" ">
<path fill="none" stroke="#63b8ff" d="M590.89,-219.95C555.53,-211.93 502.53,-198.95 457.5,-184 396.4,-163.71 382.37,-155.04 323.5,-129 305.5,-121.04 301.59,-117.75 283.5,-110 203.07,-75.57 106.38,-40.08 56.64,-22.24"/>
<polygon fill="#63b8ff" stroke="#63b8ff" points="57.65,-18.89 47.05,-18.82 55.29,-25.48 57.65,-18.89"/>
</a>
</g>
</g>
<!-- Node20&#45;&gt;Node18 -->
<g id="edge29_Node000020_Node000018" class="edge">
<title>Node20&#45;&gt;Node18</title>
<g id="a_edge29_Node000020_Node000018"><a xlink:title=" ">
<path fill="none" stroke="#63b8ff" d="M630.99,-219.66C631.96,-202.17 634.15,-162.8 635.46,-139.27"/>
<polygon fill="#63b8ff" stroke="#63b8ff" points="638.96,-139.34 636.02,-129.16 631.97,-138.95 638.96,-139.34"/>
</a>
</g>
</g>
<!-- Node21&#45;&gt;Node3 -->
<g id="edge32_Node000021_Node000003" class="edge">
<title>Node21&#45;&gt;Node3</title>
<g id="a_edge32_Node000021_Node000003"><a xlink:title=" ">
<path fill="none" stroke="#63b8ff" d="M357.97,-274.7C369.59,-261.43 393.21,-236.15 417.5,-220 437.93,-206.41 463.19,-195.29 483.34,-187.56"/>
<polygon fill="#63b8ff" stroke="#63b8ff" points="484.63,-190.81 492.78,-184.04 482.18,-184.25 484.63,-190.81"/>
</a>
</g>
</g>
<!-- Node21&#45;&gt;Node11 -->
<g id="edge38_Node000021_Node000011" class="edge">
<title>Node21&#45;&gt;Node11</title>
<g id="a_edge38_Node000021_Node000011"><a xlink:title=" ">
<path fill="none" stroke="#63b8ff" d="M302.2,-274.94C276.64,-268.48 245.99,-257.45 223.5,-239 151.74,-180.12 109.32,-72.4 94.5,-29.18"/>
<polygon fill="#63b8ff" stroke="#63b8ff" points="97.73,-27.81 91.26,-19.43 91.09,-30.02 97.73,-27.81"/>
</a>
</g>
</g>
<!-- Node21&#45;&gt;Node16 -->
<g id="edge40_Node000021_Node000016" class="edge">
<title>Node21&#45;&gt;Node16</title>
<g id="a_edge40_Node000021_Node000016"><a xlink:title=" ">
<path fill="none" stroke="#63b8ff" d="M298.16,-274.99C214.88,-259.94 61.5,-225.45 61.5,-175.5 61.5,-175.5 61.5,-175.5 61.5,-118.5 61.5,-85.02 45.05,-48.84 33.8,-28.01"/>
<polygon fill="#63b8ff" stroke="#63b8ff" points="36.74,-26.1 28.78,-19.1 30.63,-29.53 36.74,-26.1"/>
</a>
</g>
</g>
<!-- Node21&#45;&gt;Node18 -->
<g id="edge39_Node000021_Node000018" class="edge">
<title>Node21&#45;&gt;Node18</title>
<g id="a_edge39_Node000021_Node000018"><a xlink:title=" ">
<path fill="none" stroke="#63b8ff" d="M414.19,-279.82C509.25,-273.67 679.12,-259.89 697.5,-239 725.62,-207.04 681.82,-159.82 654.95,-135.78"/>
<polygon fill="#63b8ff" stroke="#63b8ff" points="657.1,-133.01 647.25,-129.1 652.51,-138.3 657.1,-133.01"/>
</a>
</g>
</g>
<!-- Node22 -->
<g id="Node000022" class="node">
<title>Node22</title>
<g id="a_Node000022"><a xlink:href="ConfigLocationBlock_8hpp.html" target="_top" xlink:title=" ">
<polygon fill="white" stroke="#666666" points="370,-239 233,-239 233,-220 370,-220 370,-239"/>
<text text-anchor="middle" x="301.5" y="-227" font-family="Helvetica,sans-Serif" font-size="10.00">ConfigLocationBlock.hpp</text>
</a>
</g>
</g>
<!-- Node21&#45;&gt;Node22 -->
<g id="edge33_Node000021_Node000022" class="edge">
<title>Node21&#45;&gt;Node22</title>
<g id="a_edge33_Node000021_Node000022"><a xlink:title=" ">
<path fill="none" stroke="#63b8ff" d="M342.41,-274.75C335.34,-267.11 324.91,-255.82 316.35,-246.56"/>
<polygon fill="#63b8ff" stroke="#63b8ff" points="318.8,-244.06 309.44,-239.09 313.66,-248.81 318.8,-244.06"/>
</a>
</g>
</g>
<!-- Node22&#45;&gt;Node3 -->
<g id="edge34_Node000022_Node000003" class="edge">
<title>Node22&#45;&gt;Node3</title>
<g id="a_edge34_Node000022_Node000003"><a xlink:title=" ">
<path fill="none" stroke="#63b8ff" d="M336.36,-219.98C373.59,-210.89 432.7,-196.46 473.43,-186.51"/>
<polygon fill="#63b8ff" stroke="#63b8ff" points="474.48,-189.85 483.36,-184.08 472.82,-183.05 474.48,-189.85"/>
</a>
</g>
</g>
<!-- Node22&#45;&gt;Node5 -->
<g id="edge35_Node000022_Node000005" class="edge">
<title>Node22&#45;&gt;Node5</title>
<g id="a_edge35_Node000022_Node000005"><a xlink:title=" ">
<path fill="none" stroke="#63b8ff" d="M316.16,-219.95C373.29,-186.65 581.3,-65.41 651.88,-24.27"/>
<polygon fill="#63b8ff" stroke="#63b8ff" points="653.66,-27.28 660.53,-19.22 650.13,-21.24 653.66,-27.28"/>
</a>
</g>
</g>
<!-- Node22&#45;&gt;Node16 -->
<g id="edge37_Node000022_Node000016" class="edge">
<title>Node22&#45;&gt;Node16</title>
<g id="a_edge37_Node000022_Node000016"><a xlink:title=" ">
<path fill="none" stroke="#63b8ff" d="M290.6,-219.95C248.57,-186.99 96.66,-67.87 42.69,-25.55"/>
<polygon fill="#63b8ff" stroke="#63b8ff" points="44.65,-22.64 34.62,-19.22 40.33,-28.15 44.65,-22.64"/>
</a>
</g>
</g>
<!-- Node22&#45;&gt;Node19 -->
<g id="edge36_Node000022_Node000019" class="edge">
<title>Node22&#45;&gt;Node19</title>
<g id="a_edge36_Node000022_Node000019"><a xlink:title=" ">
<path fill="none" stroke="#63b8ff" d="M295.84,-219.89C290.21,-211.11 281.57,-196.96 275.5,-184 268.58,-169.23 262.39,-151.77 258.18,-138.9"/>
<polygon fill="#63b8ff" stroke="#63b8ff" points="261.5,-137.8 255.14,-129.33 254.83,-139.92 261.5,-137.8"/>
</a>
</g>
</g>
</g>
</svg>
