<?xml version="1.0" encoding="UTF-8" standalone="no"?>
<!DOCTYPE svg PUBLIC "-//W3C//DTD SVG 1.1//EN"
 "http://www.w3.org/Graphics/SVG/1.1/DTD/svg11.dtd">
<!-- Generated by graphviz version 2.43.0 (0)
 -->
<!-- Title: source/utils/config_utils.cpp Pages: 1 -->
<svg width="799pt" height="203pt"
 viewBox="0.00 0.00 799.00 203.00" xmlns="http://www.w3.org/2000/svg" xmlns:xlink="http://www.w3.org/1999/xlink">
<g id="graph0" class="graph" transform="scale(1 1) rotate(0) translate(4 199)">
<title>source/utils/config_utils.cpp</title>
<!-- Node1 -->
<g id="Node000001" class="node">
<title>Node1</title>
<g id="a_Node000001"><a xlink:title=" ">
<polygon fill="#999999" stroke="#666666" points="221,-195 116,-195 116,-165 221,-165 221,-195"/>
<text text-anchor="start" x="124" y="-183" font-family="Helvetica,sans-Serif" font-size="10.00">source/utils/config</text>
<text text-anchor="middle" x="168.5" y="-172" font-family="Helvetica,sans-Serif" font-size="10.00">_utils.cpp</text>
</a>
</g>
</g>
<!-- Node2 -->
<g id="Node000002" class="node">
<title>Node2</title>
<g id="a_Node000002"><a xlink:href="config__utils_8hpp.html" target="_top" xlink:title=" ">
<polygon fill="white" stroke="#666666" points="427,-129 310,-129 310,-110 427,-110 427,-129"/>
<text text-anchor="middle" x="368.5" y="-117" font-family="Helvetica,sans-Serif" font-size="10.00">utils/config_utils.hpp</text>
</a>
</g>
</g>
<!-- Node1&#45;&gt;Node2 -->
<g id="edge1_Node000001_Node000002" class="edge">
<title>Node1&#45;&gt;Node2</title>
<g id="a_edge1_Node000001_Node000002"><a xlink:title=" ">
<path fill="none" stroke="#63b8ff" d="M216.4,-164.99C250.92,-154.89 296.92,-141.44 329.27,-131.98"/>
<polygon fill="#63b8ff" stroke="#63b8ff" points="330.64,-135.22 339.26,-129.05 328.68,-128.5 330.64,-135.22"/>
</a>
</g>
</g>
<!-- Node3 -->
<g id="Node000003" class="node">
<title>Node3</title>
<g id="a_Node000003"><a xlink:href="defines_8hpp.html" target="_top" xlink:title=" ">
<polygon fill="white" stroke="#666666" points="73,-19 0,-19 0,0 73,0 73,-19"/>
<text text-anchor="middle" x="36.5" y="-7" font-family="Helvetica,sans-Serif" font-size="10.00">defines.hpp</text>
</a>
</g>
</g>
<!-- Node1&#45;&gt;Node3 -->
<g id="edge17_Node000001_Node000003" class="edge">
<title>Node1&#45;&gt;Node3</title>
<g id="a_edge17_Node000001_Node000003"><a xlink:title=" ">
<path fill="none" stroke="#63b8ff" d="M157.47,-164.92C133.35,-134.12 75.95,-60.85 49.84,-27.53"/>
<polygon fill="#63b8ff" stroke="#63b8ff" points="52.28,-24.97 43.36,-19.25 46.77,-29.29 52.28,-24.97"/>
</a>
</g>
</g>
<!-- Node2&#45;&gt;Node3 -->
<g id="edge2_Node000002_Node000003" class="edge">
<title>Node2&#45;&gt;Node3</title>
<g id="a_edge2_Node000002_Node000003"><a xlink:title=" ">
<path fill="none" stroke="#63b8ff" d="M342.17,-109.94C283.09,-90.72 139.87,-44.13 72.57,-22.24"/>
<polygon fill="#63b8ff" stroke="#63b8ff" points="73.42,-18.83 62.83,-19.07 71.26,-25.49 73.42,-18.83"/>
</a>
</g>
</g>
<!-- Node4 -->
<g id="Node000004" class="node">
<title>Node4</title>
<g id="a_Node000004"><a xlink:href="utils_8hpp.html" target="_top" xlink:title=" ">
<polygon fill="white" stroke="#666666" points="398,-74 339,-74 339,-55 398,-55 398,-74"/>
<text text-anchor="middle" x="368.5" y="-62" font-family="Helvetica,sans-Serif" font-size="10.00">utils.hpp</text>
</a>
</g>
</g>
<!-- Node2&#45;&gt;Node4 -->
<g id="edge3_Node000002_Node000004" class="edge">
<title>Node2&#45;&gt;Node4</title>
<g id="a_edge3_Node000002_Node000004"><a xlink:title=" ">
<path fill="none" stroke="#63b8ff" d="M368.5,-109.75C368.5,-102.8 368.5,-92.85 368.5,-84.13"/>
<polygon fill="#63b8ff" stroke="#63b8ff" points="372,-84.09 368.5,-74.09 365,-84.09 372,-84.09"/>
</a>
</g>
</g>
<!-- Node10 -->
<g id="Node000010" class="node">
<title>Node10</title>
<g id="a_Node000010"><a xlink:title=" ">
<polygon fill="#e0e0e0" stroke="#999999" points="791,-19 736,-19 736,0 791,0 791,-19"/>
<text text-anchor="middle" x="763.5" y="-7" font-family="Helvetica,sans-Serif" font-size="10.00">fstream</text>
</a>
</g>
</g>
<!-- Node2&#45;&gt;Node10 -->
<g id="edge15_Node000002_Node000010" class="edge">
<title>Node2&#45;&gt;Node10</title>
<g id="a_edge15_Node000002_Node000010"><a xlink:title=" ">
<path fill="none" stroke="#63b8ff" d="M375.99,-109.72C388.68,-95.52 415.92,-67.8 445.5,-55 558.52,-6.11 601.01,-39.74 725.73,-19.11"/>
<polygon fill="#63b8ff" stroke="#63b8ff" points="726.4,-22.54 735.65,-17.38 725.2,-15.65 726.4,-22.54"/>
</a>
</g>
</g>
<!-- Node15 -->
<g id="Node000015" class="node">
<title>Node15</title>
<g id="a_Node000015"><a xlink:title=" ">
<polygon fill="#e0e0e0" stroke="#999999" points="492.5,-74 454.5,-74 454.5,-55 492.5,-55 492.5,-74"/>
<text text-anchor="middle" x="473.5" y="-62" font-family="Helvetica,sans-Serif" font-size="10.00">map</text>
</a>
</g>
</g>
<!-- Node2&#45;&gt;Node15 -->
<g id="edge16_Node000002_Node000015" class="edge">
<title>Node2&#45;&gt;Node15</title>
<g id="a_edge16_Node000002_Node000015"><a xlink:title=" ">
<path fill="none" stroke="#63b8ff" d="M385.37,-109.98C402.11,-101.54 428,-88.47 447.39,-78.68"/>
<polygon fill="#63b8ff" stroke="#63b8ff" points="448.97,-81.8 456.32,-74.17 445.82,-75.55 448.97,-81.8"/>
</a>
</g>
</g>
<!-- Node4&#45;&gt;Node3 -->
<g id="edge4_Node000004_Node000003" class="edge">
<title>Node4&#45;&gt;Node3</title>
<g id="a_edge4_Node000004_Node000003"><a xlink:title=" ">
<path fill="none" stroke="#63b8ff" d="M338.81,-59.16C288.48,-51.75 182.97,-35.95 83.1,-19.06"/>
<polygon fill="#63b8ff" stroke="#63b8ff" points="83.59,-15.59 73.14,-17.37 82.41,-22.49 83.59,-15.59"/>
</a>
</g>
</g>
<!-- Node5 -->
<g id="Node000005" class="node">
<title>Node5</title>
<g id="a_Node000005"><a xlink:title=" ">
<polygon fill="#e0e0e0" stroke="#999999" points="155.5,-19 91.5,-19 91.5,0 155.5,0 155.5,-19"/>
<text text-anchor="middle" x="123.5" y="-7" font-family="Helvetica,sans-Serif" font-size="10.00">algorithm</text>
</a>
</g>
</g>
<!-- Node4&#45;&gt;Node5 -->
<g id="edge5_Node000004_Node000005" class="edge">
<title>Node4&#45;&gt;Node5</title>
<g id="a_edge5_Node000004_Node000005"><a xlink:title=" ">
<path fill="none" stroke="#63b8ff" d="M338.95,-57.11C295.82,-47.78 215.39,-30.38 165.94,-19.68"/>
<polygon fill="#63b8ff" stroke="#63b8ff" points="166.39,-16.2 155.88,-17.5 164.91,-23.04 166.39,-16.2"/>
</a>
</g>
</g>
<!-- Node6 -->
<g id="Node000006" class="node">
<title>Node6</title>
<g id="a_Node000006"><a xlink:title=" ">
<polygon fill="#e0e0e0" stroke="#999999" points="223,-19 174,-19 174,0 223,0 223,-19"/>
<text text-anchor="middle" x="198.5" y="-7" font-family="Helvetica,sans-Serif" font-size="10.00">cctype</text>
</a>
</g>
</g>
<!-- Node4&#45;&gt;Node6 -->
<g id="edge6_Node000004_Node000006" class="edge">
<title>Node4&#45;&gt;Node6</title>
<g id="a_edge6_Node000004_Node000006"><a xlink:title=" ">
<path fill="none" stroke="#63b8ff" d="M341.19,-54.98C311.8,-45.82 264.99,-31.23 233.06,-21.27"/>
<polygon fill="#63b8ff" stroke="#63b8ff" points="233.85,-17.85 223.26,-18.22 231.76,-24.54 233.85,-17.85"/>
</a>
</g>
</g>
<!-- Node7 -->
<g id="Node000007" class="node">
<title>Node7</title>
<g id="a_Node000007"><a xlink:title=" ">
<polygon fill="#e0e0e0" stroke="#999999" points="291.5,-19 241.5,-19 241.5,0 291.5,0 291.5,-19"/>
<text text-anchor="middle" x="266.5" y="-7" font-family="Helvetica,sans-Serif" font-size="10.00">cstring</text>
</a>
</g>
</g>
<!-- Node4&#45;&gt;Node7 -->
<g id="edge7_Node000004_Node000007" class="edge">
<title>Node4&#45;&gt;Node7</title>
<g id="a_edge7_Node000004_Node000007"><a xlink:title=" ">
<path fill="none" stroke="#63b8ff" d="M352.11,-54.98C335.93,-46.57 310.93,-33.59 292.12,-23.81"/>
<polygon fill="#63b8ff" stroke="#63b8ff" points="293.67,-20.68 283.19,-19.17 290.45,-26.89 293.67,-20.68"/>
</a>
</g>
</g>
<!-- Node8 -->
<g id="Node000008" class="node">
<title>Node8</title>
<g id="a_Node000008"><a xlink:title=" ">
<polygon fill="#e0e0e0" stroke="#999999" points="361,-19 310,-19 310,0 361,0 361,-19"/>
<text text-anchor="middle" x="335.5" y="-7" font-family="Helvetica,sans-Serif" font-size="10.00">errno.h</text>
</a>
</g>
</g>
<!-- Node4&#45;&gt;Node8 -->
<g id="edge8_Node000004_Node000008" class="edge">
<title>Node4&#45;&gt;Node8</title>
<g id="a_edge8_Node000004_Node000008"><a xlink:title=" ">
<path fill="none" stroke="#63b8ff" d="M363.05,-54.75C358.49,-47.42 351.83,-36.73 346.21,-27.7"/>
<polygon fill="#63b8ff" stroke="#63b8ff" points="349.1,-25.73 340.85,-19.09 343.16,-29.43 349.1,-25.73"/>
</a>
</g>
</g>
<!-- Node9 -->
<g id="Node000009" class="node">
<title>Node9</title>
<g id="a_Node000009"><a xlink:title=" ">
<polygon fill="#e0e0e0" stroke="#999999" points="426,-19 379,-19 379,0 426,0 426,-19"/>
<text text-anchor="middle" x="402.5" y="-7" font-family="Helvetica,sans-Serif" font-size="10.00">fcntl.h</text>
</a>
</g>
</g>
<!-- Node4&#45;&gt;Node9 -->
<g id="edge9_Node000004_Node000009" class="edge">
<title>Node4&#45;&gt;Node9</title>
<g id="a_edge9_Node000004_Node000009"><a xlink:title=" ">
<path fill="none" stroke="#63b8ff" d="M374.11,-54.75C378.82,-47.42 385.67,-36.73 391.47,-27.7"/>
<polygon fill="#63b8ff" stroke="#63b8ff" points="394.54,-29.4 396.99,-19.09 388.64,-25.62 394.54,-29.4"/>
</a>
</g>
</g>
<!-- Node4&#45;&gt;Node10 -->
<g id="edge10_Node000004_Node000010" class="edge">
<title>Node4&#45;&gt;Node10</title>
<g id="a_edge10_Node000004_Node000010"><a xlink:title=" ">
<path fill="none" stroke="#63b8ff" d="M398.27,-57.43C403.02,-56.55 407.89,-55.71 412.5,-55 548.52,-34.12 586.9,-42.8 725.5,-19.17"/>
<polygon fill="#63b8ff" stroke="#63b8ff" points="726.4,-22.57 735.66,-17.42 725.21,-15.67 726.4,-22.57"/>
</a>
</g>
</g>
<!-- Node11 -->
<g id="Node000011" class="node">
<title>Node11</title>
<g id="a_Node000011"><a xlink:title=" ">
<polygon fill="#e0e0e0" stroke="#999999" points="504.5,-19 444.5,-19 444.5,0 504.5,0 504.5,-19"/>
<text text-anchor="middle" x="474.5" y="-7" font-family="Helvetica,sans-Serif" font-size="10.00">iostream</text>
</a>
</g>
</g>
<!-- Node4&#45;&gt;Node11 -->
<g id="edge11_Node000004_Node000011" class="edge">
<title>Node4&#45;&gt;Node11</title>
<g id="a_edge11_Node000004_Node000011"><a xlink:title=" ">
<path fill="none" stroke="#63b8ff" d="M385.53,-54.98C402.43,-46.54 428.56,-33.47 448.14,-23.68"/>
<polygon fill="#63b8ff" stroke="#63b8ff" points="449.78,-26.77 457.16,-19.17 446.65,-20.51 449.78,-26.77"/>
</a>
</g>
</g>
<!-- Node12 -->
<g id="Node000012" class="node">
<title>Node12</title>
<g id="a_Node000012"><a xlink:title=" ">
<polygon fill="#e0e0e0" stroke="#999999" points="578.5,-19 522.5,-19 522.5,0 578.5,0 578.5,-19"/>
<text text-anchor="middle" x="550.5" y="-7" font-family="Helvetica,sans-Serif" font-size="10.00">sstream</text>
</a>
</g>
</g>
<!-- Node4&#45;&gt;Node12 -->
<g id="edge12_Node000004_Node000012" class="edge">
<title>Node4&#45;&gt;Node12</title>
<g id="a_edge12_Node000004_Node000012"><a xlink:title=" ">
<path fill="none" stroke="#63b8ff" d="M397.74,-54.98C428.93,-45.9 478.44,-31.49 512.59,-21.54"/>
<polygon fill="#63b8ff" stroke="#63b8ff" points="513.61,-24.89 522.23,-18.73 511.65,-18.17 513.61,-24.89"/>
</a>
</g>
</g>
<!-- Node13 -->
<g id="Node000013" class="node">
<title>Node13</title>
<g id="a_Node000013"><a xlink:title=" ">
<polygon fill="#e0e0e0" stroke="#999999" points="652.5,-19 596.5,-19 596.5,0 652.5,0 652.5,-19"/>
<text text-anchor="middle" x="624.5" y="-7" font-family="Helvetica,sans-Serif" font-size="10.00">unistd.h</text>
</a>
</g>
</g>
<!-- Node4&#45;&gt;Node13 -->
<g id="edge13_Node000004_Node000013" class="edge">
<title>Node4&#45;&gt;Node13</title>
<g id="a_edge13_Node000004_Node000013"><a xlink:title=" ">
<path fill="none" stroke="#63b8ff" d="M398.3,-57.69C438.68,-49.77 513.24,-34.95 586.39,-19.2"/>
<polygon fill="#63b8ff" stroke="#63b8ff" points="587.2,-22.6 596.23,-17.07 585.72,-15.76 587.2,-22.6"/>
</a>
</g>
</g>
<!-- Node14 -->
<g id="Node000014" class="node">
<title>Node14</title>
<g id="a_Node000014"><a xlink:title=" ">
<polygon fill="#e0e0e0" stroke="#999999" points="718,-19 671,-19 671,0 718,0 718,-19"/>
<text text-anchor="middle" x="694.5" y="-7" font-family="Helvetica,sans-Serif" font-size="10.00">vector</text>
</a>
</g>
</g>
<!-- Node4&#45;&gt;Node14 -->
<g id="edge14_Node000004_Node000014" class="edge">
<title>Node4&#45;&gt;Node14</title>
<g id="a_edge14_Node000004_Node000014"><a xlink:title=" ">
<path fill="none" stroke="#63b8ff" d="M398.29,-57.55C403.03,-56.66 407.9,-55.78 412.5,-55 519.64,-36.92 550.15,-40.74 660.89,-18.91"/>
<polygon fill="#63b8ff" stroke="#63b8ff" points="661.66,-22.33 670.78,-16.94 660.29,-15.46 661.66,-22.33"/>
</a>
</g>
</g>
</g>
</svg>
