<?xml version="1.0" encoding="UTF-8" standalone="no"?>
<!DOCTYPE svg PUBLIC "-//W3C//DTD SVG 1.1//EN"
 "http://www.w3.org/Graphics/SVG/1.1/DTD/svg11.dtd">
<!-- Generated by graphviz version 2.43.0 (0)
 -->
<!-- Title: include/config/ConfigGlobalBlock.hpp Pages: 1 -->
<svg width="801pt" height="258pt"
 viewBox="0.00 0.00 800.50 258.00" xmlns="http://www.w3.org/2000/svg" xmlns:xlink="http://www.w3.org/1999/xlink">
<g id="graph0" class="graph" transform="scale(1 1) rotate(0) translate(4 254)">
<title>include/config/ConfigGlobalBlock.hpp</title>
<!-- Node1 -->
<g id="Node000001" class="node">
<title>Node1</title>
<g id="a_Node000001"><a xlink:title=" ">
<polygon fill="#999999" stroke="#666666" points="597.5,-250 448.5,-250 448.5,-220 597.5,-220 597.5,-250"/>
<text text-anchor="start" x="456.5" y="-238" font-family="Helvetica,sans-Serif" font-size="10.00">include/config/ConfigGlobal</text>
<text text-anchor="middle" x="523" y="-227" font-family="Helvetica,sans-Serif" font-size="10.00">Block.hpp</text>
</a>
</g>
</g>
<!-- Node2 -->
<g id="Node000002" class="node">
<title>Node2</title>
<g id="a_Node000002"><a xlink:href="AConfigParser_8hpp.html" target="_top" xlink:title=" ">
<polygon fill="white" stroke="#666666" points="495,-184 391,-184 391,-165 495,-165 495,-184"/>
<text text-anchor="middle" x="443" y="-172" font-family="Helvetica,sans-Serif" font-size="10.00">AConfigParser.hpp</text>
</a>
</g>
</g>
<!-- Node1&#45;&gt;Node2 -->
<g id="edge1_Node000001_Node000002" class="edge">
<title>Node1&#45;&gt;Node2</title>
<g id="a_edge1_Node000001_Node000002"><a xlink:title=" ">
<path fill="none" stroke="#63b8ff" d="M503.63,-219.84C491.43,-210.91 475.69,-199.41 463.31,-190.35"/>
<polygon fill="#63b8ff" stroke="#63b8ff" points="465.13,-187.34 454.99,-184.27 460.99,-192.99 465.13,-187.34"/>
</a>
</g>
</g>
<!-- Node17 -->
<g id="Node000017" class="node">
<title>Node17</title>
<g id="a_Node000017"><a xlink:title=" ">
<polygon fill="#e0e0e0" stroke="#999999" points="535,-129 503,-129 503,-110 535,-110 535,-129"/>
<text text-anchor="middle" x="519" y="-117" font-family="Helvetica,sans-Serif" font-size="10.00">set</text>
</a>
</g>
</g>
<!-- Node1&#45;&gt;Node17 -->
<g id="edge23_Node000001_Node000017" class="edge">
<title>Node1&#45;&gt;Node17</title>
<g id="a_edge23_Node000001_Node000017"><a xlink:title=" ">
<path fill="none" stroke="#63b8ff" d="M522.49,-219.63C521.77,-199.21 520.46,-161.81 519.66,-139.24"/>
<polygon fill="#63b8ff" stroke="#63b8ff" points="523.16,-139.1 519.31,-129.23 516.16,-139.35 523.16,-139.1"/>
</a>
</g>
</g>
<!-- Node18 -->
<g id="Node000018" class="node">
<title>Node18</title>
<g id="a_Node000018"><a xlink:title=" ">
<polygon fill="#e0e0e0" stroke="#999999" points="597,-129 553,-129 553,-110 597,-110 597,-129"/>
<text text-anchor="middle" x="575" y="-117" font-family="Helvetica,sans-Serif" font-size="10.00">string</text>
</a>
</g>
</g>
<!-- Node1&#45;&gt;Node18 -->
<g id="edge24_Node000001_Node000018" class="edge">
<title>Node1&#45;&gt;Node18</title>
<g id="a_edge24_Node000001_Node000018"><a xlink:title=" ">
<path fill="none" stroke="#63b8ff" d="M529.59,-219.63C539.07,-198.93 556.55,-160.78 566.83,-138.32"/>
<polygon fill="#63b8ff" stroke="#63b8ff" points="570.02,-139.78 571,-129.23 563.65,-136.86 570.02,-139.78"/>
</a>
</g>
</g>
<!-- Node3 -->
<g id="Node000003" class="node">
<title>Node3</title>
<g id="a_Node000003"><a xlink:href="config__utils_8hpp.html" target="_top" xlink:title=" ">
<polygon fill="white" stroke="#666666" points="437.5,-129 320.5,-129 320.5,-110 437.5,-110 437.5,-129"/>
<text text-anchor="middle" x="379" y="-117" font-family="Helvetica,sans-Serif" font-size="10.00">utils/config_utils.hpp</text>
</a>
</g>
</g>
<!-- Node2&#45;&gt;Node3 -->
<g id="edge2_Node000002_Node000003" class="edge">
<title>Node2&#45;&gt;Node3</title>
<g id="a_edge2_Node000002_Node000003"><a xlink:title=" ">
<path fill="none" stroke="#63b8ff" d="M432.72,-164.98C423.16,-157.07 408.72,-145.11 397.22,-135.58"/>
<polygon fill="#63b8ff" stroke="#63b8ff" points="399.4,-132.85 389.47,-129.17 394.94,-138.24 399.4,-132.85"/>
</a>
</g>
</g>
<!-- Node4 -->
<g id="Node000004" class="node">
<title>Node4</title>
<g id="a_Node000004"><a xlink:href="defines_8hpp.html" target="_top" xlink:title=" ">
<polygon fill="white" stroke="#666666" points="151.5,-19 78.5,-19 78.5,0 151.5,0 151.5,-19"/>
<text text-anchor="middle" x="115" y="-7" font-family="Helvetica,sans-Serif" font-size="10.00">defines.hpp</text>
</a>
</g>
</g>
<!-- Node2&#45;&gt;Node4 -->
<g id="edge18_Node000002_Node000004" class="edge">
<title>Node2&#45;&gt;Node4</title>
<g id="a_edge18_Node000002_Node000004"><a xlink:title=" ">
<path fill="none" stroke="#63b8ff" d="M411.32,-164.94C384.1,-157.09 344.12,-144.37 311,-129 243.79,-97.81 170.57,-49.24 135.71,-25.12"/>
<polygon fill="#63b8ff" stroke="#63b8ff" points="137.51,-22.11 127.31,-19.27 133.51,-27.85 137.51,-22.11"/>
</a>
</g>
</g>
<!-- Node11 -->
<g id="Node000011" class="node">
<title>Node11</title>
<g id="a_Node000011"><a xlink:title=" ">
<polygon fill="#e0e0e0" stroke="#999999" points="792.5,-19 737.5,-19 737.5,0 792.5,0 792.5,-19"/>
<text text-anchor="middle" x="765" y="-7" font-family="Helvetica,sans-Serif" font-size="10.00">fstream</text>
</a>
</g>
</g>
<!-- Node2&#45;&gt;Node11 -->
<g id="edge19_Node000002_Node000011" class="edge">
<title>Node2&#45;&gt;Node11</title>
<g id="a_edge19_Node000002_Node000011"><a xlink:title=" ">
<path fill="none" stroke="#63b8ff" d="M447.82,-164.86C455.77,-151.34 472.87,-125.18 494,-110 532.54,-82.31 662.35,-41.14 727.31,-21.59"/>
<polygon fill="#63b8ff" stroke="#63b8ff" points="728.58,-24.86 737.16,-18.64 726.57,-18.15 728.58,-24.86"/>
</a>
</g>
</g>
<!-- Node12 -->
<g id="Node000012" class="node">
<title>Node12</title>
<g id="a_Node000012"><a xlink:title=" ">
<polygon fill="#e0e0e0" stroke="#999999" points="60,-19 0,-19 0,0 60,0 60,-19"/>
<text text-anchor="middle" x="30" y="-7" font-family="Helvetica,sans-Serif" font-size="10.00">iostream</text>
</a>
</g>
</g>
<!-- Node2&#45;&gt;Node12 -->
<g id="edge20_Node000002_Node000012" class="edge">
<title>Node2&#45;&gt;Node12</title>
<g id="a_edge20_Node000002_Node000012"><a xlink:title=" ">
<path fill="none" stroke="#63b8ff" d="M400.46,-164.93C365.41,-157.27 314.71,-144.83 272,-129 188.81,-98.16 96.06,-47.98 53.57,-24.04"/>
<polygon fill="#63b8ff" stroke="#63b8ff" points="55.25,-20.96 44.82,-19.08 51.79,-27.05 55.25,-20.96"/>
</a>
</g>
</g>
<!-- Node2&#45;&gt;Node17 -->
<g id="edge21_Node000002_Node000017" class="edge">
<title>Node2&#45;&gt;Node17</title>
<g id="a_edge21_Node000002_Node000017"><a xlink:title=" ">
<path fill="none" stroke="#63b8ff" d="M455.21,-164.98C466.78,-156.92 484.38,-144.65 498.16,-135.03"/>
<polygon fill="#63b8ff" stroke="#63b8ff" points="500.37,-137.76 506.57,-129.17 496.36,-132.02 500.37,-137.76"/>
</a>
</g>
</g>
<!-- Node2&#45;&gt;Node18 -->
<g id="edge22_Node000002_Node000018" class="edge">
<title>Node2&#45;&gt;Node18</title>
<g id="a_edge22_Node000002_Node000018"><a xlink:title=" ">
<path fill="none" stroke="#63b8ff" d="M464.21,-164.98C485.73,-156.34 519.28,-142.87 543.83,-133.02"/>
<polygon fill="#63b8ff" stroke="#63b8ff" points="545.43,-136.14 553.41,-129.17 542.82,-129.65 545.43,-136.14"/>
</a>
</g>
</g>
<!-- Node3&#45;&gt;Node4 -->
<g id="edge3_Node000003_Node000004" class="edge">
<title>Node3&#45;&gt;Node4</title>
<g id="a_edge3_Node000003_Node000004"><a xlink:title=" ">
<path fill="none" stroke="#63b8ff" d="M370.93,-109.63C357.84,-95.79 330.55,-69.2 302,-55 289.43,-48.75 212.58,-31.49 161.39,-20.39"/>
<polygon fill="#63b8ff" stroke="#63b8ff" points="162.04,-16.95 151.52,-18.26 160.56,-23.79 162.04,-16.95"/>
</a>
</g>
</g>
<!-- Node5 -->
<g id="Node000005" class="node">
<title>Node5</title>
<g id="a_Node000005"><a xlink:href="utils_8hpp.html" target="_top" xlink:title=" ">
<polygon fill="white" stroke="#666666" points="408.5,-74 349.5,-74 349.5,-55 408.5,-55 408.5,-74"/>
<text text-anchor="middle" x="379" y="-62" font-family="Helvetica,sans-Serif" font-size="10.00">utils.hpp</text>
</a>
</g>
</g>
<!-- Node3&#45;&gt;Node5 -->
<g id="edge4_Node000003_Node000005" class="edge">
<title>Node3&#45;&gt;Node5</title>
<g id="a_edge4_Node000003_Node000005"><a xlink:title=" ">
<path fill="none" stroke="#63b8ff" d="M379,-109.75C379,-102.8 379,-92.85 379,-84.13"/>
<polygon fill="#63b8ff" stroke="#63b8ff" points="382.5,-84.09 379,-74.09 375.5,-84.09 382.5,-84.09"/>
</a>
</g>
</g>
<!-- Node3&#45;&gt;Node11 -->
<g id="edge16_Node000003_Node000011" class="edge">
<title>Node3&#45;&gt;Node11</title>
<g id="a_edge16_Node000003_Node000011"><a xlink:title=" ">
<path fill="none" stroke="#63b8ff" d="M387.11,-109.75C400.82,-95.59 430.11,-67.93 461,-55 568.54,-9.98 608.1,-38.81 727.31,-18.91"/>
<polygon fill="#63b8ff" stroke="#63b8ff" points="727.93,-22.35 737.18,-17.18 726.72,-15.46 727.93,-22.35"/>
</a>
</g>
</g>
<!-- Node16 -->
<g id="Node000016" class="node">
<title>Node16</title>
<g id="a_Node000016"><a xlink:title=" ">
<polygon fill="#e0e0e0" stroke="#999999" points="293,-74 255,-74 255,-55 293,-55 293,-74"/>
<text text-anchor="middle" x="274" y="-62" font-family="Helvetica,sans-Serif" font-size="10.00">map</text>
</a>
</g>
</g>
<!-- Node3&#45;&gt;Node16 -->
<g id="edge17_Node000003_Node000016" class="edge">
<title>Node3&#45;&gt;Node16</title>
<g id="a_edge17_Node000003_Node000016"><a xlink:title=" ">
<path fill="none" stroke="#63b8ff" d="M362.13,-109.98C345.39,-101.54 319.5,-88.47 300.11,-78.68"/>
<polygon fill="#63b8ff" stroke="#63b8ff" points="301.68,-75.55 291.18,-74.17 298.53,-81.8 301.68,-75.55"/>
</a>
</g>
</g>
<!-- Node5&#45;&gt;Node4 -->
<g id="edge5_Node000005_Node000004" class="edge">
<title>Node5&#45;&gt;Node4</title>
<g id="a_edge5_Node000005_Node000004"><a xlink:title=" ">
<path fill="none" stroke="#63b8ff" d="M349.48,-57.57C303.98,-48.44 216.28,-30.83 161.98,-19.93"/>
<polygon fill="#63b8ff" stroke="#63b8ff" points="162.41,-16.45 151.92,-17.91 161.04,-23.31 162.41,-16.45"/>
</a>
</g>
</g>
<!-- Node6 -->
<g id="Node000006" class="node">
<title>Node6</title>
<g id="a_Node000006"><a xlink:title=" ">
<polygon fill="#e0e0e0" stroke="#999999" points="374,-19 310,-19 310,0 374,0 374,-19"/>
<text text-anchor="middle" x="342" y="-7" font-family="Helvetica,sans-Serif" font-size="10.00">algorithm</text>
</a>
</g>
</g>
<!-- Node5&#45;&gt;Node6 -->
<g id="edge6_Node000005_Node000006" class="edge">
<title>Node5&#45;&gt;Node6</title>
<g id="a_edge6_Node000005_Node000006"><a xlink:title=" ">
<path fill="none" stroke="#63b8ff" d="M372.89,-54.75C367.72,-47.34 360.15,-36.5 353.81,-27.41"/>
<polygon fill="#63b8ff" stroke="#63b8ff" points="356.59,-25.29 348,-19.09 350.85,-29.29 356.59,-25.29"/>
</a>
</g>
</g>
<!-- Node7 -->
<g id="Node000007" class="node">
<title>Node7</title>
<g id="a_Node000007"><a xlink:title=" ">
<polygon fill="#e0e0e0" stroke="#999999" points="441.5,-19 392.5,-19 392.5,0 441.5,0 441.5,-19"/>
<text text-anchor="middle" x="417" y="-7" font-family="Helvetica,sans-Serif" font-size="10.00">cctype</text>
</a>
</g>
</g>
<!-- Node5&#45;&gt;Node7 -->
<g id="edge7_Node000005_Node000007" class="edge">
<title>Node5&#45;&gt;Node7</title>
<g id="a_edge7_Node000005_Node000007"><a xlink:title=" ">
<path fill="none" stroke="#63b8ff" d="M385.27,-54.75C390.59,-47.34 398.36,-36.5 404.88,-27.41"/>
<polygon fill="#63b8ff" stroke="#63b8ff" points="407.86,-29.26 410.84,-19.09 402.17,-25.18 407.86,-29.26"/>
</a>
</g>
</g>
<!-- Node8 -->
<g id="Node000008" class="node">
<title>Node8</title>
<g id="a_Node000008"><a xlink:title=" ">
<polygon fill="#e0e0e0" stroke="#999999" points="510,-19 460,-19 460,0 510,0 510,-19"/>
<text text-anchor="middle" x="485" y="-7" font-family="Helvetica,sans-Serif" font-size="10.00">cstring</text>
</a>
</g>
</g>
<!-- Node5&#45;&gt;Node8 -->
<g id="edge8_Node000005_Node000008" class="edge">
<title>Node5&#45;&gt;Node8</title>
<g id="a_edge8_Node000005_Node000008"><a xlink:title=" ">
<path fill="none" stroke="#63b8ff" d="M396.03,-54.98C412.93,-46.54 439.06,-33.47 458.64,-23.68"/>
<polygon fill="#63b8ff" stroke="#63b8ff" points="460.28,-26.77 467.66,-19.17 457.15,-20.51 460.28,-26.77"/>
</a>
</g>
</g>
<!-- Node9 -->
<g id="Node000009" class="node">
<title>Node9</title>
<g id="a_Node000009"><a xlink:title=" ">
<polygon fill="#e0e0e0" stroke="#999999" points="579.5,-19 528.5,-19 528.5,0 579.5,0 579.5,-19"/>
<text text-anchor="middle" x="554" y="-7" font-family="Helvetica,sans-Serif" font-size="10.00">errno.h</text>
</a>
</g>
</g>
<!-- Node5&#45;&gt;Node9 -->
<g id="edge9_Node000005_Node000009" class="edge">
<title>Node5&#45;&gt;Node9</title>
<g id="a_edge9_Node000005_Node000009"><a xlink:title=" ">
<path fill="none" stroke="#63b8ff" d="M407.12,-54.98C437.41,-45.81 485.69,-31.19 518.56,-21.23"/>
<polygon fill="#63b8ff" stroke="#63b8ff" points="519.68,-24.55 528.23,-18.3 517.65,-17.85 519.68,-24.55"/>
</a>
</g>
</g>
<!-- Node10 -->
<g id="Node000010" class="node">
<title>Node10</title>
<g id="a_Node000010"><a xlink:title=" ">
<polygon fill="#e0e0e0" stroke="#999999" points="644.5,-19 597.5,-19 597.5,0 644.5,0 644.5,-19"/>
<text text-anchor="middle" x="621" y="-7" font-family="Helvetica,sans-Serif" font-size="10.00">fcntl.h</text>
</a>
</g>
</g>
<!-- Node5&#45;&gt;Node10 -->
<g id="edge10_Node000005_Node000010" class="edge">
<title>Node5&#45;&gt;Node10</title>
<g id="a_edge10_Node000005_Node000010"><a xlink:title=" ">
<path fill="none" stroke="#63b8ff" d="M408.67,-57.71C447.61,-50 518.3,-35.63 587.51,-19.27"/>
<polygon fill="#63b8ff" stroke="#63b8ff" points="588.35,-22.67 597.27,-16.95 586.73,-15.86 588.35,-22.67"/>
</a>
</g>
</g>
<!-- Node5&#45;&gt;Node11 -->
<g id="edge11_Node000005_Node000011" class="edge">
<title>Node5&#45;&gt;Node11</title>
<g id="a_edge11_Node000005_Node000011"><a xlink:title=" ">
<path fill="none" stroke="#63b8ff" d="M408.77,-57.44C413.52,-56.56 418.39,-55.72 423,-55 554.72,-34.53 591.78,-41.94 727.26,-18.94"/>
<polygon fill="#63b8ff" stroke="#63b8ff" points="727.92,-22.38 737.19,-17.23 726.74,-15.48 727.92,-22.38"/>
</a>
</g>
</g>
<!-- Node5&#45;&gt;Node12 -->
<g id="edge12_Node000005_Node000012" class="edge">
<title>Node5&#45;&gt;Node12</title>
<g id="a_edge12_Node000005_Node000012"><a xlink:title=" ">
<path fill="none" stroke="#63b8ff" d="M349.39,-59.97C295.77,-53.43 178.83,-38.44 70.33,-19.13"/>
<polygon fill="#63b8ff" stroke="#63b8ff" points="70.65,-15.63 60.19,-17.3 69.41,-22.52 70.65,-15.63"/>
</a>
</g>
</g>
<!-- Node13 -->
<g id="Node000013" class="node">
<title>Node13</title>
<g id="a_Node000013"><a xlink:title=" ">
<polygon fill="#e0e0e0" stroke="#999999" points="719,-19 663,-19 663,0 719,0 719,-19"/>
<text text-anchor="middle" x="691" y="-7" font-family="Helvetica,sans-Serif" font-size="10.00">sstream</text>
</a>
</g>
</g>
<!-- Node5&#45;&gt;Node13 -->
<g id="edge13_Node000005_Node000013" class="edge">
<title>Node5&#45;&gt;Node13</title>
<g id="a_edge13_Node000005_Node000013"><a xlink:title=" ">
<path fill="none" stroke="#63b8ff" d="M408.8,-57.59C413.54,-56.7 418.4,-55.8 423,-55 522.26,-37.68 550.29,-38.57 652.93,-19.09"/>
<polygon fill="#63b8ff" stroke="#63b8ff" points="653.6,-22.53 662.76,-17.21 652.28,-15.65 653.6,-22.53"/>
</a>
</g>
</g>
<!-- Node14 -->
<g id="Node000014" class="node">
<title>Node14</title>
<g id="a_Node000014"><a xlink:title=" ">
<polygon fill="#e0e0e0" stroke="#999999" points="226,-19 170,-19 170,0 226,0 226,-19"/>
<text text-anchor="middle" x="198" y="-7" font-family="Helvetica,sans-Serif" font-size="10.00">unistd.h</text>
</a>
</g>
</g>
<!-- Node5&#45;&gt;Node14 -->
<g id="edge14_Node000005_Node000014" class="edge">
<title>Node5&#45;&gt;Node14</title>
<g id="a_edge14_Node000005_Node000014"><a xlink:title=" ">
<path fill="none" stroke="#63b8ff" d="M349.92,-54.98C319.04,-45.94 270.09,-31.61 236.13,-21.67"/>
<polygon fill="#63b8ff" stroke="#63b8ff" points="236.7,-18.18 226.12,-18.73 234.73,-24.9 236.7,-18.18"/>
</a>
</g>
</g>
<!-- Node15 -->
<g id="Node000015" class="node">
<title>Node15</title>
<g id="a_Node000015"><a xlink:title=" ">
<polygon fill="#e0e0e0" stroke="#999999" points="291.5,-19 244.5,-19 244.5,0 291.5,0 291.5,-19"/>
<text text-anchor="middle" x="268" y="-7" font-family="Helvetica,sans-Serif" font-size="10.00">vector</text>
</a>
</g>
</g>
<!-- Node5&#45;&gt;Node15 -->
<g id="edge15_Node000005_Node000015" class="edge">
<title>Node5&#45;&gt;Node15</title>
<g id="a_edge15_Node000005_Node000015"><a xlink:title=" ">
<path fill="none" stroke="#63b8ff" d="M361.17,-54.98C343.39,-46.5 315.85,-33.35 295.32,-23.54"/>
<polygon fill="#63b8ff" stroke="#63b8ff" points="296.69,-20.32 286.16,-19.17 293.67,-26.64 296.69,-20.32"/>
</a>
</g>
</g>
</g>
</svg>
