<?xml version="1.0" encoding="UTF-8" standalone="no"?>
<!DOCTYPE svg PUBLIC "-//W3C//DTD SVG 1.1//EN"
 "http://www.w3.org/Graphics/SVG/1.1/DTD/svg11.dtd">
<!-- Generated by graphviz version 2.43.0 (0)
 -->
<!-- Title: source/config/ConfigHttpBlock.cpp Pages: 1 -->
<svg width="936pt" height="313pt"
 viewBox="0.00 0.00 936.00 313.00" xmlns="http://www.w3.org/2000/svg" xmlns:xlink="http://www.w3.org/1999/xlink">
<g id="graph0" class="graph" transform="scale(1 1) rotate(0) translate(4 309)">
<title>source/config/ConfigHttpBlock.cpp</title>
<!-- Node1 -->
<g id="Node000001" class="node">
<title>Node1</title>
<g id="a_Node000001"><a xlink:title=" ">
<polygon fill="#999999" stroke="#666666" points="594.5,-305 458.5,-305 458.5,-275 594.5,-275 594.5,-305"/>
<text text-anchor="start" x="466.5" y="-293" font-family="Helvetica,sans-Serif" font-size="10.00">source/config/ConfigHttp</text>
<text text-anchor="middle" x="526.5" y="-282" font-family="Helvetica,sans-Serif" font-size="10.00">Block.cpp</text>
</a>
</g>
</g>
<!-- Node2 -->
<g id="Node000002" class="node">
<title>Node2</title>
<g id="a_Node000002"><a xlink:href="ConfigHttpBlock_8hpp.html" target="_top" xlink:title=" ">
<polygon fill="white" stroke="#666666" points="670.5,-239 554.5,-239 554.5,-220 670.5,-220 670.5,-239"/>
<text text-anchor="middle" x="612.5" y="-227" font-family="Helvetica,sans-Serif" font-size="10.00">ConfigHttpBlock.hpp</text>
</a>
</g>
</g>
<!-- Node1&#45;&gt;Node2 -->
<g id="edge1_Node000001_Node000002" class="edge">
<title>Node1&#45;&gt;Node2</title>
<g id="a_edge1_Node000001_Node000002"><a xlink:title=" ">
<path fill="none" stroke="#63b8ff" d="M547.32,-274.84C560.65,-265.77 577.89,-254.04 591.29,-244.92"/>
<polygon fill="#63b8ff" stroke="#63b8ff" points="593.57,-247.61 599.87,-239.09 589.63,-241.83 593.57,-247.61"/>
</a>
</g>
</g>
<!-- Node5 -->
<g id="Node000005" class="node">
<title>Node5</title>
<g id="a_Node000005"><a xlink:href="defines_8hpp.html" target="_top" xlink:title=" ">
<polygon fill="white" stroke="#666666" points="73,-19 0,-19 0,0 73,0 73,-19"/>
<text text-anchor="middle" x="36.5" y="-7" font-family="Helvetica,sans-Serif" font-size="10.00">defines.hpp</text>
</a>
</g>
</g>
<!-- Node1&#45;&gt;Node5 -->
<g id="edge27_Node000001_Node000005" class="edge">
<title>Node1&#45;&gt;Node5</title>
<g id="a_edge27_Node000001_Node000005"><a xlink:title=" ">
<path fill="none" stroke="#63b8ff" d="M458.41,-286.89C326.62,-280.94 49.5,-258.55 49.5,-175.5 49.5,-175.5 49.5,-175.5 49.5,-118.5 49.5,-86.96 43.97,-50.62 40.12,-29.15"/>
<polygon fill="#63b8ff" stroke="#63b8ff" points="43.53,-28.33 38.25,-19.14 36.65,-29.61 43.53,-28.33"/>
</a>
</g>
</g>
<!-- Node6 -->
<g id="Node000006" class="node">
<title>Node6</title>
<g id="a_Node000006"><a xlink:href="utils_8hpp.html" target="_top" xlink:title=" ">
<polygon fill="white" stroke="#666666" points="425,-74 366,-74 366,-55 425,-55 425,-74"/>
<text text-anchor="middle" x="395.5" y="-62" font-family="Helvetica,sans-Serif" font-size="10.00">utils.hpp</text>
</a>
</g>
</g>
<!-- Node1&#45;&gt;Node6 -->
<g id="edge28_Node000001_Node000006" class="edge">
<title>Node1&#45;&gt;Node6</title>
<g id="a_edge28_Node000001_Node000006"><a xlink:title=" ">
<path fill="none" stroke="#63b8ff" d="M504.42,-274.81C468.46,-250.22 398.57,-195.85 371.5,-129 365.16,-113.35 373.43,-95.34 381.94,-82.5"/>
<polygon fill="#63b8ff" stroke="#63b8ff" points="384.94,-84.33 387.98,-74.18 379.28,-80.22 384.94,-84.33"/>
</a>
</g>
</g>
<!-- Node20 -->
<g id="Node000020" class="node">
<title>Node20</title>
<g id="a_Node000020"><a xlink:href="Logger_8hpp.html" target="_top" xlink:title=" ">
<polygon fill="white" stroke="#666666" points="675.5,-74 581.5,-74 581.5,-55 675.5,-55 675.5,-74"/>
<text text-anchor="middle" x="628.5" y="-62" font-family="Helvetica,sans-Serif" font-size="10.00">utils/Logger.hpp</text>
</a>
</g>
</g>
<!-- Node1&#45;&gt;Node20 -->
<g id="edge29_Node000001_Node000020" class="edge">
<title>Node1&#45;&gt;Node20</title>
<g id="a_edge29_Node000001_Node000020"><a xlink:title=" ">
<path fill="none" stroke="#63b8ff" d="M527.25,-274.97C528.96,-251.3 534.43,-202.35 551.5,-165 566.61,-131.95 594.6,-99.83 612.35,-81.39"/>
<polygon fill="#63b8ff" stroke="#63b8ff" points="614.96,-83.73 619.48,-74.15 609.97,-78.82 614.96,-83.73"/>
</a>
</g>
</g>
<!-- Node23 -->
<g id="Node000023" class="node">
<title>Node23</title>
<g id="a_Node000023"><a xlink:title=" ">
<polygon fill="#e0e0e0" stroke="#999999" points="742,-239 689,-239 689,-220 742,-220 742,-239"/>
<text text-anchor="middle" x="715.5" y="-227" font-family="Helvetica,sans-Serif" font-size="10.00">cstddef</text>
</a>
</g>
</g>
<!-- Node1&#45;&gt;Node23 -->
<g id="edge35_Node000001_Node000023" class="edge">
<title>Node1&#45;&gt;Node23</title>
<g id="a_edge35_Node000001_Node000023"><a xlink:title=" ">
<path fill="none" stroke="#63b8ff" d="M571.77,-274.99C604.64,-264.81 648.53,-251.23 679.13,-241.76"/>
<polygon fill="#63b8ff" stroke="#63b8ff" points="680.44,-245.01 688.96,-238.71 678.37,-238.33 680.44,-245.01"/>
</a>
</g>
</g>
<!-- Node3 -->
<g id="Node000003" class="node">
<title>Node3</title>
<g id="a_Node000003"><a xlink:href="AConfigParser_8hpp.html" target="_top" xlink:title=" ">
<polygon fill="white" stroke="#666666" points="664.5,-184 560.5,-184 560.5,-165 664.5,-165 664.5,-184"/>
<text text-anchor="middle" x="612.5" y="-172" font-family="Helvetica,sans-Serif" font-size="10.00">AConfigParser.hpp</text>
</a>
</g>
</g>
<!-- Node2&#45;&gt;Node3 -->
<g id="edge2_Node000002_Node000003" class="edge">
<title>Node2&#45;&gt;Node3</title>
<g id="a_edge2_Node000002_Node000003"><a xlink:title=" ">
<path fill="none" stroke="#63b8ff" d="M612.5,-219.75C612.5,-212.8 612.5,-202.85 612.5,-194.13"/>
<polygon fill="#63b8ff" stroke="#63b8ff" points="616,-194.09 612.5,-184.09 609,-194.09 616,-194.09"/>
</a>
</g>
</g>
<!-- Node2&#45;&gt;Node5 -->
<g id="edge24_Node000002_Node000005" class="edge">
<title>Node2&#45;&gt;Node5</title>
<g id="a_edge24_Node000002_Node000005"><a xlink:title=" ">
<path fill="none" stroke="#63b8ff" d="M584.4,-219.89C531.37,-203.48 413.12,-166.02 315.5,-129 222.32,-93.66 114.32,-45.76 64.42,-23.22"/>
<polygon fill="#63b8ff" stroke="#63b8ff" points="65.79,-20 55.24,-19.06 62.9,-26.38 65.79,-20"/>
</a>
</g>
</g>
<!-- Node16 -->
<g id="Node000016" class="node">
<title>Node16</title>
<g id="a_Node000016"><a xlink:title=" ">
<polygon fill="#e0e0e0" stroke="#999999" points="928,-19 881,-19 881,0 928,0 928,-19"/>
<text text-anchor="middle" x="904.5" y="-7" font-family="Helvetica,sans-Serif" font-size="10.00">vector</text>
</a>
</g>
</g>
<!-- Node2&#45;&gt;Node16 -->
<g id="edge26_Node000002_Node000016" class="edge">
<title>Node2&#45;&gt;Node16</title>
<g id="a_edge26_Node000002_Node000016"><a xlink:title=" ">
<path fill="none" stroke="#63b8ff" d="M625.1,-219.93C649.94,-202.95 706.88,-163.71 753.5,-129 802.19,-92.75 858.04,-48.09 886.21,-25.34"/>
<polygon fill="#63b8ff" stroke="#63b8ff" points="888.45,-28.03 894.03,-19.02 884.05,-22.59 888.45,-28.03"/>
</a>
</g>
</g>
<!-- Node18 -->
<g id="Node000018" class="node">
<title>Node18</title>
<g id="a_Node000018"><a xlink:title=" ">
<polygon fill="#e0e0e0" stroke="#999999" points="832.5,-129 800.5,-129 800.5,-110 832.5,-110 832.5,-129"/>
<text text-anchor="middle" x="816.5" y="-117" font-family="Helvetica,sans-Serif" font-size="10.00">set</text>
</a>
</g>
</g>
<!-- Node2&#45;&gt;Node18 -->
<g id="edge25_Node000002_Node000018" class="edge">
<title>Node2&#45;&gt;Node18</title>
<g id="a_edge25_Node000002_Node000018"><a xlink:title=" ">
<path fill="none" stroke="#63b8ff" d="M665.83,-219.98C709.93,-212.03 768.16,-199.13 786.5,-184 800.29,-172.62 808.12,-153.45 812.3,-139.14"/>
<polygon fill="#63b8ff" stroke="#63b8ff" points="815.72,-139.91 814.82,-129.35 808.94,-138.17 815.72,-139.91"/>
</a>
</g>
</g>
<!-- Node4 -->
<g id="Node000004" class="node">
<title>Node4</title>
<g id="a_Node000004"><a xlink:href="config__utils_8hpp.html" target="_top" xlink:title=" ">
<polygon fill="white" stroke="#666666" points="498,-129 381,-129 381,-110 498,-110 498,-129"/>
<text text-anchor="middle" x="439.5" y="-117" font-family="Helvetica,sans-Serif" font-size="10.00">utils/config_utils.hpp</text>
</a>
</g>
</g>
<!-- Node3&#45;&gt;Node4 -->
<g id="edge3_Node000003_Node000004" class="edge">
<title>Node3&#45;&gt;Node4</title>
<g id="a_edge3_Node000003_Node000004"><a xlink:title=" ">
<path fill="none" stroke="#63b8ff" d="M584.7,-164.98C555.53,-156.05 509.5,-141.94 477.1,-132.02"/>
<polygon fill="#63b8ff" stroke="#63b8ff" points="478.1,-128.66 467.51,-129.08 476.05,-135.36 478.1,-128.66"/>
</a>
</g>
</g>
<!-- Node3&#45;&gt;Node5 -->
<g id="edge19_Node000003_Node000005" class="edge">
<title>Node3&#45;&gt;Node5</title>
<g id="a_edge19_Node000003_Node000005"><a xlink:title=" ">
<path fill="none" stroke="#63b8ff" d="M560.03,-167.1C510.69,-160.32 435.12,-147.93 371.5,-129 289.78,-104.68 275.02,-83.05 194.5,-55 156.86,-41.89 113.19,-29.82 81.31,-21.57"/>
<polygon fill="#63b8ff" stroke="#63b8ff" points="81.95,-18.12 71.4,-19.03 80.21,-24.9 81.95,-18.12"/>
</a>
</g>
</g>
<!-- Node12 -->
<g id="Node000012" class="node">
<title>Node12</title>
<g id="a_Node000012"><a xlink:title=" ">
<polygon fill="#e0e0e0" stroke="#999999" points="648,-19 593,-19 593,0 648,0 648,-19"/>
<text text-anchor="middle" x="620.5" y="-7" font-family="Helvetica,sans-Serif" font-size="10.00">fstream</text>
</a>
</g>
</g>
<!-- Node3&#45;&gt;Node12 -->
<g id="edge20_Node000003_Node000012" class="edge">
<title>Node3&#45;&gt;Node12</title>
<g id="a_edge20_Node000003_Node000012"><a xlink:title=" ">
<path fill="none" stroke="#63b8ff" d="M605.34,-164.98C589.66,-145.24 555.04,-95 572.5,-55 577.77,-42.92 588.13,-32.65 597.87,-25.03"/>
<polygon fill="#63b8ff" stroke="#63b8ff" points="600.09,-27.74 606.13,-19.04 595.98,-22.07 600.09,-27.74"/>
</a>
</g>
</g>
<!-- Node13 -->
<g id="Node000013" class="node">
<title>Node13</title>
<g id="a_Node000013"><a xlink:title=" ">
<polygon fill="#e0e0e0" stroke="#999999" points="726.5,-19 666.5,-19 666.5,0 726.5,0 726.5,-19"/>
<text text-anchor="middle" x="696.5" y="-7" font-family="Helvetica,sans-Serif" font-size="10.00">iostream</text>
</a>
</g>
</g>
<!-- Node3&#45;&gt;Node13 -->
<g id="edge21_Node000003_Node000013" class="edge">
<title>Node3&#45;&gt;Node13</title>
<g id="a_edge21_Node000003_Node000013"><a xlink:title=" ">
<path fill="none" stroke="#63b8ff" d="M620.95,-164.75C636.24,-148.38 668.39,-111.41 684.5,-74 690.68,-59.65 693.68,-42.13 695.14,-29.13"/>
<polygon fill="#63b8ff" stroke="#63b8ff" points="698.64,-29.34 696.07,-19.06 691.67,-28.7 698.64,-29.34"/>
</a>
</g>
</g>
<!-- Node3&#45;&gt;Node18 -->
<g id="edge22_Node000003_Node000018" class="edge">
<title>Node3&#45;&gt;Node18</title>
<g id="a_edge22_Node000003_Node000018"><a xlink:title=" ">
<path fill="none" stroke="#63b8ff" d="M645.28,-164.98C685.67,-154.49 753.47,-136.87 790.48,-127.26"/>
<polygon fill="#63b8ff" stroke="#63b8ff" points="791.68,-130.56 800.48,-124.66 789.92,-123.79 791.68,-130.56"/>
</a>
</g>
</g>
<!-- Node19 -->
<g id="Node000019" class="node">
<title>Node19</title>
<g id="a_Node000019"><a xlink:title=" ">
<polygon fill="#e0e0e0" stroke="#999999" points="744.5,-129 700.5,-129 700.5,-110 744.5,-110 744.5,-129"/>
<text text-anchor="middle" x="722.5" y="-117" font-family="Helvetica,sans-Serif" font-size="10.00">string</text>
</a>
</g>
</g>
<!-- Node3&#45;&gt;Node19 -->
<g id="edge23_Node000003_Node000019" class="edge">
<title>Node3&#45;&gt;Node19</title>
<g id="a_edge23_Node000003_Node000019"><a xlink:title=" ">
<path fill="none" stroke="#63b8ff" d="M630.17,-164.98C647.79,-156.5 675.08,-143.35 695.43,-133.54"/>
<polygon fill="#63b8ff" stroke="#63b8ff" points="697.02,-136.66 704.51,-129.17 693.98,-130.36 697.02,-136.66"/>
</a>
</g>
</g>
<!-- Node4&#45;&gt;Node5 -->
<g id="edge4_Node000004_Node000005" class="edge">
<title>Node4&#45;&gt;Node5</title>
<g id="a_edge4_Node000004_Node000005"><a xlink:title=" ">
<path fill="none" stroke="#63b8ff" d="M421.07,-109.87C391.57,-96.36 331.65,-70.21 278.5,-55 196.34,-31.49 171.35,-34.77 83.07,-19.07"/>
<polygon fill="#63b8ff" stroke="#63b8ff" points="83.62,-15.62 73.16,-17.28 82.37,-22.5 83.62,-15.62"/>
</a>
</g>
</g>
<!-- Node4&#45;&gt;Node6 -->
<g id="edge5_Node000004_Node000006" class="edge">
<title>Node4&#45;&gt;Node6</title>
<g id="a_edge5_Node000004_Node000006"><a xlink:title=" ">
<path fill="none" stroke="#63b8ff" d="M432.23,-109.75C425.96,-102.18 416.71,-91.05 409.07,-81.84"/>
<polygon fill="#63b8ff" stroke="#63b8ff" points="411.71,-79.55 402.63,-74.09 406.33,-84.02 411.71,-79.55"/>
</a>
</g>
</g>
<!-- Node4&#45;&gt;Node12 -->
<g id="edge17_Node000004_Node000012" class="edge">
<title>Node4&#45;&gt;Node12</title>
<g id="a_edge17_Node000004_Node000012"><a xlink:title=" ">
<path fill="none" stroke="#63b8ff" d="M441.69,-109.72C445.55,-96.01 454.9,-69.58 472.5,-55 481.17,-47.82 542.05,-30.94 582.97,-20.15"/>
<polygon fill="#63b8ff" stroke="#63b8ff" points="584.12,-23.47 592.91,-17.55 582.35,-16.7 584.12,-23.47"/>
</a>
</g>
</g>
<!-- Node17 -->
<g id="Node000017" class="node">
<title>Node17</title>
<g id="a_Node000017"><a xlink:title=" ">
<polygon fill="#e0e0e0" stroke="#999999" points="519.5,-74 481.5,-74 481.5,-55 519.5,-55 519.5,-74"/>
<text text-anchor="middle" x="500.5" y="-62" font-family="Helvetica,sans-Serif" font-size="10.00">map</text>
</a>
</g>
</g>
<!-- Node4&#45;&gt;Node17 -->
<g id="edge18_Node000004_Node000017" class="edge">
<title>Node4&#45;&gt;Node17</title>
<g id="a_edge18_Node000004_Node000017"><a xlink:title=" ">
<path fill="none" stroke="#63b8ff" d="M449.3,-109.98C458.32,-102.15 471.91,-90.34 482.82,-80.86"/>
<polygon fill="#63b8ff" stroke="#63b8ff" points="485.27,-83.37 490.52,-74.17 480.68,-78.09 485.27,-83.37"/>
</a>
</g>
</g>
<!-- Node6&#45;&gt;Node5 -->
<g id="edge6_Node000006_Node000005" class="edge">
<title>Node6&#45;&gt;Node5</title>
<g id="a_edge6_Node000006_Node000005"><a xlink:title=" ">
<path fill="none" stroke="#63b8ff" d="M365.87,-58.94C357.36,-57.64 348.06,-56.25 339.5,-55 228.49,-38.8 198,-37.54 83.03,-19.02"/>
<polygon fill="#63b8ff" stroke="#63b8ff" points="83.56,-15.56 73.13,-17.42 82.44,-22.47 83.56,-15.56"/>
</a>
</g>
</g>
<!-- Node7 -->
<g id="Node000007" class="node">
<title>Node7</title>
<g id="a_Node000007"><a xlink:title=" ">
<polygon fill="#e0e0e0" stroke="#999999" points="155.5,-19 91.5,-19 91.5,0 155.5,0 155.5,-19"/>
<text text-anchor="middle" x="123.5" y="-7" font-family="Helvetica,sans-Serif" font-size="10.00">algorithm</text>
</a>
</g>
</g>
<!-- Node6&#45;&gt;Node7 -->
<g id="edge7_Node000006_Node000007" class="edge">
<title>Node6&#45;&gt;Node7</title>
<g id="a_edge7_Node000006_Node000007"><a xlink:title=" ">
<path fill="none" stroke="#63b8ff" d="M365.94,-57.94C323.78,-49.99 243.71,-34.77 165.71,-19.22"/>
<polygon fill="#63b8ff" stroke="#63b8ff" points="166.21,-15.75 155.72,-17.22 164.84,-22.62 166.21,-15.75"/>
</a>
</g>
</g>
<!-- Node8 -->
<g id="Node000008" class="node">
<title>Node8</title>
<g id="a_Node000008"><a xlink:title=" ">
<polygon fill="#e0e0e0" stroke="#999999" points="223,-19 174,-19 174,0 223,0 223,-19"/>
<text text-anchor="middle" x="198.5" y="-7" font-family="Helvetica,sans-Serif" font-size="10.00">cctype</text>
</a>
</g>
</g>
<!-- Node6&#45;&gt;Node8 -->
<g id="edge8_Node000006_Node000008" class="edge">
<title>Node6&#45;&gt;Node8</title>
<g id="a_edge8_Node000006_Node000008"><a xlink:title=" ">
<path fill="none" stroke="#63b8ff" d="M365.58,-55.45C329.96,-45.87 270.6,-29.9 233.06,-19.8"/>
<polygon fill="#63b8ff" stroke="#63b8ff" points="233.65,-16.33 223.09,-17.11 231.83,-23.09 233.65,-16.33"/>
</a>
</g>
</g>
<!-- Node9 -->
<g id="Node000009" class="node">
<title>Node9</title>
<g id="a_Node000009"><a xlink:title=" ">
<polygon fill="#e0e0e0" stroke="#999999" points="291.5,-19 241.5,-19 241.5,0 291.5,0 291.5,-19"/>
<text text-anchor="middle" x="266.5" y="-7" font-family="Helvetica,sans-Serif" font-size="10.00">cstring</text>
</a>
</g>
</g>
<!-- Node6&#45;&gt;Node9 -->
<g id="edge9_Node000006_Node000009" class="edge">
<title>Node6&#45;&gt;Node9</title>
<g id="a_edge9_Node000006_Node000009"><a xlink:title=" ">
<path fill="none" stroke="#63b8ff" d="M374.77,-54.98C353.74,-46.34 320.95,-32.87 296.96,-23.02"/>
<polygon fill="#63b8ff" stroke="#63b8ff" points="298.18,-19.73 287.6,-19.17 295.52,-26.21 298.18,-19.73"/>
</a>
</g>
</g>
<!-- Node10 -->
<g id="Node000010" class="node">
<title>Node10</title>
<g id="a_Node000010"><a xlink:title=" ">
<polygon fill="#e0e0e0" stroke="#999999" points="361,-19 310,-19 310,0 361,0 361,-19"/>
<text text-anchor="middle" x="335.5" y="-7" font-family="Helvetica,sans-Serif" font-size="10.00">errno.h</text>
</a>
</g>
</g>
<!-- Node6&#45;&gt;Node10 -->
<g id="edge10_Node000006_Node000010" class="edge">
<title>Node6&#45;&gt;Node10</title>
<g id="a_edge10_Node000006_Node000010"><a xlink:title=" ">
<path fill="none" stroke="#63b8ff" d="M385.86,-54.98C376.99,-47.15 363.63,-35.34 352.89,-25.86"/>
<polygon fill="#63b8ff" stroke="#63b8ff" points="355.13,-23.17 345.32,-19.17 350.49,-28.41 355.13,-23.17"/>
</a>
</g>
</g>
<!-- Node11 -->
<g id="Node000011" class="node">
<title>Node11</title>
<g id="a_Node000011"><a xlink:title=" ">
<polygon fill="#e0e0e0" stroke="#999999" points="426,-19 379,-19 379,0 426,0 426,-19"/>
<text text-anchor="middle" x="402.5" y="-7" font-family="Helvetica,sans-Serif" font-size="10.00">fcntl.h</text>
</a>
</g>
</g>
<!-- Node6&#45;&gt;Node11 -->
<g id="edge11_Node000006_Node000011" class="edge">
<title>Node6&#45;&gt;Node11</title>
<g id="a_edge11_Node000006_Node000011"><a xlink:title=" ">
<path fill="none" stroke="#63b8ff" d="M396.66,-54.75C397.57,-47.8 398.89,-37.85 400.04,-29.13"/>
<polygon fill="#63b8ff" stroke="#63b8ff" points="403.53,-29.46 401.37,-19.09 396.59,-28.54 403.53,-29.46"/>
</a>
</g>
</g>
<!-- Node6&#45;&gt;Node12 -->
<g id="edge12_Node000006_Node000012" class="edge">
<title>Node6&#45;&gt;Node12</title>
<g id="a_edge12_Node000006_Node000012"><a xlink:title=" ">
<path fill="none" stroke="#63b8ff" d="M425.38,-56.46C466.08,-46.87 538.93,-29.71 583.18,-19.29"/>
<polygon fill="#63b8ff" stroke="#63b8ff" points="584.04,-22.68 592.97,-16.98 582.44,-15.87 584.04,-22.68"/>
</a>
</g>
</g>
<!-- Node6&#45;&gt;Node13 -->
<g id="edge13_Node000006_Node000013" class="edge">
<title>Node6&#45;&gt;Node13</title>
<g id="a_edge13_Node000006_Node000013"><a xlink:title=" ">
<path fill="none" stroke="#63b8ff" d="M425.05,-58.94C471.9,-51.61 566.33,-36.43 656.21,-19.18"/>
<polygon fill="#63b8ff" stroke="#63b8ff" points="657.14,-22.56 666.29,-17.23 655.81,-15.69 657.14,-22.56"/>
</a>
</g>
</g>
<!-- Node14 -->
<g id="Node000014" class="node">
<title>Node14</title>
<g id="a_Node000014"><a xlink:title=" ">
<polygon fill="#e0e0e0" stroke="#999999" points="500.5,-19 444.5,-19 444.5,0 500.5,0 500.5,-19"/>
<text text-anchor="middle" x="472.5" y="-7" font-family="Helvetica,sans-Serif" font-size="10.00">sstream</text>
</a>
</g>
</g>
<!-- Node6&#45;&gt;Node14 -->
<g id="edge14_Node000006_Node000014" class="edge">
<title>Node6&#45;&gt;Node14</title>
<g id="a_edge14_Node000006_Node000014"><a xlink:title=" ">
<path fill="none" stroke="#63b8ff" d="M407.87,-54.98C419.59,-46.92 437.42,-34.65 451.39,-25.03"/>
<polygon fill="#63b8ff" stroke="#63b8ff" points="453.65,-27.72 459.9,-19.17 449.68,-21.96 453.65,-27.72"/>
</a>
</g>
</g>
<!-- Node15 -->
<g id="Node000015" class="node">
<title>Node15</title>
<g id="a_Node000015"><a xlink:title=" ">
<polygon fill="#e0e0e0" stroke="#999999" points="574.5,-19 518.5,-19 518.5,0 574.5,0 574.5,-19"/>
<text text-anchor="middle" x="546.5" y="-7" font-family="Helvetica,sans-Serif" font-size="10.00">unistd.h</text>
</a>
</g>
</g>
<!-- Node6&#45;&gt;Node15 -->
<g id="edge15_Node000006_Node000015" class="edge">
<title>Node6&#45;&gt;Node15</title>
<g id="a_edge15_Node000006_Node000015"><a xlink:title=" ">
<path fill="none" stroke="#63b8ff" d="M419.76,-54.98C444.82,-46.19 484.13,-32.39 512.33,-22.49"/>
<polygon fill="#63b8ff" stroke="#63b8ff" points="513.52,-25.78 521.8,-19.17 511.2,-19.18 513.52,-25.78"/>
</a>
</g>
</g>
<!-- Node6&#45;&gt;Node16 -->
<g id="edge16_Node000006_Node000016" class="edge">
<title>Node6&#45;&gt;Node16</title>
<g id="a_edge16_Node000006_Node000016"><a xlink:title=" ">
<path fill="none" stroke="#63b8ff" d="M425.1,-60.09C439.41,-58.48 456.84,-56.57 472.5,-55 646.46,-37.55 694.33,-48.88 870.93,-18.8"/>
<polygon fill="#63b8ff" stroke="#63b8ff" points="871.55,-22.24 880.81,-17.09 870.36,-15.34 871.55,-22.24"/>
</a>
</g>
</g>
<!-- Node20&#45;&gt;Node5 -->
<g id="edge30_Node000020_Node000005" class="edge">
<title>Node20&#45;&gt;Node5</title>
<g id="a_edge30_Node000020_Node000005"><a xlink:title=" ">
<path fill="none" stroke="#63b8ff" d="M581.45,-59.46C564.73,-58.03 545.78,-56.43 528.5,-55 333.6,-38.85 281.37,-44.89 83.26,-18.95"/>
<polygon fill="#63b8ff" stroke="#63b8ff" points="83.48,-15.45 73.1,-17.61 82.56,-22.39 83.48,-15.45"/>
</a>
</g>
</g>
<!-- Node20&#45;&gt;Node12 -->
<g id="edge32_Node000020_Node000012" class="edge">
<title>Node20&#45;&gt;Node12</title>
<g id="a_edge32_Node000020_Node000012"><a xlink:title=" ">
<path fill="none" stroke="#63b8ff" d="M627.18,-54.75C626.13,-47.8 624.63,-37.85 623.31,-29.13"/>
<polygon fill="#63b8ff" stroke="#63b8ff" points="626.75,-28.45 621.8,-19.09 619.83,-29.5 626.75,-28.45"/>
</a>
</g>
</g>
<!-- Node20&#45;&gt;Node13 -->
<g id="edge33_Node000020_Node000013" class="edge">
<title>Node20&#45;&gt;Node13</title>
<g id="a_edge33_Node000020_Node000013"><a xlink:title=" ">
<path fill="none" stroke="#63b8ff" d="M639.43,-54.98C649.58,-47.07 664.92,-35.11 677.15,-25.58"/>
<polygon fill="#63b8ff" stroke="#63b8ff" points="679.64,-28.08 685.38,-19.17 675.34,-22.56 679.64,-28.08"/>
</a>
</g>
</g>
<!-- Node21 -->
<g id="Node000021" class="node">
<title>Node21</title>
<g id="a_Node000021"><a xlink:title=" ">
<polygon fill="#e0e0e0" stroke="#999999" points="788.5,-19 744.5,-19 744.5,0 788.5,0 788.5,-19"/>
<text text-anchor="middle" x="766.5" y="-7" font-family="Helvetica,sans-Serif" font-size="10.00">ctime</text>
</a>
</g>
</g>
<!-- Node20&#45;&gt;Node21 -->
<g id="edge31_Node000020_Node000021" class="edge">
<title>Node20&#45;&gt;Node21</title>
<g id="a_edge31_Node000020_Node000021"><a xlink:title=" ">
<path fill="none" stroke="#63b8ff" d="M650.67,-54.98C673.41,-46.25 708.98,-32.59 734.71,-22.71"/>
<polygon fill="#63b8ff" stroke="#63b8ff" points="736.3,-25.85 744.38,-18.99 733.79,-19.31 736.3,-25.85"/>
</a>
</g>
</g>
<!-- Node22 -->
<g id="Node000022" class="node">
<title>Node22</title>
<g id="a_Node000022"><a xlink:title=" ">
<polygon fill="#e0e0e0" stroke="#999999" points="862.5,-19 806.5,-19 806.5,0 862.5,0 862.5,-19"/>
<text text-anchor="middle" x="834.5" y="-7" font-family="Helvetica,sans-Serif" font-size="10.00">iomanip</text>
</a>
</g>
</g>
<!-- Node20&#45;&gt;Node22 -->
<g id="edge34_Node000020_Node000022" class="edge">
<title>Node20&#45;&gt;Node22</title>
<g id="a_edge34_Node000020_Node000022"><a xlink:title=" ">
<path fill="none" stroke="#63b8ff" d="M661.6,-54.98C698.45,-45.5 757.91,-30.2 796.6,-20.25"/>
<polygon fill="#63b8ff" stroke="#63b8ff" points="797.64,-23.6 806.45,-17.72 795.89,-16.82 797.64,-23.6"/>
</a>
</g>
</g>
</g>
</svg>
