<?xml version="1.0" encoding="UTF-8" standalone="no"?>
<!DOCTYPE svg PUBLIC "-//W3C//DTD SVG 1.1//EN"
 "http://www.w3.org/Graphics/SVG/1.1/DTD/svg11.dtd">
<!-- Generated by graphviz version 2.43.0 (0)
 -->
<!-- Title: source/kernel/ConnectionHandler.cpp Pages: 1 -->
<svg width="1124pt" height="203pt"
 viewBox="0.00 0.00 1123.50 203.00" xmlns="http://www.w3.org/2000/svg" xmlns:xlink="http://www.w3.org/1999/xlink">
<g id="graph0" class="graph" transform="scale(1 1) rotate(0) translate(4 199)">
<title>source/kernel/ConnectionHandler.cpp</title>
<!-- Node1 -->
<g id="Node000001" class="node">
<title>Node1</title>
<g id="a_Node000001"><a xlink:title=" ">
<polygon fill="#999999" stroke="#666666" points="499,-195 359,-195 359,-165 499,-165 499,-195"/>
<text text-anchor="start" x="367" y="-183" font-family="Helvetica,sans-Serif" font-size="10.00">source/kernel/Connection</text>
<text text-anchor="middle" x="429" y="-172" font-family="Helvetica,sans-Serif" font-size="10.00">Handler.cpp</text>
</a>
</g>
</g>
<!-- Node2 -->
<g id="Node000002" class="node">
<title>Node2</title>
<g id="a_Node000002"><a xlink:href="ConnectionHandler_8hpp.html" target="_top" xlink:title=" ">
<polygon fill="white" stroke="#666666" points="448,-129 318,-129 318,-110 448,-110 448,-129"/>
<text text-anchor="middle" x="383" y="-117" font-family="Helvetica,sans-Serif" font-size="10.00">ConnectionHandler.hpp</text>
</a>
</g>
</g>
<!-- Node1&#45;&gt;Node2 -->
<g id="edge1_Node000001_Node000002" class="edge">
<title>Node1&#45;&gt;Node2</title>
<g id="a_edge1_Node000001_Node000002"><a xlink:title=" ">
<path fill="none" stroke="#63b8ff" d="M417.86,-164.84C411.32,-156.52 403.02,-145.96 396.16,-137.23"/>
<polygon fill="#63b8ff" stroke="#63b8ff" points="398.83,-134.96 389.89,-129.27 393.32,-139.29 398.83,-134.96"/>
</a>
</g>
</g>
<!-- Node13 -->
<g id="Node000013" class="node">
<title>Node13</title>
<g id="a_Node000013"><a xlink:href="utils_8hpp.html" target="_top" xlink:title=" ">
<polygon fill="white" stroke="#666666" points="741.5,-74 658.5,-74 658.5,-55 741.5,-55 741.5,-74"/>
<text text-anchor="middle" x="700" y="-62" font-family="Helvetica,sans-Serif" font-size="10.00">utils/utils.hpp</text>
</a>
</g>
</g>
<!-- Node1&#45;&gt;Node13 -->
<g id="edge15_Node000001_Node000013" class="edge">
<title>Node1&#45;&gt;Node13</title>
<g id="a_edge15_Node000001_Node000013"><a xlink:title=" ">
<path fill="none" stroke="#63b8ff" d="M462.5,-164.97C515.74,-142.67 618.84,-99.49 669.88,-78.12"/>
<polygon fill="#63b8ff" stroke="#63b8ff" points="671.49,-81.24 679.36,-74.14 668.78,-74.78 671.49,-81.24"/>
</a>
</g>
</g>
<!-- Node3 -->
<g id="Node000003" class="node">
<title>Node3</title>
<g id="a_Node000003"><a xlink:href="IHandler_8hpp.html" target="_top" xlink:title=" ">
<polygon fill="white" stroke="#666666" points="78,-19 0,-19 0,0 78,0 78,-19"/>
<text text-anchor="middle" x="39" y="-7" font-family="Helvetica,sans-Serif" font-size="10.00">IHandler.hpp</text>
</a>
</g>
</g>
<!-- Node2&#45;&gt;Node3 -->
<g id="edge2_Node000002_Node000003" class="edge">
<title>Node2&#45;&gt;Node3</title>
<g id="a_edge2_Node000002_Node000003"><a xlink:title=" ">
<path fill="none" stroke="#63b8ff" d="M360.27,-109.94C337.69,-101.31 302.18,-87.38 272,-74 254.37,-66.19 251.18,-61.42 233,-55 206.69,-45.71 136.36,-30.43 88.02,-20.41"/>
<polygon fill="#63b8ff" stroke="#63b8ff" points="88.57,-16.95 78.07,-18.36 87.15,-23.81 88.57,-16.95"/>
</a>
</g>
</g>
<!-- Node4 -->
<g id="Node000004" class="node">
<title>Node4</title>
<g id="a_Node000004"><a xlink:href="Reactor_8hpp.html" target="_top" xlink:title=" ">
<polygon fill="white" stroke="#666666" points="355,-74 281,-74 281,-55 355,-55 355,-74"/>
<text text-anchor="middle" x="318" y="-62" font-family="Helvetica,sans-Serif" font-size="10.00">Reactor.hpp</text>
</a>
</g>
</g>
<!-- Node2&#45;&gt;Node4 -->
<g id="edge3_Node000002_Node000004" class="edge">
<title>Node2&#45;&gt;Node4</title>
<g id="a_edge3_Node000002_Node000004"><a xlink:title=" ">
<path fill="none" stroke="#63b8ff" d="M372.56,-109.98C362.85,-102.07 348.18,-90.11 336.5,-80.58"/>
<polygon fill="#63b8ff" stroke="#63b8ff" points="338.6,-77.78 328.63,-74.17 334.17,-83.2 338.6,-77.78"/>
</a>
</g>
</g>
<!-- Node5 -->
<g id="Node000005" class="node">
<title>Node5</title>
<g id="a_Node000005"><a xlink:href="defines_8hpp.html" target="_top" xlink:title=" ">
<polygon fill="white" stroke="#666666" points="396.5,-19 323.5,-19 323.5,0 396.5,0 396.5,-19"/>
<text text-anchor="middle" x="360" y="-7" font-family="Helvetica,sans-Serif" font-size="10.00">defines.hpp</text>
</a>
</g>
</g>
<!-- Node2&#45;&gt;Node5 -->
<g id="edge11_Node000002_Node000005" class="edge">
<title>Node2&#45;&gt;Node5</title>
<g id="a_edge11_Node000002_Node000005"><a xlink:title=" ">
<path fill="none" stroke="#63b8ff" d="M381.12,-109.66C377.38,-92.09 368.93,-52.45 363.93,-28.95"/>
<polygon fill="#63b8ff" stroke="#63b8ff" points="367.35,-28.21 361.84,-19.16 360.5,-29.67 367.35,-28.21"/>
</a>
</g>
</g>
<!-- Node6 -->
<g id="Node000006" class="node">
<title>Node6</title>
<g id="a_Node000006"><a xlink:title=" ">
<polygon fill="#e0e0e0" stroke="#999999" points="475,-19 415,-19 415,0 475,0 475,-19"/>
<text text-anchor="middle" x="445" y="-7" font-family="Helvetica,sans-Serif" font-size="10.00">iostream</text>
</a>
</g>
</g>
<!-- Node2&#45;&gt;Node6 -->
<g id="edge13_Node000002_Node000006" class="edge">
<title>Node2&#45;&gt;Node6</title>
<g id="a_edge13_Node000002_Node000006"><a xlink:title=" ">
<path fill="none" stroke="#63b8ff" d="M388.07,-109.66C398.3,-91.85 421.54,-51.37 434.95,-28.01"/>
<polygon fill="#63b8ff" stroke="#63b8ff" points="438.09,-29.57 440.03,-19.16 432.02,-26.09 438.09,-29.57"/>
</a>
</g>
</g>
<!-- Node11 -->
<g id="Node000011" class="node">
<title>Node11</title>
<g id="a_Node000011"><a xlink:title=" ">
<polygon fill="#e0e0e0" stroke="#999999" points="618.5,-19 567.5,-19 567.5,0 618.5,0 618.5,-19"/>
<text text-anchor="middle" x="593" y="-7" font-family="Helvetica,sans-Serif" font-size="10.00">errno.h</text>
</a>
</g>
</g>
<!-- Node2&#45;&gt;Node11 -->
<g id="edge12_Node000002_Node000011" class="edge">
<title>Node2&#45;&gt;Node11</title>
<g id="a_edge12_Node000002_Node000011"><a xlink:title=" ">
<path fill="none" stroke="#63b8ff" d="M399.83,-109.84C436.48,-91 523.69,-46.14 567.28,-23.73"/>
<polygon fill="#63b8ff" stroke="#63b8ff" points="569.09,-26.73 576.38,-19.05 565.89,-20.51 569.09,-26.73"/>
</a>
</g>
</g>
<!-- Node12 -->
<g id="Node000012" class="node">
<title>Node12</title>
<g id="a_Node000012"><a xlink:title=" ">
<polygon fill="#e0e0e0" stroke="#999999" points="224.5,-74 171.5,-74 171.5,-55 224.5,-55 224.5,-74"/>
<text text-anchor="middle" x="198" y="-62" font-family="Helvetica,sans-Serif" font-size="10.00">string.h</text>
</a>
</g>
</g>
<!-- Node2&#45;&gt;Node12 -->
<g id="edge14_Node000002_Node000012" class="edge">
<title>Node2&#45;&gt;Node12</title>
<g id="a_edge14_Node000002_Node000012"><a xlink:title=" ">
<path fill="none" stroke="#63b8ff" d="M353.28,-109.98C320.93,-100.72 269.18,-85.89 234.41,-75.93"/>
<polygon fill="#63b8ff" stroke="#63b8ff" points="235.22,-72.52 224.65,-73.13 233.3,-79.25 235.22,-72.52"/>
</a>
</g>
</g>
<!-- Node4&#45;&gt;Node3 -->
<g id="edge4_Node000004_Node000003" class="edge">
<title>Node4&#45;&gt;Node3</title>
<g id="a_edge4_Node000004_Node000003"><a xlink:title=" ">
<path fill="none" stroke="#63b8ff" d="M280.95,-56.46C231.27,-47.03 142.96,-30.25 87.88,-19.79"/>
<polygon fill="#63b8ff" stroke="#63b8ff" points="88.48,-16.34 78,-17.91 87.17,-23.21 88.48,-16.34"/>
</a>
</g>
</g>
<!-- Node4&#45;&gt;Node5 -->
<g id="edge5_Node000004_Node000005" class="edge">
<title>Node4&#45;&gt;Node5</title>
<g id="a_edge5_Node000004_Node000005"><a xlink:title=" ">
<path fill="none" stroke="#63b8ff" d="M324.94,-54.75C330.87,-47.26 339.57,-36.28 346.82,-27.13"/>
<polygon fill="#63b8ff" stroke="#63b8ff" points="349.73,-29.1 353.19,-19.09 344.24,-24.75 349.73,-29.1"/>
</a>
</g>
</g>
<!-- Node4&#45;&gt;Node6 -->
<g id="edge6_Node000004_Node000006" class="edge">
<title>Node4&#45;&gt;Node6</title>
<g id="a_edge6_Node000004_Node000006"><a xlink:title=" ">
<path fill="none" stroke="#63b8ff" d="M338.4,-54.98C359.02,-46.38 391.11,-32.99 414.69,-23.15"/>
<polygon fill="#63b8ff" stroke="#63b8ff" points="416.34,-26.25 424.22,-19.17 413.65,-19.79 416.34,-26.25"/>
</a>
</g>
</g>
<!-- Node7 -->
<g id="Node000007" class="node">
<title>Node7</title>
<g id="a_Node000007"><a xlink:title=" ">
<polygon fill="#e0e0e0" stroke="#999999" points="222,-19 184,-19 184,0 222,0 222,-19"/>
<text text-anchor="middle" x="203" y="-7" font-family="Helvetica,sans-Serif" font-size="10.00">map</text>
</a>
</g>
</g>
<!-- Node4&#45;&gt;Node7 -->
<g id="edge7_Node000004_Node000007" class="edge">
<title>Node4&#45;&gt;Node7</title>
<g id="a_edge7_Node000004_Node000007"><a xlink:title=" ">
<path fill="none" stroke="#63b8ff" d="M299.52,-54.98C281.02,-46.46 252.32,-33.23 231.02,-23.41"/>
<polygon fill="#63b8ff" stroke="#63b8ff" points="232.36,-20.18 221.81,-19.17 229.43,-26.53 232.36,-20.18"/>
</a>
</g>
</g>
<!-- Node8 -->
<g id="Node000008" class="node">
<title>Node8</title>
<g id="a_Node000008"><a xlink:title=" ">
<polygon fill="#e0e0e0" stroke="#999999" points="305.5,-19 240.5,-19 240.5,0 305.5,0 305.5,-19"/>
<text text-anchor="middle" x="273" y="-7" font-family="Helvetica,sans-Serif" font-size="10.00">stdexcept</text>
</a>
</g>
</g>
<!-- Node4&#45;&gt;Node8 -->
<g id="edge8_Node000004_Node000008" class="edge">
<title>Node4&#45;&gt;Node8</title>
<g id="a_edge8_Node000004_Node000008"><a xlink:title=" ">
<path fill="none" stroke="#63b8ff" d="M310.57,-54.75C304.15,-47.18 294.69,-36.05 286.88,-26.84"/>
<polygon fill="#63b8ff" stroke="#63b8ff" points="289.43,-24.45 280.29,-19.09 284.1,-28.98 289.43,-24.45"/>
</a>
</g>
</g>
<!-- Node9 -->
<g id="Node000009" class="node">
<title>Node9</title>
<g id="a_Node000009"><a xlink:title=" ">
<polygon fill="#e0e0e0" stroke="#999999" points="165.5,-19 96.5,-19 96.5,0 165.5,0 165.5,-19"/>
<text text-anchor="middle" x="131" y="-7" font-family="Helvetica,sans-Serif" font-size="10.00">sys/epoll.h</text>
</a>
</g>
</g>
<!-- Node4&#45;&gt;Node9 -->
<g id="edge9_Node000004_Node000009" class="edge">
<title>Node4&#45;&gt;Node9</title>
<g id="a_edge9_Node000004_Node000009"><a xlink:title=" ">
<path fill="none" stroke="#63b8ff" d="M287.96,-54.98C256.29,-46.01 206.23,-31.82 171.19,-21.89"/>
<polygon fill="#63b8ff" stroke="#63b8ff" points="171.86,-18.44 161.28,-19.08 169.95,-25.18 171.86,-18.44"/>
</a>
</g>
</g>
<!-- Node10 -->
<g id="Node000010" class="node">
<title>Node10</title>
<g id="a_Node000010"><a xlink:title=" ">
<polygon fill="#e0e0e0" stroke="#999999" points="549,-19 493,-19 493,0 549,0 549,-19"/>
<text text-anchor="middle" x="521" y="-7" font-family="Helvetica,sans-Serif" font-size="10.00">unistd.h</text>
</a>
</g>
</g>
<!-- Node4&#45;&gt;Node10 -->
<g id="edge10_Node000004_Node000010" class="edge">
<title>Node4&#45;&gt;Node10</title>
<g id="a_edge10_Node000004_Node000010"><a xlink:title=" ">
<path fill="none" stroke="#63b8ff" d="M350.62,-54.98C386.73,-45.56 444.87,-30.38 483.01,-20.42"/>
<polygon fill="#63b8ff" stroke="#63b8ff" points="483.93,-23.8 492.72,-17.88 482.16,-17.02 483.93,-23.8"/>
</a>
</g>
</g>
<!-- Node13&#45;&gt;Node5 -->
<g id="edge16_Node000013_Node000005" class="edge">
<title>Node13&#45;&gt;Node5</title>
<g id="a_edge16_Node000013_Node000005"><a xlink:title=" ">
<path fill="none" stroke="#63b8ff" d="M658.06,-57.59C602.86,-49.71 502.54,-35.07 406.52,-19.04"/>
<polygon fill="#63b8ff" stroke="#63b8ff" points="407.08,-15.58 396.64,-17.38 405.92,-22.49 407.08,-15.58"/>
</a>
</g>
</g>
<!-- Node13&#45;&gt;Node6 -->
<g id="edge23_Node000013_Node000006" class="edge">
<title>Node13&#45;&gt;Node6</title>
<g id="a_edge23_Node000013_Node000006"><a xlink:title=" ">
<path fill="none" stroke="#63b8ff" d="M658.16,-55.03C616.75,-46.61 551.28,-33.21 485.38,-19.27"/>
<polygon fill="#63b8ff" stroke="#63b8ff" points="485.73,-15.77 475.23,-17.12 484.28,-22.62 485.73,-15.77"/>
</a>
</g>
</g>
<!-- Node13&#45;&gt;Node10 -->
<g id="edge25_Node000013_Node000010" class="edge">
<title>Node13&#45;&gt;Node10</title>
<g id="a_edge25_Node000013_Node000010"><a xlink:title=" ">
<path fill="none" stroke="#63b8ff" d="M671.24,-54.98C640.79,-45.97 592.58,-31.69 559.01,-21.75"/>
<polygon fill="#63b8ff" stroke="#63b8ff" points="559.68,-18.3 549.1,-18.82 557.69,-25.01 559.68,-18.3"/>
</a>
</g>
</g>
<!-- Node13&#45;&gt;Node11 -->
<g id="edge20_Node000013_Node000011" class="edge">
<title>Node13&#45;&gt;Node11</title>
<g id="a_edge20_Node000013_Node000011"><a xlink:title=" ">
<path fill="none" stroke="#63b8ff" d="M682.81,-54.98C665.75,-46.54 639.37,-33.47 619.6,-23.68"/>
<polygon fill="#63b8ff" stroke="#63b8ff" points="621.02,-20.47 610.5,-19.17 617.91,-26.75 621.02,-20.47"/>
</a>
</g>
</g>
<!-- Node14 -->
<g id="Node000014" class="node">
<title>Node14</title>
<g id="a_Node000014"><a xlink:title=" ">
<polygon fill="#e0e0e0" stroke="#999999" points="841,-19 777,-19 777,0 841,0 841,-19"/>
<text text-anchor="middle" x="809" y="-7" font-family="Helvetica,sans-Serif" font-size="10.00">algorithm</text>
</a>
</g>
</g>
<!-- Node13&#45;&gt;Node14 -->
<g id="edge17_Node000013_Node000014" class="edge">
<title>Node13&#45;&gt;Node14</title>
<g id="a_edge17_Node000013_Node000014"><a xlink:title=" ">
<path fill="none" stroke="#63b8ff" d="M717.51,-54.98C734.97,-46.5 762.01,-33.35 782.17,-23.54"/>
<polygon fill="#63b8ff" stroke="#63b8ff" points="783.71,-26.69 791.17,-19.17 780.64,-20.4 783.71,-26.69"/>
</a>
</g>
</g>
<!-- Node15 -->
<g id="Node000015" class="node">
<title>Node15</title>
<g id="a_Node000015"><a xlink:title=" ">
<polygon fill="#e0e0e0" stroke="#999999" points="908.5,-19 859.5,-19 859.5,0 908.5,0 908.5,-19"/>
<text text-anchor="middle" x="884" y="-7" font-family="Helvetica,sans-Serif" font-size="10.00">cctype</text>
</a>
</g>
</g>
<!-- Node13&#45;&gt;Node15 -->
<g id="edge18_Node000013_Node000015" class="edge">
<title>Node13&#45;&gt;Node15</title>
<g id="a_edge18_Node000013_Node000015"><a xlink:title=" ">
<path fill="none" stroke="#63b8ff" d="M729.56,-54.98C762.29,-45.56 814.99,-30.38 849.56,-20.42"/>
<polygon fill="#63b8ff" stroke="#63b8ff" points="850.59,-23.77 859.23,-17.63 848.65,-17.04 850.59,-23.77"/>
</a>
</g>
</g>
<!-- Node16 -->
<g id="Node000016" class="node">
<title>Node16</title>
<g id="a_Node000016"><a xlink:title=" ">
<polygon fill="#e0e0e0" stroke="#999999" points="977,-19 927,-19 927,0 977,0 977,-19"/>
<text text-anchor="middle" x="952" y="-7" font-family="Helvetica,sans-Serif" font-size="10.00">cstring</text>
</a>
</g>
</g>
<!-- Node13&#45;&gt;Node16 -->
<g id="edge19_Node000013_Node000016" class="edge">
<title>Node13&#45;&gt;Node16</title>
<g id="a_edge19_Node000013_Node000016"><a xlink:title=" ">
<path fill="none" stroke="#63b8ff" d="M741.5,-55.59C783.39,-47.48 850.16,-34.21 916.93,-19.17"/>
<polygon fill="#63b8ff" stroke="#63b8ff" points="917.8,-22.56 926.78,-16.94 916.25,-15.73 917.8,-22.56"/>
</a>
</g>
</g>
<!-- Node17 -->
<g id="Node000017" class="node">
<title>Node17</title>
<g id="a_Node000017"><a xlink:title=" ">
<polygon fill="#e0e0e0" stroke="#999999" points="1042.5,-19 995.5,-19 995.5,0 1042.5,0 1042.5,-19"/>
<text text-anchor="middle" x="1019" y="-7" font-family="Helvetica,sans-Serif" font-size="10.00">fcntl.h</text>
</a>
</g>
</g>
<!-- Node13&#45;&gt;Node17 -->
<g id="edge21_Node000013_Node000017" class="edge">
<title>Node13&#45;&gt;Node17</title>
<g id="a_edge21_Node000013_Node000017"><a xlink:title=" ">
<path fill="none" stroke="#63b8ff" d="M741.91,-58.28C795.94,-51.27 892.95,-37.72 985.47,-18.92"/>
<polygon fill="#63b8ff" stroke="#63b8ff" points="986.18,-22.35 995.27,-16.91 984.77,-15.49 986.18,-22.35"/>
</a>
</g>
</g>
<!-- Node18 -->
<g id="Node000018" class="node">
<title>Node18</title>
<g id="a_Node000018"><a xlink:title=" ">
<polygon fill="#e0e0e0" stroke="#999999" points="1115.5,-19 1060.5,-19 1060.5,0 1115.5,0 1115.5,-19"/>
<text text-anchor="middle" x="1088" y="-7" font-family="Helvetica,sans-Serif" font-size="10.00">fstream</text>
</a>
</g>
</g>
<!-- Node13&#45;&gt;Node18 -->
<g id="edge22_Node000013_Node000018" class="edge">
<title>Node13&#45;&gt;Node18</title>
<g id="a_edge22_Node000013_Node000018"><a xlink:title=" ">
<path fill="none" stroke="#63b8ff" d="M741.67,-59.68C805.91,-53.47 933.15,-39.93 1049.97,-19.21"/>
<polygon fill="#63b8ff" stroke="#63b8ff" points="1050.93,-22.6 1060.15,-17.38 1049.69,-15.71 1050.93,-22.6"/>
</a>
</g>
</g>
<!-- Node19 -->
<g id="Node000019" class="node">
<title>Node19</title>
<g id="a_Node000019"><a xlink:title=" ">
<polygon fill="#e0e0e0" stroke="#999999" points="693,-19 637,-19 637,0 693,0 693,-19"/>
<text text-anchor="middle" x="665" y="-7" font-family="Helvetica,sans-Serif" font-size="10.00">sstream</text>
</a>
</g>
</g>
<!-- Node13&#45;&gt;Node19 -->
<g id="edge24_Node000013_Node000019" class="edge">
<title>Node13&#45;&gt;Node19</title>
<g id="a_edge24_Node000013_Node000019"><a xlink:title=" ">
<path fill="none" stroke="#63b8ff" d="M694.22,-54.75C689.38,-47.42 682.32,-36.73 676.36,-27.7"/>
<polygon fill="#63b8ff" stroke="#63b8ff" points="679.1,-25.5 670.67,-19.09 673.26,-29.36 679.1,-25.5"/>
</a>
</g>
</g>
<!-- Node20 -->
<g id="Node000020" class="node">
<title>Node20</title>
<g id="a_Node000020"><a xlink:title=" ">
<polygon fill="#e0e0e0" stroke="#999999" points="758.5,-19 711.5,-19 711.5,0 758.5,0 758.5,-19"/>
<text text-anchor="middle" x="735" y="-7" font-family="Helvetica,sans-Serif" font-size="10.00">vector</text>
</a>
</g>
</g>
<!-- Node13&#45;&gt;Node20 -->
<g id="edge26_Node000013_Node000020" class="edge">
<title>Node13&#45;&gt;Node20</title>
<g id="a_edge26_Node000013_Node000020"><a xlink:title=" ">
<path fill="none" stroke="#63b8ff" d="M705.78,-54.75C710.62,-47.42 717.68,-36.73 723.64,-27.7"/>
<polygon fill="#63b8ff" stroke="#63b8ff" points="726.74,-29.36 729.33,-19.09 720.9,-25.5 726.74,-29.36"/>
</a>
</g>
</g>
</g>
</svg>
