<?xml version="1.0" encoding="UTF-8" standalone="no"?>
<!DOCTYPE svg PUBLIC "-//W3C//DTD SVG 1.1//EN"
 "http://www.w3.org/Graphics/SVG/1.1/DTD/svg11.dtd">
<!-- Generated by graphviz version 2.43.0 (0)
 -->
<!-- Title: include/kernel/ConnectionHandler.hpp Pages: 1 -->
<svg width="473pt" height="214pt"
 viewBox="0.00 0.00 473.00 214.00" xmlns="http://www.w3.org/2000/svg" xmlns:xlink="http://www.w3.org/1999/xlink">
<g id="graph0" class="graph" transform="scale(1 1) rotate(0) translate(4 210)">
<title>include/kernel/ConnectionHandler.hpp</title>
<!-- Node1 -->
<g id="Node000001" class="node">
<title>Node1</title>
<g id="a_Node000001"><a xlink:title=" ">
<polygon fill="#999999" stroke="#666666" points="368.5,-206 225.5,-206 225.5,-176 368.5,-176 368.5,-206"/>
<text text-anchor="start" x="233.5" y="-194" font-family="Helvetica,sans-Serif" font-size="10.00">include/kernel/Connection</text>
<text text-anchor="middle" x="297" y="-183" font-family="Helvetica,sans-Serif" font-size="10.00">Handler.hpp</text>
</a>
</g>
</g>
<!-- Node2 -->
<g id="Node000002" class="node">
<title>Node2</title>
<g id="a_Node000002"><a xlink:href="Acceptor_8hpp.html" target="_top" xlink:title=" ">
<polygon fill="white" stroke="#666666" points="268.5,-134.5 117.5,-134.5 117.5,-115.5 268.5,-115.5 268.5,-134.5"/>
<text text-anchor="middle" x="193" y="-122.5" font-family="Helvetica,sans-Serif" font-size="10.00">include/kernel/Acceptor.hpp</text>
</a>
</g>
</g>
<!-- Node1&#45;&gt;Node2 -->
<g id="edge1_Node000001_Node000002" class="edge">
<title>Node1&#45;&gt;Node2</title>
<g id="a_edge1_Node000001_Node000002"><a xlink:title=" ">
<path fill="none" stroke="#63b8ff" d="M265.55,-170.65C245.97,-158.6 221.75,-143.69 206.84,-134.52"/>
<polygon fill="#63b8ff" stroke="#63b8ff" points="263.83,-173.69 274.18,-175.95 267.49,-167.73 263.83,-173.69"/>
</a>
</g>
</g>
<!-- Node6 -->
<g id="Node000006" class="node">
<title>Node6</title>
<g id="a_Node000006"><a xlink:href="Acceptor_8cpp.html" target="_top" xlink:title=" ">
<polygon fill="white" stroke="#666666" points="370.5,-74 223.5,-74 223.5,-55 370.5,-55 370.5,-74"/>
<text text-anchor="middle" x="297" y="-62" font-family="Helvetica,sans-Serif" font-size="10.00">source/kernel/Acceptor.cpp</text>
</a>
</g>
</g>
<!-- Node1&#45;&gt;Node6 -->
<g id="edge6_Node000001_Node000006" class="edge">
<title>Node1&#45;&gt;Node6</title>
<g id="a_edge6_Node000001_Node000006"><a xlink:title=" ">
<path fill="none" stroke="#63b8ff" d="M297,-165.48C297,-137.34 297,-92.67 297,-74.07"/>
<polygon fill="#63b8ff" stroke="#63b8ff" points="293.5,-165.72 297,-175.72 300.5,-165.72 293.5,-165.72"/>
</a>
</g>
</g>
<!-- Node7 -->
<g id="Node000007" class="node">
<title>Node7</title>
<g id="a_Node000007"><a xlink:href="ConnectionHandler_8cpp.html" target="_top" xlink:title=" ">
<polygon fill="white" stroke="#666666" points="465,-140 325,-140 325,-110 465,-110 465,-140"/>
<text text-anchor="start" x="333" y="-128" font-family="Helvetica,sans-Serif" font-size="10.00">source/kernel/Connection</text>
<text text-anchor="middle" x="395" y="-117" font-family="Helvetica,sans-Serif" font-size="10.00">Handler.cpp</text>
</a>
</g>
</g>
<!-- Node1&#45;&gt;Node7 -->
<g id="edge7_Node000001_Node000007" class="edge">
<title>Node1&#45;&gt;Node7</title>
<g id="a_edge7_Node000001_Node000007"><a xlink:title=" ">
<path fill="none" stroke="#63b8ff" d="M327.16,-170.3C342.08,-160.56 359.75,-149.02 373.31,-140.16"/>
<polygon fill="#63b8ff" stroke="#63b8ff" points="325.21,-167.4 318.75,-175.8 329.04,-173.26 325.21,-167.4"/>
</a>
</g>
</g>
<!-- Node3 -->
<g id="Node000003" class="node">
<title>Node3</title>
<g id="a_Node000003"><a xlink:href="Kernel_8hpp.html" target="_top" xlink:title=" ">
<polygon fill="white" stroke="#666666" points="205,-74 65,-74 65,-55 205,-55 205,-74"/>
<text text-anchor="middle" x="135" y="-62" font-family="Helvetica,sans-Serif" font-size="10.00">include/kernel/Kernel.hpp</text>
</a>
</g>
</g>
<!-- Node2&#45;&gt;Node3 -->
<g id="edge2_Node000002_Node000003" class="edge">
<title>Node2&#45;&gt;Node3</title>
<g id="a_edge2_Node000002_Node000003"><a xlink:title=" ">
<path fill="none" stroke="#63b8ff" d="M177.23,-108.09C166.4,-97.17 152.43,-83.08 143.59,-74.17"/>
<polygon fill="#63b8ff" stroke="#63b8ff" points="174.92,-110.73 184.44,-115.37 179.89,-105.8 174.92,-110.73"/>
</a>
</g>
</g>
<!-- Node2&#45;&gt;Node6 -->
<g id="edge5_Node000002_Node000006" class="edge">
<title>Node2&#45;&gt;Node6</title>
<g id="a_edge5_Node000002_Node000006"><a xlink:title=" ">
<path fill="none" stroke="#63b8ff" d="M217.14,-110.42C237.01,-99.24 264.59,-83.73 281.59,-74.17"/>
<polygon fill="#63b8ff" stroke="#63b8ff" points="215.35,-107.41 208.35,-115.37 218.78,-113.52 215.35,-107.41"/>
</a>
</g>
</g>
<!-- Node4 -->
<g id="Node000004" class="node">
<title>Node4</title>
<g id="a_Node000004"><a xlink:href="Kernel_8cpp.html" target="_top" xlink:title=" ">
<polygon fill="white" stroke="#666666" points="136,-19 0,-19 0,0 136,0 136,-19"/>
<text text-anchor="middle" x="68" y="-7" font-family="Helvetica,sans-Serif" font-size="10.00">source/kernel/Kernel.cpp</text>
</a>
</g>
</g>
<!-- Node3&#45;&gt;Node4 -->
<g id="edge3_Node000003_Node000004" class="edge">
<title>Node3&#45;&gt;Node4</title>
<g id="a_edge3_Node000003_Node000004"><a xlink:title=" ">
<path fill="none" stroke="#63b8ff" d="M116.17,-48.6C104.16,-39.11 89.03,-27.13 78.96,-19.17"/>
<polygon fill="#63b8ff" stroke="#63b8ff" points="114.22,-51.53 124.24,-54.98 118.56,-46.04 114.22,-51.53"/>
</a>
</g>
</g>
<!-- Node5 -->
<g id="Node000005" class="node">
<title>Node5</title>
<g id="a_Node000005"><a xlink:href="main_8cpp.html" target="_top" xlink:title=" ">
<polygon fill="white" stroke="#666666" points="251.5,-19 154.5,-19 154.5,0 251.5,0 251.5,-19"/>
<text text-anchor="middle" x="203" y="-7" font-family="Helvetica,sans-Serif" font-size="10.00">source/main.cpp</text>
</a>
</g>
</g>
<!-- Node3&#45;&gt;Node5 -->
<g id="edge4_Node000003_Node000005" class="edge">
<title>Node3&#45;&gt;Node5</title>
<g id="a_edge4_Node000003_Node000005"><a xlink:title=" ">
<path fill="none" stroke="#63b8ff" d="M154.12,-48.6C166.3,-39.11 181.66,-27.13 191.88,-19.17"/>
<polygon fill="#63b8ff" stroke="#63b8ff" points="151.66,-46.08 145.93,-54.98 155.96,-51.6 151.66,-46.08"/>
</a>
</g>
</g>
</g>
</svg>
