<?xml version="1.0" encoding="UTF-8" standalone="no"?>
<!DOCTYPE svg PUBLIC "-//W3C//DTD SVG 1.1//EN"
 "http://www.w3.org/Graphics/SVG/1.1/DTD/svg11.dtd">
<!-- Generated by graphviz version 2.43.0 (0)
 -->
<!-- Title: include/defines.hpp Pages: 1 -->
<svg width="1922pt" height="522pt"
 viewBox="0.00 0.00 1922.03 522.00" xmlns="http://www.w3.org/2000/svg" xmlns:xlink="http://www.w3.org/1999/xlink">
<g id="graph0" class="graph" transform="scale(1 1) rotate(0) translate(4 518)">
<title>include/defines.hpp</title>
<!-- Node1 -->
<g id="Node000001" class="node">
<title>Node1</title>
<g id="a_Node000001"><a xlink:title=" ">
<polygon fill="#999999" stroke="#666666" points="909.5,-514 798.5,-514 798.5,-495 909.5,-495 909.5,-514"/>
<text text-anchor="middle" x="854" y="-502" font-family="Helvetica,sans-Serif" font-size="10.00">include/defines.hpp</text>
</a>
</g>
</g>
<!-- Node2 -->
<g id="Node000002" class="node">
<title>Node2</title>
<g id="a_Node000002"><a xlink:href="AConfigParser_8hpp.html" target="_top" xlink:title=" ">
<polygon fill="white" stroke="#666666" points="749.5,-332.5 574.5,-332.5 574.5,-313.5 749.5,-313.5 749.5,-332.5"/>
<text text-anchor="middle" x="662" y="-320.5" font-family="Helvetica,sans-Serif" font-size="10.00">include/config/AConfigParser.hpp</text>
</a>
</g>
</g>
<!-- Node1&#45;&gt;Node2 -->
<g id="edge1_Node000001_Node000002" class="edge">
<title>Node1&#45;&gt;Node2</title>
<g id="a_edge1_Node000001_Node000002"><a xlink:title=" ">
<path fill="none" stroke="#63b8ff" d="M788.19,-493.45C736.23,-481.69 667.01,-456.62 633,-404 617.76,-380.43 641.12,-347.78 654.17,-332.51"/>
<polygon fill="#63b8ff" stroke="#63b8ff" points="787.49,-496.89 798,-495.57 788.96,-490.04 787.49,-496.89"/>
</a>
</g>
</g>
<!-- Node4 -->
<g id="Node000004" class="node">
<title>Node4</title>
<g id="a_Node000004"><a xlink:href="Config_8hpp.html" target="_top" xlink:title=" ">
<polygon fill="white" stroke="#666666" points="495.5,-134.5 356.5,-134.5 356.5,-115.5 495.5,-115.5 495.5,-134.5"/>
<text text-anchor="middle" x="426" y="-122.5" font-family="Helvetica,sans-Serif" font-size="10.00">include/config/Config.hpp</text>
</a>
</g>
</g>
<!-- Node1&#45;&gt;Node4 -->
<g id="edge21_Node000001_Node000004" class="edge">
<title>Node1&#45;&gt;Node4</title>
<g id="a_edge21_Node000001_Node000004"><a xlink:title=" ">
<path fill="none" stroke="#63b8ff" d="M788.03,-501.44C655.71,-496.82 362.29,-484.05 265,-459 193.54,-440.6 114,-463.79 114,-390 114,-390 114,-390 114,-256 114,-151.7 264.42,-129.56 356.37,-125.78"/>
<polygon fill="#63b8ff" stroke="#63b8ff" points="788.3,-504.95 798.41,-501.8 788.54,-497.95 788.3,-504.95"/>
</a>
</g>
</g>
<!-- Node5 -->
<g id="Node000005" class="node">
<title>Node5</title>
<g id="a_Node000005"><a xlink:href="Kernel_8hpp.html" target="_top" xlink:title=" ">
<polygon fill="white" stroke="#666666" points="810,-74 670,-74 670,-55 810,-55 810,-74"/>
<text text-anchor="middle" x="740" y="-62" font-family="Helvetica,sans-Serif" font-size="10.00">include/kernel/Kernel.hpp</text>
</a>
</g>
</g>
<!-- Node1&#45;&gt;Node5 -->
<g id="edge30_Node000001_Node000005" class="edge">
<title>Node1&#45;&gt;Node5</title>
<g id="a_edge30_Node000001_Node000005"><a xlink:title=" ">
<path fill="none" stroke="#63b8ff" d="M788.42,-502.12C623.35,-498.25 199.69,-485.81 142,-459 103.52,-441.12 76,-432.44 76,-390 76,-390 76,-390 76,-190 76,-130.07 499.2,-86.48 669.88,-71.34"/>
<polygon fill="#63b8ff" stroke="#63b8ff" points="788.37,-505.62 798.45,-502.35 788.53,-498.62 788.37,-505.62"/>
</a>
</g>
</g>
<!-- Node6 -->
<g id="Node000006" class="node">
<title>Node6</title>
<g id="a_Node000006"><a xlink:href="Kernel_8cpp.html" target="_top" xlink:title=" ">
<polygon fill="white" stroke="#666666" points="1002,-19 866,-19 866,0 1002,0 1002,-19"/>
<text text-anchor="middle" x="934" y="-7" font-family="Helvetica,sans-Serif" font-size="10.00">source/kernel/Kernel.cpp</text>
</a>
</g>
</g>
<!-- Node1&#45;&gt;Node6 -->
<g id="edge68_Node000001_Node000006" class="edge">
<title>Node1&#45;&gt;Node6</title>
<g id="a_edge68_Node000001_Node000006"><a xlink:title=" ">
<path fill="none" stroke="#63b8ff" d="M919.77,-503.85C1099.9,-504.25 1598.27,-501.37 1756,-459 1820.69,-441.62 1890,-456.99 1890,-390 1890,-390 1890,-390 1890,-124 1890,-98.84 2003.53,-116.19 1730,-55 1592.23,-24.18 1168.56,-14.22 1002.13,-11.45"/>
<polygon fill="#63b8ff" stroke="#63b8ff" points="919.66,-500.35 909.65,-503.83 919.64,-507.35 919.66,-500.35"/>
</a>
</g>
</g>
<!-- Node7 -->
<g id="Node000007" class="node">
<title>Node7</title>
<g id="a_Node000007"><a xlink:href="main_8cpp.html" target="_top" xlink:title=" ">
<polygon fill="white" stroke="#666666" points="570.5,-19 473.5,-19 473.5,0 570.5,0 570.5,-19"/>
<text text-anchor="middle" x="522" y="-7" font-family="Helvetica,sans-Serif" font-size="10.00">source/main.cpp</text>
</a>
</g>
</g>
<!-- Node1&#45;&gt;Node7 -->
<g id="edge70_Node000001_Node000007" class="edge">
<title>Node1&#45;&gt;Node7</title>
<g id="a_edge70_Node000001_Node000007"><a xlink:title=" ">
<path fill="none" stroke="#63b8ff" d="M788.25,-502.67C610.02,-500.02 126.63,-490.02 62,-459 24.83,-441.16 0,-431.23 0,-390 0,-390 0,-390 0,-124 0,-27.66 343.77,-12.94 473.36,-10.81"/>
<polygon fill="#63b8ff" stroke="#63b8ff" points="788.23,-506.17 798.28,-502.82 788.34,-499.17 788.23,-506.17"/>
</a>
</g>
</g>
<!-- Node8 -->
<g id="Node000008" class="node">
<title>Node8</title>
<g id="a_Node000008"><a xlink:href="Config_8cpp.html" target="_top" xlink:title=" ">
<polygon fill="white" stroke="#666666" points="589.5,-74 454.5,-74 454.5,-55 589.5,-55 589.5,-74"/>
<text text-anchor="middle" x="522" y="-62" font-family="Helvetica,sans-Serif" font-size="10.00">source/config/Config.cpp</text>
</a>
</g>
</g>
<!-- Node1&#45;&gt;Node8 -->
<g id="edge63_Node000001_Node000008" class="edge">
<title>Node1&#45;&gt;Node8</title>
<g id="a_edge63_Node000001_Node000008"><a xlink:title=" ">
<path fill="none" stroke="#63b8ff" d="M788.17,-502.47C615.94,-499.36 161.11,-488.43 100,-459 62.86,-441.11 38,-431.23 38,-390 38,-390 38,-390 38,-190 38,-105.03 321.35,-77.2 454.45,-68.82"/>
<polygon fill="#63b8ff" stroke="#63b8ff" points="788.3,-505.97 798.36,-502.65 788.43,-498.97 788.3,-505.97"/>
</a>
</g>
</g>
<!-- Node10 -->
<g id="Node000010" class="node">
<title>Node10</title>
<g id="a_Node000010"><a xlink:href="ConfigHttpBlock_8hpp.html" target="_top" xlink:title=" ">
<polygon fill="white" stroke="#666666" points="319.5,-272 180.5,-272 180.5,-242 319.5,-242 319.5,-272"/>
<text text-anchor="start" x="188.5" y="-260" font-family="Helvetica,sans-Serif" font-size="10.00">include/config/ConfigHttp</text>
<text text-anchor="middle" x="250" y="-249" font-family="Helvetica,sans-Serif" font-size="10.00">Block.hpp</text>
</a>
</g>
</g>
<!-- Node1&#45;&gt;Node10 -->
<g id="edge22_Node000001_Node000010" class="edge">
<title>Node1&#45;&gt;Node10</title>
<g id="a_edge22_Node000001_Node000010"><a xlink:title=" ">
<path fill="none" stroke="#63b8ff" d="M788.5,-498.75C731.3,-493.26 646.63,-481.86 576,-459 444.42,-416.41 311.45,-310.34 266.21,-272.06"/>
<polygon fill="#63b8ff" stroke="#63b8ff" points="788.21,-502.24 798.49,-499.68 788.86,-495.27 788.21,-502.24"/>
</a>
</g>
</g>
<!-- Node11 -->
<g id="Node000011" class="node">
<title>Node11</title>
<g id="a_Node000011"><a xlink:href="ConfigHttpBlock_8cpp.html" target="_top" xlink:title=" ">
<polygon fill="white" stroke="#666666" points="380,-206 244,-206 244,-176 380,-176 380,-206"/>
<text text-anchor="start" x="252" y="-194" font-family="Helvetica,sans-Serif" font-size="10.00">source/config/ConfigHttp</text>
<text text-anchor="middle" x="312" y="-183" font-family="Helvetica,sans-Serif" font-size="10.00">Block.cpp</text>
</a>
</g>
</g>
<!-- Node1&#45;&gt;Node11 -->
<g id="edge64_Node000001_Node000011" class="edge">
<title>Node1&#45;&gt;Node11</title>
<g id="a_edge64_Node000001_Node000011"><a xlink:title=" ">
<path fill="none" stroke="#63b8ff" d="M788.25,-499.74C613.71,-488.87 152,-454.08 152,-390 152,-390 152,-390 152,-322 152,-285.35 147.39,-269.15 172,-242 190.55,-221.54 218.05,-209.45 243.78,-202.3"/>
<polygon fill="#63b8ff" stroke="#63b8ff" points="788.13,-503.24 798.33,-500.36 788.56,-496.25 788.13,-503.24"/>
</a>
</g>
</g>
<!-- Node12 -->
<g id="Node000012" class="node">
<title>Node12</title>
<g id="a_Node000012"><a xlink:href="ConfigLocationBlock_8hpp.html" target="_top" xlink:title=" ">
<polygon fill="white" stroke="#666666" points="1078.5,-272 919.5,-272 919.5,-242 1078.5,-242 1078.5,-272"/>
<text text-anchor="start" x="927.5" y="-260" font-family="Helvetica,sans-Serif" font-size="10.00">include/config/ConfigLocation</text>
<text text-anchor="middle" x="999" y="-249" font-family="Helvetica,sans-Serif" font-size="10.00">Block.hpp</text>
</a>
</g>
</g>
<!-- Node1&#45;&gt;Node12 -->
<g id="edge23_Node000001_Node000012" class="edge">
<title>Node1&#45;&gt;Node12</title>
<g id="a_edge23_Node000001_Node000012"><a xlink:title=" ">
<path fill="none" stroke="#63b8ff" d="M920,-500.99C960.85,-496.6 1012.63,-485.63 1051,-459 1075,-442.34 1078.65,-432 1087,-404 1102.9,-350.68 1047.99,-296.94 1017.69,-272.15"/>
<polygon fill="#63b8ff" stroke="#63b8ff" points="919.49,-497.52 909.87,-501.97 920.16,-504.49 919.49,-497.52"/>
</a>
</g>
</g>
<!-- Node14 -->
<g id="Node000014" class="node">
<title>Node14</title>
<g id="a_Node000014"><a xlink:href="ConfigServerBlock_8cpp.html" target="_top" xlink:title=" ">
<polygon fill="white" stroke="#666666" points="1215,-140 1069,-140 1069,-110 1215,-110 1215,-140"/>
<text text-anchor="start" x="1077" y="-128" font-family="Helvetica,sans-Serif" font-size="10.00">source/config/ConfigServer</text>
<text text-anchor="middle" x="1142" y="-117" font-family="Helvetica,sans-Serif" font-size="10.00">Block.cpp</text>
</a>
</g>
</g>
<!-- Node1&#45;&gt;Node14 -->
<g id="edge66_Node000001_Node000014" class="edge">
<title>Node1&#45;&gt;Node14</title>
<g id="a_edge66_Node000001_Node000014"><a xlink:title=" ">
<path fill="none" stroke="#63b8ff" d="M919.96,-502.05C1107.48,-497.67 1634.88,-483.29 1709,-459 1762.06,-441.61 1814,-445.84 1814,-390 1814,-390 1814,-390 1814,-322 1814,-234.22 1761.72,-210.49 1681,-176 1599.01,-140.97 1342.44,-130.4 1215.14,-127.27"/>
<polygon fill="#63b8ff" stroke="#63b8ff" points="919.61,-498.56 909.7,-502.29 919.78,-505.56 919.61,-498.56"/>
</a>
</g>
</g>
<!-- Node15 -->
<g id="Node000015" class="node">
<title>Node15</title>
<g id="a_Node000015"><a xlink:href="ConfigLocationBlock_8cpp.html" target="_top" xlink:title=" ">
<polygon fill="white" stroke="#666666" points="1220,-206 1064,-206 1064,-176 1220,-176 1220,-206"/>
<text text-anchor="start" x="1072" y="-194" font-family="Helvetica,sans-Serif" font-size="10.00">source/config/ConfigLocation</text>
<text text-anchor="middle" x="1142" y="-183" font-family="Helvetica,sans-Serif" font-size="10.00">Block.cpp</text>
</a>
</g>
</g>
<!-- Node1&#45;&gt;Node15 -->
<g id="edge65_Node000001_Node000015" class="edge">
<title>Node1&#45;&gt;Node15</title>
<g id="a_edge65_Node000001_Node000015"><a xlink:title=" ">
<path fill="none" stroke="#63b8ff" d="M920.15,-499.33C1042.08,-487.55 1298.76,-442.66 1397,-272 1403.65,-260.44 1405.47,-252.3 1397,-242 1374.85,-215.09 1286.56,-202.45 1220.03,-196.66"/>
<polygon fill="#63b8ff" stroke="#63b8ff" points="919.48,-495.88 909.84,-500.28 920.12,-502.85 919.48,-495.88"/>
</a>
</g>
</g>
<!-- Node16 -->
<g id="Node000016" class="node">
<title>Node16</title>
<g id="a_Node000016"><a xlink:href="AConfigParser_8cpp.html" target="_top" xlink:title=" ">
<polygon fill="white" stroke="#666666" points="508.5,-266.5 337.5,-266.5 337.5,-247.5 508.5,-247.5 508.5,-266.5"/>
<text text-anchor="middle" x="423" y="-254.5" font-family="Helvetica,sans-Serif" font-size="10.00">source/config/AConfigParser.cpp</text>
</a>
</g>
</g>
<!-- Node1&#45;&gt;Node16 -->
<g id="edge62_Node000001_Node000016" class="edge">
<title>Node1&#45;&gt;Node16</title>
<g id="a_edge62_Node000001_Node000016"><a xlink:title=" ">
<path fill="none" stroke="#63b8ff" d="M788.22,-497.43C741.83,-491.53 678.96,-480.21 627,-459 536.39,-422 499.63,-417.83 443,-338 427.18,-315.7 423.83,-282.14 423.15,-266.54"/>
<polygon fill="#63b8ff" stroke="#63b8ff" points="787.81,-500.9 798.16,-498.64 788.66,-493.96 787.81,-500.9"/>
</a>
</g>
</g>
<!-- Node17 -->
<g id="Node000017" class="node">
<title>Node17</title>
<g id="a_Node000017"><a xlink:href="ConnectionHandler_8hpp.html" target="_top" xlink:title=" ">
<polygon fill="white" stroke="#666666" points="1525.5,-338 1382.5,-338 1382.5,-308 1525.5,-308 1525.5,-338"/>
<text text-anchor="start" x="1390.5" y="-326" font-family="Helvetica,sans-Serif" font-size="10.00">include/kernel/Connection</text>
<text text-anchor="middle" x="1454" y="-315" font-family="Helvetica,sans-Serif" font-size="10.00">Handler.hpp</text>
</a>
</g>
</g>
<!-- Node1&#45;&gt;Node17 -->
<g id="edge24_Node000001_Node000017" class="edge">
<title>Node1&#45;&gt;Node17</title>
<g id="a_edge24_Node000001_Node000017"><a xlink:title=" ">
<path fill="none" stroke="#63b8ff" d="M919.87,-503.94C1036.96,-503.69 1275.83,-498.19 1348,-459 1399.33,-431.13 1434.19,-366.8 1447.72,-338.18"/>
<polygon fill="#63b8ff" stroke="#63b8ff" points="919.6,-500.44 909.6,-503.95 919.61,-507.44 919.6,-500.44"/>
</a>
</g>
</g>
<!-- Node19 -->
<g id="Node000019" class="node">
<title>Node19</title>
<g id="a_Node000019"><a xlink:href="Acceptor_8cpp.html" target="_top" xlink:title=" ">
<polygon fill="white" stroke="#666666" points="1473.5,-200.5 1326.5,-200.5 1326.5,-181.5 1473.5,-181.5 1473.5,-200.5"/>
<text text-anchor="middle" x="1400" y="-188.5" font-family="Helvetica,sans-Serif" font-size="10.00">source/kernel/Acceptor.cpp</text>
</a>
</g>
</g>
<!-- Node1&#45;&gt;Node19 -->
<g id="edge67_Node000001_Node000019" class="edge">
<title>Node1&#45;&gt;Node19</title>
<g id="a_edge67_Node000001_Node000019"><a xlink:title=" ">
<path fill="none" stroke="#63b8ff" d="M919.58,-502.18C1102.85,-498.16 1608.65,-484.78 1633,-459 1662.84,-427.4 1600.85,-430.79 1578,-404 1547.66,-368.43 1562.96,-345.47 1535,-308 1499.15,-259.95 1440.11,-218.11 1413.61,-200.66"/>
<polygon fill="#63b8ff" stroke="#63b8ff" points="919.46,-498.68 909.53,-502.39 919.61,-505.68 919.46,-498.68"/>
</a>
</g>
</g>
<!-- Node21 -->
<g id="Node000021" class="node">
<title>Node21</title>
<g id="a_Node000021"><a xlink:href="Reactor_8hpp.html" target="_top" xlink:title=" ">
<polygon fill="white" stroke="#666666" points="1733,-398.5 1587,-398.5 1587,-379.5 1733,-379.5 1733,-398.5"/>
<text text-anchor="middle" x="1660" y="-386.5" font-family="Helvetica,sans-Serif" font-size="10.00">include/kernel/Reactor.hpp</text>
</a>
</g>
</g>
<!-- Node1&#45;&gt;Node21 -->
<g id="edge31_Node000001_Node000021" class="edge">
<title>Node1&#45;&gt;Node21</title>
<g id="a_edge31_Node000001_Node000021"><a xlink:title=" ">
<path fill="none" stroke="#63b8ff" d="M920.21,-500.7C1042.59,-495.08 1299.61,-481.04 1386,-459 1406.25,-453.84 1409.13,-446.47 1429,-440 1488.11,-420.76 1558.16,-406.78 1605.5,-398.58"/>
<polygon fill="#63b8ff" stroke="#63b8ff" points="919.69,-497.22 909.86,-501.17 920.01,-504.22 919.69,-497.22"/>
</a>
</g>
</g>
<!-- Node22 -->
<g id="Node000022" class="node">
<title>Node22</title>
<g id="a_Node000022"><a xlink:href="Reactor_8cpp.html" target="_top" xlink:title=" ">
<polygon fill="white" stroke="#666666" points="1672,-200.5 1530,-200.5 1530,-181.5 1672,-181.5 1672,-200.5"/>
<text text-anchor="middle" x="1601" y="-188.5" font-family="Helvetica,sans-Serif" font-size="10.00">source/kernel/Reactor.cpp</text>
</a>
</g>
</g>
<!-- Node1&#45;&gt;Node22 -->
<g id="edge69_Node000001_Node000022" class="edge">
<title>Node1&#45;&gt;Node22</title>
<g id="a_edge69_Node000001_Node000022"><a xlink:title=" ">
<path fill="none" stroke="#63b8ff" d="M919.75,-503.55C1084.88,-503.08 1513.54,-498.01 1650,-459 1711.39,-441.45 1776,-453.85 1776,-390 1776,-390 1776,-390 1776,-322 1776,-252.36 1685.59,-215.67 1634.74,-200.54"/>
<polygon fill="#63b8ff" stroke="#63b8ff" points="919.72,-500.05 909.73,-503.57 919.74,-507.05 919.72,-500.05"/>
</a>
</g>
</g>
<!-- Node23 -->
<g id="Node000023" class="node">
<title>Node23</title>
<g id="a_Node000023"><a xlink:href="AHeaderAnalyzer_8hpp.html" target="_top" xlink:title=" ">
<polygon fill="white" stroke="#666666" points="1624,-459 1438,-459 1438,-440 1624,-440 1624,-459"/>
<text text-anchor="middle" x="1531" y="-447" font-family="Helvetica,sans-Serif" font-size="10.00">include/shell/AHeaderAnalyzer.hpp</text>
</a>
</g>
</g>
<!-- Node1&#45;&gt;Node23 -->
<g id="edge37_Node000001_Node000023" class="edge">
<title>Node1&#45;&gt;Node23</title>
<g id="a_edge37_Node000001_Node000023"><a xlink:title=" ">
<path fill="none" stroke="#63b8ff" d="M920.07,-498.37C1026.28,-490.12 1241.57,-473.37 1424,-459 1428.55,-458.64 1433.21,-458.27 1437.92,-457.9"/>
<polygon fill="#63b8ff" stroke="#63b8ff" points="919.53,-494.9 909.83,-499.17 920.07,-501.88 919.53,-494.9"/>
</a>
</g>
</g>
<!-- Node24 -->
<g id="Node000024" class="node">
<title>Node24</title>
<g id="a_Node000024"><a xlink:href="Logger_8hpp.html" target="_top" xlink:title=" ">
<polygon fill="white" stroke="#666666" points="864,-266.5 732,-266.5 732,-247.5 864,-247.5 864,-266.5"/>
<text text-anchor="middle" x="798" y="-254.5" font-family="Helvetica,sans-Serif" font-size="10.00">include/utils/Logger.hpp</text>
</a>
</g>
</g>
<!-- Node1&#45;&gt;Node24 -->
<g id="edge38_Node000001_Node000024" class="edge">
<title>Node1&#45;&gt;Node24</title>
<g id="a_edge38_Node000001_Node000024"><a xlink:title=" ">
<path fill="none" stroke="#63b8ff" d="M849.73,-484.79C838.42,-435.21 808,-301.86 799.97,-266.63"/>
<polygon fill="#63b8ff" stroke="#63b8ff" points="846.37,-485.79 852.01,-494.76 853.2,-484.23 846.37,-485.79"/>
</a>
</g>
</g>
<!-- Node26 -->
<g id="Node000026" class="node">
<title>Node26</title>
<g id="a_Node000026"><a xlink:href="config__utils_8hpp.html" target="_top" xlink:title=" ">
<polygon fill="white" stroke="#666666" points="750,-404 642,-404 642,-374 750,-374 750,-404"/>
<text text-anchor="start" x="650" y="-392" font-family="Helvetica,sans-Serif" font-size="10.00">include/utils/config</text>
<text text-anchor="middle" x="696" y="-381" font-family="Helvetica,sans-Serif" font-size="10.00">_utils.hpp</text>
</a>
</g>
</g>
<!-- Node1&#45;&gt;Node26 -->
<g id="edge49_Node000001_Node000026" class="edge">
<title>Node1&#45;&gt;Node26</title>
<g id="a_edge49_Node000001_Node000026"><a xlink:title=" ">
<path fill="none" stroke="#63b8ff" d="M833.95,-489.1C803.52,-467.24 746,-425.92 715.74,-404.18"/>
<polygon fill="#63b8ff" stroke="#63b8ff" points="831.96,-491.98 842.12,-494.97 836.04,-486.29 831.96,-491.98"/>
</a>
</g>
</g>
<!-- Node27 -->
<g id="Node000027" class="node">
<title>Node27</title>
<g id="a_Node000027"><a xlink:href="config__utils_8cpp.html" target="_top" xlink:title=" ">
<polygon fill="white" stroke="#666666" points="556.5,-338 451.5,-338 451.5,-308 556.5,-308 556.5,-338"/>
<text text-anchor="start" x="459.5" y="-326" font-family="Helvetica,sans-Serif" font-size="10.00">source/utils/config</text>
<text text-anchor="middle" x="504" y="-315" font-family="Helvetica,sans-Serif" font-size="10.00">_utils.cpp</text>
</a>
</g>
</g>
<!-- Node1&#45;&gt;Node27 -->
<g id="edge71_Node000001_Node000027" class="edge">
<title>Node1&#45;&gt;Node27</title>
<g id="a_edge71_Node000001_Node000027"><a xlink:title=" ">
<path fill="none" stroke="#63b8ff" d="M788.15,-496.02C750.06,-489.81 702.08,-478.68 663,-459 600.25,-427.41 541.3,-366.17 516.42,-338.36"/>
<polygon fill="#63b8ff" stroke="#63b8ff" points="787.7,-499.49 798.12,-497.57 788.77,-492.58 787.7,-499.49"/>
</a>
</g>
</g>
<!-- Node28 -->
<g id="Node000028" class="node">
<title>Node28</title>
<g id="a_Node000028"><a xlink:href="utils_8hpp.html" target="_top" xlink:title=" ">
<polygon fill="white" stroke="#666666" points="1041.5,-459 920.5,-459 920.5,-440 1041.5,-440 1041.5,-459"/>
<text text-anchor="middle" x="981" y="-447" font-family="Helvetica,sans-Serif" font-size="10.00">include/utils/utils.hpp</text>
</a>
</g>
</g>
<!-- Node1&#45;&gt;Node28 -->
<g id="edge52_Node000001_Node000028" class="edge">
<title>Node1&#45;&gt;Node28</title>
<g id="a_edge52_Node000001_Node000028"><a xlink:title=" ">
<path fill="none" stroke="#63b8ff" d="M883.88,-491.03C907.37,-481.23 939.47,-467.83 960.22,-459.17"/>
<polygon fill="#63b8ff" stroke="#63b8ff" points="882.29,-487.9 874.4,-494.98 884.98,-494.36 882.29,-487.9"/>
</a>
</g>
</g>
<!-- Node3 -->
<g id="Node000003" class="node">
<title>Node3</title>
<g id="a_Node000003"><a xlink:href="ConfigGlobalBlock_8hpp.html" target="_top" xlink:title=" ">
<polygon fill="white" stroke="#666666" points="713.5,-272 564.5,-272 564.5,-242 713.5,-242 713.5,-272"/>
<text text-anchor="start" x="572.5" y="-260" font-family="Helvetica,sans-Serif" font-size="10.00">include/config/ConfigGlobal</text>
<text text-anchor="middle" x="639" y="-249" font-family="Helvetica,sans-Serif" font-size="10.00">Block.hpp</text>
</a>
</g>
</g>
<!-- Node2&#45;&gt;Node3 -->
<g id="edge2_Node000002_Node000003" class="edge">
<title>Node2&#45;&gt;Node3</title>
<g id="a_edge2_Node000002_Node000003"><a xlink:title=" ">
<path fill="none" stroke="#63b8ff" d="M655.41,-303.67C651.84,-293.72 647.49,-281.61 644.16,-272.36"/>
<polygon fill="#63b8ff" stroke="#63b8ff" points="652.22,-305.14 658.9,-313.37 658.81,-302.77 652.22,-305.14"/>
</a>
</g>
</g>
<!-- Node2&#45;&gt;Node10 -->
<g id="edge10_Node000002_Node000010" class="edge">
<title>Node2&#45;&gt;Node10</title>
<g id="a_edge10_Node000002_Node000010"><a xlink:title=" ">
<path fill="none" stroke="#63b8ff" d="M594.1,-312.02C512,-299.92 378.64,-280.12 329,-272 325.98,-271.51 322.89,-270.99 319.77,-270.47"/>
<polygon fill="#63b8ff" stroke="#63b8ff" points="593.69,-315.5 604.1,-313.49 594.71,-308.57 593.69,-315.5"/>
</a>
</g>
</g>
<!-- Node2&#45;&gt;Node12 -->
<g id="edge13_Node000002_Node000012" class="edge">
<title>Node2&#45;&gt;Node12</title>
<g id="a_edge13_Node000002_Node000012"><a xlink:title=" ">
<path fill="none" stroke="#63b8ff" d="M716.95,-311.56C773.63,-300.8 862.36,-283.95 925.15,-272.02"/>
<polygon fill="#63b8ff" stroke="#63b8ff" points="716.27,-308.13 707.1,-313.44 717.58,-315.01 716.27,-308.13"/>
</a>
</g>
</g>
<!-- Node13 -->
<g id="Node000013" class="node">
<title>Node13</title>
<g id="a_Node000013"><a xlink:href="ConfigServerBlock_8hpp.html" target="_top" xlink:title=" ">
<polygon fill="white" stroke="#666666" points="1008.5,-206 859.5,-206 859.5,-176 1008.5,-176 1008.5,-206"/>
<text text-anchor="start" x="867.5" y="-194" font-family="Helvetica,sans-Serif" font-size="10.00">include/config/ConfigServer</text>
<text text-anchor="middle" x="934" y="-183" font-family="Helvetica,sans-Serif" font-size="10.00">Block.hpp</text>
</a>
</g>
</g>
<!-- Node2&#45;&gt;Node13 -->
<g id="edge19_Node000002_Node000013" class="edge">
<title>Node2&#45;&gt;Node13</title>
<g id="a_edge19_Node000002_Node000013"><a xlink:title=" ">
<path fill="none" stroke="#63b8ff" d="M759.69,-313.06C797.4,-306.1 839.45,-293.79 873,-272 898.49,-255.45 917.51,-224.44 927.08,-206.27"/>
<polygon fill="#63b8ff" stroke="#63b8ff" points="758.95,-309.63 749.69,-314.79 760.15,-316.53 758.95,-309.63"/>
</a>
</g>
</g>
<!-- Node2&#45;&gt;Node16 -->
<g id="edge20_Node000002_Node000016" class="edge">
<title>Node2&#45;&gt;Node16</title>
<g id="a_edge20_Node000002_Node000016"><a xlink:title=" ">
<path fill="none" stroke="#63b8ff" d="M619.88,-310.72C572.82,-298.12 497.65,-277.99 455.1,-266.6"/>
<polygon fill="#63b8ff" stroke="#63b8ff" points="619.2,-314.16 629.77,-313.37 621.01,-307.4 619.2,-314.16"/>
</a>
</g>
</g>
<!-- Node3&#45;&gt;Node4 -->
<g id="edge3_Node000003_Node000004" class="edge">
<title>Node3&#45;&gt;Node4</title>
<g id="a_edge3_Node000003_Node000004"><a xlink:title=" ">
<path fill="none" stroke="#63b8ff" d="M554.46,-241.15C499.05,-230.57 435.35,-216.42 427,-206 410.32,-185.19 418.1,-150.6 423.03,-134.6"/>
<polygon fill="#63b8ff" stroke="#63b8ff" points="553.86,-244.6 564.33,-243.02 555.16,-237.72 553.86,-244.6"/>
</a>
</g>
</g>
<!-- Node9 -->
<g id="Node000009" class="node">
<title>Node9</title>
<g id="a_Node000009"><a xlink:href="ConfigGlobalBlock_8cpp.html" target="_top" xlink:title=" ">
<polygon fill="white" stroke="#666666" points="582,-206 436,-206 436,-176 582,-176 582,-206"/>
<text text-anchor="start" x="444" y="-194" font-family="Helvetica,sans-Serif" font-size="10.00">source/config/ConfigGlobal</text>
<text text-anchor="middle" x="509" y="-183" font-family="Helvetica,sans-Serif" font-size="10.00">Block.cpp</text>
</a>
</g>
</g>
<!-- Node3&#45;&gt;Node9 -->
<g id="edge9_Node000003_Node000009" class="edge">
<title>Node3&#45;&gt;Node9</title>
<g id="a_edge9_Node000003_Node000009"><a xlink:title=" ">
<path fill="none" stroke="#63b8ff" d="M601.45,-237.51C581.05,-227.47 556.24,-215.26 537.46,-206.01"/>
<polygon fill="#63b8ff" stroke="#63b8ff" points="599.95,-240.68 610.47,-241.95 603.05,-234.4 599.95,-240.68"/>
</a>
</g>
</g>
<!-- Node4&#45;&gt;Node5 -->
<g id="edge4_Node000004_Node000005" class="edge">
<title>Node4&#45;&gt;Node5</title>
<g id="a_edge4_Node000004_Node000005"><a xlink:title=" ">
<path fill="none" stroke="#63b8ff" d="M481.81,-113.6C542.38,-102.32 637.98,-84.51 694.29,-74.02"/>
<polygon fill="#63b8ff" stroke="#63b8ff" points="480.85,-110.22 471.66,-115.49 482.13,-117.1 480.85,-110.22"/>
</a>
</g>
</g>
<!-- Node4&#45;&gt;Node7 -->
<g id="edge8_Node000004_Node000007" class="edge">
<title>Node4&#45;&gt;Node7</title>
<g id="a_edge8_Node000004_Node000007"><a xlink:title=" ">
<path fill="none" stroke="#63b8ff" d="M427.61,-105.36C429.73,-90.41 434.64,-69.59 446,-55 459.25,-37.99 480.96,-26.22 497.79,-19.07"/>
<polygon fill="#63b8ff" stroke="#63b8ff" points="424.12,-105.12 426.47,-115.45 431.07,-105.91 424.12,-105.12"/>
</a>
</g>
</g>
<!-- Node4&#45;&gt;Node8 -->
<g id="edge7_Node000004_Node000008" class="edge">
<title>Node4&#45;&gt;Node8</title>
<g id="a_edge7_Node000004_Node000008"><a xlink:title=" ">
<path fill="none" stroke="#63b8ff" d="M448.78,-110.12C467.08,-98.96 492.23,-83.64 507.78,-74.17"/>
<polygon fill="#63b8ff" stroke="#63b8ff" points="446.88,-107.18 440.17,-115.37 450.53,-113.15 446.88,-107.18"/>
</a>
</g>
</g>
<!-- Node5&#45;&gt;Node6 -->
<g id="edge5_Node000005_Node000006" class="edge">
<title>Node5&#45;&gt;Node6</title>
<g id="a_edge5_Node000005_Node000006"><a xlink:title=" ">
<path fill="none" stroke="#63b8ff" d="M780.96,-52.31C817.26,-42.39 869.5,-28.12 902.59,-19.08"/>
<polygon fill="#63b8ff" stroke="#63b8ff" points="779.89,-48.97 771.17,-54.98 781.74,-55.73 779.89,-48.97"/>
</a>
</g>
</g>
<!-- Node5&#45;&gt;Node7 -->
<g id="edge6_Node000005_Node000007" class="edge">
<title>Node5&#45;&gt;Node7</title>
<g id="a_edge6_Node000005_Node000007"><a xlink:title=" ">
<path fill="none" stroke="#63b8ff" d="M695.02,-52.56C654.19,-42.64 594.8,-28.2 557.3,-19.08"/>
<polygon fill="#63b8ff" stroke="#63b8ff" points="694.43,-56.02 704.97,-54.98 696.08,-49.22 694.43,-56.02"/>
</a>
</g>
</g>
<!-- Node10&#45;&gt;Node4 -->
<g id="edge11_Node000010_Node000004" class="edge">
<title>Node10&#45;&gt;Node4</title>
<g id="a_edge11_Node000010_Node000004"><a xlink:title=" ">
<path fill="none" stroke="#63b8ff" d="M236.59,-232.33C228.78,-215.07 222.66,-191.99 235,-176 250.45,-155.99 311.5,-142.44 360.48,-134.55"/>
<polygon fill="#63b8ff" stroke="#63b8ff" points="233.67,-234.33 241.25,-241.72 239.94,-231.21 233.67,-234.33"/>
</a>
</g>
</g>
<!-- Node10&#45;&gt;Node11 -->
<g id="edge12_Node000010_Node000011" class="edge">
<title>Node10&#45;&gt;Node11</title>
<g id="a_edge12_Node000010_Node000011"><a xlink:title=" ">
<path fill="none" stroke="#63b8ff" d="M270.96,-234.37C279.97,-225.06 290.26,-214.44 298.28,-206.16"/>
<polygon fill="#63b8ff" stroke="#63b8ff" points="268.2,-232.18 263.76,-241.8 273.23,-237.05 268.2,-232.18"/>
</a>
</g>
</g>
<!-- Node12&#45;&gt;Node13 -->
<g id="edge14_Node000012_Node000013" class="edge">
<title>Node12&#45;&gt;Node13</title>
<g id="a_edge14_Node000012_Node000013"><a xlink:title=" ">
<path fill="none" stroke="#63b8ff" d="M977.31,-234.65C967.79,-225.27 956.88,-214.53 948.39,-206.16"/>
<polygon fill="#63b8ff" stroke="#63b8ff" points="974.99,-237.27 984.57,-241.8 979.9,-232.29 974.99,-237.27"/>
</a>
</g>
</g>
<!-- Node12&#45;&gt;Node15 -->
<g id="edge18_Node000012_Node000015" class="edge">
<title>Node12&#45;&gt;Node15</title>
<g id="a_edge18_Node000012_Node000015"><a xlink:title=" ">
<path fill="none" stroke="#63b8ff" d="M1039.7,-237.78C1062.25,-227.69 1089.84,-215.34 1110.69,-206.01"/>
<polygon fill="#63b8ff" stroke="#63b8ff" points="1038.08,-234.68 1030.38,-241.95 1040.94,-241.06 1038.08,-234.68"/>
</a>
</g>
</g>
<!-- Node13&#45;&gt;Node4 -->
<g id="edge15_Node000013_Node000004" class="edge">
<title>Node13&#45;&gt;Node4</title>
<g id="a_edge15_Node000013_Node000004"><a xlink:title=" ">
<path fill="none" stroke="#63b8ff" d="M849.26,-179.32C749.37,-166.74 585.4,-146.08 493.62,-134.52"/>
<polygon fill="#63b8ff" stroke="#63b8ff" points="848.96,-182.81 859.32,-180.59 849.83,-175.87 848.96,-182.81"/>
</a>
</g>
</g>
<!-- Node13&#45;&gt;Node6 -->
<g id="edge17_Node000013_Node000006" class="edge">
<title>Node13&#45;&gt;Node6</title>
<g id="a_edge17_Node000013_Node000006"><a xlink:title=" ">
<path fill="none" stroke="#63b8ff" d="M934,-165.83C934,-125.29 934,-45.45 934,-19.13"/>
<polygon fill="#63b8ff" stroke="#63b8ff" points="930.5,-165.91 934,-175.91 937.5,-165.91 930.5,-165.91"/>
</a>
</g>
</g>
<!-- Node13&#45;&gt;Node14 -->
<g id="edge16_Node000013_Node000014" class="edge">
<title>Node13&#45;&gt;Node14</title>
<g id="a_edge16_Node000013_Node000014"><a xlink:title=" ">
<path fill="none" stroke="#63b8ff" d="M989.29,-172.99C1022.75,-162.69 1064.92,-149.72 1096.46,-140.01"/>
<polygon fill="#63b8ff" stroke="#63b8ff" points="988.17,-169.67 979.65,-175.95 990.23,-176.36 988.17,-169.67"/>
</a>
</g>
</g>
<!-- Node18 -->
<g id="Node000018" class="node">
<title>Node18</title>
<g id="a_Node000018"><a xlink:href="Acceptor_8hpp.html" target="_top" xlink:title=" ">
<polygon fill="white" stroke="#666666" points="1671.5,-266.5 1520.5,-266.5 1520.5,-247.5 1671.5,-247.5 1671.5,-266.5"/>
<text text-anchor="middle" x="1596" y="-254.5" font-family="Helvetica,sans-Serif" font-size="10.00">include/kernel/Acceptor.hpp</text>
</a>
</g>
</g>
<!-- Node17&#45;&gt;Node18 -->
<g id="edge25_Node000017_Node000018" class="edge">
<title>Node17&#45;&gt;Node18</title>
<g id="a_edge25_Node000017_Node000018"><a xlink:title=" ">
<path fill="none" stroke="#63b8ff" d="M1494.42,-303.78C1521.58,-291.54 1556.1,-275.98 1577.1,-266.52"/>
<polygon fill="#63b8ff" stroke="#63b8ff" points="1492.84,-300.65 1485.16,-307.95 1495.72,-307.04 1492.84,-300.65"/>
</a>
</g>
</g>
<!-- Node17&#45;&gt;Node19 -->
<g id="edge28_Node000017_Node000019" class="edge">
<title>Node17&#45;&gt;Node19</title>
<g id="a_edge28_Node000017_Node000019"><a xlink:title=" ">
<path fill="none" stroke="#63b8ff" d="M1448.47,-297.99C1444.33,-281.8 1438.03,-260.17 1430,-242 1423.29,-226.81 1412.87,-210.56 1406.24,-200.85"/>
<polygon fill="#63b8ff" stroke="#63b8ff" points="1445.08,-298.87 1450.86,-307.75 1451.88,-297.2 1445.08,-298.87"/>
</a>
</g>
</g>
<!-- Node20 -->
<g id="Node000020" class="node">
<title>Node20</title>
<g id="a_Node000020"><a xlink:href="ConnectionHandler_8cpp.html" target="_top" xlink:title=" ">
<polygon fill="white" stroke="#666666" points="1388,-272 1248,-272 1248,-242 1388,-242 1388,-272"/>
<text text-anchor="start" x="1256" y="-260" font-family="Helvetica,sans-Serif" font-size="10.00">source/kernel/Connection</text>
<text text-anchor="middle" x="1318" y="-249" font-family="Helvetica,sans-Serif" font-size="10.00">Handler.cpp</text>
</a>
</g>
</g>
<!-- Node17&#45;&gt;Node20 -->
<g id="edge29_Node000017_Node000020" class="edge">
<title>Node17&#45;&gt;Node20</title>
<g id="a_edge29_Node000017_Node000020"><a xlink:title=" ">
<path fill="none" stroke="#63b8ff" d="M1415,-303.65C1393.61,-293.58 1367.51,-281.3 1347.78,-272.01"/>
<polygon fill="#63b8ff" stroke="#63b8ff" points="1413.62,-306.86 1424.15,-307.95 1416.6,-300.53 1413.62,-306.86"/>
</a>
</g>
</g>
<!-- Node18&#45;&gt;Node5 -->
<g id="edge26_Node000018_Node000005" class="edge">
<title>Node18&#45;&gt;Node5</title>
<g id="a_edge26_Node000018_Node000005"><a xlink:title=" ">
<path fill="none" stroke="#63b8ff" d="M1573.85,-241.9C1558.75,-232.12 1538.41,-218.64 1521,-206 1503.59,-193.36 1502.29,-185.53 1483,-176 1376.5,-123.38 1341.07,-130.17 1224,-110 1078.06,-84.86 904.75,-73.27 810.18,-68.48"/>
<polygon fill="#63b8ff" stroke="#63b8ff" points="1572.2,-245 1582.5,-247.47 1575.99,-239.11 1572.2,-245"/>
</a>
</g>
</g>
<!-- Node18&#45;&gt;Node19 -->
<g id="edge27_Node000018_Node000019" class="edge">
<title>Node18&#45;&gt;Node19</title>
<g id="a_edge27_Node000018_Node000019"><a xlink:title=" ">
<path fill="none" stroke="#63b8ff" d="M1559.75,-244.16C1521.06,-231.53 1460.71,-211.82 1426.33,-200.6"/>
<polygon fill="#63b8ff" stroke="#63b8ff" points="1558.97,-247.59 1569.57,-247.37 1561.15,-240.94 1558.97,-247.59"/>
</a>
</g>
</g>
<!-- Node21&#45;&gt;Node5 -->
<g id="edge34_Node000021_Node000005" class="edge">
<title>Node21&#45;&gt;Node5</title>
<g id="a_edge34_Node000021_Node000005"><a xlink:title=" ">
<path fill="none" stroke="#63b8ff" d="M1670.91,-370.51C1676.25,-361.18 1682.31,-349.32 1686,-338 1708.31,-269.51 1732.99,-225.86 1681,-176 1618.27,-115.83 1017.6,-79.69 810.09,-68.92"/>
<polygon fill="#63b8ff" stroke="#63b8ff" points="1667.85,-368.8 1665.73,-379.18 1673.87,-372.39 1667.85,-368.8"/>
</a>
</g>
</g>
<!-- Node21&#45;&gt;Node6 -->
<g id="edge35_Node000021_Node000006" class="edge">
<title>Node21&#45;&gt;Node6</title>
<g id="a_edge35_Node000021_Node000006"><a xlink:title=" ">
<path fill="none" stroke="#63b8ff" d="M1689.17,-374.93C1742.89,-348.64 1852,-283.93 1852,-192 1852,-192 1852,-192 1852,-124 1852,-38.39 1215,-16.65 1002.25,-11.78"/>
<polygon fill="#63b8ff" stroke="#63b8ff" points="1687.34,-371.92 1679.82,-379.39 1690.36,-378.24 1687.34,-371.92"/>
</a>
</g>
</g>
<!-- Node21&#45;&gt;Node17 -->
<g id="edge33_Node000021_Node000017" class="edge">
<title>Node21&#45;&gt;Node17</title>
<g id="a_edge33_Node000021_Node000017"><a xlink:title=" ">
<path fill="none" stroke="#63b8ff" d="M1622.49,-376.35C1587.87,-365.59 1536.37,-349.59 1499.43,-338.12"/>
<polygon fill="#63b8ff" stroke="#63b8ff" points="1621.63,-379.74 1632.22,-379.37 1623.71,-373.06 1621.63,-379.74"/>
</a>
</g>
</g>
<!-- Node21&#45;&gt;Node18 -->
<g id="edge32_Node000021_Node000018" class="edge">
<title>Node21&#45;&gt;Node18</title>
<g id="a_edge32_Node000021_Node000018"><a xlink:title=" ">
<path fill="none" stroke="#63b8ff" d="M1651.32,-370.36C1637.42,-342.14 1610.71,-287.87 1600.3,-266.73"/>
<polygon fill="#63b8ff" stroke="#63b8ff" points="1648.24,-372.04 1655.8,-379.47 1654.52,-368.95 1648.24,-372.04"/>
</a>
</g>
</g>
<!-- Node21&#45;&gt;Node22 -->
<g id="edge36_Node000021_Node000022" class="edge">
<title>Node21&#45;&gt;Node22</title>
<g id="a_edge36_Node000021_Node000022"><a xlink:title=" ">
<path fill="none" stroke="#63b8ff" d="M1665.35,-369.81C1674.94,-335.7 1692.99,-263.63 1681,-242 1669.65,-221.51 1646.01,-208.31 1627.36,-200.65"/>
<polygon fill="#63b8ff" stroke="#63b8ff" points="1661.98,-368.86 1662.58,-379.44 1668.71,-370.79 1661.98,-368.86"/>
</a>
</g>
</g>
<!-- Node24&#45;&gt;Node6 -->
<g id="edge45_Node000024_Node000006" class="edge">
<title>Node24&#45;&gt;Node6</title>
<g id="a_edge45_Node000024_Node000006"><a xlink:title=" ">
<path fill="none" stroke="#63b8ff" d="M807.85,-238.22C834.89,-189.4 909.58,-54.58 929.22,-19.13"/>
<polygon fill="#63b8ff" stroke="#63b8ff" points="804.62,-236.82 802.84,-247.26 810.75,-240.21 804.62,-236.82"/>
</a>
</g>
</g>
<!-- Node24&#45;&gt;Node7 -->
<g id="edge47_Node000024_Node000007" class="edge">
<title>Node24&#45;&gt;Node7</title>
<g id="a_edge47_Node000024_Node000007"><a xlink:title=" ">
<path fill="none" stroke="#63b8ff" d="M741.23,-244.73C715.97,-237.29 687.4,-225.24 667,-206 613.46,-155.5 648.35,-109.6 599,-55 584.09,-38.51 561.59,-26.49 544.76,-19.13"/>
<polygon fill="#63b8ff" stroke="#63b8ff" points="740.51,-248.16 751.08,-247.45 742.37,-241.41 740.51,-248.16"/>
</a>
</g>
</g>
<!-- Node24&#45;&gt;Node8 -->
<g id="edge39_Node000024_Node000008" class="edge">
<title>Node24&#45;&gt;Node8</title>
<g id="a_edge39_Node000024_Node000008"><a xlink:title=" ">
<path fill="none" stroke="#63b8ff" d="M751.37,-245.07C709.99,-234.79 653.22,-219.06 634,-206 580.08,-169.36 539.55,-98.9 526.49,-74.26"/>
<polygon fill="#63b8ff" stroke="#63b8ff" points="750.71,-248.51 761.26,-247.5 752.38,-241.72 750.71,-248.51"/>
</a>
</g>
</g>
<!-- Node24&#45;&gt;Node9 -->
<g id="edge40_Node000024_Node000009" class="edge">
<title>Node24&#45;&gt;Node9</title>
<g id="a_edge40_Node000024_Node000009"><a xlink:title=" ">
<path fill="none" stroke="#63b8ff" d="M749.36,-245.23C700.7,-234.45 625.62,-217.83 572.33,-206.02"/>
<polygon fill="#63b8ff" stroke="#63b8ff" points="748.8,-248.69 759.32,-247.44 750.32,-241.86 748.8,-248.69"/>
</a>
</g>
</g>
<!-- Node24&#45;&gt;Node11 -->
<g id="edge41_Node000024_Node000011" class="edge">
<title>Node24&#45;&gt;Node11</title>
<g id="a_edge41_Node000024_Node000011"><a xlink:title=" ">
<path fill="none" stroke="#63b8ff" d="M744.94,-245.66C737.58,-244.36 730.11,-243.09 723,-242 592.02,-221.83 558.55,-222.01 427,-206 411.83,-204.15 395.53,-202.17 380.11,-200.29"/>
<polygon fill="#63b8ff" stroke="#63b8ff" points="744.39,-249.12 754.85,-247.46 745.64,-242.23 744.39,-249.12"/>
</a>
</g>
</g>
<!-- Node24&#45;&gt;Node14 -->
<g id="edge43_Node000024_Node000014" class="edge">
<title>Node24&#45;&gt;Node14</title>
<g id="a_edge43_Node000024_Node000014"><a xlink:title=" ">
<path fill="none" stroke="#63b8ff" d="M874.15,-247.44C917.88,-240.42 972.9,-227.92 1018,-206 1037.04,-196.75 1037.54,-187.98 1055,-176 1074.39,-162.69 1097.52,-149.52 1115.06,-140.03"/>
<polygon fill="#63b8ff" stroke="#63b8ff" points="873.5,-244 864.15,-248.98 874.57,-250.92 873.5,-244"/>
</a>
</g>
</g>
<!-- Node24&#45;&gt;Node15 -->
<g id="edge42_Node000024_Node000015" class="edge">
<title>Node24&#45;&gt;Node15</title>
<g id="a_edge42_Node000024_Node000015"><a xlink:title=" ">
<path fill="none" stroke="#63b8ff" d="M854.09,-245.56C911.95,-234.8 1002.53,-217.95 1066.62,-206.02"/>
<polygon fill="#63b8ff" stroke="#63b8ff" points="853.23,-242.16 844.04,-247.44 854.51,-249.05 853.23,-242.16"/>
</a>
</g>
</g>
<!-- Node24&#45;&gt;Node19 -->
<g id="edge44_Node000024_Node000019" class="edge">
<title>Node24&#45;&gt;Node19</title>
<g id="a_edge44_Node000024_Node000019"><a xlink:title=" ">
<path fill="none" stroke="#63b8ff" d="M874.47,-246.3C886.68,-244.82 899.18,-243.34 911,-242 1058.12,-225.37 1230.44,-208.31 1326.22,-199.05"/>
<polygon fill="#63b8ff" stroke="#63b8ff" points="873.8,-242.86 864.3,-247.55 874.65,-249.81 873.8,-242.86"/>
</a>
</g>
</g>
<!-- Node24&#45;&gt;Node22 -->
<g id="edge46_Node000024_Node000022" class="edge">
<title>Node24&#45;&gt;Node22</title>
<g id="a_edge46_Node000024_Node000022"><a xlink:title=" ">
<path fill="none" stroke="#63b8ff" d="M871.27,-246.27C884.48,-244.7 898.14,-243.2 911,-242 1164.62,-218.33 1229.32,-229.01 1483,-206 1499.74,-204.48 1517.79,-202.51 1534.6,-200.53"/>
<polygon fill="#63b8ff" stroke="#63b8ff" points="870.78,-242.8 861.28,-247.48 871.63,-249.75 870.78,-242.8"/>
</a>
</g>
</g>
<!-- Node25 -->
<g id="Node000025" class="node">
<title>Node25</title>
<g id="a_Node000025"><a xlink:href="Logger_8cpp.html" target="_top" xlink:title=" ">
<polygon fill="white" stroke="#666666" points="804,-200.5 676,-200.5 676,-181.5 804,-181.5 804,-200.5"/>
<text text-anchor="middle" x="740" y="-188.5" font-family="Helvetica,sans-Serif" font-size="10.00">source/utils/Logger.cpp</text>
</a>
</g>
</g>
<!-- Node24&#45;&gt;Node25 -->
<g id="edge48_Node000024_Node000025" class="edge">
<title>Node24&#45;&gt;Node25</title>
<g id="a_edge48_Node000024_Node000025"><a xlink:title=" ">
<path fill="none" stroke="#63b8ff" d="M783.16,-239.62C772,-227.31 757.12,-210.89 748.07,-200.91"/>
<polygon fill="#63b8ff" stroke="#63b8ff" points="780.87,-242.31 790.18,-247.37 786.06,-237.61 780.87,-242.31"/>
</a>
</g>
</g>
<!-- Node26&#45;&gt;Node2 -->
<g id="edge50_Node000026_Node000002" class="edge">
<title>Node26&#45;&gt;Node2</title>
<g id="a_edge50_Node000026_Node000002"><a xlink:title=" ">
<path fill="none" stroke="#63b8ff" d="M683.75,-364.95C677.84,-353.81 671.09,-341.11 666.7,-332.84"/>
<polygon fill="#63b8ff" stroke="#63b8ff" points="680.67,-366.61 688.45,-373.8 686.85,-363.32 680.67,-366.61"/>
</a>
</g>
</g>
<!-- Node26&#45;&gt;Node27 -->
<g id="edge51_Node000026_Node000027" class="edge">
<title>Node26&#45;&gt;Node27</title>
<g id="a_edge51_Node000026_Node000027"><a xlink:title=" ">
<path fill="none" stroke="#63b8ff" d="M644.17,-370.72C613.41,-360.47 574.9,-347.63 546.04,-338.01"/>
<polygon fill="#63b8ff" stroke="#63b8ff" points="643.27,-374.11 653.86,-373.95 645.48,-367.47 643.27,-374.11"/>
</a>
</g>
</g>
<!-- Node28&#45;&gt;Node11 -->
<g id="edge55_Node000028_Node000011" class="edge">
<title>Node28&#45;&gt;Node11</title>
<g id="a_edge55_Node000028_Node000011"><a xlink:title=" ">
<path fill="none" stroke="#63b8ff" d="M960.07,-434.03C947.73,-425.42 931.88,-414.23 918,-404 861.6,-362.45 857.44,-335.46 793,-308 694.99,-266.23 653.73,-314.42 556,-272 536.26,-263.43 537.35,-251.42 518,-242 474.66,-220.89 421.73,-208.29 380.38,-201.02"/>
<polygon fill="#63b8ff" stroke="#63b8ff" points="958.14,-436.95 968.34,-439.78 962.13,-431.2 958.14,-436.95"/>
</a>
</g>
</g>
<!-- Node28&#45;&gt;Node14 -->
<g id="edge57_Node000028_Node000014" class="edge">
<title>Node28&#45;&gt;Node14</title>
<g id="a_edge57_Node000028_Node000014"><a xlink:title=" ">
<path fill="none" stroke="#63b8ff" d="M966.2,-431.76C954.38,-416.25 941.41,-392.8 952,-374 960.83,-358.32 1220.17,-221.68 1229,-206 1235.54,-194.38 1235.68,-187.54 1229,-176 1219.4,-159.41 1201.99,-147.85 1185.25,-140.05"/>
<polygon fill="#63b8ff" stroke="#63b8ff" points="963.8,-434.35 972.84,-439.88 969.22,-429.92 963.8,-434.35"/>
</a>
</g>
</g>
<!-- Node28&#45;&gt;Node15 -->
<g id="edge56_Node000028_Node000015" class="edge">
<title>Node28&#45;&gt;Node15</title>
<g id="a_edge56_Node000028_Node000015"><a xlink:title=" ">
<path fill="none" stroke="#63b8ff" d="M1033.69,-436.9C1052.9,-430.22 1073.25,-419.88 1087,-404 1138.39,-344.64 1142.66,-243.1 1142.39,-206.06"/>
<polygon fill="#63b8ff" stroke="#63b8ff" points="1032.55,-433.59 1024.09,-439.98 1034.68,-440.25 1032.55,-433.59"/>
</a>
</g>
</g>
<!-- Node28&#45;&gt;Node16 -->
<g id="edge54_Node000028_Node000016" class="edge">
<title>Node28&#45;&gt;Node16</title>
<g id="a_edge54_Node000028_Node000016"><a xlink:title=" ">
<path fill="none" stroke="#63b8ff" d="M946.35,-436.24C925.8,-428.32 899.64,-417.07 878,-404 848.92,-386.43 790.12,-321.65 759,-308 752.72,-305.25 578.19,-280.1 483.22,-266.55"/>
<polygon fill="#63b8ff" stroke="#63b8ff" points="945.35,-439.61 955.94,-439.86 947.82,-433.06 945.35,-439.61"/>
</a>
</g>
</g>
<!-- Node28&#45;&gt;Node19 -->
<g id="edge58_Node000028_Node000019" class="edge">
<title>Node28&#45;&gt;Node19</title>
<g id="a_edge58_Node000028_Node000019"><a xlink:title=" ">
<path fill="none" stroke="#63b8ff" d="M1037.47,-437.35C1061.78,-430.58 1089.49,-420.05 1111,-404 1139.87,-382.47 1139.45,-368.86 1158,-338 1182.58,-297.12 1168.9,-271.98 1206,-242 1239.81,-214.67 1286.86,-202.11 1326.15,-196.41"/>
<polygon fill="#63b8ff" stroke="#63b8ff" points="1036.42,-434.01 1027.64,-439.94 1038.21,-440.78 1036.42,-434.01"/>
</a>
</g>
</g>
<!-- Node28&#45;&gt;Node20 -->
<g id="edge59_Node000028_Node000020" class="edge">
<title>Node28&#45;&gt;Node20</title>
<g id="a_edge59_Node000028_Node000020"><a xlink:title=" ">
<path fill="none" stroke="#63b8ff" d="M1051.68,-442.77C1116.03,-436.37 1205.23,-424.17 1234,-404 1281.17,-370.93 1305.49,-302.3 1314.19,-272.42"/>
<polygon fill="#63b8ff" stroke="#63b8ff" points="1051.2,-439.3 1041.58,-443.75 1051.87,-446.27 1051.2,-439.3"/>
</a>
</g>
</g>
<!-- Node28&#45;&gt;Node22 -->
<g id="edge60_Node000028_Node000022" class="edge">
<title>Node28&#45;&gt;Node22</title>
<g id="a_edge60_Node000028_Node000022"><a xlink:title=" ">
<path fill="none" stroke="#63b8ff" d="M1034.3,-437.71C1073.06,-429.07 1121.53,-416.39 1138,-404 1205.81,-353.01 1167.81,-288.16 1239,-242 1245.15,-238.01 1430.96,-213.74 1533.91,-200.54"/>
<polygon fill="#63b8ff" stroke="#63b8ff" points="1033.19,-434.37 1024.16,-439.92 1034.68,-441.21 1033.19,-434.37"/>
</a>
</g>
</g>
<!-- Node28&#45;&gt;Node26 -->
<g id="edge53_Node000028_Node000026" class="edge">
<title>Node28&#45;&gt;Node26</title>
<g id="a_edge53_Node000028_Node000026"><a xlink:title=" ">
<path fill="none" stroke="#63b8ff" d="M929.52,-437.95C885.55,-428.94 820.62,-415.63 764,-404 759.51,-403.08 754.86,-402.12 750.19,-401.16"/>
<polygon fill="#63b8ff" stroke="#63b8ff" points="928.9,-441.4 939.4,-439.98 930.3,-434.54 928.9,-441.4"/>
</a>
</g>
</g>
<!-- Node29 -->
<g id="Node000029" class="node">
<title>Node29</title>
<g id="a_Node000029"><a xlink:href="utils_8cpp.html" target="_top" xlink:title=" ">
<polygon fill="white" stroke="#666666" points="1077.5,-398.5 960.5,-398.5 960.5,-379.5 1077.5,-379.5 1077.5,-398.5"/>
<text text-anchor="middle" x="1019" y="-386.5" font-family="Helvetica,sans-Serif" font-size="10.00">source/utils/utils.cpp</text>
</a>
</g>
</g>
<!-- Node28&#45;&gt;Node29 -->
<g id="edge61_Node000028_Node000029" class="edge">
<title>Node28&#45;&gt;Node29</title>
<g id="a_edge61_Node000028_Node000029"><a xlink:title=" ">
<path fill="none" stroke="#63b8ff" d="M992.17,-431.3C999.14,-420.58 1007.8,-407.23 1013.37,-398.67"/>
<polygon fill="#63b8ff" stroke="#63b8ff" points="989.12,-429.58 986.61,-439.87 994.99,-433.39 989.12,-429.58"/>
</a>
</g>
</g>
</g>
</svg>
