<?xml version="1.0" encoding="UTF-8" standalone="no"?>
<!DOCTYPE svg PUBLIC "-//W3C//DTD SVG 1.1//EN"
 "http://www.w3.org/Graphics/SVG/1.1/DTD/svg11.dtd">
<!-- Generated by graphviz version 2.43.0 (0)
 -->
<!-- Title: include/kernel/IHandler.hpp Pages: 1 -->
<svg width="599pt" height="324pt"
 viewBox="0.00 0.00 599.00 324.00" xmlns="http://www.w3.org/2000/svg" xmlns:xlink="http://www.w3.org/1999/xlink">
<g id="graph0" class="graph" transform="scale(1 1) rotate(0) translate(4 320)">
<title>include/kernel/IHandler.hpp</title>
<!-- Node1 -->
<g id="Node000001" class="node">
<title>Node1</title>
<g id="a_Node000001"><a xlink:title=" ">
<polygon fill="#999999" stroke="#666666" points="347.5,-316 198.5,-316 198.5,-297 347.5,-297 347.5,-316"/>
<text text-anchor="middle" x="273" y="-304" font-family="Helvetica,sans-Serif" font-size="10.00">include/kernel/IHandler.hpp</text>
</a>
</g>
</g>
<!-- Node2 -->
<g id="Node000002" class="node">
<title>Node2</title>
<g id="a_Node000002"><a xlink:href="Acceptor_8hpp.html" target="_top" xlink:title=" ">
<polygon fill="white" stroke="#666666" points="347.5,-134.5 196.5,-134.5 196.5,-115.5 347.5,-115.5 347.5,-134.5"/>
<text text-anchor="middle" x="272" y="-122.5" font-family="Helvetica,sans-Serif" font-size="10.00">include/kernel/Acceptor.hpp</text>
</a>
</g>
</g>
<!-- Node1&#45;&gt;Node2 -->
<g id="edge1_Node000001_Node000002" class="edge">
<title>Node1&#45;&gt;Node2</title>
<g id="a_edge1_Node000001_Node000002"><a xlink:title=" ">
<path fill="none" stroke="#63b8ff" d="M272.89,-286.53C272.68,-248.02 272.2,-161.99 272.05,-134.57"/>
<polygon fill="#63b8ff" stroke="#63b8ff" points="269.4,-286.86 272.95,-296.84 276.4,-286.82 269.4,-286.86"/>
</a>
</g>
</g>
<!-- Node7 -->
<g id="Node000007" class="node">
<title>Node7</title>
<g id="a_Node000007"><a xlink:href="ConnectionHandler_8hpp.html" target="_top" xlink:title=" ">
<polygon fill="white" stroke="#666666" points="244.5,-206 101.5,-206 101.5,-176 244.5,-176 244.5,-206"/>
<text text-anchor="start" x="109.5" y="-194" font-family="Helvetica,sans-Serif" font-size="10.00">include/kernel/Connection</text>
<text text-anchor="middle" x="173" y="-183" font-family="Helvetica,sans-Serif" font-size="10.00">Handler.hpp</text>
</a>
</g>
</g>
<!-- Node1&#45;&gt;Node7 -->
<g id="edge6_Node000001_Node000007" class="edge">
<title>Node1&#45;&gt;Node7</title>
<g id="a_edge6_Node000001_Node000007"><a xlink:title=" ">
<path fill="none" stroke="#63b8ff" d="M258.79,-289.37C239.19,-267.12 204.15,-227.36 185.49,-206.18"/>
<polygon fill="#63b8ff" stroke="#63b8ff" points="256.25,-291.78 265.48,-296.97 261.5,-287.15 256.25,-291.78"/>
</a>
</g>
</g>
<!-- Node9 -->
<g id="Node000009" class="node">
<title>Node9</title>
<g id="a_Node000009"><a xlink:href="Reactor_8hpp.html" target="_top" xlink:title=" ">
<polygon fill="white" stroke="#666666" points="448,-261 302,-261 302,-242 448,-242 448,-261"/>
<text text-anchor="middle" x="375" y="-249" font-family="Helvetica,sans-Serif" font-size="10.00">include/kernel/Reactor.hpp</text>
</a>
</g>
</g>
<!-- Node1&#45;&gt;Node9 -->
<g id="edge10_Node000001_Node000009" class="edge">
<title>Node1&#45;&gt;Node9</title>
<g id="a_edge10_Node000001_Node000009"><a xlink:title=" ">
<path fill="none" stroke="#63b8ff" d="M298.27,-292.37C317.01,-282.63 342.02,-269.64 358.31,-261.17"/>
<polygon fill="#63b8ff" stroke="#63b8ff" points="296.65,-289.27 289.39,-296.98 299.88,-295.48 296.65,-289.27"/>
</a>
</g>
</g>
<!-- Node3 -->
<g id="Node000003" class="node">
<title>Node3</title>
<g id="a_Node000003"><a xlink:href="Kernel_8hpp.html" target="_top" xlink:title=" ">
<polygon fill="white" stroke="#666666" points="393,-74 253,-74 253,-55 393,-55 393,-74"/>
<text text-anchor="middle" x="323" y="-62" font-family="Helvetica,sans-Serif" font-size="10.00">include/kernel/Kernel.hpp</text>
</a>
</g>
</g>
<!-- Node2&#45;&gt;Node3 -->
<g id="edge2_Node000002_Node000003" class="edge">
<title>Node2&#45;&gt;Node3</title>
<g id="a_edge2_Node000002_Node000003"><a xlink:title=" ">
<path fill="none" stroke="#63b8ff" d="M286.15,-107.77C295.63,-96.89 307.75,-82.99 315.44,-74.17"/>
<polygon fill="#63b8ff" stroke="#63b8ff" points="283.46,-105.53 279.53,-115.37 288.73,-110.13 283.46,-105.53"/>
</a>
</g>
</g>
<!-- Node6 -->
<g id="Node000006" class="node">
<title>Node6</title>
<g id="a_Node000006"><a xlink:href="Acceptor_8cpp.html" target="_top" xlink:title=" ">
<polygon fill="white" stroke="#666666" points="234.5,-74 87.5,-74 87.5,-55 234.5,-55 234.5,-74"/>
<text text-anchor="middle" x="161" y="-62" font-family="Helvetica,sans-Serif" font-size="10.00">source/kernel/Acceptor.cpp</text>
</a>
</g>
</g>
<!-- Node2&#45;&gt;Node6 -->
<g id="edge5_Node000002_Node000006" class="edge">
<title>Node2&#45;&gt;Node6</title>
<g id="a_edge5_Node000002_Node000006"><a xlink:title=" ">
<path fill="none" stroke="#63b8ff" d="M246.53,-110.58C225.29,-99.38 195.67,-83.77 177.45,-74.17"/>
<polygon fill="#63b8ff" stroke="#63b8ff" points="245.14,-113.8 255.62,-115.37 248.41,-107.61 245.14,-113.8"/>
</a>
</g>
</g>
<!-- Node4 -->
<g id="Node000004" class="node">
<title>Node4</title>
<g id="a_Node000004"><a xlink:href="Kernel_8cpp.html" target="_top" xlink:title=" ">
<polygon fill="white" stroke="#666666" points="489,-19 353,-19 353,0 489,0 489,-19"/>
<text text-anchor="middle" x="421" y="-7" font-family="Helvetica,sans-Serif" font-size="10.00">source/kernel/Kernel.cpp</text>
</a>
</g>
</g>
<!-- Node3&#45;&gt;Node4 -->
<g id="edge3_Node000003_Node000004" class="edge">
<title>Node3&#45;&gt;Node4</title>
<g id="a_edge3_Node000003_Node000004"><a xlink:title=" ">
<path fill="none" stroke="#63b8ff" d="M348.03,-49.97C365.94,-40.28 389.53,-27.52 404.97,-19.17"/>
<polygon fill="#63b8ff" stroke="#63b8ff" points="345.88,-47.15 338.75,-54.98 349.21,-53.31 345.88,-47.15"/>
</a>
</g>
</g>
<!-- Node5 -->
<g id="Node000005" class="node">
<title>Node5</title>
<g id="a_Node000005"><a xlink:href="main_8cpp.html" target="_top" xlink:title=" ">
<polygon fill="white" stroke="#666666" points="334.5,-19 237.5,-19 237.5,0 334.5,0 334.5,-19"/>
<text text-anchor="middle" x="286" y="-7" font-family="Helvetica,sans-Serif" font-size="10.00">source/main.cpp</text>
</a>
</g>
</g>
<!-- Node3&#45;&gt;Node5 -->
<g id="edge4_Node000003_Node000005" class="edge">
<title>Node3&#45;&gt;Node5</title>
<g id="a_edge4_Node000003_Node000005"><a xlink:title=" ">
<path fill="none" stroke="#63b8ff" d="M311.05,-46.39C304.69,-37.27 297.13,-26.45 292,-19.09"/>
<polygon fill="#63b8ff" stroke="#63b8ff" points="308.3,-48.55 316.89,-54.75 314.04,-44.55 308.3,-48.55"/>
</a>
</g>
</g>
<!-- Node7&#45;&gt;Node2 -->
<g id="edge7_Node000007_Node000002" class="edge">
<title>Node7&#45;&gt;Node2</title>
<g id="a_edge7_Node000007_Node000002"><a xlink:title=" ">
<path fill="none" stroke="#63b8ff" d="M203.38,-170.36C221.85,-158.42 244.51,-143.77 258.61,-134.66"/>
<polygon fill="#63b8ff" stroke="#63b8ff" points="201.47,-167.43 194.97,-175.8 205.27,-173.31 201.47,-167.43"/>
</a>
</g>
</g>
<!-- Node7&#45;&gt;Node6 -->
<g id="edge8_Node000007_Node000006" class="edge">
<title>Node7&#45;&gt;Node6</title>
<g id="a_edge8_Node000007_Node000006"><a xlink:title=" ">
<path fill="none" stroke="#63b8ff" d="M170.64,-165.48C167.92,-137.34 163.62,-92.67 161.83,-74.07"/>
<polygon fill="#63b8ff" stroke="#63b8ff" points="167.18,-166.1 171.62,-175.72 174.15,-165.43 167.18,-166.1"/>
</a>
</g>
</g>
<!-- Node8 -->
<g id="Node000008" class="node">
<title>Node8</title>
<g id="a_Node000008"><a xlink:href="ConnectionHandler_8cpp.html" target="_top" xlink:title=" ">
<polygon fill="white" stroke="#666666" points="140,-140 0,-140 0,-110 140,-110 140,-140"/>
<text text-anchor="start" x="8" y="-128" font-family="Helvetica,sans-Serif" font-size="10.00">source/kernel/Connection</text>
<text text-anchor="middle" x="70" y="-117" font-family="Helvetica,sans-Serif" font-size="10.00">Handler.cpp</text>
</a>
</g>
</g>
<!-- Node7&#45;&gt;Node8 -->
<g id="edge9_Node000007_Node000008" class="edge">
<title>Node7&#45;&gt;Node8</title>
<g id="a_edge9_Node000007_Node000008"><a xlink:title=" ">
<path fill="none" stroke="#63b8ff" d="M141.49,-170.42C125.68,-160.6 106.9,-148.93 92.55,-140.01"/>
<polygon fill="#63b8ff" stroke="#63b8ff" points="140.06,-173.65 150.4,-175.95 143.75,-167.7 140.06,-173.65"/>
</a>
</g>
</g>
<!-- Node9&#45;&gt;Node2 -->
<g id="edge11_Node000009_Node000002" class="edge">
<title>Node9&#45;&gt;Node2</title>
<g id="a_edge11_Node000009_Node000002"><a xlink:title=" ">
<path fill="none" stroke="#63b8ff" d="M361.54,-234.24C339.43,-207.51 296.16,-155.2 279.13,-134.62"/>
<polygon fill="#63b8ff" stroke="#63b8ff" points="358.85,-236.47 367.92,-241.94 364.24,-232.01 358.85,-236.47"/>
</a>
</g>
</g>
<!-- Node9&#45;&gt;Node3 -->
<g id="edge13_Node000009_Node000003" class="edge">
<title>Node9&#45;&gt;Node3</title>
<g id="a_edge13_Node000009_Node000003"><a xlink:title=" ">
<path fill="none" stroke="#63b8ff" d="M375.63,-231.64C375.9,-203.92 373.85,-151 357,-110 351.23,-95.97 339.87,-82.52 331.87,-74.14"/>
<polygon fill="#63b8ff" stroke="#63b8ff" points="372.13,-231.8 375.41,-241.88 379.12,-231.95 372.13,-231.8"/>
</a>
</g>
</g>
<!-- Node9&#45;&gt;Node4 -->
<g id="edge14_Node000009_Node000004" class="edge">
<title>Node9&#45;&gt;Node4</title>
<g id="a_edge14_Node000009_Node000004"><a xlink:title=" ">
<path fill="none" stroke="#63b8ff" d="M380.4,-231.97C382.62,-224.02 385.1,-214.59 387,-206 402.86,-134.35 415.86,-46.59 419.79,-19.13"/>
<polygon fill="#63b8ff" stroke="#63b8ff" points="377.01,-231.12 377.63,-241.69 383.74,-233.04 377.01,-231.12"/>
</a>
</g>
</g>
<!-- Node9&#45;&gt;Node7 -->
<g id="edge12_Node000009_Node000007" class="edge">
<title>Node9&#45;&gt;Node7</title>
<g id="a_edge12_Node000009_Node000007"><a xlink:title=" ">
<path fill="none" stroke="#63b8ff" d="M335.98,-239.2C303.34,-229.75 256.62,-216.22 221.56,-206.06"/>
<polygon fill="#63b8ff" stroke="#63b8ff" points="335.05,-242.57 345.63,-241.99 337,-235.85 335.05,-242.57"/>
</a>
</g>
</g>
<!-- Node10 -->
<g id="Node000010" class="node">
<title>Node10</title>
<g id="a_Node000010"><a xlink:href="Reactor_8cpp.html" target="_top" xlink:title=" ">
<polygon fill="white" stroke="#666666" points="591,-200.5 449,-200.5 449,-181.5 591,-181.5 591,-200.5"/>
<text text-anchor="middle" x="520" y="-188.5" font-family="Helvetica,sans-Serif" font-size="10.00">source/kernel/Reactor.cpp</text>
</a>
</g>
</g>
<!-- Node9&#45;&gt;Node10 -->
<g id="edge15_Node000009_Node000010" class="edge">
<title>Node9&#45;&gt;Node10</title>
<g id="a_edge15_Node000009_Node000010"><a xlink:title=" ">
<path fill="none" stroke="#63b8ff" d="M405.41,-238.23C433.43,-226.92 474.29,-210.44 498.89,-200.52"/>
<polygon fill="#63b8ff" stroke="#63b8ff" points="404.05,-235.01 396.08,-241.99 406.67,-241.5 404.05,-235.01"/>
</a>
</g>
</g>
</g>
</svg>
