<?xml version="1.0" encoding="UTF-8" standalone="no"?>
<!DOCTYPE svg PUBLIC "-//W3C//DTD SVG 1.1//EN"
 "http://www.w3.org/Graphics/SVG/1.1/DTD/svg11.dtd">
<!-- Generated by graphviz version 2.43.0 (0)
 -->
<!-- Title: Graphical Class Hierarchy Pages: 1 -->
<svg width="324pt" height="64pt"
 viewBox="0.00 0.00 324.00 64.00" xmlns="http://www.w3.org/2000/svg" xmlns:xlink="http://www.w3.org/1999/xlink">
<g id="graph0" class="graph" transform="scale(1 1) rotate(0) translate(4 60)">
<title>Graphical Class Hierarchy</title>
<!-- Node0 -->
<g id="Node000000" class="node">
<title>Node0</title>
<g id="a_Node000000"><a xlink:href="classwebkernel_1_1IHandler.html" target="_top" xlink:title="The IHandler class is an interface class for handling events.">
<polygon fill="white" stroke="#666666" points="114,-37 0,-37 0,-18 114,-18 114,-37"/>
<text text-anchor="middle" x="57" y="-25" font-family="Helvetica,sans-Serif" font-size="10.00">webkernel::IHandler</text>
</a>
</g>
</g>
<!-- Node1 -->
<g id="Node000001" class="node">
<title>Node1</title>
<g id="a_Node000001"><a xlink:href="classwebkernel_1_1Acceptor.html" target="_top" xlink:title="The Acceptor class is a concrete class for accepting connections.">
<polygon fill="white" stroke="#666666" points="291,-56 175,-56 175,-37 291,-37 291,-56"/>
<text text-anchor="middle" x="233" y="-44" font-family="Helvetica,sans-Serif" font-size="10.00">webkernel::Acceptor</text>
</a>
</g>
</g>
<!-- Node0&#45;&gt;Node1 -->
<g id="edge5_Node000000_Node000001" class="edge">
<title>Node0&#45;&gt;Node1</title>
<g id="a_edge5_Node000000_Node000001"><a xlink:title=" ">
<path fill="none" stroke="#63b8ff" d="M124.24,-34.73C140.93,-36.56 158.7,-38.5 174.9,-40.26"/>
<polygon fill="#63b8ff" stroke="#63b8ff" points="124.33,-31.22 114.01,-33.62 123.57,-38.18 124.33,-31.22"/>
</a>
</g>
</g>
<!-- Node2 -->
<g id="Node000002" class="node">
<title>Node2</title>
<g id="a_Node000002"><a xlink:href="classwebkernel_1_1ConnectionHandler.html" target="_top" xlink:title="The ConnectionHandler class is a concrete class for handling connections.">
<polygon fill="white" stroke="#666666" points="316,-19 150,-19 150,0 316,0 316,-19"/>
<text text-anchor="middle" x="233" y="-7" font-family="Helvetica,sans-Serif" font-size="10.00">webkernel::ConnectionHandler</text>
</a>
</g>
</g>
<!-- Node0&#45;&gt;Node2 -->
<g id="edge6_Node000000_Node000002" class="edge">
<title>Node0&#45;&gt;Node2</title>
<g id="a_edge6_Node000000_Node000002"><a xlink:title=" ">
<path fill="none" stroke="#63b8ff" d="M124.1,-20.66C132.51,-19.79 141.19,-18.89 149.8,-18"/>
<polygon fill="#63b8ff" stroke="#63b8ff" points="123.6,-17.2 114.01,-21.71 124.32,-24.16 123.6,-17.2"/>
</a>
</g>
</g>
</g>
</svg>
