<?xml version="1.0" encoding="UTF-8" standalone="no"?>
<!DOCTYPE svg PUBLIC "-//W3C//DTD SVG 1.1//EN"
 "http://www.w3.org/Graphics/SVG/1.1/DTD/svg11.dtd">
<!-- Generated by graphviz version 2.43.0 (0)
 -->
<!-- Title: Graphical Class Hierarchy Pages: 1 -->
<svg width="345pt" height="150pt"
 viewBox="0.00 0.00 345.00 150.00" xmlns="http://www.w3.org/2000/svg" xmlns:xlink="http://www.w3.org/1999/xlink">
<g id="graph0" class="graph" transform="scale(1 1) rotate(0) translate(4 146)">
<title>Graphical Class Hierarchy</title>
<!-- Node0 -->
<g id="Node000000" class="node">
<title>Node0</title>
<g id="a_Node000000"><a xlink:href="classwebconfig_1_1AConfigParser.html" target="_top" xlink:title="The AConfigParser class is an abstract base class for parsing configuration files.">
<polygon fill="white" stroke="#666666" points="140,-83 0,-83 0,-64 140,-64 140,-83"/>
<text text-anchor="middle" x="70" y="-71" font-family="Helvetica,sans-Serif" font-size="10.00">webconfig::AConfigParser</text>
</a>
</g>
</g>
<!-- Node1 -->
<g id="Node000001" class="node">
<title>Node1</title>
<g id="a_Node000001"><a xlink:href="classwebconfig_1_1ConfigGlobalBlock.html" target="_top" xlink:title="The ConfigGlobalBlock class is a concrete class for parsing the global block of the configuration fil...">
<polygon fill="white" stroke="#666666" points="337,-142 176,-142 176,-123 337,-123 337,-142"/>
<text text-anchor="middle" x="256.5" y="-130" font-family="Helvetica,sans-Serif" font-size="10.00">webconfig::ConfigGlobalBlock</text>
</a>
</g>
</g>
<!-- Node0&#45;&gt;Node1 -->
<g id="edge1_Node000000_Node000001" class="edge">
<title>Node0&#45;&gt;Node1</title>
<g id="a_edge1_Node000000_Node000001"><a xlink:title=" ">
<path fill="none" stroke="#63b8ff" d="M102.02,-87.03C122.7,-95.69 150.64,-106.73 176,-114.5 186.28,-117.65 197.47,-120.52 208.11,-122.99"/>
<polygon fill="#63b8ff" stroke="#63b8ff" points="103.36,-83.79 92.78,-83.11 100.63,-90.24 103.36,-83.79"/>
</a>
</g>
</g>
<!-- Node2 -->
<g id="Node000002" class="node">
<title>Node2</title>
<g id="a_Node000002"><a xlink:href="classwebconfig_1_1ConfigHttpBlock.html" target="_top" xlink:title="The ConfigHttpBlock class is a concrete class for parsing the http block of the configuration file.">
<polygon fill="white" stroke="#666666" points="332,-105 181,-105 181,-86 332,-86 332,-105"/>
<text text-anchor="middle" x="256.5" y="-93" font-family="Helvetica,sans-Serif" font-size="10.00">webconfig::ConfigHttpBlock</text>
</a>
</g>
</g>
<!-- Node0&#45;&gt;Node2 -->
<g id="edge2_Node000000_Node000002" class="edge">
<title>Node0&#45;&gt;Node2</title>
<g id="a_edge2_Node000000_Node000002"><a xlink:title=" ">
<path fill="none" stroke="#63b8ff" d="M150.3,-82.96C160.47,-84.17 170.86,-85.41 180.94,-86.61"/>
<polygon fill="#63b8ff" stroke="#63b8ff" points="150.57,-79.46 140.23,-81.75 149.74,-86.41 150.57,-79.46"/>
</a>
</g>
</g>
<!-- Node3 -->
<g id="Node000003" class="node">
<title>Node3</title>
<g id="a_Node000003"><a xlink:href="classwebconfig_1_1ConfigLocationBlock.html" target="_top" xlink:title="The ConfigLocationBlock class is a concrete class for parsing the location block of the configuration...">
<polygon fill="white" stroke="#666666" points="328.5,-67.5 184.5,-67.5 184.5,-37.5 328.5,-37.5 328.5,-67.5"/>
<text text-anchor="start" x="192.5" y="-55.5" font-family="Helvetica,sans-Serif" font-size="10.00">webconfig::ConfigLocation</text>
<text text-anchor="middle" x="256.5" y="-44.5" font-family="Helvetica,sans-Serif" font-size="10.00">Block</text>
</a>
</g>
</g>
<!-- Node0&#45;&gt;Node3 -->
<g id="edge3_Node000000_Node000003" class="edge">
<title>Node0&#45;&gt;Node3</title>
<g id="a_edge3_Node000000_Node000003"><a xlink:title=" ">
<path fill="none" stroke="#63b8ff" d="M150.48,-64.45C161.74,-63.17 173.26,-61.86 184.35,-60.6"/>
<polygon fill="#63b8ff" stroke="#63b8ff" points="149.77,-61.01 140.23,-65.62 150.56,-67.97 149.77,-61.01"/>
</a>
</g>
</g>
<!-- Node4 -->
<g id="Node000004" class="node">
<title>Node4</title>
<g id="a_Node000004"><a xlink:href="classwebconfig_1_1ConfigServerBlock.html" target="_top" xlink:title="The ConfigServerBlock class is a concrete class for parsing the server block of the configuration fil...">
<polygon fill="white" stroke="#666666" points="337,-19 176,-19 176,0 337,0 337,-19"/>
<text text-anchor="middle" x="256.5" y="-7" font-family="Helvetica,sans-Serif" font-size="10.00">webconfig::ConfigServerBlock</text>
</a>
</g>
</g>
<!-- Node0&#45;&gt;Node4 -->
<g id="edge4_Node000000_Node000004" class="edge">
<title>Node0&#45;&gt;Node4</title>
<g id="a_edge4_Node000000_Node000004"><a xlink:title=" ">
<path fill="none" stroke="#63b8ff" d="M99.97,-59.5C120.77,-49.84 149.67,-37.22 176,-28.5 186.78,-24.93 198.58,-21.74 209.72,-19.03"/>
<polygon fill="#63b8ff" stroke="#63b8ff" points="98.3,-56.42 90.74,-63.84 101.28,-62.75 98.3,-56.42"/>
</a>
</g>
</g>
</g>
</svg>
