<?xml version="1.0" encoding="UTF-8" standalone="no"?>
<!DOCTYPE svg PUBLIC "-//W3C//DTD SVG 1.1//EN"
 "http://www.w3.org/Graphics/SVG/1.1/DTD/svg11.dtd">
<!-- Generated by graphviz version 2.43.0 (0)
 -->
<!-- Title: include/kernel/Kernel.hpp Pages: 1 -->
<svg width="1407pt" height="412pt"
 viewBox="0.00 0.00 1407.00 412.00" xmlns="http://www.w3.org/2000/svg" xmlns:xlink="http://www.w3.org/1999/xlink">
<g id="graph0" class="graph" transform="scale(1 1) rotate(0) translate(4 408)">
<title>include/kernel/Kernel.hpp</title>
<!-- Node1 -->
<g id="Node000001" class="node">
<title>Node1</title>
<g id="a_Node000001"><a xlink:title=" ">
<polygon fill="#999999" stroke="#666666" points="1241,-404 1101,-404 1101,-385 1241,-385 1241,-404"/>
<text text-anchor="middle" x="1171" y="-392" font-family="Helvetica,sans-Serif" font-size="10.00">include/kernel/Kernel.hpp</text>
</a>
</g>
</g>
<!-- Node2 -->
<g id="Node000002" class="node">
<title>Node2</title>
<g id="a_Node000002"><a xlink:href="Config_8hpp.html" target="_top" xlink:title=" ">
<polygon fill="white" stroke="#666666" points="635,-349 567,-349 567,-330 635,-330 635,-349"/>
<text text-anchor="middle" x="601" y="-337" font-family="Helvetica,sans-Serif" font-size="10.00">Config.hpp</text>
</a>
</g>
</g>
<!-- Node1&#45;&gt;Node2 -->
<g id="edge1_Node000001_Node000002" class="edge">
<title>Node1&#45;&gt;Node2</title>
<g id="a_edge1_Node000001_Node000002"><a xlink:title=" ">
<path fill="none" stroke="#63b8ff" d="M1100.82,-386.97C981.81,-375.91 743.77,-353.77 645.25,-344.61"/>
<polygon fill="#63b8ff" stroke="#63b8ff" points="645.34,-341.11 635.05,-343.67 644.69,-348.08 645.34,-341.11"/>
</a>
</g>
</g>
<!-- Node6 -->
<g id="Node000006" class="node">
<title>Node6</title>
<g id="a_Node000006"><a xlink:href="defines_8hpp.html" target="_top" xlink:title=" ">
<polygon fill="white" stroke="#666666" points="632.5,-19 559.5,-19 559.5,0 632.5,0 632.5,-19"/>
<text text-anchor="middle" x="596" y="-7" font-family="Helvetica,sans-Serif" font-size="10.00">defines.hpp</text>
</a>
</g>
</g>
<!-- Node1&#45;&gt;Node6 -->
<g id="edge69_Node000001_Node000006" class="edge">
<title>Node1&#45;&gt;Node6</title>
<g id="a_edge69_Node000001_Node000006"><a xlink:title=" ">
<path fill="none" stroke="#63b8ff" d="M1100.98,-394.2C853.96,-395.77 38,-392.82 38,-285.5 38,-285.5 38,-285.5 38,-228.5 38,-137.13 121.6,-145.01 206,-110 292.25,-74.22 325.19,-105.78 413,-74 428.91,-68.24 430.45,-61.67 446,-55 479.64,-40.56 519.43,-28.99 549.57,-21.27"/>
<polygon fill="#63b8ff" stroke="#63b8ff" points="550.56,-24.64 559.4,-18.8 548.85,-17.85 550.56,-24.64"/>
</a>
</g>
</g>
<!-- Node14 -->
<g id="Node000014" class="node">
<title>Node14</title>
<g id="a_Node000014"><a xlink:title=" ">
<polygon fill="#e0e0e0" stroke="#999999" points="807,-19 747,-19 747,0 807,0 807,-19"/>
<text text-anchor="middle" x="777" y="-7" font-family="Helvetica,sans-Serif" font-size="10.00">iostream</text>
</a>
</g>
</g>
<!-- Node1&#45;&gt;Node14 -->
<g id="edge70_Node000001_Node000014" class="edge">
<title>Node1&#45;&gt;Node14</title>
<g id="a_edge70_Node000001_Node000014"><a xlink:title=" ">
<path fill="none" stroke="#63b8ff" d="M1100.56,-388.64C987.23,-378.88 777,-351.82 777,-285.5 777,-285.5 777,-285.5 777,-118.5 777,-87.19 777,-50.77 777,-29.23"/>
<polygon fill="#63b8ff" stroke="#63b8ff" points="780.5,-29.18 777,-19.18 773.5,-29.18 780.5,-29.18"/>
</a>
</g>
</g>
<!-- Node24 -->
<g id="Node000024" class="node">
<title>Node24</title>
<g id="a_Node000024"><a xlink:href="Reactor_8hpp.html" target="_top" xlink:title=" ">
<polygon fill="white" stroke="#666666" points="1103,-74 1029,-74 1029,-55 1103,-55 1103,-74"/>
<text text-anchor="middle" x="1066" y="-62" font-family="Helvetica,sans-Serif" font-size="10.00">Reactor.hpp</text>
</a>
</g>
</g>
<!-- Node1&#45;&gt;Node24 -->
<g id="edge46_Node000001_Node000024" class="edge">
<title>Node1&#45;&gt;Node24</title>
<g id="a_edge46_Node000001_Node000024"><a xlink:title=" ">
<path fill="none" stroke="#63b8ff" d="M1230.86,-384.99C1286.55,-373.3 1361,-346.3 1361,-285.5 1361,-285.5 1361,-285.5 1361,-173.5 1361,-144.04 1364.15,-129.42 1342,-110 1308.77,-80.85 1183.1,-70.66 1113.36,-67.2"/>
<polygon fill="#63b8ff" stroke="#63b8ff" points="1113.23,-63.69 1103.08,-66.72 1112.9,-70.68 1113.23,-63.69"/>
</a>
</g>
</g>
<!-- Node26 -->
<g id="Node000026" class="node">
<title>Node26</title>
<g id="a_Node000026"><a xlink:title=" ">
<polygon fill="#e0e0e0" stroke="#999999" points="1348.5,-19 1283.5,-19 1283.5,0 1348.5,0 1348.5,-19"/>
<text text-anchor="middle" x="1316" y="-7" font-family="Helvetica,sans-Serif" font-size="10.00">stdexcept</text>
</a>
</g>
</g>
<!-- Node1&#45;&gt;Node26 -->
<g id="edge72_Node000001_Node000026" class="edge">
<title>Node1&#45;&gt;Node26</title>
<g id="a_edge72_Node000001_Node000026"><a xlink:title=" ">
<path fill="none" stroke="#63b8ff" d="M1241.27,-389.13C1308.26,-380.71 1399,-356.24 1399,-285.5 1399,-285.5 1399,-285.5 1399,-118.5 1399,-78.1 1362.03,-43.52 1337.44,-24.99"/>
<polygon fill="#63b8ff" stroke="#63b8ff" points="1339.49,-22.15 1329.34,-19.12 1335.38,-27.82 1339.49,-22.15"/>
</a>
</g>
</g>
<!-- Node28 -->
<g id="Node000028" class="node">
<title>Node28</title>
<g id="a_Node000028"><a xlink:href="Acceptor_8hpp.html" target="_top" xlink:title=" ">
<polygon fill="white" stroke="#666666" points="1158,-184 1078,-184 1078,-165 1158,-165 1158,-184"/>
<text text-anchor="middle" x="1118" y="-172" font-family="Helvetica,sans-Serif" font-size="10.00">Acceptor.hpp</text>
</a>
</g>
</g>
<!-- Node1&#45;&gt;Node28 -->
<g id="edge54_Node000001_Node000028" class="edge">
<title>Node1&#45;&gt;Node28</title>
<g id="a_edge54_Node000001_Node000028"><a xlink:title=" ">
<path fill="none" stroke="#63b8ff" d="M1168.92,-384.95C1161.12,-352.88 1133.49,-239.2 1122.53,-194.12"/>
<polygon fill="#63b8ff" stroke="#63b8ff" points="1125.88,-193.11 1120.12,-184.22 1119.08,-194.77 1125.88,-193.11"/>
</a>
</g>
</g>
<!-- Node31 -->
<g id="Node000031" class="node">
<title>Node31</title>
<g id="a_Node000031"><a xlink:title=" ">
<polygon fill="#e0e0e0" stroke="#999999" points="1237.5,-129 1184.5,-129 1184.5,-110 1237.5,-110 1237.5,-129"/>
<text text-anchor="middle" x="1211" y="-117" font-family="Helvetica,sans-Serif" font-size="10.00">netdb.h</text>
</a>
</g>
</g>
<!-- Node1&#45;&gt;Node31 -->
<g id="edge71_Node000001_Node000031" class="edge">
<title>Node1&#45;&gt;Node31</title>
<g id="a_edge71_Node000001_Node000031"><a xlink:title=" ">
<path fill="none" stroke="#63b8ff" d="M1174.75,-384.73C1182.17,-366.56 1198,-323.38 1198,-285.5 1198,-285.5 1198,-285.5 1198,-228.5 1198,-196.96 1203.53,-160.62 1207.38,-139.15"/>
<polygon fill="#63b8ff" stroke="#63b8ff" points="1210.85,-139.61 1209.25,-129.14 1203.97,-138.33 1210.85,-139.61"/>
</a>
</g>
</g>
<!-- Node32 -->
<g id="Node000032" class="node">
<title>Node32</title>
<g id="a_Node000032"><a xlink:title=" ">
<polygon fill="#e0e0e0" stroke="#999999" points="1332.5,-129 1255.5,-129 1255.5,-110 1332.5,-110 1332.5,-129"/>
<text text-anchor="middle" x="1294" y="-117" font-family="Helvetica,sans-Serif" font-size="10.00">sys/socket.h</text>
</a>
</g>
</g>
<!-- Node1&#45;&gt;Node32 -->
<g id="edge73_Node000001_Node000032" class="edge">
<title>Node1&#45;&gt;Node32</title>
<g id="a_edge73_Node000001_Node000032"><a xlink:title=" ">
<path fill="none" stroke="#63b8ff" d="M1186.95,-384.83C1213.76,-368.96 1265,-332.48 1265,-285.5 1265,-285.5 1265,-285.5 1265,-228.5 1265,-195.95 1277.44,-159.71 1286.03,-138.57"/>
<polygon fill="#63b8ff" stroke="#63b8ff" points="1289.3,-139.82 1289.97,-129.25 1282.85,-137.09 1289.3,-139.82"/>
</a>
</g>
</g>
<!-- Node3 -->
<g id="Node000003" class="node">
<title>Node3</title>
<g id="a_Node000003"><a xlink:href="ConfigGlobalBlock_8hpp.html" target="_top" xlink:title=" ">
<polygon fill="white" stroke="#666666" points="479.5,-239 352.5,-239 352.5,-220 479.5,-220 479.5,-239"/>
<text text-anchor="middle" x="416" y="-227" font-family="Helvetica,sans-Serif" font-size="10.00">ConfigGlobalBlock.hpp</text>
</a>
</g>
</g>
<!-- Node2&#45;&gt;Node3 -->
<g id="edge2_Node000002_Node000003" class="edge">
<title>Node2&#45;&gt;Node3</title>
<g id="a_edge2_Node000002_Node000003"><a xlink:title=" ">
<path fill="none" stroke="#63b8ff" d="M586.17,-329.84C554.16,-311.16 478.35,-266.9 439.63,-244.3"/>
<polygon fill="#63b8ff" stroke="#63b8ff" points="441.04,-241.07 430.64,-239.05 437.51,-247.11 441.04,-241.07"/>
</a>
</g>
</g>
<!-- Node2&#45;&gt;Node6 -->
<g id="edge42_Node000002_Node000006" class="edge">
<title>Node2&#45;&gt;Node6</title>
<g id="a_edge42_Node000002_Node000006"><a xlink:title=" ">
<path fill="none" stroke="#63b8ff" d="M618.42,-329.86C647.07,-314.27 701,-278.54 701,-230.5 701,-230.5 701,-230.5 701,-173.5 701,-110.42 644.74,-52.36 614.59,-25.76"/>
<polygon fill="#63b8ff" stroke="#63b8ff" points="616.71,-22.97 606.84,-19.11 612.15,-28.28 616.71,-22.97"/>
</a>
</g>
</g>
<!-- Node2&#45;&gt;Node14 -->
<g id="edge43_Node000002_Node000014" class="edge">
<title>Node2&#45;&gt;Node14</title>
<g id="a_edge43_Node000002_Node000014"><a xlink:title=" ">
<path fill="none" stroke="#63b8ff" d="M630.6,-329.96C671.15,-316.24 739,-285.11 739,-230.5 739,-230.5 739,-230.5 739,-118.5 739,-85.02 755.45,-48.84 766.7,-28.01"/>
<polygon fill="#63b8ff" stroke="#63b8ff" points="769.87,-29.53 771.72,-19.1 763.76,-26.1 769.87,-29.53"/>
</a>
</g>
</g>
<!-- Node17 -->
<g id="Node000017" class="node">
<title>Node17</title>
<g id="a_Node000017"><a xlink:title=" ">
<polygon fill="#e0e0e0" stroke="#999999" points="110.5,-19 63.5,-19 63.5,0 110.5,0 110.5,-19"/>
<text text-anchor="middle" x="87" y="-7" font-family="Helvetica,sans-Serif" font-size="10.00">vector</text>
</a>
</g>
</g>
<!-- Node2&#45;&gt;Node17 -->
<g id="edge45_Node000002_Node000017" class="edge">
<title>Node2&#45;&gt;Node17</title>
<g id="a_edge45_Node000002_Node000017"><a xlink:title=" ">
<path fill="none" stroke="#63b8ff" d="M566.96,-337.04C472.01,-332.71 205.72,-318.64 122,-294 63.36,-276.74 0,-291.63 0,-230.5 0,-230.5 0,-230.5 0,-118.5 0,-77.58 38.35,-43.39 64.12,-25.03"/>
<polygon fill="#63b8ff" stroke="#63b8ff" points="66.35,-27.75 72.63,-19.21 62.4,-21.97 66.35,-27.75"/>
</a>
</g>
</g>
<!-- Node20 -->
<g id="Node000020" class="node">
<title>Node20</title>
<g id="a_Node000020"><a xlink:title=" ">
<polygon fill="#e0e0e0" stroke="#999999" points="635,-129 591,-129 591,-110 635,-110 635,-129"/>
<text text-anchor="middle" x="613" y="-117" font-family="Helvetica,sans-Serif" font-size="10.00">string</text>
</a>
</g>
</g>
<!-- Node2&#45;&gt;Node20 -->
<g id="edge44_Node000002_Node000020" class="edge">
<title>Node2&#45;&gt;Node20</title>
<g id="a_edge44_Node000002_Node000020"><a xlink:title=" ">
<path fill="none" stroke="#63b8ff" d="M606.19,-329.85C615.94,-313.06 636.64,-274.57 644,-239 651.5,-202.72 634.44,-160.94 622.77,-137.95"/>
<polygon fill="#63b8ff" stroke="#63b8ff" points="625.82,-136.24 618.04,-129.05 619.64,-139.52 625.82,-136.24"/>
</a>
</g>
</g>
<!-- Node21 -->
<g id="Node000021" class="node">
<title>Node21</title>
<g id="a_Node000021"><a xlink:href="ConfigHttpBlock_8hpp.html" target="_top" xlink:title=" ">
<polygon fill="white" stroke="#666666" points="296,-239 180,-239 180,-220 296,-220 296,-239"/>
<text text-anchor="middle" x="238" y="-227" font-family="Helvetica,sans-Serif" font-size="10.00">ConfigHttpBlock.hpp</text>
</a>
</g>
</g>
<!-- Node2&#45;&gt;Node21 -->
<g id="edge27_Node000002_Node000021" class="edge">
<title>Node2&#45;&gt;Node21</title>
<g id="a_edge27_Node000002_Node000021"><a xlink:title=" ">
<path fill="none" stroke="#63b8ff" d="M572.21,-329.94C507.35,-310.64 349.74,-263.74 276.54,-241.97"/>
<polygon fill="#63b8ff" stroke="#63b8ff" points="277.37,-238.56 266.79,-239.07 275.38,-245.27 277.37,-238.56"/>
</a>
</g>
</g>
<!-- Node22 -->
<g id="Node000022" class="node">
<title>Node22</title>
<g id="a_Node000022"><a xlink:href="ConfigServerBlock_8hpp.html" target="_top" xlink:title=" ">
<polygon fill="white" stroke="#666666" points="258.5,-294 131.5,-294 131.5,-275 258.5,-275 258.5,-294"/>
<text text-anchor="middle" x="195" y="-282" font-family="Helvetica,sans-Serif" font-size="10.00">ConfigServerBlock.hpp</text>
</a>
</g>
</g>
<!-- Node2&#45;&gt;Node22 -->
<g id="edge32_Node000002_Node000022" class="edge">
<title>Node2&#45;&gt;Node22</title>
<g id="a_edge32_Node000002_Node000022"><a xlink:title=" ">
<path fill="none" stroke="#63b8ff" d="M566.73,-334.03C501.2,-325.47 356.79,-306.62 268.5,-295.09"/>
<polygon fill="#63b8ff" stroke="#63b8ff" points="268.91,-291.62 258.55,-293.8 268.01,-298.56 268.91,-291.62"/>
</a>
</g>
</g>
<!-- Node4 -->
<g id="Node000004" class="node">
<title>Node4</title>
<g id="a_Node000004"><a xlink:href="AConfigParser_8hpp.html" target="_top" xlink:title=" ">
<polygon fill="white" stroke="#666666" points="489,-184 385,-184 385,-165 489,-165 489,-184"/>
<text text-anchor="middle" x="437" y="-172" font-family="Helvetica,sans-Serif" font-size="10.00">AConfigParser.hpp</text>
</a>
</g>
</g>
<!-- Node3&#45;&gt;Node4 -->
<g id="edge3_Node000003_Node000004" class="edge">
<title>Node3&#45;&gt;Node4</title>
<g id="a_edge3_Node000003_Node000004"><a xlink:title=" ">
<path fill="none" stroke="#63b8ff" d="M419.47,-219.75C422.28,-212.65 426.34,-202.4 429.85,-193.56"/>
<polygon fill="#63b8ff" stroke="#63b8ff" points="433.17,-194.68 433.6,-184.09 426.66,-192.1 433.17,-194.68"/>
</a>
</g>
</g>
<!-- Node19 -->
<g id="Node000019" class="node">
<title>Node19</title>
<g id="a_Node000019"><a xlink:title=" ">
<polygon fill="#e0e0e0" stroke="#999999" points="247,-129 215,-129 215,-110 247,-110 247,-129"/>
<text text-anchor="middle" x="231" y="-117" font-family="Helvetica,sans-Serif" font-size="10.00">set</text>
</a>
</g>
</g>
<!-- Node3&#45;&gt;Node19 -->
<g id="edge25_Node000003_Node000019" class="edge">
<title>Node3&#45;&gt;Node19</title>
<g id="a_edge25_Node000003_Node000019"><a xlink:title=" ">
<path fill="none" stroke="#63b8ff" d="M401.17,-219.84C369.16,-201.16 293.35,-156.9 254.63,-134.3"/>
<polygon fill="#63b8ff" stroke="#63b8ff" points="256.04,-131.07 245.64,-129.05 252.51,-137.11 256.04,-131.07"/>
</a>
</g>
</g>
<!-- Node3&#45;&gt;Node20 -->
<g id="edge26_Node000003_Node000020" class="edge">
<title>Node3&#45;&gt;Node20</title>
<g id="a_edge26_Node000003_Node000020"><a xlink:title=" ">
<path fill="none" stroke="#63b8ff" d="M432.05,-219.84C448.59,-210.89 475.13,-196.52 498,-184 529.3,-166.87 565.29,-146.96 588.55,-134.07"/>
<polygon fill="#63b8ff" stroke="#63b8ff" points="590.35,-137.07 597.4,-129.16 586.95,-130.95 590.35,-137.07"/>
</a>
</g>
</g>
<!-- Node5 -->
<g id="Node000005" class="node">
<title>Node5</title>
<g id="a_Node000005"><a xlink:href="config__utils_8hpp.html" target="_top" xlink:title=" ">
<polygon fill="white" stroke="#666666" points="496.5,-129 379.5,-129 379.5,-110 496.5,-110 496.5,-129"/>
<text text-anchor="middle" x="438" y="-117" font-family="Helvetica,sans-Serif" font-size="10.00">utils/config_utils.hpp</text>
</a>
</g>
</g>
<!-- Node4&#45;&gt;Node5 -->
<g id="edge4_Node000004_Node000005" class="edge">
<title>Node4&#45;&gt;Node5</title>
<g id="a_edge4_Node000004_Node000005"><a xlink:title=" ">
<path fill="none" stroke="#63b8ff" d="M437.17,-164.75C437.3,-157.8 437.48,-147.85 437.65,-139.13"/>
<polygon fill="#63b8ff" stroke="#63b8ff" points="441.15,-139.15 437.84,-129.09 434.15,-139.02 441.15,-139.15"/>
</a>
</g>
</g>
<!-- Node4&#45;&gt;Node6 -->
<g id="edge20_Node000004_Node000006" class="edge">
<title>Node4&#45;&gt;Node6</title>
<g id="a_edge20_Node000004_Node000006"><a xlink:title=" ">
<path fill="none" stroke="#63b8ff" d="M453.75,-164.88C468.48,-156.82 490,-143.82 506,-129 539.97,-97.54 570.48,-52.06 585.73,-27.6"/>
<polygon fill="#63b8ff" stroke="#63b8ff" points="588.73,-29.41 590.97,-19.05 582.76,-25.75 588.73,-29.41"/>
</a>
</g>
</g>
<!-- Node13 -->
<g id="Node000013" class="node">
<title>Node13</title>
<g id="a_Node000013"><a xlink:title=" ">
<polygon fill="#e0e0e0" stroke="#999999" points="248.5,-19 193.5,-19 193.5,0 248.5,0 248.5,-19"/>
<text text-anchor="middle" x="221" y="-7" font-family="Helvetica,sans-Serif" font-size="10.00">fstream</text>
</a>
</g>
</g>
<!-- Node4&#45;&gt;Node13 -->
<g id="edge21_Node000004_Node000013" class="edge">
<title>Node4&#45;&gt;Node13</title>
<g id="a_edge21_Node000004_Node000013"><a xlink:title=" ">
<path fill="none" stroke="#63b8ff" d="M423.75,-164.79C410.35,-155.92 389.09,-141.72 371,-129 337.19,-105.22 328.46,-99.59 296,-74 275.88,-58.14 253.55,-39.03 238.53,-25.95"/>
<polygon fill="#63b8ff" stroke="#63b8ff" points="240.83,-23.31 231,-19.36 236.22,-28.58 240.83,-23.31"/>
</a>
</g>
</g>
<!-- Node4&#45;&gt;Node14 -->
<g id="edge22_Node000004_Node000014" class="edge">
<title>Node4&#45;&gt;Node14</title>
<g id="a_edge22_Node000004_Node000014"><a xlink:title=" ">
<path fill="none" stroke="#63b8ff" d="M454.8,-164.97C510.67,-138.18 682.8,-55.66 749.86,-23.51"/>
<polygon fill="#63b8ff" stroke="#63b8ff" points="751.46,-26.63 758.96,-19.15 748.43,-20.31 751.46,-26.63"/>
</a>
</g>
</g>
<!-- Node4&#45;&gt;Node19 -->
<g id="edge23_Node000004_Node000019" class="edge">
<title>Node4&#45;&gt;Node19</title>
<g id="a_edge23_Node000004_Node000019"><a xlink:title=" ">
<path fill="none" stroke="#63b8ff" d="M403.9,-164.98C363.12,-154.49 294.65,-136.87 257.28,-127.26"/>
<polygon fill="#63b8ff" stroke="#63b8ff" points="257.73,-123.76 247.18,-124.66 255.99,-130.54 257.73,-123.76"/>
</a>
</g>
</g>
<!-- Node4&#45;&gt;Node20 -->
<g id="edge24_Node000004_Node000020" class="edge">
<title>Node4&#45;&gt;Node20</title>
<g id="a_edge24_Node000004_Node000020"><a xlink:title=" ">
<path fill="none" stroke="#63b8ff" d="M465.28,-164.98C496.98,-155.44 548.26,-140 581.3,-130.05"/>
<polygon fill="#63b8ff" stroke="#63b8ff" points="582.36,-133.38 590.92,-127.15 580.34,-126.68 582.36,-133.38"/>
</a>
</g>
</g>
<!-- Node5&#45;&gt;Node6 -->
<g id="edge5_Node000005_Node000006" class="edge">
<title>Node5&#45;&gt;Node6</title>
<g id="a_edge5_Node000005_Node000006"><a xlink:title=" ">
<path fill="none" stroke="#63b8ff" d="M450.66,-109.84C477.7,-91.36 541.34,-47.86 574.72,-25.05"/>
<polygon fill="#63b8ff" stroke="#63b8ff" points="577,-27.73 583.28,-19.2 573.05,-21.95 577,-27.73"/>
</a>
</g>
</g>
<!-- Node7 -->
<g id="Node000007" class="node">
<title>Node7</title>
<g id="a_Node000007"><a xlink:href="utils_8hpp.html" target="_top" xlink:title=" ">
<polygon fill="white" stroke="#666666" points="403.5,-74 344.5,-74 344.5,-55 403.5,-55 403.5,-74"/>
<text text-anchor="middle" x="374" y="-62" font-family="Helvetica,sans-Serif" font-size="10.00">utils.hpp</text>
</a>
</g>
</g>
<!-- Node5&#45;&gt;Node7 -->
<g id="edge6_Node000005_Node000007" class="edge">
<title>Node5&#45;&gt;Node7</title>
<g id="a_edge6_Node000005_Node000007"><a xlink:title=" ">
<path fill="none" stroke="#63b8ff" d="M427.72,-109.98C418.16,-102.07 403.72,-90.11 392.22,-80.58"/>
<polygon fill="#63b8ff" stroke="#63b8ff" points="394.4,-77.85 384.47,-74.17 389.94,-83.24 394.4,-77.85"/>
</a>
</g>
</g>
<!-- Node5&#45;&gt;Node13 -->
<g id="edge18_Node000005_Node000013" class="edge">
<title>Node5&#45;&gt;Node13</title>
<g id="a_edge18_Node000005_Node000013"><a xlink:title=" ">
<path fill="none" stroke="#63b8ff" d="M416.64,-109.86C395.82,-101.28 363.38,-87.5 336,-74 303.64,-58.05 267.35,-37.56 244.36,-24.24"/>
<polygon fill="#63b8ff" stroke="#63b8ff" points="246.06,-21.18 235.65,-19.17 242.53,-27.22 246.06,-21.18"/>
</a>
</g>
</g>
<!-- Node18 -->
<g id="Node000018" class="node">
<title>Node18</title>
<g id="a_Node000018"><a xlink:title=" ">
<polygon fill="#e0e0e0" stroke="#999999" points="1013,-19 975,-19 975,0 1013,0 1013,-19"/>
<text text-anchor="middle" x="994" y="-7" font-family="Helvetica,sans-Serif" font-size="10.00">map</text>
</a>
</g>
</g>
<!-- Node5&#45;&gt;Node18 -->
<g id="edge19_Node000005_Node000018" class="edge">
<title>Node5&#45;&gt;Node18</title>
<g id="a_edge19_Node000005_Node000018"><a xlink:title=" ">
<path fill="none" stroke="#63b8ff" d="M494.31,-109.95C589.56,-95.03 788.55,-61.94 965.08,-19.01"/>
<polygon fill="#63b8ff" stroke="#63b8ff" points="965.92,-22.41 974.8,-16.63 964.25,-15.61 965.92,-22.41"/>
</a>
</g>
</g>
<!-- Node7&#45;&gt;Node6 -->
<g id="edge7_Node000007_Node000006" class="edge">
<title>Node7&#45;&gt;Node6</title>
<g id="a_edge7_Node000007_Node000006"><a xlink:title=" ">
<path fill="none" stroke="#63b8ff" d="M403.94,-56.35C441.6,-47.36 506.64,-31.83 550.47,-21.37"/>
<polygon fill="#63b8ff" stroke="#63b8ff" points="551.39,-24.75 560.31,-19.02 549.77,-17.94 551.39,-24.75"/>
</a>
</g>
</g>
<!-- Node8 -->
<g id="Node000008" class="node">
<title>Node8</title>
<g id="a_Node000008"><a xlink:title=" ">
<polygon fill="#e0e0e0" stroke="#999999" points="331,-19 267,-19 267,0 331,0 331,-19"/>
<text text-anchor="middle" x="299" y="-7" font-family="Helvetica,sans-Serif" font-size="10.00">algorithm</text>
</a>
</g>
</g>
<!-- Node7&#45;&gt;Node8 -->
<g id="edge8_Node000007_Node000008" class="edge">
<title>Node7&#45;&gt;Node8</title>
<g id="a_edge8_Node000007_Node000008"><a xlink:title=" ">
<path fill="none" stroke="#63b8ff" d="M361.95,-54.98C350.54,-46.92 333.17,-34.65 319.57,-25.03"/>
<polygon fill="#63b8ff" stroke="#63b8ff" points="321.46,-22.08 311.27,-19.17 317.42,-27.8 321.46,-22.08"/>
</a>
</g>
</g>
<!-- Node9 -->
<g id="Node000009" class="node">
<title>Node9</title>
<g id="a_Node000009"><a xlink:title=" ">
<polygon fill="#e0e0e0" stroke="#999999" points="398.5,-19 349.5,-19 349.5,0 398.5,0 398.5,-19"/>
<text text-anchor="middle" x="374" y="-7" font-family="Helvetica,sans-Serif" font-size="10.00">cctype</text>
</a>
</g>
</g>
<!-- Node7&#45;&gt;Node9 -->
<g id="edge9_Node000007_Node000009" class="edge">
<title>Node7&#45;&gt;Node9</title>
<g id="a_edge9_Node000007_Node000009"><a xlink:title=" ">
<path fill="none" stroke="#63b8ff" d="M374,-54.75C374,-47.8 374,-37.85 374,-29.13"/>
<polygon fill="#63b8ff" stroke="#63b8ff" points="377.5,-29.09 374,-19.09 370.5,-29.09 377.5,-29.09"/>
</a>
</g>
</g>
<!-- Node10 -->
<g id="Node000010" class="node">
<title>Node10</title>
<g id="a_Node000010"><a xlink:title=" ">
<polygon fill="#e0e0e0" stroke="#999999" points="467,-19 417,-19 417,0 467,0 467,-19"/>
<text text-anchor="middle" x="442" y="-7" font-family="Helvetica,sans-Serif" font-size="10.00">cstring</text>
</a>
</g>
</g>
<!-- Node7&#45;&gt;Node10 -->
<g id="edge10_Node000007_Node000010" class="edge">
<title>Node7&#45;&gt;Node10</title>
<g id="a_edge10_Node000007_Node000010"><a xlink:title=" ">
<path fill="none" stroke="#63b8ff" d="M384.93,-54.98C395.08,-47.07 410.42,-35.11 422.65,-25.58"/>
<polygon fill="#63b8ff" stroke="#63b8ff" points="425.14,-28.08 430.88,-19.17 420.84,-22.56 425.14,-28.08"/>
</a>
</g>
</g>
<!-- Node11 -->
<g id="Node000011" class="node">
<title>Node11</title>
<g id="a_Node000011"><a xlink:title=" ">
<polygon fill="#e0e0e0" stroke="#999999" points="956.5,-19 905.5,-19 905.5,0 956.5,0 956.5,-19"/>
<text text-anchor="middle" x="931" y="-7" font-family="Helvetica,sans-Serif" font-size="10.00">errno.h</text>
</a>
</g>
</g>
<!-- Node7&#45;&gt;Node11 -->
<g id="edge11_Node000007_Node000011" class="edge">
<title>Node7&#45;&gt;Node11</title>
<g id="a_edge11_Node000007_Node000011"><a xlink:title=" ">
<path fill="none" stroke="#63b8ff" d="M403.55,-60.69C498.04,-51.7 792.61,-23.67 895.28,-13.9"/>
<polygon fill="#63b8ff" stroke="#63b8ff" points="895.81,-17.36 905.44,-12.93 895.15,-10.4 895.81,-17.36"/>
</a>
</g>
</g>
<!-- Node12 -->
<g id="Node000012" class="node">
<title>Node12</title>
<g id="a_Node000012"><a xlink:title=" ">
<polygon fill="#e0e0e0" stroke="#999999" points="175.5,-19 128.5,-19 128.5,0 175.5,0 175.5,-19"/>
<text text-anchor="middle" x="152" y="-7" font-family="Helvetica,sans-Serif" font-size="10.00">fcntl.h</text>
</a>
</g>
</g>
<!-- Node7&#45;&gt;Node12 -->
<g id="edge12_Node000007_Node000012" class="edge">
<title>Node7&#45;&gt;Node12</title>
<g id="a_edge12_Node000007_Node000012"><a xlink:title=" ">
<path fill="none" stroke="#63b8ff" d="M344.32,-56.83C308.77,-48.79 247.2,-34.66 185.62,-19.36"/>
<polygon fill="#63b8ff" stroke="#63b8ff" points="186.3,-15.92 175.75,-16.89 184.6,-22.71 186.3,-15.92"/>
</a>
</g>
</g>
<!-- Node7&#45;&gt;Node13 -->
<g id="edge13_Node000007_Node000013" class="edge">
<title>Node7&#45;&gt;Node13</title>
<g id="a_edge13_Node000007_Node000013"><a xlink:title=" ">
<path fill="none" stroke="#63b8ff" d="M349.42,-54.98C323.95,-46.16 283.96,-32.31 255.37,-22.41"/>
<polygon fill="#63b8ff" stroke="#63b8ff" points="256.37,-19.05 245.77,-19.08 254.08,-25.66 256.37,-19.05"/>
</a>
</g>
</g>
<!-- Node7&#45;&gt;Node14 -->
<g id="edge14_Node000007_Node000014" class="edge">
<title>Node7&#45;&gt;Node14</title>
<g id="a_edge14_Node000007_Node000014"><a xlink:title=" ">
<path fill="none" stroke="#63b8ff" d="M403.81,-60.18C464.67,-53.31 607.54,-36.68 727,-19 730.22,-18.52 733.56,-18.01 736.91,-17.47"/>
<polygon fill="#63b8ff" stroke="#63b8ff" points="737.59,-20.91 746.89,-15.83 736.46,-14 737.59,-20.91"/>
</a>
</g>
</g>
<!-- Node15 -->
<g id="Node000015" class="node">
<title>Node15</title>
<g id="a_Node000015"><a xlink:title=" ">
<polygon fill="#e0e0e0" stroke="#999999" points="541,-19 485,-19 485,0 541,0 541,-19"/>
<text text-anchor="middle" x="513" y="-7" font-family="Helvetica,sans-Serif" font-size="10.00">sstream</text>
</a>
</g>
</g>
<!-- Node7&#45;&gt;Node15 -->
<g id="edge15_Node000007_Node000015" class="edge">
<title>Node7&#45;&gt;Node15</title>
<g id="a_edge15_Node000007_Node000015"><a xlink:title=" ">
<path fill="none" stroke="#63b8ff" d="M396.33,-54.98C419.2,-46.27 454.96,-32.63 480.86,-22.75"/>
<polygon fill="#63b8ff" stroke="#63b8ff" points="482.16,-26 490.26,-19.17 479.67,-19.46 482.16,-26"/>
</a>
</g>
</g>
<!-- Node16 -->
<g id="Node000016" class="node">
<title>Node16</title>
<g id="a_Node000016"><a xlink:title=" ">
<polygon fill="#e0e0e0" stroke="#999999" points="718,-19 662,-19 662,0 718,0 718,-19"/>
<text text-anchor="middle" x="690" y="-7" font-family="Helvetica,sans-Serif" font-size="10.00">unistd.h</text>
</a>
</g>
</g>
<!-- Node7&#45;&gt;Node16 -->
<g id="edge16_Node000007_Node000016" class="edge">
<title>Node7&#45;&gt;Node16</title>
<g id="a_edge16_Node000007_Node000016"><a xlink:title=" ">
<path fill="none" stroke="#63b8ff" d="M403.76,-58.67C453.24,-50.6 555.54,-33.83 642,-19 645.21,-18.45 648.54,-17.87 651.88,-17.29"/>
<polygon fill="#63b8ff" stroke="#63b8ff" points="652.59,-20.72 661.84,-15.54 651.38,-13.82 652.59,-20.72"/>
</a>
</g>
</g>
<!-- Node7&#45;&gt;Node17 -->
<g id="edge17_Node000007_Node000017" class="edge">
<title>Node7&#45;&gt;Node17</title>
<g id="a_edge17_Node000007_Node000017"><a xlink:title=" ">
<path fill="none" stroke="#63b8ff" d="M344.39,-59.19C298.46,-52.31 207.09,-37.91 120.68,-19.22"/>
<polygon fill="#63b8ff" stroke="#63b8ff" points="121.23,-15.76 110.71,-17.04 119.73,-22.6 121.23,-15.76"/>
</a>
</g>
</g>
<!-- Node21&#45;&gt;Node4 -->
<g id="edge28_Node000021_Node000004" class="edge">
<title>Node21&#45;&gt;Node4</title>
<g id="a_edge28_Node000021_Node000004"><a xlink:title=" ">
<path fill="none" stroke="#63b8ff" d="M269.97,-219.98C303.82,-210.97 357.4,-196.7 394.71,-186.76"/>
<polygon fill="#63b8ff" stroke="#63b8ff" points="396.01,-190.04 404.78,-184.08 394.21,-183.27 396.01,-190.04"/>
</a>
</g>
</g>
<!-- Node21&#45;&gt;Node6 -->
<g id="edge29_Node000021_Node000006" class="edge">
<title>Node21&#45;&gt;Node6</title>
<g id="a_edge29_Node000021_Node000006"><a xlink:title=" ">
<path fill="none" stroke="#63b8ff" d="M245.95,-219.74C265.51,-198.59 318.22,-143.99 371,-110 388.45,-98.77 509.06,-47.25 566.16,-23.08"/>
<polygon fill="#63b8ff" stroke="#63b8ff" points="567.87,-26.16 575.72,-19.04 565.15,-19.71 567.87,-26.16"/>
</a>
</g>
</g>
<!-- Node21&#45;&gt;Node17 -->
<g id="edge31_Node000021_Node000017" class="edge">
<title>Node21&#45;&gt;Node17</title>
<g id="a_edge31_Node000021_Node000017"><a xlink:title=" ">
<path fill="none" stroke="#63b8ff" d="M232.08,-219.95C209.63,-187.54 129.45,-71.78 98.92,-27.71"/>
<polygon fill="#63b8ff" stroke="#63b8ff" points="101.61,-25.45 93.04,-19.22 95.86,-29.44 101.61,-25.45"/>
</a>
</g>
</g>
<!-- Node21&#45;&gt;Node19 -->
<g id="edge30_Node000021_Node000019" class="edge">
<title>Node21&#45;&gt;Node19</title>
<g id="a_edge30_Node000021_Node000019"><a xlink:title=" ">
<path fill="none" stroke="#63b8ff" d="M237.43,-219.66C236.29,-202.17 233.74,-162.8 232.22,-139.27"/>
<polygon fill="#63b8ff" stroke="#63b8ff" points="235.7,-138.91 231.56,-129.16 228.72,-139.36 235.7,-138.91"/>
</a>
</g>
</g>
<!-- Node22&#45;&gt;Node4 -->
<g id="edge33_Node000022_Node000004" class="edge">
<title>Node22&#45;&gt;Node4</title>
<g id="a_edge33_Node000022_Node000004"><a xlink:title=" ">
<path fill="none" stroke="#63b8ff" d="M217.52,-274.91C239.89,-266.26 275.08,-252.32 305,-239 322.61,-231.16 326.64,-228.38 344,-220 366.1,-209.33 391.2,-197.33 409.75,-188.48"/>
<polygon fill="#63b8ff" stroke="#63b8ff" points="411.28,-191.62 418.81,-184.16 408.27,-185.3 411.28,-191.62"/>
</a>
</g>
</g>
<!-- Node22&#45;&gt;Node12 -->
<g id="edge39_Node000022_Node000012" class="edge">
<title>Node22&#45;&gt;Node12</title>
<g id="a_edge39_Node000022_Node000012"><a xlink:title=" ">
<path fill="none" stroke="#63b8ff" d="M187.25,-274.69C180.3,-266.19 170.52,-252.66 166,-239 141.35,-164.47 146.4,-68.93 150,-29.17"/>
<polygon fill="#63b8ff" stroke="#63b8ff" points="153.49,-29.39 150.99,-19.09 146.53,-28.7 153.49,-29.39"/>
</a>
</g>
</g>
<!-- Node22&#45;&gt;Node17 -->
<g id="edge41_Node000022_Node000017" class="edge">
<title>Node22&#45;&gt;Node17</title>
<g id="a_edge41_Node000022_Node000017"><a xlink:title=" ">
<path fill="none" stroke="#63b8ff" d="M185.63,-274.79C177.07,-266.38 164.63,-252.89 157,-239 117.48,-167.01 97.23,-69.75 90.07,-29.33"/>
<polygon fill="#63b8ff" stroke="#63b8ff" points="93.49,-28.57 88.36,-19.3 86.59,-29.74 93.49,-28.57"/>
</a>
</g>
</g>
<!-- Node22&#45;&gt;Node19 -->
<g id="edge40_Node000022_Node000019" class="edge">
<title>Node22&#45;&gt;Node19</title>
<g id="a_edge40_Node000022_Node000019"><a xlink:title=" ">
<path fill="none" stroke="#63b8ff" d="M187.8,-274.63C178.87,-262.5 165.44,-239.98 171,-220 179.96,-187.79 202.47,-155.58 217.23,-136.87"/>
<polygon fill="#63b8ff" stroke="#63b8ff" points="219.99,-139.02 223.57,-129.05 214.55,-134.61 219.99,-139.02"/>
</a>
</g>
</g>
<!-- Node23 -->
<g id="Node000023" class="node">
<title>Node23</title>
<g id="a_Node000023"><a xlink:href="ConfigLocationBlock_8hpp.html" target="_top" xlink:title=" ">
<polygon fill="white" stroke="#666666" points="634.5,-239 497.5,-239 497.5,-220 634.5,-220 634.5,-239"/>
<text text-anchor="middle" x="566" y="-227" font-family="Helvetica,sans-Serif" font-size="10.00">ConfigLocationBlock.hpp</text>
</a>
</g>
</g>
<!-- Node22&#45;&gt;Node23 -->
<g id="edge34_Node000022_Node000023" class="edge">
<title>Node22&#45;&gt;Node23</title>
<g id="a_edge34_Node000022_Node000023"><a xlink:title=" ">
<path fill="none" stroke="#63b8ff" d="M254.61,-274.98C320.5,-265.57 426.51,-250.43 496.22,-240.47"/>
<polygon fill="#63b8ff" stroke="#63b8ff" points="496.83,-243.92 506.23,-239.04 495.84,-236.99 496.83,-243.92"/>
</a>
</g>
</g>
<!-- Node23&#45;&gt;Node4 -->
<g id="edge35_Node000023_Node000004" class="edge">
<title>Node23&#45;&gt;Node4</title>
<g id="a_edge35_Node000023_Node000004"><a xlink:title=" ">
<path fill="none" stroke="#63b8ff" d="M545.27,-219.98C524.24,-211.34 491.45,-197.87 467.46,-188.02"/>
<polygon fill="#63b8ff" stroke="#63b8ff" points="468.68,-184.73 458.1,-184.17 466.02,-191.21 468.68,-184.73"/>
</a>
</g>
</g>
<!-- Node23&#45;&gt;Node6 -->
<g id="edge36_Node000023_Node000006" class="edge">
<title>Node23&#45;&gt;Node6</title>
<g id="a_edge36_Node000023_Node000006"><a xlink:title=" ">
<path fill="none" stroke="#63b8ff" d="M576.26,-219.96C594.26,-204.22 630.87,-168.58 644,-129 646.66,-120.99 647.06,-117.87 644,-110 636.13,-89.77 621.16,-93.18 611,-74 603.62,-60.06 599.83,-42.5 597.91,-29.39"/>
<polygon fill="#63b8ff" stroke="#63b8ff" points="601.35,-28.7 596.66,-19.2 594.4,-29.55 601.35,-28.7"/>
</a>
</g>
</g>
<!-- Node23&#45;&gt;Node17 -->
<g id="edge38_Node000023_Node000017" class="edge">
<title>Node23&#45;&gt;Node17</title>
<g id="a_edge38_Node000023_Node000017"><a xlink:title=" ">
<path fill="none" stroke="#63b8ff" d="M508.39,-219.99C469.93,-213.12 418.75,-201.64 376,-184 318.08,-160.1 309.67,-142.34 256,-110 204.51,-78.97 143.65,-43.41 110.84,-24.33"/>
<polygon fill="#63b8ff" stroke="#63b8ff" points="112.39,-21.18 101.98,-19.18 108.87,-27.23 112.39,-21.18"/>
</a>
</g>
</g>
<!-- Node23&#45;&gt;Node20 -->
<g id="edge37_Node000023_Node000020" class="edge">
<title>Node23&#45;&gt;Node20</title>
<g id="a_edge37_Node000023_Node000020"><a xlink:title=" ">
<path fill="none" stroke="#63b8ff" d="M569.85,-219.66C577.53,-202.01 594.9,-162.09 605.11,-138.64"/>
<polygon fill="#63b8ff" stroke="#63b8ff" points="608.45,-139.72 609.23,-129.16 602.03,-136.93 608.45,-139.72"/>
</a>
</g>
</g>
<!-- Node24&#45;&gt;Node6 -->
<g id="edge48_Node000024_Node000006" class="edge">
<title>Node24&#45;&gt;Node6</title>
<g id="a_edge48_Node000024_Node000006"><a xlink:title=" ">
<path fill="none" stroke="#63b8ff" d="M1028.92,-60.02C956.54,-53.1 791.41,-36.77 653,-19 649.73,-18.58 646.35,-18.13 642.95,-17.66"/>
<polygon fill="#63b8ff" stroke="#63b8ff" points="643.16,-14.15 632.76,-16.21 642.17,-21.08 643.16,-14.15"/>
</a>
</g>
</g>
<!-- Node24&#45;&gt;Node14 -->
<g id="edge49_Node000024_Node000014" class="edge">
<title>Node24&#45;&gt;Node14</title>
<g id="a_edge49_Node000024_Node000014"><a xlink:title=" ">
<path fill="none" stroke="#63b8ff" d="M1028.81,-56.68C974.27,-46.68 873.02,-28.11 816.95,-17.83"/>
<polygon fill="#63b8ff" stroke="#63b8ff" points="817.5,-14.37 807.03,-16.01 816.23,-21.25 817.5,-14.37"/>
</a>
</g>
</g>
<!-- Node24&#45;&gt;Node16 -->
<g id="edge53_Node000024_Node000016" class="edge">
<title>Node24&#45;&gt;Node16</title>
<g id="a_edge53_Node000024_Node000016"><a xlink:title=" ">
<path fill="none" stroke="#63b8ff" d="M1028.54,-58.92C967.55,-51.35 843.04,-35.42 738,-19 734.78,-18.5 731.44,-17.95 728.1,-17.39"/>
<polygon fill="#63b8ff" stroke="#63b8ff" points="728.59,-13.92 718.14,-15.68 727.4,-20.82 728.59,-13.92"/>
</a>
</g>
</g>
<!-- Node24&#45;&gt;Node18 -->
<g id="edge50_Node000024_Node000018" class="edge">
<title>Node24&#45;&gt;Node18</title>
<g id="a_edge50_Node000024_Node000018"><a xlink:title=" ">
<path fill="none" stroke="#63b8ff" d="M1054.43,-54.98C1043.58,-47 1027.12,-34.88 1014.12,-25.31"/>
<polygon fill="#63b8ff" stroke="#63b8ff" points="1015.91,-22.28 1005.78,-19.17 1011.76,-27.92 1015.91,-22.28"/>
</a>
</g>
</g>
<!-- Node25 -->
<g id="Node000025" class="node">
<title>Node25</title>
<g id="a_Node000025"><a xlink:href="IHandler_8hpp.html" target="_top" xlink:title=" ">
<polygon fill="white" stroke="#666666" points="1197,-19 1119,-19 1119,0 1197,0 1197,-19"/>
<text text-anchor="middle" x="1158" y="-7" font-family="Helvetica,sans-Serif" font-size="10.00">IHandler.hpp</text>
</a>
</g>
</g>
<!-- Node24&#45;&gt;Node25 -->
<g id="edge47_Node000024_Node000025" class="edge">
<title>Node24&#45;&gt;Node25</title>
<g id="a_edge47_Node000024_Node000025"><a xlink:title=" ">
<path fill="none" stroke="#63b8ff" d="M1080.78,-54.98C1095.18,-46.69 1117.31,-33.94 1134.19,-24.22"/>
<polygon fill="#63b8ff" stroke="#63b8ff" points="1136.03,-27.19 1142.95,-19.17 1132.54,-21.13 1136.03,-27.19"/>
</a>
</g>
</g>
<!-- Node24&#45;&gt;Node26 -->
<g id="edge51_Node000024_Node000026" class="edge">
<title>Node24&#45;&gt;Node26</title>
<g id="a_edge51_Node000024_Node000026"><a xlink:title=" ">
<path fill="none" stroke="#63b8ff" d="M1103.16,-55.62C1148.65,-45.98 1225.53,-29.68 1273.38,-19.54"/>
<polygon fill="#63b8ff" stroke="#63b8ff" points="1274.36,-22.9 1283.42,-17.41 1272.91,-16.06 1274.36,-22.9"/>
</a>
</g>
</g>
<!-- Node27 -->
<g id="Node000027" class="node">
<title>Node27</title>
<g id="a_Node000027"><a xlink:title=" ">
<polygon fill="#e0e0e0" stroke="#999999" points="1100.5,-19 1031.5,-19 1031.5,0 1100.5,0 1100.5,-19"/>
<text text-anchor="middle" x="1066" y="-7" font-family="Helvetica,sans-Serif" font-size="10.00">sys/epoll.h</text>
</a>
</g>
</g>
<!-- Node24&#45;&gt;Node27 -->
<g id="edge52_Node000024_Node000027" class="edge">
<title>Node24&#45;&gt;Node27</title>
<g id="a_edge52_Node000024_Node000027"><a xlink:title=" ">
<path fill="none" stroke="#63b8ff" d="M1066,-54.75C1066,-47.8 1066,-37.85 1066,-29.13"/>
<polygon fill="#63b8ff" stroke="#63b8ff" points="1069.5,-29.09 1066,-19.09 1062.5,-29.09 1069.5,-29.09"/>
</a>
</g>
</g>
<!-- Node28&#45;&gt;Node11 -->
<g id="edge64_Node000028_Node000011" class="edge">
<title>Node28&#45;&gt;Node11</title>
<g id="a_edge64_Node000028_Node000011"><a xlink:title=" ">
<path fill="none" stroke="#63b8ff" d="M1120.67,-164.83C1126.68,-143.41 1138.75,-87.41 1112,-55 1111.71,-54.64 1019.53,-32.1 966.85,-19.24"/>
<polygon fill="#63b8ff" stroke="#63b8ff" points="967.42,-15.78 956.88,-16.81 965.76,-22.58 967.42,-15.78"/>
</a>
</g>
</g>
<!-- Node28&#45;&gt;Node14 -->
<g id="edge65_Node000028_Node000014" class="edge">
<title>Node28&#45;&gt;Node14</title>
<g id="a_edge65_Node000028_Node000014"><a xlink:title=" ">
<path fill="none" stroke="#63b8ff" d="M1077.94,-172.82C1030.25,-170.47 949.47,-161.5 889,-129 843.25,-104.41 805.55,-54.2 787.86,-27.72"/>
<polygon fill="#63b8ff" stroke="#63b8ff" points="790.66,-25.61 782.27,-19.14 784.79,-29.43 790.66,-25.61"/>
</a>
</g>
</g>
<!-- Node28&#45;&gt;Node24 -->
<g id="edge56_Node000028_Node000024" class="edge">
<title>Node28&#45;&gt;Node24</title>
<g id="a_edge56_Node000028_Node000024"><a xlink:title=" ">
<path fill="none" stroke="#63b8ff" d="M1113.74,-164.66C1105.21,-146.93 1085.85,-106.73 1074.58,-83.32"/>
<polygon fill="#63b8ff" stroke="#63b8ff" points="1077.66,-81.65 1070.17,-74.16 1071.35,-84.69 1077.66,-81.65"/>
</a>
</g>
</g>
<!-- Node28&#45;&gt;Node25 -->
<g id="edge55_Node000028_Node000025" class="edge">
<title>Node28&#45;&gt;Node25</title>
<g id="a_edge55_Node000028_Node000025"><a xlink:title=" ">
<path fill="none" stroke="#63b8ff" d="M1126.27,-164.82C1141.11,-148.57 1171.76,-111.77 1183,-74 1187.79,-57.92 1179.63,-40.2 1171.38,-27.57"/>
<polygon fill="#63b8ff" stroke="#63b8ff" points="1174.19,-25.49 1165.54,-19.37 1168.49,-29.55 1174.19,-25.49"/>
</a>
</g>
</g>
<!-- Node29 -->
<g id="Node000029" class="node">
<title>Node29</title>
<g id="a_Node000029"><a xlink:href="ConnectionHandler_8hpp.html" target="_top" xlink:title=" ">
<polygon fill="white" stroke="#666666" points="1052,-129 922,-129 922,-110 1052,-110 1052,-129"/>
<text text-anchor="middle" x="987" y="-117" font-family="Helvetica,sans-Serif" font-size="10.00">ConnectionHandler.hpp</text>
</a>
</g>
</g>
<!-- Node28&#45;&gt;Node29 -->
<g id="edge57_Node000028_Node000029" class="edge">
<title>Node28&#45;&gt;Node29</title>
<g id="a_edge57_Node000028_Node000029"><a xlink:title=" ">
<path fill="none" stroke="#63b8ff" d="M1096.95,-164.98C1075.59,-156.34 1042.3,-142.87 1017.94,-133.02"/>
<polygon fill="#63b8ff" stroke="#63b8ff" points="1019.01,-129.68 1008.43,-129.17 1016.39,-136.17 1019.01,-129.68"/>
</a>
</g>
</g>
<!-- Node30 -->
<g id="Node000030" class="node">
<title>Node30</title>
<g id="a_Node000030"><a xlink:title=" ">
<polygon fill="#e0e0e0" stroke="#999999" points="896.5,-74 843.5,-74 843.5,-55 896.5,-55 896.5,-74"/>
<text text-anchor="middle" x="870" y="-62" font-family="Helvetica,sans-Serif" font-size="10.00">string.h</text>
</a>
</g>
</g>
<!-- Node28&#45;&gt;Node30 -->
<g id="edge67_Node000028_Node000030" class="edge">
<title>Node28&#45;&gt;Node30</title>
<g id="a_edge67_Node000028_Node000030"><a xlink:title=" ">
<path fill="none" stroke="#63b8ff" d="M1077.97,-173.41C1033.98,-171.47 962.93,-162.77 913,-129 896.49,-117.84 884.59,-98.02 877.55,-83.49"/>
<polygon fill="#63b8ff" stroke="#63b8ff" points="880.59,-81.71 873.29,-74.03 874.21,-84.59 880.59,-81.71"/>
</a>
</g>
</g>
<!-- Node28&#45;&gt;Node31 -->
<g id="edge66_Node000028_Node000031" class="edge">
<title>Node28&#45;&gt;Node31</title>
<g id="a_edge66_Node000028_Node000031"><a xlink:title=" ">
<path fill="none" stroke="#63b8ff" d="M1132.94,-164.98C1147.5,-156.69 1169.87,-143.94 1186.93,-134.22"/>
<polygon fill="#63b8ff" stroke="#63b8ff" points="1188.83,-137.16 1195.79,-129.17 1185.36,-131.08 1188.83,-137.16"/>
</a>
</g>
</g>
<!-- Node28&#45;&gt;Node32 -->
<g id="edge68_Node000028_Node000032" class="edge">
<title>Node28&#45;&gt;Node32</title>
<g id="a_edge68_Node000028_Node000032"><a xlink:title=" ">
<path fill="none" stroke="#63b8ff" d="M1146.28,-164.98C1175.95,-156.05 1222.79,-141.94 1255.75,-132.02"/>
<polygon fill="#63b8ff" stroke="#63b8ff" points="1256.93,-135.32 1265.5,-129.08 1254.92,-128.61 1256.93,-135.32"/>
</a>
</g>
</g>
<!-- Node29&#45;&gt;Node6 -->
<g id="edge60_Node000029_Node000006" class="edge">
<title>Node29&#45;&gt;Node6</title>
<g id="a_edge60_Node000029_Node000006"><a xlink:title=" ">
<path fill="none" stroke="#63b8ff" d="M979,-109.78C965.48,-95.65 936.57,-68.04 906,-55 801.53,-10.45 765.39,-35.38 653,-19 649.73,-18.52 646.36,-18.03 642.97,-17.53"/>
<polygon fill="#63b8ff" stroke="#63b8ff" points="643.19,-14.02 632.79,-16.02 642.17,-20.95 643.19,-14.02"/>
</a>
</g>
</g>
<!-- Node29&#45;&gt;Node11 -->
<g id="edge61_Node000029_Node000011" class="edge">
<title>Node29&#45;&gt;Node11</title>
<g id="a_edge61_Node000029_Node000011"><a xlink:title=" ">
<path fill="none" stroke="#63b8ff" d="M987.33,-109.75C987.44,-96.98 986.26,-72.83 977,-55 971.04,-43.52 960.99,-33.29 951.81,-25.53"/>
<polygon fill="#63b8ff" stroke="#63b8ff" points="953.76,-22.62 943.75,-19.14 949.41,-28.1 953.76,-22.62"/>
</a>
</g>
</g>
<!-- Node29&#45;&gt;Node14 -->
<g id="edge62_Node000029_Node000014" class="edge">
<title>Node29&#45;&gt;Node14</title>
<g id="a_edge62_Node000029_Node000014"><a xlink:title=" ">
<path fill="none" stroke="#63b8ff" d="M982.74,-109.64C975.64,-95.83 960.05,-69.27 939,-55 902.35,-30.15 852.21,-19.13 817.46,-14.27"/>
<polygon fill="#63b8ff" stroke="#63b8ff" points="817.56,-10.75 807.2,-12.95 816.67,-17.69 817.56,-10.75"/>
</a>
</g>
</g>
<!-- Node29&#45;&gt;Node24 -->
<g id="edge59_Node000029_Node000024" class="edge">
<title>Node29&#45;&gt;Node24</title>
<g id="a_edge59_Node000029_Node000024"><a xlink:title=" ">
<path fill="none" stroke="#63b8ff" d="M999.69,-109.98C1011.83,-101.84 1030.36,-89.41 1044.75,-79.76"/>
<polygon fill="#63b8ff" stroke="#63b8ff" points="1046.72,-82.65 1053.08,-74.17 1042.82,-76.84 1046.72,-82.65"/>
</a>
</g>
</g>
<!-- Node29&#45;&gt;Node25 -->
<g id="edge58_Node000029_Node000025" class="edge">
<title>Node29&#45;&gt;Node25</title>
<g id="a_edge58_Node000029_Node000025"><a xlink:title=" ">
<path fill="none" stroke="#63b8ff" d="M1030.03,-109.97C1055.68,-103.32 1087.85,-92.09 1112,-74 1128.13,-61.92 1140.99,-42.57 1148.97,-28.4"/>
<polygon fill="#63b8ff" stroke="#63b8ff" points="1152.27,-29.65 1153.89,-19.18 1146.09,-26.35 1152.27,-29.65"/>
</a>
</g>
</g>
<!-- Node29&#45;&gt;Node30 -->
<g id="edge63_Node000029_Node000030" class="edge">
<title>Node29&#45;&gt;Node30</title>
<g id="a_edge63_Node000029_Node000030"><a xlink:title=" ">
<path fill="none" stroke="#63b8ff" d="M968.2,-109.98C949.38,-101.46 920.18,-88.23 898.5,-78.41"/>
<polygon fill="#63b8ff" stroke="#63b8ff" points="899.69,-75.11 889.14,-74.17 896.8,-81.48 899.69,-75.11"/>
</a>
</g>
</g>
</g>
</svg>
