<?xml version="1.0" encoding="UTF-8" standalone="no"?>
<!DOCTYPE svg PUBLIC "-//W3C//DTD SVG 1.1//EN"
 "http://www.w3.org/Graphics/SVG/1.1/DTD/svg11.dtd">
<!-- Generated by graphviz version 2.43.0 (0)
 -->
<!-- Title: include/utils/Logger.hpp Pages: 1 -->
<svg width="1542pt" height="93pt"
 viewBox="0.00 0.00 1541.50 93.00" xmlns="http://www.w3.org/2000/svg" xmlns:xlink="http://www.w3.org/1999/xlink">
<g id="graph0" class="graph" transform="scale(1 1) rotate(0) translate(4 89)">
<title>include/utils/Logger.hpp</title>
<!-- Node1 -->
<g id="Node000001" class="node">
<title>Node1</title>
<g id="a_Node000001"><a xlink:title=" ">
<polygon fill="#999999" stroke="#666666" points="866.5,-85 734.5,-85 734.5,-66 866.5,-66 866.5,-85"/>
<text text-anchor="middle" x="800.5" y="-73" font-family="Helvetica,sans-Serif" font-size="10.00">include/utils/Logger.hpp</text>
</a>
</g>
</g>
<!-- Node2 -->
<g id="Node000002" class="node">
<title>Node2</title>
<g id="a_Node000002"><a xlink:href="Config_8cpp.html" target="_top" xlink:title=" ">
<polygon fill="white" stroke="#666666" points="135,-24.5 0,-24.5 0,-5.5 135,-5.5 135,-24.5"/>
<text text-anchor="middle" x="67.5" y="-12.5" font-family="Helvetica,sans-Serif" font-size="10.00">source/config/Config.cpp</text>
</a>
</g>
</g>
<!-- Node1&#45;&gt;Node2 -->
<g id="edge1_Node000001_Node000002" class="edge">
<title>Node1&#45;&gt;Node2</title>
<g id="a_edge1_Node000001_Node000002"><a xlink:title=" ">
<path fill="none" stroke="#63b8ff" d="M724.11,-72.1C601.49,-67.62 353.29,-55.98 144.5,-30 133.17,-28.59 120.99,-26.6 109.73,-24.56"/>
<polygon fill="#63b8ff" stroke="#63b8ff" points="724.04,-75.6 734.15,-72.46 724.29,-68.6 724.04,-75.6"/>
</a>
</g>
</g>
<!-- Node3 -->
<g id="Node000003" class="node">
<title>Node3</title>
<g id="a_Node000003"><a xlink:href="ConfigGlobalBlock_8cpp.html" target="_top" xlink:title=" ">
<polygon fill="white" stroke="#666666" points="299.5,-30 153.5,-30 153.5,0 299.5,0 299.5,-30"/>
<text text-anchor="start" x="161.5" y="-18" font-family="Helvetica,sans-Serif" font-size="10.00">source/config/ConfigGlobal</text>
<text text-anchor="middle" x="226.5" y="-7" font-family="Helvetica,sans-Serif" font-size="10.00">Block.cpp</text>
</a>
</g>
</g>
<!-- Node1&#45;&gt;Node3 -->
<g id="edge2_Node000001_Node000003" class="edge">
<title>Node1&#45;&gt;Node3</title>
<g id="a_edge2_Node000001_Node000003"><a xlink:title=" ">
<path fill="none" stroke="#63b8ff" d="M724.27,-69.48C627.39,-62.67 455.12,-49.12 308.5,-30 305.64,-29.63 302.72,-29.23 299.77,-28.8"/>
<polygon fill="#63b8ff" stroke="#63b8ff" points="724.05,-72.97 734.27,-70.18 724.53,-65.99 724.05,-72.97"/>
</a>
</g>
</g>
<!-- Node4 -->
<g id="Node000004" class="node">
<title>Node4</title>
<g id="a_Node000004"><a xlink:href="ConfigHttpBlock_8cpp.html" target="_top" xlink:title=" ">
<polygon fill="white" stroke="#666666" points="453.5,-30 317.5,-30 317.5,0 453.5,0 453.5,-30"/>
<text text-anchor="start" x="325.5" y="-18" font-family="Helvetica,sans-Serif" font-size="10.00">source/config/ConfigHttp</text>
<text text-anchor="middle" x="385.5" y="-7" font-family="Helvetica,sans-Serif" font-size="10.00">Block.cpp</text>
</a>
</g>
</g>
<!-- Node1&#45;&gt;Node4 -->
<g id="edge3_Node000001_Node000004" class="edge">
<title>Node1&#45;&gt;Node4</title>
<g id="a_edge3_Node000001_Node000004"><a xlink:title=" ">
<path fill="none" stroke="#63b8ff" d="M724.02,-65.51C655.41,-57.2 552.05,-44.03 462.5,-30 459.68,-29.56 456.81,-29.1 453.9,-28.62"/>
<polygon fill="#63b8ff" stroke="#63b8ff" points="723.95,-69.03 734.3,-66.76 724.79,-62.08 723.95,-69.03"/>
</a>
</g>
</g>
<!-- Node5 -->
<g id="Node000005" class="node">
<title>Node5</title>
<g id="a_Node000005"><a xlink:href="ConfigLocationBlock_8cpp.html" target="_top" xlink:title=" ">
<polygon fill="white" stroke="#666666" points="627.5,-30 471.5,-30 471.5,0 627.5,0 627.5,-30"/>
<text text-anchor="start" x="479.5" y="-18" font-family="Helvetica,sans-Serif" font-size="10.00">source/config/ConfigLocation</text>
<text text-anchor="middle" x="549.5" y="-7" font-family="Helvetica,sans-Serif" font-size="10.00">Block.cpp</text>
</a>
</g>
</g>
<!-- Node1&#45;&gt;Node5 -->
<g id="edge4_Node000001_Node000005" class="edge">
<title>Node1&#45;&gt;Node5</title>
<g id="a_edge4_Node000001_Node000005"><a xlink:title=" ">
<path fill="none" stroke="#63b8ff" d="M754.09,-63.68C713.46,-54.21 654.15,-40.39 609.84,-30.06"/>
<polygon fill="#63b8ff" stroke="#63b8ff" points="753.47,-67.13 764,-65.99 755.06,-60.32 753.47,-67.13"/>
</a>
</g>
</g>
<!-- Node6 -->
<g id="Node000006" class="node">
<title>Node6</title>
<g id="a_Node000006"><a xlink:href="ConfigServerBlock_8cpp.html" target="_top" xlink:title=" ">
<polygon fill="white" stroke="#666666" points="791.5,-30 645.5,-30 645.5,0 791.5,0 791.5,-30"/>
<text text-anchor="start" x="653.5" y="-18" font-family="Helvetica,sans-Serif" font-size="10.00">source/config/ConfigServer</text>
<text text-anchor="middle" x="718.5" y="-7" font-family="Helvetica,sans-Serif" font-size="10.00">Block.cpp</text>
</a>
</g>
</g>
<!-- Node1&#45;&gt;Node6 -->
<g id="edge5_Node000001_Node000006" class="edge">
<title>Node1&#45;&gt;Node6</title>
<g id="a_edge5_Node000001_Node000006"><a xlink:title=" ">
<path fill="none" stroke="#63b8ff" d="M780.22,-60.03C767.42,-50.9 750.98,-39.17 738.28,-30.11"/>
<polygon fill="#63b8ff" stroke="#63b8ff" points="778.23,-62.91 788.4,-65.87 782.29,-57.21 778.23,-62.91"/>
</a>
</g>
</g>
<!-- Node7 -->
<g id="Node000007" class="node">
<title>Node7</title>
<g id="a_Node000007"><a xlink:href="Acceptor_8cpp.html" target="_top" xlink:title=" ">
<polygon fill="white" stroke="#666666" points="957,-24.5 810,-24.5 810,-5.5 957,-5.5 957,-24.5"/>
<text text-anchor="middle" x="883.5" y="-12.5" font-family="Helvetica,sans-Serif" font-size="10.00">source/kernel/Acceptor.cpp</text>
</a>
</g>
</g>
<!-- Node1&#45;&gt;Node7 -->
<g id="edge6_Node000001_Node000007" class="edge">
<title>Node1&#45;&gt;Node7</title>
<g id="a_edge6_Node000001_Node000007"><a xlink:title=" ">
<path fill="none" stroke="#63b8ff" d="M821.29,-59.85C837.01,-48.77 858.06,-33.93 871.2,-24.67"/>
<polygon fill="#63b8ff" stroke="#63b8ff" points="818.9,-57.25 812.75,-65.87 822.94,-62.97 818.9,-57.25"/>
</a>
</g>
</g>
<!-- Node8 -->
<g id="Node000008" class="node">
<title>Node8</title>
<g id="a_Node000008"><a xlink:href="Kernel_8cpp.html" target="_top" xlink:title=" ">
<polygon fill="white" stroke="#666666" points="1111.5,-24.5 975.5,-24.5 975.5,-5.5 1111.5,-5.5 1111.5,-24.5"/>
<text text-anchor="middle" x="1043.5" y="-12.5" font-family="Helvetica,sans-Serif" font-size="10.00">source/kernel/Kernel.cpp</text>
</a>
</g>
</g>
<!-- Node1&#45;&gt;Node8 -->
<g id="edge7_Node000001_Node000008" class="edge">
<title>Node1&#45;&gt;Node8</title>
<g id="a_edge7_Node000001_Node000008"><a xlink:title=" ">
<path fill="none" stroke="#63b8ff" d="M845.74,-63.61C892.7,-52.3 965.18,-34.85 1008.12,-24.52"/>
<polygon fill="#63b8ff" stroke="#63b8ff" points="844.74,-60.25 835.83,-65.99 846.38,-67.06 844.74,-60.25"/>
</a>
</g>
</g>
<!-- Node9 -->
<g id="Node000009" class="node">
<title>Node9</title>
<g id="a_Node000009"><a xlink:href="Reactor_8cpp.html" target="_top" xlink:title=" ">
<polygon fill="white" stroke="#666666" points="1271.5,-24.5 1129.5,-24.5 1129.5,-5.5 1271.5,-5.5 1271.5,-24.5"/>
<text text-anchor="middle" x="1200.5" y="-12.5" font-family="Helvetica,sans-Serif" font-size="10.00">source/kernel/Reactor.cpp</text>
</a>
</g>
</g>
<!-- Node1&#45;&gt;Node9 -->
<g id="edge8_Node000001_Node000009" class="edge">
<title>Node1&#45;&gt;Node9</title>
<g id="a_edge8_Node000001_Node000009"><a xlink:title=" ">
<path fill="none" stroke="#63b8ff" d="M876.94,-64.64C941.84,-56.08 1037.4,-43.05 1120.5,-30 1131.09,-28.34 1142.44,-26.43 1153.17,-24.57"/>
<polygon fill="#63b8ff" stroke="#63b8ff" points="876.25,-61.2 866.79,-65.97 877.16,-68.14 876.25,-61.2"/>
</a>
</g>
</g>
<!-- Node10 -->
<g id="Node000010" class="node">
<title>Node10</title>
<g id="a_Node000010"><a xlink:href="main_8cpp.html" target="_top" xlink:title=" ">
<polygon fill="white" stroke="#666666" points="1387,-24.5 1290,-24.5 1290,-5.5 1387,-5.5 1387,-24.5"/>
<text text-anchor="middle" x="1338.5" y="-12.5" font-family="Helvetica,sans-Serif" font-size="10.00">source/main.cpp</text>
</a>
</g>
</g>
<!-- Node1&#45;&gt;Node10 -->
<g id="edge9_Node000001_Node000010" class="edge">
<title>Node1&#45;&gt;Node10</title>
<g id="a_edge9_Node000001_Node000010"><a xlink:title=" ">
<path fill="none" stroke="#63b8ff" d="M876.99,-70.82C972.08,-65.47 1139.11,-53.49 1280.5,-30 1289.08,-28.57 1298.28,-26.58 1306.76,-24.54"/>
<polygon fill="#63b8ff" stroke="#63b8ff" points="876.68,-67.33 866.88,-71.38 877.06,-74.32 876.68,-67.33"/>
</a>
</g>
</g>
<!-- Node11 -->
<g id="Node000011" class="node">
<title>Node11</title>
<g id="a_Node000011"><a xlink:href="Logger_8cpp.html" target="_top" xlink:title=" ">
<polygon fill="white" stroke="#666666" points="1533.5,-24.5 1405.5,-24.5 1405.5,-5.5 1533.5,-5.5 1533.5,-24.5"/>
<text text-anchor="middle" x="1469.5" y="-12.5" font-family="Helvetica,sans-Serif" font-size="10.00">source/utils/Logger.cpp</text>
</a>
</g>
</g>
<!-- Node1&#45;&gt;Node11 -->
<g id="edge10_Node000001_Node000011" class="edge">
<title>Node1&#45;&gt;Node11</title>
<g id="a_edge10_Node000001_Node000011"><a xlink:title=" ">
<path fill="none" stroke="#63b8ff" d="M876.9,-71.61C990.57,-66.67 1210.79,-54.66 1396.5,-30 1407.25,-28.57 1418.8,-26.58 1429.47,-24.54"/>
<polygon fill="#63b8ff" stroke="#63b8ff" points="876.74,-68.11 866.9,-72.04 877.04,-75.1 876.74,-68.11"/>
</a>
</g>
</g>
</g>
</svg>
