<?xml version="1.0" encoding="UTF-8" standalone="no"?>
<!DOCTYPE svg PUBLIC "-//W3C//DTD SVG 1.1//EN"
 "http://www.w3.org/Graphics/SVG/1.1/DTD/svg11.dtd">
<!-- Generated by graphviz version 2.43.0 (0)
 -->
<!-- Title: source/main.cpp Pages: 1 -->
<svg width="1452pt" height="467pt"
 viewBox="0.00 0.00 1451.50 467.00" xmlns="http://www.w3.org/2000/svg" xmlns:xlink="http://www.w3.org/1999/xlink">
<g id="graph0" class="graph" transform="scale(1 1) rotate(0) translate(4 463)">
<title>source/main.cpp</title>
<!-- Node1 -->
<g id="Node000001" class="node">
<title>Node1</title>
<g id="a_Node000001"><a xlink:title=" ">
<polygon fill="#999999" stroke="#666666" points="786.5,-459 689.5,-459 689.5,-440 786.5,-440 786.5,-459"/>
<text text-anchor="middle" x="738" y="-447" font-family="Helvetica,sans-Serif" font-size="10.00">source/main.cpp</text>
</a>
</g>
</g>
<!-- Node2 -->
<g id="Node000002" class="node">
<title>Node2</title>
<g id="a_Node000002"><a xlink:href="Config_8hpp.html" target="_top" xlink:title=" ">
<polygon fill="white" stroke="#666666" points="650,-349 582,-349 582,-330 650,-330 650,-349"/>
<text text-anchor="middle" x="616" y="-337" font-family="Helvetica,sans-Serif" font-size="10.00">Config.hpp</text>
</a>
</g>
</g>
<!-- Node1&#45;&gt;Node2 -->
<g id="edge1_Node000001_Node000002" class="edge">
<title>Node1&#45;&gt;Node2</title>
<g id="a_edge1_Node000001_Node000002"><a xlink:title=" ">
<path fill="none" stroke="#63b8ff" d="M728.02,-439.66C707.27,-421.3 659.28,-378.81 633.36,-355.87"/>
<polygon fill="#63b8ff" stroke="#63b8ff" points="635.59,-353.17 625.78,-349.16 630.95,-358.41 635.59,-353.17"/>
</a>
</g>
</g>
<!-- Node6 -->
<g id="Node000006" class="node">
<title>Node6</title>
<g id="a_Node000006"><a xlink:href="defines_8hpp.html" target="_top" xlink:title=" ">
<polygon fill="white" stroke="#666666" points="741.5,-19 668.5,-19 668.5,0 741.5,0 741.5,-19"/>
<text text-anchor="middle" x="705" y="-7" font-family="Helvetica,sans-Serif" font-size="10.00">defines.hpp</text>
</a>
</g>
</g>
<!-- Node1&#45;&gt;Node6 -->
<g id="edge76_Node000001_Node000006" class="edge">
<title>Node1&#45;&gt;Node6</title>
<g id="a_edge76_Node000001_Node000006"><a xlink:title=" ">
<path fill="none" stroke="#63b8ff" d="M689.33,-446.13C530.59,-437.77 38,-406.52 38,-340.5 38,-340.5 38,-340.5 38,-228.5 38,-128.22 136.24,-145.57 230,-110 317.31,-76.88 349.19,-105.78 437,-74 452.91,-68.24 454.13,-60.88 470,-55 474.43,-53.36 591.22,-31.58 658.46,-19.11"/>
<polygon fill="#63b8ff" stroke="#63b8ff" points="659.2,-22.53 668.4,-17.27 657.93,-15.65 659.2,-22.53"/>
</a>
</g>
</g>
<!-- Node24 -->
<g id="Node000024" class="node">
<title>Node24</title>
<g id="a_Node000024"><a xlink:href="Kernel_8hpp.html" target="_top" xlink:title=" ">
<polygon fill="white" stroke="#666666" points="928,-404 860,-404 860,-385 928,-385 928,-404"/>
<text text-anchor="middle" x="894" y="-392" font-family="Helvetica,sans-Serif" font-size="10.00">Kernel.hpp</text>
</a>
</g>
</g>
<!-- Node1&#45;&gt;Node24 -->
<g id="edge46_Node000001_Node000024" class="edge">
<title>Node1&#45;&gt;Node24</title>
<g id="a_edge46_Node000001_Node000024"><a xlink:title=" ">
<path fill="none" stroke="#63b8ff" d="M763.06,-439.98C789.03,-431.16 829.81,-417.31 858.96,-407.41"/>
<polygon fill="#63b8ff" stroke="#63b8ff" points="860.4,-410.61 868.74,-404.08 858.15,-403.99 860.4,-410.61"/>
</a>
</g>
</g>
<!-- Node34 -->
<g id="Node000034" class="node">
<title>Node34</title>
<g id="a_Node000034"><a xlink:href="Logger_8hpp.html" target="_top" xlink:title=" ">
<polygon fill="white" stroke="#666666" points="865,-74 771,-74 771,-55 865,-55 865,-74"/>
<text text-anchor="middle" x="818" y="-62" font-family="Helvetica,sans-Serif" font-size="10.00">utils/Logger.hpp</text>
</a>
</g>
</g>
<!-- Node1&#45;&gt;Node34 -->
<g id="edge77_Node000001_Node000034" class="edge">
<title>Node1&#45;&gt;Node34</title>
<g id="a_edge77_Node000001_Node000034"><a xlink:title=" ">
<path fill="none" stroke="#63b8ff" d="M743.7,-439.96C754.97,-422.23 779,-379.81 779,-340.5 779,-340.5 779,-340.5 779,-283.5 779,-208.59 801.59,-121.42 812.39,-84.05"/>
<polygon fill="#63b8ff" stroke="#63b8ff" points="815.84,-84.7 815.32,-74.12 809.13,-82.72 815.84,-84.7"/>
</a>
</g>
</g>
<!-- Node3 -->
<g id="Node000003" class="node">
<title>Node3</title>
<g id="a_Node000003"><a xlink:href="ConfigGlobalBlock_8hpp.html" target="_top" xlink:title=" ">
<polygon fill="white" stroke="#666666" points="501.5,-239 374.5,-239 374.5,-220 501.5,-220 501.5,-239"/>
<text text-anchor="middle" x="438" y="-227" font-family="Helvetica,sans-Serif" font-size="10.00">ConfigGlobalBlock.hpp</text>
</a>
</g>
</g>
<!-- Node2&#45;&gt;Node3 -->
<g id="edge2_Node000002_Node000003" class="edge">
<title>Node2&#45;&gt;Node3</title>
<g id="a_edge2_Node000002_Node000003"><a xlink:title=" ">
<path fill="none" stroke="#63b8ff" d="M601.73,-329.84C571.01,-311.2 498.35,-267.11 461.02,-244.46"/>
<polygon fill="#63b8ff" stroke="#63b8ff" points="462.7,-241.39 452.33,-239.2 459.07,-247.38 462.7,-241.39"/>
</a>
</g>
</g>
<!-- Node2&#45;&gt;Node6 -->
<g id="edge42_Node000002_Node000006" class="edge">
<title>Node2&#45;&gt;Node6</title>
<g id="a_edge42_Node000002_Node000006"><a xlink:title=" ">
<path fill="none" stroke="#63b8ff" d="M630.2,-329.75C654.63,-313.47 702,-276.04 702,-230.5 702,-230.5 702,-230.5 702,-173.5 702,-120.61 682.97,-107.28 691,-55 692.35,-46.19 695.13,-36.74 697.85,-28.82"/>
<polygon fill="#63b8ff" stroke="#63b8ff" points="701.23,-29.77 701.4,-19.18 694.66,-27.35 701.23,-29.77"/>
</a>
</g>
</g>
<!-- Node14 -->
<g id="Node000014" class="node">
<title>Node14</title>
<g id="a_Node000014"><a xlink:title=" ">
<polygon fill="#e0e0e0" stroke="#999999" points="1018,-19 958,-19 958,0 1018,0 1018,-19"/>
<text text-anchor="middle" x="988" y="-7" font-family="Helvetica,sans-Serif" font-size="10.00">iostream</text>
</a>
</g>
</g>
<!-- Node2&#45;&gt;Node14 -->
<g id="edge43_Node000002_Node000014" class="edge">
<title>Node2&#45;&gt;Node14</title>
<g id="a_edge43_Node000002_Node000014"><a xlink:title=" ">
<path fill="none" stroke="#63b8ff" d="M634.96,-329.98C651.36,-322.07 675.16,-309.25 693,-294 773,-225.64 757.67,-172.95 842,-110 875.53,-84.97 894.63,-97.88 929,-74 947.45,-61.18 964.45,-41.72 975.41,-27.72"/>
<polygon fill="#63b8ff" stroke="#63b8ff" points="978.44,-29.51 981.7,-19.43 972.87,-25.28 978.44,-29.51"/>
</a>
</g>
</g>
<!-- Node17 -->
<g id="Node000017" class="node">
<title>Node17</title>
<g id="a_Node000017"><a xlink:title=" ">
<polygon fill="#e0e0e0" stroke="#999999" points="135.5,-19 88.5,-19 88.5,0 135.5,0 135.5,-19"/>
<text text-anchor="middle" x="112" y="-7" font-family="Helvetica,sans-Serif" font-size="10.00">vector</text>
</a>
</g>
</g>
<!-- Node2&#45;&gt;Node17 -->
<g id="edge45_Node000002_Node000017" class="edge">
<title>Node2&#45;&gt;Node17</title>
<g id="a_edge45_Node000002_Node000017"><a xlink:title=" ">
<path fill="none" stroke="#63b8ff" d="M581.56,-336.14C451.84,-326.8 0,-290.01 0,-230.5 0,-230.5 0,-230.5 0,-118.5 0,-72.77 48.98,-40.29 82.16,-23.54"/>
<polygon fill="#63b8ff" stroke="#63b8ff" points="83.98,-26.54 91.46,-19.04 80.93,-20.24 83.98,-26.54"/>
</a>
</g>
</g>
<!-- Node20 -->
<g id="Node000020" class="node">
<title>Node20</title>
<g id="a_Node000020"><a xlink:title=" ">
<polygon fill="#e0e0e0" stroke="#999999" points="298,-129 254,-129 254,-110 298,-110 298,-129"/>
<text text-anchor="middle" x="276" y="-117" font-family="Helvetica,sans-Serif" font-size="10.00">string</text>
</a>
</g>
</g>
<!-- Node2&#45;&gt;Node20 -->
<g id="edge44_Node000002_Node000020" class="edge">
<title>Node2&#45;&gt;Node20</title>
<g id="a_edge44_Node000002_Node000020"><a xlink:title=" ">
<path fill="none" stroke="#63b8ff" d="M582,-337.51C499.03,-334.64 288.47,-324.49 226,-294 189.41,-276.14 156,-257.44 172,-220 188.26,-181.93 227.03,-151.47 252.36,-134.71"/>
<polygon fill="#63b8ff" stroke="#63b8ff" points="254.49,-137.5 261.02,-129.16 250.71,-131.61 254.49,-137.5"/>
</a>
</g>
</g>
<!-- Node21 -->
<g id="Node000021" class="node">
<title>Node21</title>
<g id="a_Node000021"><a xlink:href="ConfigHttpBlock_8hpp.html" target="_top" xlink:title=" ">
<polygon fill="white" stroke="#666666" points="674,-239 558,-239 558,-220 674,-220 674,-239"/>
<text text-anchor="middle" x="616" y="-227" font-family="Helvetica,sans-Serif" font-size="10.00">ConfigHttpBlock.hpp</text>
</a>
</g>
</g>
<!-- Node2&#45;&gt;Node21 -->
<g id="edge27_Node000002_Node000021" class="edge">
<title>Node2&#45;&gt;Node21</title>
<g id="a_edge27_Node000002_Node000021"><a xlink:title=" ">
<path fill="none" stroke="#63b8ff" d="M616,-329.66C616,-312.17 616,-272.8 616,-249.27"/>
<polygon fill="#63b8ff" stroke="#63b8ff" points="619.5,-249.16 616,-239.16 612.5,-249.16 619.5,-249.16"/>
</a>
</g>
</g>
<!-- Node22 -->
<g id="Node000022" class="node">
<title>Node22</title>
<g id="a_Node000022"><a xlink:href="ConfigServerBlock_8hpp.html" target="_top" xlink:title=" ">
<polygon fill="white" stroke="#666666" points="361.5,-294 234.5,-294 234.5,-275 361.5,-275 361.5,-294"/>
<text text-anchor="middle" x="298" y="-282" font-family="Helvetica,sans-Serif" font-size="10.00">ConfigServerBlock.hpp</text>
</a>
</g>
</g>
<!-- Node2&#45;&gt;Node22 -->
<g id="edge32_Node000002_Node000022" class="edge">
<title>Node2&#45;&gt;Node22</title>
<g id="a_edge32_Node000002_Node000022"><a xlink:title=" ">
<path fill="none" stroke="#63b8ff" d="M581.97,-332.83C528.78,-323.96 425.19,-306.7 358.91,-295.65"/>
<polygon fill="#63b8ff" stroke="#63b8ff" points="359.45,-292.19 349.02,-294 358.3,-299.1 359.45,-292.19"/>
</a>
</g>
</g>
<!-- Node4 -->
<g id="Node000004" class="node">
<title>Node4</title>
<g id="a_Node000004"><a xlink:href="AConfigParser_8hpp.html" target="_top" xlink:title=" ">
<polygon fill="white" stroke="#666666" points="464,-184 360,-184 360,-165 464,-165 464,-184"/>
<text text-anchor="middle" x="412" y="-172" font-family="Helvetica,sans-Serif" font-size="10.00">AConfigParser.hpp</text>
</a>
</g>
</g>
<!-- Node3&#45;&gt;Node4 -->
<g id="edge3_Node000003_Node000004" class="edge">
<title>Node3&#45;&gt;Node4</title>
<g id="a_edge3_Node000003_Node000004"><a xlink:title=" ">
<path fill="none" stroke="#63b8ff" d="M433.71,-219.75C430.19,-212.57 425.09,-202.18 420.72,-193.27"/>
<polygon fill="#63b8ff" stroke="#63b8ff" points="423.76,-191.53 416.21,-184.09 417.48,-194.61 423.76,-191.53"/>
</a>
</g>
</g>
<!-- Node19 -->
<g id="Node000019" class="node">
<title>Node19</title>
<g id="a_Node000019"><a xlink:title=" ">
<polygon fill="#e0e0e0" stroke="#999999" points="636,-129 604,-129 604,-110 636,-110 636,-129"/>
<text text-anchor="middle" x="620" y="-117" font-family="Helvetica,sans-Serif" font-size="10.00">set</text>
</a>
</g>
</g>
<!-- Node3&#45;&gt;Node19 -->
<g id="edge25_Node000003_Node000019" class="edge">
<title>Node3&#45;&gt;Node19</title>
<g id="a_edge25_Node000003_Node000019"><a xlink:title=" ">
<path fill="none" stroke="#63b8ff" d="M446.97,-219.77C460.85,-206.6 488.8,-181.44 516,-165 541.24,-149.74 572.67,-137.06 594.33,-129.2"/>
<polygon fill="#63b8ff" stroke="#63b8ff" points="595.57,-132.47 603.83,-125.83 593.23,-125.87 595.57,-132.47"/>
</a>
</g>
</g>
<!-- Node3&#45;&gt;Node20 -->
<g id="edge26_Node000003_Node000020" class="edge">
<title>Node3&#45;&gt;Node20</title>
<g id="a_edge26_Node000003_Node000020"><a xlink:title=" ">
<path fill="none" stroke="#63b8ff" d="M418.28,-219.99C400.16,-211.82 372.88,-198.58 351,-184 329.4,-169.61 306.98,-149.9 292.35,-136.27"/>
<polygon fill="#63b8ff" stroke="#63b8ff" points="294.37,-133.36 284.7,-129.03 289.56,-138.45 294.37,-133.36"/>
</a>
</g>
</g>
<!-- Node5 -->
<g id="Node000005" class="node">
<title>Node5</title>
<g id="a_Node000005"><a xlink:href="config__utils_8hpp.html" target="_top" xlink:title=" ">
<polygon fill="white" stroke="#666666" points="509.5,-129 392.5,-129 392.5,-110 509.5,-110 509.5,-129"/>
<text text-anchor="middle" x="451" y="-117" font-family="Helvetica,sans-Serif" font-size="10.00">utils/config_utils.hpp</text>
</a>
</g>
</g>
<!-- Node4&#45;&gt;Node5 -->
<g id="edge4_Node000004_Node000005" class="edge">
<title>Node4&#45;&gt;Node5</title>
<g id="a_edge4_Node000004_Node000005"><a xlink:title=" ">
<path fill="none" stroke="#63b8ff" d="M418.44,-164.75C423.89,-157.34 431.86,-146.5 438.56,-137.41"/>
<polygon fill="#63b8ff" stroke="#63b8ff" points="441.57,-139.22 444.68,-129.09 435.93,-135.07 441.57,-139.22"/>
</a>
</g>
</g>
<!-- Node4&#45;&gt;Node6 -->
<g id="edge20_Node000004_Node000006" class="edge">
<title>Node4&#45;&gt;Node6</title>
<g id="a_edge20_Node000004_Node000006"><a xlink:title=" ">
<path fill="none" stroke="#63b8ff" d="M437.97,-164.87C460.21,-156.98 492.72,-144.24 519,-129 565.6,-101.98 569.3,-83.52 615,-55 634.34,-42.93 657.41,-31.58 675.35,-23.36"/>
<polygon fill="#63b8ff" stroke="#63b8ff" points="677.05,-26.43 684.73,-19.13 674.17,-20.05 677.05,-26.43"/>
</a>
</g>
</g>
<!-- Node13 -->
<g id="Node000013" class="node">
<title>Node13</title>
<g id="a_Node000013"><a xlink:title=" ">
<polygon fill="#e0e0e0" stroke="#999999" points="283.5,-19 228.5,-19 228.5,0 283.5,0 283.5,-19"/>
<text text-anchor="middle" x="256" y="-7" font-family="Helvetica,sans-Serif" font-size="10.00">fstream</text>
</a>
</g>
</g>
<!-- Node4&#45;&gt;Node13 -->
<g id="edge21_Node000004_Node000013" class="edge">
<title>Node4&#45;&gt;Node13</title>
<g id="a_edge21_Node000004_Node000013"><a xlink:title=" ">
<path fill="none" stroke="#63b8ff" d="M403.61,-164.74C378.54,-138.53 303.87,-60.51 271.38,-26.57"/>
<polygon fill="#63b8ff" stroke="#63b8ff" points="273.87,-24.11 264.43,-19.31 268.81,-28.95 273.87,-24.11"/>
</a>
</g>
</g>
<!-- Node4&#45;&gt;Node14 -->
<g id="edge22_Node000004_Node000014" class="edge">
<title>Node4&#45;&gt;Node14</title>
<g id="a_edge22_Node000004_Node000014"><a xlink:title=" ">
<path fill="none" stroke="#63b8ff" d="M439.08,-164.94C466.25,-156.25 509.21,-142.23 546,-129 567.98,-121.09 572.33,-115.64 595,-110 726.59,-77.23 771.39,-122.58 898,-74 926.54,-63.05 954.53,-41.02 971.52,-26.01"/>
<polygon fill="#63b8ff" stroke="#63b8ff" points="973.88,-28.6 978.94,-19.29 969.18,-23.41 973.88,-28.6"/>
</a>
</g>
</g>
<!-- Node4&#45;&gt;Node19 -->
<g id="edge23_Node000004_Node000019" class="edge">
<title>Node4&#45;&gt;Node19</title>
<g id="a_edge23_Node000004_Node000019"><a xlink:title=" ">
<path fill="none" stroke="#63b8ff" d="M447.54,-164.96C483.53,-156.23 540.75,-142.13 590,-129 591.27,-128.66 592.56,-128.31 593.86,-127.96"/>
<polygon fill="#63b8ff" stroke="#63b8ff" points="595.14,-131.24 603.83,-125.18 593.26,-124.49 595.14,-131.24"/>
</a>
</g>
</g>
<!-- Node4&#45;&gt;Node20 -->
<g id="edge24_Node000004_Node000020" class="edge">
<title>Node4&#45;&gt;Node20</title>
<g id="a_edge24_Node000004_Node000020"><a xlink:title=" ">
<path fill="none" stroke="#63b8ff" d="M390.15,-164.98C367.88,-156.3 333.1,-142.75 307.78,-132.88"/>
<polygon fill="#63b8ff" stroke="#63b8ff" points="308.84,-129.54 298.25,-129.17 306.29,-136.06 308.84,-129.54"/>
</a>
</g>
</g>
<!-- Node5&#45;&gt;Node6 -->
<g id="edge5_Node000005_Node000006" class="edge">
<title>Node5&#45;&gt;Node6</title>
<g id="a_edge5_Node000005_Node000006"><a xlink:title=" ">
<path fill="none" stroke="#63b8ff" d="M463.05,-109.81C482.02,-96.46 520.36,-70.79 556,-55 589.15,-40.31 628.53,-28.79 658.48,-21.15"/>
<polygon fill="#63b8ff" stroke="#63b8ff" points="659.4,-24.53 668.25,-18.71 657.7,-17.74 659.4,-24.53"/>
</a>
</g>
</g>
<!-- Node7 -->
<g id="Node000007" class="node">
<title>Node7</title>
<g id="a_Node000007"><a xlink:href="utils_8hpp.html" target="_top" xlink:title=" ">
<polygon fill="white" stroke="#666666" points="427.5,-74 368.5,-74 368.5,-55 427.5,-55 427.5,-74"/>
<text text-anchor="middle" x="398" y="-62" font-family="Helvetica,sans-Serif" font-size="10.00">utils.hpp</text>
</a>
</g>
</g>
<!-- Node5&#45;&gt;Node7 -->
<g id="edge6_Node000005_Node000007" class="edge">
<title>Node5&#45;&gt;Node7</title>
<g id="a_edge6_Node000005_Node000007"><a xlink:title=" ">
<path fill="none" stroke="#63b8ff" d="M442.25,-109.75C434.53,-102.03 423.1,-90.6 413.78,-81.28"/>
<polygon fill="#63b8ff" stroke="#63b8ff" points="416.14,-78.69 406.59,-74.09 411.19,-83.64 416.14,-78.69"/>
</a>
</g>
</g>
<!-- Node5&#45;&gt;Node13 -->
<g id="edge18_Node000005_Node000013" class="edge">
<title>Node5&#45;&gt;Node13</title>
<g id="a_edge18_Node000005_Node000013"><a xlink:title=" ">
<path fill="none" stroke="#63b8ff" d="M432.27,-109.96C413.68,-101.35 384.52,-87.44 360,-74 330.91,-58.05 298.44,-37.82 277.64,-24.53"/>
<polygon fill="#63b8ff" stroke="#63b8ff" points="279.53,-21.59 269.23,-19.13 275.75,-27.48 279.53,-21.59"/>
</a>
</g>
</g>
<!-- Node18 -->
<g id="Node000018" class="node">
<title>Node18</title>
<g id="a_Node000018"><a xlink:title=" ">
<polygon fill="#e0e0e0" stroke="#999999" points="938,-19 900,-19 900,0 938,0 938,-19"/>
<text text-anchor="middle" x="919" y="-7" font-family="Helvetica,sans-Serif" font-size="10.00">map</text>
</a>
</g>
</g>
<!-- Node5&#45;&gt;Node18 -->
<g id="edge19_Node000005_Node000018" class="edge">
<title>Node5&#45;&gt;Node18</title>
<g id="a_edge19_Node000005_Node000018"><a xlink:title=" ">
<path fill="none" stroke="#63b8ff" d="M509.83,-113.6C622.38,-104.04 858.51,-83.07 874,-74 891.62,-63.69 904.12,-43.42 911.4,-28.55"/>
<polygon fill="#63b8ff" stroke="#63b8ff" points="914.66,-29.85 915.61,-19.3 908.28,-26.95 914.66,-29.85"/>
</a>
</g>
</g>
<!-- Node7&#45;&gt;Node6 -->
<g id="edge7_Node000007_Node000006" class="edge">
<title>Node7&#45;&gt;Node6</title>
<g id="a_edge7_Node000007_Node000006"><a xlink:title=" ">
<path fill="none" stroke="#63b8ff" d="M427.8,-57.63C432.55,-56.73 437.41,-55.82 442,-55 535.12,-38.28 561.05,-36.02 658.39,-19.08"/>
<polygon fill="#63b8ff" stroke="#63b8ff" points="659.1,-22.5 668.35,-17.33 657.9,-15.61 659.1,-22.5"/>
</a>
</g>
</g>
<!-- Node8 -->
<g id="Node000008" class="node">
<title>Node8</title>
<g id="a_Node000008"><a xlink:title=" ">
<polygon fill="#e0e0e0" stroke="#999999" points="508,-19 444,-19 444,0 508,0 508,-19"/>
<text text-anchor="middle" x="476" y="-7" font-family="Helvetica,sans-Serif" font-size="10.00">algorithm</text>
</a>
</g>
</g>
<!-- Node7&#45;&gt;Node8 -->
<g id="edge8_Node000007_Node000008" class="edge">
<title>Node7&#45;&gt;Node8</title>
<g id="a_edge8_Node000007_Node000008"><a xlink:title=" ">
<path fill="none" stroke="#63b8ff" d="M410.53,-54.98C422.4,-46.92 440.46,-34.65 454.61,-25.03"/>
<polygon fill="#63b8ff" stroke="#63b8ff" points="456.94,-27.69 463.24,-19.17 453,-21.9 456.94,-27.69"/>
</a>
</g>
</g>
<!-- Node9 -->
<g id="Node000009" class="node">
<title>Node9</title>
<g id="a_Node000009"><a xlink:title=" ">
<polygon fill="#e0e0e0" stroke="#999999" points="575.5,-19 526.5,-19 526.5,0 575.5,0 575.5,-19"/>
<text text-anchor="middle" x="551" y="-7" font-family="Helvetica,sans-Serif" font-size="10.00">cctype</text>
</a>
</g>
</g>
<!-- Node7&#45;&gt;Node9 -->
<g id="edge9_Node000007_Node000009" class="edge">
<title>Node7&#45;&gt;Node9</title>
<g id="a_edge9_Node000007_Node000009"><a xlink:title=" ">
<path fill="none" stroke="#63b8ff" d="M422.58,-54.98C448.12,-46.14 488.28,-32.23 516.89,-22.32"/>
<polygon fill="#63b8ff" stroke="#63b8ff" points="518.18,-25.57 526.48,-18.99 515.88,-18.96 518.18,-25.57"/>
</a>
</g>
</g>
<!-- Node10 -->
<g id="Node000010" class="node">
<title>Node10</title>
<g id="a_Node000010"><a xlink:title=" ">
<polygon fill="#e0e0e0" stroke="#999999" points="352,-19 302,-19 302,0 352,0 352,-19"/>
<text text-anchor="middle" x="327" y="-7" font-family="Helvetica,sans-Serif" font-size="10.00">cstring</text>
</a>
</g>
</g>
<!-- Node7&#45;&gt;Node10 -->
<g id="edge10_Node000007_Node000010" class="edge">
<title>Node7&#45;&gt;Node10</title>
<g id="a_edge10_Node000007_Node000010"><a xlink:title=" ">
<path fill="none" stroke="#63b8ff" d="M386.59,-54.98C375.89,-47 359.66,-34.88 346.84,-25.31"/>
<polygon fill="#63b8ff" stroke="#63b8ff" points="348.72,-22.35 338.61,-19.17 344.53,-27.96 348.72,-22.35"/>
</a>
</g>
</g>
<!-- Node11 -->
<g id="Node000011" class="node">
<title>Node11</title>
<g id="a_Node000011"><a xlink:title=" ">
<polygon fill="#e0e0e0" stroke="#999999" points="1215.5,-19 1164.5,-19 1164.5,0 1215.5,0 1215.5,-19"/>
<text text-anchor="middle" x="1190" y="-7" font-family="Helvetica,sans-Serif" font-size="10.00">errno.h</text>
</a>
</g>
</g>
<!-- Node7&#45;&gt;Node11 -->
<g id="edge11_Node000007_Node000011" class="edge">
<title>Node7&#45;&gt;Node11</title>
<g id="a_edge11_Node000007_Node000011"><a xlink:title=" ">
<path fill="none" stroke="#63b8ff" d="M427.79,-62.21C526.16,-57.85 849.46,-42.55 1116,-19 1128.45,-17.9 1142.06,-16.42 1154.16,-15"/>
<polygon fill="#63b8ff" stroke="#63b8ff" points="1154.84,-18.44 1164.35,-13.78 1154,-11.49 1154.84,-18.44"/>
</a>
</g>
</g>
<!-- Node12 -->
<g id="Node000012" class="node">
<title>Node12</title>
<g id="a_Node000012"><a xlink:title=" ">
<polygon fill="#e0e0e0" stroke="#999999" points="210.5,-19 163.5,-19 163.5,0 210.5,0 210.5,-19"/>
<text text-anchor="middle" x="187" y="-7" font-family="Helvetica,sans-Serif" font-size="10.00">fcntl.h</text>
</a>
</g>
</g>
<!-- Node7&#45;&gt;Node12 -->
<g id="edge12_Node000007_Node000012" class="edge">
<title>Node7&#45;&gt;Node12</title>
<g id="a_edge12_Node000007_Node000012"><a xlink:title=" ">
<path fill="none" stroke="#63b8ff" d="M368.38,-56.16C334.9,-47.86 278.53,-33.82 220.49,-19.11"/>
<polygon fill="#63b8ff" stroke="#63b8ff" points="221.34,-15.72 210.79,-16.65 219.62,-22.5 221.34,-15.72"/>
</a>
</g>
</g>
<!-- Node7&#45;&gt;Node13 -->
<g id="edge13_Node000007_Node000013" class="edge">
<title>Node7&#45;&gt;Node13</title>
<g id="a_edge13_Node000007_Node000013"><a xlink:title=" ">
<path fill="none" stroke="#63b8ff" d="M375.19,-54.98C351.83,-46.27 315.3,-32.63 288.83,-22.75"/>
<polygon fill="#63b8ff" stroke="#63b8ff" points="289.82,-19.39 279.23,-19.17 287.37,-25.95 289.82,-19.39"/>
</a>
</g>
</g>
<!-- Node7&#45;&gt;Node14 -->
<g id="edge14_Node000007_Node000014" class="edge">
<title>Node7&#45;&gt;Node14</title>
<g id="a_edge14_Node000007_Node000014"><a xlink:title=" ">
<path fill="none" stroke="#63b8ff" d="M427.6,-62.39C510.17,-59.01 749.88,-47.31 947,-19 947.22,-18.97 947.43,-18.94 947.65,-18.91"/>
<polygon fill="#63b8ff" stroke="#63b8ff" points="948.34,-22.34 957.62,-17.23 947.18,-15.44 948.34,-22.34"/>
</a>
</g>
</g>
<!-- Node15 -->
<g id="Node000015" class="node">
<title>Node15</title>
<g id="a_Node000015"><a xlink:title=" ">
<polygon fill="#e0e0e0" stroke="#999999" points="426,-19 370,-19 370,0 426,0 426,-19"/>
<text text-anchor="middle" x="398" y="-7" font-family="Helvetica,sans-Serif" font-size="10.00">sstream</text>
</a>
</g>
</g>
<!-- Node7&#45;&gt;Node15 -->
<g id="edge15_Node000007_Node000015" class="edge">
<title>Node7&#45;&gt;Node15</title>
<g id="a_edge15_Node000007_Node000015"><a xlink:title=" ">
<path fill="none" stroke="#63b8ff" d="M398,-54.75C398,-47.8 398,-37.85 398,-29.13"/>
<polygon fill="#63b8ff" stroke="#63b8ff" points="401.5,-29.09 398,-19.09 394.5,-29.09 401.5,-29.09"/>
</a>
</g>
</g>
<!-- Node16 -->
<g id="Node000016" class="node">
<title>Node16</title>
<g id="a_Node000016"><a xlink:title=" ">
<polygon fill="#e0e0e0" stroke="#999999" points="650,-19 594,-19 594,0 650,0 650,-19"/>
<text text-anchor="middle" x="622" y="-7" font-family="Helvetica,sans-Serif" font-size="10.00">unistd.h</text>
</a>
</g>
</g>
<!-- Node7&#45;&gt;Node16 -->
<g id="edge16_Node000007_Node000016" class="edge">
<title>Node7&#45;&gt;Node16</title>
<g id="a_edge16_Node000007_Node000016"><a xlink:title=" ">
<path fill="none" stroke="#63b8ff" d="M427.75,-56.46C468.04,-46.93 540.01,-29.9 584.12,-19.46"/>
<polygon fill="#63b8ff" stroke="#63b8ff" points="584.97,-22.86 593.9,-17.15 583.36,-16.05 584.97,-22.86"/>
</a>
</g>
</g>
<!-- Node7&#45;&gt;Node17 -->
<g id="edge17_Node000007_Node000017" class="edge">
<title>Node7&#45;&gt;Node17</title>
<g id="a_edge17_Node000007_Node000017"><a xlink:title=" ">
<path fill="none" stroke="#63b8ff" d="M368.42,-58.22C322.65,-50.02 231.89,-33.64 155,-19 151.96,-18.42 148.8,-17.81 145.63,-17.2"/>
<polygon fill="#63b8ff" stroke="#63b8ff" points="146.13,-13.73 135.65,-15.24 144.78,-20.6 146.13,-13.73"/>
</a>
</g>
</g>
<!-- Node21&#45;&gt;Node4 -->
<g id="edge28_Node000021_Node000004" class="edge">
<title>Node21&#45;&gt;Node4</title>
<g id="a_edge28_Node000021_Node000004"><a xlink:title=" ">
<path fill="none" stroke="#63b8ff" d="M583.22,-219.98C548.38,-210.93 493.13,-196.58 454.86,-186.64"/>
<polygon fill="#63b8ff" stroke="#63b8ff" points="455.59,-183.21 445.03,-184.08 453.83,-189.98 455.59,-183.21"/>
</a>
</g>
</g>
<!-- Node21&#45;&gt;Node6 -->
<g id="edge29_Node000021_Node000006" class="edge">
<title>Node21&#45;&gt;Node6</title>
<g id="a_edge29_Node000021_Node000006"><a xlink:title=" ">
<path fill="none" stroke="#63b8ff" d="M619.49,-219.73C622.95,-210.83 628.26,-196.59 632,-184 639.15,-159.92 640.75,-153.76 645,-129 650.59,-96.4 637.57,-84.26 653,-55 659.41,-42.85 670.64,-32.59 681.02,-25"/>
<polygon fill="#63b8ff" stroke="#63b8ff" points="683.14,-27.8 689.42,-19.27 679.19,-22.02 683.14,-27.8"/>
</a>
</g>
</g>
<!-- Node21&#45;&gt;Node17 -->
<g id="edge31_Node000021_Node000017" class="edge">
<title>Node21&#45;&gt;Node17</title>
<g id="a_edge31_Node000021_Node000017"><a xlink:title=" ">
<path fill="none" stroke="#63b8ff" d="M597.12,-219.87C569.84,-207.47 517.76,-183.99 473,-165 433.72,-148.34 423.34,-145.52 384,-129 294.7,-91.49 189.83,-45.15 140.45,-23.19"/>
<polygon fill="#63b8ff" stroke="#63b8ff" points="141.61,-19.88 131.05,-19.01 138.76,-26.27 141.61,-19.88"/>
</a>
</g>
</g>
<!-- Node21&#45;&gt;Node19 -->
<g id="edge30_Node000021_Node000019" class="edge">
<title>Node21&#45;&gt;Node19</title>
<g id="a_edge30_Node000021_Node000019"><a xlink:title=" ">
<path fill="none" stroke="#63b8ff" d="M616.33,-219.66C616.98,-202.17 618.43,-162.8 619.3,-139.27"/>
<polygon fill="#63b8ff" stroke="#63b8ff" points="622.81,-139.28 619.68,-129.16 615.81,-139.02 622.81,-139.28"/>
</a>
</g>
</g>
<!-- Node22&#45;&gt;Node4 -->
<g id="edge33_Node000022_Node000004" class="edge">
<title>Node22&#45;&gt;Node4</title>
<g id="a_edge33_Node000022_Node000004"><a xlink:title=" ">
<path fill="none" stroke="#63b8ff" d="M307.33,-274.66C326.63,-256.38 371.17,-214.18 395.46,-191.17"/>
<polygon fill="#63b8ff" stroke="#63b8ff" points="398.01,-193.58 402.86,-184.16 393.19,-188.5 398.01,-193.58"/>
</a>
</g>
</g>
<!-- Node22&#45;&gt;Node12 -->
<g id="edge39_Node000022_Node000012" class="edge">
<title>Node22&#45;&gt;Node12</title>
<g id="a_edge39_Node000022_Node000012"><a xlink:title=" ">
<path fill="none" stroke="#63b8ff" d="M234.2,-276.42C210.7,-270.36 186.34,-259.27 172,-239 125.96,-173.91 161.26,-70.58 178.71,-28.86"/>
<polygon fill="#63b8ff" stroke="#63b8ff" points="182.03,-30 182.8,-19.43 175.61,-27.22 182.03,-30"/>
</a>
</g>
</g>
<!-- Node22&#45;&gt;Node17 -->
<g id="edge41_Node000022_Node000017" class="edge">
<title>Node22&#45;&gt;Node17</title>
<g id="a_edge41_Node000022_Node000017"><a xlink:title=" ">
<path fill="none" stroke="#63b8ff" d="M238.99,-274.99C215.21,-268.73 189.36,-257.86 172,-239 116.28,-178.46 111.04,-72.49 111.38,-29.46"/>
<polygon fill="#63b8ff" stroke="#63b8ff" points="114.89,-29.37 111.59,-19.3 107.89,-29.23 114.89,-29.37"/>
</a>
</g>
</g>
<!-- Node22&#45;&gt;Node19 -->
<g id="edge40_Node000022_Node000019" class="edge">
<title>Node22&#45;&gt;Node19</title>
<g id="a_edge40_Node000022_Node000019"><a xlink:title=" ">
<path fill="none" stroke="#63b8ff" d="M361.72,-280.41C406.04,-275.9 465.18,-265.03 511,-239 555.59,-213.67 592.25,-163.78 609.45,-137.55"/>
<polygon fill="#63b8ff" stroke="#63b8ff" points="612.45,-139.35 614.88,-129.04 606.55,-135.59 612.45,-139.35"/>
</a>
</g>
</g>
<!-- Node23 -->
<g id="Node000023" class="node">
<title>Node23</title>
<g id="a_Node000023"><a xlink:href="ConfigLocationBlock_8hpp.html" target="_top" xlink:title=" ">
<polygon fill="white" stroke="#666666" points="317.5,-239 180.5,-239 180.5,-220 317.5,-220 317.5,-239"/>
<text text-anchor="middle" x="249" y="-227" font-family="Helvetica,sans-Serif" font-size="10.00">ConfigLocationBlock.hpp</text>
</a>
</g>
</g>
<!-- Node22&#45;&gt;Node23 -->
<g id="edge34_Node000022_Node000023" class="edge">
<title>Node22&#45;&gt;Node23</title>
<g id="a_edge34_Node000022_Node000023"><a xlink:title=" ">
<path fill="none" stroke="#63b8ff" d="M289.91,-274.75C282.84,-267.11 272.41,-255.82 263.85,-246.56"/>
<polygon fill="#63b8ff" stroke="#63b8ff" points="266.3,-244.06 256.94,-239.09 261.16,-248.81 266.3,-244.06"/>
</a>
</g>
</g>
<!-- Node23&#45;&gt;Node4 -->
<g id="edge35_Node000023_Node000004" class="edge">
<title>Node23&#45;&gt;Node4</title>
<g id="a_edge35_Node000023_Node000004"><a xlink:title=" ">
<path fill="none" stroke="#63b8ff" d="M275.19,-219.98C302.44,-211.13 345.3,-197.19 375.78,-187.28"/>
<polygon fill="#63b8ff" stroke="#63b8ff" points="377.18,-190.5 385.61,-184.08 375.01,-183.85 377.18,-190.5"/>
</a>
</g>
</g>
<!-- Node23&#45;&gt;Node6 -->
<g id="edge36_Node000023_Node000006" class="edge">
<title>Node23&#45;&gt;Node6</title>
<g id="a_edge36_Node000023_Node000006"><a xlink:title=" ">
<path fill="none" stroke="#63b8ff" d="M245.2,-219.77C236.47,-198.23 217.75,-141.95 245,-110 277.86,-71.47 421.27,-87.76 470,-74 491.29,-67.99 494.94,-61.78 516,-55 563.72,-39.64 619.77,-27.11 658.38,-19.3"/>
<polygon fill="#63b8ff" stroke="#63b8ff" points="659.17,-22.71 668.29,-17.32 657.8,-15.85 659.17,-22.71"/>
</a>
</g>
</g>
<!-- Node23&#45;&gt;Node17 -->
<g id="edge38_Node000023_Node000017" class="edge">
<title>Node23&#45;&gt;Node17</title>
<g id="a_edge38_Node000023_Node000017"><a xlink:title=" ">
<path fill="none" stroke="#63b8ff" d="M241.67,-219.9C234.32,-211.12 222.87,-196.99 214,-184 176.49,-129.05 138.36,-59.87 121.27,-28.02"/>
<polygon fill="#63b8ff" stroke="#63b8ff" points="124.29,-26.23 116.49,-19.05 118.11,-29.52 124.29,-26.23"/>
</a>
</g>
</g>
<!-- Node23&#45;&gt;Node20 -->
<g id="edge37_Node000023_Node000020" class="edge">
<title>Node23&#45;&gt;Node20</title>
<g id="a_edge37_Node000023_Node000020"><a xlink:title=" ">
<path fill="none" stroke="#63b8ff" d="M251.21,-219.66C255.6,-202.09 265.51,-162.45 271.39,-138.95"/>
<polygon fill="#63b8ff" stroke="#63b8ff" points="274.81,-139.71 273.84,-129.16 268.01,-138.01 274.81,-139.71"/>
</a>
</g>
</g>
<!-- Node24&#45;&gt;Node2 -->
<g id="edge47_Node000024_Node000002" class="edge">
<title>Node24&#45;&gt;Node2</title>
<g id="a_edge47_Node000024_Node000002"><a xlink:title=" ">
<path fill="none" stroke="#63b8ff" d="M859.91,-387C809.68,-377.43 715.76,-359.52 660.26,-348.94"/>
<polygon fill="#63b8ff" stroke="#63b8ff" points="660.85,-345.49 650.37,-347.05 659.53,-352.36 660.85,-345.49"/>
</a>
</g>
</g>
<!-- Node24&#45;&gt;Node6 -->
<g id="edge71_Node000024_Node000006" class="edge">
<title>Node24&#45;&gt;Node6</title>
<g id="a_edge71_Node000024_Node000006"><a xlink:title=" ">
<path fill="none" stroke="#63b8ff" d="M886.35,-384.71C879.02,-376.02 867.93,-362.16 860,-349 790.49,-233.71 788.38,-196.71 733,-74 726.11,-58.73 718.44,-41.31 712.88,-28.58"/>
<polygon fill="#63b8ff" stroke="#63b8ff" points="715.96,-26.91 708.76,-19.15 709.55,-29.71 715.96,-26.91"/>
</a>
</g>
</g>
<!-- Node24&#45;&gt;Node14 -->
<g id="edge72_Node000024_Node000014" class="edge">
<title>Node24&#45;&gt;Node14</title>
<g id="a_edge72_Node000024_Node000014"><a xlink:title=" ">
<path fill="none" stroke="#63b8ff" d="M888.72,-384.9C878.27,-367.07 856,-324.46 856,-285.5 856,-285.5 856,-285.5 856,-173.5 856,-140.38 871.55,-133.39 895,-110 916.75,-88.31 932.9,-96.32 954,-74 966.46,-60.82 975.71,-42.19 981.4,-28.52"/>
<polygon fill="#63b8ff" stroke="#63b8ff" points="984.66,-29.79 985.04,-19.2 978.14,-27.24 984.66,-29.79"/>
</a>
</g>
</g>
<!-- Node25 -->
<g id="Node000025" class="node">
<title>Node25</title>
<g id="a_Node000025"><a xlink:href="Reactor_8hpp.html" target="_top" xlink:title=" ">
<polygon fill="white" stroke="#666666" points="1109,-74 1035,-74 1035,-55 1109,-55 1109,-74"/>
<text text-anchor="middle" x="1072" y="-62" font-family="Helvetica,sans-Serif" font-size="10.00">Reactor.hpp</text>
</a>
</g>
</g>
<!-- Node24&#45;&gt;Node25 -->
<g id="edge48_Node000024_Node000025" class="edge">
<title>Node24&#45;&gt;Node25</title>
<g id="a_edge48_Node000024_Node000025"><a xlink:title=" ">
<path fill="none" stroke="#63b8ff" d="M894,-384.82C894,-366.48 894,-322.44 894,-285.5 894,-285.5 894,-285.5 894,-173.5 894,-143.91 892.76,-130.6 914,-110 929.84,-94.64 984.34,-81.57 1024.93,-73.65"/>
<polygon fill="#63b8ff" stroke="#63b8ff" points="1025.75,-77.06 1034.92,-71.75 1024.44,-70.18 1025.75,-77.06"/>
</a>
</g>
</g>
<!-- Node27 -->
<g id="Node000027" class="node">
<title>Node27</title>
<g id="a_Node000027"><a xlink:title=" ">
<polygon fill="#e0e0e0" stroke="#999999" points="1443.5,-19 1378.5,-19 1378.5,0 1443.5,0 1443.5,-19"/>
<text text-anchor="middle" x="1411" y="-7" font-family="Helvetica,sans-Serif" font-size="10.00">stdexcept</text>
</a>
</g>
</g>
<!-- Node24&#45;&gt;Node27 -->
<g id="edge74_Node000024_Node000027" class="edge">
<title>Node24&#45;&gt;Node27</title>
<g id="a_edge74_Node000024_Node000027"><a xlink:title=" ">
<path fill="none" stroke="#63b8ff" d="M928.38,-394.01C1047.74,-394.86 1437,-389.67 1437,-285.5 1437,-285.5 1437,-285.5 1437,-118.5 1437,-86.15 1425.83,-49.82 1418.14,-28.62"/>
<polygon fill="#63b8ff" stroke="#63b8ff" points="1421.32,-27.13 1414.51,-19.01 1414.77,-29.6 1421.32,-27.13"/>
</a>
</g>
</g>
<!-- Node29 -->
<g id="Node000029" class="node">
<title>Node29</title>
<g id="a_Node000029"><a xlink:href="Acceptor_8hpp.html" target="_top" xlink:title=" ">
<polygon fill="white" stroke="#666666" points="1177,-184 1097,-184 1097,-165 1177,-165 1177,-184"/>
<text text-anchor="middle" x="1137" y="-172" font-family="Helvetica,sans-Serif" font-size="10.00">Acceptor.hpp</text>
</a>
</g>
</g>
<!-- Node24&#45;&gt;Node29 -->
<g id="edge56_Node000024_Node000029" class="edge">
<title>Node24&#45;&gt;Node29</title>
<g id="a_edge56_Node000024_Node000029"><a xlink:title=" ">
<path fill="none" stroke="#63b8ff" d="M928.15,-388.77C957.22,-383.3 998.78,-371.92 1028,-349 1082.28,-306.42 1116.87,-228.78 1130.46,-193.64"/>
<polygon fill="#63b8ff" stroke="#63b8ff" points="1133.77,-194.78 1134,-184.18 1127.21,-192.32 1133.77,-194.78"/>
</a>
</g>
</g>
<!-- Node32 -->
<g id="Node000032" class="node">
<title>Node32</title>
<g id="a_Node000032"><a xlink:title=" ">
<polygon fill="#e0e0e0" stroke="#999999" points="1070.5,-129 1017.5,-129 1017.5,-110 1070.5,-110 1070.5,-129"/>
<text text-anchor="middle" x="1044" y="-117" font-family="Helvetica,sans-Serif" font-size="10.00">netdb.h</text>
</a>
</g>
</g>
<!-- Node24&#45;&gt;Node32 -->
<g id="edge73_Node000024_Node000032" class="edge">
<title>Node24&#45;&gt;Node32</title>
<g id="a_edge73_Node000024_Node000032"><a xlink:title=" ">
<path fill="none" stroke="#63b8ff" d="M917.14,-384.91C952.01,-370.3 1014,-337.07 1014,-285.5 1014,-285.5 1014,-285.5 1014,-228.5 1014,-195.87 1026.87,-159.65 1035.75,-138.55"/>
<polygon fill="#63b8ff" stroke="#63b8ff" points="1039.02,-139.8 1039.83,-129.23 1032.61,-136.99 1039.02,-139.8"/>
</a>
</g>
</g>
<!-- Node33 -->
<g id="Node000033" class="node">
<title>Node33</title>
<g id="a_Node000033"><a xlink:title=" ">
<polygon fill="#e0e0e0" stroke="#999999" points="999.5,-129 922.5,-129 922.5,-110 999.5,-110 999.5,-129"/>
<text text-anchor="middle" x="961" y="-117" font-family="Helvetica,sans-Serif" font-size="10.00">sys/socket.h</text>
</a>
</g>
</g>
<!-- Node24&#45;&gt;Node33 -->
<g id="edge75_Node000024_Node000033" class="edge">
<title>Node24&#45;&gt;Node33</title>
<g id="a_edge75_Node000024_Node000033"><a xlink:title=" ">
<path fill="none" stroke="#63b8ff" d="M901.45,-384.94C915.83,-367.5 946,-326.08 946,-285.5 946,-285.5 946,-285.5 946,-228.5 946,-196.89 952.38,-160.56 956.82,-139.13"/>
<polygon fill="#63b8ff" stroke="#63b8ff" points="960.29,-139.64 958.98,-129.12 953.45,-138.16 960.29,-139.64"/>
</a>
</g>
</g>
<!-- Node25&#45;&gt;Node6 -->
<g id="edge50_Node000025_Node000006" class="edge">
<title>Node25&#45;&gt;Node6</title>
<g id="a_edge50_Node000025_Node000006"><a xlink:title=" ">
<path fill="none" stroke="#63b8ff" d="M1034.97,-58.85C975.29,-51.24 854.19,-35.34 752,-19 751.9,-18.98 751.79,-18.97 751.68,-18.95"/>
<polygon fill="#63b8ff" stroke="#63b8ff" points="752.11,-15.47 741.67,-17.28 750.95,-22.38 752.11,-15.47"/>
</a>
</g>
</g>
<!-- Node25&#45;&gt;Node14 -->
<g id="edge51_Node000025_Node000014" class="edge">
<title>Node25&#45;&gt;Node14</title>
<g id="a_edge51_Node000025_Node000014"><a xlink:title=" ">
<path fill="none" stroke="#63b8ff" d="M1058.5,-54.98C1045.6,-46.84 1025.9,-34.41 1010.6,-24.76"/>
<polygon fill="#63b8ff" stroke="#63b8ff" points="1012.07,-21.55 1001.74,-19.17 1008.33,-27.47 1012.07,-21.55"/>
</a>
</g>
</g>
<!-- Node25&#45;&gt;Node16 -->
<g id="edge55_Node000025_Node000016" class="edge">
<title>Node25&#45;&gt;Node16</title>
<g id="a_edge55_Node000025_Node000016"><a xlink:title=" ">
<path fill="none" stroke="#63b8ff" d="M1034.88,-60.9C962.45,-55.51 797.35,-41.7 660,-19 659.9,-18.98 659.8,-18.97 659.7,-18.95"/>
<polygon fill="#63b8ff" stroke="#63b8ff" points="660.63,-15.56 650.15,-17.17 659.34,-22.44 660.63,-15.56"/>
</a>
</g>
</g>
<!-- Node25&#45;&gt;Node18 -->
<g id="edge52_Node000025_Node000018" class="edge">
<title>Node25&#45;&gt;Node18</title>
<g id="a_edge52_Node000025_Node000018"><a xlink:title=" ">
<path fill="none" stroke="#63b8ff" d="M1047.42,-54.98C1020.22,-45.56 976.43,-30.39 947.68,-20.44"/>
<polygon fill="#63b8ff" stroke="#63b8ff" points="948.79,-17.11 938.19,-17.15 946.5,-23.73 948.79,-17.11"/>
</a>
</g>
</g>
<!-- Node26 -->
<g id="Node000026" class="node">
<title>Node26</title>
<g id="a_Node000026"><a xlink:href="IHandler_8hpp.html" target="_top" xlink:title=" ">
<polygon fill="white" stroke="#666666" points="1312,-19 1234,-19 1234,0 1312,0 1312,-19"/>
<text text-anchor="middle" x="1273" y="-7" font-family="Helvetica,sans-Serif" font-size="10.00">IHandler.hpp</text>
</a>
</g>
</g>
<!-- Node25&#45;&gt;Node26 -->
<g id="edge49_Node000025_Node000026" class="edge">
<title>Node25&#45;&gt;Node26</title>
<g id="a_edge49_Node000025_Node000026"><a xlink:title=" ">
<path fill="none" stroke="#63b8ff" d="M1104.29,-54.98C1138.62,-45.93 1193.06,-31.58 1230.77,-21.64"/>
<polygon fill="#63b8ff" stroke="#63b8ff" points="1231.68,-25.02 1240.45,-19.08 1229.89,-18.25 1231.68,-25.02"/>
</a>
</g>
</g>
<!-- Node25&#45;&gt;Node27 -->
<g id="edge53_Node000025_Node000027" class="edge">
<title>Node25&#45;&gt;Node27</title>
<g id="a_edge53_Node000025_Node000027"><a xlink:title=" ">
<path fill="none" stroke="#63b8ff" d="M1109.25,-57.68C1172.59,-47.77 1300.94,-27.71 1368,-17.22"/>
<polygon fill="#63b8ff" stroke="#63b8ff" points="1368.88,-20.63 1378.22,-15.63 1367.8,-13.71 1368.88,-20.63"/>
</a>
</g>
</g>
<!-- Node28 -->
<g id="Node000028" class="node">
<title>Node28</title>
<g id="a_Node000028"><a xlink:title=" ">
<polygon fill="#e0e0e0" stroke="#999999" points="1106.5,-19 1037.5,-19 1037.5,0 1106.5,0 1106.5,-19"/>
<text text-anchor="middle" x="1072" y="-7" font-family="Helvetica,sans-Serif" font-size="10.00">sys/epoll.h</text>
</a>
</g>
</g>
<!-- Node25&#45;&gt;Node28 -->
<g id="edge54_Node000025_Node000028" class="edge">
<title>Node25&#45;&gt;Node28</title>
<g id="a_edge54_Node000025_Node000028"><a xlink:title=" ">
<path fill="none" stroke="#63b8ff" d="M1072,-54.75C1072,-47.8 1072,-37.85 1072,-29.13"/>
<polygon fill="#63b8ff" stroke="#63b8ff" points="1075.5,-29.09 1072,-19.09 1068.5,-29.09 1075.5,-29.09"/>
</a>
</g>
</g>
<!-- Node29&#45;&gt;Node11 -->
<g id="edge66_Node000029_Node000011" class="edge">
<title>Node29&#45;&gt;Node11</title>
<g id="a_edge66_Node000029_Node000011"><a xlink:title=" ">
<path fill="none" stroke="#63b8ff" d="M1177.04,-174.13C1217.96,-172.65 1281.03,-164.17 1321,-129 1340.64,-111.71 1337.25,-99.73 1342,-74 1343.53,-65.7 1347.06,-61.76 1342,-55 1338.41,-50.2 1269.15,-31.29 1225.38,-19.72"/>
<polygon fill="#63b8ff" stroke="#63b8ff" points="1226.22,-16.32 1215.66,-17.16 1224.44,-23.09 1226.22,-16.32"/>
</a>
</g>
</g>
<!-- Node29&#45;&gt;Node14 -->
<g id="edge67_Node000029_Node000014" class="edge">
<title>Node29&#45;&gt;Node14</title>
<g id="a_edge67_Node000029_Node000014"><a xlink:title=" ">
<path fill="none" stroke="#63b8ff" d="M1138.36,-164.84C1141.19,-143.46 1145.38,-87.51 1118,-55 1106.2,-40.99 1061.75,-27.77 1028.09,-19.44"/>
<polygon fill="#63b8ff" stroke="#63b8ff" points="1028.58,-15.95 1018.04,-17.01 1026.94,-22.76 1028.58,-15.95"/>
</a>
</g>
</g>
<!-- Node29&#45;&gt;Node25 -->
<g id="edge58_Node000029_Node000025" class="edge">
<title>Node29&#45;&gt;Node25</title>
<g id="a_edge58_Node000029_Node000025"><a xlink:title=" ">
<path fill="none" stroke="#63b8ff" d="M1131.68,-164.66C1120.96,-146.85 1096.6,-106.37 1082.54,-83.01"/>
<polygon fill="#63b8ff" stroke="#63b8ff" points="1085.37,-80.92 1077.21,-74.16 1079.37,-84.53 1085.37,-80.92"/>
</a>
</g>
</g>
<!-- Node29&#45;&gt;Node26 -->
<g id="edge57_Node000029_Node000026" class="edge">
<title>Node29&#45;&gt;Node26</title>
<g id="a_edge57_Node000029_Node000026"><a xlink:title=" ">
<path fill="none" stroke="#63b8ff" d="M1177.29,-169.69C1230.07,-163.89 1318.69,-151.12 1342,-129 1366.34,-105.9 1374.31,-83.75 1357,-55 1347.91,-39.89 1331.78,-29.65 1316.06,-22.83"/>
<polygon fill="#63b8ff" stroke="#63b8ff" points="1316.99,-19.44 1306.4,-19.02 1314.42,-25.95 1316.99,-19.44"/>
</a>
</g>
</g>
<!-- Node30 -->
<g id="Node000030" class="node">
<title>Node30</title>
<g id="a_Node000030"><a xlink:href="ConnectionHandler_8hpp.html" target="_top" xlink:title=" ">
<polygon fill="white" stroke="#666666" points="1295,-129 1165,-129 1165,-110 1295,-110 1295,-129"/>
<text text-anchor="middle" x="1230" y="-117" font-family="Helvetica,sans-Serif" font-size="10.00">ConnectionHandler.hpp</text>
</a>
</g>
</g>
<!-- Node29&#45;&gt;Node30 -->
<g id="edge59_Node000029_Node000030" class="edge">
<title>Node29&#45;&gt;Node30</title>
<g id="a_edge59_Node000029_Node000030"><a xlink:title=" ">
<path fill="none" stroke="#63b8ff" d="M1151.94,-164.98C1166.5,-156.69 1188.87,-143.94 1205.93,-134.22"/>
<polygon fill="#63b8ff" stroke="#63b8ff" points="1207.83,-137.16 1214.79,-129.17 1204.36,-131.08 1207.83,-137.16"/>
</a>
</g>
</g>
<!-- Node31 -->
<g id="Node000031" class="node">
<title>Node31</title>
<g id="a_Node000031"><a xlink:title=" ">
<polygon fill="#e0e0e0" stroke="#999999" points="1332.5,-74 1279.5,-74 1279.5,-55 1332.5,-55 1332.5,-74"/>
<text text-anchor="middle" x="1306" y="-62" font-family="Helvetica,sans-Serif" font-size="10.00">string.h</text>
</a>
</g>
</g>
<!-- Node29&#45;&gt;Node31 -->
<g id="edge69_Node000029_Node000031" class="edge">
<title>Node29&#45;&gt;Node31</title>
<g id="a_edge69_Node000029_Node000031"><a xlink:title=" ">
<path fill="none" stroke="#63b8ff" d="M1177.08,-168.34C1221.31,-161.74 1288.33,-148.74 1304,-129 1313.85,-116.59 1313.28,-98.12 1310.88,-84.3"/>
<polygon fill="#63b8ff" stroke="#63b8ff" points="1314.27,-83.44 1308.72,-74.41 1307.43,-84.92 1314.27,-83.44"/>
</a>
</g>
</g>
<!-- Node29&#45;&gt;Node32 -->
<g id="edge68_Node000029_Node000032" class="edge">
<title>Node29&#45;&gt;Node32</title>
<g id="a_edge68_Node000029_Node000032"><a xlink:title=" ">
<path fill="none" stroke="#63b8ff" d="M1122.06,-164.98C1107.5,-156.69 1085.13,-143.94 1068.07,-134.22"/>
<polygon fill="#63b8ff" stroke="#63b8ff" points="1069.64,-131.08 1059.21,-129.17 1066.17,-137.16 1069.64,-131.08"/>
</a>
</g>
</g>
<!-- Node29&#45;&gt;Node33 -->
<g id="edge70_Node000029_Node000033" class="edge">
<title>Node29&#45;&gt;Node33</title>
<g id="a_edge70_Node000029_Node000033"><a xlink:title=" ">
<path fill="none" stroke="#63b8ff" d="M1108.72,-164.98C1079.05,-156.05 1032.21,-141.94 999.25,-132.02"/>
<polygon fill="#63b8ff" stroke="#63b8ff" points="1000.08,-128.61 989.5,-129.08 998.07,-135.32 1000.08,-128.61"/>
</a>
</g>
</g>
<!-- Node30&#45;&gt;Node6 -->
<g id="edge62_Node000030_Node000006" class="edge">
<title>Node30&#45;&gt;Node6</title>
<g id="a_edge62_Node000030_Node000006"><a xlink:title=" ">
<path fill="none" stroke="#63b8ff" d="M1164.84,-114.94C1044.66,-107.98 797.12,-91.71 762,-74 741.82,-63.82 725.44,-43.22 715.51,-28.23"/>
<polygon fill="#63b8ff" stroke="#63b8ff" points="718.22,-25.97 709.94,-19.36 712.29,-29.69 718.22,-25.97"/>
</a>
</g>
</g>
<!-- Node30&#45;&gt;Node11 -->
<g id="edge63_Node000030_Node000011" class="edge">
<title>Node30&#45;&gt;Node11</title>
<g id="a_edge63_Node000030_Node000011"><a xlink:title=" ">
<path fill="none" stroke="#63b8ff" d="M1226.73,-109.66C1220.19,-92.01 1205.4,-52.09 1196.72,-28.64"/>
<polygon fill="#63b8ff" stroke="#63b8ff" points="1199.96,-27.32 1193.21,-19.16 1193.4,-29.75 1199.96,-27.32"/>
</a>
</g>
</g>
<!-- Node30&#45;&gt;Node14 -->
<g id="edge64_Node000030_Node000014" class="edge">
<title>Node30&#45;&gt;Node14</title>
<g id="a_edge64_Node000030_Node000014"><a xlink:title=" ">
<path fill="none" stroke="#63b8ff" d="M1221.61,-109.75C1208.03,-96.08 1179.84,-69.71 1151,-55 1129.62,-44.09 1068.98,-28.95 1028,-19.44"/>
<polygon fill="#63b8ff" stroke="#63b8ff" points="1028.57,-15.98 1018.04,-17.15 1027,-22.8 1028.57,-15.98"/>
</a>
</g>
</g>
<!-- Node30&#45;&gt;Node25 -->
<g id="edge61_Node000030_Node000025" class="edge">
<title>Node30&#45;&gt;Node25</title>
<g id="a_edge61_Node000030_Node000025"><a xlink:title=" ">
<path fill="none" stroke="#63b8ff" d="M1204.61,-109.98C1178.2,-101.13 1136.65,-87.19 1107.11,-77.28"/>
<polygon fill="#63b8ff" stroke="#63b8ff" points="1108.18,-73.94 1097.58,-74.08 1105.95,-80.58 1108.18,-73.94"/>
</a>
</g>
</g>
<!-- Node30&#45;&gt;Node26 -->
<g id="edge60_Node000030_Node000026" class="edge">
<title>Node30&#45;&gt;Node26</title>
<g id="a_edge60_Node000030_Node000026"><a xlink:title=" ">
<path fill="none" stroke="#63b8ff" d="M1233.52,-109.66C1240.55,-92.01 1256.44,-52.09 1265.78,-28.64"/>
<polygon fill="#63b8ff" stroke="#63b8ff" points="1269.11,-29.74 1269.55,-19.16 1262.6,-27.15 1269.11,-29.74"/>
</a>
</g>
</g>
<!-- Node30&#45;&gt;Node31 -->
<g id="edge65_Node000030_Node000031" class="edge">
<title>Node30&#45;&gt;Node31</title>
<g id="a_edge65_Node000030_Node000031"><a xlink:title=" ">
<path fill="none" stroke="#63b8ff" d="M1242.21,-109.98C1253.78,-101.92 1271.38,-89.65 1285.16,-80.03"/>
<polygon fill="#63b8ff" stroke="#63b8ff" points="1287.37,-82.76 1293.57,-74.17 1283.36,-77.02 1287.37,-82.76"/>
</a>
</g>
</g>
<!-- Node34&#45;&gt;Node6 -->
<g id="edge78_Node000034_Node000006" class="edge">
<title>Node34&#45;&gt;Node6</title>
<g id="a_edge78_Node000034_Node000006"><a xlink:title=" ">
<path fill="none" stroke="#63b8ff" d="M799.84,-54.98C781.75,-46.5 753.72,-33.35 732.81,-23.54"/>
<polygon fill="#63b8ff" stroke="#63b8ff" points="734.03,-20.25 723.49,-19.17 731.05,-26.59 734.03,-20.25"/>
</a>
</g>
</g>
<!-- Node34&#45;&gt;Node13 -->
<g id="edge80_Node000034_Node000013" class="edge">
<title>Node34&#45;&gt;Node13</title>
<g id="a_edge80_Node000034_Node000013"><a xlink:title=" ">
<path fill="none" stroke="#63b8ff" d="M770.67,-61.73C680,-57.85 475.44,-46.77 293.8,-18.89"/>
<polygon fill="#63b8ff" stroke="#63b8ff" points="294.22,-15.41 283.8,-17.33 293.14,-22.33 294.22,-15.41"/>
</a>
</g>
</g>
<!-- Node34&#45;&gt;Node14 -->
<g id="edge81_Node000034_Node000014" class="edge">
<title>Node34&#45;&gt;Node14</title>
<g id="a_edge81_Node000034_Node000014"><a xlink:title=" ">
<path fill="none" stroke="#63b8ff" d="M845.31,-54.98C873.85,-46.09 918.83,-32.07 950.64,-22.15"/>
<polygon fill="#63b8ff" stroke="#63b8ff" points="951.97,-25.4 960.47,-19.08 949.88,-18.72 951.97,-25.4"/>
</a>
</g>
</g>
<!-- Node35 -->
<g id="Node000035" class="node">
<title>Node35</title>
<g id="a_Node000035"><a xlink:title=" ">
<polygon fill="#e0e0e0" stroke="#999999" points="879,-19 835,-19 835,0 879,0 879,-19"/>
<text text-anchor="middle" x="857" y="-7" font-family="Helvetica,sans-Serif" font-size="10.00">ctime</text>
</a>
</g>
</g>
<!-- Node34&#45;&gt;Node35 -->
<g id="edge79_Node000034_Node000035" class="edge">
<title>Node34&#45;&gt;Node35</title>
<g id="a_edge79_Node000034_Node000035"><a xlink:title=" ">
<path fill="none" stroke="#63b8ff" d="M824.44,-54.75C829.89,-47.34 837.86,-36.5 844.56,-27.41"/>
<polygon fill="#63b8ff" stroke="#63b8ff" points="847.57,-29.22 850.68,-19.09 841.93,-25.07 847.57,-29.22"/>
</a>
</g>
</g>
<!-- Node36 -->
<g id="Node000036" class="node">
<title>Node36</title>
<g id="a_Node000036"><a xlink:title=" ">
<polygon fill="#e0e0e0" stroke="#999999" points="817,-19 761,-19 761,0 817,0 817,-19"/>
<text text-anchor="middle" x="789" y="-7" font-family="Helvetica,sans-Serif" font-size="10.00">iomanip</text>
</a>
</g>
</g>
<!-- Node34&#45;&gt;Node36 -->
<g id="edge82_Node000034_Node000036" class="edge">
<title>Node34&#45;&gt;Node36</title>
<g id="a_edge82_Node000034_Node000036"><a xlink:title=" ">
<path fill="none" stroke="#63b8ff" d="M813.21,-54.75C809.24,-47.49 803.47,-36.95 798.57,-27.98"/>
<polygon fill="#63b8ff" stroke="#63b8ff" points="801.57,-26.18 793.7,-19.09 795.43,-29.54 801.57,-26.18"/>
</a>
</g>
</g>
</g>
</svg>
