<?xml version="1.0" encoding="UTF-8" standalone="no"?>
<!DOCTYPE svg PUBLIC "-//W3C//DTD SVG 1.1//EN"
 "http://www.w3.org/Graphics/SVG/1.1/DTD/svg11.dtd">
<!-- Generated by graphviz version 2.43.0 (0)
 -->
<!-- Title: include/kernel/Reactor.hpp Pages: 1 -->
<svg width="557pt" height="82pt"
 viewBox="0.00 0.00 557.00 82.00" xmlns="http://www.w3.org/2000/svg" xmlns:xlink="http://www.w3.org/1999/xlink">
<g id="graph0" class="graph" transform="scale(1 1) rotate(0) translate(4 78)">
<title>include/kernel/Reactor.hpp</title>
<!-- Node1 -->
<g id="Node000001" class="node">
<title>Node1</title>
<g id="a_Node000001"><a xlink:title=" ">
<polygon fill="#999999" stroke="#666666" points="358,-74 212,-74 212,-55 358,-55 358,-74"/>
<text text-anchor="middle" x="285" y="-62" font-family="Helvetica,sans-Serif" font-size="10.00">include/kernel/Reactor.hpp</text>
</a>
</g>
</g>
<!-- Node2 -->
<g id="Node000002" class="node">
<title>Node2</title>
<g id="a_Node000002"><a xlink:href="IHandler_8hpp.html" target="_top" xlink:title=" ">
<polygon fill="white" stroke="#666666" points="78,-19 0,-19 0,0 78,0 78,-19"/>
<text text-anchor="middle" x="39" y="-7" font-family="Helvetica,sans-Serif" font-size="10.00">IHandler.hpp</text>
</a>
</g>
</g>
<!-- Node1&#45;&gt;Node2 -->
<g id="edge1_Node000001_Node000002" class="edge">
<title>Node1&#45;&gt;Node2</title>
<g id="a_edge1_Node000001_Node000002"><a xlink:title=" ">
<path fill="none" stroke="#63b8ff" d="M245.48,-54.98C202.58,-45.74 134.04,-30.98 87.82,-21.02"/>
<polygon fill="#63b8ff" stroke="#63b8ff" points="88.53,-17.59 78.02,-18.91 87.06,-24.43 88.53,-17.59"/>
</a>
</g>
</g>
<!-- Node3 -->
<g id="Node000003" class="node">
<title>Node3</title>
<g id="a_Node000003"><a xlink:href="defines_8hpp.html" target="_top" xlink:title=" ">
<polygon fill="white" stroke="#666666" points="169.5,-19 96.5,-19 96.5,0 169.5,0 169.5,-19"/>
<text text-anchor="middle" x="133" y="-7" font-family="Helvetica,sans-Serif" font-size="10.00">defines.hpp</text>
</a>
</g>
</g>
<!-- Node1&#45;&gt;Node3 -->
<g id="edge2_Node000001_Node000003" class="edge">
<title>Node1&#45;&gt;Node3</title>
<g id="a_edge2_Node000001_Node000003"><a xlink:title=" ">
<path fill="none" stroke="#63b8ff" d="M260.58,-54.98C235.28,-46.16 195.55,-32.31 167.14,-22.41"/>
<polygon fill="#63b8ff" stroke="#63b8ff" points="168.21,-19.07 157.61,-19.08 165.9,-25.68 168.21,-19.07"/>
</a>
</g>
</g>
<!-- Node4 -->
<g id="Node000004" class="node">
<title>Node4</title>
<g id="a_Node000004"><a xlink:title=" ">
<polygon fill="#e0e0e0" stroke="#999999" points="248,-19 188,-19 188,0 248,0 248,-19"/>
<text text-anchor="middle" x="218" y="-7" font-family="Helvetica,sans-Serif" font-size="10.00">iostream</text>
</a>
</g>
</g>
<!-- Node1&#45;&gt;Node4 -->
<g id="edge3_Node000001_Node000004" class="edge">
<title>Node1&#45;&gt;Node4</title>
<g id="a_edge3_Node000001_Node000004"><a xlink:title=" ">
<path fill="none" stroke="#63b8ff" d="M274.24,-54.98C264.23,-47.07 249.11,-35.11 237.07,-25.58"/>
<polygon fill="#63b8ff" stroke="#63b8ff" points="238.97,-22.63 228.96,-19.17 234.63,-28.12 238.97,-22.63"/>
</a>
</g>
</g>
<!-- Node5 -->
<g id="Node000005" class="node">
<title>Node5</title>
<g id="a_Node000005"><a xlink:title=" ">
<polygon fill="#e0e0e0" stroke="#999999" points="304,-19 266,-19 266,0 304,0 304,-19"/>
<text text-anchor="middle" x="285" y="-7" font-family="Helvetica,sans-Serif" font-size="10.00">map</text>
</a>
</g>
</g>
<!-- Node1&#45;&gt;Node5 -->
<g id="edge4_Node000001_Node000005" class="edge">
<title>Node1&#45;&gt;Node5</title>
<g id="a_edge4_Node000001_Node000005"><a xlink:title=" ">
<path fill="none" stroke="#63b8ff" d="M285,-54.75C285,-47.8 285,-37.85 285,-29.13"/>
<polygon fill="#63b8ff" stroke="#63b8ff" points="288.5,-29.09 285,-19.09 281.5,-29.09 288.5,-29.09"/>
</a>
</g>
</g>
<!-- Node6 -->
<g id="Node000006" class="node">
<title>Node6</title>
<g id="a_Node000006"><a xlink:title=" ">
<polygon fill="#e0e0e0" stroke="#999999" points="387.5,-19 322.5,-19 322.5,0 387.5,0 387.5,-19"/>
<text text-anchor="middle" x="355" y="-7" font-family="Helvetica,sans-Serif" font-size="10.00">stdexcept</text>
</a>
</g>
</g>
<!-- Node1&#45;&gt;Node6 -->
<g id="edge5_Node000001_Node000006" class="edge">
<title>Node1&#45;&gt;Node6</title>
<g id="a_edge5_Node000001_Node000006"><a xlink:title=" ">
<path fill="none" stroke="#63b8ff" d="M296.25,-54.98C306.8,-47 322.8,-34.88 335.44,-25.31"/>
<polygon fill="#63b8ff" stroke="#63b8ff" points="337.69,-28 343.55,-19.17 333.46,-22.42 337.69,-28"/>
</a>
</g>
</g>
<!-- Node7 -->
<g id="Node000007" class="node">
<title>Node7</title>
<g id="a_Node000007"><a xlink:title=" ">
<polygon fill="#e0e0e0" stroke="#999999" points="474.5,-19 405.5,-19 405.5,0 474.5,0 474.5,-19"/>
<text text-anchor="middle" x="440" y="-7" font-family="Helvetica,sans-Serif" font-size="10.00">sys/epoll.h</text>
</a>
</g>
</g>
<!-- Node1&#45;&gt;Node7 -->
<g id="edge6_Node000001_Node000007" class="edge">
<title>Node1&#45;&gt;Node7</title>
<g id="a_edge6_Node000001_Node000007"><a xlink:title=" ">
<path fill="none" stroke="#63b8ff" d="M309.9,-54.98C335.7,-46.16 376.22,-32.31 405.18,-22.41"/>
<polygon fill="#63b8ff" stroke="#63b8ff" points="406.57,-25.63 414.9,-19.08 404.31,-19.01 406.57,-25.63"/>
</a>
</g>
</g>
<!-- Node8 -->
<g id="Node000008" class="node">
<title>Node8</title>
<g id="a_Node000008"><a xlink:title=" ">
<polygon fill="#e0e0e0" stroke="#999999" points="549,-19 493,-19 493,0 549,0 549,-19"/>
<text text-anchor="middle" x="521" y="-7" font-family="Helvetica,sans-Serif" font-size="10.00">unistd.h</text>
</a>
</g>
</g>
<!-- Node1&#45;&gt;Node8 -->
<g id="edge7_Node000001_Node000008" class="edge">
<title>Node1&#45;&gt;Node8</title>
<g id="a_edge7_Node000001_Node000008"><a xlink:title=" ">
<path fill="none" stroke="#63b8ff" d="M323.54,-54.95C361.6,-46.49 421.74,-33.09 482.9,-19.24"/>
<polygon fill="#63b8ff" stroke="#63b8ff" points="483.74,-22.64 492.72,-17.01 482.2,-15.81 483.74,-22.64"/>
</a>
</g>
</g>
</g>
</svg>
