<?xml version="1.0" encoding="UTF-8" standalone="no"?>
<!DOCTYPE svg PUBLIC "-//W3C//DTD SVG 1.1//EN"
 "http://www.w3.org/Graphics/SVG/1.1/DTD/svg11.dtd">
<!-- Generated by graphviz version 2.43.0 (0)
 -->
<!-- Title: source/kernel/Reactor.cpp Pages: 1 -->
<svg width="1260pt" height="137pt"
 viewBox="0.00 0.00 1260.00 137.00" xmlns="http://www.w3.org/2000/svg" xmlns:xlink="http://www.w3.org/1999/xlink">
<g id="graph0" class="graph" transform="scale(1 1) rotate(0) translate(4 133)">
<title>source/kernel/Reactor.cpp</title>
<!-- Node1 -->
<g id="Node000001" class="node">
<title>Node1</title>
<g id="a_Node000001"><a xlink:title=" ">
<polygon fill="#999999" stroke="#666666" points="660.5,-129 518.5,-129 518.5,-110 660.5,-110 660.5,-129"/>
<text text-anchor="middle" x="589.5" y="-117" font-family="Helvetica,sans-Serif" font-size="10.00">source/kernel/Reactor.cpp</text>
</a>
</g>
</g>
<!-- Node2 -->
<g id="Node000002" class="node">
<title>Node2</title>
<g id="a_Node000002"><a xlink:href="Reactor_8hpp.html" target="_top" xlink:title=" ">
<polygon fill="white" stroke="#666666" points="349.5,-74 275.5,-74 275.5,-55 349.5,-55 349.5,-74"/>
<text text-anchor="middle" x="312.5" y="-62" font-family="Helvetica,sans-Serif" font-size="10.00">Reactor.hpp</text>
</a>
</g>
</g>
<!-- Node1&#45;&gt;Node2 -->
<g id="edge1_Node000001_Node000002" class="edge">
<title>Node1&#45;&gt;Node2</title>
<g id="a_edge1_Node000001_Node000002"><a xlink:title=" ">
<path fill="none" stroke="#63b8ff" d="M545,-109.98C494.24,-100.27 411.6,-84.46 359.73,-74.54"/>
<polygon fill="#63b8ff" stroke="#63b8ff" points="360.27,-71.08 349.79,-72.63 358.95,-77.95 360.27,-71.08"/>
</a>
</g>
</g>
<!-- Node4 -->
<g id="Node000004" class="node">
<title>Node4</title>
<g id="a_Node000004"><a xlink:href="defines_8hpp.html" target="_top" xlink:title=" ">
<polygon fill="white" stroke="#666666" points="471,-19 398,-19 398,0 471,0 471,-19"/>
<text text-anchor="middle" x="434.5" y="-7" font-family="Helvetica,sans-Serif" font-size="10.00">defines.hpp</text>
</a>
</g>
</g>
<!-- Node1&#45;&gt;Node4 -->
<g id="edge9_Node000001_Node000004" class="edge">
<title>Node1&#45;&gt;Node4</title>
<g id="a_edge9_Node000001_Node000004"><a xlink:title=" ">
<path fill="none" stroke="#63b8ff" d="M577.08,-109.84C550.55,-91.36 488.12,-47.86 455.38,-25.05"/>
<polygon fill="#63b8ff" stroke="#63b8ff" points="457.19,-22.04 446.98,-19.2 453.19,-27.79 457.19,-22.04"/>
</a>
</g>
</g>
<!-- Node9 -->
<g id="Node000009" class="node">
<title>Node9</title>
<g id="a_Node000009"><a xlink:title=" ">
<polygon fill="#e0e0e0" stroke="#999999" points="379.5,-19 323.5,-19 323.5,0 379.5,0 379.5,-19"/>
<text text-anchor="middle" x="351.5" y="-7" font-family="Helvetica,sans-Serif" font-size="10.00">unistd.h</text>
</a>
</g>
</g>
<!-- Node1&#45;&gt;Node9 -->
<g id="edge30_Node000001_Node000009" class="edge">
<title>Node1&#45;&gt;Node9</title>
<g id="a_edge30_Node000001_Node000009"><a xlink:title=" ">
<path fill="none" stroke="#63b8ff" d="M570.43,-109.84C528.63,-90.88 428.8,-45.58 379.72,-23.31"/>
<polygon fill="#63b8ff" stroke="#63b8ff" points="380.89,-19.99 370.33,-19.05 377.99,-26.37 380.89,-19.99"/>
</a>
</g>
</g>
<!-- Node10 -->
<g id="Node000010" class="node">
<title>Node10</title>
<g id="a_Node000010"><a xlink:href="Logger_8hpp.html" target="_top" xlink:title=" ">
<polygon fill="white" stroke="#666666" points="636.5,-74 542.5,-74 542.5,-55 636.5,-55 636.5,-74"/>
<text text-anchor="middle" x="589.5" y="-62" font-family="Helvetica,sans-Serif" font-size="10.00">utils/Logger.hpp</text>
</a>
</g>
</g>
<!-- Node1&#45;&gt;Node10 -->
<g id="edge10_Node000001_Node000010" class="edge">
<title>Node1&#45;&gt;Node10</title>
<g id="a_edge10_Node000001_Node000010"><a xlink:title=" ">
<path fill="none" stroke="#63b8ff" d="M589.5,-109.75C589.5,-102.8 589.5,-92.85 589.5,-84.13"/>
<polygon fill="#63b8ff" stroke="#63b8ff" points="593,-84.09 589.5,-74.09 586,-84.09 593,-84.09"/>
</a>
</g>
</g>
<!-- Node14 -->
<g id="Node000014" class="node">
<title>Node14</title>
<g id="a_Node000014"><a xlink:href="utils_8hpp.html" target="_top" xlink:title=" ">
<polygon fill="white" stroke="#666666" points="808,-74 725,-74 725,-55 808,-55 808,-74"/>
<text text-anchor="middle" x="766.5" y="-62" font-family="Helvetica,sans-Serif" font-size="10.00">utils/utils.hpp</text>
</a>
</g>
</g>
<!-- Node1&#45;&gt;Node14 -->
<g id="edge16_Node000001_Node000014" class="edge">
<title>Node1&#45;&gt;Node14</title>
<g id="a_edge16_Node000001_Node000014"><a xlink:title=" ">
<path fill="none" stroke="#63b8ff" d="M617.94,-109.98C647.78,-101.05 694.88,-86.94 728.03,-77.02"/>
<polygon fill="#63b8ff" stroke="#63b8ff" points="729.26,-80.3 737.84,-74.08 727.26,-73.6 729.26,-80.3"/>
</a>
</g>
</g>
<!-- Node22 -->
<g id="Node000022" class="node">
<title>Node22</title>
<g id="a_Node000022"><a xlink:title=" ">
<polygon fill="#e0e0e0" stroke="#999999" points="873,-74 826,-74 826,-55 873,-55 873,-74"/>
<text text-anchor="middle" x="849.5" y="-62" font-family="Helvetica,sans-Serif" font-size="10.00">cerrno</text>
</a>
</g>
</g>
<!-- Node1&#45;&gt;Node22 -->
<g id="edge28_Node000001_Node000022" class="edge">
<title>Node1&#45;&gt;Node22</title>
<g id="a_edge28_Node000001_Node000022"><a xlink:title=" ">
<path fill="none" stroke="#63b8ff" d="M638.18,-109.97C682.31,-102.02 749.34,-89.41 815.96,-74.25"/>
<polygon fill="#63b8ff" stroke="#63b8ff" points="816.82,-77.64 825.78,-71.99 815.25,-70.82 816.82,-77.64"/>
</a>
</g>
</g>
<!-- Node23 -->
<g id="Node000023" class="node">
<title>Node23</title>
<g id="a_Node000023"><a xlink:title=" ">
<polygon fill="#e0e0e0" stroke="#999999" points="937.5,-74 891.5,-74 891.5,-55 937.5,-55 937.5,-74"/>
<text text-anchor="middle" x="914.5" y="-62" font-family="Helvetica,sans-Serif" font-size="10.00">cstdio</text>
</a>
</g>
</g>
<!-- Node1&#45;&gt;Node23 -->
<g id="edge29_Node000001_Node000023" class="edge">
<title>Node1&#45;&gt;Node23</title>
<g id="a_edge29_Node000001_Node000023"><a xlink:title=" ">
<path fill="none" stroke="#63b8ff" d="M660.04,-109.98C717.3,-102.56 800.28,-90.67 881.59,-73.99"/>
<polygon fill="#63b8ff" stroke="#63b8ff" points="882.42,-77.39 891.5,-71.93 881,-70.54 882.42,-77.39"/>
</a>
</g>
</g>
<!-- Node3 -->
<g id="Node000003" class="node">
<title>Node3</title>
<g id="a_Node000003"><a xlink:href="IHandler_8hpp.html" target="_top" xlink:title=" ">
<polygon fill="white" stroke="#666666" points="165.5,-19 87.5,-19 87.5,0 165.5,0 165.5,-19"/>
<text text-anchor="middle" x="126.5" y="-7" font-family="Helvetica,sans-Serif" font-size="10.00">IHandler.hpp</text>
</a>
</g>
</g>
<!-- Node2&#45;&gt;Node3 -->
<g id="edge2_Node000002_Node000003" class="edge">
<title>Node2&#45;&gt;Node3</title>
<g id="a_edge2_Node000002_Node000003"><a xlink:title=" ">
<path fill="none" stroke="#63b8ff" d="M282.62,-54.98C251.12,-46.01 201.33,-31.82 166.47,-21.89"/>
<polygon fill="#63b8ff" stroke="#63b8ff" points="167.19,-18.46 156.62,-19.08 165.28,-25.19 167.19,-18.46"/>
</a>
</g>
</g>
<!-- Node2&#45;&gt;Node4 -->
<g id="edge3_Node000002_Node000004" class="edge">
<title>Node2&#45;&gt;Node4</title>
<g id="a_edge3_Node000002_Node000004"><a xlink:title=" ">
<path fill="none" stroke="#63b8ff" d="M332.1,-54.98C351.82,-46.42 382.45,-33.11 405.08,-23.28"/>
<polygon fill="#63b8ff" stroke="#63b8ff" points="406.76,-26.37 414.54,-19.17 403.98,-19.94 406.76,-26.37"/>
</a>
</g>
</g>
<!-- Node5 -->
<g id="Node000005" class="node">
<title>Node5</title>
<g id="a_Node000005"><a xlink:title=" ">
<polygon fill="#e0e0e0" stroke="#999999" points="549.5,-19 489.5,-19 489.5,0 549.5,0 549.5,-19"/>
<text text-anchor="middle" x="519.5" y="-7" font-family="Helvetica,sans-Serif" font-size="10.00">iostream</text>
</a>
</g>
</g>
<!-- Node2&#45;&gt;Node5 -->
<g id="edge4_Node000002_Node000005" class="edge">
<title>Node2&#45;&gt;Node5</title>
<g id="a_edge4_Node000002_Node000005"><a xlink:title=" ">
<path fill="none" stroke="#63b8ff" d="M345.76,-54.98C382.16,-45.66 440.52,-30.72 479.42,-20.76"/>
<polygon fill="#63b8ff" stroke="#63b8ff" points="480.53,-24.09 489.35,-18.22 478.8,-17.31 480.53,-24.09"/>
</a>
</g>
</g>
<!-- Node6 -->
<g id="Node000006" class="node">
<title>Node6</title>
<g id="a_Node000006"><a xlink:title=" ">
<polygon fill="#e0e0e0" stroke="#999999" points="221.5,-19 183.5,-19 183.5,0 221.5,0 221.5,-19"/>
<text text-anchor="middle" x="202.5" y="-7" font-family="Helvetica,sans-Serif" font-size="10.00">map</text>
</a>
</g>
</g>
<!-- Node2&#45;&gt;Node6 -->
<g id="edge5_Node000002_Node000006" class="edge">
<title>Node2&#45;&gt;Node6</title>
<g id="a_edge5_Node000002_Node000006"><a xlink:title=" ">
<path fill="none" stroke="#63b8ff" d="M294.83,-54.98C277.21,-46.5 249.92,-33.35 229.57,-23.54"/>
<polygon fill="#63b8ff" stroke="#63b8ff" points="231.02,-20.36 220.49,-19.17 227.98,-26.66 231.02,-20.36"/>
</a>
</g>
</g>
<!-- Node7 -->
<g id="Node000007" class="node">
<title>Node7</title>
<g id="a_Node000007"><a xlink:title=" ">
<polygon fill="#e0e0e0" stroke="#999999" points="305,-19 240,-19 240,0 305,0 305,-19"/>
<text text-anchor="middle" x="272.5" y="-7" font-family="Helvetica,sans-Serif" font-size="10.00">stdexcept</text>
</a>
</g>
</g>
<!-- Node2&#45;&gt;Node7 -->
<g id="edge6_Node000002_Node000007" class="edge">
<title>Node2&#45;&gt;Node7</title>
<g id="a_edge6_Node000002_Node000007"><a xlink:title=" ">
<path fill="none" stroke="#63b8ff" d="M305.89,-54.75C300.24,-47.26 291.96,-36.28 285.05,-27.13"/>
<polygon fill="#63b8ff" stroke="#63b8ff" points="287.8,-24.96 278.98,-19.09 282.21,-29.18 287.8,-24.96"/>
</a>
</g>
</g>
<!-- Node8 -->
<g id="Node000008" class="node">
<title>Node8</title>
<g id="a_Node000008"><a xlink:title=" ">
<polygon fill="#e0e0e0" stroke="#999999" points="69,-19 0,-19 0,0 69,0 69,-19"/>
<text text-anchor="middle" x="34.5" y="-7" font-family="Helvetica,sans-Serif" font-size="10.00">sys/epoll.h</text>
</a>
</g>
</g>
<!-- Node2&#45;&gt;Node8 -->
<g id="edge7_Node000002_Node000008" class="edge">
<title>Node2&#45;&gt;Node8</title>
<g id="a_edge7_Node000002_Node000008"><a xlink:title=" ">
<path fill="none" stroke="#63b8ff" d="M275.21,-56.44C231.01,-48.07 154.85,-33.62 79.26,-19.14"/>
<polygon fill="#63b8ff" stroke="#63b8ff" points="79.57,-15.64 69.09,-17.19 78.25,-22.51 79.57,-15.64"/>
</a>
</g>
</g>
<!-- Node2&#45;&gt;Node9 -->
<g id="edge8_Node000002_Node000009" class="edge">
<title>Node2&#45;&gt;Node9</title>
<g id="a_edge8_Node000002_Node000009"><a xlink:title=" ">
<path fill="none" stroke="#63b8ff" d="M318.94,-54.75C324.39,-47.34 332.36,-36.5 339.06,-27.41"/>
<polygon fill="#63b8ff" stroke="#63b8ff" points="342.07,-29.22 345.18,-19.09 336.43,-25.07 342.07,-29.22"/>
</a>
</g>
</g>
<!-- Node10&#45;&gt;Node4 -->
<g id="edge11_Node000010_Node000004" class="edge">
<title>Node10&#45;&gt;Node4</title>
<g id="a_edge11_Node000010_Node000004"><a xlink:title=" ">
<path fill="none" stroke="#63b8ff" d="M564.6,-54.98C538.8,-46.16 498.28,-32.31 469.32,-22.41"/>
<polygon fill="#63b8ff" stroke="#63b8ff" points="470.19,-19.01 459.6,-19.08 467.93,-25.63 470.19,-19.01"/>
</a>
</g>
</g>
<!-- Node10&#45;&gt;Node5 -->
<g id="edge14_Node000010_Node000005" class="edge">
<title>Node10&#45;&gt;Node5</title>
<g id="a_edge14_Node000010_Node000005"><a xlink:title=" ">
<path fill="none" stroke="#63b8ff" d="M578.25,-54.98C567.7,-47 551.7,-34.88 539.06,-25.31"/>
<polygon fill="#63b8ff" stroke="#63b8ff" points="541.04,-22.42 530.95,-19.17 536.81,-28 541.04,-22.42"/>
</a>
</g>
</g>
<!-- Node11 -->
<g id="Node000011" class="node">
<title>Node11</title>
<g id="a_Node000011"><a xlink:title=" ">
<polygon fill="#e0e0e0" stroke="#999999" points="611.5,-19 567.5,-19 567.5,0 611.5,0 611.5,-19"/>
<text text-anchor="middle" x="589.5" y="-7" font-family="Helvetica,sans-Serif" font-size="10.00">ctime</text>
</a>
</g>
</g>
<!-- Node10&#45;&gt;Node11 -->
<g id="edge12_Node000010_Node000011" class="edge">
<title>Node10&#45;&gt;Node11</title>
<g id="a_edge12_Node000010_Node000011"><a xlink:title=" ">
<path fill="none" stroke="#63b8ff" d="M589.5,-54.75C589.5,-47.8 589.5,-37.85 589.5,-29.13"/>
<polygon fill="#63b8ff" stroke="#63b8ff" points="593,-29.09 589.5,-19.09 586,-29.09 593,-29.09"/>
</a>
</g>
</g>
<!-- Node12 -->
<g id="Node000012" class="node">
<title>Node12</title>
<g id="a_Node000012"><a xlink:title=" ">
<polygon fill="#e0e0e0" stroke="#999999" points="759,-19 704,-19 704,0 759,0 759,-19"/>
<text text-anchor="middle" x="731.5" y="-7" font-family="Helvetica,sans-Serif" font-size="10.00">fstream</text>
</a>
</g>
</g>
<!-- Node10&#45;&gt;Node12 -->
<g id="edge13_Node000010_Node000012" class="edge">
<title>Node10&#45;&gt;Node12</title>
<g id="a_edge13_Node000010_Node000012"><a xlink:title=" ">
<path fill="none" stroke="#63b8ff" d="M612.31,-54.98C635.67,-46.27 672.2,-32.63 698.67,-22.75"/>
<polygon fill="#63b8ff" stroke="#63b8ff" points="700.13,-25.95 708.27,-19.17 697.68,-19.39 700.13,-25.95"/>
</a>
</g>
</g>
<!-- Node13 -->
<g id="Node000013" class="node">
<title>Node13</title>
<g id="a_Node000013"><a xlink:title=" ">
<polygon fill="#e0e0e0" stroke="#999999" points="685.5,-19 629.5,-19 629.5,0 685.5,0 685.5,-19"/>
<text text-anchor="middle" x="657.5" y="-7" font-family="Helvetica,sans-Serif" font-size="10.00">iomanip</text>
</a>
</g>
</g>
<!-- Node10&#45;&gt;Node13 -->
<g id="edge15_Node000010_Node000013" class="edge">
<title>Node10&#45;&gt;Node13</title>
<g id="a_edge15_Node000010_Node000013"><a xlink:title=" ">
<path fill="none" stroke="#63b8ff" d="M600.43,-54.98C610.58,-47.07 625.92,-35.11 638.15,-25.58"/>
<polygon fill="#63b8ff" stroke="#63b8ff" points="640.64,-28.08 646.38,-19.17 636.34,-22.56 640.64,-28.08"/>
</a>
</g>
</g>
<!-- Node14&#45;&gt;Node4 -->
<g id="edge17_Node000014_Node000004" class="edge">
<title>Node14&#45;&gt;Node4</title>
<g id="a_edge17_Node000014_Node000004"><a xlink:title=" ">
<path fill="none" stroke="#63b8ff" d="M724.76,-57.38C670.91,-49.41 574.1,-34.79 481.01,-19.04"/>
<polygon fill="#63b8ff" stroke="#63b8ff" points="481.59,-15.59 471.14,-17.37 480.41,-22.49 481.59,-15.59"/>
</a>
</g>
</g>
<!-- Node14&#45;&gt;Node5 -->
<g id="edge24_Node000014_Node000005" class="edge">
<title>Node14&#45;&gt;Node5</title>
<g id="a_edge24_Node000014_Node000005"><a xlink:title=" ">
<path fill="none" stroke="#63b8ff" d="M726.23,-54.93C686.37,-46.44 623.33,-32.98 559.56,-19.22"/>
<polygon fill="#63b8ff" stroke="#63b8ff" points="560.24,-15.79 549.73,-17.1 558.77,-22.63 560.24,-15.79"/>
</a>
</g>
</g>
<!-- Node14&#45;&gt;Node9 -->
<g id="edge26_Node000014_Node000009" class="edge">
<title>Node14&#45;&gt;Node9</title>
<g id="a_edge26_Node000014_Node000009"><a xlink:title=" ">
<path fill="none" stroke="#63b8ff" d="M724.9,-60.09C656.82,-54.19 517.25,-40.74 389.66,-19.03"/>
<polygon fill="#63b8ff" stroke="#63b8ff" points="390.17,-15.56 379.72,-17.31 388.98,-22.46 390.17,-15.56"/>
</a>
</g>
</g>
<!-- Node14&#45;&gt;Node12 -->
<g id="edge23_Node000014_Node000012" class="edge">
<title>Node14&#45;&gt;Node12</title>
<g id="a_edge23_Node000014_Node000012"><a xlink:title=" ">
<path fill="none" stroke="#63b8ff" d="M760.72,-54.75C755.88,-47.42 748.82,-36.73 742.86,-27.7"/>
<polygon fill="#63b8ff" stroke="#63b8ff" points="745.6,-25.5 737.17,-19.09 739.76,-29.36 745.6,-25.5"/>
</a>
</g>
</g>
<!-- Node15 -->
<g id="Node000015" class="node">
<title>Node15</title>
<g id="a_Node000015"><a xlink:title=" ">
<polygon fill="#e0e0e0" stroke="#999999" points="1184.5,-19 1120.5,-19 1120.5,0 1184.5,0 1184.5,-19"/>
<text text-anchor="middle" x="1152.5" y="-7" font-family="Helvetica,sans-Serif" font-size="10.00">algorithm</text>
</a>
</g>
</g>
<!-- Node14&#45;&gt;Node15 -->
<g id="edge18_Node000014_Node000015" class="edge">
<title>Node14&#45;&gt;Node15</title>
<g id="a_edge18_Node000014_Node000015"><a xlink:title=" ">
<path fill="none" stroke="#63b8ff" d="M808.23,-56.39C811.36,-55.91 814.48,-55.44 817.5,-55 944.61,-36.63 979.9,-40.19 1110.34,-19.07"/>
<polygon fill="#63b8ff" stroke="#63b8ff" points="1111.01,-22.5 1120.32,-17.43 1109.88,-15.6 1111.01,-22.5"/>
</a>
</g>
</g>
<!-- Node16 -->
<g id="Node000016" class="node">
<title>Node16</title>
<g id="a_Node000016"><a xlink:title=" ">
<polygon fill="#e0e0e0" stroke="#999999" points="1252,-19 1203,-19 1203,0 1252,0 1252,-19"/>
<text text-anchor="middle" x="1227.5" y="-7" font-family="Helvetica,sans-Serif" font-size="10.00">cctype</text>
</a>
</g>
</g>
<!-- Node14&#45;&gt;Node16 -->
<g id="edge19_Node000014_Node000016" class="edge">
<title>Node14&#45;&gt;Node16</title>
<g id="a_edge19_Node000014_Node000016"><a xlink:title=" ">
<path fill="none" stroke="#63b8ff" d="M808.21,-56.3C811.35,-55.84 814.47,-55.4 817.5,-55 980.7,-33.61 1026.28,-46.89 1192.62,-18.88"/>
<polygon fill="#63b8ff" stroke="#63b8ff" points="1193.44,-22.29 1202.71,-17.15 1192.26,-15.39 1193.44,-22.29"/>
</a>
</g>
</g>
<!-- Node17 -->
<g id="Node000017" class="node">
<title>Node17</title>
<g id="a_Node000017"><a xlink:title=" ">
<polygon fill="#e0e0e0" stroke="#999999" points="827.5,-19 777.5,-19 777.5,0 827.5,0 827.5,-19"/>
<text text-anchor="middle" x="802.5" y="-7" font-family="Helvetica,sans-Serif" font-size="10.00">cstring</text>
</a>
</g>
</g>
<!-- Node14&#45;&gt;Node17 -->
<g id="edge20_Node000014_Node000017" class="edge">
<title>Node14&#45;&gt;Node17</title>
<g id="a_edge20_Node000014_Node000017"><a xlink:title=" ">
<path fill="none" stroke="#63b8ff" d="M772.44,-54.75C777.48,-47.34 784.84,-36.5 791.01,-27.41"/>
<polygon fill="#63b8ff" stroke="#63b8ff" points="793.94,-29.33 796.67,-19.09 788.15,-25.39 793.94,-29.33"/>
</a>
</g>
</g>
<!-- Node18 -->
<g id="Node000018" class="node">
<title>Node18</title>
<g id="a_Node000018"><a xlink:title=" ">
<polygon fill="#e0e0e0" stroke="#999999" points="897,-19 846,-19 846,0 897,0 897,-19"/>
<text text-anchor="middle" x="871.5" y="-7" font-family="Helvetica,sans-Serif" font-size="10.00">errno.h</text>
</a>
</g>
</g>
<!-- Node14&#45;&gt;Node18 -->
<g id="edge21_Node000014_Node000018" class="edge">
<title>Node14&#45;&gt;Node18</title>
<g id="a_edge21_Node000014_Node000018"><a xlink:title=" ">
<path fill="none" stroke="#63b8ff" d="M783.37,-54.98C800.11,-46.54 826,-33.47 845.39,-23.68"/>
<polygon fill="#63b8ff" stroke="#63b8ff" points="846.97,-26.8 854.32,-19.17 843.82,-20.55 846.97,-26.8"/>
</a>
</g>
</g>
<!-- Node19 -->
<g id="Node000019" class="node">
<title>Node19</title>
<g id="a_Node000019"><a xlink:title=" ">
<polygon fill="#e0e0e0" stroke="#999999" points="962,-19 915,-19 915,0 962,0 962,-19"/>
<text text-anchor="middle" x="938.5" y="-7" font-family="Helvetica,sans-Serif" font-size="10.00">fcntl.h</text>
</a>
</g>
</g>
<!-- Node14&#45;&gt;Node19 -->
<g id="edge22_Node000014_Node000019" class="edge">
<title>Node14&#45;&gt;Node19</title>
<g id="a_edge22_Node000014_Node000019"><a xlink:title=" ">
<path fill="none" stroke="#63b8ff" d="M794.13,-54.98C824.3,-45.69 872.59,-30.81 904.92,-20.85"/>
<polygon fill="#63b8ff" stroke="#63b8ff" points="906.28,-24.09 914.81,-17.8 904.22,-17.4 906.28,-24.09"/>
</a>
</g>
</g>
<!-- Node20 -->
<g id="Node000020" class="node">
<title>Node20</title>
<g id="a_Node000020"><a xlink:title=" ">
<polygon fill="#e0e0e0" stroke="#999999" points="1036.5,-19 980.5,-19 980.5,0 1036.5,0 1036.5,-19"/>
<text text-anchor="middle" x="1008.5" y="-7" font-family="Helvetica,sans-Serif" font-size="10.00">sstream</text>
</a>
</g>
</g>
<!-- Node14&#45;&gt;Node20 -->
<g id="edge25_Node000014_Node000020" class="edge">
<title>Node14&#45;&gt;Node20</title>
<g id="a_edge25_Node000014_Node000020"><a xlink:title=" ">
<path fill="none" stroke="#63b8ff" d="M806.6,-54.95C845.85,-46.54 907.6,-33.22 970.18,-19.28"/>
<polygon fill="#63b8ff" stroke="#63b8ff" points="971.23,-22.63 980.23,-17.03 969.7,-15.8 971.23,-22.63"/>
</a>
</g>
</g>
<!-- Node21 -->
<g id="Node000021" class="node">
<title>Node21</title>
<g id="a_Node000021"><a xlink:title=" ">
<polygon fill="#e0e0e0" stroke="#999999" points="1102,-19 1055,-19 1055,0 1102,0 1102,-19"/>
<text text-anchor="middle" x="1078.5" y="-7" font-family="Helvetica,sans-Serif" font-size="10.00">vector</text>
</a>
</g>
</g>
<!-- Node14&#45;&gt;Node21 -->
<g id="edge27_Node000014_Node000021" class="edge">
<title>Node14&#45;&gt;Node21</title>
<g id="a_edge27_Node000014_Node000021"><a xlink:title=" ">
<path fill="none" stroke="#63b8ff" d="M808.24,-56.51C811.38,-56 814.49,-55.49 817.5,-55 915.6,-39.08 943.33,-39.76 1044.72,-18.98"/>
<polygon fill="#63b8ff" stroke="#63b8ff" points="1045.69,-22.35 1054.77,-16.9 1044.27,-15.5 1045.69,-22.35"/>
</a>
</g>
</g>
</g>
</svg>
