<?xml version="1.0" encoding="UTF-8" standalone="no"?>
<!DOCTYPE svg PUBLIC "-//W3C//DTD SVG 1.1//EN"
 "http://www.w3.org/Graphics/SVG/1.1/DTD/svg11.dtd">
<!-- Generated by graphviz version 2.43.0 (0)
 -->
<!-- Title: include/kernel/Reactor.hpp Pages: 1 -->
<svg width="531pt" height="269pt"
 viewBox="0.00 0.00 531.00 269.00" xmlns="http://www.w3.org/2000/svg" xmlns:xlink="http://www.w3.org/1999/xlink">
<g id="graph0" class="graph" transform="scale(1 1) rotate(0) translate(4 265)">
<title>include/kernel/Reactor.hpp</title>
<!-- Node1 -->
<g id="Node000001" class="node">
<title>Node1</title>
<g id="a_Node000001"><a xlink:title=" ">
<polygon fill="#999999" stroke="#666666" points="264,-261 118,-261 118,-242 264,-242 264,-261"/>
<text text-anchor="middle" x="191" y="-249" font-family="Helvetica,sans-Serif" font-size="10.00">include/kernel/Reactor.hpp</text>
</a>
</g>
</g>
<!-- Node2 -->
<g id="Node000002" class="node">
<title>Node2</title>
<g id="a_Node000002"><a xlink:href="Acceptor_8hpp.html" target="_top" xlink:title=" ">
<polygon fill="white" stroke="#666666" points="299.5,-134.5 148.5,-134.5 148.5,-115.5 299.5,-115.5 299.5,-134.5"/>
<text text-anchor="middle" x="224" y="-122.5" font-family="Helvetica,sans-Serif" font-size="10.00">include/kernel/Acceptor.hpp</text>
</a>
</g>
</g>
<!-- Node1&#45;&gt;Node2 -->
<g id="edge1_Node000001_Node000002" class="edge">
<title>Node1&#45;&gt;Node2</title>
<g id="a_edge1_Node000001_Node000002"><a xlink:title=" ">
<path fill="none" stroke="#63b8ff" d="M195.67,-231.68C199.45,-216.6 204.94,-194.91 210,-176 213.87,-161.54 218.61,-144.81 221.46,-134.83"/>
<polygon fill="#63b8ff" stroke="#63b8ff" points="192.18,-231.22 193.16,-241.77 198.97,-232.91 192.18,-231.22"/>
</a>
</g>
</g>
<!-- Node3 -->
<g id="Node000003" class="node">
<title>Node3</title>
<g id="a_Node000003"><a xlink:href="Kernel_8hpp.html" target="_top" xlink:title=" ">
<polygon fill="white" stroke="#666666" points="236,-74 96,-74 96,-55 236,-55 236,-74"/>
<text text-anchor="middle" x="166" y="-62" font-family="Helvetica,sans-Serif" font-size="10.00">include/kernel/Kernel.hpp</text>
</a>
</g>
</g>
<!-- Node1&#45;&gt;Node3 -->
<g id="edge10_Node000001_Node000003" class="edge">
<title>Node1&#45;&gt;Node3</title>
<g id="a_edge10_Node000001_Node000003"><a xlink:title=" ">
<path fill="none" stroke="#63b8ff" d="M179.82,-233.08C167.02,-212.01 146.83,-175.01 139,-140 136.09,-126.99 135.41,-122.84 139,-110 142.85,-96.25 152.23,-82.52 158.85,-74.03"/>
<polygon fill="#63b8ff" stroke="#63b8ff" points="177.01,-235.18 185.26,-241.82 182.95,-231.48 177.01,-235.18"/>
</a>
</g>
</g>
<!-- Node4 -->
<g id="Node000004" class="node">
<title>Node4</title>
<g id="a_Node000004"><a xlink:href="Kernel_8cpp.html" target="_top" xlink:title=" ">
<polygon fill="white" stroke="#666666" points="136,-19 0,-19 0,0 136,0 136,-19"/>
<text text-anchor="middle" x="68" y="-7" font-family="Helvetica,sans-Serif" font-size="10.00">source/kernel/Kernel.cpp</text>
</a>
</g>
</g>
<!-- Node1&#45;&gt;Node4 -->
<g id="edge11_Node000001_Node000004" class="edge">
<title>Node1&#45;&gt;Node4</title>
<g id="a_edge11_Node000001_Node000004"><a xlink:title=" ">
<path fill="none" stroke="#63b8ff" d="M172.81,-234.9C164.23,-226.88 154.29,-216.58 147,-206 102.56,-141.48 77.21,-48.22 70.09,-19.35"/>
<polygon fill="#63b8ff" stroke="#63b8ff" points="170.73,-237.73 180.5,-241.82 175.42,-232.53 170.73,-237.73"/>
</a>
</g>
</g>
<!-- Node7 -->
<g id="Node000007" class="node">
<title>Node7</title>
<g id="a_Node000007"><a xlink:href="ConnectionHandler_8hpp.html" target="_top" xlink:title=" ">
<polygon fill="white" stroke="#666666" points="362.5,-206 219.5,-206 219.5,-176 362.5,-176 362.5,-206"/>
<text text-anchor="start" x="227.5" y="-194" font-family="Helvetica,sans-Serif" font-size="10.00">include/kernel/Connection</text>
<text text-anchor="middle" x="291" y="-183" font-family="Helvetica,sans-Serif" font-size="10.00">Handler.hpp</text>
</a>
</g>
</g>
<!-- Node1&#45;&gt;Node7 -->
<g id="edge6_Node000001_Node000007" class="edge">
<title>Node1&#45;&gt;Node7</title>
<g id="a_edge6_Node000001_Node000007"><a xlink:title=" ">
<path fill="none" stroke="#63b8ff" d="M214.4,-236.81C230.17,-227.58 250.94,-215.43 266.87,-206.11"/>
<polygon fill="#63b8ff" stroke="#63b8ff" points="212.62,-233.8 205.76,-241.87 216.15,-239.84 212.62,-233.8"/>
</a>
</g>
</g>
<!-- Node9 -->
<g id="Node000009" class="node">
<title>Node9</title>
<g id="a_Node000009"><a xlink:href="Reactor_8cpp.html" target="_top" xlink:title=" ">
<polygon fill="white" stroke="#666666" points="523,-200.5 381,-200.5 381,-181.5 523,-181.5 523,-200.5"/>
<text text-anchor="middle" x="452" y="-188.5" font-family="Helvetica,sans-Serif" font-size="10.00">source/kernel/Reactor.cpp</text>
</a>
</g>
</g>
<!-- Node1&#45;&gt;Node9 -->
<g id="edge12_Node000001_Node000009" class="edge">
<title>Node1&#45;&gt;Node9</title>
<g id="a_edge12_Node000001_Node000009"><a xlink:title=" ">
<path fill="none" stroke="#63b8ff" d="M238.96,-239.75C289.38,-228.45 367.69,-210.9 414,-200.52"/>
<polygon fill="#63b8ff" stroke="#63b8ff" points="237.94,-236.39 228.95,-241.99 239.48,-243.22 237.94,-236.39"/>
</a>
</g>
</g>
<!-- Node2&#45;&gt;Node3 -->
<g id="edge2_Node000002_Node000003" class="edge">
<title>Node2&#45;&gt;Node3</title>
<g id="a_edge2_Node000002_Node000003"><a xlink:title=" ">
<path fill="none" stroke="#63b8ff" d="M208.23,-108.09C197.4,-97.17 183.43,-83.08 174.59,-74.17"/>
<polygon fill="#63b8ff" stroke="#63b8ff" points="205.92,-110.73 215.44,-115.37 210.89,-105.8 205.92,-110.73"/>
</a>
</g>
</g>
<!-- Node6 -->
<g id="Node000006" class="node">
<title>Node6</title>
<g id="a_Node000006"><a xlink:href="Acceptor_8cpp.html" target="_top" xlink:title=" ">
<polygon fill="white" stroke="#666666" points="401.5,-74 254.5,-74 254.5,-55 401.5,-55 401.5,-74"/>
<text text-anchor="middle" x="328" y="-62" font-family="Helvetica,sans-Serif" font-size="10.00">source/kernel/Acceptor.cpp</text>
</a>
</g>
</g>
<!-- Node2&#45;&gt;Node6 -->
<g id="edge5_Node000002_Node000006" class="edge">
<title>Node2&#45;&gt;Node6</title>
<g id="a_edge5_Node000002_Node000006"><a xlink:title=" ">
<path fill="none" stroke="#63b8ff" d="M248.14,-110.42C268.01,-99.24 295.59,-83.73 312.59,-74.17"/>
<polygon fill="#63b8ff" stroke="#63b8ff" points="246.35,-107.41 239.35,-115.37 249.78,-113.52 246.35,-107.41"/>
</a>
</g>
</g>
<!-- Node3&#45;&gt;Node4 -->
<g id="edge3_Node000003_Node000004" class="edge">
<title>Node3&#45;&gt;Node4</title>
<g id="a_edge3_Node000003_Node000004"><a xlink:title=" ">
<path fill="none" stroke="#63b8ff" d="M140.97,-49.97C123.06,-40.28 99.47,-27.52 84.03,-19.17"/>
<polygon fill="#63b8ff" stroke="#63b8ff" points="139.79,-53.31 150.25,-54.98 143.12,-47.15 139.79,-53.31"/>
</a>
</g>
</g>
<!-- Node5 -->
<g id="Node000005" class="node">
<title>Node5</title>
<g id="a_Node000005"><a xlink:href="main_8cpp.html" target="_top" xlink:title=" ">
<polygon fill="white" stroke="#666666" points="251.5,-19 154.5,-19 154.5,0 251.5,0 251.5,-19"/>
<text text-anchor="middle" x="203" y="-7" font-family="Helvetica,sans-Serif" font-size="10.00">source/main.cpp</text>
</a>
</g>
</g>
<!-- Node3&#45;&gt;Node5 -->
<g id="edge4_Node000003_Node000005" class="edge">
<title>Node3&#45;&gt;Node5</title>
<g id="a_edge4_Node000003_Node000005"><a xlink:title=" ">
<path fill="none" stroke="#63b8ff" d="M177.95,-46.39C184.31,-37.27 191.87,-26.45 197,-19.09"/>
<polygon fill="#63b8ff" stroke="#63b8ff" points="174.96,-44.55 172.11,-54.75 180.7,-48.55 174.96,-44.55"/>
</a>
</g>
</g>
<!-- Node7&#45;&gt;Node2 -->
<g id="edge7_Node000007_Node000002" class="edge">
<title>Node7&#45;&gt;Node2</title>
<g id="a_edge7_Node000007_Node000002"><a xlink:title=" ">
<path fill="none" stroke="#63b8ff" d="M268.6,-168.6C256.55,-157.1 242.34,-143.52 233.26,-134.84"/>
<polygon fill="#63b8ff" stroke="#63b8ff" points="266.48,-171.42 276.13,-175.8 271.32,-166.36 266.48,-171.42"/>
</a>
</g>
</g>
<!-- Node7&#45;&gt;Node6 -->
<g id="edge8_Node000007_Node000006" class="edge">
<title>Node7&#45;&gt;Node6</title>
<g id="a_edge8_Node000007_Node000006"><a xlink:title=" ">
<path fill="none" stroke="#63b8ff" d="M300.07,-166.28C303.08,-158.02 306.35,-148.65 309,-140 316.2,-116.52 322.87,-88.31 326.05,-74.29"/>
<polygon fill="#63b8ff" stroke="#63b8ff" points="296.77,-165.09 296.57,-175.68 303.33,-167.53 296.77,-165.09"/>
</a>
</g>
</g>
<!-- Node8 -->
<g id="Node000008" class="node">
<title>Node8</title>
<g id="a_Node000008"><a xlink:href="ConnectionHandler_8cpp.html" target="_top" xlink:title=" ">
<polygon fill="white" stroke="#666666" points="496,-140 356,-140 356,-110 496,-110 496,-140"/>
<text text-anchor="start" x="364" y="-128" font-family="Helvetica,sans-Serif" font-size="10.00">source/kernel/Connection</text>
<text text-anchor="middle" x="426" y="-117" font-family="Helvetica,sans-Serif" font-size="10.00">Handler.cpp</text>
</a>
</g>
</g>
<!-- Node7&#45;&gt;Node8 -->
<g id="edge9_Node000007_Node000008" class="edge">
<title>Node7&#45;&gt;Node8</title>
<g id="a_edge9_Node000007_Node000008"><a xlink:title=" ">
<path fill="none" stroke="#63b8ff" d="M329.71,-171.65C350.94,-161.58 376.85,-149.3 396.44,-140.01"/>
<polygon fill="#63b8ff" stroke="#63b8ff" points="328.16,-168.51 320.63,-175.95 331.16,-174.83 328.16,-168.51"/>
</a>
</g>
</g>
</g>
</svg>
