<?xml version="1.0" encoding="UTF-8" standalone="no"?>
<!DOCTYPE svg PUBLIC "-//W3C//DTD SVG 1.1//EN"
 "http://www.w3.org/Graphics/SVG/1.1/DTD/svg11.dtd">
<!-- Generated by graphviz version 2.43.0 (0)
 -->
<!-- Title: include/utils/utils.hpp Pages: 1 -->
<svg width="799pt" height="82pt"
 viewBox="0.00 0.00 799.00 82.00" xmlns="http://www.w3.org/2000/svg" xmlns:xlink="http://www.w3.org/1999/xlink">
<g id="graph0" class="graph" transform="scale(1 1) rotate(0) translate(4 78)">
<title>include/utils/utils.hpp</title>
<!-- Node1 -->
<g id="Node000001" class="node">
<title>Node1</title>
<g id="a_Node000001"><a xlink:title=" ">
<polygon fill="#999999" stroke="#666666" points="463,-74 342,-74 342,-55 463,-55 463,-74"/>
<text text-anchor="middle" x="402.5" y="-62" font-family="Helvetica,sans-Serif" font-size="10.00">include/utils/utils.hpp</text>
</a>
</g>
</g>
<!-- Node2 -->
<g id="Node000002" class="node">
<title>Node2</title>
<g id="a_Node000002"><a xlink:href="defines_8hpp.html" target="_top" xlink:title=" ">
<polygon fill="white" stroke="#666666" points="73,-19 0,-19 0,0 73,0 73,-19"/>
<text text-anchor="middle" x="36.5" y="-7" font-family="Helvetica,sans-Serif" font-size="10.00">defines.hpp</text>
</a>
</g>
</g>
<!-- Node1&#45;&gt;Node2 -->
<g id="edge1_Node000001_Node000002" class="edge">
<title>Node1&#45;&gt;Node2</title>
<g id="a_edge1_Node000001_Node000002"><a xlink:title=" ">
<path fill="none" stroke="#63b8ff" d="M341.93,-55.89C279.62,-47.89 179.53,-34.51 83.06,-19.02"/>
<polygon fill="#63b8ff" stroke="#63b8ff" points="83.56,-15.56 73.13,-17.42 82.45,-22.47 83.56,-15.56"/>
</a>
</g>
</g>
<!-- Node3 -->
<g id="Node000003" class="node">
<title>Node3</title>
<g id="a_Node000003"><a xlink:title=" ">
<polygon fill="#e0e0e0" stroke="#999999" points="155.5,-19 91.5,-19 91.5,0 155.5,0 155.5,-19"/>
<text text-anchor="middle" x="123.5" y="-7" font-family="Helvetica,sans-Serif" font-size="10.00">algorithm</text>
</a>
</g>
</g>
<!-- Node1&#45;&gt;Node3 -->
<g id="edge2_Node000001_Node000003" class="edge">
<title>Node1&#45;&gt;Node3</title>
<g id="a_edge2_Node000001_Node000003"><a xlink:title=" ">
<path fill="none" stroke="#63b8ff" d="M355.48,-54.99C309.6,-46.62 237.53,-33.31 165.83,-19.23"/>
<polygon fill="#63b8ff" stroke="#63b8ff" points="166.2,-15.74 155.72,-17.24 164.85,-22.61 166.2,-15.74"/>
</a>
</g>
</g>
<!-- Node4 -->
<g id="Node000004" class="node">
<title>Node4</title>
<g id="a_Node000004"><a xlink:title=" ">
<polygon fill="#e0e0e0" stroke="#999999" points="223,-19 174,-19 174,0 223,0 223,-19"/>
<text text-anchor="middle" x="198.5" y="-7" font-family="Helvetica,sans-Serif" font-size="10.00">cctype</text>
</a>
</g>
</g>
<!-- Node1&#45;&gt;Node4 -->
<g id="edge3_Node000001_Node000004" class="edge">
<title>Node1&#45;&gt;Node4</title>
<g id="a_edge3_Node000001_Node000004"><a xlink:title=" ">
<path fill="none" stroke="#63b8ff" d="M369.72,-54.98C332.35,-45.28 271.51,-29.47 233.31,-19.54"/>
<polygon fill="#63b8ff" stroke="#63b8ff" points="233.73,-16.04 223.18,-16.91 231.97,-22.81 233.73,-16.04"/>
</a>
</g>
</g>
<!-- Node5 -->
<g id="Node000005" class="node">
<title>Node5</title>
<g id="a_Node000005"><a xlink:title=" ">
<polygon fill="#e0e0e0" stroke="#999999" points="291.5,-19 241.5,-19 241.5,0 291.5,0 291.5,-19"/>
<text text-anchor="middle" x="266.5" y="-7" font-family="Helvetica,sans-Serif" font-size="10.00">cstring</text>
</a>
</g>
</g>
<!-- Node1&#45;&gt;Node5 -->
<g id="edge4_Node000001_Node000005" class="edge">
<title>Node1&#45;&gt;Node5</title>
<g id="a_edge4_Node000001_Node000005"><a xlink:title=" ">
<path fill="none" stroke="#63b8ff" d="M380.65,-54.98C358.38,-46.3 323.6,-32.75 298.28,-22.88"/>
<polygon fill="#63b8ff" stroke="#63b8ff" points="299.34,-19.54 288.75,-19.17 296.79,-26.06 299.34,-19.54"/>
</a>
</g>
</g>
<!-- Node6 -->
<g id="Node000006" class="node">
<title>Node6</title>
<g id="a_Node000006"><a xlink:title=" ">
<polygon fill="#e0e0e0" stroke="#999999" points="361,-19 310,-19 310,0 361,0 361,-19"/>
<text text-anchor="middle" x="335.5" y="-7" font-family="Helvetica,sans-Serif" font-size="10.00">errno.h</text>
</a>
</g>
</g>
<!-- Node1&#45;&gt;Node6 -->
<g id="edge5_Node000001_Node000006" class="edge">
<title>Node1&#45;&gt;Node6</title>
<g id="a_edge5_Node000001_Node000006"><a xlink:title=" ">
<path fill="none" stroke="#63b8ff" d="M391.74,-54.98C381.73,-47.07 366.61,-35.11 354.57,-25.58"/>
<polygon fill="#63b8ff" stroke="#63b8ff" points="356.47,-22.63 346.46,-19.17 352.13,-28.12 356.47,-22.63"/>
</a>
</g>
</g>
<!-- Node7 -->
<g id="Node000007" class="node">
<title>Node7</title>
<g id="a_Node000007"><a xlink:title=" ">
<polygon fill="#e0e0e0" stroke="#999999" points="426,-19 379,-19 379,0 426,0 426,-19"/>
<text text-anchor="middle" x="402.5" y="-7" font-family="Helvetica,sans-Serif" font-size="10.00">fcntl.h</text>
</a>
</g>
</g>
<!-- Node1&#45;&gt;Node7 -->
<g id="edge6_Node000001_Node000007" class="edge">
<title>Node1&#45;&gt;Node7</title>
<g id="a_edge6_Node000001_Node000007"><a xlink:title=" ">
<path fill="none" stroke="#63b8ff" d="M402.5,-54.75C402.5,-47.8 402.5,-37.85 402.5,-29.13"/>
<polygon fill="#63b8ff" stroke="#63b8ff" points="406,-29.09 402.5,-19.09 399,-29.09 406,-29.09"/>
</a>
</g>
</g>
<!-- Node8 -->
<g id="Node000008" class="node">
<title>Node8</title>
<g id="a_Node000008"><a xlink:title=" ">
<polygon fill="#e0e0e0" stroke="#999999" points="499,-19 444,-19 444,0 499,0 499,-19"/>
<text text-anchor="middle" x="471.5" y="-7" font-family="Helvetica,sans-Serif" font-size="10.00">fstream</text>
</a>
</g>
</g>
<!-- Node1&#45;&gt;Node8 -->
<g id="edge7_Node000001_Node000008" class="edge">
<title>Node1&#45;&gt;Node8</title>
<g id="a_edge7_Node000001_Node000008"><a xlink:title=" ">
<path fill="none" stroke="#63b8ff" d="M413.59,-54.98C423.99,-47 439.76,-34.88 452.22,-25.31"/>
<polygon fill="#63b8ff" stroke="#63b8ff" points="454.41,-28.04 460.21,-19.17 450.15,-22.49 454.41,-28.04"/>
</a>
</g>
</g>
<!-- Node9 -->
<g id="Node000009" class="node">
<title>Node9</title>
<g id="a_Node000009"><a xlink:title=" ">
<polygon fill="#e0e0e0" stroke="#999999" points="577.5,-19 517.5,-19 517.5,0 577.5,0 577.5,-19"/>
<text text-anchor="middle" x="547.5" y="-7" font-family="Helvetica,sans-Serif" font-size="10.00">iostream</text>
</a>
</g>
</g>
<!-- Node1&#45;&gt;Node9 -->
<g id="edge8_Node000001_Node000009" class="edge">
<title>Node1&#45;&gt;Node9</title>
<g id="a_edge8_Node000001_Node000009"><a xlink:title=" ">
<path fill="none" stroke="#63b8ff" d="M425.8,-54.98C449.75,-46.23 487.28,-32.51 514.33,-22.62"/>
<polygon fill="#63b8ff" stroke="#63b8ff" points="515.59,-25.89 523.78,-19.17 513.19,-19.32 515.59,-25.89"/>
</a>
</g>
</g>
<!-- Node10 -->
<g id="Node000010" class="node">
<title>Node10</title>
<g id="a_Node000010"><a xlink:title=" ">
<polygon fill="#e0e0e0" stroke="#999999" points="651.5,-19 595.5,-19 595.5,0 651.5,0 651.5,-19"/>
<text text-anchor="middle" x="623.5" y="-7" font-family="Helvetica,sans-Serif" font-size="10.00">sstream</text>
</a>
</g>
</g>
<!-- Node1&#45;&gt;Node10 -->
<g id="edge9_Node000001_Node000010" class="edge">
<title>Node1&#45;&gt;Node10</title>
<g id="a_edge9_Node000001_Node000010"><a xlink:title=" ">
<path fill="none" stroke="#63b8ff" d="M438.01,-54.98C478.39,-45.3 544.07,-29.55 585.47,-19.62"/>
<polygon fill="#63b8ff" stroke="#63b8ff" points="586.53,-22.96 595.44,-17.23 584.9,-16.16 586.53,-22.96"/>
</a>
</g>
</g>
<!-- Node11 -->
<g id="Node000011" class="node">
<title>Node11</title>
<g id="a_Node000011"><a xlink:title=" ">
<polygon fill="#e0e0e0" stroke="#999999" points="725.5,-19 669.5,-19 669.5,0 725.5,0 725.5,-19"/>
<text text-anchor="middle" x="697.5" y="-7" font-family="Helvetica,sans-Serif" font-size="10.00">unistd.h</text>
</a>
</g>
</g>
<!-- Node1&#45;&gt;Node11 -->
<g id="edge10_Node000001_Node000011" class="edge">
<title>Node1&#45;&gt;Node11</title>
<g id="a_edge10_Node000001_Node000011"><a xlink:title=" ">
<path fill="none" stroke="#63b8ff" d="M457.02,-54.99C507.1,-46.97 583.61,-34.21 659.09,-19.19"/>
<polygon fill="#63b8ff" stroke="#63b8ff" points="660.14,-22.56 669.25,-17.16 658.76,-15.69 660.14,-22.56"/>
</a>
</g>
</g>
<!-- Node12 -->
<g id="Node000012" class="node">
<title>Node12</title>
<g id="a_Node000012"><a xlink:title=" ">
<polygon fill="#e0e0e0" stroke="#999999" points="791,-19 744,-19 744,0 791,0 791,-19"/>
<text text-anchor="middle" x="767.5" y="-7" font-family="Helvetica,sans-Serif" font-size="10.00">vector</text>
</a>
</g>
</g>
<!-- Node1&#45;&gt;Node12 -->
<g id="edge11_Node000001_Node000012" class="edge">
<title>Node1&#45;&gt;Node12</title>
<g id="a_edge11_Node000001_Node000012"><a xlink:title=" ">
<path fill="none" stroke="#63b8ff" d="M463.13,-57.56C527.81,-50.74 633.39,-38.19 733.77,-18.92"/>
<polygon fill="#63b8ff" stroke="#63b8ff" points="734.64,-22.31 743.78,-16.97 733.3,-15.44 734.64,-22.31"/>
</a>
</g>
</g>
</g>
</svg>
