<?xml version="1.0" encoding="UTF-8" standalone="no"?>
<!DOCTYPE svg PUBLIC "-//W3C//DTD SVG 1.1//EN"
 "http://www.w3.org/Graphics/SVG/1.1/DTD/svg11.dtd">
<!-- Generated by graphviz version 2.43.0 (0)
 -->
<!-- Title: include/utils/utils.hpp Pages: 1 -->
<svg width="1465pt" height="467pt"
 viewBox="0.00 0.00 1464.50 467.00" xmlns="http://www.w3.org/2000/svg" xmlns:xlink="http://www.w3.org/1999/xlink">
<g id="graph0" class="graph" transform="scale(1 1) rotate(0) translate(4 463)">
<title>include/utils/utils.hpp</title>
<!-- Node1 -->
<g id="Node000001" class="node">
<title>Node1</title>
<g id="a_Node000001"><a xlink:title=" ">
<polygon fill="#999999" stroke="#666666" points="887.5,-459 766.5,-459 766.5,-440 887.5,-440 887.5,-459"/>
<text text-anchor="middle" x="827" y="-447" font-family="Helvetica,sans-Serif" font-size="10.00">include/utils/utils.hpp</text>
</a>
</g>
</g>
<!-- Node2 -->
<g id="Node000002" class="node">
<title>Node2</title>
<g id="a_Node000002"><a xlink:href="config__utils_8hpp.html" target="_top" xlink:title=" ">
<polygon fill="white" stroke="#666666" points="671,-404 563,-404 563,-374 671,-374 671,-404"/>
<text text-anchor="start" x="571" y="-392" font-family="Helvetica,sans-Serif" font-size="10.00">include/utils/config</text>
<text text-anchor="middle" x="617" y="-381" font-family="Helvetica,sans-Serif" font-size="10.00">_utils.hpp</text>
</a>
</g>
</g>
<!-- Node1&#45;&gt;Node2 -->
<g id="edge1_Node000001_Node000002" class="edge">
<title>Node1&#45;&gt;Node2</title>
<g id="a_edge1_Node000001_Node000002"><a xlink:title=" ">
<path fill="none" stroke="#63b8ff" d="M786.43,-437.2C752.5,-427.75 703.93,-414.22 667.49,-404.06"/>
<polygon fill="#63b8ff" stroke="#63b8ff" points="785.89,-440.68 796.46,-439.99 787.77,-433.94 785.89,-440.68"/>
</a>
</g>
</g>
<!-- Node12 -->
<g id="Node000012" class="node">
<title>Node12</title>
<g id="a_Node000012"><a xlink:href="ConfigHttpBlock_8cpp.html" target="_top" xlink:title=" ">
<polygon fill="white" stroke="#666666" points="376,-206 240,-206 240,-176 376,-176 376,-206"/>
<text text-anchor="start" x="248" y="-194" font-family="Helvetica,sans-Serif" font-size="10.00">source/config/ConfigHttp</text>
<text text-anchor="middle" x="308" y="-183" font-family="Helvetica,sans-Serif" font-size="10.00">Block.cpp</text>
</a>
</g>
</g>
<!-- Node1&#45;&gt;Node12 -->
<g id="edge24_Node000001_Node000012" class="edge">
<title>Node1&#45;&gt;Node12</title>
<g id="a_edge24_Node000001_Node000012"><a xlink:title=" ">
<path fill="none" stroke="#63b8ff" d="M816.59,-430.91C811.93,-422.81 806.5,-413.02 802,-404 766.93,-333.65 794.49,-288.36 731,-242 668.57,-196.41 461.53,-216.92 385,-206 382.18,-205.6 379.3,-205.17 376.39,-204.71"/>
<polygon fill="#63b8ff" stroke="#63b8ff" points="813.7,-432.9 821.76,-439.77 819.74,-429.37 813.7,-432.9"/>
</a>
</g>
</g>
<!-- Node15 -->
<g id="Node000015" class="node">
<title>Node15</title>
<g id="a_Node000015"><a xlink:href="ConfigServerBlock_8cpp.html" target="_top" xlink:title=" ">
<polygon fill="white" stroke="#666666" points="760,-140 614,-140 614,-110 760,-110 760,-140"/>
<text text-anchor="start" x="622" y="-128" font-family="Helvetica,sans-Serif" font-size="10.00">source/config/ConfigServer</text>
<text text-anchor="middle" x="687" y="-117" font-family="Helvetica,sans-Serif" font-size="10.00">Block.cpp</text>
</a>
</g>
</g>
<!-- Node1&#45;&gt;Node15 -->
<g id="edge26_Node000001_Node000015" class="edge">
<title>Node1&#45;&gt;Node15</title>
<g id="a_edge26_Node000001_Node000015"><a xlink:title=" ">
<path fill="none" stroke="#63b8ff" d="M827,-429.74C827,-405.37 827,-361.51 827,-324 827,-324 827,-324 827,-256 827,-198.62 763.06,-159.42 721.61,-140.04"/>
<polygon fill="#63b8ff" stroke="#63b8ff" points="823.5,-429.75 827,-439.75 830.5,-429.75 823.5,-429.75"/>
</a>
</g>
</g>
<!-- Node16 -->
<g id="Node000016" class="node">
<title>Node16</title>
<g id="a_Node000016"><a xlink:href="ConfigLocationBlock_8cpp.html" target="_top" xlink:title=" ">
<polygon fill="white" stroke="#666666" points="759,-206 603,-206 603,-176 759,-176 759,-206"/>
<text text-anchor="start" x="611" y="-194" font-family="Helvetica,sans-Serif" font-size="10.00">source/config/ConfigLocation</text>
<text text-anchor="middle" x="681" y="-183" font-family="Helvetica,sans-Serif" font-size="10.00">Block.cpp</text>
</a>
</g>
</g>
<!-- Node1&#45;&gt;Node16 -->
<g id="edge25_Node000001_Node000016" class="edge">
<title>Node1&#45;&gt;Node16</title>
<g id="a_edge25_Node000001_Node000016"><a xlink:title=" ">
<path fill="none" stroke="#63b8ff" d="M821.17,-430.2C818.63,-422.17 815.63,-412.63 813,-404 791.06,-332.18 811.1,-301.28 765,-242 752.71,-226.19 733.9,-214.33 717.19,-206.14"/>
<polygon fill="#63b8ff" stroke="#63b8ff" points="817.91,-431.51 824.27,-439.98 824.58,-429.39 817.91,-431.51"/>
</a>
</g>
</g>
<!-- Node17 -->
<g id="Node000017" class="node">
<title>Node17</title>
<g id="a_Node000017"><a xlink:href="AConfigParser_8cpp.html" target="_top" xlink:title=" ">
<polygon fill="white" stroke="#666666" points="722.5,-266.5 551.5,-266.5 551.5,-247.5 722.5,-247.5 722.5,-266.5"/>
<text text-anchor="middle" x="637" y="-254.5" font-family="Helvetica,sans-Serif" font-size="10.00">source/config/AConfigParser.cpp</text>
</a>
</g>
</g>
<!-- Node1&#45;&gt;Node17 -->
<g id="edge23_Node000001_Node000017" class="edge">
<title>Node1&#45;&gt;Node17</title>
<g id="a_edge23_Node000001_Node000017"><a xlink:title=" ">
<path fill="none" stroke="#63b8ff" d="M791.16,-436.22C773.42,-428.87 752.54,-418.17 737,-404 700,-370.25 707.06,-348.79 678,-308 667.19,-292.82 653.16,-276.3 644.63,-266.57"/>
<polygon fill="#63b8ff" stroke="#63b8ff" points="790.05,-439.55 800.64,-439.96 792.62,-433.03 790.05,-439.55"/>
</a>
</g>
</g>
<!-- Node19 -->
<g id="Node000019" class="node">
<title>Node19</title>
<g id="a_Node000019"><a xlink:href="Acceptor_8cpp.html" target="_top" xlink:title=" ">
<polygon fill="white" stroke="#666666" points="1002.5,-398.5 855.5,-398.5 855.5,-379.5 1002.5,-379.5 1002.5,-398.5"/>
<text text-anchor="middle" x="929" y="-386.5" font-family="Helvetica,sans-Serif" font-size="10.00">source/kernel/Acceptor.cpp</text>
</a>
</g>
</g>
<!-- Node1&#45;&gt;Node19 -->
<g id="edge27_Node000001_Node000019" class="edge">
<title>Node1&#45;&gt;Node19</title>
<g id="a_edge27_Node000001_Node000019"><a xlink:title=" ">
<path fill="none" stroke="#63b8ff" d="M850.94,-434.77C870.41,-423.6 897.29,-408.19 913.89,-398.67"/>
<polygon fill="#63b8ff" stroke="#63b8ff" points="848.98,-431.86 842.05,-439.87 852.47,-437.93 848.98,-431.86"/>
</a>
</g>
</g>
<!-- Node20 -->
<g id="Node000020" class="node">
<title>Node20</title>
<g id="a_Node000020"><a xlink:href="ConnectionHandler_8cpp.html" target="_top" xlink:title=" ">
<polygon fill="white" stroke="#666666" points="1161,-404 1021,-404 1021,-374 1161,-374 1161,-404"/>
<text text-anchor="start" x="1029" y="-392" font-family="Helvetica,sans-Serif" font-size="10.00">source/kernel/Connection</text>
<text text-anchor="middle" x="1091" y="-381" font-family="Helvetica,sans-Serif" font-size="10.00">Handler.cpp</text>
</a>
</g>
</g>
<!-- Node1&#45;&gt;Node20 -->
<g id="edge28_Node000001_Node000020" class="edge">
<title>Node1&#45;&gt;Node20</title>
<g id="a_edge28_Node000001_Node000020"><a xlink:title=" ">
<path fill="none" stroke="#63b8ff" d="M875.28,-437.8C918.11,-428.31 980.96,-414.38 1027.79,-404.01"/>
<polygon fill="#63b8ff" stroke="#63b8ff" points="874.39,-434.41 865.39,-439.99 875.91,-441.25 874.39,-434.41"/>
</a>
</g>
</g>
<!-- Node21 -->
<g id="Node000021" class="node">
<title>Node21</title>
<g id="a_Node000021"><a xlink:href="Reactor_8cpp.html" target="_top" xlink:title=" ">
<polygon fill="white" stroke="#666666" points="1321,-398.5 1179,-398.5 1179,-379.5 1321,-379.5 1321,-398.5"/>
<text text-anchor="middle" x="1250" y="-386.5" font-family="Helvetica,sans-Serif" font-size="10.00">source/kernel/Reactor.cpp</text>
</a>
</g>
</g>
<!-- Node1&#45;&gt;Node21 -->
<g id="edge29_Node000001_Node000021" class="edge">
<title>Node1&#45;&gt;Node21</title>
<g id="a_edge29_Node000001_Node000021"><a xlink:title=" ">
<path fill="none" stroke="#63b8ff" d="M897.47,-440.28C966.9,-431.97 1075.93,-418.33 1170,-404 1180.73,-402.37 1192.25,-400.45 1203.1,-398.56"/>
<polygon fill="#63b8ff" stroke="#63b8ff" points="897.04,-436.81 887.52,-441.47 897.87,-443.76 897.04,-436.81"/>
</a>
</g>
</g>
<!-- Node22 -->
<g id="Node000022" class="node">
<title>Node22</title>
<g id="a_Node000022"><a xlink:href="utils_8cpp.html" target="_top" xlink:title=" ">
<polygon fill="white" stroke="#666666" points="1456.5,-398.5 1339.5,-398.5 1339.5,-379.5 1456.5,-379.5 1456.5,-398.5"/>
<text text-anchor="middle" x="1398" y="-386.5" font-family="Helvetica,sans-Serif" font-size="10.00">source/utils/utils.cpp</text>
</a>
</g>
</g>
<!-- Node1&#45;&gt;Node22 -->
<g id="edge30_Node000001_Node000022" class="edge">
<title>Node1&#45;&gt;Node22</title>
<g id="a_edge30_Node000001_Node000022"><a xlink:title=" ">
<path fill="none" stroke="#63b8ff" d="M897.7,-444.81C995.31,-439.14 1176.69,-426.49 1330,-404 1339.9,-402.55 1350.53,-400.57 1360.37,-398.55"/>
<polygon fill="#63b8ff" stroke="#63b8ff" points="897.44,-441.32 887.65,-445.39 897.84,-448.31 897.44,-441.32"/>
</a>
</g>
</g>
<!-- Node3 -->
<g id="Node000003" class="node">
<title>Node3</title>
<g id="a_Node000003"><a xlink:href="AConfigParser_8hpp.html" target="_top" xlink:title=" ">
<polygon fill="white" stroke="#666666" points="488.5,-332.5 313.5,-332.5 313.5,-313.5 488.5,-313.5 488.5,-332.5"/>
<text text-anchor="middle" x="401" y="-320.5" font-family="Helvetica,sans-Serif" font-size="10.00">include/config/AConfigParser.hpp</text>
</a>
</g>
</g>
<!-- Node2&#45;&gt;Node3 -->
<g id="edge2_Node000002_Node000003" class="edge">
<title>Node2&#45;&gt;Node3</title>
<g id="a_edge2_Node000002_Node000003"><a xlink:title=" ">
<path fill="none" stroke="#63b8ff" d="M559.8,-371.05C517.9,-358.64 462.8,-342.31 429.75,-332.52"/>
<polygon fill="#63b8ff" stroke="#63b8ff" points="559.02,-374.47 569.6,-373.95 561,-367.76 559.02,-374.47"/>
</a>
</g>
</g>
<!-- Node18 -->
<g id="Node000018" class="node">
<title>Node18</title>
<g id="a_Node000018"><a xlink:href="config__utils_8cpp.html" target="_top" xlink:title=" ">
<polygon fill="white" stroke="#666666" points="669.5,-338 564.5,-338 564.5,-308 669.5,-308 669.5,-338"/>
<text text-anchor="start" x="572.5" y="-326" font-family="Helvetica,sans-Serif" font-size="10.00">source/utils/config</text>
<text text-anchor="middle" x="617" y="-315" font-family="Helvetica,sans-Serif" font-size="10.00">_utils.cpp</text>
</a>
</g>
</g>
<!-- Node2&#45;&gt;Node18 -->
<g id="edge22_Node000002_Node000018" class="edge">
<title>Node2&#45;&gt;Node18</title>
<g id="a_edge22_Node000002_Node000018"><a xlink:title=" ">
<path fill="none" stroke="#63b8ff" d="M617,-363.54C617,-354.96 617,-345.61 617,-338.16"/>
<polygon fill="#63b8ff" stroke="#63b8ff" points="613.5,-363.8 617,-373.8 620.5,-363.8 613.5,-363.8"/>
</a>
</g>
</g>
<!-- Node4 -->
<g id="Node000004" class="node">
<title>Node4</title>
<g id="a_Node000004"><a xlink:href="ConfigGlobalBlock_8hpp.html" target="_top" xlink:title=" ">
<polygon fill="white" stroke="#666666" points="161.5,-272 12.5,-272 12.5,-242 161.5,-242 161.5,-272"/>
<text text-anchor="start" x="20.5" y="-260" font-family="Helvetica,sans-Serif" font-size="10.00">include/config/ConfigGlobal</text>
<text text-anchor="middle" x="87" y="-249" font-family="Helvetica,sans-Serif" font-size="10.00">Block.hpp</text>
</a>
</g>
</g>
<!-- Node3&#45;&gt;Node4 -->
<g id="edge3_Node000003_Node000004" class="edge">
<title>Node3&#45;&gt;Node4</title>
<g id="a_edge3_Node000003_Node000004"><a xlink:title=" ">
<path fill="none" stroke="#63b8ff" d="M349.14,-311.43C296.31,-300.66 214.07,-283.9 155.81,-272.02"/>
<polygon fill="#63b8ff" stroke="#63b8ff" points="348.48,-314.87 358.98,-313.44 349.88,-308.01 348.48,-314.87"/>
</a>
</g>
</g>
<!-- Node11 -->
<g id="Node000011" class="node">
<title>Node11</title>
<g id="a_Node000011"><a xlink:href="ConfigHttpBlock_8hpp.html" target="_top" xlink:title=" ">
<polygon fill="white" stroke="#666666" points="318.5,-272 179.5,-272 179.5,-242 318.5,-242 318.5,-272"/>
<text text-anchor="start" x="187.5" y="-260" font-family="Helvetica,sans-Serif" font-size="10.00">include/config/ConfigHttp</text>
<text text-anchor="middle" x="249" y="-249" font-family="Helvetica,sans-Serif" font-size="10.00">Block.hpp</text>
</a>
</g>
</g>
<!-- Node3&#45;&gt;Node11 -->
<g id="edge11_Node000003_Node000011" class="edge">
<title>Node3&#45;&gt;Node11</title>
<g id="a_edge11_Node000003_Node000011"><a xlink:title=" ">
<path fill="none" stroke="#63b8ff" d="M370.99,-309.36C345.5,-298.63 308.96,-283.25 282.52,-272.12"/>
<polygon fill="#63b8ff" stroke="#63b8ff" points="369.93,-312.71 380.5,-313.37 372.64,-306.26 369.93,-312.71"/>
</a>
</g>
</g>
<!-- Node13 -->
<g id="Node000013" class="node">
<title>Node13</title>
<g id="a_Node000013"><a xlink:href="ConfigLocationBlock_8hpp.html" target="_top" xlink:title=" ">
<polygon fill="white" stroke="#666666" points="533.5,-272 374.5,-272 374.5,-242 533.5,-242 533.5,-272"/>
<text text-anchor="start" x="382.5" y="-260" font-family="Helvetica,sans-Serif" font-size="10.00">include/config/ConfigLocation</text>
<text text-anchor="middle" x="454" y="-249" font-family="Helvetica,sans-Serif" font-size="10.00">Block.hpp</text>
</a>
</g>
</g>
<!-- Node3&#45;&gt;Node13 -->
<g id="edge14_Node000003_Node000013" class="edge">
<title>Node3&#45;&gt;Node13</title>
<g id="a_edge14_Node000003_Node000013"><a xlink:title=" ">
<path fill="none" stroke="#63b8ff" d="M414.63,-305.54C423.13,-295.28 433.96,-282.2 442.11,-272.36"/>
<polygon fill="#63b8ff" stroke="#63b8ff" points="411.83,-303.43 408.15,-313.37 417.22,-307.9 411.83,-303.43"/>
</a>
</g>
</g>
<!-- Node14 -->
<g id="Node000014" class="node">
<title>Node14</title>
<g id="a_Node000014"><a xlink:href="ConfigServerBlock_8hpp.html" target="_top" xlink:title=" ">
<polygon fill="white" stroke="#666666" points="543.5,-206 394.5,-206 394.5,-176 543.5,-176 543.5,-206"/>
<text text-anchor="start" x="402.5" y="-194" font-family="Helvetica,sans-Serif" font-size="10.00">include/config/ConfigServer</text>
<text text-anchor="middle" x="469" y="-183" font-family="Helvetica,sans-Serif" font-size="10.00">Block.hpp</text>
</a>
</g>
</g>
<!-- Node3&#45;&gt;Node14 -->
<g id="edge20_Node000003_Node000014" class="edge">
<title>Node3&#45;&gt;Node14</title>
<g id="a_edge20_Node000003_Node000014"><a xlink:title=" ">
<path fill="none" stroke="#63b8ff" d="M384.57,-305.88C369.67,-289.23 351.9,-262.83 365,-242 375.72,-224.96 394.05,-213.59 412.36,-206.07"/>
<polygon fill="#63b8ff" stroke="#63b8ff" points="382.09,-308.34 391.5,-313.2 387.17,-303.53 382.09,-308.34"/>
</a>
</g>
</g>
<!-- Node3&#45;&gt;Node17 -->
<g id="edge21_Node000003_Node000017" class="edge">
<title>Node3&#45;&gt;Node17</title>
<g id="a_edge21_Node000003_Node000017"><a xlink:title=" ">
<path fill="none" stroke="#63b8ff" d="M442.59,-310.72C489.06,-298.12 563.29,-277.99 605.3,-266.6"/>
<polygon fill="#63b8ff" stroke="#63b8ff" points="441.56,-307.37 432.83,-313.37 443.4,-314.13 441.56,-307.37"/>
</a>
</g>
</g>
<!-- Node5 -->
<g id="Node000005" class="node">
<title>Node5</title>
<g id="a_Node000005"><a xlink:href="Config_8hpp.html" target="_top" xlink:title=" ">
<polygon fill="white" stroke="#666666" points="311.5,-134.5 172.5,-134.5 172.5,-115.5 311.5,-115.5 311.5,-134.5"/>
<text text-anchor="middle" x="242" y="-122.5" font-family="Helvetica,sans-Serif" font-size="10.00">include/config/Config.hpp</text>
</a>
</g>
</g>
<!-- Node4&#45;&gt;Node5 -->
<g id="edge4_Node000004_Node000005" class="edge">
<title>Node4&#45;&gt;Node5</title>
<g id="a_edge4_Node000004_Node000005"><a xlink:title=" ">
<path fill="none" stroke="#63b8ff" d="M115.54,-236.07C127.91,-227.17 142.41,-216.37 155,-206 184.78,-181.48 217.74,-149.83 233.15,-134.75"/>
<polygon fill="#63b8ff" stroke="#63b8ff" points="113.48,-233.25 107.37,-241.9 117.55,-238.94 113.48,-233.25"/>
</a>
</g>
</g>
<!-- Node10 -->
<g id="Node000010" class="node">
<title>Node10</title>
<g id="a_Node000010"><a xlink:href="ConfigGlobalBlock_8cpp.html" target="_top" xlink:title=" ">
<polygon fill="white" stroke="#666666" points="146,-206 0,-206 0,-176 146,-176 146,-206"/>
<text text-anchor="start" x="8" y="-194" font-family="Helvetica,sans-Serif" font-size="10.00">source/config/ConfigGlobal</text>
<text text-anchor="middle" x="73" y="-183" font-family="Helvetica,sans-Serif" font-size="10.00">Block.cpp</text>
</a>
</g>
</g>
<!-- Node4&#45;&gt;Node10 -->
<g id="edge10_Node000004_Node000010" class="edge">
<title>Node4&#45;&gt;Node10</title>
<g id="a_edge10_Node000004_Node000010"><a xlink:title=" ">
<path fill="none" stroke="#63b8ff" d="M81.71,-231.83C79.82,-223.17 77.75,-213.7 76.1,-206.16"/>
<polygon fill="#63b8ff" stroke="#63b8ff" points="78.34,-232.78 83.89,-241.8 85.18,-231.28 78.34,-232.78"/>
</a>
</g>
</g>
<!-- Node6 -->
<g id="Node000006" class="node">
<title>Node6</title>
<g id="a_Node000006"><a xlink:href="Kernel_8hpp.html" target="_top" xlink:title=" ">
<polygon fill="white" stroke="#666666" points="425,-74 285,-74 285,-55 425,-55 425,-74"/>
<text text-anchor="middle" x="355" y="-62" font-family="Helvetica,sans-Serif" font-size="10.00">include/kernel/Kernel.hpp</text>
</a>
</g>
</g>
<!-- Node5&#45;&gt;Node6 -->
<g id="edge5_Node000005_Node000006" class="edge">
<title>Node5&#45;&gt;Node6</title>
<g id="a_edge5_Node000005_Node000006"><a xlink:title=" ">
<path fill="none" stroke="#63b8ff" d="M267.64,-110.73C289.28,-99.53 319.62,-83.82 338.26,-74.17"/>
<polygon fill="#63b8ff" stroke="#63b8ff" points="265.94,-107.66 258.67,-115.37 269.16,-113.88 265.94,-107.66"/>
</a>
</g>
</g>
<!-- Node8 -->
<g id="Node000008" class="node">
<title>Node8</title>
<g id="a_Node000008"><a xlink:href="main_8cpp.html" target="_top" xlink:title=" ">
<polygon fill="white" stroke="#666666" points="339.5,-19 242.5,-19 242.5,0 339.5,0 339.5,-19"/>
<text text-anchor="middle" x="291" y="-7" font-family="Helvetica,sans-Serif" font-size="10.00">source/main.cpp</text>
</a>
</g>
</g>
<!-- Node5&#45;&gt;Node8 -->
<g id="edge9_Node000005_Node000008" class="edge">
<title>Node5&#45;&gt;Node8</title>
<g id="a_edge9_Node000005_Node000008"><a xlink:title=" ">
<path fill="none" stroke="#63b8ff" d="M249.7,-106.16C260.39,-81.41 279.29,-37.63 287.27,-19.13"/>
<polygon fill="#63b8ff" stroke="#63b8ff" points="246.43,-104.9 245.68,-115.47 252.86,-107.68 246.43,-104.9"/>
</a>
</g>
</g>
<!-- Node9 -->
<g id="Node000009" class="node">
<title>Node9</title>
<g id="a_Node000009"><a xlink:href="Config_8cpp.html" target="_top" xlink:title=" ">
<polygon fill="white" stroke="#666666" points="228.5,-74 93.5,-74 93.5,-55 228.5,-55 228.5,-74"/>
<text text-anchor="middle" x="161" y="-62" font-family="Helvetica,sans-Serif" font-size="10.00">source/config/Config.cpp</text>
</a>
</g>
</g>
<!-- Node5&#45;&gt;Node9 -->
<g id="edge8_Node000005_Node000009" class="edge">
<title>Node5&#45;&gt;Node9</title>
<g id="a_edge8_Node000005_Node000009"><a xlink:title=" ">
<path fill="none" stroke="#63b8ff" d="M221.71,-109.35C206.37,-98.27 185.82,-83.43 173,-74.17"/>
<polygon fill="#63b8ff" stroke="#63b8ff" points="219.89,-112.35 230.05,-115.37 223.99,-106.68 219.89,-112.35"/>
</a>
</g>
</g>
<!-- Node7 -->
<g id="Node000007" class="node">
<title>Node7</title>
<g id="a_Node000007"><a xlink:href="Kernel_8cpp.html" target="_top" xlink:title=" ">
<polygon fill="white" stroke="#666666" points="511,-19 375,-19 375,0 511,0 511,-19"/>
<text text-anchor="middle" x="443" y="-7" font-family="Helvetica,sans-Serif" font-size="10.00">source/kernel/Kernel.cpp</text>
</a>
</g>
</g>
<!-- Node6&#45;&gt;Node7 -->
<g id="edge6_Node000006_Node000007" class="edge">
<title>Node6&#45;&gt;Node7</title>
<g id="a_edge6_Node000006_Node000007"><a xlink:title=" ">
<path fill="none" stroke="#63b8ff" d="M377.92,-49.7C393.95,-40.04 414.87,-27.44 428.6,-19.17"/>
<polygon fill="#63b8ff" stroke="#63b8ff" points="375.9,-46.83 369.14,-54.98 379.51,-52.82 375.9,-46.83"/>
</a>
</g>
</g>
<!-- Node6&#45;&gt;Node8 -->
<g id="edge7_Node000006_Node000008" class="edge">
<title>Node6&#45;&gt;Node8</title>
<g id="a_edge7_Node000006_Node000008"><a xlink:title=" ">
<path fill="none" stroke="#63b8ff" d="M337.01,-48.6C325.54,-39.11 311.09,-27.13 301.47,-19.17"/>
<polygon fill="#63b8ff" stroke="#63b8ff" points="334.78,-51.3 344.72,-54.98 339.25,-45.91 334.78,-51.3"/>
</a>
</g>
</g>
<!-- Node11&#45;&gt;Node5 -->
<g id="edge12_Node000011_Node000005" class="edge">
<title>Node11&#45;&gt;Node5</title>
<g id="a_edge12_Node000011_Node000005"><a xlink:title=" ">
<path fill="none" stroke="#63b8ff" d="M238.68,-232.58C235.56,-224.34 232.56,-214.92 231,-206 226.52,-180.31 234.36,-149.72 238.98,-134.91"/>
<polygon fill="#63b8ff" stroke="#63b8ff" points="235.46,-233.95 242.45,-241.92 241.95,-231.33 235.46,-233.95"/>
</a>
</g>
</g>
<!-- Node11&#45;&gt;Node12 -->
<g id="edge13_Node000011_Node000012" class="edge">
<title>Node11&#45;&gt;Node12</title>
<g id="a_edge13_Node000011_Node000012"><a xlink:title=" ">
<path fill="none" stroke="#63b8ff" d="M268.94,-234.37C277.52,-225.06 287.31,-214.44 294.94,-206.16"/>
<polygon fill="#63b8ff" stroke="#63b8ff" points="266.3,-232.07 262.09,-241.8 271.45,-236.82 266.3,-232.07"/>
</a>
</g>
</g>
<!-- Node13&#45;&gt;Node14 -->
<g id="edge15_Node000013_Node000014" class="edge">
<title>Node13&#45;&gt;Node14</title>
<g id="a_edge15_Node000013_Node000014"><a xlink:title=" ">
<path fill="none" stroke="#63b8ff" d="M459.67,-231.83C461.69,-223.17 463.91,-213.7 465.68,-206.16"/>
<polygon fill="#63b8ff" stroke="#63b8ff" points="456.2,-231.26 457.33,-241.8 463.02,-232.86 456.2,-231.26"/>
</a>
</g>
</g>
<!-- Node13&#45;&gt;Node16 -->
<g id="edge19_Node000013_Node000016" class="edge">
<title>Node13&#45;&gt;Node16</title>
<g id="a_edge19_Node000013_Node000016"><a xlink:title=" ">
<path fill="none" stroke="#63b8ff" d="M513.87,-239.12C550.47,-228.8 596.73,-215.76 631.3,-206.01"/>
<polygon fill="#63b8ff" stroke="#63b8ff" points="512.49,-235.87 503.82,-241.95 514.39,-242.61 512.49,-235.87"/>
</a>
</g>
</g>
<!-- Node14&#45;&gt;Node5 -->
<g id="edge16_Node000014_Node000005" class="edge">
<title>Node14&#45;&gt;Node5</title>
<g id="a_edge16_Node000014_Node000005"><a xlink:title=" ">
<path fill="none" stroke="#63b8ff" d="M409.44,-173.21C365.34,-160.78 307.1,-144.35 272.21,-134.52"/>
<polygon fill="#63b8ff" stroke="#63b8ff" points="408.61,-176.61 419.18,-175.95 410.51,-169.87 408.61,-176.61"/>
</a>
</g>
</g>
<!-- Node14&#45;&gt;Node7 -->
<g id="edge18_Node000014_Node000007" class="edge">
<title>Node14&#45;&gt;Node7</title>
<g id="a_edge18_Node000014_Node000007"><a xlink:title=" ">
<path fill="none" stroke="#63b8ff" d="M465.5,-165.83C459.63,-125.29 448.06,-45.45 444.25,-19.13"/>
<polygon fill="#63b8ff" stroke="#63b8ff" points="462.06,-166.52 466.96,-175.91 468.99,-165.52 462.06,-166.52"/>
</a>
</g>
</g>
<!-- Node14&#45;&gt;Node15 -->
<g id="edge17_Node000014_Node000015" class="edge">
<title>Node14&#45;&gt;Node15</title>
<g id="a_edge17_Node000014_Node000015"><a xlink:title=" ">
<path fill="none" stroke="#63b8ff" d="M526.49,-173.12C561.64,-162.8 606.07,-149.76 639.27,-140.01"/>
<polygon fill="#63b8ff" stroke="#63b8ff" points="525.45,-169.78 516.84,-175.95 527.42,-176.5 525.45,-169.78"/>
</a>
</g>
</g>
</g>
</svg>
